<svg width="24" height="22" viewBox="0 0 24 22" fill="none" xmlns="http://www.w3.org/2000/svg">
<g clip-path="url(#clip0_47_49)">
<path d="M7.87506 19.9546C7.87473 20.2537 7.7707 20.5435 7.5807 20.7745C7.39069 21.0055 7.12646 21.1635 6.83302 21.2216C6.53959 21.2796 6.2351 21.2342 5.97143 21.0929C5.70777 20.9516 5.50123 20.7233 5.38702 20.4468C5.27281 20.1704 5.25799 19.8629 5.34508 19.5767C5.43216 19.2905 5.61578 19.0434 5.86463 18.8775C6.11349 18.7115 6.41219 18.6369 6.70985 18.6665C7.00751 18.6961 7.28571 18.8279 7.49706 19.0396C7.73881 19.2828 7.87467 19.6117 7.87506 19.9546Z" fill="#037A80"/>
<path d="M19.3594 19.9546C19.3591 20.2537 19.2551 20.5435 19.0651 20.7745C18.8751 21.0055 18.6108 21.1635 18.3174 21.2216C18.024 21.2796 17.7195 21.2342 17.4558 21.0929C17.1921 20.9516 16.9856 20.7233 16.8714 20.4468C16.7572 20.1704 16.7424 19.8629 16.8295 19.5767C16.9165 19.2905 17.1002 19.0434 17.349 18.8775C17.5979 18.7115 17.8966 18.6369 18.1942 18.6665C18.4919 18.6961 18.7701 18.8279 18.9814 19.0396C19.2232 19.2828 19.359 19.6117 19.3594 19.9546Z" fill="#037A80"/>
<path d="M22.336 4.78518C22.319 4.72553 22.2838 4.67263 22.2355 4.63377C22.1871 4.59491 22.1279 4.57199 22.066 4.56818L5.15 2.94018C5.07092 2.93204 4.99475 2.90591 4.92732 2.86379C4.8599 2.82167 4.803 2.76467 4.761 2.69718C4.58578 2.35466 4.37351 2.0324 4.128 1.73618C3.728 1.25018 2.975 1.26618 1.594 1.25518C1.48982 1.24292 1.38424 1.25248 1.28396 1.28325C1.18368 1.31401 1.09089 1.36531 1.01151 1.43387C0.932131 1.50244 0.867886 1.58677 0.822864 1.68151C0.777842 1.77625 0.753028 1.87933 0.75 1.98418C0.751213 2.08656 0.773631 2.18758 0.815842 2.28087C0.858052 2.37416 0.919138 2.45768 0.995245 2.52618C1.07135 2.59468 1.16083 2.64666 1.25803 2.67884C1.35524 2.71103 1.45805 2.72272 1.56 2.71318C2.01218 2.70239 2.46434 2.73588 2.91 2.81318C3.154 2.88518 3.352 3.28318 3.424 3.62918C3.42371 3.63189 3.424 3.63463 3.42487 3.63722C3.42573 3.63981 3.42714 3.64218 3.429 3.64418C3.439 3.70618 3.529 4.17118 3.529 4.17618L5.609 15.1102C5.70008 15.7786 5.95839 16.4132 6.36 16.9552C6.55748 17.2215 6.81587 17.4366 7.11354 17.5826C7.41122 17.7286 7.73953 17.8011 8.071 17.7942H20.357C20.547 17.7973 20.7308 17.727 20.8702 17.5979C21.0096 17.4688 21.0937 17.2908 21.105 17.1012C21.1094 17.0033 21.0937 16.9056 21.0591 16.814C21.0244 16.7224 20.9714 16.6388 20.9034 16.5684C20.8354 16.4979 20.7537 16.442 20.6634 16.4042C20.573 16.3663 20.4759 16.3473 20.378 16.3482H8.061C7.90478 16.3573 7.75109 16.3057 7.632 16.2042C7.29173 15.833 7.08118 15.3613 7.032 14.8602L6.81 13.6332C6.80906 13.6263 6.81068 13.6194 6.81456 13.6137C6.81843 13.6079 6.82429 13.6038 6.831 13.6022L21.25 11.1742C21.3163 11.1642 21.3774 11.1323 21.4234 11.0835C21.4694 11.0347 21.4978 10.972 21.504 10.9052L22.335 4.92118C22.3457 4.87647 22.3457 4.82988 22.335 4.78518H22.336Z" stroke="#037A80" stroke-width="1.5"/>
</g>
<defs>
<clipPath id="clip0_47_49">
<rect width="23.094" height="20.75" fill="white" transform="translate(0 0.5)"/>
</clipPath>
</defs>
</svg>
