<svg width="36" height="37" viewBox="0 0 36 37" fill="none" xmlns="http://www.w3.org/2000/svg">
<g clip-path="url(#clip0_47_59)">
<path d="M18 36.5C27.9411 36.5 36 28.4411 36 18.5C36 8.55887 27.9411 0.5 18 0.5C8.05887 0.5 0 8.55887 0 18.5C0 28.4411 8.05887 36.5 18 36.5Z" fill="#037A80"/>
<path d="M24.7743 23.415L23.7323 13.615C23.7388 13.3258 23.6301 13.0459 23.4302 12.8368C23.2303 12.6277 22.9555 12.5066 22.6663 12.5H14.1323C13.989 12.5031 13.8478 12.5344 13.7166 12.5922C13.5854 12.6499 13.4669 12.7329 13.3678 12.8364C13.2687 12.94 13.191 13.062 13.1391 13.1956C13.0872 13.3292 13.0621 13.4717 13.0653 13.615L12.0233 23.415C12.0071 23.4926 11.9987 23.5717 11.9983 23.651C11.9951 23.7943 12.0202 23.9368 12.0721 24.0704C12.124 24.204 12.2017 24.326 12.3008 24.4296C12.3999 24.5331 12.5184 24.6161 12.6496 24.6738C12.7808 24.7316 12.922 24.7629 13.0653 24.766H23.7323C24.0215 24.7597 24.2964 24.6388 24.4965 24.4299C24.6965 24.221 24.8055 23.9412 24.7993 23.652C24.799 23.5724 24.7906 23.493 24.7743 23.415ZM21.0663 15.236V15.845C21.0819 16.2049 21.0245 16.5642 20.8975 16.9013C20.7705 17.2384 20.5766 17.5463 20.3275 17.8065C20.0783 18.0666 19.7791 18.2737 19.4478 18.4151C19.1165 18.5566 18.76 18.6295 18.3998 18.6295C18.0396 18.6295 17.6831 18.5566 17.3518 18.4151C17.0205 18.2737 16.7213 18.0666 16.4721 17.8065C16.223 17.5463 16.0291 17.2384 15.9021 16.9013C15.7752 16.5642 15.7177 16.2049 15.7333 15.845V15.236C15.5751 15.1751 15.4392 15.0672 15.3439 14.9269C15.2487 14.7866 15.1986 14.6206 15.2003 14.451C15.2003 14.2388 15.2846 14.0353 15.4346 13.8853C15.5847 13.7353 15.7881 13.651 16.0003 13.651C16.2125 13.651 16.416 13.7353 16.566 13.8853C16.716 14.0353 16.8003 14.2388 16.8003 14.451V15.845C16.8003 16.2693 16.9689 16.6763 17.2689 16.9764C17.569 17.2764 17.976 17.445 18.4003 17.445C18.8247 17.445 19.2316 17.2764 19.5317 16.9764C19.8317 16.6763 20.0003 16.2693 20.0003 15.845V14.451C20.0003 14.2388 20.0846 14.0353 20.2346 13.8853C20.3847 13.7353 20.5881 13.651 20.8003 13.651C21.0125 13.651 21.216 13.7353 21.366 13.8853C21.516 14.0353 21.6003 14.2388 21.6003 14.451C21.6022 14.6209 21.552 14.7872 21.4566 14.9277C21.3611 15.0682 21.2249 15.1762 21.0663 15.237V15.236Z" fill="#F9F9F9"/>
</g>
<defs>
<clipPath id="clip0_47_59">
<rect width="36" height="36" fill="white" transform="translate(0 0.5)"/>
</clipPath>
</defs>
</svg>
