<svg id="bags" xmlns="http://www.w3.org/2000/svg" width="217.815" height="210.067" viewBox="0 0 217.815 210.067">
  <path id="Path_15098" data-name="Path 15098" d="M89.368,66.151l-1.853-.081c.11-2.528,1.22-24.814,6.1-28.879a2.915,2.915,0,0,1,2.3-.72c2.9.4,6.075,5.013,9.7,14.088,2.577,6.461,4.435,12.9,4.453,12.968l-1.782.512c-.018-.064-1.854-6.428-4.4-12.8-4.492-11.258-7.248-12.789-8.224-12.925a1.039,1.039,0,0,0-.856.308C91.2,41.616,89.659,59.509,89.368,66.151Z"/>
  <path id="Path_15099" data-name="Path 15099" d="M73,54.126l-1.855,46.55,61.208-6.6-7.566-44.943Z" fill="#ffba49"/>
  <path id="Path_15100" data-name="Path 15100" d="M124.783,49.135l-4.5.434,5.992,39.41L71.355,95.3l-.214,5.373,61.208-6.6Z" fill="#ffa113"/>
  <path id="Path_15101" data-name="Path 15101" d="M157.849,129.18,155.3,128.9c.022-.2,2.136-20.114-4.719-27.561a8.03,8.03,0,0,0-6.465-2.679c-14.931.425-21.952,26.067-22.021,26.326l-2.474-.662a66.121,66.121,0,0,1,5.71-13.764c5.2-9.261,11.673-14.262,18.712-14.462A10.585,10.585,0,0,1,152.47,99.6C160.113,107.908,157.945,128.316,157.849,129.18Z" fill="#ffba49"/>
  <path id="Path_15102" data-name="Path 15102" d="M112.428,110.918l54.03,6.412-.838,85.734-72.123-8.6Z" fill="#db3022"/>
  <path id="Path_15103" data-name="Path 15103" d="M166.458,117.33l-5.351-.636L158.5,196.022l-63.989-6.037L93.5,194.468l72.123,8.6Z" fill="#d10505"/>
  <path id="Path_15104" data-name="Path 15104" d="M180,144.577c2.461.515,4.805-1.453,5.236-4.4q.688,1.176,1.377,2.355c-.43,2.947-2.776,4.916-5.234,4.4Q180.69,145.752,180,144.577Z" fill="#ffba49"/>
  <path id="Path_15105" data-name="Path 15105" d="M107.332,207.63c2.461.516,4.805-1.453,5.236-4.4q.688,1.176,1.377,2.354c-.43,2.947-2.776,4.917-5.234,4.4Q108.022,208.806,107.332,207.63Z" fill="#9b9b9b"/>
  <path id="Path_15106" data-name="Path 15106" d="M185.494,95.236c1.032,2.724,3.711,3.934,5.987,2.7q-.423,1.346-.847,2.692c-2.276,1.234-4.955.025-5.986-2.7Q185.074,96.583,185.494,95.236Z" fill="#ff5c00"/>
  <path id="Path_15107" data-name="Path 15107" d="M169.571,75.887c.416-2.951-1.244-5.745-3.707-6.242q.977-.834,1.956-1.668c2.462.5,4.122,3.293,3.708,6.242Z" fill="#021193"/>
  <path id="Path_15108" data-name="Path 15108" d="M21.708,63.977c.415-2.951-1.244-5.745-3.708-6.243l1.956-1.668c2.462.5,4.122,3.292,3.708,6.242Z" fill="#ff5c00"/>
  <path id="Path_15109" data-name="Path 15109" d="M72.094,168.542c.415-2.952-1.244-5.746-3.708-6.243l1.956-1.668c2.462.5,4.122,3.293,3.708,6.243Z" fill="#ff5c00"/>
  <path id="Path_15110" data-name="Path 15110" d="M201.332,57.956c2.445.617,4.842-1.256,5.357-4.186L208,56.18c-.514,2.926-2.913,4.8-5.356,4.186Q201.987,59.162,201.332,57.956Z" fill="#ffba49"/>
  <path id="Path_15111" data-name="Path 15111" d="M5.821,94.208c-.876-2.8-3.481-4.224-5.821-3.173l.994-2.618c2.337-1.05,4.944.37,5.821,3.172Z" fill="#ffba49"/>
  <path id="Path_15112" data-name="Path 15112" d="M66.534,128.347c.173,2.984,2.333,5.236,4.824,5.028-.525.725-1.052,1.446-1.576,2.171-2.492.206-4.651-2.047-4.824-5.032Q65.746,129.432,66.534,128.347Z" fill="#db3022"/>
  <path id="Path_15113" data-name="Path 15113" d="M48.929,74.12c2.474-.411,4.2-3.148,3.856-6.112L54.7,69.742c.343,2.965-1.382,5.7-3.857,6.113Q49.887,74.987,48.929,74.12Z" fill="#021193"/>
  <path id="Path_15114" data-name="Path 15114" d="M149.812,37.773c-3.208.106-.9,5.759-4.111,5.868q-.92-.924-1.839-1.849c3.209-.107.9-5.76,4.111-5.868Z" fill="#ff5c00"/>
  <path id="Path_15115" data-name="Path 15115" d="M155.641,186.345c-3.122-.886-2.11,5.287-5.234,4.4l-1.379-2.355c3.124.886,2.111-5.287,5.236-4.4Q154.951,185.169,155.641,186.345Z" fill="#ffba49"/>
  <path id="Path_15116" data-name="Path 15116" d="M62.781,194.382c-2.206,2.795,2.761,4.842.556,7.634-.8.082-1.594.167-2.39.248,2.206-2.793-2.761-4.838-.556-7.632Q61.586,194.509,62.781,194.382Z" fill="#021193"/>
  <path id="Path_15117" data-name="Path 15117" d="M134.225,1.422c-3.14.8-.024,5.864-3.162,6.662-.694-.475-1.392-.948-2.086-1.424,3.139-.8.02-5.86,3.161-6.659Q133.182.714,134.225,1.422Z" fill="#db3022"/>
  <path id="Path_15118" data-name="Path 15118" d="M33.444,18.071c1.545,3.372,4.693-1.664,6.236,1.706-.179.933-.356,1.87-.536,2.8-1.542-3.372-4.689,1.666-6.234-1.706Q33.179,19.471,33.444,18.071Z" fill="#9b9b9b"/>
  <path id="Path_15119" data-name="Path 15119" d="M6.815,150.65a1.8,1.8,0,0,0,0-3.539"/>
  <path id="Path_15120" data-name="Path 15120" d="M174.448,13.933A2.727,2.727,0,0,1,172,11a2.488,2.488,0,1,1,4.9,0A2.727,2.727,0,0,1,174.448,13.933Zm0-4.7A1.645,1.645,0,0,0,172.971,11a1.5,1.5,0,1,0,2.954,0,1.645,1.645,0,0,0-1.477-1.769Z"/>
  <path id="Path_15121" data-name="Path 15121" d="M31.947,125.05a2.98,2.98,0,0,1,0-5.865,2.98,2.98,0,0,1,0,5.865Zm0-4.7a1.8,1.8,0,0,0,0,3.539,1.8,1.8,0,0,0,0-3.539Z"/>
  <path id="Path_15122" data-name="Path 15122" d="M216.821,154.2c-.876-2.8-3.482-4.224-5.821-3.173l.994-2.618c2.338-1.05,4.944.37,5.821,3.172Q217.318,152.894,216.821,154.2Z"/>
</svg>
