<svg width="23" height="21" viewBox="0 0 23 21" fill="none" xmlns="http://www.w3.org/2000/svg">
<g clip-path="url(#clip0_47_54)">
<path d="M7.63022 19.7002C7.62892 19.9566 7.55243 20.2069 7.41022 20.4202C7.26802 20.6335 7.06636 20.8004 6.83022 20.9002C6.654 20.974 6.46356 21.0076 6.27273 20.9986C6.0819 20.9896 5.89546 20.9383 5.72694 20.8483C5.55843 20.7583 5.41207 20.6319 5.29848 20.4783C5.18488 20.3247 5.10691 20.1477 5.07022 19.9602C5.02323 19.7086 5.04748 19.4488 5.14022 19.2102C5.23619 18.9718 5.40393 18.7691 5.62022 18.6302C5.86798 18.4627 6.16645 18.3871 6.46407 18.4163C6.76169 18.4455 7.03976 18.5778 7.25022 18.7902C7.37145 18.9086 7.46758 19.0502 7.53287 19.2065C7.59816 19.3629 7.63127 19.5308 7.63022 19.7002Z" fill="#037A80"/>
<path d="M19.1107 19.7002C19.1094 19.9566 19.0329 20.2069 18.8907 20.4202C18.7485 20.6335 18.5468 20.8004 18.3107 20.9002C18.1345 20.974 17.944 21.0076 17.7532 20.9986C17.5624 20.9896 17.3759 20.9383 17.2074 20.8483C17.0389 20.7583 16.8925 20.6319 16.7789 20.4783C16.6654 20.3247 16.5874 20.1477 16.5507 19.9602C16.5037 19.7086 16.5279 19.4488 16.6207 19.2102C16.7167 18.9718 16.8844 18.7691 17.1007 18.6302C17.3484 18.4627 17.6469 18.3871 17.9445 18.4163C18.2422 18.4455 18.5202 18.5778 18.7307 18.7902C18.8519 18.9086 18.948 19.0502 19.0133 19.2065C19.0786 19.3629 19.1117 19.5308 19.1107 19.7002Z" fill="#037A80"/>
<path d="M22.09 4.53367C22.0724 4.47479 22.0376 4.42253 21.99 4.38367C21.9403 4.34613 21.8817 4.32203 21.82 4.31367L4.89998 2.68367C4.82091 2.67674 4.74504 2.64915 4.67998 2.60367C4.61149 2.5602 4.55345 2.50216 4.50998 2.43367C4.34009 2.09216 4.12847 1.77306 3.87998 1.48367C3.47998 0.993666 2.72998 1.01367 1.34998 1.00367C1.24568 0.99377 1.14045 1.00395 1.03998 1.03367C0.940192 1.06355 0.848073 1.11472 0.769984 1.18367C0.690037 1.2516 0.622383 1.33278 0.569984 1.42367C0.523946 1.51697 0.5 1.61962 0.5 1.72367C0.5 1.82771 0.523946 1.93036 0.569984 2.02367C0.611382 2.11893 0.672767 2.20419 0.749984 2.27367C0.822905 2.34441 0.912242 2.39595 1.00998 2.42367C1.10702 2.45336 1.20898 2.46356 1.30998 2.45367C1.76219 2.44216 2.21441 2.47566 2.65998 2.55367C2.89998 2.62367 3.09998 3.02367 3.16998 3.37367V3.39367C3.17998 3.45367 3.26998 3.92367 3.26998 3.92367L5.34998 14.8537C5.44036 15.5206 5.6984 16.1536 6.09998 16.6937C6.29852 16.9583 6.5551 17.1738 6.84998 17.3237C7.14766 17.4721 7.47753 17.5442 7.80998 17.5337H20.1C20.2892 17.5343 20.4716 17.4628 20.61 17.3337C20.7479 17.2015 20.8331 17.0239 20.85 16.8337C20.8538 16.7346 20.8367 16.6358 20.8 16.5437C20.766 16.4494 20.7114 16.364 20.64 16.2937C20.5734 16.2226 20.4912 16.1678 20.4 16.1337C20.3085 16.0937 20.2098 16.0733 20.11 16.0737H7.80998C7.65388 16.0849 7.49957 16.0346 7.37998 15.9337C7.0402 15.5637 6.82965 15.0935 6.77998 14.5937L6.54998 13.3637V13.3437C6.54998 13.3337 6.55998 13.3337 6.56998 13.3337L21 10.9137C21.0661 10.9066 21.127 10.8744 21.17 10.8237C21.2161 10.7744 21.2443 10.711 21.25 10.6437L22.08 4.66367C22.0977 4.62267 22.1013 4.5769 22.09 4.53367Z" stroke="#037A80" stroke-miterlimit="10"/>
</g>
<defs>
<clipPath id="clip0_47_54">
<rect width="22.598" height="20.5" fill="white" transform="translate(0 0.5)"/>
</clipPath>
</defs>
</svg>
