<svg width="22" height="21" viewBox="0 0 22 21" fill="none" xmlns="http://www.w3.org/2000/svg">
<g clip-path="url(#clip0_47_63)">
<path d="M7.12506 19.2046C7.12473 19.5037 7.0207 19.7935 6.8307 20.0245C6.64069 20.2555 6.37646 20.4135 6.08302 20.4716C5.78959 20.5296 5.4851 20.4842 5.22143 20.3429C4.95777 20.2016 4.75123 19.9733 4.63702 19.6968C4.52281 19.4204 4.50799 19.1129 4.59508 18.8267C4.68216 18.5405 4.86578 18.2934 5.11463 18.1275C5.36349 17.9615 5.66219 17.8869 5.95985 17.9165C6.25751 17.9461 6.53571 18.0779 6.74706 18.2896C6.98881 18.5328 7.12467 18.8617 7.12506 19.2046Z" fill="#037A80"/>
<path d="M18.6094 19.2046C18.6091 19.5037 18.5051 19.7935 18.3151 20.0245C18.1251 20.2555 17.8608 20.4135 17.5674 20.4716C17.274 20.5296 16.9695 20.4842 16.7058 20.3429C16.4421 20.2016 16.2356 19.9733 16.1214 19.6968C16.0072 19.4204 15.9924 19.1129 16.0795 18.8267C16.1665 18.5405 16.3502 18.2934 16.599 18.1275C16.8479 17.9615 17.1466 17.8869 17.4442 17.9165C17.7419 17.9461 18.0201 18.0779 18.2314 18.2896C18.4732 18.5328 18.609 18.8617 18.6094 19.2046Z" fill="#037A80"/>
<path d="M21.586 4.03454C21.569 3.97489 21.5338 3.92199 21.4855 3.88313C21.4371 3.84427 21.3779 3.82135 21.316 3.81754L4.4 2.18954C4.32092 2.1814 4.24475 2.15527 4.17732 2.11315C4.1099 2.07103 4.053 2.01404 4.011 1.94654C3.83673 1.60416 3.62546 1.2819 3.381 0.985537C2.981 0.499537 2.228 0.515537 0.847 0.505537C0.742674 0.492841 0.636846 0.502035 0.536273 0.532534C0.435699 0.563034 0.34259 0.614167 0.262888 0.682672C0.183186 0.751176 0.118643 0.835545 0.0733784 0.930394C0.0281139 1.02524 0.00312266 1.12849 0 1.23354C0.00121262 1.33592 0.0236312 1.43695 0.0658415 1.53023C0.108052 1.62352 0.169138 1.70705 0.245245 1.77554C0.321353 1.84404 0.41083 1.89602 0.508033 1.9282C0.605235 1.96039 0.708053 1.97208 0.81 1.96254C1.26218 1.95175 1.71434 1.98524 2.16 2.06254C2.404 2.13454 2.602 2.53254 2.674 2.87854C2.67371 2.88125 2.674 2.88399 2.67487 2.88658C2.67573 2.88917 2.67714 2.89154 2.679 2.89354C2.689 2.95554 2.779 3.42054 2.779 3.42554L4.859 14.3595C4.95008 15.0279 5.20839 15.6625 5.61 16.2045C5.80748 16.4708 6.06587 16.686 6.36354 16.832C6.66122 16.9779 6.98953 17.0505 7.321 17.0435H19.607C19.797 17.0467 19.9808 16.9764 20.1202 16.8473C20.2596 16.7182 20.3437 16.5402 20.355 16.3505C20.3594 16.2527 20.3437 16.155 20.3091 16.0634C20.2744 15.9718 20.2214 15.8882 20.1534 15.8177C20.0854 15.7473 20.0037 15.6914 19.9134 15.6535C19.823 15.6157 19.7259 15.5966 19.628 15.5975H7.311C7.15478 15.6066 7.00109 15.555 6.882 15.4535C6.54173 15.0823 6.33118 14.6107 6.282 14.1095L6.06 12.8825C6.05906 12.8757 6.06068 12.8687 6.06456 12.863C6.06843 12.8573 6.07429 12.8532 6.081 12.8515L20.5 10.4235C20.5663 10.4135 20.6274 10.3816 20.6734 10.3329C20.7194 10.2841 20.7478 10.2213 20.754 10.1545L21.585 4.17054C21.596 4.12591 21.5963 4.07932 21.586 4.03454Z" fill="#037A80"/>
</g>
<defs>
<clipPath id="clip0_47_63">
<rect width="21.593" height="20" fill="white" transform="translate(0 0.5)"/>
</clipPath>
</defs>
</svg>
