<svg width="21" height="21" viewBox="0 0 21 21" fill="none" xmlns="http://www.w3.org/2000/svg">
<g clip-path="url(#clip0_47_67)">
<path d="M8.23852 1.20752L8.59152 0.853516M8.23852 1.20752C8.35311 1.32208 8.41749 1.47748 8.41752 1.63952V8.30652C8.41752 8.46856 8.35314 8.62397 8.23856 8.73856C8.12397 8.85314 7.96856 8.91752 7.80652 8.91752H1.13952C0.977477 8.91749 0.822083 8.85311 0.707516 8.73852M8.23852 1.20752C8.12395 1.09293 7.96855 1.02854 7.80652 1.02852H1.13952C0.977468 1.02852 0.822058 1.09289 0.707473 1.20747C0.592889 1.32206 0.528516 1.47747 0.528516 1.63952V8.30652C0.528538 8.46855 0.592926 8.62395 0.707516 8.73852M0.707516 8.73852L0.353516 9.09252M11.8185 1.20752C11.7039 1.32208 11.6395 1.47748 11.6395 1.63952V8.30652C11.6395 8.46856 11.7039 8.62397 11.8185 8.73856C11.9331 8.85314 12.0885 8.91752 12.2505 8.91752H18.9175C19.0796 8.91752 19.235 8.85314 19.3496 8.73856C19.4641 8.62397 19.5285 8.46856 19.5285 8.30652V1.63952C19.5285 1.47747 19.4641 1.32206 19.3496 1.20747C19.235 1.09289 19.0796 1.02852 18.9175 1.02852H12.2505C12.0885 1.02854 11.9331 1.09293 11.8185 1.20752ZM11.8185 1.20752L11.4645 0.853516M0.707516 12.3185C0.592926 12.4331 0.528538 12.5885 0.528516 12.7505V19.4175C0.528516 19.5796 0.592889 19.735 0.707473 19.8496C0.822058 19.9641 0.977468 20.0285 1.13952 20.0285H7.80652C7.96856 20.0285 8.12397 19.9641 8.23856 19.8496C8.35314 19.735 8.41752 19.5796 8.41752 19.4175V12.7505C8.41752 12.5885 8.35314 12.4331 8.23856 12.3185C8.12397 12.2039 7.96856 12.1395 7.80652 12.1395H1.13952C0.977477 12.1395 0.822083 12.2039 0.707516 12.3185ZM0.707516 12.3185L0.353516 11.9645M19.5285 16.0845C19.5285 16.8646 19.2972 17.6271 18.8638 18.2757C18.4305 18.9243 17.8145 19.4298 17.0938 19.7283C16.3731 20.0268 15.5801 20.1049 14.8151 19.9527C14.05 19.8006 13.3473 19.4249 12.7957 18.8733C12.2441 18.3218 11.8685 17.619 11.7163 16.854C11.5641 16.0889 11.6422 15.2959 11.9407 14.5752C12.2392 13.8545 12.7448 13.2386 13.3933 12.8052C14.0419 12.3718 14.8045 12.1405 15.5845 12.1405C16.6301 12.1418 17.6325 12.5578 18.3719 13.2971C19.1112 14.0365 19.5272 15.0389 19.5285 16.0845Z" stroke="#037A80"/>
</g>
<defs>
<clipPath id="clip0_47_67">
<rect width="20.028" height="20.028" fill="white" transform="translate(0 0.5)"/>
</clipPath>
</defs>
</svg>
