<svg width="20" height="21" viewBox="0 0 20 21" fill="none" xmlns="http://www.w3.org/2000/svg">
<g clip-path="url(#clip0_47_70)">
<path d="M1.111 9.389H7.778C8.07266 9.389 8.35524 9.27195 8.5636 9.0636C8.77195 8.85524 8.889 8.57266 8.889 8.278V1.611C8.889 1.31634 8.77195 1.03376 8.5636 0.825404C8.35524 0.617051 8.07266 0.5 7.778 0.5L1.111 0.5C0.816344 0.5 0.533757 0.617051 0.325404 0.825404C0.117051 1.03376 0 1.31634 0 1.611L0 8.278C0 8.57266 0.117051 8.85524 0.325404 9.0636C0.533757 9.27195 0.816344 9.389 1.111 9.389ZM12.222 9.389H18.889C19.1837 9.389 19.4662 9.27195 19.6746 9.0636C19.8829 8.85524 20 8.57266 20 8.278V1.611C20 1.31634 19.8829 1.03376 19.6746 0.825404C19.4662 0.617051 19.1837 0.5 18.889 0.5L12.222 0.5C11.9273 0.5 11.6448 0.617051 11.4364 0.825404C11.2281 1.03376 11.111 1.31634 11.111 1.611V8.278C11.111 8.57266 11.2281 8.85524 11.4364 9.0636C11.6448 9.27195 11.9273 9.389 12.222 9.389ZM1.111 20.5H7.778C8.07266 20.5 8.35524 20.3829 8.5636 20.1746C8.77195 19.9662 8.889 19.6837 8.889 19.389V12.722C8.889 12.4273 8.77195 12.1448 8.5636 11.9364C8.35524 11.7281 8.07266 11.611 7.778 11.611H1.111C0.816344 11.611 0.533757 11.7281 0.325404 11.9364C0.117051 12.1448 0 12.4273 0 12.722L0 19.389C0 19.6837 0.117051 19.9662 0.325404 20.1746C0.533757 20.3829 0.816344 20.5 1.111 20.5ZM15.555 20.5C16.4339 20.5 17.2931 20.2394 18.024 19.7511C18.7548 19.2627 19.3244 18.5687 19.6607 17.7566C19.9971 16.9446 20.0851 16.0511 19.9136 15.189C19.7421 14.327 19.3189 13.5351 18.6974 12.9136C18.0759 12.2921 17.284 11.8689 16.422 11.6974C15.5599 11.5259 14.6664 11.6139 13.8544 11.9503C13.0423 12.2866 12.3483 12.8562 11.8599 13.587C11.3716 14.3179 11.111 15.1771 11.111 16.056C11.1123 17.2344 11.5811 18.3641 12.4144 19.1973C13.2478 20.0304 14.3766 20.4989 15.555 20.5Z" fill="#037A80"/>
</g>
<defs>
<clipPath id="clip0_47_70">
<rect width="20" height="20" fill="white" transform="translate(0 0.5)"/>
</clipPath>
</defs>
</svg>
