<svg width="19" height="20" viewBox="0 0 19 20" fill="none" xmlns="http://www.w3.org/2000/svg">
<g clip-path="url(#clip0_47_76)">
<path d="M9.33322 2.59733L3.89122 7.13233V15.6323C3.92298 16.0431 4.11534 16.4249 4.42664 16.6948C4.73793 16.9647 5.14306 17.1011 5.55421 17.0743H6.93521V12.5973C6.93307 12.3875 6.97286 12.1793 7.05222 11.985C7.13158 11.7907 7.24891 11.6141 7.39737 11.4658C7.54583 11.3174 7.72242 11.2002 7.91678 11.1209C8.11113 11.0417 8.31935 11.0021 8.52922 11.0043H10.1372C10.3471 11.0021 10.5553 11.0417 10.7497 11.1209C10.944 11.2002 11.1206 11.3174 11.2691 11.4658C11.4175 11.6141 11.5349 11.7907 11.6142 11.985C11.6936 12.1793 11.7334 12.3875 11.7312 12.5973V17.0743H13.0922C13.5034 17.1011 13.9085 16.9647 14.2198 16.6948C14.5311 16.4249 14.7235 16.0431 14.7552 15.6323V7.11133L9.33322 2.59333M9.33322 1.48633C9.47248 1.48596 9.60752 1.53404 9.71521 1.62233L18.1572 8.65733C18.2202 8.70634 18.2721 8.76806 18.3097 8.83846C18.3473 8.90886 18.3696 8.98637 18.3752 9.06596C18.3809 9.14555 18.3698 9.22545 18.3425 9.30046C18.3153 9.37546 18.2726 9.4439 18.2172 9.50133C18.1612 9.5701 18.0906 9.6256 18.0105 9.66381C17.9305 9.70203 17.8429 9.72201 17.7542 9.72233C17.6138 9.72454 17.4776 9.67426 17.3722 9.58133L15.7442 8.23433V15.6343C15.7144 16.3085 15.4182 16.9432 14.9208 17.3991C14.4234 17.8551 13.7654 18.0951 13.0912 18.0663H5.55322C4.87906 18.0951 4.22103 17.8551 3.72362 17.3991C3.22621 16.9432 2.93008 16.3085 2.90022 15.6343V8.23433L1.27322 9.58333C1.16745 9.66868 1.03512 9.71433 0.899216 9.71234C0.810254 9.7137 0.722058 9.69572 0.640732 9.65963C0.559406 9.62354 0.4869 9.57021 0.428223 9.50333C0.328306 9.38022 0.280709 9.22282 0.29567 9.06497C0.310632 8.90713 0.386943 8.76147 0.50821 8.65933L8.95122 1.62433C9.05918 1.53676 9.19421 1.48939 9.33322 1.49033V1.48633ZM10.7402 16.8183V12.5973C10.7413 12.5182 10.7265 12.4397 10.6967 12.3664C10.667 12.2932 10.6228 12.2266 10.5669 12.1707C10.5109 12.1147 10.4444 12.0706 10.3711 12.0408C10.2978 12.011 10.2193 11.9962 10.1402 11.9973H8.53221C8.45312 11.9962 8.37463 12.011 8.30135 12.0408C8.22807 12.0706 8.16149 12.1147 8.10556 12.1707C8.04963 12.2266 8.00546 12.2932 7.97569 12.3664C7.94592 12.4397 7.93114 12.5182 7.93222 12.5973V16.8183H10.7402Z" fill="#037A80"/>
</g>
<defs>
<clipPath id="clip0_47_76">
<rect width="19" height="19" fill="white" transform="translate(0 0.5)"/>
</clipPath>
</defs>
</svg>
