<svg width="19" height="20" viewBox="0 0 19 20" fill="none" xmlns="http://www.w3.org/2000/svg">
<g clip-path="url(#clip0_47_85)">
<path d="M9.38112 4.91524C9.02966 4.87689 8.67407 4.9129 8.33743 5.02092C8.0008 5.12894 7.69064 5.30655 7.42712 5.54224C7.18868 5.83158 7.0699 6.20115 7.09512 6.57524C7.09512 6.60824 7.09512 6.64124 7.09512 6.67524V8.09024C7.0951 8.32689 7.01032 8.55571 6.85612 8.73524C6.83717 8.75614 6.8262 8.78305 6.82512 8.81124V9.89024C6.82515 9.90798 6.82922 9.92548 6.83702 9.94142C6.84481 9.95736 6.85613 9.97132 6.87012 9.98224C7.03353 10.116 7.14986 10.2986 7.20212 10.5032C7.35808 11.0758 7.61993 11.6141 7.97412 12.0902C8.10459 12.263 8.17485 12.4737 8.17412 12.6902V13.5712C8.17406 13.8711 8.09324 14.1653 7.94015 14.4231C7.78706 14.6809 7.56735 14.8927 7.30412 15.0362L5.41112 16.0782C5.48645 16.1262 5.56312 16.1732 5.64112 16.2192L5.74112 16.2762C5.91112 16.3762 6.07912 16.4612 6.24112 16.5372L6.28012 16.5552C6.84756 16.8187 7.44644 17.0082 8.06212 17.1192L8.11012 17.1282C8.31012 17.1632 8.51012 17.1892 8.69612 17.2062H8.77412C8.99412 17.2242 9.18912 17.2332 9.37412 17.2332C9.55912 17.2332 9.74712 17.2242 9.97412 17.2072H10.0541C10.2441 17.1902 10.4391 17.1642 10.6341 17.1312H10.6391L10.6731 17.1252H10.6811C11.288 17.0164 11.8787 16.8313 12.4391 16.5742L12.4771 16.5572L12.4981 16.5482C12.6591 16.4732 12.8221 16.3882 12.9841 16.2972L13.1021 16.2292L13.2751 16.1292L11.2291 15.1062C10.951 14.9673 10.7175 14.753 10.5552 14.4878C10.3929 14.2226 10.3083 13.9171 10.3111 13.6062V12.7062C10.3112 12.4794 10.3892 12.2594 10.5321 12.0832C10.5791 12.0252 10.6321 11.9582 10.6821 11.8832C10.9654 11.4806 11.1903 11.0399 11.3501 10.5742C11.3931 10.4499 11.4604 10.3353 11.5481 10.2373C11.6359 10.1393 11.7423 10.0597 11.8611 10.0032C11.8818 9.99407 11.8993 9.97906 11.9116 9.96005C11.9239 9.94104 11.9303 9.91886 11.9301 9.89624V8.81624C11.9293 8.78849 11.9186 8.76193 11.9001 8.74124C11.7453 8.56159 11.6602 8.33236 11.6601 8.09524V6.57424C11.6851 6.19971 11.566 5.82979 11.3271 5.54024C11.0644 5.30591 10.7555 5.12923 10.4203 5.02159C10.0852 4.91394 9.73115 4.87771 9.38112 4.91524ZM9.38112 1.49024C11.0705 1.48916 12.7206 1.99954 14.1143 2.95423C15.508 3.90892 16.5801 5.26319 17.1894 6.83883C17.7987 8.41448 17.9167 10.1377 17.5279 11.7817C17.1391 13.4257 16.2617 14.9134 15.0111 16.0492L15.0191 16.0562L14.7401 16.2892C14.7121 16.3122 14.6821 16.3322 14.6541 16.3552C14.5261 16.4552 14.3955 16.5552 14.2621 16.6552C14.2061 16.6952 14.1511 16.7362 14.0951 16.7742C13.9391 16.8812 13.7781 16.9822 13.6141 17.0742L13.4801 17.1512C13.3001 17.2526 13.1165 17.3476 12.9291 17.4362L12.8591 17.4682C12.2216 17.7603 11.5495 17.9703 10.8591 18.0932L10.8021 18.1032C10.5841 18.1402 10.3631 18.1702 10.1391 18.1902L10.0541 18.1962C9.83112 18.2142 9.60612 18.2262 9.37812 18.2262C9.15012 18.2262 8.92112 18.2142 8.69612 18.1962L8.61712 18.1902C8.39112 18.1702 8.16912 18.1392 7.94812 18.1012L7.89212 18.0912C7.19279 17.9651 6.51256 17.7497 5.86812 17.4502L5.82512 17.4312C5.62512 17.3392 5.43912 17.2392 5.25312 17.1312L5.14112 17.0662C4.97045 16.9656 4.80378 16.8592 4.64112 16.7472C4.59112 16.7122 4.54112 16.6772 4.49212 16.6412C4.34012 16.5312 4.19212 16.4182 4.04612 16.2982C4.02812 16.2832 4.00912 16.2712 3.99212 16.2562L3.72112 16.0272L3.72912 16.0202C2.48773 14.8811 1.61923 13.3936 1.23731 11.7526C0.855384 10.1116 0.977841 8.39357 1.58864 6.82334C2.19945 5.2531 3.27014 3.90388 4.66054 2.9523C6.05094 2.00072 7.69627 1.49113 9.38112 1.49024ZM14.5281 15.6632C15.7052 14.62 16.5376 13.2437 16.9149 11.7167C17.2921 10.1898 17.1966 8.58423 16.6408 7.1128C16.0851 5.64138 15.0953 4.37356 13.8028 3.47731C12.5102 2.58106 10.9759 2.09869 9.40298 2.09412C7.83011 2.08955 6.29297 2.563 4.99524 3.45172C3.6975 4.34045 2.70043 5.60251 2.13612 7.07068C1.57182 8.53884 1.46693 10.1438 1.83534 11.6729C2.20376 13.2021 3.02809 14.5832 4.19912 15.6332C4.27245 15.5809 4.34893 15.5332 4.42812 15.4902L6.83512 14.1772C6.94282 14.1185 7.0326 14.0317 7.09493 13.9261C7.15726 13.8205 7.18981 13.6999 7.18912 13.5772V12.6962C6.75474 12.1136 6.43537 11.4535 6.24812 10.7512C6.12011 10.6472 6.01696 10.516 5.9462 10.367C5.87544 10.218 5.83885 10.0552 5.83912 9.89024V8.81624C5.83949 8.54939 5.93606 8.29163 6.11112 8.09024V6.67424C6.05819 6.02748 6.26348 5.38607 6.68212 4.89024C7.03586 4.54413 7.46038 4.27874 7.92647 4.11233C8.39255 3.94592 8.88916 3.88243 9.38212 3.92624C9.87516 3.88249 10.3718 3.94611 10.8379 4.11269C11.304 4.27928 11.7285 4.54489 12.0821 4.89124C12.5017 5.38701 12.7078 6.02886 12.6551 6.67624V8.09024C12.8285 8.29052 12.9243 8.54634 12.9251 8.81124V9.89024C12.9257 10.1001 12.8662 10.3058 12.7537 10.483C12.6412 10.6602 12.4803 10.8015 12.2901 10.8902C12.0986 11.4452 11.8292 11.9701 11.4901 12.4492C11.4251 12.5412 11.3621 12.6242 11.3021 12.6982V13.5982C11.3017 13.7243 11.3366 13.848 11.4029 13.9553C11.4691 14.0626 11.5641 14.1492 11.6771 14.2052L14.2541 15.4902C14.3497 15.5403 14.4416 15.5971 14.5291 15.6602L14.5281 15.6632Z" fill="#037A80"/>
</g>
<defs>
<clipPath id="clip0_47_85">
<rect width="19" height="19" fill="white" transform="translate(0 0.5)"/>
</clipPath>
</defs>
</svg>
