<svg width="18" height="21" viewBox="0 0 18 21" fill="none" xmlns="http://www.w3.org/2000/svg">
<g clip-path="url(#clip0_47_82)">
<path d="M15.3456 15.7523H2.01563C1.6841 15.7523 1.36616 15.6206 1.13174 15.3861C0.897321 15.1517 0.765625 14.8338 0.765625 14.5023C0.765625 14.1707 0.897321 13.8528 1.13174 13.6184C1.36616 13.384 1.6841 13.2523 2.01563 13.2523L2.77462 13.2613V7.12226C2.79485 5.56722 3.42678 4.08272 4.53357 2.99023C5.64037 1.89773 7.13295 1.28516 8.68813 1.28516C10.2433 1.28516 11.7359 1.89773 12.8427 2.99023C13.9495 4.08272 14.5814 5.56722 14.6016 7.12226V13.2513H15.3496C15.6811 13.2513 15.9991 13.383 16.2335 13.6174C16.4679 13.8518 16.5996 14.1697 16.5996 14.5013C16.5996 14.8328 16.4679 15.1507 16.2335 15.3851C15.9991 15.6196 15.6811 15.7513 15.3496 15.7513L15.3456 15.7523ZM7.10063 19.0913C6.86354 18.8543 6.68245 18.5673 6.57063 18.2513H10.8106C10.6839 18.6093 10.4685 18.9293 10.1846 19.1817C9.90077 19.434 9.55763 19.6103 9.18722 19.6941C8.8168 19.778 8.43119 19.7667 8.06632 19.6613C7.70146 19.5559 7.36923 19.3598 7.10063 19.0913Z" stroke="#037A80" stroke-width="1.5"/>
</g>
<defs>
<clipPath id="clip0_47_82">
<rect width="17.347" height="20" fill="white" transform="translate(0 0.5)"/>
</clipPath>
</defs>
</svg>
