<svg width="22" height="21" viewBox="0 0 22 21" fill="none" xmlns="http://www.w3.org/2000/svg">
<g clip-path="url(#clip0_47_73)">
<path d="M10.2545 3.26411L10.8255 3.93612L11.3965 3.26411C11.9273 2.63944 12.5863 2.13628 13.3288 1.78878C14.0712 1.44128 14.8797 1.25757 15.6995 1.25011C16.3865 1.24553 17.0675 1.37804 17.7027 1.63987C18.3379 1.90171 18.9145 2.28762 19.3987 2.77501C19.8829 3.2624 20.2651 3.84148 20.5228 4.47837C20.7805 5.11525 20.9085 5.79713 20.8995 6.48412V6.49411C20.8995 8.30911 20.0995 10.0141 18.5305 11.9411C16.4691 14.2789 14.2499 16.4728 11.8885 18.5071L10.8235 19.4831L9.76146 18.5181C7.40066 16.4799 5.18152 14.2831 3.11946 11.9431C1.55446 10.0141 0.750462 8.31011 0.750462 6.49511V6.48512C0.741273 5.79822 0.869174 5.11639 1.12668 4.47953C1.38419 3.84266 1.76613 3.26355 2.25015 2.77608C2.73418 2.28861 3.31057 1.90257 3.94559 1.64055C4.58062 1.37853 5.26152 1.2458 5.94846 1.25011C6.76869 1.25714 7.5778 1.44064 8.3208 1.78816C9.06381 2.13568 9.7233 2.63906 10.2545 3.26411Z" stroke="#037A80" stroke-width="1.5"/>
</g>
<defs>
<clipPath id="clip0_47_73">
<rect width="21.653" height="20" fill="white" transform="translate(0 0.5)"/>
</clipPath>
</defs>
</svg>
