<svg width="20" height="21" viewBox="0 0 20 21" fill="none" xmlns="http://www.w3.org/2000/svg">
<g clip-path="url(#clip0_47_91)">
<path d="M18.3414 4.39062H1.52936C1.27473 4.39142 1.03076 4.49291 0.850704 4.67297C0.670653 4.85302 0.569151 5.09699 0.568359 5.35162L0.568359 15.9196C0.569151 16.1743 0.670653 16.4182 0.850704 16.5983C1.03076 16.7783 1.27473 16.8798 1.52936 16.8806H18.3424C18.597 16.8798 18.841 16.7783 19.021 16.5983C19.2011 16.4182 19.3026 16.1743 19.3034 15.9196V5.35162C19.3026 5.09682 19.2009 4.85269 19.0207 4.67262C18.8404 4.49254 18.5962 4.39115 18.3414 4.39062ZM17.9804 5.10963L10.4884 10.7296C10.3246 10.8382 10.1324 10.8961 9.93586 10.8961C9.73933 10.8961 9.54717 10.8382 9.38336 10.7296L1.89036 5.10963H17.9804ZM13.9804 11.1016L18.0684 16.1446C18.0684 16.1446 18.0774 16.1536 18.0824 16.1586H1.79536L1.80936 16.1446L5.89236 11.1016C5.92217 11.0649 5.94445 11.0226 5.95791 10.9772C5.97138 10.9318 5.97578 10.8842 5.97086 10.8372C5.96594 10.7901 5.95179 10.7444 5.92923 10.7028C5.90667 10.6612 5.87613 10.6244 5.83936 10.5946C5.80259 10.5648 5.76031 10.5425 5.71493 10.5291C5.66955 10.5156 5.62196 10.5112 5.57488 10.5161C5.5278 10.521 5.48215 10.5352 5.44054 10.5578C5.39893 10.5803 5.36217 10.6109 5.33236 10.6476L1.28936 15.6476V5.55762L8.95136 11.3026C9.2401 11.5042 9.58374 11.6123 9.93586 11.6123C10.288 11.6123 10.6316 11.5042 10.9204 11.3026L18.5814 5.55762V15.6436L14.5384 10.6486C14.5085 10.6119 14.4718 10.5813 14.4302 10.5588C14.3886 10.5362 14.3429 10.522 14.2958 10.5171C14.2008 10.5072 14.1056 10.5354 14.0314 10.5956C13.9571 10.6558 13.9098 10.7431 13.8999 10.8382C13.8899 10.9332 13.9182 11.0284 13.9784 11.1026L13.9804 11.1016Z" fill="#037A80"/>
</g>
<defs>
<clipPath id="clip0_47_91">
<rect width="20" height="20" fill="white" transform="translate(0 0.5)"/>
</clipPath>
</defs>
</svg>
