<svg width="282" height="178" viewBox="0 0 282 178" fill="none" xmlns="http://www.w3.org/2000/svg">
<g clip-path="url(#clip0_47_97)">
<path d="M242.27 148.758C246.422 145.879 247.38 140.509 247.236 135.678C247.314 134.877 247.209 134.069 246.928 133.314C246.758 132.951 246.46 132.663 246.091 132.505C245.723 132.347 245.309 132.33 244.928 132.457C244.328 132.738 244.065 133.431 243.728 133.999C243.277 134.766 242.619 135.39 241.828 135.799C241.584 135.955 241.306 136.049 241.018 136.074C240.73 136.1 240.44 136.055 240.172 135.944C239.478 135.559 239.398 134.597 239.408 133.786L239.451 129.304C239.502 128.508 239.425 127.708 239.223 126.936C239.118 126.551 238.922 126.196 238.651 125.903C238.38 125.609 238.042 125.385 237.666 125.25C237.285 125.137 236.874 125.179 236.524 125.367C236.173 125.556 235.912 125.875 235.795 126.255C235.763 126.588 235.754 126.922 235.767 127.255C235.771 127.422 235.726 127.586 235.637 127.727C235.548 127.868 235.419 127.979 235.267 128.047C235.102 128.065 234.934 128.041 234.78 127.976C234.627 127.911 234.492 127.808 234.389 127.677C233.6 126.822 232.958 125.842 232.489 124.777C232.019 123.714 231.423 122.711 230.713 121.79C230.36 121.332 229.919 120.95 229.415 120.665C228.912 120.38 228.357 120.198 227.782 120.131C227.204 120.085 226.628 120.234 226.144 120.553C225.66 120.873 225.297 121.345 225.112 121.894C225.039 122.474 225.099 123.063 225.285 123.617C225.471 124.171 225.781 124.676 226.189 125.094C227.245 126.455 228.491 127.656 229.889 128.661C230.16 128.814 230.376 129.05 230.505 129.333C230.678 129.869 230.169 130.397 229.642 130.566C229.027 130.697 228.4 130.764 227.771 130.766C227.456 130.772 227.148 130.86 226.877 131.023C226.607 131.185 226.384 131.416 226.23 131.691C225.9 132.508 226.581 133.371 227.254 133.935C228.602 135.067 230.134 135.959 231.783 136.571C232.39 136.742 232.96 137.022 233.466 137.398C233.774 137.554 234.006 137.826 234.113 138.154C234.22 138.482 234.192 138.839 234.036 139.146C233.88 139.454 233.608 139.686 233.28 139.793C232.953 139.9 232.596 139.872 232.288 139.716C231.685 139.539 231.097 139.312 230.531 139.038C229.998 138.785 229.398 138.707 228.817 138.815C228.237 138.923 227.705 139.211 227.297 139.638C227.081 139.965 226.943 140.338 226.894 140.728C226.846 141.117 226.889 141.512 227.019 141.882C227.283 142.618 227.691 143.293 228.219 143.868C229.959 145.972 232.226 147.577 234.788 148.517C237.167 149.496 239.821 149.574 242.254 148.739" fill="#BDBDBD"/>
<path d="M242.006 150.119C241.891 148.617 241.567 147.138 241.044 145.726C240.252 143.091 239.309 140.505 238.22 137.979L237.375 135.988C237.097 135.334 236.82 134.688 236.509 134.07C235.909 132.889 235.245 131.743 234.518 130.636C233.834 129.572 233.146 128.586 232.499 127.67C231.852 126.754 231.221 125.913 230.622 125.17C229.683 123.993 228.652 122.892 227.539 121.878C227.139 121.52 226.83 121.262 226.614 121.07L226.367 120.87C226.341 120.845 226.312 120.824 226.281 120.805C226.304 120.833 226.33 120.859 226.358 120.882L226.595 121.095C226.805 121.28 227.113 121.557 227.501 121.922C228.6 122.949 229.62 124.058 230.553 125.238C231.148 125.984 231.765 126.826 232.403 127.744C233.041 128.662 233.731 129.644 234.41 130.713C235.128 131.821 235.785 132.967 236.377 134.147C236.685 134.763 236.957 135.405 237.237 136.058L238.082 138.049C239.169 140.569 240.114 143.148 240.913 145.774C241.439 147.176 241.771 148.644 241.899 150.136" fill="#263238"/>
<path d="M236.457 134.064C236.496 133.953 236.523 133.838 236.537 133.722C236.58 133.5 236.637 133.179 236.687 132.779C236.804 131.979 236.927 130.879 237.057 129.653C237.187 128.427 237.325 127.329 237.457 126.533C237.519 126.133 237.574 125.815 237.614 125.608C237.642 125.494 237.657 125.377 237.66 125.26C237.614 125.368 237.581 125.48 237.56 125.596C237.501 125.815 237.435 126.132 237.36 126.521C237.206 127.313 237.052 128.421 236.919 129.641L236.593 132.77L236.493 133.716C236.472 133.831 236.464 133.947 236.468 134.064H236.457Z" fill="#263238"/>
<path d="M226.152 132.098C226.287 132.128 226.424 132.144 226.562 132.148C226.827 132.173 227.209 132.207 227.681 132.262C228.624 132.362 229.925 132.57 231.346 132.832C232.767 133.094 234.046 133.411 234.965 133.662C235.424 133.782 235.794 133.89 236.05 133.97C236.18 134.016 236.314 134.05 236.45 134.07C236.327 134.007 236.198 133.956 236.065 133.916C235.814 133.827 235.449 133.703 234.988 133.571C234.063 133.295 232.796 132.971 231.369 132.699C230.151 132.461 228.922 132.286 227.685 132.173C227.209 132.13 226.825 132.111 226.56 132.105C226.424 132.092 226.287 132.092 226.15 132.105L226.152 132.098Z" fill="#263238"/>
<path d="M240.907 145.537C240.937 145.498 240.96 145.456 240.978 145.412L241.157 145.039C241.311 144.715 241.518 144.239 241.773 143.652C242.273 142.471 242.917 140.821 243.598 138.991C244.279 137.161 244.908 135.504 245.383 134.318L245.95 132.912L246.1 132.53C246.121 132.485 246.135 132.439 246.143 132.391C246.114 132.429 246.09 132.471 246.072 132.516L245.893 132.889C245.739 133.213 245.532 133.689 245.277 134.276C244.777 135.457 244.133 137.107 243.448 138.937C242.763 140.767 242.138 142.424 241.663 143.61L241.096 145.016L240.946 145.398C240.927 145.442 240.913 145.489 240.906 145.537H240.907Z" fill="#263238"/>
<path d="M227.223 141.072C227.265 141.097 227.311 141.115 227.359 141.127L227.759 141.263L229.223 141.744C230.456 142.151 232.164 142.73 234.044 143.375C235.924 144.02 237.636 144.583 238.881 144.966C239.497 145.157 240.008 145.305 240.361 145.401L240.761 145.509C240.807 145.525 240.856 145.535 240.906 145.537C240.863 145.513 240.817 145.495 240.77 145.482L240.37 145.346L238.917 144.865C237.684 144.458 235.976 143.879 234.096 143.234C232.216 142.589 230.508 142.026 229.259 141.643C228.643 141.452 228.132 141.304 227.779 141.208L227.372 141.1C227.324 141.084 227.273 141.075 227.223 141.072Z" fill="#263238"/>
<path d="M243.524 158.489C237.306 154.178 235.871 146.137 236.088 138.904C235.972 137.704 236.13 136.494 236.55 135.364C236.805 134.821 237.25 134.391 237.802 134.155C238.353 133.918 238.972 133.892 239.541 134.081C240.441 134.501 240.834 135.54 241.341 136.389C242.014 137.539 242.998 138.475 244.18 139.089C244.545 139.322 244.962 139.464 245.393 139.501C245.825 139.539 246.26 139.472 246.66 139.306C247.699 138.73 247.819 137.289 247.805 136.075L247.74 129.364C247.664 128.172 247.779 126.975 248.082 125.819C248.239 125.242 248.533 124.711 248.939 124.271C249.344 123.832 249.85 123.497 250.413 123.294C250.983 123.125 251.597 123.188 252.121 123.468C252.645 123.749 253.038 124.226 253.213 124.794C253.261 125.293 253.275 125.794 253.255 126.294C253.248 126.543 253.315 126.788 253.447 126.999C253.58 127.21 253.771 127.377 253.998 127.48C254.246 127.507 254.497 127.471 254.728 127.374C254.958 127.277 255.16 127.123 255.314 126.926C256.498 125.648 257.463 124.181 258.167 122.587C258.87 120.995 259.763 119.493 260.826 118.114C261.355 117.429 262.016 116.856 262.77 116.429C263.524 116.003 264.356 115.732 265.216 115.631C266.081 115.563 266.945 115.786 267.669 116.264C268.394 116.742 268.938 117.449 269.216 118.271C269.659 119.959 268.676 121.682 267.605 123.058C266.025 125.095 264.159 126.894 262.066 128.398C261.66 128.627 261.336 128.98 261.143 129.404C260.884 130.204 261.643 130.996 262.436 131.25C263.356 131.446 264.295 131.547 265.236 131.55C265.708 131.558 266.17 131.69 266.576 131.933C266.981 132.176 267.315 132.522 267.544 132.935C268.038 134.158 267.018 135.451 266.011 136.295C263.994 137.99 261.7 139.325 259.23 140.242C258.322 140.497 257.467 140.917 256.71 141.479C256.298 141.739 255.998 142.143 255.869 142.613C255.739 143.082 255.79 143.583 256.01 144.018C256.231 144.452 256.606 144.788 257.061 144.961C257.517 145.133 258.02 145.129 258.473 144.95C259.376 144.684 260.256 144.344 261.103 143.934C262.751 143.306 264.883 143.412 265.945 144.834C266.269 145.324 266.475 145.882 266.547 146.465C266.619 147.048 266.555 147.64 266.36 148.194C265.962 149.296 265.346 150.307 264.551 151.167C261.946 154.318 258.551 156.721 254.713 158.129C250.891 159.468 247.327 159.842 243.533 158.461" fill="#BDBDBD"/>
<path d="M243.92 160.526C244.174 157.66 244.303 157.599 245.36 153.948C246.546 150.003 247.958 146.13 249.588 142.348L250.853 139.367C251.268 138.388 251.684 137.419 252.153 136.496C253.051 134.728 254.046 133.012 255.134 131.354C256.159 129.762 257.188 128.284 258.157 126.914C259.126 125.544 260.068 124.284 260.968 123.17C262.374 121.407 263.917 119.758 265.584 118.24C266.175 117.704 266.646 117.317 266.969 117.031L267.338 116.731C267.378 116.694 267.421 116.66 267.467 116.631C267.432 116.673 267.394 116.711 267.352 116.746L266.997 117.065C266.683 117.342 266.22 117.757 265.64 118.302C263.995 119.841 262.468 121.501 261.072 123.268C260.181 124.385 259.258 125.645 258.303 127.021C257.348 128.397 256.314 129.874 255.297 131.466C254.222 133.125 253.239 134.842 252.352 136.608C251.89 137.531 251.484 138.491 251.064 139.47L249.799 142.451C248.172 146.225 246.758 150.086 245.562 154.018C244.496 157.655 244.353 157.711 244.084 160.55" fill="#263238"/>
<path d="M252.231 136.485C252.172 136.319 252.132 136.147 252.111 135.973C252.046 135.641 251.968 135.161 251.886 134.561C251.711 133.361 251.526 131.708 251.332 129.881C251.138 128.054 250.932 126.401 250.732 125.21C250.64 124.61 250.557 124.134 250.497 123.825C250.455 123.654 250.432 123.479 250.428 123.303C250.496 123.463 250.547 123.631 250.58 123.803C250.668 124.131 250.769 124.603 250.88 125.188C251.111 126.374 251.342 128.031 251.54 129.859L252.029 134.543L252.186 135.96C252.217 136.132 252.229 136.307 252.223 136.482L252.231 136.485Z" fill="#263238"/>
<path d="M267.656 133.544C267.454 133.587 267.249 133.612 267.042 133.618C266.642 133.655 266.073 133.706 265.366 133.789C263.953 133.946 262.006 134.251 259.878 134.643C257.75 135.035 255.835 135.511 254.459 135.885C253.771 136.065 253.217 136.227 252.834 136.347C252.639 136.415 252.439 136.464 252.234 136.495C252.419 136.4 252.612 136.322 252.81 136.264C253.184 136.13 253.733 135.945 254.421 135.747C255.806 135.336 257.702 134.856 259.84 134.441C261.664 134.084 263.505 133.82 265.356 133.652C266.067 133.587 266.644 133.56 267.041 133.552C267.246 133.532 267.451 133.532 267.655 133.552L267.656 133.544Z" fill="#263238"/>
<path d="M245.565 153.664C245.521 153.607 245.485 153.543 245.459 153.475L245.191 152.916C244.96 152.431 244.651 151.716 244.268 150.839C243.517 149.071 242.555 146.602 241.535 143.86C240.515 141.118 239.573 138.639 238.862 136.86L238.013 134.76L237.788 134.188C237.757 134.122 237.735 134.052 237.723 133.98C237.766 134.038 237.802 134.102 237.829 134.169L238.097 134.728C238.328 135.213 238.637 135.928 239.02 136.805C239.771 138.573 240.733 141.042 241.757 143.784C242.781 146.526 243.719 149.005 244.43 150.784L245.279 152.884L245.504 153.456C245.533 153.523 245.554 153.593 245.565 153.664Z" fill="#263238"/>
<path d="M266.053 146.98C265.991 147.017 265.923 147.045 265.853 147.063L265.253 147.263L263.06 147.983C261.214 148.592 258.66 149.461 255.841 150.425C253.022 151.389 250.463 152.235 248.599 152.807C247.676 153.093 246.91 153.315 246.383 153.458L245.783 153.62C245.713 153.644 245.64 153.659 245.566 153.662C245.629 153.626 245.696 153.598 245.766 153.579L246.366 153.379L248.54 152.659C250.386 152.05 252.94 151.181 255.759 150.217C258.578 149.253 261.132 148.407 263.001 147.835C263.924 147.549 264.69 147.327 265.217 147.184L265.826 147.022C265.9 146.998 265.976 146.983 266.053 146.98Z" fill="#263238"/>
<path d="M139.352 138.158C216.314 138.158 282 177.133 282 177.133H0C0 177.133 62.39 138.158 139.352 138.158Z" fill="url(#paint0_linear_47_97)"/>
<path d="M176.198 60.4826C176.121 60.4918 176.043 60.4801 175.972 60.4487C175.901 60.4173 175.84 60.3674 175.795 60.3042C175.75 60.2411 175.723 60.167 175.717 60.0897C175.71 60.0125 175.725 59.935 175.759 59.8654C176.293 58.7812 176.798 57.6593 177.246 56.5323C177.267 56.4799 177.298 56.4322 177.338 56.3919C177.377 56.3515 177.424 56.3193 177.476 56.2972C177.528 56.2751 177.584 56.2634 177.641 56.2628C177.697 56.2622 177.753 56.2728 177.806 56.2939C177.858 56.3149 177.906 56.3461 177.946 56.3857C177.986 56.4252 178.019 56.4723 178.041 56.5243C178.063 56.5762 178.075 56.6321 178.075 56.6885C178.076 56.745 178.065 56.8011 178.044 56.8535C177.58 58.0005 177.074 59.1418 176.53 60.2453C176.5 60.3102 176.453 60.3664 176.395 60.4087C176.337 60.451 176.269 60.4781 176.198 60.4875L176.198 60.4826ZM179.295 52.4804C179.225 52.4897 179.152 52.4812 179.086 52.4556C179.019 52.4301 178.959 52.3883 178.913 52.334C178.866 52.2798 178.834 52.2148 178.818 52.1448C178.803 52.0749 178.805 52.0023 178.825 51.9336C179.163 50.7698 179.461 49.5776 179.71 48.3923C179.721 48.3363 179.743 48.2829 179.775 48.2355C179.807 48.188 179.847 48.1473 179.895 48.1158C179.943 48.0842 179.996 48.0625 180.052 48.0519C180.108 48.0412 180.166 48.0418 180.222 48.0537C180.278 48.0656 180.331 48.0885 180.378 48.121C180.425 48.1536 180.464 48.1952 180.495 48.2433C180.526 48.2915 180.547 48.3453 180.556 48.4016C180.566 48.4579 180.564 48.5155 180.551 48.5712C180.297 49.7782 179.993 50.9912 179.651 52.1748C179.628 52.2567 179.58 52.3298 179.515 52.3848C179.45 52.4397 179.37 52.4741 179.286 52.4836L179.295 52.4804ZM180.961 44.0566C180.897 44.0644 180.832 44.0575 180.77 44.0366C180.709 44.0156 180.653 43.981 180.607 43.9355C180.561 43.8899 180.525 43.8345 180.503 43.7734C180.482 43.7123 180.474 43.6471 180.481 43.5826C180.578 42.685 180.651 41.7744 180.697 40.8751C180.701 40.7738 180.706 40.6758 180.711 40.5812C180.175 40.7688 179.622 40.8992 179.059 40.9704L179.037 40.9731C178.924 40.987 178.81 40.9553 178.72 40.8851C178.63 40.8149 178.572 40.7119 178.558 40.5987C178.544 40.4855 178.576 40.3714 178.646 40.2815C178.716 40.1917 178.819 40.1334 178.932 40.1195L178.951 40.1172C180.107 39.9496 181.215 39.5474 182.209 38.9353C182.258 38.9058 182.312 38.8864 182.369 38.878C182.425 38.8696 182.482 38.8725 182.537 38.8864C182.593 38.9004 182.644 38.9252 182.69 38.9594C182.735 38.9935 182.774 39.0364 182.803 39.0855C182.831 39.1345 182.85 39.1889 182.858 39.2453C182.866 39.3017 182.862 39.359 182.847 39.414C182.833 39.469 182.807 39.5206 182.773 39.5657C182.738 39.6107 182.694 39.6485 182.645 39.6767C182.301 39.8793 181.946 40.0641 181.583 40.2303C181.577 40.4446 181.567 40.6725 181.554 40.9199C181.507 41.8324 181.434 42.7613 181.335 43.6752C181.324 43.7716 181.282 43.8617 181.214 43.9308C181.146 43.9999 181.056 44.0439 180.96 44.0557L180.961 44.0566ZM174.578 39.419C174.509 39.4274 174.439 39.419 174.374 39.3945C174.309 39.37 174.251 39.3302 174.205 39.2784C173.671 38.6929 173.303 37.9758 173.138 37.2008C173.119 37.1105 173.105 37.0166 173.093 36.9233C173.035 36.4387 173.066 35.9475 173.185 35.4742C173.22 35.3713 173.292 35.2851 173.387 35.2329C173.482 35.1808 173.593 35.1665 173.698 35.1929C173.804 35.2194 173.895 35.2847 173.954 35.3756C174.013 35.4666 174.036 35.5765 174.017 35.6834C173.924 36.0546 173.9 36.4397 173.947 36.8194C173.954 36.8915 173.966 36.9631 173.981 37.0339C174.115 37.6573 174.413 38.2338 174.843 38.7043C174.896 38.7626 174.931 38.8343 174.946 38.9114C174.961 38.9886 174.954 39.0683 174.926 39.1418C174.899 39.2153 174.851 39.2799 174.79 39.3284C174.728 39.377 174.654 39.4077 174.576 39.4171L174.578 39.419ZM186.235 36.6003C186.148 36.6114 186.06 36.5957 185.982 36.5553C185.904 36.5149 185.841 36.4518 185.8 36.3743C185.759 36.2968 185.743 36.2087 185.753 36.1218C185.764 36.0348 185.801 35.9532 185.859 35.8878C186.654 34.9914 187.349 34.0118 187.934 32.9662C187.989 32.8666 188.082 32.7933 188.192 32.7623C188.302 32.7313 188.42 32.7453 188.519 32.8011C188.619 32.8568 188.692 32.9499 188.723 33.0597C188.754 33.1696 188.74 33.2872 188.685 33.3868C188.07 34.4862 187.338 35.5161 186.503 36.4586C186.434 36.5364 186.34 36.5866 186.237 36.6001L186.235 36.6003ZM180.229 35.633C180.147 35.643 180.064 35.6293 179.99 35.5934C179.915 35.5576 179.853 35.5011 179.809 35.4306C179.522 34.9534 179.142 34.5387 178.691 34.2109C178.24 33.8831 177.729 33.6489 177.186 33.5221C177.129 33.5129 177.075 33.4923 177.026 33.4616C176.977 33.4309 176.935 33.3907 176.902 33.3434C176.869 33.296 176.846 33.2426 176.834 33.1861C176.822 33.1297 176.822 33.0714 176.833 33.0148C176.844 32.9583 176.866 32.9045 176.899 32.8567C176.931 32.8089 176.973 32.7681 177.021 32.7368C177.069 32.7054 177.124 32.6841 177.181 32.6741C177.237 32.6641 177.296 32.6657 177.352 32.6786C178.01 32.8299 178.632 33.1117 179.18 33.5073C179.728 33.9029 180.191 34.4044 180.542 34.982C180.58 35.0433 180.602 35.1131 180.606 35.185C180.609 35.257 180.595 35.3287 180.563 35.3935C180.532 35.4584 180.485 35.5143 180.427 35.5562C180.368 35.5981 180.301 35.6244 180.229 35.633Z" fill="#037A80"/>
<path d="M220.63 25.2542C220.597 25.5469 220.487 25.8257 220.312 26.0625C220.137 26.2993 219.903 26.4857 219.633 26.6028L200.477 34.8891C200.085 35.0593 199.643 35.0728 199.241 34.927L189.872 31.5435C189.657 31.4658 189.459 31.3447 189.293 31.1879C189.126 31.0311 188.993 30.8418 188.902 30.6317C188.811 30.4216 188.764 30.1951 188.763 29.9661C188.763 29.7371 188.81 29.5105 188.9 29.3002L192.831 20.1611C192.999 19.769 193.311 19.4563 193.703 19.2873L212.858 11.0002C213.266 10.8244 213.727 10.8176 214.14 10.9812C214.554 11.1448 214.885 11.4654 215.062 11.873L220.502 24.4035C220.62 24.6724 220.664 24.9676 220.63 25.2592L220.63 25.2542Z" fill="black"/>
<path opacity="0.65" d="M220.63 25.2542C220.597 25.5469 220.487 25.8257 220.312 26.0625C220.137 26.2993 219.903 26.4857 219.633 26.6028L200.477 34.8891C200.085 35.0593 199.643 35.0728 199.241 34.927L189.872 31.5435C189.657 31.4658 189.459 31.3447 189.293 31.1879C189.126 31.0311 188.993 30.8418 188.902 30.6317C188.811 30.4216 188.764 30.1951 188.763 29.9661C188.763 29.7371 188.81 29.5105 188.9 29.3002L192.831 20.1611C192.999 19.769 193.311 19.4563 193.703 19.2873L212.858 11.0002C213.266 10.8244 213.727 10.8176 214.14 10.9812C214.554 11.1448 214.885 11.4654 215.062 11.873L220.502 24.4035C220.62 24.6724 220.664 24.9676 220.63 25.2592L220.63 25.2542Z" fill="#037A80"/>
<path d="M190.248 17.9261L188.738 29.7786C188.713 30.0048 188.735 30.2336 188.803 30.4507C188.872 30.6677 188.984 30.8681 189.134 31.0392C189.284 31.2103 189.468 31.3484 189.675 31.4445C189.881 31.5407 190.105 31.5929 190.332 31.5978L202.286 31.6625C202.634 31.6667 202.971 31.5433 203.233 31.3155L220.279 16.395C220.573 16.119 220.746 15.7374 220.76 15.334C220.773 14.9306 220.626 14.5382 220.351 14.2431L209.905 2.32536C209.648 2.01407 209.279 1.81697 208.878 1.77714C208.476 1.73731 208.075 1.85799 207.763 2.11281L190.717 17.0344C190.457 17.2642 190.29 17.5815 190.248 17.9261ZM194.914 25.9806C195.152 26.2539 195.288 26.6013 195.299 26.9637C195.31 27.3261 195.195 27.6811 194.973 27.9682C194.752 28.2552 194.438 28.4565 194.084 28.5378C193.731 28.6191 193.36 28.5753 193.036 28.414C192.711 28.2526 192.452 27.9836 192.304 27.6529C192.155 27.3222 192.126 26.9501 192.221 26.6002C192.316 26.2503 192.529 25.9441 192.824 25.7339C193.12 25.5237 193.479 25.4224 193.841 25.4474C194.255 25.476 194.641 25.6678 194.914 25.9806Z" fill="#037A80"/>
<path d="M201.608 18.2083C200.896 18.2081 200.209 17.9421 199.683 17.4626C199.156 16.983 198.827 16.3242 198.761 15.6151C198.694 14.906 198.894 14.1976 199.322 13.6282C199.75 13.0589 200.375 12.6697 201.075 12.5367C201.775 12.4037 202.499 12.5364 203.106 12.909C203.713 13.2815 204.159 13.8671 204.357 14.5512C204.555 15.2353 204.491 15.9687 204.177 16.6081C203.864 17.2474 203.322 17.7467 202.66 18.0083C202.325 18.1406 201.968 18.2085 201.608 18.2083ZM201.608 13.5653C201.165 13.5644 200.737 13.728 200.407 14.0243C200.078 14.3207 199.87 14.7288 199.824 15.1696C199.778 15.6105 199.897 16.0527 200.159 16.4107C200.42 16.7687 200.805 17.017 201.239 17.1076C201.673 17.1981 202.124 17.1245 202.507 16.9009C202.89 16.6774 203.176 16.3198 203.31 15.8974C203.444 15.4749 203.417 15.0178 203.234 14.6143C203.05 14.2109 202.724 13.8898 202.317 13.7133C202.093 13.6162 201.852 13.5658 201.608 13.5653Z" fill="white"/>
<path d="M202.907 22.8006C202.818 22.8006 202.731 22.7786 202.653 22.7365C202.575 22.6945 202.509 22.6338 202.461 22.5598C202.412 22.4858 202.383 22.4009 202.375 22.3127C202.367 22.2246 202.382 22.1359 202.417 22.0546L207.052 11.3386C207.077 11.2711 207.116 11.2095 207.167 11.1576C207.217 11.1056 207.277 11.0643 207.343 11.0362C207.41 11.0081 207.481 10.9938 207.554 10.9941C207.626 10.9945 207.697 11.0094 207.763 11.0381C207.83 11.0668 207.889 11.1086 207.939 11.161C207.989 11.2135 208.027 11.2754 208.052 11.3431C208.077 11.4109 208.088 11.483 208.085 11.5551C208.081 11.6272 208.063 11.6978 208.031 11.7626L203.396 22.4786C203.355 22.5741 203.286 22.6554 203.2 22.7126C203.113 22.7698 203.011 22.8004 202.907 22.8006Z" fill="white"/>
<path d="M208.801 21.3197C208.089 21.3194 207.403 21.0535 206.876 20.5739C206.35 20.0943 206.021 19.4356 205.954 18.7265C205.887 18.0174 206.088 17.3089 206.515 16.7396C206.943 16.1703 207.568 15.781 208.268 15.648C208.968 15.515 209.692 15.6477 210.299 16.0203C210.906 16.3928 211.352 16.9784 211.55 17.6625C211.749 18.3466 211.685 19.08 211.371 19.7194C211.057 20.3587 210.516 20.858 209.853 21.1197C209.518 21.2519 209.162 21.3198 208.801 21.3197ZM208.801 16.6777C208.359 16.677 207.932 16.8405 207.604 17.1364C207.275 17.4324 207.068 17.8398 207.022 18.2797C206.977 18.7196 207.096 19.1607 207.357 19.5177C207.618 19.8747 208.002 20.1222 208.435 20.2123C208.868 20.3023 209.319 20.2285 209.701 20.0051C210.082 19.7817 210.368 19.4246 210.501 19.003C210.635 18.5814 210.607 18.1253 210.424 17.7228C210.24 17.3204 209.914 17.0004 209.508 16.8247C209.285 16.728 209.045 16.678 208.801 16.6777Z" fill="white"/>
<path d="M220.242 45.9941L204.524 46.7463L204.391 46.7626C204.263 46.7878 204.141 46.8394 204.034 46.9142L204.011 46.9301L203.987 46.9502C203.914 47.0087 203.85 47.0781 203.797 47.1559C203.787 47.1703 203.777 47.1845 203.768 47.1997L203.756 47.2224C203.745 47.2419 203.734 47.2624 203.724 47.2828L192.14 72.1801L105.876 60.0304C105.733 60.0099 105.587 60.0229 105.449 60.0683C105.312 60.1137 105.186 60.1903 105.083 60.2922C104.98 60.394 104.902 60.5183 104.855 60.6553C104.808 60.7923 104.794 60.9383 104.812 61.0819L111.103 108.972C111.13 109.176 111.224 109.366 111.369 109.512C111.514 109.658 111.703 109.752 111.907 109.78L111.923 109.778L159.274 116.457L159.795 116.531L172.045 118.258L172.053 118.256L177.424 119.014C180.001 119.377 181.792 120.324 182.749 121.83C183.622 123.438 183.894 125.304 183.516 127.094C183.249 128.972 182.248 130.667 180.732 131.807C179.217 132.946 177.31 133.438 175.433 133.173L94.226 121.724C94.1038 121.707 93.9794 121.714 93.86 121.745C93.7406 121.776 93.6284 121.83 93.5299 121.904C93.4314 121.978 93.3484 122.071 93.2858 122.178C93.2232 122.284 93.1822 122.402 93.165 122.524C93.1479 122.646 93.155 122.77 93.1859 122.89C93.2168 123.009 93.2709 123.121 93.3452 123.22C93.4195 123.318 93.5124 123.401 93.6187 123.464C93.725 123.527 93.8426 123.568 93.9648 123.585L175.176 135.033C177.548 135.367 179.955 134.746 181.869 133.307C183.783 131.867 185.047 129.727 185.384 127.356C185.828 125.123 185.456 122.806 184.334 120.825C183.068 118.832 180.83 117.598 177.681 117.153L173.56 116.573L193.539 73.6183L193.544 73.6066L205.182 48.5888L220.335 47.8697C220.584 47.8571 220.818 47.7463 220.985 47.5616C221.152 47.3769 221.239 47.1334 221.227 46.8846C221.215 46.6359 221.104 46.4021 220.92 46.2347C220.735 46.0674 220.492 45.9801 220.243 45.992L220.242 45.9941ZM173.628 71.4788L170.468 81.2055L148.155 78.0583L149.55 68.0839L173.628 71.4788ZM145.525 90.5117L144.005 101.351L126.883 98.9363L126.488 87.8277L145.525 90.5117ZM126.456 86.938L126.061 75.8343L147.16 78.8051L145.646 89.6435L126.456 86.938ZM146.394 90.6357L166.489 93.4678L163.053 104.036L144.875 101.473L146.394 90.6357ZM146.516 89.7673L148.035 78.9295L170.193 82.0523L166.756 92.621L146.516 89.7673ZM148.684 67.9626L147.289 77.9369L126.031 74.9392L125.667 64.7155L148.684 67.9626ZM106.839 62.0632L124.782 64.5955L125.146 74.8192L108.2 72.4266L106.839 62.0632ZM108.323 73.3293L125.181 75.7067L125.575 86.8144L109.801 84.5902L108.323 73.3293ZM109.917 85.4927L125.604 87.7045L126 98.8131L111.395 96.7536L109.917 85.4927ZM112.876 108.02L111.515 97.6557L126.032 99.7017L126.398 109.925L112.876 108.02ZM127.28 110.05L126.915 99.8261L143.889 102.218L142.494 112.193L127.28 110.05ZM143.357 112.316L144.751 102.341L162.774 104.877L159.616 114.609L143.357 112.316ZM171.615 116.302L160.501 114.736L163.662 105.009L176.056 106.757L171.615 116.302ZM176.442 105.919L163.934 104.156L167.371 93.5872L181.266 95.5535L176.442 105.919ZM181.657 94.7197L167.644 92.7447L171.081 82.176L186.482 84.3474L181.657 94.7197ZM186.868 83.516L171.348 81.3302L174.512 71.5981L191.3 73.9698L186.868 83.516Z" fill="#037A80"/>
<path d="M177.565 135.226C176.763 135.324 175.951 135.316 175.151 135.202L93.9406 123.756C93.796 123.736 93.6567 123.687 93.5308 123.613C93.4049 123.539 93.2948 123.441 93.2068 123.324C93.1188 123.208 93.0547 123.075 93.018 122.934C92.9813 122.792 92.9728 122.645 92.9931 122.501C93.0133 122.356 93.0618 122.217 93.1358 122.091C93.2098 121.965 93.3079 121.855 93.4245 121.767C93.5411 121.679 93.6738 121.615 93.8152 121.578C93.9566 121.541 94.1038 121.533 94.2484 121.553L175.459 133.001C177.291 133.259 179.152 132.78 180.631 131.667C182.11 130.555 183.086 128.901 183.347 127.069C183.715 125.319 183.45 123.494 182.598 121.922C181.67 120.461 179.919 119.54 177.395 119.184L172.029 118.433L172.008 118.435L111.888 109.951L111.879 109.952C111.638 109.918 111.414 109.805 111.243 109.632C111.071 109.459 110.961 109.235 110.928 108.994L104.638 61.1032C104.616 60.9334 104.633 60.7606 104.688 60.5986C104.744 60.4365 104.836 60.2895 104.958 60.1689C105.08 60.0484 105.228 59.9577 105.39 59.9039C105.553 59.8501 105.726 59.8346 105.896 59.8587L192.026 72.0015L203.555 47.2097C203.566 47.1862 203.579 47.1645 203.591 47.1418L203.602 47.1203L203.631 47.0764L203.638 47.0675C203.701 46.9755 203.776 46.8935 203.863 46.8243L203.869 46.8235L203.892 46.8056L203.914 46.7909L203.92 46.7902C204.046 46.7012 204.19 46.6399 204.342 46.6104L204.507 46.5901L220.222 45.8383C220.517 45.8237 220.805 45.9269 221.024 46.125C221.243 46.3231 221.374 46.5999 221.388 46.8946C221.403 47.1893 221.299 47.4776 221.101 47.6963C220.903 47.9149 220.626 48.046 220.332 48.0605L205.294 48.7623L173.815 116.436L177.703 116.984C180.905 117.436 183.183 118.697 184.478 120.735C185.622 122.749 186.004 125.109 185.552 127.381C185.266 129.385 184.329 131.238 182.885 132.656C181.441 134.074 179.571 134.977 177.563 135.226L177.565 135.226ZM94.0001 121.894C93.8151 121.916 93.6446 122.005 93.5203 122.144C93.396 122.282 93.3264 122.462 93.3246 122.648C93.3228 122.834 93.3889 123.015 93.5105 123.156C93.6321 123.297 93.8009 123.389 93.9854 123.415L175.197 134.864C177.523 135.193 179.885 134.584 181.763 133.172C183.641 131.761 184.881 129.661 185.212 127.335C185.65 125.144 185.287 122.868 184.188 120.921C182.95 118.974 180.753 117.765 177.656 117.329L173.306 116.716L173.404 116.503L205.07 48.4272L220.324 47.6977C220.528 47.6877 220.719 47.5974 220.855 47.4467C220.992 47.2959 221.063 47.0971 221.053 46.8939C221.043 46.6907 220.953 46.4998 220.802 46.3632C220.651 46.2266 220.452 46.1554 220.249 46.1654L204.536 46.919L204.421 46.9331C204.318 46.9537 204.22 46.9956 204.134 47.0561L204.119 47.0659L204.109 47.0732L204.094 47.0851C204.034 47.1327 203.981 47.1891 203.938 47.2524L203.931 47.2573L203.913 47.2847L203.905 47.2998L203.875 47.3538L203.876 47.3647L192.238 72.3805L192.111 72.3629L105.851 60.2068C105.734 60.1902 105.615 60.201 105.502 60.2381C105.39 60.2752 105.288 60.3378 105.204 60.4208C105.12 60.5039 105.056 60.6052 105.018 60.717C104.98 60.8287 104.968 60.9478 104.983 61.0649L111.273 108.955C111.295 109.121 111.371 109.274 111.488 109.393C111.605 109.512 111.757 109.59 111.922 109.615L111.948 109.612L177.443 118.848C180.073 119.218 181.905 120.193 182.89 121.743C183.788 123.383 184.071 125.29 183.69 127.121C183.556 128.074 183.236 128.991 182.747 129.82C182.258 130.649 181.611 131.373 180.842 131.951C180.073 132.529 179.198 132.95 178.266 133.19C177.334 133.429 176.364 133.482 175.412 133.347L94.2012 121.898C94.1343 121.888 94.0674 121.886 94.0001 121.894ZM171.715 116.489L160.27 114.872L163.537 104.809L176.308 106.616L171.715 116.489ZM160.727 114.591L171.513 116.111L175.802 106.892L163.779 105.198L160.727 114.591ZM159.735 114.8L143.157 112.465L144.603 102.148L163.001 104.742L159.735 114.8ZM143.549 112.17L159.496 114.418L162.546 105.024L144.897 102.537L143.549 112.17ZM142.631 112.383L127.11 110.202L126.734 99.6276L144.078 102.073L142.631 112.383ZM127.444 109.9L142.337 112L143.686 102.364L127.092 100.026L127.444 109.9ZM176.541 106.112L163.705 104.303L167.246 93.401L181.518 95.4136L176.541 106.112ZM164.161 104.018L176.337 105.735L181.009 95.6907L167.486 93.7846L164.161 104.018ZM126.573 110.125L112.718 108.172L111.311 97.453L126.198 99.5544L126.573 110.125ZM113.027 107.867L126.212 109.726L125.86 99.8527L111.712 97.8621L113.027 107.867ZM163.168 104.23L144.677 101.624L146.243 90.4436L146.414 90.4679L166.714 93.3283L163.168 104.23ZM145.066 101.326L162.928 103.844L166.253 93.6086L146.536 90.8297L145.066 101.326ZM144.147 101.54L143.976 101.515L126.711 99.0813L126.305 87.6274L145.716 90.3642L144.147 101.54ZM127.046 98.7862L143.854 101.155L145.325 90.659L126.665 88.0275L127.046 98.7862ZM181.752 94.9084L167.411 92.887L170.95 81.9855L186.726 84.2095L181.752 94.9084ZM167.867 92.6023L181.546 94.5307L186.219 84.4863L171.191 82.3669L167.867 92.6023ZM126.175 99.0111L111.237 96.9048L109.71 85.2894L125.765 87.5496L126.175 99.0111ZM111.545 96.601L125.816 98.6139L125.433 87.8563L110.114 85.6972L111.545 96.601ZM166.875 92.8128L166.732 92.7921L146.317 89.9126L147.882 78.7326L170.416 81.91L166.875 92.8128ZM146.706 89.621L166.636 92.4291L169.96 82.1937L148.177 79.1255L146.706 89.621ZM145.787 89.8346L145.616 89.8103L126.283 87.089L125.875 75.6293L147.356 78.6571L145.787 89.8346ZM126.619 86.7869L145.495 89.4463L146.965 78.9498L126.235 76.0275L126.619 86.7869ZM186.963 83.7038L171.119 81.4701L174.387 71.4098L191.555 73.8296L186.963 83.7038ZM171.574 81.1864L186.756 83.3272L191.045 74.1078L174.625 71.7916L171.574 81.1864ZM125.743 87.0153L109.639 84.741L108.112 73.1275L125.345 75.5555L125.743 87.0153ZM109.947 84.4361L125.387 86.6127L125.005 75.8551L108.515 73.5313L109.947 84.4361ZM170.583 81.3948L170.44 81.3741L147.956 78.2097L149.401 67.8926L173.85 71.3387L170.583 81.3948ZM148.346 77.9108L170.343 81.0122L173.393 71.6185L149.695 68.2817L148.346 77.9108ZM147.428 78.1243L125.855 75.0887L125.482 64.5144L125.687 64.5426L148.878 67.8117L147.428 78.1243ZM126.19 74.7877L147.135 77.7391L148.485 68.1028L125.84 64.9137L126.19 74.7877ZM125.319 75.0135L108.042 72.577L106.633 61.8588L124.943 64.4396L125.319 75.0135ZM108.35 72.2721L124.959 74.6134L124.603 64.7412L107.03 62.2643L108.35 72.2721Z" fill="#037A80"/>
<path d="M114.466 128.558C113.218 128.388 111.949 128.655 110.876 129.315C109.802 129.974 108.991 130.986 108.579 132.176C108.167 133.367 108.181 134.664 108.617 135.846C109.054 137.027 109.887 138.021 110.974 138.658C112.061 139.295 113.335 139.536 114.579 139.339C115.824 139.143 116.962 138.521 117.799 137.58C118.637 136.638 119.122 135.436 119.173 134.177C119.224 132.918 118.837 131.681 118.078 130.675C117.645 130.102 117.103 129.62 116.483 129.256C115.864 128.893 115.178 128.656 114.466 128.558ZM117.255 134.463C117.139 135.281 116.743 136.033 116.134 136.593C115.526 137.152 114.742 137.482 113.917 137.529C113.092 137.575 112.276 137.334 111.609 136.846C110.942 136.359 110.464 135.655 110.258 134.855C110.051 134.055 110.128 133.208 110.476 132.458C110.823 131.709 111.42 131.103 112.164 130.743C112.908 130.384 113.754 130.294 114.557 130.489C115.361 130.683 116.072 131.15 116.569 131.809C116.852 132.185 117.058 132.612 117.176 133.068C117.294 133.523 117.32 133.997 117.255 134.463Z" fill="#037A80"/>
<path d="M114.4 139.551C113.233 139.694 112.052 139.467 111.02 138.904C109.989 138.34 109.16 137.468 108.65 136.41C108.14 135.351 107.975 134.159 108.176 133.001C108.378 131.844 108.938 130.778 109.776 129.955C110.614 129.131 111.69 128.591 112.851 128.41C114.012 128.229 115.2 128.416 116.25 128.945C117.299 129.474 118.156 130.318 118.701 131.359C119.246 132.4 119.452 133.586 119.288 134.75C119.116 135.977 118.543 137.113 117.66 137.981C116.776 138.849 115.63 139.401 114.4 139.551ZM113.063 128.715C111.729 128.878 110.507 129.542 109.645 130.572C108.782 131.603 108.344 132.923 108.419 134.264C108.493 135.606 109.076 136.869 110.048 137.797C111.019 138.725 112.308 139.249 113.652 139.262C114.995 139.276 116.294 138.777 117.283 137.868C118.273 136.959 118.88 135.708 118.981 134.368C119.083 133.028 118.67 131.7 117.828 130.652C116.986 129.605 115.777 128.918 114.446 128.729C113.988 128.664 113.523 128.659 113.063 128.715ZM114.175 137.685C113.397 137.782 112.609 137.632 111.921 137.258C111.233 136.884 110.679 136.303 110.337 135.598C109.996 134.893 109.884 134.099 110.017 133.327C110.151 132.555 110.523 131.844 111.081 131.294C111.639 130.744 112.355 130.383 113.129 130.261C113.903 130.139 114.696 130.263 115.396 130.615C116.096 130.967 116.668 131.529 117.032 132.223C117.396 132.917 117.533 133.707 117.425 134.483C117.31 135.3 116.929 136.056 116.342 136.634C115.754 137.213 114.992 137.582 114.174 137.684L114.175 137.685ZM113.294 130.583C112.434 130.687 111.645 131.115 111.089 131.779C110.532 132.443 110.249 133.294 110.297 134.159C110.345 135.024 110.72 135.839 111.346 136.437C111.973 137.036 112.803 137.374 113.67 137.382C114.536 137.391 115.373 137.07 116.011 136.484C116.65 135.898 117.041 135.091 117.106 134.227C117.171 133.363 116.905 132.507 116.362 131.832C115.819 131.157 115.039 130.714 114.181 130.592C113.887 130.551 113.589 130.548 113.294 130.583Z" fill="#037A80"/>
<path d="M162.078 135.256C160.829 135.085 159.561 135.352 158.487 136.012C157.414 136.672 156.602 137.683 156.19 138.874C155.778 140.064 155.792 141.361 156.229 142.543C156.665 143.725 157.498 144.719 158.585 145.356C159.672 145.993 160.946 146.233 162.191 146.037C163.435 145.84 164.573 145.218 165.411 144.277C166.248 143.336 166.734 142.133 166.785 140.874C166.835 139.616 166.448 138.378 165.69 137.372C165.256 136.799 164.714 136.317 164.095 135.954C163.475 135.591 162.789 135.353 162.078 135.256ZM164.865 141.16C164.749 141.978 164.353 142.73 163.744 143.288C163.136 143.846 162.353 144.177 161.528 144.222C160.703 144.268 159.888 144.027 159.222 143.54C158.555 143.052 158.078 142.349 157.872 141.549C157.666 140.749 157.743 139.903 158.09 139.154C158.438 138.405 159.035 137.799 159.778 137.44C160.522 137.082 161.368 136.992 162.17 137.186C162.973 137.381 163.683 137.847 164.181 138.507C164.463 138.882 164.669 139.31 164.787 139.765C164.904 140.22 164.931 140.694 164.865 141.16Z" fill="#037A80"/>
<path d="M162.011 146.248C160.844 146.391 159.662 146.164 158.63 145.6C157.599 145.036 156.77 144.164 156.26 143.104C155.749 142.045 155.584 140.852 155.786 139.694C155.989 138.536 156.549 137.47 157.388 136.647C158.227 135.823 159.303 135.283 160.465 135.103C161.627 134.922 162.816 135.11 163.865 135.64C164.915 136.17 165.772 137.015 166.317 138.057C166.861 139.099 167.066 140.286 166.901 141.45C166.728 142.676 166.155 143.811 165.271 144.679C164.387 145.547 163.241 146.098 162.011 146.248ZM160.675 135.412C159.339 135.573 158.114 136.237 157.249 137.268C156.385 138.299 155.945 139.621 156.019 140.965C156.093 142.309 156.675 143.574 157.648 144.504C158.621 145.434 159.911 145.959 161.257 145.973C162.603 145.987 163.903 145.488 164.895 144.578C165.886 143.668 166.494 142.415 166.596 141.073C166.697 139.731 166.284 138.4 165.441 137.352C164.597 136.303 163.386 135.614 162.054 135.426C161.597 135.361 161.133 135.356 160.675 135.412ZM161.782 144.381C161.005 144.476 160.218 144.325 159.531 143.95C158.843 143.575 158.291 142.994 157.951 142.289C157.611 141.583 157.5 140.789 157.635 140.018C157.769 139.247 158.142 138.537 158.7 137.988C159.259 137.44 159.975 137.08 160.749 136.959C161.522 136.838 162.314 136.963 163.013 137.316C163.712 137.668 164.283 138.231 164.646 138.924C165.009 139.618 165.146 140.408 165.037 141.183C164.922 142 164.54 142.756 163.951 143.334C163.363 143.912 162.601 144.28 161.782 144.381ZM160.91 137.279C160.281 137.357 159.686 137.609 159.193 138.008C158.699 138.406 158.327 138.934 158.118 139.533C157.909 140.132 157.872 140.777 158.011 141.396C158.149 142.014 158.458 142.582 158.902 143.035C159.346 143.487 159.908 143.806 160.524 143.956C161.14 144.106 161.786 144.081 162.388 143.884C162.991 143.686 163.526 143.324 163.933 142.838C164.341 142.352 164.604 141.762 164.694 141.134C164.766 140.617 164.718 140.09 164.554 139.595C164.39 139.099 164.114 138.647 163.748 138.275C163.382 137.903 162.935 137.619 162.442 137.447C161.949 137.274 161.424 137.217 160.905 137.279L160.91 137.279Z" fill="#037A80"/>
<path d="M161.601 138.667C161.141 138.604 160.673 138.702 160.277 138.945C159.881 139.188 159.581 139.56 159.429 139.999C159.276 140.438 159.281 140.916 159.442 141.352C159.602 141.788 159.909 142.155 160.31 142.39C160.71 142.625 161.18 142.714 161.639 142.642C162.098 142.57 162.518 142.341 162.827 141.994C163.136 141.647 163.315 141.204 163.334 140.739C163.353 140.275 163.211 139.819 162.931 139.448C162.771 139.237 162.572 139.059 162.344 138.925C162.115 138.791 161.863 138.703 161.601 138.667ZM162.447 140.818C162.41 141.078 162.284 141.316 162.091 141.493C161.898 141.67 161.649 141.775 161.388 141.789C161.126 141.804 160.868 141.727 160.656 141.572C160.445 141.417 160.293 141.194 160.228 140.94C160.163 140.686 160.188 140.418 160.298 140.18C160.409 139.942 160.598 139.75 160.835 139.637C161.071 139.523 161.339 139.495 161.594 139.557C161.848 139.619 162.074 139.768 162.231 139.977C162.412 140.218 162.49 140.52 162.447 140.818Z" fill="#037A80"/>
<path d="M161.588 142.829C161.281 142.864 160.969 142.834 160.674 142.741C160.379 142.647 160.107 142.491 159.876 142.285C159.646 142.078 159.462 141.824 159.337 141.541C159.211 141.258 159.148 140.951 159.15 140.641C159.153 140.332 159.221 140.026 159.351 139.745C159.48 139.463 159.668 139.213 159.902 139.009C160.135 138.806 160.41 138.655 160.706 138.566C161.003 138.477 161.315 138.452 161.622 138.492C162.15 138.562 162.635 138.823 162.984 139.225C163.334 139.627 163.525 140.143 163.52 140.676C163.516 141.209 163.317 141.722 162.961 142.118C162.605 142.515 162.117 142.767 161.587 142.829L161.588 142.829ZM161.098 138.833C160.632 138.888 160.205 139.118 159.904 139.476C159.602 139.835 159.447 140.295 159.472 140.762C159.497 141.23 159.699 141.671 160.037 141.996C160.375 142.32 160.824 142.504 161.293 142.51C161.761 142.515 162.214 142.342 162.56 142.026C162.906 141.71 163.118 141.274 163.154 140.807C163.19 140.34 163.047 139.876 162.754 139.511C162.461 139.145 162.04 138.905 161.576 138.838C161.416 138.816 161.254 138.814 161.094 138.834L161.098 138.833ZM161.481 141.957C161.21 141.99 160.936 141.938 160.697 141.807C160.457 141.676 160.265 141.474 160.146 141.228C160.028 140.982 159.989 140.705 160.036 140.437C160.083 140.168 160.213 139.92 160.407 139.729C160.602 139.538 160.852 139.412 161.121 139.37C161.391 139.328 161.667 139.372 161.91 139.495C162.154 139.617 162.353 139.814 162.48 140.055C162.606 140.297 162.654 140.572 162.616 140.843C162.576 141.127 162.443 141.391 162.238 141.592C162.033 141.794 161.767 141.922 161.481 141.957ZM161.205 139.705C161.027 139.727 160.858 139.799 160.718 139.911C160.579 140.024 160.473 140.174 160.414 140.343C160.355 140.513 160.345 140.695 160.384 140.871C160.423 141.046 160.511 141.206 160.637 141.334C160.763 141.462 160.922 141.553 161.096 141.595C161.271 141.637 161.454 141.63 161.624 141.573C161.795 141.517 161.946 141.414 162.061 141.276C162.176 141.139 162.25 140.971 162.275 140.794C162.296 140.648 162.282 140.499 162.236 140.359C162.19 140.219 162.112 140.091 162.009 139.986C161.905 139.881 161.779 139.801 161.64 139.752C161.501 139.703 161.351 139.687 161.205 139.705Z" fill="#037A80"/>
<path d="M113.988 131.948C113.527 131.885 113.059 131.983 112.663 132.226C112.267 132.469 111.968 132.841 111.815 133.28C111.663 133.719 111.668 134.197 111.828 134.633C111.989 135.069 112.296 135.436 112.696 135.671C113.097 135.906 113.567 135.995 114.026 135.923C114.485 135.851 114.904 135.622 115.214 135.275C115.523 134.928 115.702 134.485 115.721 134.021C115.74 133.557 115.597 133.1 115.318 132.729C115.158 132.518 114.959 132.34 114.73 132.206C114.502 132.072 114.25 131.985 113.988 131.948ZM114.834 134.099C114.797 134.359 114.671 134.597 114.478 134.774C114.285 134.952 114.036 135.056 113.775 135.071C113.513 135.085 113.254 135.008 113.043 134.853C112.831 134.698 112.68 134.475 112.615 134.221C112.55 133.967 112.575 133.699 112.685 133.461C112.796 133.224 112.985 133.032 113.221 132.918C113.458 132.805 113.726 132.776 113.98 132.838C114.235 132.901 114.46 133.049 114.618 133.258C114.799 133.499 114.876 133.801 114.834 134.099Z" fill="#037A80"/>
<path d="M113.976 136.111C113.523 136.166 113.065 136.077 112.665 135.858C112.265 135.639 111.944 135.3 111.746 134.889C111.549 134.478 111.485 134.016 111.564 133.567C111.643 133.117 111.86 132.704 112.185 132.385C112.511 132.066 112.928 131.857 113.379 131.787C113.829 131.717 114.291 131.789 114.698 131.995C115.105 132.2 115.437 132.528 115.648 132.932C115.86 133.336 115.939 133.796 115.876 134.247C115.809 134.724 115.586 135.165 115.243 135.502C114.899 135.839 114.454 136.053 113.976 136.111ZM113.485 132.115C113.021 132.172 112.596 132.402 112.296 132.761C111.996 133.119 111.844 133.579 111.87 134.045C111.896 134.512 112.099 134.951 112.437 135.274C112.775 135.597 113.223 135.779 113.691 135.783C114.158 135.788 114.61 135.614 114.954 135.298C115.298 134.981 115.509 134.546 115.544 134.08C115.579 133.614 115.435 133.152 115.142 132.788C114.849 132.424 114.428 132.185 113.965 132.119C113.806 132.097 113.645 132.095 113.485 132.115ZM113.869 135.239C113.61 135.272 113.347 135.226 113.115 135.107C112.883 134.988 112.692 134.802 112.566 134.573C112.441 134.344 112.388 134.083 112.413 133.823C112.439 133.563 112.542 133.317 112.709 133.117C112.876 132.917 113.099 132.771 113.35 132.699C113.601 132.628 113.868 132.633 114.116 132.715C114.363 132.797 114.581 132.952 114.739 133.159C114.898 133.366 114.991 133.616 115.005 133.877C115.024 134.206 114.916 134.529 114.706 134.782C114.495 135.035 114.196 135.199 113.869 135.239ZM113.592 132.987C113.349 133.017 113.127 133.138 112.97 133.325C112.813 133.513 112.733 133.753 112.747 133.997C112.761 134.241 112.867 134.471 113.044 134.64C113.22 134.809 113.455 134.904 113.699 134.906C113.944 134.909 114.18 134.818 114.36 134.652C114.54 134.487 114.651 134.259 114.669 134.015C114.687 133.772 114.612 133.53 114.459 133.339C114.305 133.149 114.085 133.024 113.843 132.99C113.76 132.978 113.676 132.977 113.592 132.987Z" fill="#037A80"/>
<path d="M105.239 106.43C105.306 106.439 105.374 106.432 105.437 106.409C105.501 106.387 105.558 106.351 105.605 106.302C105.652 106.254 105.688 106.196 105.71 106.132C105.731 106.068 105.738 106 105.729 105.933L103.137 86.2908C103.123 86.1757 103.064 86.0711 102.972 85.9998C102.881 85.9285 102.765 85.8963 102.65 85.9105C102.593 85.9182 102.538 85.9371 102.488 85.9661C102.439 85.995 102.396 86.0335 102.361 86.0792C102.326 86.1249 102.301 86.177 102.287 86.2325C102.272 86.288 102.269 86.3458 102.277 86.4026L104.868 106.051C104.88 106.146 104.923 106.234 104.99 106.303C105.057 106.371 105.145 106.416 105.239 106.43Z" fill="#037A80"/>
<path d="M105.374 106.603C105.322 106.61 105.269 106.609 105.217 106.602C105.085 106.581 104.963 106.519 104.87 106.424C104.777 106.329 104.717 106.206 104.7 106.073L102.108 86.4249C102.098 86.3457 102.102 86.2651 102.123 86.1878C102.143 86.1105 102.178 86.0379 102.226 85.9742C102.275 85.9106 102.335 85.857 102.404 85.8167C102.473 85.7764 102.55 85.7501 102.629 85.7394C102.789 85.7197 102.951 85.7643 103.078 85.8635C103.205 85.9627 103.288 86.1083 103.308 86.2685L105.899 105.917C105.91 105.996 105.905 106.077 105.885 106.154C105.865 106.232 105.83 106.304 105.781 106.368C105.733 106.432 105.672 106.485 105.603 106.525C105.534 106.566 105.458 106.592 105.379 106.603L105.374 106.603ZM102.677 86.0821C102.642 86.0865 102.609 86.0977 102.578 86.1152C102.548 86.1326 102.521 86.156 102.5 86.1838C102.479 86.2116 102.463 86.2434 102.454 86.2773C102.445 86.3112 102.443 86.3465 102.448 86.3812L105.039 106.03C105.046 106.088 105.073 106.142 105.115 106.183C105.156 106.224 105.21 106.251 105.268 106.259C105.292 106.262 105.315 106.262 105.339 106.259C105.373 106.254 105.406 106.243 105.436 106.225C105.466 106.208 105.493 106.184 105.514 106.157C105.535 106.129 105.55 106.097 105.559 106.063C105.568 106.03 105.57 105.995 105.565 105.96L102.969 86.3132C102.961 86.2441 102.925 86.1813 102.87 86.1382C102.816 86.0952 102.746 86.0754 102.677 86.0831L102.677 86.0821Z" fill="#037A80"/>
<path d="M97.6018 87.4044C97.6685 87.4139 97.7364 87.4078 97.8002 87.3865C97.8641 87.3652 97.9221 87.3293 97.9696 87.2816C98.0174 87.2339 98.0535 87.1757 98.0752 87.1117C98.0968 87.0477 98.1035 86.9796 98.0946 86.9127L96.6194 75.7351C96.6044 75.6205 96.5444 75.5165 96.4527 75.446C96.3611 75.3755 96.2451 75.3444 96.1305 75.3594C96.0158 75.3744 95.9118 75.4344 95.8413 75.5261C95.7709 75.6178 95.7397 75.7337 95.7547 75.8483L97.228 87.0261C97.2405 87.1213 97.2838 87.2098 97.3513 87.2781C97.4188 87.3464 97.5068 87.3908 97.6018 87.4044Z" fill="#037A80"/>
<path d="M97.736 87.5782C97.5758 87.5976 97.4143 87.5527 97.2871 87.4533C97.1599 87.3539 97.0773 87.2082 97.0573 87.048L95.5841 75.8702C95.5703 75.7895 95.573 75.7068 95.5919 75.6271C95.6108 75.5475 95.6456 75.4725 95.6943 75.4066C95.7429 75.3407 95.8043 75.2853 95.8749 75.2438C95.9454 75.2022 96.0237 75.1753 96.1049 75.1648C96.1861 75.1542 96.2686 75.1601 96.3474 75.1822C96.4263 75.2043 96.4998 75.2421 96.5637 75.2933C96.6276 75.3445 96.6805 75.4081 96.7192 75.4802C96.7579 75.5524 96.7816 75.6316 96.789 75.7132L98.2622 86.891C98.284 87.0509 98.2414 87.2128 98.1439 87.3414C98.0463 87.4699 97.9017 87.5545 97.7419 87.5765L97.736 87.5782ZM96.1546 75.5271C96.1196 75.5313 96.0858 75.5426 96.0552 75.5602C96.0246 75.5778 95.998 75.6014 95.9767 75.6296C95.9343 75.6858 95.9158 75.7565 95.9253 75.8263L97.3985 87.0041C97.4064 87.0621 97.4332 87.1159 97.4747 87.1572C97.5161 87.1986 97.5701 87.2251 97.6281 87.2328C97.6684 87.2386 97.7095 87.2349 97.7481 87.2221C97.7868 87.2094 97.8219 87.1878 97.8508 87.1591C97.8793 87.1299 97.9007 87.0946 97.9134 87.0558C97.9261 87.017 97.9298 86.9759 97.9241 86.9355L96.4489 75.758C96.4404 75.6884 96.4046 75.625 96.3494 75.5817C96.2943 75.5385 96.2242 75.5188 96.1546 75.5271Z" fill="#037A80"/>
<path d="M97.9425 89.1678C97.8854 89.1752 97.8302 89.1939 97.7803 89.2227C97.7304 89.2515 97.6866 89.2899 97.6516 89.3357C97.6166 89.3815 97.591 89.4337 97.5762 89.4895C97.5615 89.5452 97.5579 89.6033 97.5657 89.6604L98.3336 95.4792C98.3389 95.5382 98.3562 95.5954 98.3842 95.6476C98.4123 95.6997 98.4507 95.7456 98.497 95.7824C98.5433 95.8193 98.5966 95.8464 98.6537 95.8621C98.7108 95.8778 98.7705 95.8818 98.8292 95.8737C98.8878 95.8657 98.9442 95.8459 98.995 95.8155C99.0458 95.785 99.0899 95.7446 99.1246 95.6966C99.1593 95.6487 99.184 95.5942 99.197 95.5364C99.2101 95.4787 99.2113 95.4189 99.2006 95.3606L98.4334 89.5468C98.4184 89.4315 98.3583 89.3269 98.2663 89.2558C98.1743 89.1848 98.0579 89.1531 97.9425 89.1678Z" fill="#037A80"/>
<path d="M98.8422 96.0297C98.6822 96.0488 98.5211 96.0039 98.394 95.9048C98.2669 95.8057 98.1841 95.6603 98.1637 95.5004L97.3949 89.6828C97.3811 89.6018 97.3837 89.5189 97.4027 89.4389C97.4217 89.359 97.4567 89.2837 97.5054 89.2176C97.5542 89.1516 97.6159 89.096 97.6867 89.0543C97.7575 89.0126 97.8359 88.9857 97.9174 88.9751C97.9989 88.9644 98.0816 88.9704 98.1607 88.9925C98.2398 89.0147 98.3136 89.0526 98.3777 89.104C98.4418 89.1554 98.4949 89.2192 98.5337 89.2916C98.5726 89.364 98.5964 89.4435 98.6037 89.5253L99.3716 95.3441C99.3931 95.5039 99.3504 95.6658 99.2529 95.7942C99.1554 95.9227 99.011 96.0073 98.8513 96.0296L98.8422 96.0297ZM97.9644 89.3398C97.9298 89.3443 97.8964 89.3556 97.8662 89.3731C97.836 89.3905 97.8095 89.4137 97.7883 89.4414C97.7671 89.4691 97.7515 89.5007 97.7426 89.5344C97.7336 89.5681 97.7314 89.6033 97.736 89.6379L98.5068 95.4563C98.5147 95.5143 98.5415 95.5681 98.583 95.6095C98.6244 95.6508 98.6784 95.6773 98.7364 95.685C98.7602 95.6882 98.7842 95.6883 98.808 95.6853C98.8427 95.6808 98.8761 95.6694 98.9064 95.6519C98.9367 95.6344 98.9632 95.6111 98.9844 95.5833C99.0056 95.5555 99.0211 95.5238 99.03 95.49C99.0389 95.4561 99.041 95.4209 99.0362 95.3863L98.2626 89.5692C98.2548 89.4995 98.2198 89.4357 98.1652 89.3917C98.1372 89.3695 98.1049 89.3535 98.0703 89.3445C98.0357 89.3356 97.9996 89.334 97.9644 89.3398Z" fill="#037A80"/>
<g opacity="0.22">
<path d="M74.8706 116.981L77.2465 117.926L75.1694 119.414L74.228 121.791L72.7347 119.713L70.3545 118.766L72.4336 117.278L73.3758 114.899L74.8706 116.981Z" fill="#455A64"/>
<path d="M69.0652 125.65L70.2538 126.123L69.2158 126.868L68.744 128.056L67.9977 127.016L66.8073 126.543L67.8452 125.798L68.3178 124.609L69.0652 125.65Z" fill="#455A64"/>
<path d="M233.139 37.0124L235.693 38.0287L233.463 39.6285L232.45 42.1789L230.846 39.9477L228.29 38.9316L230.523 37.3316L231.535 34.7782L233.139 37.0124Z" fill="#455A64"/>
</g>
<g opacity="0.22">
<path d="M100.121 48.3767L99.3802 42.344C99.3532 42.123 99.2395 41.9217 99.0641 41.7845C98.8888 41.6474 98.6661 41.5855 98.4451 41.6125C98.2241 41.6395 98.0228 41.7532 97.8857 41.9285C97.7485 42.1039 97.6866 42.3266 97.7136 42.5476L98.4603 48.5796C98.4941 48.7939 98.6099 48.9867 98.7832 49.1173C98.9564 49.2479 99.1736 49.3061 99.389 49.2797C99.6044 49.2532 99.801 49.1442 99.9376 48.9755C100.074 48.8069 100.14 48.5928 100.121 48.3767Z" fill="#455A64"/>
<path d="M93.4089 56.9658C93.3816 56.7456 93.268 56.5452 93.0932 56.4086C92.9183 56.272 92.6964 56.2103 92.4761 56.2371L86.4427 56.9718C86.2284 57.0057 86.0356 57.1215 85.905 57.2947C85.7743 57.468 85.7161 57.6852 85.7426 57.9006C85.769 58.1159 85.8781 58.3126 86.0467 58.4491C86.2153 58.5857 86.4304 58.6513 86.6466 58.6324L92.6793 57.8916C92.8986 57.8652 93.0986 57.753 93.2353 57.5795C93.3721 57.4059 93.4345 57.1853 93.4089 56.9658Z" fill="#455A64"/>
<path d="M94.8472 51.1742C94.8338 51.065 94.7989 50.9595 94.7446 50.8638C94.6904 50.7681 94.6177 50.6841 94.5308 50.6166L89.8747 46.9779C89.7886 46.9057 89.6889 46.8516 89.5814 46.8188C89.474 46.7861 89.361 46.7752 89.2493 46.787C89.1376 46.7988 89.0294 46.8329 88.9312 46.8874C88.8329 46.9419 88.7467 47.0156 88.6775 47.1041C88.6083 47.1926 88.5577 47.2941 88.5286 47.4026C88.4995 47.5111 88.4926 47.6244 88.5082 47.7356C88.5238 47.8469 88.5616 47.9538 88.6194 48.0501C88.6772 48.1465 88.7538 48.2302 88.8447 48.2962L93.5018 51.9348C93.6321 52.0369 93.7897 52.098 93.9548 52.1104C94.1198 52.1228 94.2849 52.086 94.4289 52.0045C94.573 51.923 94.6897 51.8007 94.7641 51.6528C94.8386 51.505 94.8675 51.3384 94.8472 51.1742Z" fill="#455A64"/>
</g>
<path d="M51.8961 149.618C48.1831 153.896 49.8201 157.194 48.2391 157.347C48.1637 157.356 48.0875 157.356 48.0121 157.347C46.7851 157.178 47.2441 154.347 43.3301 150.609C40.8561 148.243 36.1551 143.996 37.4301 141.809C38.5211 139.934 41.7381 144.038 43.4421 141.509C44.6811 139.669 39.8011 139.001 40.5861 137.062C41.4571 134.915 44.4191 137.831 44.8531 135.728C45.2871 133.625 43.0531 130.685 44.9141 130.192C44.9431 130.184 44.9721 130.179 44.9981 130.173C46.7861 129.787 47.4061 132.573 47.7231 134.419C48.0451 136.294 48.0231 136.883 48.5861 136.737C49.1491 136.591 50.8121 134.257 51.9951 135.637C53.1781 137.017 49.6211 140.264 49.9641 142.672C50.3071 145.08 52.8481 141.072 53.7371 143.293C54.2491 144.557 53.7411 147.494 51.8961 149.618Z" fill="#BDBDBD"/>
</g>
<defs>
<linearGradient id="paint0_linear_47_97" x1="141" y1="129.311" x2="141" y2="165.753" gradientUnits="userSpaceOnUse">
<stop stop-color="#E5E5E5"/>
<stop offset="0.603" stop-color="#EEEEEF"/>
<stop offset="1" stop-color="#EEF2F9"/>
</linearGradient>
<clipPath id="clip0_47_97">
<rect width="282" height="176.634" fill="white" transform="translate(0 0.5)"/>
</clipPath>
</defs>
</svg>
