<svg width="15" height="15" viewBox="0 0 15 15" fill="none" xmlns="http://www.w3.org/2000/svg">
<g clip-path="url(#clip0_47_175)">
<path d="M7.65089 8.4503V1.2853C7.64499 1.15015 7.58715 1.0225 7.48944 0.92896C7.39172 0.835417 7.26167 0.783203 7.12639 0.783203C6.99112 0.783203 6.86107 0.835417 6.76335 0.92896C6.66564 1.0225 6.6078 1.15015 6.60189 1.2853V8.4503C6.1678 8.56098 5.78293 8.8131 5.50807 9.16684C5.2332 9.52059 5.08398 9.95581 5.08398 10.4038C5.08398 10.8518 5.2332 11.287 5.50807 11.6407C5.78293 11.9945 6.1678 12.2466 6.60189 12.3573V13.9643C6.6078 14.0994 6.66564 14.2271 6.76335 14.3206C6.86107 14.4142 6.99112 14.4664 7.12639 14.4664C7.26167 14.4664 7.39172 14.4142 7.48944 14.3206C7.58715 14.2271 7.64499 14.0994 7.65089 13.9643V12.3573C8.08499 12.2466 8.46985 11.9945 8.74472 11.6407C9.01959 11.287 9.1688 10.8518 9.1688 10.4038C9.1688 9.95581 9.01959 9.52059 8.74472 9.16684C8.46985 8.8131 8.08499 8.56098 7.65089 8.4503ZM7.12689 11.3913C6.9317 11.3901 6.74124 11.3311 6.57953 11.2218C6.41783 11.1125 6.29213 10.9577 6.2183 10.777C6.14447 10.5963 6.12581 10.3978 6.16469 10.2065C6.20357 10.0152 6.29824 9.83976 6.43675 9.70223C6.57526 9.56469 6.7514 9.47127 6.94296 9.43374C7.13451 9.39622 7.33288 9.41627 7.51305 9.49138C7.69322 9.56648 7.8471 9.69327 7.95528 9.85575C8.06346 10.0182 8.12109 10.2091 8.12089 10.4043C8.12076 10.5345 8.09491 10.6633 8.04483 10.7835C7.99474 10.9036 7.92141 11.0127 7.82904 11.1044C7.73668 11.1961 7.62709 11.2687 7.5066 11.3179C7.3861 11.3671 7.25706 11.3921 7.12689 11.3913Z" fill="#037A80" stroke="#037A80" stroke-width="0.25"/>
<path d="M14.124 4.75892C14.1215 4.31123 13.971 3.87694 13.6962 3.52357C13.4213 3.1702 13.0373 2.91755 12.604 2.80492V1.42592C12.5981 1.29078 12.5403 1.16313 12.4426 1.06958C12.3449 0.976042 12.2148 0.923828 12.0795 0.923828C11.9443 0.923828 11.8142 0.976042 11.7165 1.06958C11.6188 1.16313 11.5609 1.29078 11.555 1.42592V2.80492C11.1205 2.91525 10.7351 3.16728 10.4599 3.52117C10.1846 3.87505 10.0352 4.31059 10.0352 4.75892C10.0352 5.20725 10.1846 5.64279 10.4599 5.99667C10.7351 6.35056 11.1205 6.60259 11.555 6.71292V14.1049C11.5609 14.2401 11.6188 14.3677 11.7165 14.4613C11.8142 14.5548 11.9443 14.607 12.0795 14.607C12.2148 14.607 12.3449 14.5548 12.4426 14.4613C12.5403 14.3677 12.5981 14.2401 12.604 14.1049V6.71292C13.0373 6.60029 13.4213 6.34764 13.6962 5.99427C13.971 5.6409 14.1215 5.20661 14.124 4.75892ZM12.079 5.74692C11.8491 5.74653 11.6265 5.66637 11.4491 5.52014C11.2717 5.37391 11.1506 5.17065 11.1063 4.94506C11.0621 4.71946 11.0975 4.4855 11.2065 4.28309C11.3155 4.08068 11.4913 3.92236 11.704 3.83515C11.9168 3.74793 12.1531 3.73723 12.3729 3.80486C12.5926 3.87249 12.782 4.01427 12.9089 4.206C13.0357 4.39773 13.0921 4.62753 13.0685 4.85621C13.0448 5.08488 12.9425 5.29825 12.779 5.45992C12.6869 5.5514 12.5777 5.62383 12.4576 5.67308C12.3375 5.72232 12.2088 5.74741 12.079 5.74692Z" fill="#037A80" stroke="#037A80" stroke-width="0.25"/>
<path d="M2.694 2.52601V1.14601C2.69397 1.07724 2.68035 1.00914 2.65392 0.945646C2.62749 0.882149 2.58878 0.8245 2.54 0.776014C2.49115 0.727657 2.43323 0.689425 2.36956 0.663512C2.30589 0.6376 2.23774 0.624516 2.169 0.625014C2.10036 0.62478 2.03235 0.638085 1.96886 0.664167C1.90537 0.690249 1.84765 0.728596 1.799 0.777014C1.75034 0.825382 1.71169 0.882868 1.68527 0.946184C1.65884 1.0095 1.64516 1.0774 1.645 1.14601V2.52601C1.21154 2.63834 0.827404 2.8909 0.552467 3.24434C0.277531 3.59778 0.127234 4.03224 0.125 4.48001C0.127404 4.92775 0.277764 5.36212 0.552674 5.71553C0.827584 6.06893 1.21162 6.32153 1.645 6.43401V13.826C1.64516 13.8946 1.65884 13.9625 1.68527 14.0258C1.71169 14.0892 1.75034 14.1466 1.799 14.195C1.84765 14.2434 1.90537 14.2818 1.96886 14.3079C2.03235 14.3339 2.10036 14.3472 2.169 14.347C2.23764 14.3472 2.30565 14.3339 2.36914 14.3079C2.43263 14.2818 2.49035 14.2434 2.539 14.195C2.58766 14.1466 2.62631 14.0892 2.65273 14.0258C2.67916 13.9625 2.69284 13.8946 2.693 13.826V6.43301C3.12638 6.32053 3.51042 6.06793 3.78533 5.71453C4.06024 5.36112 4.2106 4.92675 4.213 4.47901C4.2106 4.03154 4.06035 3.59741 3.78562 3.24419C3.5109 2.89098 3.12711 2.63848 2.694 2.52601ZM2.169 5.46801C1.90633 5.46828 1.65426 5.36447 1.46796 5.17929C1.28166 4.99412 1.17632 4.74268 1.175 4.48001C1.17606 4.21727 1.28131 3.96567 1.46767 3.78044C1.65402 3.59521 1.90625 3.49148 2.169 3.49201C2.43175 3.49148 2.68398 3.59521 2.87033 3.78044C3.05669 3.96567 3.16194 4.21727 3.163 4.48001C3.16168 4.74268 3.05634 4.99412 2.87004 5.17929C2.68374 5.36447 2.43167 5.46828 2.169 5.46801Z" fill="#037A80" stroke="#037A80" stroke-width="0.25"/>
</g>
<defs>
<clipPath id="clip0_47_175">
<rect width="14.25" height="14.231" fill="white" transform="translate(0 0.5)"/>
</clipPath>
</defs>
</svg>
