<svg xmlns="http://www.w3.org/2000/svg" width="102.568" height="104.697" viewBox="0 0 102.568 104.697">
  <g id="google_button" transform="translate(-3706.252 -700.163)">
    <path id="Path_18" data-name="Path 18" d="M4048.13,983.049a38.551,38.551,0,0,1-8.078,9.826c-18.226-14.194-14.772-11.457-16.444-12.951a25.49,25.49,0,0,0,9.947-14.519c.343-1.144.237-1.59-1.179-1.578-8.433.072-16.866.036-25.3.035-1.786,0-1.788,0-1.788-1.848,0-5.716.027-11.432-.024-17.147-.01-1.1.184-1.526,1.425-1.522q23.331.068,46.662.014c.84,0,1.368.061,1.513,1.082C4056.8,958.045,4055.25,971.044,4048.13,983.049Z" transform="translate(-246.81 -200.728)" fill="#6689c9" fill-rule="evenodd"/>
    <path id="Path_19" data-name="Path 19" d="M3819.64,1087.54a43.511,43.511,0,0,1-19.6,10.714c-17.5,4.422-33.624,1.627-47.944-9.674a48.6,48.6,0,0,1-13.86-17.275l17.094-13.272a35.068,35.068,0,0,0,6.412,10.944c11.767,12.995,28.712,13.4,41.458,5.611C3804.79,1076.01,3801.38,1073.32,3819.64,1087.54Z" transform="translate(-26.397 -295.39)" fill="#4db74b" fill-rule="evenodd"/>
    <path id="Path_20" data-name="Path 20" d="M3728.93,899.162l-17.094,13.272c-7.374-13.708-7.53-32.961.043-46.876,18.921,14.573,16.048,12.4,17.18,13.137A33.069,33.069,0,0,0,3728.93,899.162Z" transform="translate(0 -136.522)" fill="#ffcd05" fill-rule="evenodd"/>
    <path id="Path_21" data-name="Path 21" d="M3819.33,714.757c-14.64,14.336-13.517,14.232-14.578,13.26-14.7-13.467-40.894-8.354-49.1,14.156-1.123-.735,1.825,1.5-17.18-13.137,5.289-11.634,18.976-25.086,37.869-28.1,16.062-2.566,30.438,1.222,42.86,11.919C3819.99,713.526,3820.19,713.921,3819.33,714.757Z" transform="translate(-26.6)" fill="#e22f31" fill-rule="evenodd"/>
  </g>
</svg>
