<svg xmlns="http://www.w3.org/2000/svg" width="49.976" height="50.001" viewBox="0 0 49.976 50.001">
  <g id="guarantee" transform="translate(-247.162 -1759.347)">
    <path id="Path_6416" data-name="Path 6416" d="M296.519,1782.65a11.361,11.361,0,0,0-1.611-1.655l-.069-.062a1.547,1.547,0,0,1-.394-2.128l.016-.033a10.72,10.72,0,0,0,.782-1.726,2.936,2.936,0,0,0-1.607-3.858,10.851,10.851,0,0,0-1.571-.609l-.343-.113a1.488,1.488,0,0,1-1.105-1.753,10.063,10.063,0,0,0,.034-2.079,3.05,3.05,0,0,0-2.887-2.832,6.665,6.665,0,0,0-.675-.032c-.468,0-.943.04-1.3.076-.1.01-.2.014-.292.014-.782,0-1.237-.372-1.523-1.246a9.641,9.641,0,0,0-.917-2.146,2.744,2.744,0,0,0-2.4-1.421,3.511,3.511,0,0,0-.875.116,11.576,11.576,0,0,0-2.124.865,2.072,2.072,0,0,1-.9.246,1.6,1.6,0,0,1-1.277-.766,7.324,7.324,0,0,0-1.39-1.445,3.01,3.01,0,0,0-3.933.031,9.953,9.953,0,0,0-1.351,1.377l-.138.161a1.612,1.612,0,0,1-1.224.638,1.853,1.853,0,0,1-.918-.273,8.539,8.539,0,0,0-1.592-.749,4,4,0,0,0-1.2-.2,3.174,3.174,0,0,0-2.864,1.878,10.073,10.073,0,0,0-.635,1.708,1.453,1.453,0,0,1-1.513,1.217c-.086,0-.181-.006-.277-.014-.451-.042-.846-.062-1.206-.062-.254,0-.5.01-.726.03a3.052,3.052,0,0,0-2.967,2.975,10.813,10.813,0,0,0,.057,1.93,1.5,1.5,0,0,1-1.231,1.772,8.672,8.672,0,0,0-1.941.711,2.9,2.9,0,0,0-1.516,3.511,8.943,8.943,0,0,0,.829,2.009,1.6,1.6,0,0,1-.608,2.354,3.8,3.8,0,0,0-1.92,3.976,4.667,4.667,0,0,0,2.089,2.716,1.454,1.454,0,0,1,.486,2.109l-.059.118a10.83,10.83,0,0,0-.752,1.7,3.058,3.058,0,0,0,1.671,3.942,8.613,8.613,0,0,0,1.711.592,1.48,1.48,0,0,1,1.243,1.759,10.813,10.813,0,0,0-.036,2.138,2.734,2.734,0,0,0,2.144,2.575,8.209,8.209,0,0,0,1.828.171c.326,0,.645-.01.913-.02h.129a1.55,1.55,0,0,1,1.641,1.147l.092.26a9.555,9.555,0,0,0,.892,2.03,2.792,2.792,0,0,0,2.411,1.374,3.561,3.561,0,0,0,.754-.085,8.1,8.1,0,0,0,2.059-.81,2.216,2.216,0,0,1,1.042-.322,1.674,1.674,0,0,1,1.292.762,9.213,9.213,0,0,0,1.3,1.346,3.065,3.065,0,0,0,4.061.068,7.242,7.242,0,0,0,1.348-1.411,1.6,1.6,0,0,1,1.282-.773,2,2,0,0,1,.9.251,11.427,11.427,0,0,0,1.819.793,3.937,3.937,0,0,0,1.134.18,2.939,2.939,0,0,0,2.617-1.67,9.78,9.78,0,0,0,.716-1.832l.05-.159a1.49,1.49,0,0,1,1.463-1.164,1.937,1.937,0,0,1,.285.022c.274.037.559.067.832.1l.374.039H287c2.029,0,3.276-.922,3.61-2.67a8.24,8.24,0,0,0,.03-2.166c-.1-1.168.191-1.612,1.289-1.977a10.93,10.93,0,0,0,2.061-.871,2.6,2.6,0,0,0,1.391-2.883,10.433,10.433,0,0,0-.894-2.43,1.586,1.586,0,0,1,.49-2.311,9.426,9.426,0,0,0,1.528-1.556,2.722,2.722,0,0,0,.014-3.474Zm-1.931,3.016c-2.334,1.657-2.717,3.351-1.325,5.847.032.056.065.111.1.165.052.086.1.172.148.262a1.535,1.535,0,0,1,.114,1.244,1.508,1.508,0,0,1-.868.862,7.468,7.468,0,0,1-.726.244c-.122.036-.244.073-.365.114a3.619,3.619,0,0,0-2.786,4.43l.024.18c.019.138.037.276.05.415a1.676,1.676,0,0,1-.273,1.361,1.4,1.4,0,0,1-1.108.376,2.808,2.808,0,0,1-.282-.01c-.221,0-.443-.006-.665-.01s-.443-.01-.662-.01c-.3,0-.55.01-.782.03a3.212,3.212,0,0,0-2.821,2.131,10.491,10.491,0,0,0-.43,1.352l-.026.093a1.419,1.419,0,0,1-1.354,1.207h0a1.926,1.926,0,0,1-.727-.158c-.369-.152-.736-.322-1.091-.486-.21-.1-.418-.194-.629-.287a3.582,3.582,0,0,0-1.447-.338,3.123,3.123,0,0,0-2.292,1.118c-.326.348-.628.7-.989,1.118a1.56,1.56,0,0,1-2.493.04c-.128-.139-.253-.28-.376-.421-.25-.282-.507-.572-.776-.835a3.169,3.169,0,0,0-2.249-.99,3.7,3.7,0,0,0-1.233.227,11.992,11.992,0,0,0-1.614.75,1.967,1.967,0,0,1-.91.256,1.433,1.433,0,0,1-1.342-1.033c-.137-.325-.264-.68-.392-1.083-.542-1.73-1.29-2.73-3.512-2.73a8.863,8.863,0,0,0-.888.046c-.28.027-.516.04-.72.04a1.6,1.6,0,0,1-1.292-.422c-.309-.349-.385-.892-.263-1.877.308-2.473-.661-3.939-3.049-4.614q-.149-.041-.3-.078c-.109-.027-.218-.055-.328-.085a1.511,1.511,0,0,1-1-.833,1.55,1.55,0,0,1,.068-1.336c.07-.142.144-.286.218-.428a12.153,12.153,0,0,0,.638-1.383,2.941,2.941,0,0,0-.549-3.1,14.056,14.056,0,0,0-1.358-1.307l-.167-.147a1.639,1.639,0,0,1-.635-1.256,1.607,1.607,0,0,1,.67-1.207,12.34,12.34,0,0,0,1.326-1.193,3.126,3.126,0,0,0,.693-3.365,12.7,12.7,0,0,0-.769-1.665,1.672,1.672,0,0,1-.131-1.48,1.638,1.638,0,0,1,1.187-.868.7.7,0,0,1,.078-.014h.03c2.612-.6,3.682-2.122,3.365-4.782l-.007-.056a2.166,2.166,0,0,1,.289-1.747,1.636,1.636,0,0,1,1.313-.428c.151,0,.313.006.5.02.32.026.637.039.938.039a9.92,9.92,0,0,0,.993-.049,2.571,2.571,0,0,0,2.186-1.519,17.265,17.265,0,0,0,.655-1.644l.1-.277c.318-.875.782-1.3,1.417-1.3a2.481,2.481,0,0,1,1.112.332,10.087,10.087,0,0,0,1.928.779,3.067,3.067,0,0,0,.815.116,2.821,2.821,0,0,0,1.891-.755,14,14,0,0,0,1.091-1.116l.341-.372a1.581,1.581,0,0,1,2.533.049,19.128,19.128,0,0,0,1.339,1.427,2.689,2.689,0,0,0,1.874.79,3.22,3.22,0,0,0,1.089-.2c.514-.185,1.027-.418,1.523-.645l.379-.172a2.4,2.4,0,0,1,.97-.246c.691,0,1.154.473,1.377,1.405.306,1.286.78,2.549,2.163,3.072a6.336,6.336,0,0,0,1.733.293l.451.037a1.754,1.754,0,0,0,.177.009,4.974,4.974,0,0,0,.5-.035c.177-.018.351-.034.532-.036h.026a1.476,1.476,0,0,1,1.131.384,1.545,1.545,0,0,1,.32,1.2l-.019.316a13.565,13.565,0,0,0-.026,2.049,2.936,2.936,0,0,0,1.9,2.515,12.491,12.491,0,0,0,1.285.466l.306.1a1.754,1.754,0,0,1,1.184.944,1.781,1.781,0,0,1-.221,1.519,9.849,9.849,0,0,0-.706,1.566,3.209,3.209,0,0,0,.815,3.483,10.412,10.412,0,0,0,.782.706c.152.128.3.256.45.388a1.493,1.493,0,0,1-.138,2.529Z"/>
    <path id="Path_6417" data-name="Path 6417" d="M296.519,1782.65a11.361,11.361,0,0,0-1.611-1.655l-.069-.062a1.547,1.547,0,0,1-.394-2.128l.016-.033a10.72,10.72,0,0,0,.782-1.726,2.936,2.936,0,0,0-1.607-3.858,10.851,10.851,0,0,0-1.571-.609l-.343-.113a1.488,1.488,0,0,1-1.105-1.753,10.063,10.063,0,0,0,.034-2.079,3.05,3.05,0,0,0-2.887-2.832,6.665,6.665,0,0,0-.675-.032c-.468,0-.943.04-1.3.076-.1.01-.2.014-.292.014-.782,0-1.237-.372-1.523-1.246a9.641,9.641,0,0,0-.917-2.146,2.744,2.744,0,0,0-2.4-1.421,3.511,3.511,0,0,0-.875.116,11.576,11.576,0,0,0-2.124.865,2.072,2.072,0,0,1-.9.246,1.6,1.6,0,0,1-1.277-.766,7.324,7.324,0,0,0-1.39-1.445,3.01,3.01,0,0,0-3.933.031,9.953,9.953,0,0,0-1.351,1.377l-.138.161a1.612,1.612,0,0,1-1.224.638,1.853,1.853,0,0,1-.918-.273,8.539,8.539,0,0,0-1.592-.749,4,4,0,0,0-1.2-.2,3.174,3.174,0,0,0-2.864,1.878,10.073,10.073,0,0,0-.635,1.708,1.453,1.453,0,0,1-1.513,1.217c-.086,0-.181-.006-.277-.014-.451-.042-.846-.062-1.206-.062-.254,0-.5.01-.726.03a3.052,3.052,0,0,0-2.967,2.975,10.813,10.813,0,0,0,.057,1.93,1.5,1.5,0,0,1-1.231,1.772,8.672,8.672,0,0,0-1.941.711,2.9,2.9,0,0,0-1.516,3.511,8.943,8.943,0,0,0,.829,2.009,1.6,1.6,0,0,1-.608,2.354,3.8,3.8,0,0,0-1.92,3.976,4.667,4.667,0,0,0,2.089,2.716,1.454,1.454,0,0,1,.486,2.109l-.059.118a10.83,10.83,0,0,0-.752,1.7,3.058,3.058,0,0,0,1.671,3.942,8.613,8.613,0,0,0,1.711.592,1.48,1.48,0,0,1,1.243,1.759,10.813,10.813,0,0,0-.036,2.138,2.734,2.734,0,0,0,2.144,2.575,8.209,8.209,0,0,0,1.828.171c.326,0,.645-.01.913-.02h.129a1.55,1.55,0,0,1,1.641,1.147l.092.26a9.555,9.555,0,0,0,.892,2.03,2.792,2.792,0,0,0,2.411,1.374,3.561,3.561,0,0,0,.754-.085,8.1,8.1,0,0,0,2.059-.81,2.216,2.216,0,0,1,1.042-.322,1.674,1.674,0,0,1,1.292.762,9.213,9.213,0,0,0,1.3,1.346,3.065,3.065,0,0,0,4.061.068,7.242,7.242,0,0,0,1.348-1.411,1.6,1.6,0,0,1,1.282-.773,2,2,0,0,1,.9.251,11.427,11.427,0,0,0,1.819.793,3.937,3.937,0,0,0,1.134.18,2.939,2.939,0,0,0,2.617-1.67,9.78,9.78,0,0,0,.716-1.832l.05-.159a1.49,1.49,0,0,1,1.463-1.164,1.937,1.937,0,0,1,.285.022c.274.037.559.067.832.1l.374.039H287c2.029,0,3.276-.922,3.61-2.67a8.24,8.24,0,0,0,.03-2.166c-.1-1.168.191-1.612,1.289-1.977a10.93,10.93,0,0,0,2.061-.871,2.6,2.6,0,0,0,1.391-2.883,10.433,10.433,0,0,0-.894-2.43,1.586,1.586,0,0,1,.49-2.311,9.426,9.426,0,0,0,1.528-1.556,2.722,2.722,0,0,0,.014-3.474Zm-1.931,3.016c-2.334,1.657-2.717,3.351-1.325,5.847.032.056.065.111.1.165.052.086.1.172.148.262a1.535,1.535,0,0,1,.114,1.244,1.508,1.508,0,0,1-.868.862,7.468,7.468,0,0,1-.726.244c-.122.036-.244.073-.365.114a3.619,3.619,0,0,0-2.786,4.43l.024.18c.019.138.037.276.05.415a1.676,1.676,0,0,1-.273,1.361,1.4,1.4,0,0,1-1.108.376,2.808,2.808,0,0,1-.282-.01c-.221,0-.443-.006-.665-.01s-.443-.01-.662-.01c-.3,0-.55.01-.782.03a3.212,3.212,0,0,0-2.821,2.131,10.491,10.491,0,0,0-.43,1.352l-.026.093a1.419,1.419,0,0,1-1.354,1.207h0a1.926,1.926,0,0,1-.727-.158c-.369-.152-.736-.322-1.091-.486-.21-.1-.418-.194-.629-.287a3.582,3.582,0,0,0-1.447-.338,3.123,3.123,0,0,0-2.292,1.118c-.326.348-.628.7-.989,1.118a1.56,1.56,0,0,1-2.493.04c-.128-.139-.253-.28-.376-.421-.25-.282-.507-.572-.776-.835a3.169,3.169,0,0,0-2.249-.99,3.7,3.7,0,0,0-1.233.227,11.992,11.992,0,0,0-1.614.75,1.967,1.967,0,0,1-.91.256,1.433,1.433,0,0,1-1.342-1.033c-.137-.325-.264-.68-.392-1.083-.542-1.73-1.29-2.73-3.512-2.73a8.863,8.863,0,0,0-.888.046c-.28.027-.516.04-.72.04a1.6,1.6,0,0,1-1.292-.422c-.309-.349-.385-.892-.263-1.877.308-2.473-.661-3.939-3.049-4.614q-.149-.041-.3-.078c-.109-.027-.218-.055-.328-.085a1.511,1.511,0,0,1-1-.833,1.55,1.55,0,0,1,.068-1.336c.07-.142.144-.286.218-.428a12.153,12.153,0,0,0,.638-1.383,2.941,2.941,0,0,0-.549-3.1,14.056,14.056,0,0,0-1.358-1.307l-.167-.147a1.639,1.639,0,0,1-.635-1.256,1.607,1.607,0,0,1,.67-1.207,12.34,12.34,0,0,0,1.326-1.193,3.126,3.126,0,0,0,.693-3.365,12.7,12.7,0,0,0-.769-1.665,1.672,1.672,0,0,1-.131-1.48,1.638,1.638,0,0,1,1.187-.868.7.7,0,0,1,.078-.014h.03c2.612-.6,3.682-2.122,3.365-4.782l-.007-.056a2.166,2.166,0,0,1,.289-1.747,1.636,1.636,0,0,1,1.313-.428c.151,0,.313.006.5.02.32.026.637.039.938.039a9.92,9.92,0,0,0,.993-.049,2.571,2.571,0,0,0,2.186-1.519,17.265,17.265,0,0,0,.655-1.644l.1-.277c.318-.875.782-1.3,1.417-1.3a2.481,2.481,0,0,1,1.112.332,10.087,10.087,0,0,0,1.928.779,3.067,3.067,0,0,0,.815.116,2.821,2.821,0,0,0,1.891-.755,14,14,0,0,0,1.091-1.116l.341-.372a1.581,1.581,0,0,1,2.533.049,19.128,19.128,0,0,0,1.339,1.427,2.689,2.689,0,0,0,1.874.79,3.22,3.22,0,0,0,1.089-.2c.514-.185,1.027-.418,1.523-.645l.379-.172a2.4,2.4,0,0,1,.97-.246c.691,0,1.154.473,1.377,1.405.306,1.286.78,2.549,2.163,3.072a6.336,6.336,0,0,0,1.733.293l.451.037a1.754,1.754,0,0,0,.177.009,4.974,4.974,0,0,0,.5-.035c.177-.018.351-.034.532-.036h.026a1.476,1.476,0,0,1,1.131.384,1.545,1.545,0,0,1,.32,1.2l-.019.316a13.565,13.565,0,0,0-.026,2.049,2.936,2.936,0,0,0,1.9,2.515,12.491,12.491,0,0,0,1.285.466l.306.1a1.754,1.754,0,0,1,1.184.944,1.781,1.781,0,0,1-.221,1.519,9.849,9.849,0,0,0-.706,1.566,3.209,3.209,0,0,0,.815,3.483,10.412,10.412,0,0,0,.782.706c.152.128.3.256.45.388a1.493,1.493,0,0,1-.138,2.529Z"/>
    <path id="Path_6418" data-name="Path 6418" d="M338.057,1828.25a15.719,15.719,0,0,0-11.188-4.673h-.042a15.783,15.783,0,1,0,0,31.566h.043a15.787,15.787,0,0,0,11.19-26.9Zm-11.21,25.154a14.044,14.044,0,1,1-.014-28.087h.014a14.044,14.044,0,1,1,0,28.088Z" transform="translate(-54.737 -55)"/>
    <path id="Path_6419" data-name="Path 6419" d="M338.057,1828.25a15.719,15.719,0,0,0-11.188-4.673h-.042a15.783,15.783,0,1,0,0,31.566h.043a15.787,15.787,0,0,0,11.19-26.9Zm-11.21,25.154a14.044,14.044,0,1,1-.014-28.087h.014a14.044,14.044,0,1,1,0,28.088Z" transform="translate(-54.737 -55)"/>
    <path id="Path_6420" data-name="Path 6420" d="M382.206,1896.78a2.38,2.38,0,0,1-.3.332l-.065.064q-4.313,4.318-8.63,8.633a1.427,1.427,0,0,1-.892.536,1.37,1.37,0,0,1-.865-.516l-.079-.078c-1.359-1.356-2.763-2.759-4.14-4.144-.512-.513-.4-.894-.276-1.135a.815.815,0,0,1,.734-.466,1.068,1.068,0,0,1,.736.329c.839.82,1.681,1.668,2.5,2.487l.736.739c.086.086.168.181.264.29.049.057.1.118.16.182a.274.274,0,0,0,.193.091h.011a.272.272,0,0,0,.188-.076l.2-.187c.114-.108.207-.2.3-.289l1.888-1.888c1.9-1.9,3.861-3.863,5.8-5.788a1.777,1.777,0,0,1,.624-.445.95.95,0,0,1,.274-.045.781.781,0,0,1,.648.371.811.811,0,0,1-.009,1Z" transform="translate(-102.508 -116.509)"/>
    <path id="Path_6421" data-name="Path 6421" d="M382.206,1896.78a2.38,2.38,0,0,1-.3.332l-.065.064q-4.313,4.318-8.63,8.633a1.427,1.427,0,0,1-.892.536,1.37,1.37,0,0,1-.865-.516l-.079-.078c-1.359-1.356-2.763-2.759-4.14-4.144-.512-.513-.4-.894-.276-1.135a.815.815,0,0,1,.734-.466,1.068,1.068,0,0,1,.736.329c.839.82,1.681,1.668,2.5,2.487l.736.739c.086.086.168.181.264.29.049.057.1.118.16.182a.274.274,0,0,0,.193.091h.011a.272.272,0,0,0,.188-.076l.2-.187c.114-.108.207-.2.3-.289l1.888-1.888c1.9-1.9,3.861-3.863,5.8-5.788a1.777,1.777,0,0,1,.624-.445.95.95,0,0,1,.274-.045.781.781,0,0,1,.648.371.811.811,0,0,1-.009,1Z" transform="translate(-102.508 -116.509)"/>
  </g>
</svg>
