<svg xmlns="http://www.w3.org/2000/svg" width="265" height="175.462" viewBox="0 0 265 175.462">
  <g id="introimage_c" transform="translate(-58 -346.027)">
    <ellipse id="Ellipse_346" data-name="Ellipse 346" cx="132.5" cy="5.77" rx="132.5" ry="5.77" transform="translate(58 509.95)" fill="#f5f5f5"/>
    <g id="Group_18468" data-name="Group 18468" transform="translate(71.304 437.308)">
      <path id="Path_25317" data-name="Path 25317" d="M163.642,650.317a.5.5,0,0,0,.51-.466c.061-.963,1.416-23.674-5.628-31.229a7.144,7.144,0,0,0-5.236-2.444,6.955,6.955,0,0,0-5.253,2.265c-7.1,7.315-6.044,30.015-6,30.979a.573.573,0,0,0,.558.537h0a.5.5,0,0,0,.507-.527c-.01-.23-1.085-23.221,5.719-30.225a5.946,5.946,0,0,1,8.934.115c6.713,7.2,5.337,30.171,5.324,30.4a.574.574,0,0,0,.5.595c.02,0,.037,0,.057,0Z" transform="translate(-126.883 -616.144)" fill="#057e83"/>
      <path id="Path_25318" data-name="Path 25318" d="M120.274,745.372h35.832l-2.718-52.432H117.57Z" transform="translate(-110.739 -666.961)" fill="#08a0a0"/>
      <path id="Path_25319" data-name="Path 25319" d="M97.36,745.372h35.822l6.828-52.432H104.191Z" transform="translate(-97.36 -666.961)" fill="#0cbab5"/>
      <g id="Group_18467" data-name="Group 18467" transform="translate(0 25.979)" opacity="0.1">
        <path id="Path_25320" data-name="Path 25320" d="M140.01,692.94,97.36,745.372l6.831-52.432Z" transform="translate(-97.36 -692.94)" fill="#fff"/>
      </g>
      <path id="Path_25321" data-name="Path 25321" d="M222.13,692.94l-.72,49.688,3.438,2.745Z" transform="translate(-179.48 -666.961)" fill="#0cbab5"/>
      <path id="Path_25322" data-name="Path 25322" d="M209.448,839.94l-6.108,2.745h9.545Z" transform="translate(-167.518 -764.273)" fill="#057e83"/>
      <path id="Path_25323" data-name="Path 25323" d="M192.605,714.758a1.175,1.175,0,0,0,1.186,1.268,1.373,1.373,0,0,0,1.349-1.268,1.176,1.176,0,0,0-1.186-1.268A1.373,1.373,0,0,0,192.605,714.758Z" transform="translate(-160.41 -680.564)" fill="#057e83"/>
      <path id="Path_25324" data-name="Path 25324" d="M130.175,713.478a1.175,1.175,0,0,0,1.186,1.267,1.373,1.373,0,0,0,1.349-1.267,1.175,1.175,0,0,0-1.186-1.268A1.373,1.373,0,0,0,130.175,713.478Z" transform="translate(-119.082 -679.717)" fill="#057e83"/>
      <path id="Path_25325" data-name="Path 25325" d="M153.79,650.273a.575.575,0,0,0,.561-.48c.166-.97,3.951-23.857-2.305-31.34a6.268,6.268,0,0,0-4.992-2.373,7.882,7.882,0,0,0-5.51,2.373c-7.906,7.487-9.272,30.32-9.326,31.286a.5.5,0,0,0,.5.531h0a.575.575,0,0,0,.564-.541c.014-.233,1.393-23.356,8.967-30.526a6.8,6.8,0,0,1,4.729-2.055,5.24,5.24,0,0,1,4.218,2.018c5.962,7.132,2.129,30.279,2.089,30.512a.5.5,0,0,0,.439.588h.057Z" transform="translate(-120.435 -616.08)" fill="#fff"/>
      <path id="Path_25326" data-name="Path 25326" d="M105.9,828.141l-.717,4.458h6.375l.659-4.5Z" transform="translate(-102.537 -756.435)" fill="#fff"/>
    </g>
    <g id="Group_18470" data-name="Group 18470" transform="translate(233.968 453.647)">
      <path id="Path_25327" data-name="Path 25327" d="M631.07,691.509a.4.4,0,0,0,.406-.372c.047-.764,1.122-18.743-4.455-24.722a5.661,5.661,0,0,0-4.147-1.937,5.509,5.509,0,0,0-4.158,1.795c-5.621,5.79-4.786,23.762-4.746,24.526a.453.453,0,0,0,.443.426h0a.4.4,0,0,0,.4-.419c-.01-.182-.859-18.384,4.526-23.928a4.706,4.706,0,0,1,7.071.091c5.313,5.7,4.225,23.884,4.215,24.066a.454.454,0,0,0,.4.47h.044Z" transform="translate(-601.971 -664.458)" fill="#057e83"/>
      <path id="Path_25328" data-name="Path 25328" d="M596.73,766.768H625.1l-2.15-41.508H594.59Z" transform="translate(-589.185 -704.695)" fill="#08a0a0"/>
      <path id="Path_25329" data-name="Path 25329" d="M578.6,766.768h28.356l5.408-41.508H584Z" transform="translate(-578.6 -704.695)" fill="#0cbab5"/>
      <g id="Group_18469" data-name="Group 18469" transform="translate(0 20.565)" opacity="0.1">
        <path id="Path_25330" data-name="Path 25330" d="M612.364,725.26,578.6,766.768,584,725.26Z" transform="translate(-578.6 -725.26)" fill="#fff"/>
      </g>
      <path id="Path_25331" data-name="Path 25331" d="M677.371,725.26l-.571,39.334,2.721,2.173Z" transform="translate(-643.607 -704.695)" fill="#0cbab5"/>
      <path id="Path_25332" data-name="Path 25332" d="M667.327,841.63,662.49,843.8h7.558Z" transform="translate(-634.134 -781.731)" fill="#057e83"/>
      <path id="Path_25333" data-name="Path 25333" d="M654,742.524a.929.929,0,0,0,.94,1,1.087,1.087,0,0,0,1.068-1,.929.929,0,0,0-.94-1A1.087,1.087,0,0,0,654,742.524Z" transform="translate(-628.51 -715.459)" fill="#057e83"/>
      <path id="Path_25334" data-name="Path 25334" d="M604.566,741.514a.93.93,0,0,0,.94,1,1.087,1.087,0,0,0,1.068-1,.93.93,0,0,0-.94-1A1.087,1.087,0,0,0,604.566,741.514Z" transform="translate(-595.787 -714.791)" fill="#057e83"/>
      <path id="Path_25335" data-name="Path 25335" d="M623.281,691.484a.462.462,0,0,0,.446-.379c.128-.767,3.13-18.888-1.825-24.81a4.948,4.948,0,0,0-3.951-1.876,6.243,6.243,0,0,0-4.36,1.876c-6.26,5.925-7.338,24-7.382,24.769a.392.392,0,0,0,.4.419h0a.459.459,0,0,0,.45-.426c.01-.182,1.105-18.489,7.1-24.164a5.377,5.377,0,0,1,3.742-1.626,4.16,4.16,0,0,1,3.34,1.6c4.722,5.645,1.687,23.972,1.656,24.154a.392.392,0,0,0,.348.466h.044Z" transform="translate(-596.876 -664.42)" fill="#fff"/>
      <path id="Path_25336" data-name="Path 25336" d="M585.351,832.29l-.571,3.529h5.047l.524-3.559Z" transform="translate(-582.691 -775.528)" fill="#fff"/>
    </g>
    <g id="Group_18494" data-name="Group 18494" transform="translate(83.821 346.027)">
      <g id="Group_18472" data-name="Group 18472" transform="translate(11.898 95.918)">
        <path id="Path_25337" data-name="Path 25337" d="M216.76,639.393l10.191,10.742,10.918-9.221-10.536-11.1Z" transform="translate(-200.816 -629.807)" fill="#fb8180"/>
        <path id="Path_25338" data-name="Path 25338" d="M251.857,640.907,241.324,629.8l-3.434,3.113a46.376,46.376,0,0,1,9.187,12.03Z" transform="translate(-214.804 -629.8)" fill="#081420"/>
        <g id="Group_18471" data-name="Group 18471" transform="translate(0 3.133)">
          <path id="Path_25339" data-name="Path 25339" d="M199.139,655.956l-8.88,8.883L169.59,644.173s5.141-6.047,8.765-4.668a21.544,21.544,0,0,0,5.432,1.5s4.181-4,7.676-.507c4.235,4.235.1,7.4.1,7.4,2.731,6.554,3.569,4.208,6.52,4.894a1.929,1.929,0,0,1,1.055,3.164Z" transform="translate(-169.59 -639.068)" fill="#00a551"/>
          <path id="Path_25340" data-name="Path 25340" d="M196.91,640.88s5.706,1.136,5.946,6.831" transform="translate(-187.676 -640.268)" fill="none"/>
          <path id="Path_25341" data-name="Path 25341" d="M211.983,659.723a.75.75,0,1,0,1.021.037A.726.726,0,0,0,211.983,659.723Z" transform="translate(-197.527 -652.614)" fill="#081420"/>
          <path id="Path_25342" data-name="Path 25342" d="M208.96,644.17a6.009,6.009,0,0,1,5.253,6.138" transform="translate(-195.653 -642.445)" fill="none"/>
          <path id="Path_25343" data-name="Path 25343" d="M221.983,660.963A.75.75,0,1,0,223,661,.726.726,0,0,0,221.983,660.963Z" transform="translate(-204.147 -653.435)" fill="#081420"/>
          <path id="Path_25344" data-name="Path 25344" d="M169.593,650.125l20.669,20.662,2.058-2.062L171.659,648.07a22.546,22.546,0,0,0-2.069,2.052Z" transform="translate(-169.59 -645.027)" fill="#081420"/>
        </g>
      </g>
      <g id="Group_18474" data-name="Group 18474" transform="translate(0 46.232)">
        <path id="Path_25345" data-name="Path 25345" d="M179.5,519.655l2.941,14.511,14.146-2.025-3.039-15Z" transform="translate(-164.252 -505.534)" fill="#fb8180"/>
        <g id="Group_18473" data-name="Group 18473">
          <path id="Path_25346" data-name="Path 25346" d="M154.481,512.7l-12.611,3.745-7.48-32.222s8.207-3.022,10.417-.233a49.121,49.121,0,0,1,4.519,7.7s5.2-2.133,6.243,2.386-4.09,4.245-4.09,4.245c-1.088,6.767,1.72,9.329,3.738,11.232A1.916,1.916,0,0,1,154.481,512.7Z" transform="translate(-134.39 -482.804)" fill="#00a551"/>
          <path id="Path_25347" data-name="Path 25347" d="M173.326,507.95s.1,1.876-2.356,3.056" transform="translate(-158.606 -499.45)" fill="none"/>
          <path id="Path_25348" data-name="Path 25348" d="M168.772,515.146a.745.745,0,0,0-.48.879.629.629,0,0,0,.8.487.745.745,0,0,0,.48-.879A.629.629,0,0,0,168.772,515.146Z" transform="translate(-156.82 -504.195)" fill="#081420"/>
          <path id="Path_25349" data-name="Path 25349" d="M167.7,497.13s.1,1.876-2.356,3.056" transform="translate(-154.879 -492.288)" fill="none"/>
          <path id="Path_25350" data-name="Path 25350" d="M163.142,504.315a.745.745,0,0,0-.48.879.629.629,0,0,0,.8.487.745.745,0,0,0,.48-.879A.629.629,0,0,0,163.142,504.315Z" transform="translate(-153.093 -497.026)" fill="#081420"/>
          <path id="Path_25351" data-name="Path 25351" d="M134.4,485.375l7.48,32.226,2.68-.825-7.48-32.226A21.782,21.782,0,0,0,134.4,485.375Z" transform="translate(-134.397 -483.96)" fill="#081420"/>
        </g>
        <path id="Path_25352" data-name="Path 25352" d="M213.322,532.141l-3.039-15-5.5.987a81.8,81.8,0,0,1,2,14.954l6.54-.936Z" transform="translate(-180.987 -505.534)" fill="#081420"/>
      </g>
      <g id="Group_18476" data-name="Group 18476" transform="translate(87.217 12.49)">
        <path id="Path_25353" data-name="Path 25353" d="M415.682,511.238a53.866,53.866,0,0,1-10.759,12.4c-3.637,3-7.4,4.921-9.995,3.353-5.317-3.2-2.042-8.18,8.5-12.557a87.236,87.236,0,0,1,12.077-3.891c.095-.03.2-.054.3-.078.213-.054.159.237-.125.774Z" transform="translate(-392.42 -467.371)" fill="#131b26"/>
        <path id="Path_25354" data-name="Path 25354" d="M402,497.789c4.09,3.553,9.319,11.54,18.787,11.4s31.469-43.343,31.469-43.343c-5.479-.085-9.464.409-14.031,4.107s-14.947,15.072-14.947,15.072l-1-4.07L402,497.785Z" transform="translate(-398.762 -437.829)" fill="#00a551"/>
        <line id="Line_79" data-name="Line 79" x2="1.122" y2="4.901" transform="translate(24.513 47.193)" fill="none"/>
        <g id="Group_18475" data-name="Group 18475" transform="translate(5.828)">
          <path id="Path_25355" data-name="Path 25355" d="M422.88,403.905a7.341,7.341,0,0,1-1.254,1.5l5.293,20.747.172.693a53.867,53.867,0,0,1-10.759,12.4,37.287,37.287,0,0,1-1.213-6.115c-.095-1-.189-2.035-.277-3.093-.74-8.707-1.278-18.868-1.5-23.421a5.092,5.092,0,0,1-2.319-3.921c-.149-2.17-.284-4.441-.5-5.861-.088-.527-.419-4.33-.7-5.75-.669-3.336.963-3.154,1.484-2.454.5.693.859,3.059,1.325,4.418.45,1.3.632,1.568.852,1.105s-.166-8.4-.054-9.522,1.562-1.247,1.852-.75c.693.963,1.105,9.008,1.247,9.63s.112.845.379-.017.514-8.653.845-9.64a1.285,1.285,0,0,1,2.018-.585c.622.828-.007,8.187-.041,9.41s-.054,1.491.166,1.379.757-2.8,1.514-5.074c.75-2.366,1.119-3.573,1.7-3.88.821-.426,2.042.22,1.579,1.8-.338,1.065-3.052,11.864-2.657,12.5.237.372,1.048-.142,1.68-.379a7.245,7.245,0,0,0,1.616-.93c2.224-1.886,3.8.551,2.6,1.639-1.2.852-3.353,1.585-4.624,3.509-.095.149-.243.379-.409.646Z" transform="translate(-409.661 -382.979)" fill="#f99780" fill-rule="evenodd"/>
          <path id="Path_25356" data-name="Path 25356" d="M417.75,417.2s3.16-2.072,8.879-.507" transform="translate(-415.016 -404.911)" fill="none" fill-rule="evenodd"/>
          <path id="Path_25357" data-name="Path 25357" d="M429.213,428.83a5.251,5.251,0,0,0-3.323,4.428" transform="translate(-420.404 -413.332)" fill="none" fill-rule="evenodd"/>
          <path id="Path_25358" data-name="Path 25358" d="M441.4,449.65a7.018,7.018,0,0,1-1.677,1.132" transform="translate(-429.56 -427.114)" fill="none" fill-rule="evenodd"/>
          <path id="Path_25359" data-name="Path 25359" d="M420.96,452.98a6.729,6.729,0,0,0,.875.338" transform="translate(-417.141 -429.319)" fill="none" fill-rule="evenodd"/>
        </g>
      </g>
      <path id="Path_25360" data-name="Path 25360" d="M507.2,469.967c-5.976-2.863-19.054-4.107-19.054-4.107s-7.544.25-14.859,7.348S444.3,519.823,444.3,519.823l32.175,11.79,30.718-61.646Z" transform="translate(-339.547 -425.355)" fill="#6bdb9e"/>
      <g id="Group_18485" data-name="Group 18485" transform="translate(144.674 0)">
        <path id="Path_25361" data-name="Path 25361" d="M632.083,379.653c-5.712,1.751-6.993,10.468-6.808,17.746s-5.286,16.322,1.4,18.229c0,0,3.441,6.135,7.886,2.167,0,0,5.662,4.259,8.491-1.565,0,0,5.983.48,4.671-6.033,0,0,5.02-1.193,3.931-6.219-1.325-6.121-5.313-5.8-7.125-15.146-1.508-7.781-6.95-10.864-12.445-9.177Z" transform="translate(-602.746 -367.991)" fill="#47211f"/>
        <path id="Path_25362" data-name="Path 25362" d="M640.922,377.737a5.757,5.757,0,1,0,7.575-2.985A5.756,5.756,0,0,0,640.922,377.737Z" transform="translate(-614.066 -364.726)" fill="#ee4497"/>
        <path id="Path_25363" data-name="Path 25363" d="M581.182,363.757s-6.314-1.9-3.833-10.134c2.19-7.274,9.464-9.812,19.469-5.462,12.182,5.3,13.169,17.418,6.7,27.646s-20.3-4.053-22.329-12.05Z" transform="translate(-571.916 -346.027)" fill="#502925"/>
        <g id="Group_18479" data-name="Group 18479" transform="translate(0 1.839)">
          <path id="Path_25364" data-name="Path 25364" d="M587.316,454.219l6.635-13.919-23.563,4.262-2.647,6.084c-.483,1.085-3.187,5.09.456,7.45,5.077,3.285,13.919,1.48,19.118-3.88Z" transform="translate(-564.999 -410.274)" fill="#f99780"/>
          <path id="Path_25365" data-name="Path 25365" d="M587.278,354.643c-8.19-4.178-15.667-2.457-18.3,5.388a58.352,58.352,0,0,1-2.417,6.128c-2.244,4.817-3.877,6.311-4.13,9.971-.368,5.351,2.856,9.566,9.292,12.364,8.417,3.661,16.988,1.44,22.231-11.509,4.867-12.026-.041-18.956-6.676-22.339Z" transform="translate(-562.406 -352.107)" fill="#f99780"/>
          <path id="Path_25366" data-name="Path 25366" d="M574.931,452.87l-1.731,3.975c8.866,4.607,14.372-.145,14.69-.45a16.471,16.471,0,0,1-9.028-1.437,21.8,21.8,0,0,1-3.84-2.109l-.091.017Z" transform="translate(-569.552 -418.582)" fill="#131b26"/>
          <path id="Path_25367" data-name="Path 25367" d="M582.7,358.121c-.622,2.944,6.213,7.588,16.64,6.8-1.8,7.26,1.923,8.014,1.923,8.014-1.717,8.437,4.185,7.4,4.185,7.4a34.6,34.6,0,0,0,2.025-3.965c4.864-12.026.047-19.186-6.588-22.586C592.7,349.624,584.19,351.07,582.7,358.121Z" transform="translate(-575.817 -351.469)" fill="#502925"/>
          <g id="Group_18478" data-name="Group 18478" transform="translate(26.416 21.252)">
            <path id="Path_25368" data-name="Path 25368" d="M641.014,417.286c-.994,2.285-.314,4.786,1.514,5.581s4.124-.412,5.117-2.7.314-4.786-1.514-5.581S642.008,415,641.014,417.286Z" transform="translate(-640.557 -414.343)" fill="#f99780"/>
            <g id="Group_18477" data-name="Group 18477" transform="translate(2.077 2.821)">
              <path id="Path_25369" data-name="Path 25369" d="M650.293,423.56s-.544,3.167-3.593,2.626" transform="translate(-646.7 -423.266)" fill="none"/>
              <path id="Path_25370" data-name="Path 25370" d="M651.42,422.69a2.761,2.761,0,0,1,.352,2.687" transform="translate(-649.825 -422.69)" fill="none"/>
            </g>
          </g>
        </g>
        <g id="Group_18483" data-name="Group 18483" transform="translate(6.228 13.231)">
          <path id="Path_25371" data-name="Path 25371" d="M591.881,395.18l-.139,2.17-2.1,2.221a.578.578,0,0,0,.179.923l2.3,1.044" transform="translate(-586.557 -391.797)" fill="none"/>
          <path id="Path_25372" data-name="Path 25372" d="M618.915,399.207s-1.355-2.951-3.745-2.7" transform="translate(-603.563 -392.667)" fill="none"/>
          <path id="Path_25373" data-name="Path 25373" d="M587.462,385.854s-.974-1.349-3.772-.254" transform="translate(-582.723 -385.172)" fill="none"/>
          <g id="Group_18480" data-name="Group 18480" transform="translate(2.682 11.904)">
            <path id="Path_25374" data-name="Path 25374" d="M589.263,420.4a9.05,9.05,0,0,0-.338,4.452s4.722,2.721,7.017-2.167a.831.831,0,0,0,.074-.493.869.869,0,0,0-1.021-.75,8.126,8.126,0,0,1-3.566-.108,3.368,3.368,0,0,1-.378-.108,2.243,2.243,0,0,1-.375-.135c-.128-.047-.257-.095-.379-.152a2.4,2.4,0,0,1-.379-.179,5.217,5.217,0,0,1-.652-.365Z" transform="translate(-588.765 -420.39)" fill="#441c19"/>
            <path id="Path_25375" data-name="Path 25375" d="M591.854,421.353a2.139,2.139,0,0,0,.588,1.646,5.7,5.7,0,0,0,5.614-.172.869.869,0,0,0-1.021-.75,8.126,8.126,0,0,1-3.566-.108,5.87,5.87,0,0,1-.754-.243,2.332,2.332,0,0,1-.379-.152,2.4,2.4,0,0,1-.379-.179.34.34,0,0,1-.1-.044Z" transform="translate(-590.808 -421.026)" fill="#fff"/>
            <path id="Path_25376" data-name="Path 25376" d="M590.29,431.788a5.279,5.279,0,0,0,4.536.084,3.28,3.28,0,0,0-1.906-1.244,3,3,0,0,0-2.626,1.163Z" transform="translate(-589.774 -427.148)" fill="#7d2c23"/>
          </g>
          <g id="Group_18481" data-name="Group 18481" transform="translate(10.069 6.745)">
            <path id="Path_25377" data-name="Path 25377" d="M610.747,405.967a1.432,1.432,0,1,0,1.9-.71A1.431,1.431,0,0,0,610.747,405.967Z" transform="translate(-610.618 -405.128)" fill="#131b26"/>
            <path id="Path_25378" data-name="Path 25378" d="M616.89,407.73a1.142,1.142,0,0,0,1.491.487" transform="translate(-614.77 -406.85)" fill="none"/>
          </g>
          <g id="Group_18482" data-name="Group 18482" transform="translate(0 2.332)">
            <path id="Path_25379" data-name="Path 25379" d="M584.793,393.7a1.433,1.433,0,1,1-1.227-1.612,1.433,1.433,0,0,1,1.227,1.612Z" transform="translate(-581.565 -392.07)" fill="#131b26"/>
            <path id="Path_25380" data-name="Path 25380" d="M582.351,393.075a1.143,1.143,0,0,1-1.521-.385" transform="translate(-580.83 -392.48)" fill="none"/>
          </g>
        </g>
        <g id="Group_18484" data-name="Group 18484" transform="translate(1.191 10.556)">
          <path id="Path_25381" data-name="Path 25381" d="M566.454,380.743c-1.2,2.768-.264,5.844,2.1,6.872s5.256-.382,6.459-3.15.264-5.844-2.1-6.872S567.657,377.974,566.454,380.743Z" transform="translate(-565.93 -377.257)" fill="#c73868" opacity="0.3"/>
          <path id="Path_25382" data-name="Path 25382" d="M604.818,397.587a5.262,5.262,0,1,0,7.021-2.968,5.393,5.393,0,0,0-7.021,2.968Z" transform="translate(-591.355 -388.473)" fill="#c73868" opacity="0.3"/>
          <path id="Path_25383" data-name="Path 25383" d="M566.454,380.743c-1.2,2.768-.264,5.844,2.1,6.872s5.256-.382,6.459-3.15.264-5.844-2.1-6.872S567.657,377.974,566.454,380.743Z" transform="translate(-565.93 -377.257)" fill="none"/>
          <path id="Path_25384" data-name="Path 25384" d="M604.818,397.587a5.262,5.262,0,1,0,7.021-2.968,5.393,5.393,0,0,0-7.021,2.968Z" transform="translate(-591.355 -388.473)" fill="none"/>
          <path id="Path_25385" data-name="Path 25385" d="M598.157,398.493a5.129,5.129,0,0,0-4.147-1.8" transform="translate(-584.519 -390.119)" fill="none"/>
          <path id="Path_25386" data-name="Path 25386" d="M635.7,410.04a19.1,19.1,0,0,0,7.247,1.633" transform="translate(-612.117 -398.959)" fill="none"/>
        </g>
      </g>
      <path id="Path_25387" data-name="Path 25387" d="M572.8,517.649c1.768,4.671,3.062,9.552,1.237,10.505-4.7,2.478-9.961,3.748-13.615,2.413-3.85-1.42-5.428-3.211-5.821-5.057a10.429,10.429,0,0,0-1.792,3.431c-1,3.319.331,23.421-7.642,33.713,0,0-1.656-14.284-15.106-26.071,0,0,10.434-12.929,12.273-27.206s8.89-17.424,15.288-22.653c5.483-4.489,6.351-8.724,6.351-8.724,2.657,2.224,16.154,9.261,15.822,15.822-.237,4.725-3.961,16.329-7,23.823Z" transform="translate(-396.32 -433.392)" fill="#00a551"/>
      <path id="Path_25388" data-name="Path 25388" d="M596.8,481.03s.957,5.5-2.116,9.819a31.148,31.148,0,0,0-4.235,8.22,34.83,34.83,0,0,0-12.929.564" transform="translate(-427.738 -435.398)" fill="none"/>
      <path id="Path_25389" data-name="Path 25389" d="M396.78,565.081s1.288-1.474,3.529-4.651" transform="translate(-308.089 -487.96)" fill="none"/>
      <g id="Group_18486" data-name="Group 18486" transform="translate(94.21 40.505)">
        <path id="Path_25390" data-name="Path 25390" d="M467.5,465.86a18.176,18.176,0,0,0-9.7,9.549c-3.488,7.5-5.584,13.257-12.219,17.478-6.851,4.36-12.787,9.258-17.188,27.027,0,0-10.461-.5-15.278.831,0,0,14.612-21.132,25.7-29.228,0,0-.5-4.857,1.494-8.1s9.633-8.345,11.749-11.208,5.148-6.351,7.555-6.351H467.5Z" transform="translate(-413.11 -465.86)" fill="#00a551"/>
        <path id="Path_25391" data-name="Path 25391" d="M531.417,465.86a12.688,12.688,0,0,0-7.639,5.128,63.561,63.561,0,0,1-9.217,9.3s4.529.375,6,4.185" transform="translate(-480.269 -465.86)" fill="none"/>
        <path id="Path_25392" data-name="Path 25392" d="M413.11,533.182s14.612-21.132,25.7-29.228c0,0-.5-4.857,1.494-8.1s9.633-8.345,11.749-11.208" transform="translate(-413.11 -478.299)" fill="none"/>
      </g>
      <path id="Path_25393" data-name="Path 25393" d="M299.348,577.333c-16.461.071-27.656-5.3-30.881-22.947-2.16-11.793-14.933-39.236-14.933-39.236-16.887,2.342-41.737,4.614-41.737,4.614,2.366-9.221-2.636-17.965-2.636-17.965s38.5-6.574,48.464-7.822c6.351-.8,10.837,2.336,13.639,6.882,6.943,10.468,26.26,42.032,26.26,42.032l9.464-3.62s8.677,37.982-7.642,38.06Z" transform="translate(-183.887 -443.886)" fill="#3b494c"/>
      <path id="Path_25394" data-name="Path 25394" d="M450.213,603.764s-.379,17.181-11.215,21.67c0,0-20.051,2.217-27.768-1.869-10.979-5.814-14.207-23.853-14.45-53.93l25.912-2.326a158.891,158.891,0,0,1,8.5,20.6c10.127,5.979,19.016,15.863,19.016,15.863Z" transform="translate(-308.089 -492.514)" fill="#48585d"/>
      <g id="Group_18489" data-name="Group 18489" transform="translate(45.222 58.798)">
        <g id="Group_18487" data-name="Group 18487" transform="translate(97.489 92.287)">
          <circle id="Ellipse_347" data-name="Ellipse 347" cx="9.87" cy="9.87" r="9.87" fill="#0d437c"/>
          <circle id="Ellipse_348" data-name="Ellipse 348" cx="5.503" cy="5.503" r="5.503" transform="translate(4.367 4.367)" fill="#f2ffff"/>
          <path id="Path_25395" data-name="Path 25395" d="M579.147,807.438a9.872,9.872,0,0,1-18.307,5.124A9.878,9.878,0,0,0,575.655,799.9a9.842,9.842,0,0,1,3.5,7.534Z" transform="translate(-559.407 -797.571)" fill="#023b6a"/>
        </g>
        <path id="Path_25396" data-name="Path 25396" d="M403.136,526.35l-27.152,74.285-99.639-5.729-4.485-47.534,127.622-11.026" transform="translate(-270.616 -524.197)" fill="none"/>
        <line id="Line_80" data-name="Line 80" x2="118.222" transform="translate(2.346 34.849)" fill="none"/>
        <line id="Line_81" data-name="Line 81" x2="108.15" transform="translate(4.411 56.759)" fill="none"/>
        <line id="Line_82" data-name="Line 82" x1="8.656" y2="61.42" transform="translate(94.329 14.382)" fill="none"/>
        <line id="Line_83" data-name="Line 83" x1="2.481" y2="58.185" transform="translate(78.047 16.539)" fill="none"/>
        <line id="Line_84" data-name="Line 84" y2="55.332" transform="translate(57.617 18.303)" fill="none"/>
        <line id="Line_85" data-name="Line 85" y2="52.473" transform="translate(37.364 20.054)" fill="none"/>
        <line id="Line_86" data-name="Line 86" x2="2.633" y2="49.735" transform="translate(17.296 21.788)" fill="none"/>
        <line id="Line_87" data-name="Line 87" x1="2.674" y2="10.556" transform="translate(102.694 76.438)" fill="none"/>
        <line id="Line_88" data-name="Line 88" x1="2.674" y2="10.556" transform="translate(95.981 76.438)" fill="none"/>
        <line id="Line_89" data-name="Line 89" x2="121.89" transform="translate(0 87.18)" fill="none"/>
        <rect id="Rectangle_17980" data-name="Rectangle 17980" width="3.4" height="3.985" transform="translate(103.336 87.18)" fill="#03823c"/>
        <path id="Path_25397" data-name="Path 25397" d="M551.59,789.69H562.4a1.129,1.129,0,0,1,1.129,1.129v8.721a1.128,1.128,0,0,1-1.835.879l-10.81-8.721a1.127,1.127,0,0,1,.706-2Z" transform="translate(-455.048 -698.525)" fill="#03823c"/>
        <g id="Group_18488" data-name="Group 18488" transform="translate(7.565 92.287)">
          <circle id="Ellipse_349" data-name="Ellipse 349" cx="9.87" cy="9.87" r="9.87" fill="#0d437c"/>
          <circle id="Ellipse_350" data-name="Ellipse 350" cx="5.503" cy="5.503" r="5.503" transform="translate(4.367 4.367)" fill="#f2ffff"/>
          <path id="Path_25398" data-name="Path 25398" d="M313.107,807.438a9.872,9.872,0,0,1-18.307,5.124A9.878,9.878,0,0,0,309.615,799.9a9.842,9.842,0,0,1,3.5,7.534Z" transform="translate(-293.367 -797.571)" fill="#023b6a"/>
        </g>
        <rect id="Rectangle_17981" data-name="Rectangle 17981" width="3.4" height="3.985" transform="translate(13.412 87.18)" fill="#03823c"/>
        <path id="Path_25399" data-name="Path 25399" d="M285.55,789.69h10.81a1.129,1.129,0,0,1,1.129,1.129v8.721a1.128,1.128,0,0,1-1.835.879l-10.81-8.721a1.127,1.127,0,0,1,.706-2Z" transform="translate(-278.932 -698.525)" fill="#03823c"/>
        <path id="Path_25400" data-name="Path 25400" d="M683.986,527.105H663.753a3.563,3.563,0,0,1-3.563-3.563h0a3.563,3.563,0,0,1,3.563-3.563h20.233a3.563,3.563,0,0,1,3.563,3.563h0A3.563,3.563,0,0,1,683.986,527.105Z" transform="translate(-527.687 -519.98)" fill="#494949"/>
      </g>
      <g id="Group_18493" data-name="Group 18493" transform="translate(158.28 30.948)">
        <path id="Path_25401" data-name="Path 25401" d="M620.859,532.117c1.768,4.671,3.062,9.552,1.237,10.505-4.7,2.478-9.961,3.748-13.615,2.413-3.85-1.42-5.428-3.211-5.821-5.057.859-12.344,5.016-15.335,6.341-22.228a78.629,78.629,0,0,1,5.063-14.964c1.721-3.414,6.358-3.85,10.127-1.318,2.207,2.184,3.779,4.529,3.661,6.824-.237,4.725-3.961,16.329-7,23.823Z" transform="translate(-602.66 -478.805)" fill="#00a551"/>
        <path id="Path_25402" data-name="Path 25402" d="M602.66,545.738c.862-12.344,5.016-15.332,6.344-22.224a78.177,78.177,0,0,1,5.063-14.964" transform="translate(-602.66 -484.564)" fill="none"/>
        <g id="Group_18490" data-name="Group 18490" transform="translate(16.585)">
          <path id="Path_25403" data-name="Path 25403" d="M665.12,463.473l8.46-20.659a1.26,1.26,0,0,0-.815-1.7l-9.755-3.427a1.947,1.947,0,0,0-1.906.4l-.5.456a1.608,1.608,0,0,0-.416.581L651.8,459.589a.9.9,0,0,0,.578,1.21L662.8,464.46a1.9,1.9,0,0,0,2.322-.984Z" transform="translate(-651.727 -437.587)" fill="#4265b5"/>
          <path id="Path_25404" data-name="Path 25404" d="M667.266,464.366l8.575-20.96a1.272,1.272,0,0,0-.825-1.717l-10.039-3.525a1.92,1.92,0,0,0-2.346.994L654.1,460a1.059,1.059,0,0,0,.686,1.43l10.614,3.728a1.524,1.524,0,0,0,1.859-.788Z" transform="translate(-653.244 -437.902)" fill="#fde800"/>
          <path id="Path_25405" data-name="Path 25405" d="M681.848,443.773c-.226.686.057,1.322.639,1.42a1.45,1.45,0,0,0,1.46-1.068c.227-.686-.057-1.322-.639-1.42A1.45,1.45,0,0,0,681.848,443.773Z" transform="translate(-671.615 -440.967)" fill="#4265b5"/>
          <path id="Path_25406" data-name="Path 25406" d="M681.868,451.853c-.078.24.02.46.223.493a.507.507,0,0,0,.51-.372.347.347,0,0,0-.223-.493A.507.507,0,0,0,681.868,451.853Z" transform="translate(-671.662 -446.782)" fill="#4265b5"/>
        </g>
        <path id="Path_25407" data-name="Path 25407" d="M651.7,576.47c-2.451,6.351-3.008,14.447-8.346,10.461-6.06-4.526-2.112-17.533-1.825-18.891l10.171,8.427Z" transform="translate(-627.378 -523.946)" fill="#131b26"/>
        <g id="Group_18491" data-name="Group 18491" transform="translate(13.657 8.361)">
          <path id="Path_25408" data-name="Path 25408" d="M643.556,498.059l9.735-10.813s-.216-4.455,2.958-6.48a14.565,14.565,0,0,0-1-3.143c-.406-.466-3.269-1.619-3.394-2.616s.9-1.028,2.211-.561a18.865,18.865,0,0,1,5.354,2.958,8.029,8.029,0,0,0-.186-2.241c-.25-.5-4.452-2.461-5.449-3.333s-.686-2.085-.095-2.305a3.067,3.067,0,0,1,1.68.25s-.531-1.213.375-1.775,3.549.561,4.918,1,3.674,1.4,4.3,2.586a11.935,11.935,0,0,1,.933,2.741,24.116,24.116,0,0,0,1.122-5.013c0-1.589-1.058-4.016-.652-5.7s1.088-1.339,1.308-1.058,1.278,3.7,1.524,4.546a15.135,15.135,0,0,1,.216,5.107c-.311,1.183-1.183,5.324-1.68,6.7s-5.293,6.047-6.165,8.349-7.085,18.067-7.845,19.24c-4.11,6.351-12.807,1.2-10.171-8.427Z" transform="translate(-643.064 -462.322)" fill="#f99780"/>
          <path id="Path_25409" data-name="Path 25409" d="M679.49,484.37a49.168,49.168,0,0,1,6.2,2.927c1.183.9,1.744,3.143,2.055,4.327" transform="translate(-667.178 -476.918)" fill="none"/>
        </g>
        <g id="Group_18492" data-name="Group 18492" transform="translate(5.868 44.098)">
          <path id="Path_25410" data-name="Path 25410" d="M628.3,568.05a103.156,103.156,0,0,0-8.281,8.136" transform="translate(-620.02 -568.05)" fill="none"/>
          <path id="Path_25411" data-name="Path 25411" d="M627.188,576.779s-.619-.064-3.978,1.43" transform="translate(-622.132 -573.828)" fill="none"/>
        </g>
      </g>
      <path id="Path_25412" data-name="Path 25412" d="M319.236,526.263l-25.912,2.326a32.7,32.7,0,0,1-8.43,9.819c-7.754,5.631-33.047,25.128-33.047,25.128-1.987-9.3-11.347-14.247-11.347-14.247s42.038-43.962,58.344-43.978c7.849-.007,15.112,10.5,20.392,20.95Z" transform="translate(-204.634 -451.471)" fill="#48585d"/>
    </g>
    <g id="Group_18497" data-name="Group 18497" transform="translate(271.791 460.364)">
      <path id="Path_25413" data-name="Path 25413" d="M751.8,707.835a.379.379,0,0,0,.328-.385c-.02-.686-.534-16.867-5.932-21.46a4.72,4.72,0,0,0-3.809-1.176,5.184,5.184,0,0,0-3.515,2.153c-4.482,5.915-2.285,21.832-2.19,22.508a.378.378,0,0,0,.422.321h0a.379.379,0,0,0,.321-.426c-.024-.162-2.248-16.282,2.045-21.947a4.476,4.476,0,0,1,3.015-1.863,3.95,3.95,0,0,1,3.221,1c5.144,4.377,5.662,20.744,5.665,20.906a.375.375,0,0,0,.389.365h.041Z" transform="translate(-720.662 -684.606)" fill="#057e83"/>
      <path id="Path_25414" data-name="Path 25414" d="M696.94,777.494l39.939,4.374-2.532-32.6H699.384Z" transform="translate(-694.763 -727.306)" fill="#518da4"/>
      <path id="Path_25415" data-name="Path 25415" d="M690.5,782.662h34.964l4.621-33.392H695.121Z" transform="translate(-690.5 -727.306)" fill="#08a0a0"/>
      <path id="Path_25416" data-name="Path 25416" d="M801.092,781.868l-7.152.794,4.621-33.392Z" transform="translate(-758.976 -727.306)" fill="#08a0a0"/>
      <g id="Group_18495" data-name="Group 18495" transform="translate(0 21.964)" opacity="0.2">
        <path id="Path_25417" data-name="Path 25417" d="M690.5,782.662l39.584-33.392H695.121Z" transform="translate(-690.5 -749.27)" fill="#fff"/>
      </g>
      <g id="Group_18496" data-name="Group 18496" transform="translate(1.491 21.964)">
        <path id="Path_25418" data-name="Path 25418" d="M752.91,749.27l6.706,33.392h3.4L756.3,749.27Z" transform="translate(-733.305 -749.27)" fill="#33d1cd"/>
        <path id="Path_25419" data-name="Path 25419" d="M729.03,749.27l6.615,33.392h3.4l-6.615-33.392Z" transform="translate(-717.497 -749.27)" fill="#33d1cd"/>
        <path id="Path_25420" data-name="Path 25420" d="M704.16,749.284l6.706,33.378h3.4L707.55,749.27h-3.39Z" transform="translate(-701.033 -749.27)" fill="#33d1cd"/>
        <path id="Path_25421" data-name="Path 25421" d="M694.91,795.1l2.133,10.749h3.4l-4.043-21.5Z" transform="translate(-694.91 -772.493)" fill="#33d1cd"/>
        <path id="Path_25422" data-name="Path 25422" d="M776.59,749.27l6.3,30.255,1.058-7.646-4.306-22.609Z" transform="translate(-748.981 -749.27)" fill="#33d1cd"/>
        <path id="Path_25423" data-name="Path 25423" d="M794.89,749.27l2.576,12.462.906-6.564L797,749.27Z" transform="translate(-761.096 -749.27)" fill="#33d1cd"/>
      </g>
      <path id="Path_25424" data-name="Path 25424" d="M798.561,841.26l-4.621,2.3,7.152-.794Z" transform="translate(-758.976 -788.203)" fill="#057e83"/>
      <path id="Path_25425" data-name="Path 25425" d="M798.561,780.364V749.27l-4.621,33.392Z" transform="translate(-758.976 -727.306)" fill="#33d1cd"/>
      <circle id="Ellipse_351" data-name="Ellipse 351" cx="0.892" cy="0.892" r="0.892" transform="translate(27.217 23.171)" fill="#057e83"/>
      <path id="Path_25426" data-name="Path 25426" d="M727.03,752.842a.892.892,0,1,0,.892-.892A.892.892,0,0,0,727.03,752.842Z" transform="translate(-714.682 -729.08)" fill="#057e83"/>
      <path id="Path_25427" data-name="Path 25427" d="M743.656,708.353a.38.38,0,0,0,.375-.338c.071-.683,1.7-16.789-3.039-22.055a4.717,4.717,0,0,0-3.62-1.67,5.192,5.192,0,0,0-3.772,1.67c-5.226,5.27-5.155,21.339-5.151,22.018a.377.377,0,0,0,.379.375h0a.377.377,0,0,0,.375-.379c0-.162-.074-16.437,4.932-21.484a4.473,4.473,0,0,1,3.235-1.447,3.946,3.946,0,0,1,3.059,1.42c4.519,5.019,2.866,21.308,2.849,21.474a.381.381,0,0,0,.335.416h.041Z" transform="translate(-715.622 -684.29)" fill="#fff"/>
    </g>
  </g>
</svg>
