<svg width="20" height="21" viewBox="0 0 20 21" fill="none" xmlns="http://www.w3.org/2000/svg">
<g clip-path="url(#clip0_47_554)">
<path d="M10.068 1.625C9.25454 1.62434 8.44893 1.78408 7.69727 2.09508C6.9456 2.40607 6.26263 2.86222 5.68742 3.43742C5.11222 4.01263 4.65607 4.6956 4.34508 5.44727C4.03408 6.19893 3.87434 7.00454 3.875 7.818C3.875 12.463 10.068 19.318 10.068 19.318C10.068 19.318 16.261 12.462 16.261 7.818C16.2615 7.00458 16.1017 6.19903 15.7907 5.44742C15.4796 4.69581 15.0235 4.01289 14.4483 3.43772C13.8731 2.86254 13.1902 2.40639 12.4386 2.09534C11.687 1.7843 10.8814 1.62448 10.068 1.625ZM10.068 10.025C9.63009 10.026 9.20173 9.89697 8.8372 9.6543C8.47268 9.41162 8.18838 9.0662 8.02034 8.66181C7.8523 8.25742 7.80808 7.81224 7.89327 7.38269C7.97846 6.95314 8.18923 6.55854 8.49889 6.24889C8.80854 5.93923 9.20314 5.72846 9.63269 5.64327C10.0622 5.55808 10.5074 5.6023 10.9118 5.77034C11.3162 5.93838 11.6616 6.22268 11.9043 6.5872C12.147 6.95173 12.276 7.38009 12.275 7.818C12.2737 8.40293 12.0407 8.96352 11.6271 9.37713C11.2135 9.79073 10.6529 10.0237 10.068 10.025Z" stroke="#037A80" stroke-width="0.95" stroke-linecap="round" stroke-linejoin="round"/>
</g>
<defs>
<clipPath id="clip0_47_554">
<rect width="20" height="20" fill="white" transform="translate(0 0.5)"/>
</clipPath>
</defs>
</svg>
