<svg width="20" height="21" viewBox="0 0 20 21" fill="none" xmlns="http://www.w3.org/2000/svg">
<g clip-path="url(#clip0_47_565)">
<path d="M18.5322 15.4405L14.9402 13.0405C14.7207 12.8961 14.455 12.8394 14.1957 12.8816C13.9364 12.9238 13.7025 13.0619 13.5402 13.2685L12.4942 14.6135C12.4291 14.6994 12.3353 14.7591 12.2298 14.7813C12.1243 14.8035 12.0143 14.7869 11.9202 14.7345L11.7202 14.6245C10.546 13.9835 9.48689 13.1514 8.58615 12.1625C7.59586 11.2635 6.76243 10.2056 6.12015 9.03246L6.01015 8.83246C5.95734 8.73846 5.94019 8.62856 5.96187 8.52294C5.98354 8.41732 6.04258 8.32306 6.12815 8.25746L7.47315 7.21146C7.67932 7.04886 7.81709 6.81493 7.85929 6.55578C7.9015 6.29662 7.84508 6.03106 7.70115 5.81146L5.30115 2.21946C5.15321 1.99693 4.9255 1.83967 4.665 1.78013C4.4045 1.72059 4.13108 1.7633 3.90115 1.89946L2.40115 2.79946C1.92925 3.07698 1.58308 3.52637 1.43515 4.05346C0.891154 6.02646 1.29815 9.43246 6.30815 14.4395C10.2942 18.4245 13.2612 19.4965 15.3002 19.4965C15.7695 19.4986 16.237 19.4378 16.6902 19.3155C17.2173 19.1677 17.6668 18.8215 17.9442 18.3495L18.8442 16.8495C18.9838 16.6197 19.0293 16.3448 18.9712 16.0823C18.913 15.8197 18.7558 15.5898 18.5322 15.4405ZM18.3382 16.5405L17.4382 18.0405C17.2396 18.3811 16.9172 18.6319 16.5382 18.7405C14.7192 19.2405 11.5382 18.8265 6.73015 14.0155C1.92215 9.20446 1.50215 6.03246 2.00215 4.21246C2.11091 3.83352 2.36165 3.51114 2.70215 3.31246L4.20215 2.41246C4.30196 2.35254 4.421 2.33335 4.53458 2.35886C4.64815 2.38437 4.74755 2.45262 4.81215 2.54946L6.11215 4.50346L7.21215 6.13846C7.27507 6.23396 7.29972 6.34965 7.28119 6.4625C7.26266 6.57536 7.20231 6.67709 7.11215 6.74746L5.76215 7.79346C5.56392 7.9447 5.42695 8.16242 5.37642 8.40659C5.3259 8.65076 5.36522 8.90496 5.48715 9.12246L5.59415 9.31646C6.26408 10.5403 7.1314 11.6451 8.16115 12.5865C9.10169 13.6164 10.2071 14.4826 11.4322 15.1495L11.6262 15.2565C11.8435 15.3781 12.0975 15.4173 12.3415 15.3668C12.5854 15.3162 12.803 15.1794 12.9542 14.9815L14.0002 13.6325C14.0705 13.5423 14.1723 13.482 14.2851 13.4634C14.398 13.4449 14.5137 13.4695 14.6092 13.5325L18.2002 15.9325C18.2974 15.9967 18.366 16.0961 18.3917 16.2097C18.4174 16.3234 18.3982 16.4426 18.3382 16.5425V16.5405Z" fill="#037A80" stroke="#037A80" stroke-width="0.25"/>
<path d="M11.3069 4.70878C12.6398 4.71037 13.9176 5.24065 14.8601 6.18326C15.8025 7.12588 16.3325 8.40385 16.3338 9.73678C16.3454 9.80694 16.3815 9.8707 16.4357 9.9167C16.4899 9.9627 16.5588 9.98796 16.6299 9.98796C16.701 9.98796 16.7697 9.9627 16.8239 9.9167C16.8782 9.8707 16.9143 9.80694 16.9258 9.73678C16.9243 8.24702 16.3317 6.81872 15.2783 5.7653C14.2249 4.71188 12.7966 4.11937 11.3069 4.11778C11.2637 4.11023 11.2195 4.1122 11.1772 4.12357C11.1349 4.13494 11.0956 4.15542 11.0621 4.18358C11.0286 4.21174 11.0016 4.24689 10.9832 4.28657C10.9647 4.32626 10.9551 4.3695 10.9551 4.41328C10.9551 4.45706 10.9647 4.50031 10.9832 4.53999C11.0016 4.57967 11.0286 4.61483 11.0621 4.64299C11.0956 4.67115 11.1349 4.69163 11.1772 4.70299C11.2195 4.71436 11.2637 4.71634 11.3069 4.70878Z" fill="#037A80" stroke="#037A80" stroke-width="0.25"/>
<path d="M11.3059 6.48262C12.1683 6.48368 12.9951 6.82674 13.6049 7.43657C14.2147 8.0464 14.5578 8.87319 14.5589 9.73562C14.5513 9.77874 14.5533 9.82299 14.5647 9.86527C14.576 9.90755 14.5965 9.94683 14.6247 9.98035C14.6528 10.0139 14.688 10.0408 14.7277 10.0593C14.7673 10.0778 14.8106 10.0874 14.8544 10.0874C14.8981 10.0874 14.9414 10.0778 14.9811 10.0593C15.0208 10.0408 15.0559 10.0139 15.0841 9.98035C15.1122 9.94683 15.1327 9.90755 15.1441 9.86527C15.1554 9.82299 15.1574 9.77874 15.1499 9.73562C15.1485 8.71644 14.7432 7.73937 14.0226 7.01861C13.302 6.29785 12.3251 5.89221 11.3059 5.89062C11.2357 5.9022 11.1719 5.9383 11.1259 5.99252C11.0799 6.04673 11.0547 6.11552 11.0547 6.18662C11.0547 6.25772 11.0799 6.32651 11.1259 6.38072C11.1719 6.43493 11.2357 6.47105 11.3059 6.48262Z" fill="#037A80" stroke="#037A80" stroke-width="0.25"/>
<path d="M11.3059 8.25902C11.6977 8.25928 12.0734 8.41491 12.3507 8.69179C12.6279 8.96866 12.7841 9.3442 12.7849 9.73602C12.7773 9.77915 12.7793 9.8234 12.7906 9.86568C12.802 9.90795 12.8225 9.94724 12.8506 9.98076C12.8788 10.0143 12.914 10.0412 12.9536 10.0597C12.9933 10.0782 13.0366 10.0878 13.0804 10.0878C13.1241 10.0878 13.1674 10.0782 13.2071 10.0597C13.2467 10.0412 13.2819 10.0143 13.3101 9.98076C13.3382 9.94724 13.3587 9.90795 13.3701 9.86568C13.3815 9.8234 13.3834 9.77915 13.3759 9.73602C13.3753 9.18719 13.1571 8.66097 12.769 8.27289C12.3809 7.8848 11.8547 7.66655 11.3059 7.66602C11.2357 7.67759 11.1719 7.7137 11.1259 7.76791C11.0799 7.82213 11.0547 7.89092 11.0547 7.96202C11.0547 8.03312 11.0799 8.10192 11.1259 8.15613C11.1719 8.21034 11.2357 8.24745 11.3059 8.25902Z" fill="#037A80" stroke="#037A80" stroke-width="0.25"/>
</g>
<defs>
<clipPath id="clip0_47_565">
<rect width="20" height="20" fill="white" transform="translate(0 0.5)"/>
</clipPath>
</defs>
</svg>
