<svg width="311" height="180" viewBox="0 0 311 180" fill="none" xmlns="http://www.w3.org/2000/svg">
<g clip-path="url(#clip0_47_574)">
<path opacity="0.22" d="M184.76 52.6915C184.042 52.6923 183.331 52.5443 182.673 52.2567C182.015 51.9691 181.423 51.5482 180.935 51.0205C174.08 43.5896 165.945 37.4511 156.918 32.8975C155.683 32.2764 154.745 31.1899 154.31 29.877C153.876 28.5642 153.981 27.1325 154.602 25.897C155.223 24.6615 156.31 23.7233 157.622 23.2889C158.935 22.8545 160.367 22.9594 161.602 23.5805C171.744 28.6918 180.884 35.586 188.585 43.9335C189.274 44.6774 189.732 45.6063 189.901 46.6063C190.071 47.6064 189.945 48.6341 189.539 49.5637C189.133 50.4932 188.465 51.2842 187.616 51.8396C186.767 52.395 185.775 52.6907 184.76 52.6905V52.6915ZM57.5055 51.0115C65.3672 42.4837 74.9076 35.674 85.5274 31.0103C96.1472 26.3466 107.617 23.9297 119.215 23.9115C125.845 23.8841 132.452 24.688 138.881 26.3045C139.55 26.4895 140.248 26.5393 140.935 26.4512C141.623 26.3631 142.286 26.1388 142.886 25.7913C143.486 25.4439 144.01 24.9804 144.429 24.4278C144.847 23.8752 145.152 23.2448 145.324 22.5732C145.496 21.9017 145.532 21.2026 145.431 20.5169C145.329 19.8312 145.092 19.1725 144.733 18.5795C144.374 17.9865 143.901 17.471 143.34 17.0632C142.779 16.6554 142.143 16.3635 141.468 16.2045C134.193 14.3741 126.717 13.4613 119.215 13.4875C106.175 13.5075 93.2798 16.2243 81.3404 21.4673C69.4009 26.7103 58.675 34.366 49.8364 43.9535C49.3681 44.4561 49.0036 45.0465 48.7642 45.6904C48.5247 46.3344 48.4151 47.0194 48.4413 47.7059C48.4676 48.3925 48.6292 49.067 48.9171 49.6909C49.205 50.3147 49.6135 50.8754 50.1189 51.3408C50.6243 51.8062 51.2168 52.1671 51.8622 52.4027C52.5076 52.6383 53.1932 52.744 53.8795 52.7137C54.5659 52.6834 55.2396 52.5176 55.8617 52.226C56.4838 51.9344 57.042 51.5227 57.5044 51.0145L57.5055 51.0115ZM74.9874 69.6495C80.2614 63.5158 86.7554 58.5481 94.0556 55.0631C101.356 51.5782 109.302 49.6524 117.387 49.4085C118.77 49.368 120.08 48.7805 121.031 47.7751C121.981 46.7697 122.493 45.4284 122.455 44.0455C122.397 42.6692 121.803 41.3701 120.802 40.4243C119.8 39.4785 118.469 38.9605 117.091 38.9805C107.557 39.2717 98.1883 41.5441 89.5802 45.6531C80.9721 49.7621 73.3134 55.6177 67.0915 62.8475C66.6211 63.3627 66.2589 63.9669 66.0263 64.6246C65.7937 65.2822 65.6955 65.9798 65.7373 66.6761C65.7792 67.3724 65.9603 68.0533 66.27 68.6783C66.5798 69.3033 67.0117 69.8598 67.5404 70.3149C68.0691 70.7699 68.6838 71.1143 69.3479 71.3276C70.0121 71.5408 70.7122 71.6186 71.407 71.5564C72.1018 71.4942 72.777 71.2932 73.3927 70.9653C74.0084 70.6374 74.5521 70.1893 74.9915 69.6475L74.9874 69.6495ZM170.809 70.1925C171.855 69.287 172.498 68.0037 172.598 66.6245C172.698 65.2452 172.247 63.8825 171.343 62.8355C163.376 53.5899 153.086 46.6378 141.534 42.6965C140.884 42.4703 140.195 42.375 139.508 42.4164C138.82 42.4577 138.148 42.6349 137.529 42.9375C136.911 43.2401 136.358 43.6623 135.904 44.1796C135.449 44.6969 135.101 45.2991 134.881 45.9514C134.66 46.6038 134.571 47.2934 134.618 47.9804C134.666 48.6674 134.849 49.3383 135.157 49.9543C135.465 50.5702 135.892 51.1191 136.413 51.5692C136.934 52.0192 137.539 52.3616 138.194 52.5765C147.984 55.9191 156.704 61.8163 163.451 69.6585C164.356 70.7049 165.64 71.349 167.019 71.4492C168.399 71.5493 169.763 71.0973 170.809 70.1925ZM153.058 89.3925C154.174 88.5768 154.922 87.3509 155.135 85.9844C155.348 84.6179 155.01 83.2227 154.194 82.1055C150.167 76.6064 144.902 72.1316 138.826 69.0425C132.75 65.9534 126.033 64.3365 119.216 64.3225C118.57 64.3148 117.923 64.3455 117.28 64.4145C115.92 64.5818 114.681 65.2819 113.835 66.3613C112.99 67.4406 112.607 68.8112 112.77 70.1725C112.94 71.5408 113.639 72.7883 114.718 73.6471C115.797 74.5059 117.169 74.9078 118.54 74.7665C118.765 74.7456 118.992 74.7407 119.217 74.7515C124.392 74.7614 129.493 75.9885 134.106 78.3336C138.719 80.6788 142.716 84.0763 145.773 88.2515C146.589 89.3679 147.814 90.1146 149.18 90.3275C150.546 90.5403 151.941 90.2019 153.058 89.3865V89.3925ZM137.145 107.713C137.145 104.166 136.094 100.7 134.124 97.7512C132.154 94.8026 129.353 92.5044 126.077 91.1473C122.801 89.7903 119.196 89.4352 115.717 90.127C112.239 90.8188 109.045 92.5265 106.537 95.0341C104.029 97.5416 102.322 100.736 101.63 104.215C100.938 107.693 101.293 111.298 102.65 114.574C104.007 117.85 106.305 120.651 109.254 122.621C112.203 124.591 115.669 125.643 119.215 125.643C121.57 125.643 123.902 125.179 126.077 124.278C128.252 123.377 130.229 122.056 131.894 120.391C133.559 118.726 134.88 116.749 135.781 114.574C136.682 112.399 137.145 110.067 137.145 107.713ZM126.716 107.713C126.716 109.196 126.277 110.646 125.453 111.879C124.628 113.113 123.457 114.074 122.087 114.642C120.716 115.209 119.208 115.358 117.753 115.068C116.298 114.779 114.962 114.065 113.913 113.016C112.864 111.967 112.15 110.631 111.861 109.176C111.571 107.721 111.72 106.213 112.287 104.842C112.855 103.472 113.816 102.301 115.05 101.477C116.283 100.652 117.733 100.213 119.216 100.213C121.206 100.213 123.113 101.003 124.52 102.409C125.926 103.816 126.716 105.723 126.716 107.713ZM71.4385 98.6575L159.428 9.37549C159.919 8.89017 160.308 8.31237 160.574 7.67548C160.839 7.03859 160.976 6.35531 160.975 5.66529C160.975 4.97526 160.837 4.2922 160.571 3.6557C160.304 3.0192 159.914 2.44194 159.423 1.95734C158.932 1.47274 158.349 1.09044 157.709 0.832644C157.069 0.574848 156.384 0.446653 155.694 0.455507C155.004 0.464362 154.323 0.610083 153.69 0.884218C153.057 1.15835 152.484 1.55545 152.006 2.05249L64.0154 91.3375C63.5244 91.8227 63.1348 92.4005 62.8689 93.0375C62.603 93.6745 62.4663 94.358 62.4667 95.0482C62.4671 95.7385 62.6045 96.4218 62.871 97.0585C63.1375 97.6952 63.5278 98.2726 64.0193 98.7573C64.5108 99.2419 65.0937 99.6242 65.734 99.8818C66.3744 100.139 67.0596 100.267 67.7498 100.258C68.44 100.249 69.1214 100.102 69.7547 99.8277C70.3879 99.553 70.9602 99.1552 71.4385 98.6575Z" fill="#455A64"/>
<path d="M231.917 117.481C231.848 117.041 231.607 116.645 231.246 116.382C230.886 116.119 230.436 116.01 229.995 116.079C229.554 116.148 229.159 116.39 228.896 116.75C228.633 117.111 228.524 117.561 228.593 118.001C228.834 119.568 229.142 124.476 227.448 126.452C227.102 126.869 226.617 127.148 226.082 127.237L226.236 117.889C226.244 117.564 226.187 117.241 226.067 116.938C225.948 116.636 225.769 116.36 225.542 116.128C225.314 115.896 225.042 115.712 224.742 115.586C224.442 115.461 224.12 115.397 223.795 115.398C223.47 115.4 223.148 115.466 222.849 115.594C222.55 115.722 222.28 115.908 222.054 116.143C221.828 116.377 221.652 116.654 221.535 116.957C221.418 117.261 221.364 117.584 221.374 117.909L221.813 135.65C221.257 135.571 220.75 135.289 220.39 134.857C218.696 132.882 219.004 127.974 219.245 126.406C219.279 126.188 219.27 125.965 219.218 125.751C219.166 125.536 219.072 125.334 218.942 125.155C218.812 124.977 218.648 124.826 218.459 124.71C218.271 124.595 218.061 124.519 217.843 124.484C217.625 124.45 217.402 124.46 217.187 124.511C216.973 124.563 216.77 124.657 216.592 124.787C216.413 124.918 216.262 125.082 216.147 125.27C216.032 125.459 215.955 125.668 215.921 125.886C215.8 126.658 214.828 133.531 217.832 137.041C218.337 137.635 218.958 138.119 219.657 138.463C220.357 138.807 221.119 139.004 221.897 139.041L222.088 146.763H225.759L226.025 130.63C226.788 130.583 227.534 130.382 228.218 130.04C228.901 129.698 229.509 129.221 230.004 128.638C233.007 125.127 232.037 118.255 231.917 117.481Z" fill="#BDBDBD"/>
<path d="M75.1844 132.517C75.1627 132.378 75.1137 132.244 75.0404 132.124C74.9671 132.004 74.8708 131.899 74.7571 131.816C74.6433 131.733 74.5143 131.673 74.3774 131.64C74.2406 131.607 74.0986 131.601 73.9595 131.623C73.8203 131.645 73.6867 131.694 73.5665 131.767C73.4463 131.84 73.3417 131.936 73.2586 132.05C73.1756 132.164 73.1159 132.293 73.0827 132.43C73.0496 132.567 73.0437 132.709 73.0654 132.848C73.2194 133.848 73.4154 136.976 72.3354 138.235C72.1146 138.5 71.8059 138.678 71.4654 138.735L71.5654 132.776C71.5646 132.572 71.5236 132.371 71.4449 132.183C71.3662 131.996 71.2513 131.825 71.1068 131.682C70.9623 131.539 70.7909 131.425 70.6025 131.348C70.4141 131.271 70.2124 131.232 70.0089 131.232C69.8053 131.233 69.604 131.274 69.4162 131.353C69.2285 131.432 69.0581 131.546 68.9148 131.691C68.7714 131.836 68.658 132.007 68.5809 132.195C68.5038 132.384 68.4646 132.585 68.4654 132.789L68.7453 144.098C68.3909 144.048 68.0677 143.868 67.8384 143.593C66.7584 142.334 66.9544 139.205 67.1084 138.206C67.1523 137.925 67.0828 137.638 66.9151 137.408C66.7475 137.179 66.4953 137.025 66.2143 136.981C65.9333 136.937 65.6465 137.007 65.4167 137.174C65.187 137.342 65.0333 137.594 64.9894 137.875C64.9124 138.367 64.2894 142.749 66.2074 144.986C66.5291 145.364 66.9252 145.672 67.3708 145.892C67.8165 146.111 68.3024 146.236 68.7984 146.26L68.9204 151.183H71.2604L71.4304 140.898C71.9169 140.868 72.3924 140.74 72.8283 140.521C73.2643 140.303 73.6516 139.999 73.9674 139.628C75.8744 137.393 75.2644 133.017 75.1844 132.517Z" fill="#BDBDBD"/>
<path d="M153.326 136.684C238.006 136.684 310.28 179.54 310.28 179.54H0C0 179.54 68.646 136.684 153.326 136.684Z" fill="url(#paint0_linear_47_574)"/>
<path d="M173.034 127.595C173.034 127.595 172.964 131.719 173.034 132.132C173.104 132.545 171.42 134.962 170.734 134.855C169.955 134.785 169.191 134.594 168.47 134.289C168.27 134.06 168.359 133.519 168.429 133.024C168.499 132.529 169.015 128.039 169.015 127.808C169.015 127.577 172.264 126.968 173.034 127.595Z" fill="#FFBE9D"/>
<path d="M170.365 131.897C169.504 132.362 169.02 133.778 168.898 133.797C168.776 133.816 168.547 133.78 168.547 133.64C168.547 133.5 168.582 133.028 168.425 133.028C168.268 133.028 168.092 133.798 168.058 134.917C168.024 136.036 167.625 138.706 168.058 139.046C168.33 139.259 170.822 140.568 170.892 140.746C170.962 140.924 170.839 142.146 171.049 142.338C171.259 142.53 171.749 143.003 172.133 143.021C173.348 143.154 174.574 143.154 175.79 143.021C176.637 142.855 177.452 142.553 178.204 142.129C178.166 140.946 177.966 139.775 177.609 138.648C177.277 138.281 174.88 134.992 174.687 134.694C174.472 134.245 174.358 133.755 174.354 133.259C174.33 132.925 174.216 132.604 174.025 132.33C173.834 132.056 173.572 131.839 173.267 131.703C172.302 131.475 171.292 131.542 170.367 131.897H170.365Z" fill="#037A80"/>
<path d="M147.897 129.982C147.897 129.982 147.897 132.382 147.828 132.797C147.759 133.212 149.443 135.627 150.128 135.52C150.908 135.45 151.671 135.259 152.392 134.954C152.592 134.725 152.504 134.183 152.432 133.689C152.36 133.195 151.917 130.426 151.917 130.196C151.917 129.966 148.657 129.355 147.897 129.982Z" fill="#FFBE9D"/>
<path d="M150.114 76.9847C148.543 84.0814 147.6 91.3026 147.297 98.5648C147.297 104.465 146.707 119.504 146.707 121.79C146.707 124.076 146.461 129.747 147.051 130.042C148.191 130.768 149.547 131.081 150.89 130.928C151.546 130.898 152.164 130.614 152.615 130.136C153.065 129.658 153.311 129.024 153.302 128.368C153.351 127.285 153.794 119.508 154.237 116.505C154.68 113.502 156.255 107.711 157.289 103.986C158.323 100.261 160.735 92.7697 161.375 92.7987C162.015 92.8277 166.001 109.238 166.333 110.168C166.665 111.098 167.298 124.311 167.339 125.421C167.38 126.531 167.339 127.598 168.039 128.05C169.247 128.824 170.581 129.38 171.981 129.693C173.09 129.776 173.829 128.009 174.034 127.475C174.239 126.941 174.603 109.267 174.472 104.418C174.341 99.5687 174.724 90.5277 174.5 87.5797C174.258 84.0203 173.79 80.4799 173.1 76.9797C172.634 75.6557 150.114 76.9847 150.114 76.9847Z" fill="#263238"/>
<path d="M143.23 35.8009C144.16 34.7679 148.5 29.8759 149.362 29.7009C150.224 29.5259 152.319 29.1489 152.787 28.6679C153.255 28.1869 155.231 21.9789 154.449 20.8499C153.667 19.7209 150.649 20.0419 149.731 21.9629C148.813 23.8839 148.862 24.8909 147.352 26.2179C145.842 27.5449 139.264 32.9239 138.652 33.4669C138.04 34.0099 139.252 36.6499 140.215 37.1079C141.178 37.5659 143.23 35.8009 143.23 35.8009Z" fill="#FFBE9D"/>
<path d="M155.221 37.2949C153.003 37.7599 149.321 38.1539 148.103 38.5469C146.885 38.9399 142.094 40.6218 142.13 39.9058C142.166 39.1898 144.348 36.0438 143.954 35.7208C143.56 35.3978 141.2 35.0058 140.807 34.5048C140.414 34.0038 139.877 32.8249 139.34 32.9669C138.803 33.1089 132.583 38.9038 133.009 41.1218C134.009 46.3508 148.709 50.1619 149.049 52.4429C149.389 54.7239 147.909 76.5919 148.714 77.3969C149.519 78.2019 158.038 81.2878 162.331 81.5558C166.624 81.8238 174.155 80.3289 174.566 79.1989C174.977 78.0689 172.471 56.3408 172.766 56.3408C173.061 56.3408 173.139 63.1808 176.409 64.9498C177.335 65.3468 178.35 65.493 179.35 65.3736C180.351 65.2542 181.302 64.8735 182.109 64.2698C182.677 63.6258 180.08 54.5328 178.909 51.4698C177.738 48.4068 176.609 42.0699 173.952 39.8179C171.295 37.5659 167.543 37.9518 166.252 37.4178C164.961 36.8838 160.627 37.2679 159.535 37.1539C158.096 37.1232 156.656 37.1703 155.221 37.2949Z" fill="#037A80"/>
<path d="M182.92 60.1538C182.92 60.1538 179.097 61.3097 178.799 61.7067C178.501 62.1037 177.971 63.6947 178.799 64.3577C179.627 65.0207 180.536 65.5167 181.519 64.7517C182.502 63.9867 183.398 62.9578 183.966 62.8278C184.534 62.6978 186.233 62.9418 186.946 62.6618C187.659 62.3818 189.012 56.9737 188.466 56.6467C187.92 56.3197 182.92 60.1538 182.92 60.1538Z" fill="#FFBE9D"/>
<path d="M155.241 36.5603C154.007 36.3043 151.625 33.9752 151.407 31.6082C151.194 29.3012 149.498 22.8213 155.402 20.3903C160.941 18.1083 166.641 20.4552 167.46 23.2692C168.225 25.8962 161.723 26.0142 159.339 27.7252C156.955 29.4362 156.793 30.5723 156.198 30.3013C155.603 30.0303 155.241 36.5603 155.241 36.5603Z" fill="#263238"/>
<path d="M155.141 31.9424C155.063 32.9984 154.797 38.1074 155.241 38.8594C155.529 39.6641 156.071 40.3534 156.785 40.824C157.499 41.2945 158.346 41.521 159.2 41.4694C162.031 41.3804 163.867 38.5494 164.022 38.2184C164.177 37.8874 163.845 33.7944 163.845 33.1094C163.845 32.4244 160.044 30.8094 158.514 30.8524C156.984 30.8954 155.211 30.9484 155.141 31.9424Z" fill="#F7B796"/>
<path d="M155.403 31.9565C155.722 31.9475 155.345 33.8944 155.924 34.5304C156.503 35.1664 159.024 38.4855 161.684 38.1605C163.984 37.8805 163.657 35.8954 163.989 34.2604C164.289 32.7764 165.248 32.6485 165.589 28.7745C165.719 27.2745 166.428 24.9275 165.126 24.4935C163.824 24.0595 158.936 22.9025 157.726 24.4935C156.516 26.0845 156.395 29.9025 155.759 29.4105C155.123 28.9185 153.792 26.5185 153.011 27.8195C152.23 29.1205 153.693 32.0065 155.403 31.9565Z" fill="#FFBE9D"/>
<path d="M184.046 53.6946L180.964 61.5744C180.804 61.9837 180.933 62.592 181.183 62.5873L186.634 62.4799C186.725 62.4814 186.812 62.3829 186.867 62.2328L189.784 54.3613C189.923 53.9936 189.8 53.4614 189.585 53.4578L184.278 53.4625C184.189 53.466 184.104 53.5476 184.046 53.6946Z" fill="#037A80"/>
<path d="M188.227 55.7187C187.473 55.7937 186.377 56.2187 186.377 56.6187C186.377 57.0187 187.257 57.1187 187.499 57.1587C187.741 57.1987 188.06 57.2717 187.969 57.3927C187.878 57.5137 187.696 58.1197 187.211 58.0147C186.208 57.9182 185.2 57.8724 184.193 57.8777C183.783 57.8777 183.293 58.1657 183.268 58.4697C183.243 58.7737 183.147 58.8337 182.904 58.8487C182.661 58.8637 182.221 59.0917 182.221 59.4857C182.221 59.8797 183.195 60.2347 183.195 60.3747C183.915 60.942 184.68 61.4516 185.481 61.8987C185.856 62.1157 186.556 62.6677 186.95 62.6677C187.208 62.6545 187.454 62.558 187.653 62.3926C187.851 62.2273 187.99 62.002 188.05 61.7507C188.099 61.2087 188.877 60.8147 188.888 60.5507C188.899 60.2867 188.641 60.0877 188.671 59.9197C188.701 59.7517 189.381 59.5197 189.381 59.0917C189.329 58.6895 189.226 58.2953 189.076 57.9187C189.037 57.7417 188.876 57.3567 189.037 57.3077C189.198 57.2587 189.746 56.7457 189.648 56.2727C189.55 55.7997 188.567 55.6837 188.227 55.7187Z" fill="#FFBE9D"/>
<path d="M150.49 132.559C151.351 133.024 151.834 134.44 151.957 134.459C152.08 134.478 152.308 134.441 152.308 134.302C152.308 134.163 152.273 133.69 152.431 133.69C152.589 133.69 152.763 134.46 152.798 135.58C152.833 136.7 153.231 139.369 152.798 139.709C152.526 139.922 150.034 141.231 149.964 141.409C149.894 141.587 150.016 142.809 149.807 143.001C149.598 143.193 149.107 143.666 148.722 143.683C147.507 143.817 146.281 143.817 145.066 143.683C144.219 143.517 143.404 143.216 142.652 142.791C142.691 141.609 142.893 140.437 143.252 139.31C143.585 138.943 145.981 135.653 146.174 135.356C146.389 134.908 146.502 134.419 146.506 133.922C146.53 133.588 146.643 133.268 146.835 132.993C147.026 132.719 147.288 132.502 147.593 132.365C148.557 132.137 149.568 132.204 150.493 132.559H150.49Z" fill="#037A80"/>
</g>
<defs>
<linearGradient id="paint0_linear_47_574" x1="155.14" y1="126.955" x2="155.14" y2="167.026" gradientUnits="userSpaceOnUse">
<stop stop-color="#E5E5E5"/>
<stop offset="0.603" stop-color="#EEEEEF"/>
<stop offset="1" stop-color="#EEF2F9"/>
</linearGradient>
<clipPath id="clip0_47_574">
<rect width="310.28" height="179.04" fill="white" transform="translate(0 0.5)"/>
</clipPath>
</defs>
</svg>
