<svg width="18" height="19" viewBox="0 0 18 19" fill="none" xmlns="http://www.w3.org/2000/svg">
<g clip-path="url(#clip0_47_595)">
<path d="M5.49531 16.8453C5.49531 17.0233 5.44253 17.1973 5.34364 17.3453C5.24474 17.4933 5.10418 17.6087 4.93973 17.6768C4.77527 17.7449 4.59431 17.7627 4.41973 17.728C4.24515 17.6933 4.08478 17.6076 3.95892 17.4817C3.83305 17.3558 3.74733 17.1955 3.71261 17.0209C3.67788 16.8463 3.6957 16.6654 3.76382 16.5009C3.83194 16.3364 3.9473 16.1959 4.0953 16.097C4.2433 15.9981 4.41731 15.9453 4.59531 15.9453C4.83401 15.9453 5.06293 16.0401 5.23171 16.2089C5.40049 16.3777 5.49531 16.6066 5.49531 16.8453Z" fill="#037A80"/>
<path d="M13.5441 16.8453C13.5441 17.0233 13.4914 17.1973 13.3925 17.3453C13.2936 17.4933 13.153 17.6087 12.9886 17.6768C12.8241 17.7449 12.6431 17.7627 12.4686 17.728C12.294 17.6933 12.1336 17.6076 12.0077 17.4817C11.8819 17.3558 11.7962 17.1955 11.7614 17.0209C11.7267 16.8463 11.7445 16.6654 11.8127 16.5009C11.8808 16.3364 11.9961 16.1959 12.1441 16.097C12.2921 15.9981 12.4661 15.9453 12.6441 15.9453C12.8828 15.9453 13.1118 16.0401 13.2805 16.2089C13.4493 16.3777 13.5441 16.6066 13.5441 16.8453Z" fill="#037A80"/>
<path d="M15.628 6.24045C15.6155 6.19896 15.5908 6.16223 15.5571 6.13509C15.5233 6.10795 15.4821 6.09169 15.439 6.08845L3.58795 4.95145C3.53249 4.94584 3.47904 4.9276 3.43172 4.89813C3.3844 4.86867 3.34445 4.82875 3.31495 4.78145C3.19201 4.54186 3.04312 4.31651 2.87095 4.10945C2.59095 3.77045 2.06295 3.78045 1.09495 3.77345C1.02196 3.76452 0.947907 3.7709 0.877521 3.7922C0.807135 3.81349 0.741962 3.84923 0.686161 3.89712C0.630361 3.94502 0.58516 4.00402 0.553442 4.07037C0.521725 4.13671 0.504189 4.20894 0.501953 4.28245C0.502864 4.35426 0.51867 4.42511 0.548372 4.4905C0.578074 4.55589 0.621025 4.61441 0.674507 4.66234C0.72799 4.71028 0.79084 4.74659 0.85908 4.76899C0.927321 4.79138 0.999466 4.79937 1.07095 4.79245C1.38778 4.7846 1.70462 4.80771 2.01695 4.86145C2.18795 4.91145 2.32595 5.19045 2.37695 5.43245L2.37573 5.43795L2.37695 5.44345C2.38395 5.48645 2.44995 5.81245 2.44995 5.81545L3.90395 13.4584C3.96827 13.9256 4.14954 14.369 4.43095 14.7474C4.56971 14.9338 4.75105 15.0842 4.95981 15.1861C5.16857 15.2881 5.39869 15.3386 5.63095 15.3334H14.24C14.3728 15.3358 14.5014 15.2867 14.5991 15.1966C14.6967 15.1064 14.7557 14.9821 14.764 14.8494C14.7677 14.7808 14.7572 14.7121 14.7332 14.6477C14.7092 14.5832 14.6721 14.5245 14.6243 14.475C14.5766 14.4255 14.5191 14.3865 14.4555 14.3602C14.392 14.334 14.3237 14.3211 14.255 14.3224H5.62595C5.51683 14.3288 5.40942 14.293 5.32595 14.2224C5.08857 13.963 4.94188 13.6335 4.90795 13.2834L4.74995 12.4254C4.74932 12.4206 4.75049 12.4156 4.75326 12.4116C4.75603 12.4075 4.76019 12.4046 4.76495 12.4034L14.865 10.7034C14.9112 10.6962 14.9538 10.6738 14.986 10.6398C15.0182 10.6058 15.0382 10.562 15.043 10.5154L15.621 6.33245C15.6281 6.3022 15.6281 6.2707 15.621 6.24045H15.628Z" fill="#037A80"/>
</g>
<defs>
<clipPath id="clip0_47_595">
<rect width="18" height="18" fill="white" transform="translate(0 0.5)"/>
</clipPath>
</defs>
</svg>
