<svg xmlns="http://www.w3.org/2000/svg" width="51.287" height="50.003" viewBox="0 0 51.287 50.003">
  <g id="notreturnable" transform="translate(312.433 -1227.197)">
    <g id="Group_5481" data-name="Group 5481" transform="translate(-312.394 1227.202)">
      <path id="Path_6410" data-name="Path 6410" d="M-269.24,1229.45a2.093,2.093,0,0,0-.616-1.649,2.093,2.093,0,0,0-1.657-.6h-38.571a2.118,2.118,0,0,0-1.68.611,2.117,2.117,0,0,0-.614,1.679c0,.447,0,.9,0,1.346.007.755.013,1.535-.016,2.3a2.336,2.336,0,0,0,1.772,2.7l.209.063V1262.9a3.068,3.068,0,0,0,2.482,3.255,6.346,6.346,0,0,0,1.611.2c2.959.009,5.9.01,8.14.01h6.812a1.6,1.6,0,0,0,1.129-.318.778.778,0,0,0,.2-.587c-.006-.4-.162-.863-1.317-.863h-14.771c-.233,0-.5,0-.758-.022-1.293-.112-1.752-.609-1.752-1.9V1235.9h12.09v14.74a.907.907,0,0,0,.54.973.919.919,0,0,0,.352.078,1.043,1.043,0,0,0,.723-.367q1.409-1.387,2.828-2.763l.649-.63c.1-.1.2-.189.3-.286l.149-.136.2-.187.355.33c.1.094.192.178.282.265l1.552,1.514,2,1.953a.923.923,0,0,0,.647.308.907.907,0,0,0,.344-.074.846.846,0,0,0,.557-.9v-14.839h12.081v11.186a2.907,2.907,0,0,0,.06.693.8.8,0,0,0,.829.625h.021a.817.817,0,0,0,.818-.666,3.269,3.269,0,0,0,.049-.652v-10.533a.747.747,0,0,1,.509-.83,2.047,2.047,0,0,0,1.452-2.133c0-.361,0-.724,0-1.087C-269.232,1231.5-269.229,1230.46-269.24,1229.45Zm-27.348,4.591h-13.971v-5.05h13.971Zm9.738,14.481-.475-.364-.111-.083a2.127,2.127,0,0,1-.248-.2q-.458-.445-.913-.892c-.475-.467-.967-.949-1.455-1.417a1.163,1.163,0,0,0-.762-.4,1.088,1.088,0,0,0-.746.408c-.587.606-1.166,1.243-1.726,1.858q-.369.407-.74.809l-.183.2-.529-.4v-19.066h7.888Zm15.808-14.487h-13.98v-5.05h13.98Z" transform="translate(312.394 -1227.202)"/>
      <path id="Path_6411" data-name="Path 6411" d="M-127.423,1390.73h-.053a12.948,12.948,0,0,0-12.9,12.917,12.949,12.949,0,0,0,12.883,12.973h.044a12.97,12.97,0,0,0,12.957-12.927,12.985,12.985,0,0,0-12.931-12.963Zm-.027,24.14h-.038a11.2,11.2,0,0,1-11.14-11.214,11.187,11.187,0,0,1,11.176-11.142h.019a11.184,11.184,0,0,1,11.155,11.17A11.2,11.2,0,0,1-127.45,1414.87Z" transform="translate(165.74 -1366.622)"/>
      <path id="Path_6412" data-name="Path 6412" d="M-91.807,1443.32a.753.753,0,0,1-.248-.567.753.753,0,0,1,.26-.561c.935-.955,1.887-1.909,2.831-2.834a.8.8,0,0,1,.556-.257.79.79,0,0,1,.554.257.734.734,0,0,1,.263.557.734.734,0,0,1-.253.561,5.94,5.94,0,0,1-.435.408c-.09.078-.186.162-.287.257a.443.443,0,0,0-.122.463.442.442,0,0,0,.372.3c.072.007.131.016.181.022a2.036,2.036,0,0,0,.271.024h2.256l-.786,1.6H-88.14a.444.444,0,0,0-.385.223l-.058.1a.442.442,0,0,0,.086.544c.075.069.152.137.229.2a5.768,5.768,0,0,1,.444.416.726.726,0,0,1,.242.549.726.726,0,0,1-.255.544.805.805,0,0,1-.569.273.775.775,0,0,1-.537-.248C-89.937,1445.21-90.9,1444.25-91.807,1443.32Z" transform="translate(124.541 -1407.858)"/>
      <path id="Path_6413" data-name="Path 6413" d="M-86.1,1507.33h.792l-.783,1.6H-86.6a1.055,1.055,0,0,1-.75-.264.741.741,0,0,1-.206-.541c0-.585.5-.8.97-.8Z" transform="translate(120.709 -1466.029)"/>
      <path id="Path_6414" data-name="Path 6414" d="M-57.272,1468.78a4.545,4.545,0,0,1-1.008.109q-1.3.01-2.61.009l.784-1.6q.922,0,1.844-.006a2.645,2.645,0,0,0,2.539-1.619,2.761,2.761,0,0,0-.385-2.98,2.453,2.453,0,0,0-1.3-.9l.7-1.42a4.391,4.391,0,0,1,2.838,3.695,4.384,4.384,0,0,1-3.4,4.712Z" transform="translate(97.971 -1425.993)"/>
    </g>
    <g id="Group_5482" data-name="Group 5482" transform="translate(-278.368 1258.146)">
      <path id="Path_6415" data-name="Path 6415" d="M-81.234,1452.01h0a.664.664,0,0,1-.334-.382.663.663,0,0,1,.034-.507l6.739-13.667a.663.663,0,0,1,.887-.3h0a.664.664,0,0,1,.3.889l-6.739,13.668a.663.663,0,0,1-.887.3Z" transform="translate(81.606 -1437.083)"/>
    </g>
  </g>
</svg>
