<svg width="133" height="134" viewBox="0 0 133 134" fill="none" xmlns="http://www.w3.org/2000/svg">
<g clip-path="url(#clip0_47_603)">
<path d="M122.726 80.5808L113.749 62.9578C113.54 62.5462 113.22 62.2005 112.826 61.9591C112.432 61.7176 111.979 61.5899 111.517 61.5898H20.9984C20.5362 61.5898 20.0829 61.7176 19.6888 61.9592C19.2946 62.2009 18.9751 62.5468 18.7654 62.9588L9.79243 80.5828C9.59791 80.9647 9.50461 81.3901 9.52147 81.8184C9.53833 82.2466 9.66477 82.6634 9.88871 83.0288C10.1127 83.3942 10.4266 83.696 10.8005 83.9055C11.1745 84.1149 11.5959 84.2248 12.0244 84.2249H15.1494V128.443C15.1488 128.772 15.2131 129.098 15.3388 129.402C15.4644 129.706 15.6489 129.983 15.8817 130.216C16.1144 130.448 16.3908 130.633 16.695 130.759C16.9992 130.884 17.3253 130.949 17.6544 130.948H114.854C115.519 130.948 116.156 130.684 116.626 130.214C117.096 129.744 117.359 129.107 117.359 128.443V84.2228H120.493C120.923 84.2244 121.345 84.1154 121.72 83.9065C122.095 83.6975 122.409 83.3955 122.634 83.0296C122.858 82.6637 122.985 82.2462 123.001 81.8174C123.017 81.3885 122.922 80.9626 122.726 80.5808ZM109.985 66.5988L116.407 79.2128H76.7684L70.3494 66.5988H109.985ZM22.5344 66.5988H62.1734L55.7494 79.2148H16.1124L22.5344 66.5988ZM112.349 125.936H68.7654V112.052C68.7654 111.387 68.5015 110.75 68.0317 110.281C67.562 109.811 66.9248 109.547 66.2604 109.547C65.5961 109.547 64.9589 109.811 64.4891 110.281C64.0194 110.75 63.7554 111.387 63.7554 112.052V125.936H20.1634V84.2228H57.2874C57.7497 84.2229 58.203 84.0951 58.5971 83.8535C58.9912 83.6118 59.3108 83.2659 59.5204 82.8539L63.7554 74.5349V89.5569C63.7554 90.2212 64.0194 90.8584 64.4891 91.3282C64.9589 91.7979 65.5961 92.0618 66.2604 92.0618C66.9248 92.0618 67.562 91.7979 68.0317 91.3282C68.5015 90.8584 68.7654 90.2212 68.7654 89.5569V74.5358L73.0004 82.8549C73.2101 83.2665 73.5296 83.6122 73.9235 83.8536C74.3174 84.095 74.7704 84.2228 75.2324 84.2228H112.349V125.936Z" fill="#037A80"/>
<path d="M44.8374 112.215H30.5734C29.909 112.215 29.2718 112.479 28.8021 112.949C28.3323 113.418 28.0684 114.055 28.0684 114.72C28.0684 115.384 28.3323 116.021 28.8021 116.491C29.2718 116.961 29.909 117.225 30.5734 117.225H44.8374C45.5017 117.225 46.1389 116.961 46.6087 116.491C47.0784 116.021 47.3424 115.384 47.3424 114.72C47.3424 114.055 47.0784 113.418 46.6087 112.949C46.1389 112.479 45.5017 112.215 44.8374 112.215Z" fill="#037A80"/>
<path d="M66.2589 54.2247C71.3441 54.2239 76.3149 52.7151 80.5426 49.8891C84.7703 47.0632 88.0649 43.0469 90.01 38.3484C91.955 33.6499 92.463 28.4801 91.4697 23.4928C90.4764 18.5055 88.0264 13.9248 84.4297 10.33C80.8329 6.73522 76.2509 4.28777 71.2631 3.2972C66.2753 2.30663 61.1057 2.81743 56.4083 4.76501C51.7108 6.71259 47.6964 10.0095 44.8727 14.2387C42.049 18.4679 40.5429 23.4395 40.5449 28.5247C40.5473 35.3425 43.2577 41.8801 48.0799 46.6997C52.902 51.5192 59.4412 54.226 66.2589 54.2247ZM66.2589 7.7647C70.3595 7.75975 74.3693 8.97133 77.7811 11.2461C81.1928 13.5209 83.8531 16.7566 85.4252 20.5438C86.9973 24.331 87.4107 28.4994 86.6129 32.5216C85.8152 36.5438 83.8422 40.239 80.9437 43.1395C78.0451 46.04 74.3513 48.0155 70.3296 48.816C66.308 49.6164 62.1392 49.2059 58.351 47.6363C54.5627 46.0667 51.3252 43.4087 49.0481 39.9985C46.771 36.5883 45.5567 32.5792 45.5589 28.4787C45.5618 22.9883 47.7432 17.7234 51.6242 13.8399C55.5051 9.95626 60.7685 7.77132 66.2589 7.7647Z" fill="#037A80"/>
<path d="M55.0299 32.2388L61.6979 37.8908C62.1503 38.2748 62.7245 38.4853 63.3179 38.4848C63.3892 38.4848 63.4606 38.4818 63.5319 38.4758C63.861 38.4478 64.1814 38.3547 64.4744 38.2022C64.7674 38.0496 65.0272 37.8404 65.2389 37.5868L77.7869 22.5868C78.0026 22.3348 78.1661 22.0425 78.268 21.7269C78.3699 21.4112 78.4081 21.0785 78.3804 20.748C78.3527 20.4175 78.2597 20.0957 78.1067 19.8014C77.9537 19.5071 77.7438 19.2461 77.4892 19.0335C77.2346 18.8209 76.9404 18.661 76.6235 18.563C76.3066 18.465 75.9734 18.4309 75.6433 18.4627C75.3131 18.4944 74.9925 18.5914 74.7001 18.748C74.4077 18.9045 74.1493 19.1176 73.9399 19.3748L63.0099 32.4378L58.2659 28.4158C57.7591 27.9862 57.1023 27.7754 56.4401 27.83C55.7779 27.8846 55.1645 28.2 54.7349 28.7068C54.3052 29.2136 54.0945 29.8704 54.1491 30.5326C54.2037 31.1948 54.5191 31.8082 55.0259 32.2378L55.0299 32.2388Z" fill="#037A80"/>
<path d="M17.0441 30.9944H27.8821C28.5464 30.9944 29.1836 30.7305 29.6534 30.2607C30.1231 29.7909 30.3871 29.1537 30.3871 28.4894C30.3871 27.825 30.1231 27.1878 29.6534 26.7181C29.1836 26.2483 28.5464 25.9844 27.8821 25.9844H17.0441C16.3797 25.9844 15.7425 26.2483 15.2728 26.7181C14.803 27.1878 14.5391 27.825 14.5391 28.4894C14.5391 29.1537 14.803 29.7909 15.2728 30.2607C15.7425 30.7305 16.3797 30.9944 17.0441 30.9944Z" fill="#037A80"/>
<path d="M15.8753 13.5562L26.7133 19.2722C27.0051 19.4406 27.3278 19.5485 27.6623 19.5893C27.9967 19.6301 28.3359 19.603 28.6596 19.5097C28.9833 19.4164 29.2849 19.2587 29.5462 19.0461C29.8076 18.8335 30.0234 18.5704 30.1807 18.2725C30.3381 17.9746 30.4337 17.6481 30.4619 17.3124C30.4901 16.9766 30.4503 16.6387 30.3448 16.3187C30.2394 15.9987 30.0705 15.7033 29.8482 15.4501C29.626 15.197 29.3549 14.9912 29.0513 14.8452L18.2123 9.1252C17.6247 8.8153 16.9381 8.7515 16.3035 8.94785C15.6689 9.1442 15.1382 9.58462 14.8283 10.1722C14.5184 10.7598 14.4546 11.4464 14.651 12.081C14.8473 12.7157 15.2877 13.2463 15.8753 13.5562Z" fill="#037A80"/>
<path d="M14.8259 46.7978C14.9787 47.0894 15.1875 47.3479 15.4405 47.5585C15.6935 47.7691 15.9855 47.9277 16.3 48.0252C16.6144 48.1227 16.9449 48.1571 17.2727 48.1265C17.6005 48.0958 17.9189 48.0008 18.2099 47.8468L29.0479 42.1378C29.3449 41.9879 29.6092 41.7803 29.8252 41.5272C30.0411 41.274 30.2045 40.9805 30.3059 40.6635C30.4072 40.3465 30.4443 40.0126 30.4152 39.6811C30.3861 39.3496 30.2912 39.0273 30.1362 38.7329C29.9811 38.4384 29.769 38.1778 29.5121 37.9663C29.2553 37.7547 28.9589 37.5964 28.6403 37.5006C28.3216 37.4048 27.987 37.3735 27.6561 37.4083C27.3252 37.4432 27.0045 37.5437 26.7129 37.7038L15.8749 43.4138C15.5838 43.5671 15.3257 43.7762 15.1155 44.0293C14.9052 44.2823 14.7468 44.5743 14.6494 44.8885C14.552 45.2028 14.5175 45.5331 14.5477 45.8607C14.578 46.1883 14.6725 46.5067 14.8259 46.7978Z" fill="#037A80"/>
<path d="M104.626 30.9944H115.465C116.129 30.9944 116.767 30.7305 117.236 30.2607C117.706 29.7909 117.97 29.1537 117.97 28.4894C117.97 27.825 117.706 27.1878 117.236 26.7181C116.767 26.2483 116.129 25.9844 115.465 25.9844H104.626C103.962 25.9844 103.325 26.2483 102.855 26.7181C102.385 27.1878 102.121 27.825 102.121 28.4894C102.121 29.1537 102.385 29.7909 102.855 30.2607C103.325 30.7305 103.962 30.9944 104.626 30.9944Z" fill="#037A80"/>
<path d="M104.625 19.5609C105.032 19.5607 105.432 19.4612 105.791 19.271L116.63 13.5549C117.218 13.2446 117.658 12.7136 117.854 12.0787C118.05 11.4438 117.986 10.757 117.676 10.1694C117.522 9.87851 117.313 9.62067 117.059 9.41068C116.806 9.20068 116.514 9.04262 116.199 8.94554C115.564 8.74947 114.878 8.81365 114.29 9.12395L103.454 14.8439C102.954 15.1021 102.556 15.5211 102.324 16.0333C102.092 16.5456 102.04 17.1211 102.175 17.6669C102.31 18.2127 102.626 18.697 103.071 19.0414C103.515 19.3858 104.063 19.5702 104.625 19.5649V19.5609Z" fill="#037A80"/>
<path d="M103.455 42.1339L114.293 47.8429C114.585 48.003 114.905 48.1035 115.236 48.1383C115.567 48.1732 115.902 48.1418 116.221 48.0461C116.539 47.9503 116.836 47.792 117.092 47.5804C117.349 47.3688 117.561 47.1082 117.716 46.8138C117.871 46.5194 117.966 46.197 117.995 45.8656C118.025 45.5341 117.987 45.2001 117.886 44.8832C117.785 44.5662 117.621 44.2726 117.405 44.0195C117.189 43.7664 116.925 43.5588 116.628 43.4089L105.79 37.6999C105.498 37.5397 105.178 37.4393 104.847 37.4044C104.516 37.3696 104.181 37.4009 103.863 37.4967C103.544 37.5925 103.248 37.7508 102.991 37.9624C102.734 38.1739 102.522 38.4345 102.367 38.7289C102.212 39.0234 102.117 39.3457 102.088 39.6772C102.059 40.0087 102.096 40.3426 102.197 40.6596C102.298 40.9765 102.462 41.2701 102.678 41.5233C102.894 41.7764 103.158 41.984 103.455 42.1339Z" fill="#037A80"/>
<path d="M66.257 98.2969C65.5926 98.2969 64.9554 98.5608 64.4857 99.0306C64.0159 99.5004 63.752 100.138 63.752 100.802V100.816C63.7557 101.309 63.9054 101.791 64.1821 102.199C64.4589 102.608 64.8503 102.925 65.3072 103.112C65.764 103.298 66.2658 103.345 66.7494 103.247C67.2329 103.149 67.6766 102.91 68.0246 102.56C68.3725 102.21 68.6091 101.765 68.7046 101.281C68.8001 100.797 68.7502 100.295 68.5612 99.8393C68.3722 99.3835 68.0526 98.9938 67.6425 98.7193C67.2325 98.4449 66.7504 98.2979 66.257 98.2969Z" fill="#037A80"/>
</g>
<defs>
<clipPath id="clip0_47_603">
<rect width="133" height="133" fill="white" transform="translate(0 0.5)"/>
</clipPath>
</defs>
</svg>
