<svg xmlns="http://www.w3.org/2000/svg" width="18" height="23" viewBox="0 0 18 23">
  <g id="password" transform="translate(-366 -330)">
    <path id="password-2" data-name="password" d="M9,0A6.162,6.162,0,0,0,2.7,5.963V8.412a8.488,8.488,0,0,0-2,2.777A8.1,8.1,0,0,0,0,14.481,8.784,8.784,0,0,0,9,23a8.784,8.784,0,0,0,9-8.519,8.1,8.1,0,0,0-.7-3.293,8.489,8.489,0,0,0-2-2.777V5.963A6.162,6.162,0,0,0,9,0ZM9,1.7a4.392,4.392,0,0,1,4.5,4.259V7.134a9.23,9.23,0,0,0-9,0V5.963A4.392,4.392,0,0,1,9,1.7ZM9,7.667a7,7,0,0,1,7.2,6.815A7,7,0,0,1,9,21.3a7,7,0,0,1-7.2-6.815A7,7,0,0,1,9,7.667Zm0,5.111a1.853,1.853,0,0,0-1.273.5,1.659,1.659,0,0,0-.527,1.2,1.676,1.676,0,0,0,.9,1.465v2.794H9.9V15.947a1.676,1.676,0,0,0,.9-1.465,1.659,1.659,0,0,0-.527-1.2A1.853,1.853,0,0,0,9,12.778Z" transform="translate(366 330)" fill="#c4c4c4"/>
  </g>
</svg>
