<svg width="58" height="28" viewBox="0 0 58 28" fill="none" xmlns="http://www.w3.org/2000/svg">
<path d="M55 0H3C1.34315 0 0 1.34315 0 3V25C0 26.6569 1.34315 28 3 28H55C56.6569 28 58 26.6569 58 25V3C58 1.34315 56.6569 0 55 0Z" fill="white"/>
<path d="M29.363 2C31.8082 2 34.1984 2.72508 36.2315 4.08354C38.2646 5.44201 39.8492 7.37284 40.7849 9.63188C41.7206 11.8909 41.9655 14.3767 41.4884 16.7749C41.0114 19.1731 39.834 21.376 38.105 23.105C36.376 24.834 34.1731 26.0114 31.7749 26.4884C29.3767 26.9655 26.8909 26.7206 24.6319 25.7849C22.3728 24.8492 20.442 23.2646 19.0835 21.2315C17.7251 19.1984 17 16.8082 17 14.363C17 11.0841 18.3025 7.93955 20.621 5.62104C22.9396 3.30253 26.0841 2 29.363 2Z" fill="#5F259F"/>
<path d="M34.7426 11.1361C34.739 10.8985 34.643 10.6717 34.475 10.5037C34.307 10.3357 34.0802 10.2397 33.8426 10.2361H32.1856L28.3856 5.88506C28.209 5.6849 27.9789 5.53939 27.7223 5.46568C27.4658 5.39198 27.1935 5.39315 26.9376 5.46906L25.6256 5.88307C25.5788 5.89885 25.5365 5.92577 25.5023 5.96153C25.4682 5.99728 25.4433 6.04079 25.4297 6.08831C25.4161 6.13583 25.4143 6.18595 25.4244 6.23433C25.4345 6.28272 25.4562 6.32793 25.4876 6.36607L29.6316 10.3031H23.3456C23.2996 10.3003 23.2535 10.3073 23.2104 10.3237C23.1672 10.34 23.1281 10.3654 23.0955 10.398C23.0629 10.4306 23.0376 10.4697 23.0212 10.5128C23.0048 10.5559 22.9978 10.602 23.0006 10.6481V11.3391C23.0042 11.5766 23.1002 11.8035 23.2682 11.9715C23.4362 12.1395 23.663 12.2354 23.9006 12.2391H24.8676V15.5541C24.8676 18.0401 26.1796 19.4911 28.3906 19.4911C29.0522 19.5111 29.7107 19.3936 30.3246 19.1461V21.3561C30.3227 21.5013 30.3499 21.6454 30.4044 21.78C30.459 21.9146 30.5398 22.0369 30.6423 22.1398C30.7447 22.2427 30.8667 22.3242 31.001 22.3793C31.1354 22.4345 31.2794 22.4623 31.4246 22.4611H32.3916C32.4989 22.4536 32.5999 22.4076 32.676 22.3315C32.7521 22.2554 32.7981 22.1544 32.8056 22.0471V12.1691H34.3946C34.4406 12.1718 34.4867 12.1648 34.5298 12.1485C34.5729 12.1321 34.6121 12.1068 34.6447 12.0742C34.6773 12.0416 34.7026 12.0024 34.719 11.9593C34.7353 11.9162 34.7424 11.8701 34.7396 11.8241L34.7426 11.1361ZM30.3226 17.0761C29.8875 17.2666 29.4164 17.3607 28.9416 17.3521C27.8416 17.3521 27.2836 16.8001 27.2836 15.5521V12.2371H30.3226V17.0761Z" fill="white"/>
</svg>
