<svg width="15" height="21" viewBox="0 0 15 21" fill="none" xmlns="http://www.w3.org/2000/svg">
<g clip-path="url(#clip0_47_619)">
<path d="M3.13307 2.38012C3.95807 2.62512 4.33307 2.17212 4.69107 1.50112C5.41607 0.142124 5.35207 0.359124 6.41307 1.02112C6.67986 1.22296 7.00615 1.33043 7.34067 1.32663C7.67518 1.32282 7.99895 1.20797 8.26108 1.00012C9.43907 0.260124 9.34908 0.359124 9.92008 1.45612C10.0431 1.77661 10.2718 2.04553 10.5683 2.21845C10.8649 2.39136 11.2116 2.45792 11.5511 2.40712C12.8831 2.34412 12.7831 2.22612 12.7291 3.55812C12.6801 3.90803 12.7511 4.26421 12.9305 4.56859C13.1099 4.87296 13.3872 5.10756 13.7171 5.23412C14.9311 5.85912 14.8041 5.82312 14.1521 6.82012C13.9211 7.10573 13.7973 7.46319 13.8022 7.8305C13.8071 8.19782 13.9405 8.55182 14.1791 8.83112C14.8131 9.76412 14.7951 9.86412 13.7981 10.3311C13.4379 10.4602 13.1337 10.7101 12.9371 11.0383C12.7406 11.3665 12.6639 11.7527 12.7201 12.1311C12.7651 13.3721 12.8381 13.3181 11.5781 13.2551C11.2306 13.1952 10.8732 13.2572 10.5662 13.4305C10.2591 13.6037 10.0214 13.8777 9.89307 14.2061C9.33108 15.3211 9.36708 15.3571 8.27108 14.6321C8.00895 14.4121 7.67851 14.29 7.3363 14.2867C6.99409 14.2834 6.66137 14.3992 6.39507 14.6141C5.26207 15.3571 5.32607 15.3211 4.71907 14.1521C4.59798 13.8469 4.37701 13.5918 4.09224 13.4283C3.80746 13.2649 3.47569 13.2027 3.15108 13.2521C1.78308 13.3151 1.88207 13.3971 1.92807 12.0831C1.9766 11.7276 1.9025 11.3661 1.71798 11.0583C1.53346 10.7505 1.24955 10.5149 0.913075 10.3901C-0.146925 9.87312 -0.164925 9.77412 0.487075 8.80012C0.713344 8.52249 0.836905 8.17529 0.836905 7.81712C0.836905 7.45896 0.713344 7.11176 0.487075 6.83412C-0.164925 5.82812 -0.291925 5.88312 0.922075 5.25712C1.26136 5.12715 1.54606 4.88518 1.72902 4.57128C1.91197 4.25738 1.9822 3.89039 1.92807 3.53112C1.85607 2.27212 1.78308 2.38912 3.04208 2.38912C3.07186 2.38204 3.10247 2.37901 3.13307 2.38012ZM13.6161 6.14012C13.1991 5.88612 12.8101 5.63312 12.4021 5.41512C12.251 5.34771 12.1255 5.23364 12.0439 5.08967C11.9624 4.94569 11.9292 4.77938 11.9491 4.61512C11.9671 4.15312 11.9581 3.69112 11.9581 3.20212C11.4331 3.20212 10.9791 3.19312 10.5261 3.20212C10.3602 3.21763 10.1936 3.18047 10.0499 3.09592C9.90634 3.01138 9.79302 2.88373 9.72608 2.73112C9.50908 2.32312 9.25508 1.93112 9.00108 1.52612C8.53008 1.78912 8.10107 2.01512 7.68707 2.25112C7.56895 2.33308 7.42788 2.37549 7.28415 2.37226C7.14041 2.36902 7.0014 2.32031 6.88707 2.23312C6.49707 1.98812 6.08707 1.77112 5.64607 1.51712C5.38307 1.95212 5.13008 2.34212 4.91208 2.74912C4.84466 2.89309 4.73466 3.01288 4.59694 3.09229C4.45923 3.1717 4.30045 3.2069 4.14208 3.19312C3.68008 3.18412 3.21808 3.19312 2.69208 3.19312C2.71574 3.7103 2.71174 4.22837 2.68008 4.74512C2.6382 4.9851 2.50931 5.20122 2.31808 5.35212C1.91808 5.64212 1.47508 5.86812 1.03108 6.14012C1.28508 6.59312 1.50208 7.01912 1.75608 7.42712C1.83781 7.5445 1.88162 7.6841 1.88162 7.82712C1.88162 7.97015 1.83781 8.10975 1.75608 8.22712C1.51108 8.63512 1.28507 9.06112 1.04007 9.50512C1.48407 9.76812 1.87407 10.0311 2.28108 10.2481C2.41894 10.306 2.53421 10.4071 2.60945 10.5363C2.68469 10.6655 2.7158 10.8157 2.69808 10.9641C2.67108 11.4351 2.68907 11.9151 2.68907 12.4501C3.14193 12.4702 3.59552 12.4672 4.04807 12.4411C4.24116 12.4117 4.4385 12.4497 4.60682 12.5488C4.77514 12.6479 4.90414 12.802 4.97207 12.9851C5.16207 13.3571 5.39808 13.7101 5.64208 14.1081C6.08608 13.8631 6.51207 13.6371 6.92007 13.4011C7.03653 13.3181 7.17563 13.2727 7.31866 13.2711C7.46169 13.2695 7.60178 13.3117 7.72007 13.3921C8.12807 13.6371 8.55408 13.8631 9.00708 14.1171C9.25208 13.7001 9.50707 13.3111 9.72307 12.9031C9.78782 12.75 9.90136 12.6225 10.046 12.5406C10.1907 12.4587 10.3584 12.4269 10.5231 12.4501C10.9851 12.4771 11.4471 12.4591 11.9551 12.4591C11.9551 11.9061 11.9731 11.4441 11.9461 10.9821C11.929 10.8404 11.9564 10.697 12.0245 10.5715C12.0926 10.4461 12.198 10.345 12.3261 10.2821C12.7431 10.0461 13.1511 9.78212 13.6041 9.51212C13.3681 9.08612 13.1601 8.66912 12.9151 8.27112C12.8244 8.14249 12.7758 7.98898 12.7758 7.83162C12.7758 7.67426 12.8244 7.52075 12.9151 7.39212C13.1541 6.98312 13.3721 6.57512 13.6161 6.14012Z" fill="#037A80"/>
<path d="M10.1287 19.2145C10.4445 18.8143 10.7803 18.4301 11.1347 18.0635C11.3156 17.9004 11.5521 17.8127 11.7957 17.8185C12.2667 17.8455 12.7377 17.9725 13.2907 18.0635C13.2367 17.8635 13.1997 17.7105 13.1457 17.5635C12.7927 16.5575 12.4297 15.5525 12.0677 14.5465C11.9677 14.2655 11.8777 13.9575 12.2677 13.8395C12.6117 13.7395 12.7297 14.0115 12.8297 14.2835C13.3097 15.6425 13.8087 17.0015 14.2797 18.3695C14.4607 18.8955 14.2977 19.0765 13.7357 18.9945C13.1843 18.9225 12.6369 18.8224 12.0957 18.6945C11.9824 18.6587 11.8604 18.6616 11.7489 18.7027C11.6374 18.7438 11.5427 18.8208 11.4797 18.9215C11.1267 19.3565 10.7727 19.7825 10.4017 20.2085C10.0307 20.6345 9.73069 20.5895 9.53169 20.0275C9.06969 18.7595 8.61669 17.4815 8.15469 16.2035C8.06369 15.9405 7.94669 15.6595 8.31769 15.5235C8.68869 15.3875 8.79769 15.6775 8.89769 15.9405C9.30069 16.9995 9.70069 18.0725 10.1287 19.2145Z" fill="#037A80"/>
<path d="M1.39357 18.0637C1.91957 17.9637 2.34457 17.8917 2.77057 17.8007C2.929 17.752 3.09903 17.7567 3.25457 17.8139C3.41011 17.8712 3.54255 17.9779 3.63157 18.1177C3.90357 18.4797 4.21157 18.8177 4.54657 19.2177C4.80057 18.5287 5.03557 17.9037 5.27157 17.2787C5.45257 16.7897 5.64357 16.2907 5.83357 15.8017C5.92457 15.5567 6.08757 15.4207 6.35957 15.5297C6.63157 15.6387 6.65957 15.8197 6.56757 16.0737C6.07857 17.4147 5.60757 18.7647 5.10857 20.1057C4.93657 20.5587 4.65557 20.6127 4.32957 20.2597C3.92157 19.8157 3.55957 19.3267 3.14257 18.8917C2.99789 18.7645 2.80889 18.6995 2.61657 18.7107C2.03657 18.7827 1.45657 18.9107 0.876574 19.0007C0.405574 19.0727 0.215574 18.8557 0.376574 18.4007C0.865574 17.0237 1.36457 15.6557 1.86257 14.2777C1.88257 14.2393 1.9006 14.2 1.91657 14.1597C2.01657 13.9057 2.19757 13.7067 2.46057 13.8697C2.53223 13.9411 2.58598 14.0284 2.61744 14.1245C2.64889 14.2206 2.65717 14.3228 2.64157 14.4227C2.35157 15.3377 2.01657 16.2437 1.69957 17.1497C1.60057 17.4297 1.51157 17.7107 1.39357 18.0637Z" fill="#037A80"/>
<path d="M7.3192 3.54883C7.88838 3.55209 8.45131 3.6678 8.97563 3.8893C9.49995 4.11081 9.97533 4.43374 10.3744 4.83955C10.7736 5.24536 11.0886 5.72604 11.3013 6.25397C11.5141 6.7819 11.6204 7.34667 11.6142 7.91583C11.5686 9.02535 11.1018 10.0758 10.3089 10.8531C9.5159 11.6305 8.45641 12.0763 7.3462 12.0998C6.20445 12.0941 5.11108 11.6381 4.30354 10.8309C3.496 10.0237 3.03951 8.93058 3.0332 7.78883C3.05276 6.66247 3.51203 5.58842 4.31289 4.79615C5.11376 4.00389 6.1927 3.55623 7.3192 3.54883ZM7.3282 11.2688C7.78605 11.2785 8.24112 11.1954 8.66595 11.0244C9.09078 10.8534 9.47655 10.5981 9.8 10.2739C10.1234 9.94972 10.3779 9.56336 10.5479 9.13813C10.7179 8.71291 10.8 8.25765 10.7892 7.79983C10.8001 7.32946 10.7123 6.86203 10.5315 6.42767C10.3506 5.99331 10.0808 5.60164 9.7394 5.27793C9.39797 4.95421 8.99251 4.70562 8.54914 4.54818C8.10577 4.39074 7.63433 4.32794 7.1652 4.36383C6.2806 4.39081 5.44111 4.76056 4.82404 5.39497C4.20697 6.02939 3.86065 6.87881 3.8582 7.76383C3.84255 8.22537 3.92133 8.68524 4.08972 9.11525C4.2581 9.54527 4.51255 9.93635 4.83745 10.2645C5.16236 10.5927 5.55087 10.8511 5.97917 11.0238C6.40747 11.1965 6.86653 11.2799 7.3282 11.2688Z" fill="#037A80"/>
</g>
<defs>
<clipPath id="clip0_47_619">
<rect width="14.638" height="20" fill="white" transform="translate(0 0.5)"/>
</clipPath>
</defs>
</svg>
