<svg id="popular" xmlns="http://www.w3.org/2000/svg" width="14.638" height="20" viewBox="0 0 14.638 20">
  <path id="Path_15129" data-name="Path 15129" d="M3.133,1.88c.825.245,1.2-.208,1.558-.879.725-1.359.661-1.142,1.722-.48A1.509,1.509,0,0,0,8.261.5C9.439-.24,9.349-.141,9.92.956a1.508,1.508,0,0,0,1.631.951c1.332-.063,1.232-.181,1.178,1.151a1.563,1.563,0,0,0,.988,1.676c1.214.625,1.087.589.435,1.586a1.573,1.573,0,0,0,.027,2.011c.634.933.616,1.033-.381,1.5a1.654,1.654,0,0,0-1.078,1.8c.045,1.241.118,1.187-1.142,1.124a1.53,1.53,0,0,0-1.685.951c-.562,1.115-.526,1.151-1.622.426a1.476,1.476,0,0,0-1.876-.018c-1.133.743-1.069.707-1.676-.462a1.452,1.452,0,0,0-1.568-.9c-1.368.063-1.269.145-1.223-1.169A1.578,1.578,0,0,0,.913,9.89C-.147,9.373-.165,9.274.487,8.3a1.556,1.556,0,0,0,0-1.966c-.652-1.006-.779-.951.435-1.577A1.594,1.594,0,0,0,1.928,3.031c-.072-1.259-.145-1.142,1.114-1.142A.34.34,0,0,1,3.133,1.88ZM13.616,5.64c-.417-.254-.806-.507-1.214-.725a.774.774,0,0,1-.453-.8c.018-.462.009-.924.009-1.413-.525,0-.979-.009-1.432,0a.793.793,0,0,1-.8-.471c-.217-.408-.471-.8-.725-1.205-.471.263-.9.489-1.314.725a.68.68,0,0,1-.8-.018c-.39-.245-.8-.462-1.241-.716-.263.435-.516.825-.734,1.232a.776.776,0,0,1-.77.444c-.462-.009-.924,0-1.45,0A14.522,14.522,0,0,1,2.68,4.245a.99.99,0,0,1-.362.607c-.4.29-.843.516-1.287.788.254.453.471.879.725,1.287a.7.7,0,0,1,0,.8c-.245.408-.471.834-.716,1.278.444.263.834.526,1.241.743a.688.688,0,0,1,.417.716c-.027.471-.009.951-.009,1.486a13.367,13.367,0,0,0,1.359-.009.849.849,0,0,1,.924.544c.19.372.426.725.67,1.123.444-.245.87-.471,1.278-.707a.7.7,0,0,1,.8-.009c.408.245.834.471,1.287.725.245-.417.5-.806.716-1.214a.754.754,0,0,1,.8-.453c.462.027.924.009,1.432.009,0-.553.018-1.015-.009-1.477a.688.688,0,0,1,.38-.7c.417-.236.825-.5,1.278-.77-.236-.426-.444-.843-.689-1.241a.763.763,0,0,1,0-.879C13.154,6.483,13.372,6.075,13.616,5.64Z" fill="#7d7d7d"/>
  <path id="Path_15130" data-name="Path 15130" d="M10.128,18.715a15.223,15.223,0,0,1,1.006-1.151.953.953,0,0,1,.661-.245c.471.027.942.154,1.495.245-.054-.2-.091-.353-.145-.5-.353-1.006-.716-2.011-1.078-3.017-.1-.281-.19-.589.2-.707.344-.1.462.172.562.444.48,1.359.979,2.718,1.45,4.086.181.526.018.707-.544.625a16.325,16.325,0,0,1-1.64-.3.536.536,0,0,0-.616.227c-.353.435-.707.861-1.078,1.287s-.671.381-.87-.181c-.462-1.268-.915-2.546-1.377-3.824-.091-.263-.208-.544.163-.68s.48.154.58.417C9.3,16.5,9.7,17.573,10.128,18.715Z" fill="#7d7d7d"/>
  <path id="Path_15131" data-name="Path 15131" d="M1.393,17.564c.526-.1.951-.172,1.377-.263a.757.757,0,0,1,.861.317c.272.362.58.7.915,1.1.254-.689.489-1.314.725-1.939.181-.489.372-.988.562-1.477.091-.245.254-.381.526-.272s.3.29.208.544c-.489,1.341-.96,2.691-1.459,4.032-.172.453-.453.507-.779.154-.408-.444-.77-.933-1.187-1.368a.732.732,0,0,0-.526-.181c-.58.072-1.16.2-1.74.29-.471.072-.661-.145-.5-.6.489-1.377.988-2.745,1.486-4.123a1.269,1.269,0,0,0,.054-.118c.1-.254.281-.453.544-.29a.641.641,0,0,1,.181.553c-.29.915-.625,1.821-.942,2.727C1.6,16.93,1.511,17.211,1.393,17.564Z" fill="#7d7d7d"/>
  <path id="Path_15132" data-name="Path 15132" d="M7.319,3.049a4.32,4.32,0,0,1,4.295,4.367A4.364,4.364,0,0,1,7.346,11.6,4.335,4.335,0,0,1,3.033,7.289,4.315,4.315,0,0,1,7.319,3.049Zm.009,7.72A3.39,3.39,0,0,0,10.789,7.3,3.368,3.368,0,0,0,7.165,3.864a3.411,3.411,0,0,0-3.307,3.4A3.391,3.391,0,0,0,7.328,10.769Z" fill="#7d7d7d"/>
</svg>
