<svg width="85" height="86" viewBox="0 0 85 86" fill="none" xmlns="http://www.w3.org/2000/svg">
<g clip-path="url(#clip0_47_775)">
<path d="M62.5363 39.295H62.9953C63.7886 39.309 64.5749 39.359 65.3543 39.445V10.529C65.3511 7.87029 64.2936 5.32137 62.4137 3.44129C60.5338 1.5612 57.985 0.50344 55.3262 0.5L11.8112 0.5C9.15219 0.502911 6.60287 1.56044 4.72254 3.44058C2.84221 5.32072 1.78443 7.86995 1.78125 10.529L1.78125 68.215C1.78416 70.8741 2.84169 73.4234 4.72183 75.3037C6.60197 77.184 9.1512 78.2418 11.8103 78.245H40.8633C38.4712 74.3817 37.1541 69.9496 37.0482 65.4069C36.9422 60.8642 38.0512 56.3756 40.2606 52.4049C42.47 48.4343 45.6996 45.1256 49.6157 42.8209C53.5318 40.5161 57.9923 39.2989 62.5363 39.295ZM37.7492 16.875H52.6123C53.2726 16.875 53.906 17.1373 54.3729 17.6043C54.8399 18.0713 55.1022 18.7046 55.1022 19.365C55.1022 20.0254 54.8399 20.6587 54.3729 21.1257C53.906 21.5927 53.2726 21.855 52.6123 21.855H37.7492C37.0889 21.855 36.4555 21.5927 35.9886 21.1257C35.5216 20.6587 35.2593 20.0254 35.2593 19.365C35.2593 18.7046 35.5216 18.0713 35.9886 17.6043C36.4555 17.1373 37.0889 16.875 37.7492 16.875ZM37.7492 26.837H52.6123C53.2726 26.837 53.906 27.0993 54.3729 27.5663C54.8399 28.0333 55.1022 28.6666 55.1022 29.327C55.1022 29.9874 54.8399 30.6207 54.3729 31.0877C53.906 31.5547 53.2726 31.817 52.6123 31.817H37.7492C37.0889 31.817 36.4555 31.5547 35.9886 31.0877C35.5216 30.6207 35.2593 29.9874 35.2593 29.327C35.2593 28.6666 35.5216 28.0333 35.9886 27.5663C36.4555 27.0993 37.0889 26.837 37.7492 26.837ZM29.3813 61.869H14.5243C13.8639 61.869 13.2305 61.6067 12.7636 61.1397C12.2966 60.6727 12.0343 60.0394 12.0343 59.379C12.0343 58.7186 12.2966 58.0853 12.7636 57.6183C13.2305 57.1513 13.8639 56.889 14.5243 56.889H29.3813C30.0416 56.889 30.675 57.1513 31.1419 57.6183C31.6089 58.0853 31.8713 58.7186 31.8713 59.379C31.8713 60.0394 31.6089 60.6727 31.1419 61.1397C30.675 61.6067 30.0416 61.869 29.3813 61.869ZM29.3813 51.741H14.5243C13.8639 51.741 13.2305 51.4787 12.7636 51.0117C12.2966 50.5447 12.0343 49.9114 12.0343 49.251C12.0343 48.5906 12.2966 47.9573 12.7636 47.4903C13.2305 47.0233 13.8639 46.761 14.5243 46.761H29.3813C30.0416 46.761 30.675 47.0233 31.1419 47.4903C31.6089 47.9573 31.8713 48.5906 31.8713 49.251C31.8713 49.9114 31.6089 50.5447 31.1419 51.0117C30.675 51.4787 30.0416 51.741 29.3813 51.741ZM29.3813 41.779H14.5243C13.8639 41.779 13.2305 41.5167 12.7636 41.0497C12.2966 40.5827 12.0343 39.9494 12.0343 39.289C12.0343 38.6286 12.2966 37.9953 12.7636 37.5283C13.2305 37.0613 13.8639 36.799 14.5243 36.799H29.3813C30.0416 36.799 30.675 37.0613 31.1419 37.5283C31.6089 37.9953 31.8713 38.6286 31.8713 39.289C31.8713 39.9494 31.6089 40.5827 31.1419 41.0497C30.675 41.5167 30.0416 41.779 29.3813 41.779ZM29.3813 31.817H14.5243C13.8639 31.817 13.2305 31.5547 12.7636 31.0877C12.2966 30.6207 12.0343 29.9874 12.0343 29.327C12.0343 28.6666 12.2966 28.0333 12.7636 27.5663C13.2305 27.0993 13.8639 26.837 14.5243 26.837H29.3813C30.0416 26.837 30.675 27.0993 31.1419 27.5663C31.6089 28.0333 31.8713 28.6666 31.8713 29.327C31.8713 29.9874 31.6089 30.6207 31.1419 31.0877C30.675 31.5547 30.0416 31.817 29.3813 31.817ZM29.3813 21.855H14.5243C13.8639 21.855 13.2305 21.5927 12.7636 21.1257C12.2966 20.6587 12.0343 20.0254 12.0343 19.365C12.0343 18.7046 12.2966 18.0713 12.7636 17.6043C13.2305 17.1373 13.8639 16.875 14.5243 16.875H29.3813C30.0416 16.875 30.675 17.1373 31.1419 17.6043C31.6089 18.0713 31.8713 18.7046 31.8713 19.365C31.8713 20.0254 31.6089 20.6587 31.1419 21.1257C30.675 21.5927 30.0416 21.855 29.3813 21.855ZM35.2542 39.288C35.2542 38.6276 35.5166 37.9943 35.9836 37.5273C36.4505 37.0603 37.0839 36.798 37.7443 36.798H44.9022C45.2292 36.798 45.553 36.8624 45.8551 36.9875C46.1572 37.1127 46.4317 37.2961 46.6629 37.5273C46.8942 37.7585 47.0776 38.033 47.2027 38.3351C47.3278 38.6372 47.3923 38.961 47.3923 39.288C47.3923 39.615 47.3278 39.9388 47.2027 40.2409C47.0776 40.543 46.8942 40.8175 46.6629 41.0487C46.4317 41.2799 46.1572 41.4633 45.8551 41.5885C45.553 41.7136 45.2292 41.778 44.9022 41.778H37.7492C37.0889 41.778 36.4555 41.5157 35.9886 41.0487C35.5216 40.5817 35.2593 39.9484 35.2593 39.288H35.2542Z" fill="#037A80"/>
<path d="M77.2821 50.2943C73.4933 46.419 68.327 44.1974 62.9081 44.1133H62.531C57.7515 44.1112 53.1187 45.7639 49.4197 48.7907C45.7207 51.8174 43.1837 56.0314 42.2397 60.7167C41.2956 65.4021 42.0029 70.2698 44.2412 74.4928C46.4795 78.7158 50.1109 82.0336 54.5183 83.8825C58.9257 85.7314 63.8373 85.9974 68.4186 84.6353C72.9999 83.2731 76.9683 80.3669 79.6496 76.4103C82.3309 72.4538 83.5597 67.691 83.1272 62.9311C82.6947 58.1712 80.6276 53.7078 77.2771 50.2993L77.2821 50.2943ZM71.3681 61.4393L63.4681 71.2843C63.0683 71.7822 62.4924 72.1074 61.8596 72.1926C61.2267 72.2779 60.5854 72.1166 60.0681 71.7423L54.1781 67.4743C53.6433 67.0868 53.2843 66.5027 53.1801 65.8506C53.0759 65.1984 53.2351 64.5316 53.6226 63.9968C54.01 63.462 54.5941 63.103 55.2463 62.9988C55.8984 62.8947 56.5652 63.0538 57.1 63.4413L61.0711 66.3183L67.4851 58.3183C67.6897 58.0633 67.9426 57.8511 68.2293 57.6938C68.516 57.5365 68.8308 57.4372 69.1559 57.4016C69.4809 57.3659 69.8098 57.3947 70.1238 57.4862C70.4377 57.5777 70.7305 57.7301 70.9855 57.9348C71.2406 58.1395 71.4528 58.3923 71.6101 58.679C71.7674 58.9657 71.8667 59.2806 71.9023 59.6056C71.9379 59.9307 71.9091 60.2596 71.8176 60.5735C71.7261 60.8874 71.5737 61.1803 71.3691 61.4353L71.3681 61.4393Z" fill="#037A80"/>
</g>
<defs>
<clipPath id="clip0_47_775">
<rect width="85" height="85" fill="white" transform="translate(0 0.5)"/>
</clipPath>
</defs>
</svg>
