<svg width="85" height="86" viewBox="0 0 85 86" fill="none" xmlns="http://www.w3.org/2000/svg">
<g clip-path="url(#clip0_47_647)">
<path d="M22.4454 35.4659C29.5522 45.5346 38.3207 54.3203 48.3754 61.4469C49.1544 60.3399 49.8924 59.3039 50.6184 58.2589C54.0264 53.3529 59.0594 52.4589 63.9654 55.8929C67.4194 58.3102 70.8724 60.7289 74.3244 63.1489C78.4844 66.0819 79.6244 70.3579 77.3894 74.9249C74.6714 80.4839 69.9894 83.1709 64.0124 83.7729C57.2804 84.4509 50.9394 82.7659 44.9664 79.9049C26.867 71.4656 12.3352 56.8974 3.9414 38.7769C1.10314 33.1788 -0.232131 26.9393 0.0664025 20.6699C0.523403 13.9279 3.43242 8.72889 9.88842 5.99789C11.6699 5.21523 13.6654 5.06508 15.5439 5.57236C17.4224 6.07964 19.0711 7.21387 20.2164 8.7869C23.1104 12.7589 25.9334 16.7869 28.6384 20.8869C29.8366 22.7243 30.2902 24.9491 29.907 27.1089C29.5238 29.2688 28.3326 31.2017 26.5754 32.5149C25.2694 33.5189 23.8954 34.4339 22.4454 35.4659Z" fill="#037A80"/>
<path d="M62.1573 2.07772H82.3833C84.5043 2.07772 84.9943 2.56171 84.9953 4.64571V27.8817C84.9953 29.7817 84.4953 30.2817 82.5863 30.2817C75.0383 30.2817 67.4863 30.2977 59.9413 30.2617C59.6056 30.2191 59.2657 30.295 58.98 30.4763C58.6943 30.6576 58.4807 30.9329 58.3763 31.2547C57.2373 33.7957 56.0193 36.2997 54.8573 38.8307C54.4953 39.6187 54.0223 40.2417 53.0943 40.2587C52.1103 40.2767 51.6213 39.6287 51.2423 38.8007C50.0823 36.2687 48.8663 33.7637 47.7173 31.2277C47.6276 30.9177 47.4301 30.65 47.1604 30.4729C46.8906 30.2957 46.5664 30.2208 46.2463 30.2617C44.6003 30.3317 42.9463 30.2967 41.3013 30.2777C39.9083 30.2607 39.2513 29.6477 39.2483 28.2707C39.2323 20.232 39.2323 12.193 39.2483 4.15371C39.2483 2.68071 39.9603 2.07972 41.6023 2.07772C48.4563 2.07305 55.308 2.07305 62.1573 2.07772ZM62.1333 14.4157C66.1643 14.4157 70.1954 14.4287 74.2264 14.4077C74.4657 14.4285 74.7068 14.3993 74.9342 14.3218C75.1617 14.2444 75.3705 14.1203 75.5473 13.9577C75.7241 13.7951 75.8651 13.5976 75.9613 13.3776C76.0576 13.1575 76.107 12.9199 76.1064 12.6797C76.0919 12.216 75.9018 11.775 75.5744 11.4462C75.2471 11.1174 74.807 10.9252 74.3434 10.9087C74.1608 10.8933 73.9775 10.8882 73.7943 10.8937C66.025 10.8937 58.256 10.8957 50.4873 10.8997C50.0854 10.8859 49.6842 10.9417 49.3013 11.0647C48.9281 11.1827 48.6111 11.4333 48.4102 11.7692C48.2093 12.1052 48.1386 12.5031 48.2113 12.8877C48.2329 13.2588 48.3839 13.6105 48.638 13.8816C48.8922 14.1528 49.2335 14.3262 49.6023 14.3717C49.9669 14.4198 50.335 14.4349 50.7023 14.4167C54.5143 14.4167 58.326 14.4167 62.1374 14.4167L62.1333 14.4157ZM62.1454 21.4717H73.6893C75.2893 21.4717 76.1133 20.8657 76.1073 19.7217C76.1013 18.5777 75.2344 17.9587 73.6744 17.9467H73.4543C65.905 17.9467 58.3556 17.949 50.8063 17.9537C50.2955 17.9296 49.7842 17.9887 49.2923 18.1287C48.9171 18.2436 48.5984 18.4947 48.3988 18.8325C48.1991 19.1704 48.133 19.5706 48.2134 19.9547C48.2373 20.3254 48.3905 20.676 48.6463 20.9453C48.9022 21.2146 49.2443 21.3857 49.6133 21.4287C49.978 21.475 50.3461 21.4893 50.7134 21.4717C54.526 21.4717 58.338 21.4717 62.1493 21.4717H62.1454Z" fill="#037A80"/>
</g>
<defs>
<clipPath id="clip0_47_647">
<rect width="85" height="85" fill="white" transform="translate(0 0.5)"/>
</clipPath>
</defs>
</svg>
