<svg width="85" height="86" viewBox="0 0 85 86" fill="none" xmlns="http://www.w3.org/2000/svg">
<g clip-path="url(#clip0_47_781)">
<path d="M10.1206 6.23438C9.67324 6.23517 9.24446 6.4133 8.92823 6.72972C8.612 7.04614 8.43412 7.47502 8.43359 7.92237V74.7714C9.13259 74.4163 9.92595 74.2914 10.7002 74.4144C11.4745 74.5374 12.1901 74.9021 12.7446 75.4564L15.9896 78.7014L21.5536 74.9924C22.1633 74.5856 22.8797 74.3686 23.6126 74.3686C24.3455 74.3686 25.0619 74.5856 25.6716 74.9924L31.7076 79.0164L37.7436 74.9904C38.3536 74.585 39.0697 74.3687 39.8021 74.3687C40.5345 74.3687 41.2506 74.585 41.8606 74.9904L47.4256 78.7024L50.6706 75.4554C51.2255 74.9017 51.9412 74.5376 52.7154 74.4149C53.4896 74.2923 54.2827 74.4174 54.9816 74.7724V7.92138C54.9799 7.35555 55.0308 6.79079 55.1336 6.23438H10.1206ZM14.8426 64.5874C14.8426 65.1242 14.6294 65.639 14.2498 66.0186C13.8702 66.3981 13.3554 66.6114 12.8186 66.6114C12.2818 66.6114 11.767 66.3981 11.3874 66.0186C11.0078 65.639 10.7946 65.1242 10.7946 64.5874V53.7934C10.7946 53.2566 11.0078 52.7418 11.3874 52.3622C11.767 51.9826 12.2818 51.7694 12.8186 51.7694C13.3554 51.7694 13.8702 51.9826 14.2498 52.3622C14.6294 52.7418 14.8426 53.2566 14.8426 53.7934V64.5874ZM20.2426 64.5874C20.2426 65.1242 20.0294 65.639 19.6498 66.0186C19.2702 66.3981 18.7554 66.6114 18.2186 66.6114C17.6818 66.6114 17.167 66.3981 16.7874 66.0186C16.4078 65.639 16.1946 65.1242 16.1946 64.5874V53.7934C16.1946 53.2566 16.4078 52.7418 16.7874 52.3622C17.167 51.9826 17.6818 51.7694 18.2186 51.7694C18.7554 51.7694 19.2702 51.9826 19.6498 52.3622C20.0294 52.7418 20.2426 53.2566 20.2426 53.7934V64.5874ZM28.3426 64.5874C28.3426 65.1242 28.1294 65.639 27.7498 66.0186C27.3702 66.3981 26.8554 66.6114 26.3186 66.6114C25.7818 66.6114 25.267 66.3981 24.8874 66.0186C24.5078 65.639 24.2946 65.1242 24.2946 64.5874V53.7934C24.2946 53.2566 24.5078 52.7418 24.8874 52.3622C25.267 51.9826 25.7818 51.7694 26.3186 51.7694C26.8554 51.7694 27.3702 51.9826 27.7498 52.3622C28.1294 52.7418 28.3426 53.2566 28.3426 53.7934V64.5874ZM33.7426 64.5874C33.7426 65.1242 33.5294 65.639 33.1498 66.0186C32.7702 66.3981 32.2554 66.6114 31.7186 66.6114C31.1818 66.6114 30.667 66.3981 30.2874 66.0186C29.9078 65.639 29.6946 65.1242 29.6946 64.5874V53.7934C29.6946 53.2566 29.9078 52.7418 30.2874 52.3622C30.667 51.9826 31.1818 51.7694 31.7186 51.7694C32.2554 51.7694 32.7702 51.9826 33.1498 52.3622C33.5294 52.7418 33.7426 53.2566 33.7426 53.7934V64.5874ZM39.1426 64.5874C39.1426 65.1242 38.9293 65.639 38.5498 66.0186C38.1702 66.3981 37.6554 66.6114 37.1186 66.6114C36.5818 66.6114 36.067 66.3981 35.6874 66.0186C35.3078 65.639 35.0946 65.1242 35.0946 64.5874V53.7934C35.0946 53.2566 35.3078 52.7418 35.6874 52.3622C36.067 51.9826 36.5818 51.7694 37.1186 51.7694C37.6554 51.7694 38.1702 51.9826 38.5498 52.3622C38.9293 52.7418 39.1426 53.2566 39.1426 53.7934V64.5874ZM29.0236 24.7874H34.4236C35.3981 24.7874 36.3631 24.9793 37.2635 25.3523C38.1638 25.7252 38.9819 26.2718 39.671 26.9609C40.3601 27.65 40.9068 28.4681 41.2797 29.3685C41.6526 30.2688 41.8446 31.2338 41.8446 32.2084C41.8446 33.1829 41.6526 34.1479 41.2797 35.0483C40.9068 35.9486 40.3601 36.7667 39.671 37.4558C38.9819 38.1449 38.1638 38.6915 37.2635 39.0645C36.3631 39.4374 35.3981 39.6294 34.4236 39.6294H33.7336V43.0024C33.7336 43.5392 33.5204 44.054 33.1408 44.4336C32.7612 44.8131 32.2464 45.0264 31.7096 45.0264C31.1728 45.0264 30.658 44.8131 30.2784 44.4336C29.8988 44.054 29.6856 43.5392 29.6856 43.0024V39.6274H27.6596C26.05 39.6255 24.5069 38.9853 23.3688 37.8472C22.2307 36.709 21.5904 35.1659 21.5886 33.5564C21.5886 33.0196 21.8018 32.5048 22.1814 32.1252C22.561 31.7456 23.0758 31.5324 23.6126 31.5324C24.1494 31.5324 24.6642 31.7456 25.0438 32.1252C25.4234 32.5048 25.6366 33.0196 25.6366 33.5564C25.6377 34.0928 25.8512 34.607 26.2306 34.9864C26.6099 35.3657 27.1241 35.5793 27.6606 35.5804H34.4066C35.3012 35.5804 36.1591 35.225 36.7917 34.5924C37.4242 33.9599 37.7796 33.1019 37.7796 32.2074C37.7796 31.3128 37.4242 30.4549 36.7917 29.8223C36.1591 29.1897 35.3012 28.8344 34.4066 28.8344H29.0066C28.0249 28.8458 27.0506 28.6623 26.1404 28.2944C25.2301 27.9266 24.4018 27.3819 23.7036 26.6917C23.0053 26.0015 22.451 25.1796 22.0726 24.2737C21.6943 23.3677 21.4995 22.3957 21.4995 21.4139C21.4995 20.4321 21.6943 19.4601 22.0726 18.5541C22.451 17.6481 23.0053 16.8263 23.7036 16.1361C24.4018 15.4459 25.2301 14.9011 26.1404 14.5333C27.0506 14.1655 28.0249 13.982 29.0066 13.9934H29.6816V10.6194C29.6816 10.0826 29.8948 9.56776 30.2744 9.18819C30.654 8.80862 31.1688 8.59538 31.7056 8.59538C32.2424 8.59538 32.7572 8.80862 33.1368 9.18819C33.5164 9.56776 33.7296 10.0826 33.7296 10.6194V13.9924H35.7536C37.3632 13.9942 38.9063 14.6344 40.0444 15.7726C41.1825 16.9107 41.8227 18.4538 41.8246 20.0634C41.8246 20.6002 41.6114 21.115 41.2318 21.4946C40.8522 21.8741 40.3374 22.0874 39.8006 22.0874C39.2638 22.0874 38.749 21.8741 38.3694 21.4946C37.9898 21.115 37.7766 20.6002 37.7766 20.0634C37.7769 19.526 37.5639 19.0106 37.1844 18.6301C36.8049 18.2497 36.2899 18.0354 35.7526 18.0344H29.0086C28.114 18.0344 27.2561 18.3897 26.6235 19.0223C25.991 19.6549 25.6356 20.5128 25.6356 21.4074C25.6356 22.302 25.991 23.1599 26.6235 23.7924C27.2561 24.425 28.114 24.7804 29.0086 24.7804L29.0236 24.7874ZM47.2376 64.5874C47.2376 65.1242 47.0243 65.639 46.6448 66.0186C46.2652 66.3981 45.7504 66.6114 45.2136 66.6114C44.6768 66.6114 44.162 66.3981 43.7824 66.0186C43.4028 65.639 43.1896 65.1242 43.1896 64.5874V53.7934C43.1896 53.2566 43.4028 52.7418 43.7824 52.3622C44.162 51.9826 44.6768 51.7694 45.2136 51.7694C45.7504 51.7694 46.2652 51.9826 46.6448 52.3622C47.0243 52.7418 47.2376 53.2566 47.2376 53.7934V64.5874ZM52.6376 64.5874C52.6376 65.1242 52.4244 65.639 52.0448 66.0186C51.6652 66.3981 51.1504 66.6114 50.6136 66.6114C50.0768 66.6114 49.562 66.3981 49.1824 66.0186C48.8028 65.639 48.5896 65.1242 48.5896 64.5874V53.7934C48.5896 53.2566 48.8028 52.7418 49.1824 52.3622C49.562 51.9826 50.0768 51.7694 50.6136 51.7694C51.1504 51.7694 51.6652 51.9826 52.0448 52.3622C52.4244 52.7418 52.6376 53.2566 52.6376 53.7934V64.5874Z" fill="#037A80"/>
<path d="M80.2792 11.294H71.5052V7.921C71.5031 5.95417 70.7211 4.06844 69.3307 2.67731C67.9403 1.28618 66.0551 0.503176 64.0882 0.5H10.1202C8.15262 0.501853 6.26613 1.2843 4.87483 2.67561C3.48352 4.06691 2.70107 5.9534 2.69922 7.921V83.476C2.70531 83.8736 2.82768 84.2608 3.05121 84.5897C3.27475 84.9187 3.58968 85.175 3.95716 85.327C4.32464 85.4791 4.72859 85.5202 5.11919 85.4454C5.50979 85.3706 5.86994 85.1831 6.15522 84.906L10.0172 81.044L10.1172 80.944L10.2172 81.044L14.0792 84.908C14.4105 85.2385 14.8459 85.4442 15.3116 85.4903C15.7773 85.5364 16.2445 85.4201 16.6342 85.161L22.8052 81.044L23.6052 80.511L24.4052 81.044L30.5782 85.159C30.9108 85.3808 31.3015 85.4991 31.7012 85.4991C32.1009 85.4991 32.4917 85.3808 32.8242 85.159L39.0052 81.044L39.8052 80.511L40.6052 81.044L46.7782 85.159C47.1673 85.4188 47.6344 85.5357 48.1 85.4895C48.5656 85.4434 49.0007 85.2372 49.3312 84.906L53.1952 81.044L53.2952 80.944L53.3952 81.044L57.2592 84.908C57.5447 85.1845 57.9049 85.3715 58.2953 85.4459C58.6858 85.5202 59.0894 85.4788 59.4566 85.3265C59.8238 85.1743 60.1384 84.918 60.3616 84.5892C60.5849 84.2604 60.7071 83.8734 60.7132 83.476V47.722H74.8802C76.8486 47.7209 78.7361 46.9387 80.1283 45.5472C81.5204 44.1556 82.3034 42.2684 82.3052 40.3V13.317C82.3052 13.0511 82.2528 12.7878 82.1509 12.5421C82.0491 12.2965 81.8998 12.0734 81.7116 11.8855C81.5235 11.6976 81.3001 11.5486 81.0543 11.4471C80.8085 11.3456 80.5451 11.2936 80.2792 11.294ZM51.8632 76.647L47.6402 80.872L40.9262 76.394C40.5934 76.173 40.2027 76.0551 39.8032 76.0551C39.4037 76.0551 39.013 76.173 38.6802 76.394L31.7052 81.044L24.7352 76.4C24.4027 76.1782 24.0119 76.0599 23.6122 76.0599C23.2125 76.0599 22.8218 76.1782 22.4892 76.4L15.7752 80.872L11.5522 76.649C11.3642 76.4609 11.1409 76.3117 10.8952 76.21C10.6495 76.1082 10.3862 76.0558 10.1202 76.0558C9.85427 76.0558 9.59092 76.1082 9.34521 76.21C9.09951 76.3117 8.87626 76.4609 8.68822 76.649L6.74722 78.59V7.921C6.74801 7.02667 7.10364 6.16919 7.73603 5.53681C8.36841 4.90442 9.22589 4.54879 10.1202 4.548H57.4792C56.9447 5.59191 56.6667 6.74819 56.6682 7.921V78.59L54.7252 76.647C54.3454 76.268 53.8308 76.0552 53.2942 76.0552C52.7577 76.0552 52.243 76.268 51.8632 76.647ZM60.7152 43.674V7.921C60.7152 7.02642 61.0706 6.16849 61.7032 5.53593C62.3357 4.90337 63.1936 4.548 64.0882 4.548C64.9828 4.548 65.8407 4.90337 66.4733 5.53593C67.1059 6.16849 67.4612 7.02642 67.4612 7.921V40.3C67.4597 41.4728 67.7377 42.6291 68.2722 43.673L60.7152 43.674ZM78.2552 40.3C78.2552 41.1946 77.8998 42.0525 77.2673 42.6851C76.6347 43.3176 75.7768 43.673 74.8822 43.673C73.9876 43.673 73.1297 43.3176 72.4971 42.6851C71.8646 42.0525 71.5092 41.1946 71.5092 40.3V15.341H78.2552V40.3Z" fill="#037A80"/>
</g>
<defs>
<clipPath id="clip0_47_781">
<rect width="85" height="85" fill="white" transform="translate(0 0.5)"/>
</clipPath>
</defs>
</svg>
