<svg width="85" height="86" viewBox="0 0 85 86" fill="none" xmlns="http://www.w3.org/2000/svg">
<g clip-path="url(#clip0_47_675)">
<path d="M61.8779 85.4992C61.305 85.4999 60.7473 85.3154 60.2879 84.9732C58.0819 83.3332 38.7559 68.6032 38.7559 56.1132C38.7675 53.4371 39.5829 50.8263 41.0962 48.6191C42.6096 46.412 44.7511 44.7105 47.2431 43.7351C49.7352 42.7597 52.4627 42.5555 55.0722 43.1489C57.6817 43.7423 60.0527 45.106 61.8779 47.0632C63.703 45.106 66.074 43.7423 68.6835 43.1489C71.293 42.5555 74.0206 42.7597 76.5126 43.7351C79.0046 44.7105 81.1461 46.412 82.6595 48.6191C84.1728 50.8263 84.9882 53.4371 84.9999 56.1132C84.9999 68.6062 65.6739 83.3362 63.4679 84.9762C63.008 85.3173 62.4504 85.5007 61.8779 85.4992Z" fill="#037A80"/>
<path d="M32.8335 0.570312L15.5455 0.641313C14.4409 0.644676 13.3573 0.943088 12.4067 1.50568C11.456 2.06828 10.673 2.87462 10.1385 3.84131L1.10352 20.2063L31.0905 20.1353L32.8335 0.570312Z" fill="#037A80"/>
<path d="M69.7519 20.064L60.6099 3.7C60.0682 2.73165 59.2785 1.9249 58.322 1.36255C57.3654 0.800192 56.2765 0.502492 55.1669 0.5L37.8789 0.57L39.6929 20.135L69.7519 20.064Z" fill="#037A80"/>
<path d="M71.18 35.8941C68.0673 36.0232 65.0254 36.8626 62.287 38.3481C59.2816 36.7239 55.9211 35.8685 52.505 35.8581C47.0857 35.8565 41.8875 38.0061 38.0521 41.8347C34.2167 45.6633 32.0579 50.8578 32.05 56.2771C32.05 61.4711 34.22 66.6641 37.35 71.4311L5.762 71.5381H5.727C4.24297 71.5275 2.82323 70.9309 1.77712 69.8783C0.731003 68.8256 0.143282 67.4021 0.142 65.9181L0 25.2581L32.9 25.1871H38.24L71.14 25.0801L71.18 35.8941Z" fill="#037A80"/>
</g>
<defs>
<clipPath id="clip0_47_675">
<rect width="85" height="85.003" fill="white" transform="translate(0 0.5)"/>
</clipPath>
</defs>
</svg>
