<svg width="85" height="86" viewBox="0 0 85 86" fill="none" xmlns="http://www.w3.org/2000/svg">
<g clip-path="url(#clip0_47_796)">
<path d="M40.1172 33.2039V48.1649C40.1172 48.8261 40.3798 49.4602 40.8474 49.9277C41.3149 50.3953 41.949 50.6579 42.6102 50.6579H72.5312C73.1924 50.6579 73.8265 50.3953 74.294 49.9277C74.7615 49.4602 75.0242 48.8261 75.0242 48.1649V33.2039C75.0239 32.543 74.7613 31.9092 74.2941 31.4418C73.8268 30.9743 73.1931 30.7115 72.5322 30.7109H42.6102C41.9491 30.7112 41.3151 30.9739 40.8477 31.4414C40.3802 31.9089 40.1175 32.5428 40.1172 33.2039Z" fill="#037A80"/>
<path d="M62.5901 70.4316H52.6161C51.955 70.4319 51.321 70.6946 50.8535 71.1621C50.386 71.6296 50.1233 72.2635 50.123 72.9247V82.8987C50.1233 83.5598 50.386 84.1937 50.8535 84.6612C51.321 85.1286 51.955 85.3914 52.6161 85.3916H62.5901C63.2512 85.3914 63.8851 85.1286 64.3526 84.6612C64.82 84.1937 65.0828 83.5598 65.083 82.8987V72.9247C65.0828 72.2635 64.82 71.6296 64.3526 71.1621C63.8851 70.6946 63.2512 70.4319 62.5901 70.4316Z" fill="#037A80"/>
<path d="M51.0834 3.10042C51.0831 2.43915 50.8202 1.80504 50.3525 1.33754C49.8848 0.870044 49.2506 0.607422 48.5894 0.607422L41.1094 0.607422V10.5814H51.0834V3.10042Z" fill="#037A80"/>
<path d="M36.183 0.607422H2.493C1.8319 0.607687 1.19795 0.870427 0.730475 1.3379C0.263005 1.80537 0.000265024 2.43932 0 3.10042L0 10.5804H36.183V0.607422Z" fill="#037A80"/>
<path d="M51.144 58.1683V55.6753H42.721C40.7379 55.6729 38.8367 54.8841 37.4345 53.4818C36.0322 52.0795 35.2434 50.1784 35.241 48.1953V33.2343C35.2434 31.2512 36.0322 29.35 37.4345 27.9477C38.8367 26.5455 40.7379 25.7566 42.721 25.7543H51.143V15.4473H0V58.1683C0.000265024 58.8294 0.263005 59.4633 0.730475 59.9308C1.19795 60.3983 1.8319 60.661 2.493 60.6613H48.65C49.3113 60.6613 49.9455 60.3986 50.4132 59.9311C50.8809 59.4636 51.1437 58.8295 51.144 58.1683ZM25.262 50.5213H9.974C9.31268 50.5213 8.67845 50.2586 8.21083 49.7909C7.74321 49.3233 7.4805 48.6891 7.4805 48.0278C7.4805 47.3664 7.74321 46.7322 8.21083 46.2646C8.67845 45.797 9.31268 45.5343 9.974 45.5343H25.262C25.9233 45.5343 26.5575 45.797 27.0252 46.2646C27.4928 46.7322 27.7555 47.3664 27.7555 48.0278C27.7555 48.6891 27.4928 49.3233 27.0252 49.7909C26.5575 50.2586 25.9233 50.5213 25.262 50.5213ZM25.262 40.5473H9.974C9.31268 40.5473 8.67845 40.2846 8.21083 39.8169C7.74321 39.3493 7.4805 38.7151 7.4805 38.0538C7.4805 37.3924 7.74321 36.7582 8.21083 36.2906C8.67845 35.823 9.31268 35.5603 9.974 35.5603H25.262C25.9233 35.5603 26.5575 35.823 27.0252 36.2906C27.4928 36.7582 27.7555 37.3924 27.7555 38.0538C27.7555 38.7151 27.4928 39.3493 27.0252 39.8169C26.5575 40.2846 25.9233 40.5473 25.262 40.5473ZM25.262 30.5733H9.974C9.32133 30.5602 8.6998 30.2917 8.24285 29.8255C7.78589 29.3593 7.52994 28.7326 7.52994 28.0798C7.52994 27.427 7.78589 26.8002 8.24285 26.334C8.6998 25.8678 9.32133 25.5993 9.974 25.5863H25.262C25.9233 25.5863 26.5575 25.849 27.0252 26.3166C27.4928 26.7842 27.7555 27.4184 27.7555 28.0798C27.7555 28.7411 27.4928 29.3753 27.0252 29.8429C26.5575 30.3106 25.9233 30.5733 25.262 30.5733Z" fill="#037A80"/>
<path d="M80.0131 38.5566V53.0886C80.0113 53.7493 79.748 54.3823 79.2809 54.8494C78.8138 55.3165 78.1807 55.5798 77.5201 55.5816H62.5581C60.575 55.584 58.6739 56.3729 57.2716 57.7751C55.8694 59.1774 55.0805 61.0786 55.0781 63.0616V65.5546H60.0651V63.0616C60.067 62.401 60.3302 61.768 60.7974 61.3009C61.2645 60.8337 61.8975 60.5705 62.5581 60.5686H77.5191C79.5022 60.5663 81.4034 59.7774 82.8057 58.3752C84.2079 56.9729 84.9967 55.0717 84.9991 53.0886V45.6086C84.9974 44.0624 84.5172 42.5545 83.6245 41.2919C82.7319 40.0293 81.4703 39.0739 80.0131 38.5566Z" fill="#037A80"/>
</g>
<defs>
<clipPath id="clip0_47_796">
<rect width="85" height="85" fill="white" transform="translate(0 0.5)"/>
</clipPath>
</defs>
</svg>
