<svg width="85" height="87" viewBox="0 0 85 87" fill="none" xmlns="http://www.w3.org/2000/svg">
<g clip-path="url(#clip0_47_631)">
<path d="M77.8299 41.9663C75.9121 44.0401 73.864 45.9894 71.6979 47.8023C71.5739 55.5217 68.629 62.9288 63.4188 68.6261C58.2086 74.3233 51.0935 77.9167 43.4159 78.7283V15.9203C43.5009 15.9293 43.5839 15.9483 43.6689 15.9593C43.988 13.776 44.6177 11.6494 45.5389 9.64434C37.5376 8.44098 29.3606 9.79307 22.1725 13.508C14.9845 17.223 9.1519 23.1113 5.50556 30.3344C1.85923 37.5576 0.585071 45.7471 1.86456 53.7366C3.14406 61.7261 6.91195 69.1081 12.6316 74.8313C18.3512 80.5545 25.731 84.3269 33.7197 85.6114C41.7084 86.8958 49.8987 85.6267 57.124 81.9849C64.3494 78.343 70.2414 72.5141 73.9608 65.3283C77.6802 58.1426 79.0373 49.9664 77.8389 41.9643L77.8299 41.9663ZM25.1159 19.5653C21.2249 26.0063 18.7449 34.9813 18.4309 45.1483H8.68293C9.04881 39.846 10.7466 34.7216 13.6191 30.2497C16.4916 25.7778 20.4459 22.103 25.1159 19.5653ZM8.90893 51.6803H18.5159C19.0929 60.9543 21.5059 69.1063 25.1159 75.0803C20.7736 72.718 17.0456 69.3706 14.231 65.3068C11.4163 61.243 9.59358 56.576 8.90893 51.6803ZM36.8789 78.1363C30.4789 75.0943 26.0039 63.4103 25.0919 51.6803H36.8789V78.1363ZM36.8789 45.1483H24.9599C25.4519 32.7223 30.0819 19.7483 36.8799 16.5173L36.8789 45.1483Z" fill="#037A80"/>
<path d="M65.984 0.5C65.3159 0.50018 64.6483 0.535892 63.984 0.606995C54.272 1.63999 46.953 10.98 47.799 20.707C48.906 33.454 60.627 42.957 64.644 45.861C65.0291 46.141 65.495 46.2878 65.971 46.2791C66.4471 46.2705 66.9073 46.1068 67.282 45.813C71.45 42.556 84.256 31.513 84.256 18.769C84.2555 13.9239 82.3305 9.27743 78.9045 5.85144C75.4785 2.42545 70.8321 0.50053 65.987 0.5H65.984ZM65.984 27.3C64.2977 27.3 62.6493 26.7999 61.2472 25.8631C59.8451 24.9262 58.7523 23.5947 58.107 22.0368C57.4617 20.4789 57.2928 18.7645 57.6218 17.1107C57.9508 15.4568 58.7628 13.9376 59.9552 12.7452C61.1476 11.5528 62.6668 10.7408 64.3207 10.4118C65.9745 10.0829 67.6888 10.2517 69.2467 10.897C70.8047 11.5423 72.1363 12.6351 73.0731 14.0372C74.0099 15.4393 74.51 17.0877 74.51 18.774C74.51 19.8936 74.2895 21.0024 73.861 22.0368C73.4325 23.0712 72.8045 24.0111 72.0128 24.8028C71.2211 25.5945 70.2812 26.2225 69.2467 26.651C68.2123 27.0795 67.1036 27.3 65.984 27.3Z" fill="#037A80"/>
</g>
<defs>
<clipPath id="clip0_47_631">
<rect width="85" height="85.599" fill="white" transform="translate(0 0.5)"/>
</clipPath>
</defs>
</svg>
