<svg width="85" height="86" viewBox="0 0 85 86" fill="none" xmlns="http://www.w3.org/2000/svg">
<g clip-path="url(#clip0_47_683)">
<path d="M23.0287 23.2441H21.9627L19.9707 33.2051H25.0197L23.0287 23.2441Z" fill="#037A80"/>
<path d="M63.3145 43.168C64.2826 45.7764 65.6628 48.2126 67.4025 50.384C69.1974 48.2215 70.634 45.7853 71.6575 43.168H63.3145Z" fill="#037A80"/>
<path d="M77.5292 15.6074H46.6032L53.0512 67.3514C53.1341 68.3715 53.0136 69.3979 52.6967 70.371C52.3798 71.3442 51.8728 72.2447 51.2052 73.0204L40.2852 85.5004H77.5292C79.51 85.4983 81.409 84.7105 82.8096 83.3099C84.2103 81.9093 84.998 80.0102 85.0002 78.0294V23.2444C85.0042 21.2463 84.2236 19.3265 82.8264 17.8982C81.4291 16.4699 79.5269 15.6473 77.5292 15.6074ZM77.5292 43.1664H76.8642C75.6073 47.1643 73.5677 50.8723 70.8642 54.0744C72.6932 55.7464 74.6501 57.1184 76.5941 58.6554C76.8562 58.8575 77.0754 59.1097 77.2389 59.3974C77.4023 59.6851 77.5068 60.0025 77.5462 60.331C77.5856 60.6596 77.5591 60.9927 77.4683 61.3109C77.3775 61.6291 77.2242 61.926 77.0173 62.1842C76.8104 62.4425 76.5541 62.6569 76.2634 62.815C75.9727 62.9731 75.6534 63.0716 75.3242 63.1049C74.9949 63.1381 74.6624 63.1054 74.3459 63.0087C74.0295 62.9119 73.7355 62.7531 73.4812 62.5414C71.3682 60.8734 69.3812 59.4774 67.4012 57.6574C65.4172 59.4774 63.6012 60.8734 61.4872 62.5414C61.2328 62.7531 60.9388 62.9119 60.6224 63.0087C60.3059 63.1054 59.9734 63.1381 59.6442 63.1049C59.3149 63.0716 58.9956 62.9731 58.7049 62.815C58.4142 62.6569 58.1579 62.4425 57.951 62.1842C57.7442 61.926 57.5909 61.6291 57.5 61.3109C57.4092 60.9927 57.3827 60.6596 57.4221 60.331C57.4615 60.0025 57.566 59.6851 57.7295 59.3974C57.8929 59.1097 58.1121 58.8575 58.3742 58.6554C60.3192 57.1184 62.1092 55.7464 63.9382 54.0744C61.2905 50.8607 59.3078 47.1529 58.1052 43.1664H57.4402C57.1089 43.1731 56.7797 43.1135 56.4717 42.9914C56.1637 42.8692 55.8832 42.6868 55.6466 42.4549C55.41 42.223 55.222 41.9462 55.0937 41.6407C54.9654 41.3352 54.8993 41.0072 54.8993 40.6759C54.8993 40.3446 54.9654 40.0166 55.0937 39.7111C55.222 39.4057 55.41 39.1289 55.6466 38.897C55.8832 38.665 56.1637 38.4827 56.4717 38.3605C56.7797 38.2383 57.1089 38.1788 57.4402 38.1854H64.9112V35.6954C64.9112 35.035 65.1735 34.4017 65.6405 33.9347C66.1074 33.4678 66.7408 33.2054 67.4012 33.2054C68.0615 33.2054 68.6949 33.4678 69.1619 33.9347C69.6288 34.4017 69.8912 35.035 69.8912 35.6954V38.1854H77.5282C78.18 38.1985 78.8008 38.4666 79.2572 38.9323C79.7136 39.3979 79.9693 40.0239 79.9693 40.6759C79.9693 41.3279 79.7136 41.954 79.2572 42.4196C78.8008 42.8852 78.18 43.1534 77.5282 43.1664H77.5292Z" fill="#037A80"/>
<path d="M40.535 7.044C40.307 5.23826 39.4286 3.57757 38.0642 2.37296C36.6998 1.16835 34.9431 0.502455 33.123 0.5L7.471 0.5C5.49022 0.502118 3.59117 1.28992 2.19054 2.69054C0.789919 4.09117 0.00211764 5.99022 0 7.971V63.089C0.00211764 65.0698 0.789919 66.9688 2.19054 68.3695C3.59117 69.7701 5.49022 70.5579 7.471 70.56H46.742C47.468 69.73 48.077 69.21 48.103 68.126C48.11 67.853 40.569 7.314 40.535 7.044ZM30.535 48.098C29.8875 48.2275 29.215 48.0945 28.6655 47.7283C28.1161 47.362 27.7346 46.7925 27.605 46.145L26.013 38.185H18.975L17.383 46.145C17.3196 46.4664 17.1935 46.7722 17.0117 47.0448C16.8299 47.3174 16.5962 47.5514 16.3238 47.7335C16.0514 47.9156 15.7458 48.0421 15.4244 48.1058C15.103 48.1696 14.7723 48.1692 14.451 48.1049C14.1298 48.0406 13.8244 47.9135 13.5524 47.7309C13.2803 47.5483 13.047 47.3138 12.8657 47.0409C12.6845 46.768 12.5589 46.4619 12.4961 46.1404C12.4334 45.8188 12.4347 45.488 12.5 45.167L17.48 20.267C17.5936 19.703 17.8989 19.1956 18.344 18.8311C18.7891 18.4665 19.3466 18.2672 19.922 18.267H25.069C25.6444 18.2672 26.2019 18.4665 26.647 18.8311C27.0921 19.1956 27.3974 19.703 27.511 20.267L32.492 45.167C32.5566 45.4879 32.5572 45.8184 32.4939 46.1396C32.4306 46.4607 32.3046 46.7662 32.1231 47.0387C31.9417 47.3111 31.7082 47.545 31.4362 47.7271C31.1642 47.9093 30.859 48.036 30.538 48.1L30.535 48.098Z" fill="#037A80"/>
<path d="M29.0957 75.5391L29.5227 78.9561C29.6989 80.2039 30.1855 81.3876 30.9378 82.3986C31.6901 83.4097 32.6841 84.2158 33.8287 84.7431L42.1897 75.5431L29.0957 75.5391Z" fill="#037A80"/>
</g>
<defs>
<clipPath id="clip0_47_683">
<rect width="85.001" height="85.001" fill="white" transform="translate(0 0.5)"/>
</clipPath>
</defs>
</svg>
