<svg width="85" height="86" viewBox="0 0 85 86" fill="none" xmlns="http://www.w3.org/2000/svg">
<g clip-path="url(#clip0_47_667)">
<path d="M84.7658 73.5149L84.7548 73.4819L81.3788 63.2229V38.1019C81.3767 36.1211 80.5889 34.222 79.1883 32.8214C77.7877 31.4208 75.8886 30.633 73.9078 30.6309H52.0998V42.8549C52.0961 46.1559 50.7831 49.3207 48.4489 51.655C46.1147 53.9892 42.9499 55.3022 39.6488 55.3059H37.8828V67.3199C37.8849 69.3006 38.6727 71.1997 40.0734 72.6003C41.474 74.0009 43.373 74.7887 45.3538 74.7909H70.6998L77.2218 79.1349C78.078 79.7139 79.0931 80.0123 80.1264 79.9888C81.1598 79.9652 82.1603 79.6208 82.9892 79.0033C83.818 78.3858 84.4344 77.5258 84.7527 76.5424C85.071 75.559 85.0756 74.501 84.7658 73.5149ZM67.8148 64.6679C67.5088 64.7833 67.1831 64.8374 66.8562 64.827C66.5294 64.8165 66.2077 64.7418 65.9097 64.6071C65.6118 64.4723 65.3432 64.2802 65.1195 64.0417C64.8958 63.8031 64.7212 63.5229 64.6058 63.2169L63.5218 60.3439H55.9418L54.8418 63.2239C54.7254 63.5294 54.5499 63.8091 54.3254 64.0469C54.1009 64.2846 53.8318 64.4759 53.5334 64.6096C53.235 64.7434 52.9132 64.8171 52.5863 64.8265C52.2594 64.8359 51.9339 64.7808 51.6283 64.6644C51.3227 64.5479 51.0431 64.3725 50.8053 64.148C50.5675 63.9235 50.3763 63.6543 50.2425 63.3559C50.1088 63.0575 50.0351 62.7357 50.0257 62.4088C50.0163 62.082 50.0714 61.7564 50.1878 61.4509L57.0458 43.4459L57.0678 43.3889C57.2844 42.854 57.6556 42.3959 58.134 42.0732C58.6123 41.7505 59.1761 41.5778 59.7531 41.5772C60.3302 41.5767 60.8943 41.7483 61.3732 42.0702C61.8522 42.392 62.2243 42.8494 62.4418 43.3839L62.4688 43.4519L69.2688 61.4579C69.3845 61.7641 69.4387 62.0901 69.4283 62.4173C69.4179 62.7445 69.3431 63.0664 69.2081 63.3647C69.0732 63.6629 68.8807 63.9316 68.6418 64.1554C68.4029 64.3792 68.1222 64.5537 67.8158 64.6689L67.8148 64.6679Z" fill="#037A80"/>
<path d="M57.8379 55.3647H61.6379L59.7449 50.3477L57.8379 55.3647Z" fill="#037A80"/>
<path d="M39.6501 6H11.0961C9.11478 6.00212 7.21527 6.79033 5.81456 8.1916C4.41385 9.59288 3.6264 11.4927 3.62508 13.474V38.759L0.249078 49.019L0.238078 49.053C-0.0804219 50.0395 -0.07933 51.1013 0.241198 52.0872C0.561727 53.073 1.18533 53.9325 2.02308 54.543C2.84807 55.166 3.84832 55.5134 4.88188 55.5358C5.91545 55.5583 6.92983 55.2546 7.78108 54.668L14.3021 50.326H39.6501C41.6309 50.3239 43.5299 49.5361 44.9305 48.1355C46.3312 46.7348 47.119 44.8358 47.1211 42.855V13.474C47.1198 11.4927 46.3323 9.59288 44.9316 8.1916C43.5309 6.79033 41.6314 6.00212 39.6501 6ZM35.7661 39.226C35.2991 39.6928 34.6659 39.9551 34.0056 39.9551C33.3453 39.9551 32.712 39.6928 32.2451 39.226L31.1551 38.135C28.754 39.7033 25.8581 40.3291 23.0236 39.8924C20.1892 39.4556 17.616 37.9871 15.7984 35.7688C13.9807 33.5505 13.0467 30.7388 13.1757 27.8738C13.3047 25.0089 14.4876 22.2925 16.4973 20.2466C18.507 18.2006 21.2017 16.9693 24.0639 16.789C26.9262 16.6088 29.7541 17.4924 32.0045 19.2701C34.255 21.0478 35.7693 23.5942 36.2567 26.4204C36.7441 29.2466 36.1701 32.1532 34.6451 34.582L35.7671 35.704C36.2339 36.1713 36.496 36.8048 36.4958 37.4652C36.4956 38.1257 36.2331 38.759 35.7661 39.226Z" fill="#037A80"/>
<path d="M24.8073 21.7764C23.8186 21.7753 22.8422 21.9952 21.9494 22.4199C21.0566 22.8446 20.27 23.4634 19.647 24.2312C19.0241 24.9989 18.5805 25.8962 18.3488 26.8573C18.1172 27.8185 18.1032 28.8192 18.3079 29.7865C18.5126 30.7537 18.9309 31.663 19.5321 32.4479C20.1333 33.2327 20.9024 33.8733 21.7829 34.3228C22.6635 34.7724 23.6334 35.0194 24.6217 35.046C25.6101 35.0726 26.5918 34.8779 27.4953 34.4764L26.4043 33.3854C25.9373 32.9183 25.6749 32.2849 25.6749 31.6244C25.6749 30.9639 25.9373 30.3304 26.4043 29.8634C26.8714 29.3963 27.5048 29.134 28.1653 29.134C28.8258 29.134 29.4593 29.3963 29.9263 29.8634L30.9593 30.8964C31.3671 29.8893 31.5212 28.7975 31.4081 27.7169C31.2949 26.6363 30.9181 25.6001 30.3106 24.6993C29.7031 23.7985 28.8836 23.0608 27.9242 22.5509C26.9648 22.0411 25.8948 21.7748 24.8083 21.7754L24.8073 21.7764Z" fill="#037A80"/>
</g>
<defs>
<clipPath id="clip0_47_667">
<rect width="85.005" height="85" fill="white" transform="translate(0 0.5)"/>
</clipPath>
</defs>
</svg>
