<svg width="86" height="86" viewBox="0 0 86 86" fill="none" xmlns="http://www.w3.org/2000/svg">
<g clip-path="url(#clip0_47_739)">
<path d="M14.3894 52.1835C14.7525 52.4266 15.1599 52.5957 15.5883 52.6813C16.0168 52.7668 16.4579 52.7671 16.8865 52.6822C17.3151 52.5972 17.7227 52.4286 18.0861 52.1861C18.4495 51.9435 18.7615 51.6317 19.0044 51.2685C21.6467 47.326 25.2182 44.094 29.4041 41.8572C33.5901 39.6205 38.262 38.4478 43.008 38.4425C47.7541 38.4372 52.4286 39.5994 56.6196 41.8266C60.8105 44.0539 64.3893 47.278 67.0404 51.2145C67.2836 51.5786 67.5963 51.8911 67.9605 52.1341C68.3247 52.3771 68.7332 52.5459 69.1628 52.6306C69.5923 52.7154 70.0344 52.7146 70.4636 52.6282C70.8928 52.5418 71.3008 52.3715 71.664 52.1271C72.0273 51.8827 72.3388 51.5691 72.5806 51.2041C72.8224 50.8391 72.9898 50.4299 73.0732 50.0001C73.1565 49.5703 73.1542 49.1282 73.0664 48.6993C72.9786 48.2704 72.807 47.863 72.5614 47.5005C68.3324 41.2071 62.1998 36.4328 55.0614 33.8765C58.0671 31.4283 60.2425 28.1109 61.2897 24.3784C62.3368 20.6459 62.2046 16.681 60.911 13.0267C59.6174 9.37228 57.2258 6.20714 54.0637 3.96468C50.9015 1.72223 47.1235 0.512126 43.2469 0.500091C39.3704 0.488056 35.5849 1.67468 32.4089 3.89745C29.2329 6.12023 26.8216 9.27047 25.5054 12.9167C24.1892 16.563 24.0323 20.527 25.0563 24.2659C26.0802 28.0048 28.235 31.3357 31.2254 33.8025C23.9743 36.3488 17.7454 41.1794 13.4744 47.5685C12.9838 48.3019 12.8046 49.2 12.9762 50.0655C13.1478 50.931 13.6561 51.6928 14.3894 52.1835ZM43.1894 7.16853C45.5908 7.16912 47.9381 7.88172 49.9346 9.21624C51.931 10.5508 53.487 12.4473 54.4057 14.666C55.3244 16.8847 55.5646 19.326 55.096 21.6812C54.6273 24.0365 53.4709 26.1999 51.7728 27.8979C50.0748 29.596 47.9114 30.7524 45.5561 31.2211C43.2009 31.6897 40.7596 31.4495 38.5409 30.5308C36.3222 29.6121 34.4257 28.0561 33.0911 26.0597C31.7566 24.0632 31.044 21.7159 31.0434 19.3145C31.043 17.7194 31.3569 16.1398 31.9672 14.666C32.5774 13.1922 33.4721 11.8531 34.6 10.7251C35.728 9.59719 37.0671 8.70254 38.5409 8.09228C40.0147 7.48203 41.5943 7.16813 43.1894 7.16853ZM56.4534 59.4205L51.4934 62.9985C51.1343 63.2564 50.8666 63.6219 50.729 64.042C50.5915 64.4622 50.5913 64.9152 50.7284 65.3355L52.7284 71.1245C52.8089 71.366 52.8448 71.6202 52.8344 71.8745C52.7986 72.2575 52.6628 72.6243 52.4404 72.9382C52.218 73.2521 51.917 73.5019 51.5676 73.6627C51.2182 73.8235 50.8326 73.8896 50.4496 73.8542C50.0666 73.8189 49.6996 73.6835 49.3854 73.4615L44.4264 69.8825C44.066 69.623 43.6331 69.4834 43.1889 69.4834C42.7448 69.4834 42.3119 69.623 41.9514 69.8825L36.9924 73.4615C36.6784 73.6838 36.3113 73.8195 35.9282 73.855C35.5451 73.8905 35.1593 73.8245 34.8098 73.6636C34.4603 73.5028 34.1592 73.2528 33.9369 72.9387C33.7146 72.6247 33.5789 72.2577 33.5434 71.8745C33.5344 71.6201 33.5709 71.3661 33.6514 71.1245L35.6514 65.3355C35.7886 64.9152 35.7883 64.4622 35.6508 64.042C35.5133 63.6219 35.2455 63.2564 34.8864 62.9985L29.9264 59.4205C29.5656 59.1411 29.2986 58.7582 29.1609 58.3231C29.0233 57.8879 29.0216 57.4212 29.1561 56.985C29.2907 56.5489 29.5549 56.1642 29.9138 55.8821C30.2726 55.6001 30.7089 55.4342 31.1644 55.4065H37.2944C37.7148 55.4536 38.139 55.3603 38.5008 55.141C38.8626 54.9218 39.1416 54.589 39.2944 54.1945L41.1884 48.3685C41.3292 47.9496 41.598 47.5855 41.9569 47.3276C42.3157 47.0697 42.7465 46.9309 43.1884 46.9309C43.6303 46.9309 44.0611 47.0697 44.42 47.3276C44.7788 47.5855 45.0476 47.9496 45.1884 48.3685L47.0834 54.1945C47.2362 54.589 47.5153 54.9218 47.8771 55.141C48.2388 55.3603 48.663 55.4536 49.0834 55.4065H55.2134C55.6691 55.4338 56.1057 55.5995 56.4648 55.8814C56.8239 56.1633 57.0885 56.548 57.2233 56.9842C57.358 57.4204 57.3565 57.8873 57.219 58.3226C57.0814 58.7579 56.8143 59.1409 56.4534 59.4205ZM84.8974 71.0645L79.9374 74.6425C79.5783 74.9004 79.3106 75.2659 79.173 75.686C79.0355 76.1062 79.0353 76.5592 79.1724 76.9795L81.1724 82.7685C81.2529 83.01 81.2888 83.2642 81.2784 83.5185C81.2426 83.9015 81.1068 84.2683 80.8844 84.5822C80.662 84.8961 80.3611 85.1459 80.0116 85.3067C79.6622 85.4675 79.2766 85.5336 78.8936 85.4983C78.5106 85.4629 78.1436 85.3275 77.8294 85.1055L72.8704 81.5265C72.51 81.267 72.0771 81.1274 71.6329 81.1274C71.1888 81.1274 70.7559 81.267 70.3954 81.5265L65.4364 85.1055C65.1221 85.3287 64.7544 85.465 64.3705 85.5007C63.9867 85.5364 63.6002 85.4702 63.2501 85.3088C62.9 85.1474 62.5986 84.8966 62.3764 84.5816C62.1542 84.2665 62.019 83.8985 61.9844 83.5145C61.9754 83.2601 62.0119 83.0061 62.0924 82.7645L64.0924 76.9755C64.2296 76.5552 64.2293 76.1022 64.0918 75.682C63.9543 75.2619 63.6865 74.8964 63.3274 74.6385L58.3674 71.0605C58.0082 70.7808 57.7425 70.3984 57.6057 69.9641C57.4689 69.5298 57.4675 69.0641 57.6016 68.629C57.7358 68.1939 57.9991 67.8098 58.3566 67.5279C58.7142 67.246 59.149 67.0795 59.6034 67.0505H65.7334C66.1538 67.0976 66.578 67.0043 66.9398 66.785C67.3016 66.5658 67.5806 66.233 67.7334 65.8385L69.6284 60.0145C69.7693 59.5956 70.038 59.2315 70.3969 58.9736C70.7557 58.7157 71.1865 58.5769 71.6284 58.5769C72.0704 58.5769 72.5011 58.7157 72.86 58.9736C73.2188 59.2315 73.4876 59.5956 73.6284 60.0145L75.5224 65.8405C75.6752 66.235 75.9543 66.5678 76.3161 66.787C76.6779 67.0063 77.102 67.0996 77.5224 67.0525H83.6524C84.1081 67.0794 84.5447 67.2445 84.904 67.5259C85.2634 67.8073 85.5284 68.1916 85.6637 68.6276C85.7989 69.0635 85.7981 69.5303 85.6612 69.9657C85.5243 70.4011 85.2578 70.7845 84.8974 71.0645ZM28.0094 71.0645L23.0494 74.6425C22.6903 74.9004 22.4226 75.2659 22.285 75.686C22.1475 76.1062 22.1473 76.5592 22.2844 76.9795L24.2844 82.7685C24.3649 83.01 24.4008 83.2642 24.3904 83.5185C24.3546 83.9015 24.2188 84.2683 23.9964 84.5822C23.774 84.8961 23.4731 85.1459 23.1236 85.3067C22.7742 85.4675 22.3886 85.5336 22.0056 85.4983C21.6226 85.4629 21.2556 85.3275 20.9414 85.1055L15.9814 81.5265C15.621 81.267 15.1881 81.1274 14.7439 81.1274C14.2998 81.1274 13.8669 81.267 13.5064 81.5265L8.54542 85.1055C8.23108 85.3279 7.86371 85.4636 7.48028 85.4989C7.09685 85.5341 6.71089 85.4678 6.36125 85.3065C6.0116 85.1452 5.71062 84.8947 5.48858 84.5801C5.26654 84.2655 5.13128 83.898 5.09642 83.5145C5.08735 83.2601 5.12393 83.0061 5.20442 82.7645L7.20442 76.9755C7.34155 76.5552 7.34133 76.1022 7.2038 75.682C7.06626 75.2619 6.79854 74.8964 6.43942 74.6385L1.47542 71.0645C1.11459 70.7851 0.847554 70.4022 0.709927 69.9671C0.572301 69.5319 0.570631 69.0652 0.70514 68.629C0.839649 68.1929 1.10394 67.8082 1.46276 67.5261C1.82158 67.2441 2.25787 67.0782 2.71342 67.0505H8.84342C9.26382 67.0976 9.68799 67.0043 10.0498 66.785C10.4116 66.5658 10.6906 66.233 10.8434 65.8385L12.7404 60.0145C12.8812 59.5956 13.15 59.2315 13.5089 58.9736C13.8677 58.7157 14.2985 58.5769 14.7404 58.5769C15.1823 58.5769 15.6131 58.7157 15.972 58.9736C16.3308 59.2315 16.5996 59.5956 16.7404 60.0145L18.6344 65.8405C18.7872 66.235 19.0663 66.5678 19.4281 66.787C19.7899 67.0063 20.214 67.0996 20.6344 67.0525H26.7644C27.2201 67.0794 27.6567 67.2445 28.016 67.5259C28.3754 67.8073 28.6404 68.1916 28.7757 68.6276C28.9109 69.0635 28.9101 69.5303 28.7732 69.9657C28.6363 70.4011 28.3698 70.7845 28.0094 71.0645Z" fill="#037A80"/>
</g>
<defs>
<clipPath id="clip0_47_739">
<rect width="85.765" height="85.015" fill="white" transform="translate(0 0.5)"/>
</clipPath>
</defs>
</svg>
