<svg width="85" height="86" viewBox="0 0 85 86" fill="none" xmlns="http://www.w3.org/2000/svg">
<g clip-path="url(#clip0_47_743)">
<path d="M47.2318 17.6941C50.3931 17.6941 52.9558 15.1314 52.9558 11.9701C52.9558 8.80882 50.3931 6.24609 47.2318 6.24609C44.0705 6.24609 41.5078 8.80882 41.5078 11.9701C41.5078 15.1314 44.0705 17.6941 47.2318 17.6941Z" fill="#037A80"/>
<path d="M26.4791 17.6941C30.0358 17.6941 32.9191 15.1314 32.9191 11.9701C32.9191 8.80882 30.0358 6.24609 26.4791 6.24609C22.9223 6.24609 20.0391 8.80882 20.0391 11.9701C20.0391 15.1314 22.9223 17.6941 26.4791 17.6941Z" fill="#037A80"/>
<path d="M46.598 21.0352L45.498 32.1972L46.898 33.5972L48.298 32.1972L47.17 21.0352H46.598Z" fill="#037A80"/>
<path d="M14.6523 32.7528V38.6098H32.2323V32.7528C32.2294 29.8329 33.1039 26.9796 34.7423 24.5628C33.9414 23.749 33.0253 23.0573 32.0233 22.5098C31.7065 23.7703 30.9777 24.889 29.9527 25.6883C28.9277 26.4875 27.6651 26.9216 26.3653 26.9216C25.0655 26.9216 23.803 26.4875 22.778 25.6883C21.753 24.889 21.0242 23.7703 20.7073 22.5098C18.8762 23.5219 17.3492 25.0054 16.2845 26.8064C15.2198 28.6075 14.6563 30.6606 14.6523 32.7528Z" fill="#037A80"/>
<path d="M23.4805 21.4096C23.563 22.1188 23.9032 22.7731 24.4365 23.2479C24.9698 23.7228 25.6589 23.9851 26.373 23.9851C27.087 23.9851 27.7762 23.7228 28.3095 23.2479C28.8427 22.7731 29.183 22.1188 29.2655 21.4096C27.3694 20.9104 25.3765 20.9104 23.4805 21.4096Z" fill="#037A80"/>
<path d="M29.3047 47.4062H32.2327V64.9863H29.3047V47.4062Z" fill="#037A80"/>
<path d="M10.2531 51.7957C10.0606 51.7957 9.8701 51.8336 9.69235 51.9073C9.5146 51.981 9.35312 52.089 9.21715 52.2252C9.08118 52.3613 8.97338 52.523 8.89993 52.7008C8.82647 52.8787 8.7888 53.0692 8.78906 53.2617V59.1237C8.78906 59.5119 8.94331 59.8843 9.21786 60.1589C9.49241 60.4334 9.86479 60.5877 10.2531 60.5877H14.6531C18.7698 60.5997 22.8116 61.6887 26.3771 63.7467V48.6387C22.8123 50.6954 18.7716 51.7837 14.6561 51.7957H10.2531Z" fill="#037A80"/>
<path d="M35.166 52.0742V60.3302C36.0235 60.0323 36.767 59.4748 37.2931 58.735C37.8193 57.9953 38.102 57.11 38.102 56.2022C38.102 55.2944 37.8193 54.4092 37.2931 53.6694C36.767 52.9297 36.0235 52.3721 35.166 52.0742Z" fill="#037A80"/>
<path d="M42.486 41.543H4.4C3.23305 41.543 2.11389 42.0065 1.28873 42.8317C0.46357 43.6569 0 44.776 0 45.943V72.311C0 72.8888 0.113809 73.4609 0.33493 73.9948C0.556051 74.5286 0.880152 75.0137 1.28873 75.4222C1.69731 75.8308 2.18236 76.1549 2.71619 76.376C3.25003 76.5972 3.82218 76.711 4.4 76.711H23.987L33.751 85.077C34.0042 85.2934 34.314 85.4329 34.6439 85.4789C34.9738 85.525 35.31 85.4756 35.6127 85.3367C35.9155 85.1978 36.1721 84.9751 36.3524 84.695C36.5327 84.4149 36.629 84.0891 36.63 83.756V76.709H42.492C43.659 76.709 44.7781 76.2454 45.6033 75.4202C46.4284 74.5951 46.892 73.4759 46.892 72.309V45.943C46.892 45.3647 46.778 44.792 46.5565 44.2578C46.335 43.7236 46.0104 43.2382 45.6012 42.8296C45.1919 42.4209 44.7062 42.0969 44.1716 41.8762C43.6371 41.6554 43.0643 41.5422 42.486 41.543ZM35.166 63.372V67.913H27.35L26.97 67.621C25.0282 66.1751 22.8464 65.0833 20.525 64.396V69.377C20.525 70.5449 20.0611 71.6649 19.2352 72.4907C18.4094 73.3165 17.2894 73.7805 16.1215 73.7805C14.9536 73.7805 13.8336 73.3165 13.0078 72.4907C12.1819 71.6649 11.718 70.5449 11.718 69.377V63.521H10.254C9.08705 63.521 7.96789 63.0574 7.14273 62.2322C6.31757 61.4071 5.854 60.2879 5.854 59.121V53.267C5.854 52.1 6.31757 50.9809 7.14273 50.1557C7.96789 49.3305 9.08705 48.867 10.254 48.867H14.654C19.0924 48.8597 23.4102 47.4219 26.967 44.767L27.358 44.475H35.174V49.016C36.828 49.3542 38.3144 50.2532 39.3819 51.561C40.4494 52.8689 41.0324 54.5053 41.0324 56.1935C41.0324 57.8817 40.4494 59.5181 39.3819 60.8259C38.3144 62.1338 36.828 63.0328 35.174 63.371L35.166 63.372ZM43.972 70.843C43.9704 71.619 43.6614 72.3629 43.1127 72.9116C42.5639 73.4604 41.8201 73.7694 41.044 73.771H38.094V70.843H41.022V62.043H43.95L43.972 70.843Z" fill="#037A80"/>
<path d="M35.166 32.7539V38.6159H58.608V32.7539C58.604 30.2192 57.7795 27.754 56.2577 25.727C54.736 23.7 52.5988 22.2202 50.166 21.5089L51.344 33.2989L46.886 37.7519L42.426 33.2939L43.604 21.5039C41.1715 22.2168 39.0351 23.6979 37.5142 25.7257C35.9933 27.7535 35.1695 30.2191 35.166 32.7539Z" fill="#037A80"/>
<path d="M67.2709 17.6941C70.4322 17.6941 72.9949 15.1314 72.9949 11.9701C72.9949 8.80882 70.4322 6.24609 67.2709 6.24609C64.1096 6.24609 61.5469 8.80882 61.5469 11.9701C61.5469 15.1314 64.1096 17.6941 67.2709 17.6941Z" fill="#037A80"/>
<path d="M59.0254 24.5628C60.6639 26.9796 61.5383 29.8329 61.5354 32.7528V38.6098H79.1154V32.7528C79.1103 30.6595 78.5451 28.6057 77.4785 26.8045C76.4118 25.0033 74.8826 23.5205 73.0494 22.5098C72.7287 23.7654 71.999 24.8785 70.9754 25.6734C69.9519 26.4684 68.6929 26.8999 67.3969 26.8999C66.1009 26.8999 64.8419 26.4684 63.8183 25.6734C62.7948 24.8785 62.0651 23.7654 61.7444 22.5098C60.7418 23.0608 59.8257 23.7563 59.0254 24.5738V24.5628Z" fill="#037A80"/>
<path d="M80.5791 0.521517H13.1891C12.0221 0.521517 10.903 0.985087 10.0778 1.81025C9.25263 2.63541 8.78906 3.75456 8.78906 4.92152V38.6155H11.7171V32.7535C11.7221 29.8234 12.6045 26.962 14.2507 24.538C15.8969 22.114 18.2313 20.2386 20.9531 19.1535C19.506 18.0259 18.4472 16.4745 17.9246 14.716C17.4019 12.9575 17.4414 11.0796 18.0376 9.34467C18.6338 7.60971 19.7569 6.10423 21.2501 5.03845C22.7433 3.97266 24.532 3.39977 26.3666 3.39977C28.2011 3.39977 29.9898 3.97266 31.483 5.03845C32.9762 6.10423 34.0993 7.60971 34.6955 9.34467C35.2917 11.0796 35.3312 12.9575 34.8086 14.716C34.2859 16.4745 33.2271 18.0259 31.7801 19.1535C33.5927 19.8674 35.2437 20.9379 36.6351 22.3015C38.0217 20.9424 39.6645 19.8724 41.4681 19.1535C40.0216 18.0255 38.9635 16.474 38.4414 14.7156C37.9193 12.9572 37.9592 11.0797 38.5556 9.34512C39.152 7.61052 40.2752 6.10543 41.7682 5.03994C43.2613 3.97444 45.0498 3.40172 46.8841 3.40172C48.7183 3.40172 50.5068 3.97444 51.9999 5.03994C53.493 6.10543 54.6161 7.61052 55.2125 9.34512C55.8089 11.0797 55.8489 12.9572 55.3267 14.7156C54.8046 16.474 53.7465 18.0255 52.3001 19.1535C54.1031 19.8736 55.7456 20.9435 57.1331 22.3015C58.5248 20.9376 60.176 19.8668 61.9891 19.1525C60.542 18.0249 59.4832 16.4735 58.9606 14.715C58.4379 12.9565 58.4774 11.0786 59.0736 9.34367C59.6698 7.60871 60.7929 6.10323 62.2861 5.03745C63.7793 3.97166 65.568 3.39877 67.4026 3.39877C69.2371 3.39877 71.0258 3.97166 72.519 5.03745C74.0122 6.10323 75.1353 7.60871 75.7315 9.34367C76.3277 11.0786 76.3672 12.9565 75.8446 14.715C75.3219 16.4735 74.2631 18.0249 72.8161 19.1525C75.5378 20.2376 77.8723 22.113 79.5184 24.537C81.1646 26.961 82.047 29.8224 82.0521 32.7525V41.5595H48.3091C48.9744 42.4215 49.4372 43.4223 49.6631 44.4875H59.1471L68.9111 52.8595C69.1642 53.0756 69.4738 53.2148 69.8035 53.2607C70.1331 53.3066 70.469 53.2573 70.7716 53.1185C71.0741 52.9798 71.3306 52.7574 71.5109 52.4776C71.6912 52.1978 71.7877 51.8723 71.7891 51.5395V44.4775H80.5961C81.1739 44.4775 81.746 44.3637 82.2799 44.1426C82.8137 43.9215 83.2988 43.5974 83.7073 43.1888C84.1159 42.7802 84.44 42.2952 84.6611 41.7613C84.8823 41.2275 84.9961 40.6553 84.9961 40.0775V4.92152C84.9961 4.34227 84.8817 3.76872 84.6595 3.23377C84.4373 2.69883 84.1117 2.21302 83.7013 1.80422C83.2909 1.39542 82.8039 1.07167 82.2681 0.851555C81.7323 0.631437 81.1583 0.519279 80.5791 0.521517ZM14.6511 21.0355H11.7171V18.1015H14.6451L14.6511 21.0355ZM17.5961 6.38352H14.6671V15.1905H11.7171V6.38352C11.7186 5.60745 12.0276 4.86362 12.5764 4.31486C13.1252 3.7661 13.869 3.4571 14.6451 3.45552H17.5951L17.5961 6.38352ZM82.0601 18.1075H79.1321V15.1735H82.0601V18.1075ZM82.0601 12.2455H79.1321V9.32852H82.0601V12.2455ZM82.0601 6.38352H79.1321V3.44952H82.0601V6.38352Z" fill="#037A80"/>
<path d="M64.5039 21.4096C64.5864 22.1188 64.9266 22.7731 65.4599 23.2479C65.9932 23.7228 66.6824 23.9851 67.3964 23.9851C68.1105 23.9851 68.7996 23.7228 69.3329 23.2479C69.8662 22.7731 70.2064 22.1188 70.2889 21.4096C68.3929 20.9104 66.3999 20.9104 64.5039 21.4096Z" fill="#037A80"/>
<path d="M14.6523 69.3835C14.6523 69.7718 14.8066 70.1441 15.0811 70.4187C15.3557 70.6932 15.7281 70.8475 16.1163 70.8475C16.5046 70.8475 16.877 70.6932 17.1515 70.4187C17.4261 70.1441 17.5803 69.7718 17.5803 69.3835V63.7475C16.6111 63.6013 15.6325 63.5257 14.6523 63.5215V69.3835Z" fill="#037A80"/>
</g>
<defs>
<clipPath id="clip0_47_743">
<rect width="85" height="85" fill="white" transform="translate(0 0.5)"/>
</clipPath>
</defs>
</svg>
