<svg width="85" height="86" viewBox="0 0 85 86" fill="none" xmlns="http://www.w3.org/2000/svg">
<g clip-path="url(#clip0_47_762)">
<path d="M42.6059 0.5C40.9361 0.50235 39.3151 1.06315 38.0007 2.09314C36.6864 3.12314 35.7544 4.56315 35.3529 6.184C26.8247 7.86564 19.1448 12.4557 13.6246 19.1703C8.10443 25.8849 5.08641 34.3076 5.08594 43C5.08594 43.6604 5.34828 44.2937 5.81524 44.7607C6.28221 45.2277 6.91555 45.49 7.57594 45.49C8.23633 45.49 8.86967 45.2277 9.33663 44.7607C9.8036 44.2937 10.0659 43.6604 10.0659 43C10.0669 35.5431 12.628 28.3127 17.3209 22.5178C22.0139 16.7228 28.5541 12.7148 35.8479 11.164C36.4196 12.3726 37.3051 13.4056 38.4121 14.1552C39.5191 14.9049 40.807 15.3437 42.1414 15.4259C43.4758 15.5081 44.8078 15.2306 45.9985 14.6225C47.1891 14.0144 48.1947 13.0979 48.9104 11.9686C49.626 10.8393 50.0255 9.53866 50.067 8.20237C50.1086 6.86607 49.7908 5.54311 49.1468 4.37151C48.5028 3.19992 47.5561 2.22265 46.4056 1.54166C45.2551 0.860678 43.9429 0.500945 42.6059 0.5Z" fill="#037A80"/>
<path d="M63.9494 38.4789C63.1355 37.9307 62.2776 37.451 61.3844 37.0448L60.0954 33.9318C60.4393 33.0131 60.7069 32.0676 60.8954 31.1048C60.9662 30.7097 60.9405 30.3032 60.8203 29.9202C60.7002 29.5371 60.4892 29.1888 60.2054 28.9048L56.7054 25.4048C56.4215 25.1209 56.0732 24.9099 55.6901 24.7897C55.307 24.6696 54.9005 24.6439 54.5054 24.7148C53.5425 24.9028 52.5969 25.1703 51.6784 25.5148L48.5654 24.2258C48.1589 23.3328 47.6792 22.4749 47.1314 21.6608C46.9018 21.33 46.5955 21.0598 46.2386 20.8732C45.8818 20.6867 45.485 20.5895 45.0824 20.5898H40.1294C39.7276 20.5897 39.3318 20.6867 38.9757 20.8727C38.6196 21.0587 38.3138 21.3281 38.0844 21.6578C37.5362 22.4717 37.0566 23.3296 36.6504 24.2228L33.5374 25.5118C32.6186 25.1679 31.6731 24.9003 30.7104 24.7118C30.3152 24.6412 29.9088 24.667 29.5258 24.7871C29.1427 24.9072 28.7944 25.1181 28.5104 25.4018L25.0104 28.9018C24.7265 29.1858 24.5155 29.5341 24.3954 29.9172C24.2752 30.3002 24.2495 30.7067 24.3204 31.1018C24.5083 32.0647 24.7759 33.0103 25.1204 33.9288L23.8314 37.0418C22.9383 37.4484 22.0804 37.928 21.2664 38.4758C20.9352 38.705 20.6646 39.0111 20.4777 39.3678C20.2909 39.7245 20.1933 40.1212 20.1934 40.5239V45.4768C20.1932 45.8786 20.2903 46.2744 20.4762 46.6305C20.6622 46.9866 20.9316 47.2924 21.2614 47.5219C22.0752 48.0701 22.9331 48.5497 23.8264 48.9558L25.1154 52.0688C24.7714 52.9876 24.5038 53.9331 24.3154 54.8958C24.2445 55.291 24.2702 55.6975 24.3904 56.0805C24.5105 56.4636 24.7215 56.8119 25.0054 57.0958L28.5054 60.5958C28.7893 60.8796 29.1377 61.0906 29.5207 61.2107C29.9038 61.3308 30.3102 61.3566 30.7054 61.2858C31.6682 61.0979 32.6138 60.8303 33.5324 60.4858L36.6454 61.7748C37.0519 62.6679 37.5315 63.5258 38.0794 64.3398C38.3088 64.6696 38.6146 64.939 38.9707 65.125C39.3268 65.311 39.7226 65.408 40.1244 65.4078H45.0774C45.4791 65.4079 45.8749 65.3108 46.231 65.1249C46.587 64.9389 46.8929 64.6696 47.1224 64.3398C47.6705 63.526 48.1502 62.668 48.5564 61.7748L51.6694 60.4858C52.5881 60.8298 53.5336 61.0974 54.4964 61.2858C54.8915 61.3567 55.298 61.331 55.681 61.2108C56.0641 61.0907 56.4125 60.8797 56.6964 60.5958L60.1964 57.0958C60.4802 56.8119 60.6912 56.4636 60.8113 56.0805C60.9315 55.6975 60.9572 55.291 60.8864 54.8958C60.6985 53.933 60.4309 52.9874 60.0864 52.0688L61.3754 48.9558C62.2684 48.5494 63.1264 48.0698 63.9404 47.5219C64.2701 47.2924 64.5395 46.9866 64.7255 46.6305C64.9115 46.2744 65.0085 45.8786 65.0084 45.4768V40.5239C65.0095 40.1229 64.9139 39.7276 64.7295 39.3716C64.5451 39.0155 64.2775 38.7093 63.9494 38.4789ZM42.6054 52.9608C40.6353 52.9608 38.7094 52.3767 37.0713 51.2821C35.4332 50.1876 34.1565 48.6319 33.4026 46.8118C32.6487 44.9916 32.4514 42.9888 32.8358 41.0566C33.2201 39.1243 34.1688 37.3494 35.5619 35.9564C36.9549 34.5633 38.7298 33.6146 40.6621 33.2302C42.5943 32.8459 44.5971 33.0431 46.4173 33.7971C48.2374 34.551 49.7931 35.8277 50.8876 37.4658C51.9822 39.1039 52.5664 41.0297 52.5664 42.9998C52.5664 44.3079 52.3087 45.6032 51.8081 46.8118C51.3075 48.0203 50.5738 49.1184 49.6488 50.0433C48.7239 50.9683 47.6258 51.702 46.4173 52.2026C45.2087 52.7032 43.9135 52.9608 42.6054 52.9608Z" fill="#037A80"/>
<path d="M77.6357 40.5098C76.9753 40.5098 76.3419 40.7721 75.875 41.2391C75.408 41.706 75.1457 42.3394 75.1457 42.9998C75.1449 50.4568 72.5839 57.6875 67.891 63.4826C63.198 69.2777 56.6576 73.2859 49.3637 74.8368C48.611 73.245 47.3201 71.9704 45.719 71.2379C44.1179 70.5054 42.3094 70.362 40.6129 70.8332C38.9164 71.3043 37.4409 72.3597 36.4468 73.813C35.4528 75.2663 35.0041 77.024 35.18 78.7759C35.3559 80.5279 36.145 82.1613 37.4081 83.388C38.6713 84.6146 40.3272 85.3556 42.0835 85.4801C43.8398 85.6046 45.5837 85.1046 47.0072 84.0684C48.4307 83.0322 49.4424 81.5264 49.8637 79.8168C58.3911 78.1341 66.0701 73.5434 71.5893 66.8287C77.1085 60.114 80.1257 51.6917 80.1257 42.9998C80.1257 42.3394 79.8633 41.706 79.3964 41.2391C78.9294 40.7721 78.2961 40.5098 77.6357 40.5098Z" fill="#037A80"/>
</g>
<defs>
<clipPath id="clip0_47_762">
<rect width="85" height="85" fill="white" transform="translate(0 0.5)"/>
</clipPath>
</defs>
</svg>
