<svg width="85" height="87" viewBox="0 0 85 87" fill="none" xmlns="http://www.w3.org/2000/svg">
<g clip-path="url(#clip0_47_806)">
<path d="M78.763 27.4361L45.863 47.1731C45.6975 47.2726 45.5606 47.4132 45.4655 47.5813C45.3704 47.7493 45.3202 47.939 45.32 48.1321V84.8981C45.32 85.0943 45.3717 85.2871 45.4698 85.457C45.568 85.6269 45.7091 85.768 45.8791 85.8661C46.049 85.9642 46.2418 86.0159 46.438 86.0159C46.6343 86.0159 46.827 85.9642 46.997 85.8661L79.897 66.8741C80.0666 66.7754 80.2074 66.634 80.3055 66.464C80.4035 66.294 80.4554 66.1013 80.456 65.9051V28.3891C80.4546 28.1919 80.4012 27.9985 80.3011 27.8286C80.201 27.6587 80.0578 27.5182 79.8859 27.4215C79.714 27.3248 79.5197 27.2752 79.3225 27.2777C79.1253 27.2803 78.9323 27.3349 78.763 27.4361ZM6.28397 27.4361C6.11423 27.333 5.92013 27.2769 5.72156 27.2736C5.52299 27.2703 5.32712 27.3199 5.15405 27.4173C4.98099 27.5148 4.83697 27.6565 4.73679 27.828C4.6366 27.9994 4.58387 28.1945 4.58398 28.3931V65.9061C4.58455 66.1023 4.63644 66.295 4.7345 66.465C4.83256 66.635 4.97338 66.7763 5.14298 66.8751L38.048 85.8631C38.2179 85.9614 38.4108 86.0133 38.6072 86.0134C38.8036 86.0136 38.9965 85.962 39.1666 85.8639C39.3367 85.7657 39.478 85.6245 39.5762 85.4545C39.6744 85.2844 39.726 85.0915 39.726 84.8951V48.1291C39.726 47.9362 39.6759 47.7467 39.5807 47.5789C39.4856 47.4112 39.3485 47.271 39.183 47.1721L6.28397 27.4361ZM26.366 61.4961L24.702 60.6041V66.2221C24.702 66.9761 24.089 67.2571 23.337 66.8551L19.083 64.5741C18.702 64.361 18.3785 64.0586 18.1404 63.6928C17.9022 63.3269 17.7566 62.9087 17.716 62.4741V56.8541L16.048 55.9611C14.878 55.3351 14.248 53.6241 15.017 53.1501L20.175 49.9721C20.719 49.6361 21.692 50.1581 22.235 51.0721L27.393 59.7811C28.163 61.0811 27.535 62.1181 26.365 61.4921L26.366 61.4961Z" fill="#037A80"/>
<path d="M55.3923 8.2748L43.0793 1.16479C42.9092 1.06706 42.7165 1.01563 42.5203 1.01562C42.3242 1.01563 42.1314 1.06706 41.9613 1.16479L8.66133 20.3968C8.49267 20.4942 8.35233 20.634 8.25417 20.8022C8.15601 20.9704 8.10343 21.1614 8.10161 21.3562C8.09979 21.5509 8.14879 21.7428 8.24379 21.9129C8.33879 22.0829 8.47651 22.2252 8.64333 22.3258L21.3543 29.9528C21.528 30.0572 21.7267 30.1123 21.9293 30.1123C22.1319 30.1123 22.3307 30.0572 22.5043 29.9528L55.4103 10.2048C55.5776 10.1045 55.7158 9.96218 55.8111 9.79201C55.9065 9.62183 55.9557 9.42969 55.9539 9.23463C55.9521 9.03958 55.8993 8.84839 55.8008 8.68002C55.7023 8.51166 55.5615 8.37196 55.3923 8.2748ZM77.6093 20.4368L72.0093 8.21579C71.9436 8.07283 71.8485 7.94533 71.7302 7.84161C71.6119 7.7379 71.4731 7.66029 71.3228 7.61386C71.1724 7.56743 71.014 7.55323 70.8578 7.57217C70.7016 7.59112 70.5512 7.64277 70.4163 7.72379L37.1123 27.7158C36.8805 27.8551 36.7072 28.0738 36.6244 28.3313C36.5417 28.5887 36.5552 28.8675 36.6623 29.1158L42.0193 41.4898C42.0824 41.6359 42.176 41.7669 42.2939 41.8739C42.4117 41.9808 42.5511 42.0614 42.7026 42.1101C42.8542 42.1587 43.0144 42.1744 43.1725 42.1561C43.3306 42.1378 43.483 42.0859 43.6193 42.0038L77.1743 21.8658C77.4102 21.7241 77.5854 21.5002 77.6664 21.2373C77.7474 20.9743 77.7285 20.6907 77.6133 20.4408L77.6093 20.4368Z" fill="#037A80"/>
</g>
<defs>
<clipPath id="clip0_47_806">
<rect width="85" height="86.033" fill="white" transform="translate(0 0.5)"/>
</clipPath>
</defs>
</svg>
