<svg width="85" height="86" viewBox="0 0 85 86" fill="none" xmlns="http://www.w3.org/2000/svg">
<g clip-path="url(#clip0_47_789)">
<path d="M84.2518 25.54L60.9318 1.32298C60.5594 0.936825 60.0801 0.670792 59.5554 0.559038C59.0307 0.447283 58.4846 0.494906 57.9872 0.695793C57.4897 0.896681 57.0637 1.24166 56.7637 1.68645C56.4638 2.13123 56.3036 2.65551 56.3038 3.19198V14.852H55.4038C46.1298 14.8626 37.2387 18.5513 30.6809 25.1091C24.1232 31.6668 20.4344 40.558 20.4238 49.832V55.213C20.4291 55.8167 20.6401 56.4006 21.0218 56.8684C21.4036 57.3361 21.9334 57.6598 22.5238 57.786C22.7174 57.8345 22.9163 57.8587 23.1158 57.858C23.6265 57.8525 24.1258 57.7067 24.5592 57.4365C24.9925 57.1663 25.3432 56.7821 25.5728 56.326C28.0152 51.3978 31.7899 47.2528 36.4686 44.3611C41.1472 41.4694 46.5427 39.9468 52.0428 39.966H56.3048V51.626C56.3052 52.1622 56.4658 52.6861 56.766 53.1304C57.0662 53.5747 57.4922 53.9192 57.9895 54.1197C58.4868 54.3202 59.0327 54.3676 59.5571 54.2558C60.0816 54.1439 60.5606 53.8779 60.9328 53.492L84.2528 29.275C84.7362 28.7735 85.0063 28.104 85.0063 27.4075C85.0063 26.7109 84.7352 26.0415 84.2518 25.54Z" fill="#037A80"/>
<path d="M74.379 85.5016H10.629C7.81515 85.5029 5.11569 84.3879 3.123 82.4012C1.1303 80.4145 0.00715086 77.7185 0 74.9046L0 25.4496C0.00635619 22.6359 1.12861 19.9397 3.12052 17.9525C5.11244 15.9652 7.81132 14.8493 10.625 14.8496H21.254C22.1806 14.8652 23.0639 15.2442 23.7137 15.905C24.3634 16.5658 24.7276 17.4554 24.7276 18.3821C24.7276 19.3088 24.3634 20.1984 23.7137 20.8592C23.0639 21.52 22.1806 21.899 21.254 21.9146H10.629C9.69092 21.9138 8.7909 22.2855 8.12673 22.948C7.46256 23.6105 7.08859 24.5095 7.087 25.4476V74.9016C7.08859 75.8397 7.46256 76.7388 8.12673 77.4012C8.7909 78.0637 9.69092 78.4354 10.629 78.4346H74.379C75.3169 78.4351 76.2167 78.0633 76.8806 77.4009C77.5446 76.7384 77.9184 75.8395 77.92 74.9016V46.6446C77.92 45.7052 78.2932 44.8043 78.9574 44.14C79.6217 43.4758 80.5226 43.1026 81.462 43.1026C82.4014 43.1026 83.3023 43.4758 83.9666 44.14C84.6308 44.8043 85.004 45.7052 85.004 46.6446V74.9036C84.9976 77.7173 83.8754 80.4135 81.8835 82.4008C79.8916 84.388 77.1927 85.5039 74.379 85.5036V85.5016Z" fill="#037A80"/>
</g>
<defs>
<clipPath id="clip0_47_789">
<rect width="85.004" height="85.004" fill="white" transform="translate(0 0.5)"/>
</clipPath>
</defs>
</svg>
