<svg width="85" height="87" viewBox="0 0 85 87" fill="none" xmlns="http://www.w3.org/2000/svg">
<g clip-path="url(#clip0_47_708)">
<path d="M57.2965 45.9238C53.2618 45.9238 49.3176 47.1203 45.9628 49.3619C42.6081 51.6034 39.9934 54.7895 38.4494 58.5171C36.9053 62.2447 36.5013 66.3465 37.2885 70.3037C38.0756 74.2609 40.0185 77.8958 42.8715 80.7488C45.7245 83.6018 49.3594 85.5447 53.3166 86.3318C57.2739 87.119 61.3756 86.715 65.1032 85.171C68.8308 83.6269 72.0169 81.0122 74.2585 77.6575C76.5001 74.3027 77.6965 70.3586 77.6965 66.3238C77.6965 60.9134 75.5472 55.7246 71.7215 51.8988C67.8957 48.0731 62.7069 45.9238 57.2965 45.9238ZM56.2965 62.7078L60.9035 65.0788C62.2346 65.7507 63.3145 66.8327 63.9838 68.1651C64.6531 69.4976 64.8763 71.0099 64.6205 72.4788C64.4507 73.6122 63.9959 74.6838 63.2987 75.5933C62.6015 76.5028 61.6848 77.2204 60.6345 77.6788V78.2928C60.6345 79.0442 60.336 79.7648 59.8047 80.2961C59.2734 80.8274 58.5529 81.1258 57.8015 81.1258C57.0501 81.1258 56.3296 80.8274 55.7983 80.2961C55.267 79.7648 54.9685 79.0442 54.9685 78.2928V77.8648C53.8498 77.4945 52.8219 76.8923 51.9519 76.0976C51.0819 75.3028 50.3893 74.3335 49.9195 73.2528C49.6202 72.5633 49.6071 71.783 49.883 71.0838C50.159 70.3846 50.7014 69.8236 51.391 69.5243C52.0805 69.225 52.8608 69.2119 53.56 69.4879C54.2592 69.7638 54.8202 70.3063 55.1195 70.9958C55.3487 71.5191 55.7361 71.9574 56.2271 72.2492C56.7182 72.541 57.2884 72.6717 57.8575 72.6228C58.1454 72.6186 58.4221 72.511 58.6373 72.3198C58.8524 72.1285 58.9916 71.8662 59.0295 71.5808C59.0858 71.2921 59.0465 70.9929 58.9177 70.7284C58.7889 70.4639 58.5775 70.2486 58.3155 70.1148L53.7085 67.7438C52.3589 67.0548 51.27 65.9456 50.606 64.5835C49.942 63.2215 49.739 61.6804 50.0275 60.1928C50.2452 58.9097 50.8271 57.7161 51.7038 56.7542C52.5804 55.7922 53.715 55.1024 54.9725 54.7668V54.3448C54.9725 53.5935 55.271 52.8729 55.8023 52.3416C56.3336 51.8103 57.0541 51.5118 57.8055 51.5118C58.5569 51.5118 59.2774 51.8103 59.8087 52.3416C60.34 52.8729 60.6385 53.5935 60.6385 54.3448V55.3918C62.4417 56.2486 63.8756 57.7266 64.6775 59.5548C64.9775 60.2444 64.9912 61.0249 64.7157 61.7246C64.4402 62.4243 63.898 62.9859 63.2085 63.2858C62.5189 63.5858 61.7384 63.5995 61.0387 63.3241C60.339 63.0486 59.7775 62.5064 59.4775 61.8168C59.2495 61.2925 58.8625 60.853 58.3712 60.5605C57.8799 60.268 57.3091 60.1373 56.7395 60.1868C56.4563 60.1996 56.1866 60.311 55.977 60.5019C55.7675 60.6928 55.6315 60.9511 55.5925 61.2318C55.5236 61.5218 55.556 61.8266 55.6842 62.0956C55.8125 62.3647 56.0289 62.5817 56.2975 62.7108L56.2965 62.7078Z" fill="#037A80"/>
<path d="M63.0882 1.99616L58.0682 4.70616C57.7347 4.88507 57.3622 4.97871 56.9837 4.97871C56.6053 4.97871 56.2327 4.88507 55.8992 4.70616L48.6132 0.774162C48.2797 0.594212 47.9067 0.5 47.5277 0.5C47.1487 0.5 46.7757 0.594212 46.4422 0.774162L39.1722 4.70416C38.8387 4.88411 38.4657 4.97832 38.0867 4.97832C37.7077 4.97832 37.3347 4.88411 37.0012 4.70416L29.7332 0.777161C29.4 0.596163 29.0269 0.50135 28.6477 0.50135C28.2685 0.50135 27.8954 0.596163 27.5622 0.777161L20.2962 4.70416C19.9625 4.88464 19.5891 4.97914 19.2097 4.97914C18.8303 4.97914 18.4569 4.88464 18.1232 4.70416L13.1372 2.00417C12.7937 1.8161 12.4072 1.72029 12.0156 1.72607C11.624 1.73186 11.2406 1.83904 10.9028 2.03717C10.5649 2.2353 10.2842 2.51761 10.088 2.85656C9.8918 3.19551 9.78677 3.57953 9.7832 3.97116V75.8502C9.78662 76.2417 9.8914 76.6256 10.0874 76.9646C10.2833 77.3035 10.5638 77.5859 10.9014 77.7842C11.239 77.9826 11.6222 78.09 12.0137 78.0961C12.4052 78.1022 12.7916 78.0068 13.1352 77.8192L18.1552 75.1122C18.4883 74.9322 18.861 74.838 19.2397 74.838C19.6183 74.838 19.991 74.9322 20.3242 75.1122L27.6102 79.0422C27.9437 79.2221 28.3167 79.3163 28.6957 79.3163C29.0747 79.3163 29.4477 79.2221 29.7812 79.0422L34.0512 76.7342C32.6197 73.4978 31.8802 69.998 31.8802 66.4592C31.9179 62.3281 32.9383 58.2654 34.8571 54.6068C36.7758 50.9482 39.5377 47.7988 42.9146 45.419C46.2915 43.0392 50.1863 41.4972 54.2771 40.9206C58.3678 40.3441 62.5371 40.7494 66.4402 42.1032V3.96616C66.4367 3.57468 66.3318 3.19077 66.1358 2.85184C65.9399 2.51292 65.6595 2.23052 65.3219 2.03215C64.9844 1.83378 64.6013 1.72621 64.2098 1.7199C63.8184 1.7136 63.4319 1.80877 63.0882 1.99616ZM24.5132 56.4702H21.1132C20.3695 56.4702 19.6563 56.1747 19.1305 55.6489C18.6046 55.123 18.3092 54.4098 18.3092 53.6662C18.3092 52.9225 18.6046 52.2093 19.1305 51.6834C19.6563 51.1576 20.3695 50.8622 21.1132 50.8622H24.5132C25.2569 50.8622 25.9701 51.1576 26.4959 51.6834C27.0218 52.2093 27.3172 52.9225 27.3172 53.6662C27.3172 54.4098 27.0218 55.123 26.4959 55.6489C25.9701 56.1747 25.2569 56.4702 24.5132 56.4702ZM31.1492 45.2552H21.1142C20.3707 45.2552 19.6576 44.9598 19.1318 44.434C18.6061 43.9083 18.3107 43.1952 18.3107 42.4517C18.3107 41.7081 18.6061 40.995 19.1318 40.4693C19.6576 39.9435 20.3707 39.6482 21.1142 39.6482H31.1492C31.8927 39.6482 32.6058 39.9435 33.1316 40.4693C33.6573 40.995 33.9527 41.7081 33.9527 42.4517C33.9527 43.1952 33.6573 43.9083 33.1316 44.434C32.6058 44.9598 31.8927 45.2552 31.1492 45.2552ZM54.5492 34.0402H21.1072C20.3635 34.0402 19.6503 33.7447 19.1245 33.2189C18.5986 32.693 18.3032 31.9798 18.3032 31.2362C18.3032 30.4925 18.5986 29.7793 19.1245 29.2534C19.6503 28.7276 20.3635 28.4322 21.1072 28.4322H54.5472C55.2909 28.4322 56.0041 28.7276 56.5299 29.2534C57.0558 29.7793 57.3512 30.4925 57.3512 31.2362C57.3512 31.9798 57.0558 32.693 56.5299 33.2189C56.0041 33.7447 55.2909 34.0402 54.5472 34.0402H54.5492ZM54.5492 22.8252H21.1072C20.3637 22.8252 19.6506 22.5298 19.1248 22.004C18.5991 21.4783 18.3037 20.7652 18.3037 20.0217C18.3037 19.2781 18.5991 18.565 19.1248 18.0393C19.6506 17.5135 20.3637 17.2182 21.1072 17.2182H54.5472C55.2907 17.2182 56.0038 17.5135 56.5296 18.0393C57.0553 18.565 57.3507 19.2781 57.3507 20.0217C57.3507 20.7652 57.0553 21.4783 56.5296 22.004C56.0038 22.5298 55.2907 22.8252 54.5472 22.8252H54.5492Z" fill="#037A80"/>
</g>
<defs>
<clipPath id="clip0_47_708">
<rect width="85" height="86.223" fill="white" transform="translate(0 0.5)"/>
</clipPath>
</defs>
</svg>
