<svg width="85" height="86" viewBox="0 0 85 86" fill="none" xmlns="http://www.w3.org/2000/svg">
<g clip-path="url(#clip0_47_733)">
<path d="M42.5177 0.5C33.6865 8.49087 22.1782 12.8767 10.2687 12.79C10.2687 12.79 10.2246 48.532 10.2246 53.79C10.2246 62.363 16.0247 71.279 42.5177 85.505C67.7257 71.968 74.6677 62.363 74.6677 53.79C74.6677 47.339 74.7677 12.79 74.7677 12.79C62.8579 12.8771 51.3491 8.49118 42.5177 0.5ZM32.3176 26.0591C32.3163 26.004 32.319 25.9488 32.3257 25.894C32.6065 23.4502 33.7762 21.195 35.6122 19.5579C37.4482 17.9207 39.8223 17.016 42.2822 17.016C44.7421 17.016 47.1161 17.9207 48.9521 19.5579C50.7882 21.195 51.9579 23.4502 52.2386 25.894C52.2436 25.949 52.2467 26.0041 52.2467 26.0591V32.119H48.7076V26.1481C48.4918 24.5988 47.7231 23.1799 46.5432 22.153C45.3633 21.126 43.8519 20.5604 42.2877 20.5604C40.7235 20.5604 39.212 21.126 38.0321 22.153C36.8522 23.1799 36.0835 24.5988 35.8677 26.1481V32.119H32.3236L32.3176 26.0591ZM57.9177 60.248C57.9177 60.9462 57.7802 61.6374 57.5131 62.2823C57.2459 62.9273 56.8542 63.5133 56.3606 64.007C55.867 64.5006 55.281 64.8923 54.636 65.1594C53.991 65.4266 53.2998 65.5641 52.6017 65.5641H31.9667C31.2686 65.5641 30.5773 65.4266 29.9324 65.1594C29.2874 64.8923 28.7013 64.5006 28.2076 64.007C27.714 63.5133 27.3225 62.9273 27.0553 62.2823C26.7881 61.6374 26.6506 60.9462 26.6506 60.248V41.157C26.6506 39.7471 27.2107 38.395 28.2076 37.3981C29.2046 36.4011 30.5568 35.8411 31.9667 35.8411H52.6077C54.0176 35.8411 55.3698 36.4011 56.3667 37.3981C57.3636 38.395 57.9237 39.7471 57.9237 41.157L57.9177 60.248Z" fill="#037A80"/>
<path d="M42.4947 44.5353C41.6643 44.5286 40.8586 44.8175 40.2215 45.3502C39.5845 45.883 39.1576 46.6248 39.0172 47.4433C38.8768 48.2618 39.032 49.1036 39.4551 49.8182C39.8781 50.5328 40.5416 51.0737 41.3268 51.3442V55.8672C41.3222 56.0234 41.349 56.1789 41.4056 56.3246C41.4622 56.4702 41.5475 56.603 41.6564 56.7151C41.7652 56.8272 41.8955 56.9163 42.0394 56.9772C42.1833 57.038 42.338 57.0693 42.4942 57.0693C42.6505 57.0693 42.8052 57.038 42.9491 56.9772C43.093 56.9163 43.2233 56.8272 43.3321 56.7151C43.441 56.603 43.5263 56.4702 43.5829 56.3246C43.6395 56.1789 43.6663 56.0234 43.6617 55.8672V51.3442C44.4468 51.0737 45.1102 50.533 45.5333 49.8185C45.9564 49.104 46.1116 48.2623 45.9713 47.4438C45.831 46.6254 45.4044 45.8835 44.7676 45.3507C44.1307 44.8179 43.3251 44.5289 42.4947 44.5353Z" fill="#037A80"/>
</g>
<defs>
<clipPath id="clip0_47_733">
<rect width="85" height="85.006" fill="white" transform="translate(0 0.5)"/>
</clipPath>
</defs>
</svg>
