<svg width="85" height="86" viewBox="0 0 85 86" fill="none" xmlns="http://www.w3.org/2000/svg">
<g clip-path="url(#clip0_47_721)">
<path d="M24.9188 65.8552C24.7506 65.5702 24.4768 65.363 24.1568 65.2788C23.8368 65.1945 23.4965 65.2399 23.2098 65.4052L20.0788 67.2222V63.6052C20.0696 63.282 19.9348 62.9752 19.7029 62.7498C19.4711 62.5245 19.1606 62.3984 18.8373 62.3984C18.514 62.3984 18.2034 62.5245 17.9716 62.7498C17.7398 62.9752 17.6049 63.282 17.5958 63.6052V67.2222L14.4648 65.4052C14.3229 65.3198 14.1655 65.2635 14.0017 65.2395C13.8379 65.2155 13.6709 65.2242 13.5105 65.2653C13.3501 65.3063 13.1995 65.3788 13.0673 65.4785C12.9352 65.5782 12.8242 65.7032 12.7407 65.8462C12.6573 65.9892 12.6031 66.1473 12.5812 66.3115C12.5594 66.4756 12.5704 66.6424 12.6136 66.8022C12.6567 66.962 12.7312 67.1117 12.8327 67.2425C12.9342 67.3733 13.0607 67.4827 13.2048 67.5642L16.3538 69.3992L13.2048 71.2342C13.0607 71.3157 12.9342 71.4251 12.8327 71.5559C12.7312 71.6867 12.6567 71.8364 12.6136 71.9962C12.5704 72.156 12.5594 72.3228 12.5812 72.4869C12.6031 72.6511 12.6573 72.8092 12.7407 72.9522C12.8242 73.0952 12.9352 73.2202 13.0673 73.3199C13.1995 73.4196 13.3501 73.4921 13.5105 73.5331C13.6709 73.5742 13.8379 73.5829 14.0017 73.5589C14.1655 73.5349 14.3229 73.4785 14.4648 73.3932L17.5958 71.5762V75.1932C17.591 75.3592 17.6197 75.5245 17.6799 75.6792C17.7402 75.8339 17.8309 75.975 17.9467 76.0941C18.0624 76.2132 18.2009 76.3079 18.3538 76.3725C18.5068 76.4371 18.6712 76.4704 18.8373 76.4704C19.0033 76.4704 19.1677 76.4371 19.3207 76.3725C19.4737 76.3079 19.6121 76.2132 19.7279 76.0941C19.8436 75.975 19.9343 75.8339 19.9946 75.6792C20.0548 75.5245 20.0835 75.3592 20.0788 75.1932V71.5762L23.2098 73.3932C23.3516 73.4785 23.509 73.5349 23.6728 73.5589C23.8366 73.5829 24.0036 73.5742 24.164 73.5331C24.3244 73.4921 24.475 73.4196 24.6072 73.3199C24.7393 73.2202 24.8504 73.0952 24.9338 72.9522C25.0173 72.8092 25.0715 72.6511 25.0933 72.4869C25.1151 72.3228 25.1041 72.156 25.061 71.9962C25.0178 71.8364 24.9433 71.6867 24.8418 71.5559C24.7403 71.4251 24.6139 71.3157 24.4698 71.2342L21.3188 69.3962L24.4678 67.5612C24.6097 67.479 24.7339 67.3697 24.8335 67.2394C24.933 67.1091 25.0058 66.9604 25.0477 66.8019C25.0896 66.6434 25.0998 66.4781 25.0777 66.3157C25.0555 66.1532 25.0015 65.9967 24.9188 65.8552Z" fill="#037A80"/>
<path d="M36.4183 72.9238C36.5864 73.2088 36.8602 73.416 37.1802 73.5002C37.5002 73.5845 37.8406 73.5391 38.1272 73.3738L41.2582 71.5568V75.1738C41.2535 75.3398 41.2822 75.5051 41.3424 75.6599C41.4027 75.8146 41.4934 75.9557 41.6092 76.0747C41.7249 76.1938 41.8634 76.2885 42.0163 76.3531C42.1693 76.4178 42.3337 76.4511 42.4997 76.4511C42.6658 76.4511 42.8302 76.4178 42.9832 76.3531C43.1361 76.2885 43.2746 76.1938 43.3903 76.0747C43.5061 75.9557 43.5968 75.8146 43.6571 75.6599C43.7173 75.5051 43.746 75.3398 43.7412 75.1738V71.5568L46.8722 73.3738C47.0141 73.4592 47.1715 73.5155 47.3353 73.5396C47.4991 73.5636 47.6661 73.5548 47.8265 73.5138C47.9869 73.4727 48.1375 73.4003 48.2697 73.3005C48.4018 73.2008 48.5128 73.0758 48.5963 72.9328C48.6797 72.7898 48.734 72.6317 48.7558 72.4676C48.7776 72.3034 48.7666 72.1366 48.7234 71.9768C48.6803 71.817 48.6058 71.6673 48.5043 71.5365C48.4028 71.4057 48.2763 71.2964 48.1323 71.2148L44.9833 69.3798L48.1323 67.5448C48.2763 67.4633 48.4028 67.354 48.5043 67.2232C48.6058 67.0924 48.6803 66.9427 48.7234 66.7829C48.7666 66.623 48.7776 66.4562 48.7558 66.2921C48.734 66.128 48.6797 65.9698 48.5963 65.8268C48.5128 65.6839 48.4018 65.5589 48.2697 65.4591C48.1375 65.3594 47.9869 65.2869 47.8265 65.2459C47.6661 65.2049 47.4991 65.1961 47.3353 65.2201C47.1715 65.2441 47.0141 65.3005 46.8722 65.3858L43.7412 67.2029V63.5858C43.746 63.4198 43.7173 63.2546 43.6571 63.0998C43.5968 62.9451 43.5061 62.804 43.3903 62.6849C43.2746 62.5658 43.1361 62.4712 42.9832 62.4065C42.8302 62.3419 42.6658 62.3086 42.4997 62.3086C42.3337 62.3086 42.1693 62.3419 42.0163 62.4065C41.8634 62.4712 41.7249 62.5658 41.6092 62.6849C41.4934 62.804 41.4027 62.9451 41.3424 63.0998C41.2822 63.2546 41.2535 63.4198 41.2582 63.5858V67.2029L38.1272 65.4028C37.8415 65.2453 37.5055 65.2058 37.191 65.2927C36.8764 65.3796 36.6084 65.586 36.444 65.8679C36.2796 66.1497 36.232 66.4847 36.3113 66.8012C36.3905 67.1177 36.5904 67.3907 36.8682 67.5618L40.0172 69.3969L36.8682 71.2138C36.583 71.382 36.3756 71.656 36.2914 71.9762C36.2071 72.2965 36.2527 72.637 36.4183 72.9238Z" fill="#037A80"/>
<path d="M34.1856 82.3525V84.5524C34.1871 84.805 34.2882 85.0467 34.4667 85.2253C34.6453 85.4039 34.887 85.5049 35.1396 85.5065H49.8756C50.1281 85.5049 50.3698 85.4039 50.5484 85.2253C50.727 85.0467 50.828 84.805 50.8296 84.5524V82.3525C50.828 82.0999 50.727 81.8582 50.5484 81.6796C50.3698 81.501 50.1281 81.4 49.8756 81.3985H35.1396C35.0141 81.3977 34.8897 81.4218 34.7735 81.4694C34.6574 81.5171 34.552 81.5874 34.4632 81.6761C34.3745 81.7649 34.3042 81.8703 34.2566 81.9864C34.2089 82.1025 34.1848 82.227 34.1856 82.3525Z" fill="#037A80"/>
<path d="M57.9548 20.996H57.8488V16.106C57.8488 7.59502 50.8858 0.36202 42.3928 0.50602C38.4075 0.580555 34.6101 2.2136 31.8146 5.05502C29.0192 7.89644 27.4483 11.72 27.4388 15.706V16.174C27.4399 16.5125 27.5747 16.8368 27.8139 17.0762C28.0532 17.3156 28.3774 17.4507 28.7158 17.452H32.7998C33.1383 17.4507 33.4625 17.3156 33.7017 17.0762C33.9409 16.8368 34.0758 16.5125 34.0768 16.174V16.03C34.0441 13.8134 34.8515 11.6665 36.3369 10.0209C37.8223 8.37526 39.8754 7.3528 42.0838 7.15902C43.2498 7.08575 44.4185 7.25186 45.5179 7.64712C46.6173 8.04238 47.6242 8.65843 48.4766 9.45737C49.329 10.2563 50.0089 11.2212 50.4745 12.2927C50.9401 13.3643 51.1815 14.5197 51.1838 15.688V20.978H38.5838V20.996H26.9488C25.9076 21.0256 24.9186 21.4588 24.1909 22.2041C23.4631 22.9494 23.0536 23.9484 23.0488 24.99V47.122C23.0499 48.1857 23.4729 49.2056 24.2251 49.9578C24.9772 50.7099 25.9971 51.133 27.0608 51.134H57.9368C59.0006 51.133 60.0204 50.7099 60.7726 49.9578C61.5247 49.2056 61.9478 48.1857 61.9488 47.122V25.006C61.9516 24.48 61.8503 23.9586 61.6508 23.4719C61.4512 22.9852 61.1574 22.5427 60.7862 22.17C60.4149 21.7973 59.9737 21.5017 59.4877 21.3002C59.0018 21.0987 58.4809 20.9954 57.9548 20.996ZM44.8918 37.064C44.7569 37.149 44.6481 37.2696 44.5775 37.4126C44.5069 37.5555 44.4773 37.7152 44.4918 37.874C44.5098 39.493 44.5098 41.113 44.4918 42.75C44.5155 43.0827 44.4411 43.4151 44.278 43.706C44.1148 43.9969 43.87 44.2337 43.5738 44.387C43.2858 44.5517 42.9597 44.6381 42.6279 44.6376C42.2961 44.6371 41.9702 44.5497 41.6827 44.3841C41.3952 44.2186 41.156 43.9806 40.989 43.6939C40.822 43.4072 40.733 43.0818 40.7308 42.75V37.856C40.7445 37.7067 40.7184 37.5564 40.6552 37.4205C40.5919 37.2845 40.4938 37.1678 40.3708 37.082C39.6654 36.583 39.1569 35.8527 38.9335 35.018C38.7101 34.1833 38.786 33.2967 39.1478 32.512C39.5007 31.7271 40.1106 31.0859 40.8769 30.6943C41.6432 30.3027 42.5202 30.1841 43.363 30.3581C44.2058 30.5321 44.9642 30.9882 45.5128 31.6512C46.0615 32.3143 46.3676 33.1445 46.3808 34.005C46.4205 34.6004 46.304 35.1959 46.0429 35.7324C45.7817 36.2689 45.3849 36.728 44.8918 37.064Z" fill="#037A80"/>
<path d="M57.8301 82.3524V84.5524C57.8317 84.805 57.9327 85.0467 58.1112 85.2253C58.2898 85.4039 58.5316 85.5049 58.7841 85.5064H73.5201C73.7726 85.5049 74.0144 85.4039 74.1929 85.2253C74.3715 85.0467 74.4725 84.805 74.4741 84.5524V82.3524C74.4725 82.0999 74.3715 81.8582 74.1929 81.6796C74.0144 81.501 73.7726 81.4 73.5201 81.3984H58.7841C58.5316 81.4 58.2898 81.501 58.1112 81.6796C57.9327 81.8582 57.8317 82.0999 57.8301 82.3524Z" fill="#037A80"/>
<path d="M60.0604 72.9238C60.2285 73.2088 60.5023 73.416 60.8224 73.5002C61.1424 73.5845 61.4827 73.5391 61.7694 73.3738L64.9004 71.5568V75.1738C64.9096 75.497 65.0444 75.8039 65.2762 76.0292C65.508 76.2545 65.8186 76.3806 66.1419 76.3806C66.4652 76.3806 66.7757 76.2545 67.0076 76.0292C67.2394 75.8039 67.3742 75.497 67.3834 75.1738V71.5568L70.5144 73.3738C70.8002 73.5314 71.1362 73.5709 71.4507 73.484C71.7652 73.3971 72.0333 73.1907 72.1977 72.9088C72.362 72.6269 72.4097 72.292 72.3304 71.9755C72.2511 71.6589 72.0512 71.386 71.7734 71.2148L68.6244 69.3798L71.7734 67.5448C72.0512 67.3737 72.2511 67.1007 72.3304 66.7842C72.4097 66.4677 72.362 66.1327 72.1977 65.8508C72.0333 65.569 71.7652 65.3626 71.4507 65.2757C71.1362 65.1888 70.8002 65.2283 70.5144 65.3858L67.3834 67.2029V63.5858C67.3881 63.4198 67.3595 63.2546 67.2992 63.0998C67.2389 62.9451 67.1482 62.804 67.0325 62.6849C66.9167 62.5658 66.7783 62.4712 66.6253 62.4065C66.4724 62.3419 66.308 62.3086 66.1419 62.3086C65.9758 62.3086 65.8114 62.3419 65.6585 62.4065C65.5055 62.4712 65.3671 62.5658 65.2513 62.6849C65.1356 62.804 65.0449 62.9451 64.9846 63.0998C64.9243 63.2546 64.8957 63.4198 64.9004 63.5858V67.2029L61.7694 65.3858C61.4836 65.2283 61.1476 65.1888 60.8331 65.2757C60.5186 65.3626 60.2505 65.569 60.0861 65.8508C59.9218 66.1327 59.8741 66.4677 59.9534 66.7842C60.0327 67.1007 60.2326 67.3737 60.5104 67.5448L63.6594 69.3798L60.5104 71.2148C60.2254 71.383 60.0182 71.6568 59.934 71.9768C59.8497 72.2968 59.8951 72.6371 60.0604 72.9238Z" fill="#037A80"/>
<path d="M11.4794 85.5006H26.2154C26.4679 85.499 26.7097 85.398 26.8882 85.2194C27.0668 85.0409 27.1678 84.7991 27.1694 84.5466V82.3466C27.1678 82.0941 27.0668 81.8523 26.8882 81.6737C26.7097 81.4952 26.4679 81.3942 26.2154 81.3926H11.4794C11.2258 81.3942 10.9832 81.496 10.8044 81.6759C10.6257 81.8557 10.5254 82.099 10.5254 82.3526V84.5526C10.5285 84.8041 10.6302 85.0443 10.8086 85.2216C10.987 85.3988 11.2279 85.499 11.4794 85.5006Z" fill="#037A80"/>
</g>
<defs>
<clipPath id="clip0_47_721">
<rect width="85" height="85.006" fill="white" transform="translate(0 0.5)"/>
</clipPath>
</defs>
</svg>
