<svg width="85" height="86" viewBox="0 0 85 86" fill="none" xmlns="http://www.w3.org/2000/svg">
<g clip-path="url(#clip0_47_653)">
<path d="M0.00195313 51.0524V61.0364C0.00195313 63.4636 0.966179 65.7915 2.68251 67.5078C4.39884 69.2242 6.72669 70.1884 9.15395 70.1884H14.146C14.809 70.1884 15.4449 69.925 15.9137 69.4561C16.3826 68.9873 16.646 68.3514 16.646 67.6884V41.9004H9.15395C6.72669 41.9004 4.39884 42.8646 2.68251 44.5809C0.966179 46.2973 0.00195313 48.6251 0.00195313 51.0524Z" fill="#037A80"/>
<path d="M58.2108 49.388V36.076C58.2089 34.5319 57.5947 33.0516 56.5029 31.9598C55.4111 30.868 53.9308 30.2538 52.3867 30.252H32.4178C30.8737 30.2538 29.3934 30.868 28.3016 31.9598C27.2098 33.0516 26.5956 34.5319 26.5938 36.076V49.388C26.5956 50.932 27.2098 52.4123 28.3016 53.5041C29.3934 54.5959 30.8737 55.2101 32.4178 55.212H38.1698L47.4597 62.9539C47.8247 63.256 48.2679 63.4481 48.7378 63.508C49.2077 63.5679 49.6849 63.493 50.1139 63.2921C50.5429 63.0913 50.906 62.7726 51.1609 62.3734C51.4158 61.9741 51.5521 61.5107 51.5538 61.037V55.212H52.3858C53.93 55.2104 55.4105 54.5963 56.5025 53.5045C57.5946 52.4126 58.2089 50.9322 58.2108 49.388ZM45.7307 45.228H39.0737C38.7341 45.2472 38.3941 45.1969 38.0745 45.0802C37.755 44.9634 37.4626 44.7827 37.2153 44.549C36.9681 44.3153 36.7711 44.0337 36.6364 43.7212C36.5018 43.4088 36.4324 43.0722 36.4324 42.7319C36.4324 42.3917 36.5018 42.0551 36.6364 41.7427C36.7711 41.4302 36.9681 41.1486 37.2153 40.9149C37.4626 40.6812 37.755 40.5005 38.0745 40.3837C38.3941 40.267 38.7341 40.2167 39.0737 40.2359H45.7298C46.0694 40.2167 46.4094 40.267 46.729 40.3837C47.0485 40.5005 47.3409 40.6812 47.5882 40.9149C47.8355 41.1486 48.0324 41.4302 48.1671 41.7427C48.3017 42.0551 48.3711 42.3917 48.3711 42.7319C48.3711 43.0722 48.3017 43.4088 48.1671 43.7212C48.0324 44.0337 47.8355 44.3153 47.5882 44.549C47.3409 44.7827 47.0485 44.9634 46.729 45.0802C46.4094 45.1969 46.0704 45.2472 45.7307 45.228Z" fill="#037A80"/>
<path d="M33.25 80.5057C33.25 81.8296 33.7759 83.0994 34.7121 84.0356C35.6483 84.9717 36.918 85.4977 38.242 85.4977H46.562C47.886 85.4977 49.1557 84.9717 50.0919 84.0356C51.0281 83.0994 51.554 81.8296 51.554 80.5057C51.554 79.1817 51.0281 77.912 50.0919 76.9758C49.1557 76.0396 47.886 75.5137 46.562 75.5137H38.242C36.918 75.5137 35.6483 76.0396 34.7121 76.9758C33.7759 77.912 33.25 79.1817 33.25 80.5057Z" fill="#037A80"/>
<path d="M70.0247 75.1816V75.6816C70.0247 76.3447 69.7613 76.9806 69.2924 77.4494C68.8236 77.9182 68.1877 78.1816 67.5247 78.1816H56.2657C56.6624 79.8258 56.6328 81.5441 56.1797 83.1736H67.5257C69.5107 83.1705 71.4134 82.3805 72.817 80.977C74.2206 79.5734 75.0105 77.6706 75.0137 75.6856V75.1816H70.0247Z" fill="#037A80"/>
<path d="M75.8493 41.9004H68.3613V67.6924C68.3613 68.3554 68.6247 68.9913 69.0936 69.4601C69.5624 69.929 70.1983 70.1924 70.8613 70.1924H75.8533C78.2806 70.1924 80.6084 69.2282 82.3248 67.5118C84.0411 65.7955 85.0053 63.4677 85.0053 61.0404V51.0564C85.0059 49.8539 84.7694 48.663 84.3094 47.5519C83.8495 46.4408 83.1751 45.4313 82.3248 44.5809C81.4745 43.7306 80.4649 43.0562 79.3538 42.5963C78.2427 42.1363 77.0519 41.8999 75.8493 41.9004Z" fill="#037A80"/>
<path d="M67.8473 11.0273C62.8302 6.01041 56.4371 2.59533 49.4776 1.21459C42.5182 -0.166151 35.3055 0.549577 28.7531 3.27112C22.2008 5.99266 16.6035 10.5976 12.6702 16.5026C8.73692 22.4077 6.64461 29.3472 6.65827 36.4423V37.1083H16.6153V36.4423C16.6153 33.0428 17.2849 29.6765 18.5858 26.5358C19.8867 23.395 21.7936 20.5413 24.1974 18.1374C26.6012 15.7336 29.455 13.8268 32.5957 12.5258C35.7365 11.2249 39.1027 10.5553 42.5023 10.5553C45.9018 10.5553 49.268 11.2249 52.4088 12.5258C55.5496 13.8268 58.4033 15.7336 60.8071 18.1374C63.211 20.5413 65.1178 23.395 66.4187 26.5358C67.7197 29.6765 68.3893 33.0428 68.3893 36.4423V37.1083H78.3453V36.4423C78.3589 31.7227 77.4381 27.0471 75.636 22.6851C73.8339 18.3231 71.1861 14.361 67.8453 11.0273H67.8473Z" fill="#037A80"/>
</g>
<defs>
<clipPath id="clip0_47_653">
<rect width="85.004" height="85" fill="white" transform="translate(0 0.5)"/>
</clipPath>
</defs>
</svg>
