<svg width="85" height="86" viewBox="0 0 85 86" fill="none" xmlns="http://www.w3.org/2000/svg">
<g clip-path="url(#clip0_47_702)">
<path d="M54.037 46.5452C53.0901 46.5375 52.1789 46.9062 51.5037 47.5703C50.8286 48.2343 50.4449 49.1393 50.437 50.0862V64.2532C50.4278 65.1997 50.0436 66.104 49.3688 66.7677C48.694 67.4315 47.7835 67.8006 46.837 67.7942H36.025V14.6702C36.0136 13.176 35.5343 11.7228 34.6543 10.5151C33.7743 9.30743 32.5379 8.40588 31.119 7.93723L30.052 7.58623H46.832C47.7787 7.57984 48.6893 7.94911 49.3642 8.61309C50.039 9.27706 50.423 10.1816 50.432 11.1282V21.7542C50.432 22.709 50.8113 23.6247 51.4864 24.2998C52.1615 24.9749 53.0772 25.3542 54.032 25.3542C54.9868 25.3542 55.9025 24.9749 56.5776 24.2998C57.2527 23.6247 57.632 22.709 57.632 21.7542V11.1292C57.6053 8.28883 56.4535 5.57491 54.4289 3.58244C52.4044 1.58998 49.6725 0.481576 46.832 0.500232H8.106C7.97561 0.518683 7.84663 0.546081 7.72 0.582232C7.547 0.567232 7.381 0.500232 7.2 0.500232C5.30608 0.487443 3.48442 1.2264 2.13463 2.555C0.784851 3.8836 0.0171698 5.69335 0 7.58723L0 71.3362C0.0113642 72.8305 0.49074 74.2836 1.37073 75.4913C2.25073 76.699 3.48709 77.6006 4.906 78.0692L26.586 85.1692C27.31 85.3905 28.063 85.5021 28.82 85.5002C30.7134 85.513 32.5346 84.7745 33.8843 83.4465C35.234 82.1186 36.002 80.3096 36.02 78.4162V74.8782H46.832C49.6732 74.899 52.4066 73.7921 54.4327 71.8003C56.4588 69.8084 57.6123 67.0943 57.64 64.2532V50.0862C57.6321 49.1393 57.2484 48.2343 56.5733 47.5703C55.8981 46.9062 54.9869 46.5375 54.04 46.5452H54.037Z" fill="#037A80"/>
<path d="M83.9401 33.46L69.5301 19.05C69.0267 18.5453 68.3848 18.2014 67.6858 18.0618C66.9867 17.9223 66.262 17.9934 65.6034 18.2662C64.9448 18.539 64.3821 19.0012 63.9865 19.5941C63.5908 20.1871 63.3801 20.8842 63.3811 21.597V32.404H48.9711C48.0163 32.404 47.1006 32.7833 46.4255 33.4584C45.7504 34.1336 45.3711 35.0492 45.3711 36.004C45.3711 36.9588 45.7504 37.8745 46.4255 38.5496C47.1006 39.2247 48.0163 39.604 48.9711 39.604H63.3811V50.411C63.3799 51.1239 63.5905 51.8212 63.9861 52.4143C64.3816 53.0074 64.9443 53.4697 65.603 53.7426C66.2616 54.0156 66.9864 54.0868 67.6855 53.9473C68.3847 53.8078 69.0267 53.4638 69.5301 52.959L83.9401 38.549C84.6146 37.874 84.9934 36.9588 84.9934 36.0045C84.9934 35.0503 84.6146 34.1351 83.9401 33.46Z" fill="#037A80"/>
</g>
<defs>
<clipPath id="clip0_47_702">
<rect width="85" height="85.004" fill="white" transform="translate(0 0.5)"/>
</clipPath>
</defs>
</svg>
