<svg width="86" height="86" viewBox="0 0 86 86" fill="none" xmlns="http://www.w3.org/2000/svg">
<g clip-path="url(#clip0_47_624)">
<path d="M42.5 0.5C34.0943 0.5 25.8774 2.99258 18.8883 7.66254C11.8992 12.3325 6.45186 18.9701 3.23513 26.736C0.0184095 34.5018 -0.823225 43.0472 0.816646 51.2914C2.45652 59.5355 6.50426 67.1083 12.448 73.052C18.3917 78.9958 25.9645 83.0435 34.2087 84.6834C42.4529 86.3233 50.9982 85.4816 58.7641 82.2649C66.5299 79.0482 73.1675 73.6008 77.8375 66.6117C82.5074 59.6226 85 51.4057 85 43C85 31.7283 80.5224 20.9183 72.5521 12.948C64.5818 4.97767 53.7717 0.5 42.5 0.5ZM42.5 76.311C35.9117 76.311 29.4714 74.3573 23.9934 70.6971C18.5155 67.0368 14.2459 61.8343 11.7247 55.7476C9.20344 49.6608 8.54379 42.963 9.8291 36.5013C11.1144 30.0396 14.287 24.1042 18.9456 19.4456C23.6042 14.7869 29.5397 11.6144 36.0014 10.3291C42.4631 9.04376 49.1608 9.70341 55.2476 12.2246C61.3344 14.7459 66.5368 19.0154 70.1971 24.4934C73.8574 29.9714 75.811 36.4117 75.811 43C75.811 51.8346 72.3015 60.3074 66.0545 66.5544C59.8074 72.8015 51.3347 76.311 42.5 76.311Z" fill="#037A80"/>
<path d="M43.66 31.0843C45.2012 31.0776 46.7059 30.6144 47.9841 29.7533C49.2624 28.8921 50.2568 27.6716 50.842 26.2457C51.4271 24.8199 51.5767 23.2527 51.2719 21.7419C50.9672 20.2311 50.2216 18.8444 49.1294 17.757C48.0372 16.6695 46.6473 15.93 45.1352 15.6318C43.6231 15.3336 42.0565 15.49 40.6332 16.0813C39.21 16.6727 37.9938 17.6724 37.1382 18.9544C36.2826 20.2363 35.826 21.743 35.826 23.2843C35.826 24.3115 36.0289 25.3286 36.423 26.2771C36.8171 27.2257 37.3947 28.087 38.1226 28.8118C38.8505 29.5365 39.7143 30.1104 40.6646 30.5003C41.6149 30.8903 42.6328 31.0888 43.66 31.0843ZM51.271 47.0003C51.5776 45.6901 51.5836 44.3276 51.2885 43.0148C50.9935 41.702 50.405 40.473 49.5673 39.4201C48.7296 38.3671 47.6643 37.5175 46.4514 36.9349C45.2386 36.3524 43.9095 36.052 42.564 36.0563H35.808C35.1992 36.0563 34.6152 36.2976 34.1841 36.7275C33.753 37.1573 33.5099 37.7405 33.508 38.3493C33.523 38.8463 33.7285 39.3185 34.082 39.6683C34.6597 40.2375 35.0851 40.9428 35.3191 41.7193C35.553 42.4958 35.5881 43.3187 35.421 44.1123L31.9 58.4273C31.5937 59.7376 31.588 61.1003 31.8834 62.4132C32.1788 63.726 32.7676 64.955 33.6055 66.0079C34.4435 67.0608 35.509 67.9104 36.722 68.4929C37.9351 69.0754 39.2643 69.3757 40.61 69.3713H47.36C47.9688 69.3713 48.5527 69.1299 48.9839 68.7001C49.415 68.2703 49.6581 67.6871 49.66 67.0783C49.6449 66.5819 49.4407 66.11 49.089 65.7593C48.5102 65.1908 48.0841 64.4856 47.85 63.7089C47.616 62.9321 47.5816 62.1089 47.75 61.3153L51.271 47.0003Z" fill="#037A80"/>
</g>
<defs>
<clipPath id="clip0_47_624">
<rect width="85.189" height="85" fill="white" transform="translate(0 0.5)"/>
</clipPath>
</defs>
</svg>
