<svg width="85" height="86" viewBox="0 0 85 86" fill="none" xmlns="http://www.w3.org/2000/svg">
<g clip-path="url(#clip0_47_638)">
<path d="M35.0292 26.2324C15.8052 26.2324 0.000165792 39.4514 0.000165792 55.7004C0.0619073 62.4427 2.60352 68.9263 7.14017 73.9144L0.615166 81.3704C0.300435 81.7306 0.0960707 82.1738 0.0264938 82.6471C-0.043083 83.1203 0.0250698 83.6036 0.222809 84.0392C0.420547 84.4747 0.739509 84.8441 1.14158 85.1033C1.54365 85.3624 2.01183 85.5003 2.49017 85.5004H37.5192C51.7122 85.5004 70.0572 73.2784 70.0572 55.7004C70.0572 39.4514 54.2522 26.2324 35.0292 26.2324ZM19.9222 60.2654C18.9372 60.2654 17.9744 59.9733 17.1554 59.4261C16.3365 58.8789 15.6982 58.1012 15.3212 57.1912C14.9443 56.2812 14.8457 55.2799 15.0379 54.3139C15.23 53.3478 15.7043 52.4605 16.4008 51.764C17.0972 51.0676 17.9846 50.5933 18.9506 50.4011C19.9166 50.209 20.918 50.3076 21.8279 50.6845C22.7379 51.0614 23.5157 51.6997 24.0629 52.5187C24.6101 53.3376 24.9022 54.3005 24.9022 55.2854C24.9022 56.6062 24.3775 57.8729 23.4436 58.8068C22.5096 59.7407 21.2429 60.2654 19.9222 60.2654ZM35.0292 60.2654C34.0442 60.2654 33.0814 59.9733 32.2624 59.4261C31.4435 58.8789 30.8052 58.1012 30.4282 57.1912C30.0513 56.2812 29.9527 55.2799 30.1449 54.3139C30.337 53.3478 30.8113 52.4605 31.5078 51.764C32.2042 51.0676 33.0916 50.5933 34.0576 50.4011C35.0236 50.209 36.025 50.3076 36.9349 50.6845C37.8449 51.0614 38.6227 51.6997 39.1699 52.5187C39.7171 53.3376 40.0092 54.3005 40.0092 55.2854C40.0092 56.6062 39.4845 57.8729 38.5506 58.8068C37.6166 59.7407 36.3499 60.2654 35.0292 60.2654ZM50.1362 60.2654C49.1512 60.2654 48.1884 59.9733 47.3694 59.4261C46.5505 58.8789 45.9122 58.1012 45.5352 57.1912C45.1583 56.2812 45.0597 55.2799 45.2519 54.3139C45.444 53.3478 45.9183 52.4605 46.6148 51.764C47.3112 51.0676 48.1986 50.5933 49.1646 50.4011C50.1306 50.209 51.132 50.3076 52.0419 50.6845C52.9519 51.0614 53.7297 51.6997 54.2769 52.5187C54.8241 53.3376 55.1162 54.3005 55.1162 55.2854C55.1162 56.6062 54.5915 57.8729 53.6576 58.8068C52.7236 59.7407 51.4569 60.2654 50.1362 60.2654Z" fill="#037A80"/>
<path d="M84.4006 51.173L78.5376 44.332C82.6417 39.8345 84.9428 33.9813 85.0006 27.893C85.0006 12.789 70.4756 0.5 52.6266 0.5C36.4856 0.5 22.7726 10.56 20.3516 23.652C25.082 22.0624 30.0392 21.2519 35.0296 21.252C56.8366 21.252 74.7526 36.483 75.0136 55.285H82.5136C82.9892 55.2833 83.4545 55.1456 83.8544 54.8881C84.2543 54.6306 84.5723 54.2641 84.7706 53.8318C84.969 53.3995 85.0396 52.9195 84.974 52.4483C84.9084 51.9772 84.7095 51.5347 84.4006 51.173Z" fill="#037A80"/>
</g>
<defs>
<clipPath id="clip0_47_638">
<rect width="85" height="85" fill="white" transform="translate(0 0.5)"/>
</clipPath>
</defs>
</svg>
