<svg width="86" height="87" viewBox="0 0 86 87" fill="none" xmlns="http://www.w3.org/2000/svg">
<g clip-path="url(#clip0_47_813)">
<path d="M50.6848 41.916L41.0098 61.056C41.0575 56.684 42.085 52.3784 44.0168 48.456C45.3556 45.5274 47.7308 43.1979 50.6848 41.916Z" fill="#037A80"/>
<path d="M53.3693 43.2637C54.0981 46.403 53.6299 49.7012 52.0563 52.5137C50.0421 56.3889 47.1859 59.7642 43.6973 62.3917L53.3693 43.2637Z" fill="#037A80"/>
<path d="M69.1599 47.0635H76.0249V44.1815C76.0226 42.286 75.2685 40.4689 73.9281 39.1287C72.5877 37.7885 70.7704 37.0346 68.8749 37.0325H17.0979C14.6555 37.0374 12.2341 36.5811 9.96094 35.6875V66.0665C9.96358 68.8427 11.0675 71.5044 13.0303 73.4677C14.9932 75.4309 17.6548 76.5353 20.4309 76.5385H68.8739C70.7696 76.5364 72.587 75.7824 73.9274 74.442C75.2678 73.1015 76.0218 71.2841 76.0239 69.3885V65.2145H69.1589C67.6633 65.2129 66.2295 64.6181 65.1719 63.5605C64.1144 62.503 63.5195 61.0691 63.5179 59.5735V52.7055C63.5193 51.2095 64.1141 49.7753 65.1719 48.7175C66.2297 47.6597 67.664 47.0648 69.1599 47.0635ZM17.9149 52.8385C18.0542 52.6991 18.2196 52.5884 18.4017 52.5129C18.5837 52.4374 18.7789 52.3985 18.9759 52.3985H28.1869C28.5848 52.3985 28.9663 52.5565 29.2476 52.8378C29.5289 53.1191 29.6869 53.5007 29.6869 53.8985C29.6869 54.2963 29.5289 54.6778 29.2476 54.9592C28.9663 55.2405 28.5848 55.3985 28.1869 55.3985H18.9759C18.6788 55.399 18.3881 55.3113 18.1409 55.1464C17.8937 54.9815 17.701 54.7468 17.5873 54.4722C17.4736 54.1976 17.4441 53.8955 17.5024 53.6041C17.5608 53.3127 17.7043 53.0452 17.9149 52.8355V52.8385ZM17.9149 58.8445C18.0542 58.7051 18.2196 58.5944 18.4017 58.5189C18.5837 58.4434 18.7789 58.4045 18.9759 58.4045H34.1929C34.5908 58.4045 34.9723 58.5625 35.2536 58.8438C35.5349 59.1251 35.6929 59.5067 35.6929 59.9045C35.6929 60.3023 35.5349 60.6838 35.2536 60.9651C34.9723 61.2465 34.5908 61.4045 34.1929 61.4045H18.9759C18.6788 61.405 18.3881 61.3173 18.1409 61.1524C17.8937 60.9874 17.701 60.7528 17.5873 60.4782C17.4736 60.2036 17.4441 59.9015 17.5024 59.6101C17.5608 59.3187 17.7043 59.0512 17.9149 58.8415V58.8445ZM17.4749 65.9115C17.4749 65.5137 17.633 65.1321 17.9143 64.8508C18.1956 64.5695 18.5771 64.4115 18.9749 64.4115H34.1929C34.5908 64.4115 34.9723 64.5695 35.2536 64.8508C35.5349 65.1321 35.6929 65.5137 35.6929 65.9115C35.6929 66.3093 35.5349 66.6908 35.2536 66.9722C34.9723 67.2535 34.5908 67.4115 34.1929 67.4115H18.9759C18.5781 67.4115 18.1966 67.2535 17.9153 66.9722C17.634 66.6908 17.4749 66.3093 17.4749 65.9115ZM22.3059 74.6785C21.7423 74.6785 21.1912 74.5113 20.7226 74.1982C20.2539 73.885 19.8886 73.4399 19.6729 72.9191C19.4572 72.3984 19.4007 71.8253 19.5107 71.2725C19.6207 70.7196 19.8921 70.2118 20.2907 69.8132C20.6893 69.4147 21.1971 69.1432 21.7499 69.0333C22.3028 68.9233 22.8758 68.9797 23.3966 69.1954C23.9174 69.4111 24.3625 69.7764 24.6756 70.2451C24.9888 70.7138 25.1559 71.2648 25.1559 71.8285C25.1559 72.5844 24.8557 73.3093 24.3212 73.8438C23.7867 74.3782 23.0618 74.6785 22.3059 74.6785ZM54.7369 53.8655C53.1278 57.0163 50.9951 59.8709 48.4299 62.3075L48.3469 62.3875C48.2109 62.5155 48.0759 62.6415 47.9399 62.7665C47.8733 62.8332 47.7969 62.9028 47.7109 62.9755C46.4338 64.1115 45.0821 65.1609 43.6649 66.1165C43.6514 66.127 43.637 66.1363 43.6219 66.1445C42.7859 66.7013 41.9203 67.2123 41.0289 67.6755L38.5289 72.5985C38.4039 72.8466 38.2124 73.0552 37.9758 73.2008C37.7392 73.3465 37.4668 73.4236 37.1889 73.4235H28.1809C27.7831 73.4235 27.4016 73.2655 27.1203 72.9842C26.839 72.7029 26.6809 72.3213 26.6809 71.9235C26.6809 71.5257 26.839 71.1441 27.1203 70.8628C27.4016 70.5815 27.7831 70.4235 28.1809 70.4235H35.3449C35.6228 70.4236 35.8952 70.3465 36.1318 70.2008C36.3684 70.0552 36.5599 69.8466 36.6849 69.5985L38.3309 66.3385C37.366 59.77 38.4119 53.0633 41.3309 47.1005C41.9706 45.8193 42.7518 44.6138 43.6599 43.5065L43.6799 43.4815C43.7859 43.3535 43.8919 43.2295 43.9999 43.1075C44.1739 42.9075 44.4099 42.6545 44.6939 42.3675C45.5807 41.4526 46.5904 40.6654 47.6939 40.0285V40.0405L47.9409 39.8995C49.6185 38.9265 51.5041 38.3677 53.4409 38.2695H54.1999L54.6479 38.8695C54.8479 39.1195 59.1659 45.1055 54.7329 53.8695L54.7369 53.8655ZM69.1599 47.0655H76.0249V44.1835C76.0226 42.288 75.2685 40.4709 73.9281 39.1307C72.5877 37.7905 70.7704 37.0366 68.8749 37.0345H17.0979C14.6555 37.0394 12.2341 36.5831 9.96094 35.6895V66.0685C9.96411 68.8443 11.0682 71.5056 13.031 73.4684C14.9939 75.4312 17.6551 76.5353 20.4309 76.5385H68.8739C70.7696 76.5364 72.587 75.7824 73.9274 74.442C75.2678 73.1015 76.0218 71.2841 76.0239 69.3885V65.2145H69.1589C67.6633 65.2129 66.2295 64.6181 65.1719 63.5605C64.1144 62.503 63.5195 61.0691 63.5179 59.5735V52.7055C63.5193 51.2095 64.1141 49.7753 65.1719 48.7175C66.2297 47.6597 67.664 47.0648 69.1599 47.0635V47.0655ZM17.9149 52.8385C18.0542 52.6991 18.2196 52.5884 18.4017 52.5129C18.5837 52.4374 18.7789 52.3985 18.9759 52.3985H28.1869C28.5848 52.3985 28.9663 52.5565 29.2476 52.8378C29.5289 53.1191 29.6869 53.5007 29.6869 53.8985C29.6869 54.2963 29.5289 54.6778 29.2476 54.9592C28.9663 55.2405 28.5848 55.3985 28.1869 55.3985H18.9759C18.6788 55.399 18.3881 55.3113 18.1409 55.1464C17.8937 54.9815 17.701 54.7468 17.5873 54.4722C17.4736 54.1976 17.4441 53.8955 17.5024 53.6041C17.5608 53.3127 17.7043 53.0452 17.9149 52.8355V52.8385ZM17.9149 58.8445C18.0542 58.7051 18.2196 58.5944 18.4017 58.5189C18.5837 58.4434 18.7789 58.4045 18.9759 58.4045H34.1929C34.5908 58.4045 34.9723 58.5625 35.2536 58.8438C35.5349 59.1251 35.6929 59.5067 35.6929 59.9045C35.6929 60.3023 35.5349 60.6838 35.2536 60.9651C34.9723 61.2465 34.5908 61.4045 34.1929 61.4045H18.9759C18.6788 61.405 18.3881 61.3173 18.1409 61.1524C17.8937 60.9874 17.701 60.7528 17.5873 60.4782C17.4736 60.2036 17.4441 59.9015 17.5024 59.6101C17.5608 59.3187 17.7043 59.0512 17.9149 58.8415V58.8445ZM17.4749 65.9115C17.4749 65.5137 17.633 65.1321 17.9143 64.8508C18.1956 64.5695 18.5771 64.4115 18.9749 64.4115H34.1929C34.5908 64.4115 34.9723 64.5695 35.2536 64.8508C35.5349 65.1321 35.6929 65.5137 35.6929 65.9115C35.6929 66.3093 35.5349 66.6908 35.2536 66.9722C34.9723 67.2535 34.5908 67.4115 34.1929 67.4115H18.9759C18.5781 67.4115 18.1966 67.2535 17.9153 66.9722C17.634 66.6908 17.4749 66.3093 17.4749 65.9115ZM22.3059 74.6785C21.7423 74.6785 21.1912 74.5113 20.7226 74.1982C20.2539 73.885 19.8886 73.4399 19.6729 72.9191C19.4572 72.3984 19.4007 71.8253 19.5107 71.2725C19.6207 70.7196 19.8921 70.2118 20.2907 69.8132C20.6893 69.4147 21.1971 69.1432 21.7499 69.0333C22.3028 68.9233 22.8758 68.9797 23.3966 69.1954C23.9174 69.4111 24.3625 69.7764 24.6756 70.2451C24.9888 70.7138 25.1559 71.2648 25.1559 71.8285C25.1559 72.5844 24.8557 73.3093 24.3212 73.8438C23.7867 74.3782 23.0618 74.6785 22.3059 74.6785ZM54.7369 53.8655C53.1278 57.0163 50.9951 59.8709 48.4299 62.3075L48.3469 62.3875C48.2109 62.5155 48.0759 62.6415 47.9399 62.7665C47.8733 62.8332 47.7969 62.9028 47.7109 62.9755C46.4338 64.1115 45.0821 65.1609 43.6649 66.1165C43.6514 66.127 43.637 66.1363 43.6219 66.1445C42.7859 66.7013 41.9203 67.2123 41.0289 67.6755L38.5289 72.5985C38.4039 72.8466 38.2124 73.0552 37.9758 73.2008C37.7392 73.3465 37.4668 73.4236 37.1889 73.4235H28.1809C27.7831 73.4235 27.4016 73.2655 27.1203 72.9842C26.839 72.7029 26.6809 72.3213 26.6809 71.9235C26.6809 71.5257 26.839 71.1441 27.1203 70.8628C27.4016 70.5815 27.7831 70.4235 28.1809 70.4235H35.3449C35.6228 70.4236 35.8952 70.3465 36.1318 70.2008C36.3684 70.0552 36.5599 69.8466 36.6849 69.5985L38.3309 66.3385C37.366 59.77 38.4119 53.0633 41.3309 47.1005C41.9706 45.8193 42.7518 44.6138 43.6599 43.5065L43.6799 43.4815C43.7859 43.3535 43.8919 43.2295 43.9999 43.1075C44.1739 42.9075 44.4099 42.6545 44.6939 42.3675C45.5807 41.4526 46.5904 40.6654 47.6939 40.0285V40.0405L47.9409 39.8995C49.6185 38.9265 51.5041 38.3677 53.4409 38.2695H54.1999L54.6479 38.8695C54.8479 39.1195 59.1659 45.1055 54.7329 53.8695L54.7369 53.8655ZM69.1599 47.0655H76.0249V44.1835C76.0226 42.288 75.2685 40.4709 73.9281 39.1307C72.5877 37.7905 70.7704 37.0366 68.8749 37.0345H17.0979C14.6555 37.0394 12.2341 36.5831 9.96094 35.6895V66.0685C9.96411 68.8443 11.0682 71.5056 13.031 73.4684C14.9939 75.4312 17.6551 76.5353 20.4309 76.5385H68.8739C70.7696 76.5364 72.587 75.7824 73.9274 74.442C75.2678 73.1015 76.0218 71.2841 76.0239 69.3885V65.2145H69.1589C67.6633 65.2129 66.2295 64.6181 65.1719 63.5605C64.1144 62.503 63.5195 61.0691 63.5179 59.5735V52.7055C63.5193 51.2095 64.1141 49.7753 65.1719 48.7175C66.2297 47.6597 67.664 47.0648 69.1599 47.0635V47.0655ZM17.9149 52.8385C18.0542 52.6991 18.2196 52.5884 18.4017 52.5129C18.5837 52.4374 18.7789 52.3985 18.9759 52.3985H28.1869C28.5848 52.3985 28.9663 52.5565 29.2476 52.8378C29.5289 53.1191 29.6869 53.5007 29.6869 53.8985C29.6869 54.2963 29.5289 54.6778 29.2476 54.9592C28.9663 55.2405 28.5848 55.3985 28.1869 55.3985H18.9759C18.6788 55.399 18.3881 55.3113 18.1409 55.1464C17.8937 54.9815 17.701 54.7468 17.5873 54.4722C17.4736 54.1976 17.4441 53.8955 17.5024 53.6041C17.5608 53.3127 17.7043 53.0452 17.9149 52.8355V52.8385ZM17.9149 58.8445C18.0542 58.7051 18.2196 58.5944 18.4017 58.5189C18.5837 58.4434 18.7789 58.4045 18.9759 58.4045H34.1929C34.5908 58.4045 34.9723 58.5625 35.2536 58.8438C35.5349 59.1251 35.6929 59.5067 35.6929 59.9045C35.6929 60.3023 35.5349 60.6838 35.2536 60.9651C34.9723 61.2465 34.5908 61.4045 34.1929 61.4045H18.9759C18.6788 61.405 18.3881 61.3173 18.1409 61.1524C17.8937 60.9874 17.701 60.7528 17.5873 60.4782C17.4736 60.2036 17.4441 59.9015 17.5024 59.6101C17.5608 59.3187 17.7043 59.0512 17.9149 58.8415V58.8445ZM17.4749 65.9115C17.4749 65.5137 17.633 65.1321 17.9143 64.8508C18.1956 64.5695 18.5771 64.4115 18.9749 64.4115H34.1929C34.5908 64.4115 34.9723 64.5695 35.2536 64.8508C35.5349 65.1321 35.6929 65.5137 35.6929 65.9115C35.6929 66.3093 35.5349 66.6908 35.2536 66.9722C34.9723 67.2535 34.5908 67.4115 34.1929 67.4115H18.9759C18.5781 67.4115 18.1966 67.2535 17.9153 66.9722C17.634 66.6908 17.4749 66.3093 17.4749 65.9115ZM22.3059 74.6785C21.7423 74.6785 21.1912 74.5113 20.7226 74.1982C20.2539 73.885 19.8886 73.4399 19.6729 72.9191C19.4572 72.3984 19.4007 71.8253 19.5107 71.2725C19.6207 70.7196 19.8921 70.2118 20.2907 69.8132C20.6893 69.4147 21.1971 69.1432 21.7499 69.0333C22.3028 68.9233 22.8758 68.9797 23.3966 69.1954C23.9174 69.4111 24.3625 69.7764 24.6756 70.2451C24.9888 70.7138 25.1559 71.2648 25.1559 71.8285C25.1559 72.5844 24.8557 73.3093 24.3212 73.8438C23.7867 74.3782 23.0618 74.6785 22.3059 74.6785ZM54.7369 53.8655C53.1278 57.0163 50.9951 59.8709 48.4299 62.3075L48.3469 62.3875C48.2109 62.5155 48.0759 62.6415 47.9399 62.7665C47.8733 62.8332 47.7969 62.9028 47.7109 62.9755C46.4338 64.1115 45.0821 65.1609 43.6649 66.1165C43.6514 66.127 43.637 66.1363 43.6219 66.1445C42.7859 66.7013 41.9203 67.2123 41.0289 67.6755L38.5289 72.5985C38.4039 72.8466 38.2124 73.0552 37.9758 73.2008C37.7392 73.3465 37.4668 73.4236 37.1889 73.4235H28.1809C27.7831 73.4235 27.4016 73.2655 27.1203 72.9842C26.839 72.7029 26.6809 72.3213 26.6809 71.9235C26.6809 71.5257 26.839 71.1441 27.1203 70.8628C27.4016 70.5815 27.7831 70.4235 28.1809 70.4235H35.3449C35.6228 70.4236 35.8952 70.3465 36.1318 70.2008C36.3684 70.0552 36.5599 69.8466 36.6849 69.5985L38.3309 66.3385C37.366 59.77 38.4119 53.0633 41.3309 47.1005C41.9706 45.8193 42.7518 44.6138 43.6599 43.5065L43.6799 43.4815C43.7859 43.3535 43.8919 43.2295 43.9999 43.1075C44.1739 42.9075 44.4099 42.6545 44.6939 42.3675C45.5807 41.4526 46.5904 40.6654 47.6939 40.0285V40.0405L47.9409 39.8995C49.6185 38.9265 51.5041 38.3677 53.4409 38.2695H54.1999L54.6479 38.8695C54.8479 39.1195 59.1659 45.1055 54.7329 53.8695L54.7369 53.8655Z" fill="#037A80"/>
<path d="M68.8893 14.291H17.0993C16.2286 14.3061 15.3987 14.6626 14.7884 15.2837C14.178 15.9047 13.8359 16.7407 13.8359 17.6115C13.8359 18.4823 14.178 19.3183 14.7884 19.9394C15.3987 20.5604 16.2286 20.9169 17.0993 20.932H68.8893C69.77 20.932 70.6145 20.5822 71.2373 19.9595C71.86 19.3368 72.2098 18.4922 72.2098 17.6115C72.2098 16.7309 71.86 15.8863 71.2373 15.2636C70.6145 14.6409 69.77 14.291 68.8893 14.291Z" fill="#037A80"/>
<path d="M82.1687 24.418C83.0491 24.4177 83.8933 24.0678 84.5157 23.4452C85.1381 22.8226 85.4877 21.9783 85.4877 21.098V17.612C85.4827 13.2078 83.7309 8.98536 80.6166 5.8711C77.5024 2.75683 73.2799 1.00503 68.8757 1C68.8757 1 16.8367 1.008 16.7087 1.023C12.3047 1.18239 8.13616 3.05163 5.08771 6.234C3.56066 7.81631 2.3683 9.69026 1.58188 11.7438C0.795472 13.7974 0.431156 15.9884 0.510709 18.186C0.503709 18.271 0.500709 66.068 0.500709 66.068C0.506797 71.3524 2.60872 76.4187 6.34538 80.1553C10.082 83.892 15.1483 85.9939 20.4327 86H68.8757C73.28 85.9952 77.5026 84.2435 80.6169 81.1292C83.7312 78.0149 85.4829 73.7923 85.4877 69.388V44.182C85.4827 39.7779 83.7308 35.5556 80.6166 32.4415C77.5023 29.3273 73.2799 27.5758 68.8757 27.571H17.0987C14.5381 27.576 12.0744 26.5926 10.2211 24.8257C8.36782 23.0589 7.26793 20.6449 7.15071 18.087C7.08687 16.7525 7.29704 15.419 7.76829 14.1689C8.23953 12.9187 8.96185 11.7783 9.89071 10.818C10.8475 9.81923 11.9961 9.02398 13.2677 8.47994C14.5393 7.93591 15.9076 7.6543 17.2907 7.652L68.8787 7.639C71.5228 7.64191 74.0578 8.69357 75.9275 10.5632C77.7971 12.4329 78.8488 14.9679 78.8517 17.612V21.1C78.8522 21.9797 79.2018 22.8231 79.8238 23.4452C80.4457 24.0673 81.2891 24.4172 82.1687 24.418ZM17.0987 34.211H68.8757C71.5196 34.2136 74.0544 35.2649 75.9241 37.1342C77.7937 39.0035 78.8455 41.5382 78.8487 44.182V49.882H69.1607C68.7906 49.8819 68.424 49.9547 68.082 50.0962C67.74 50.2378 67.4292 50.4453 67.1674 50.707C66.9057 50.9687 66.698 51.2794 66.5563 51.6214C66.4146 51.9633 66.3417 52.3299 66.3417 52.7V59.568C66.3408 59.9387 66.413 60.306 66.5543 60.6488C66.6956 60.9916 66.9031 61.3031 67.165 61.5655C67.4268 61.8279 67.7379 62.0361 68.0804 62.1781C68.4229 62.3201 68.79 62.3931 69.1607 62.393H78.8477V69.393C78.8448 72.0371 77.7931 74.5721 75.9235 76.4418C74.0538 78.3114 71.5188 79.3631 68.8747 79.366H20.4327C16.9072 79.362 13.5273 77.9593 11.0351 75.4657C8.54279 72.9721 7.14183 69.5915 7.13971 66.066V30.9C10.0125 33.0544 13.5078 34.2165 17.0987 34.211ZM72.7607 56.139C72.7609 56.4508 72.6686 56.7556 72.4955 57.015C72.3224 57.2743 72.0763 57.4764 71.7883 57.5958C71.5003 57.7153 71.1833 57.7465 70.8775 57.6858C70.5717 57.625 70.2908 57.4749 70.0703 57.2544C69.8498 57.0339 69.6997 56.753 69.6389 56.4472C69.5782 56.1414 69.6095 55.8244 69.7289 55.5364C69.8483 55.2484 70.0504 55.0023 70.3098 54.8292C70.5691 54.6561 70.8739 54.5638 71.1857 54.564C71.6033 54.5643 72.0038 54.7303 72.2991 55.0256C72.5944 55.3209 72.7604 55.7214 72.7607 56.139Z" fill="#037A80"/>
</g>
<defs>
<clipPath id="clip0_47_813">
<rect width="85.99" height="86" fill="white" transform="translate(0 0.5)"/>
</clipPath>
</defs>
</svg>
