<svg width="85" height="86" viewBox="0 0 85 86" fill="none" xmlns="http://www.w3.org/2000/svg">
<g clip-path="url(#clip0_47_714)">
<path d="M38.3907 85.042C41.4389 85.0381 44.3925 83.9834 46.7537 82.0556C49.1149 80.1278 50.7391 77.4448 51.3527 74.459H25.4297C26.0434 77.4445 27.6676 80.1273 30.0285 82.055C32.3894 83.9828 35.3427 85.0377 38.3907 85.042Z" fill="#037A80"/>
<path d="M63.0797 42.8298H63.0367C58.8824 42.8323 54.7949 41.7845 51.1541 39.7838C47.5133 37.7831 44.4374 34.8945 42.2124 31.3863C39.9873 27.8782 38.6852 23.8644 38.4272 19.7182C38.1692 15.5719 38.9637 11.4277 40.7367 7.67078C39.9617 7.59678 39.1757 7.55078 38.3807 7.55078C35.1401 7.55367 31.9318 8.19488 28.9391 9.43778C25.9463 10.6807 23.2277 12.5009 20.9385 14.7946C18.6493 17.0883 16.8344 19.8104 15.5973 22.8055C14.3602 25.8007 13.7253 29.0102 13.7287 32.2508V42.0878C13.7303 45.5363 12.9783 48.9434 11.5255 52.0709C10.0726 55.1984 7.95394 57.9707 5.31767 60.1938C4.42657 60.957 3.77119 61.9582 3.42817 63.0802C3.08515 64.2022 3.06867 65.3987 3.38067 66.5298C3.80099 67.8699 4.64652 69.0367 5.78922 69.8533C6.93193 70.67 8.30961 71.0921 9.71367 71.0558H67.0347C68.5045 71.0949 69.9437 70.6313 71.1143 69.7416C72.2849 68.8519 73.1169 67.5894 73.4727 66.1628C73.7057 65.0602 73.6333 63.915 73.2632 62.8506C72.8931 61.7861 72.2394 60.843 71.3727 60.1228C68.852 57.9857 66.8107 55.3408 65.382 52.3609C63.9533 49.3811 63.1695 46.1333 63.0817 42.8298H63.0797Z" fill="#037A80"/>
<path d="M80.6589 18.139C80.6589 21.6277 79.6244 25.038 77.6862 27.9387C75.748 30.8394 72.9931 33.1003 69.77 34.4353C66.5469 35.7704 63.0003 36.1197 59.5787 35.4391C56.1571 34.7585 53.0141 33.0785 50.5472 30.6117C48.0804 28.1448 46.4004 25.0018 45.7198 21.5802C45.0392 18.1586 45.3885 14.612 46.7236 11.3888C48.0586 8.16574 50.3194 5.41091 53.2202 3.47271C56.1209 1.53451 59.5312 0.5 63.0199 0.5C65.3363 0.5 67.63 0.956246 69.77 1.84269C71.9101 2.72913 73.8546 4.02841 75.4925 5.66634C77.1305 7.30428 78.4297 9.24879 79.3162 11.3888C80.2026 13.5289 80.6589 15.8226 80.6589 18.139Z" fill="#037A80"/>
</g>
<defs>
<clipPath id="clip0_47_714">
<rect width="85" height="85" fill="white" transform="translate(0 0.5)"/>
</clipPath>
</defs>
</svg>
