<svg width="20" height="21" viewBox="0 0 20 21" fill="none" xmlns="http://www.w3.org/2000/svg">
<g clip-path="url(#clip0_47_825)">
<path d="M19.9922 10.5053C19.995 8.84114 19.5825 7.2026 18.792 5.73819C18.0015 4.27378 16.8581 3.02979 15.4653 2.11899C14.0725 1.20819 12.4745 0.659366 10.816 0.522274C9.1575 0.385182 7.49102 0.664153 5.96761 1.3339C4.44419 2.00365 3.112 3.043 2.09179 4.35773C1.07158 5.67247 0.395604 7.22103 0.125142 8.86305C-0.14532 10.5051 -0.00172001 12.1886 0.542925 13.7611C1.08757 15.3336 2.01604 16.7453 3.24417 17.8683L3.23517 17.8763L3.56017 18.1493C3.58117 18.1673 3.60417 18.1813 3.62517 18.1993C3.79717 18.3423 3.97617 18.4783 4.15717 18.6093L4.33417 18.7353C4.52817 18.8686 4.72817 18.9956 4.93417 19.1163L5.06817 19.1933C5.29117 19.3203 5.51817 19.4393 5.75117 19.5483L5.80317 19.5713C6.57308 19.9288 7.38574 20.1859 8.22118 20.3363L8.28817 20.3483C8.55117 20.3933 8.81717 20.4303 9.08817 20.4543L9.18818 20.4623C9.45618 20.4843 9.72718 20.4983 10.0022 20.4983C10.2772 20.4983 10.5432 20.4843 10.8102 20.4633L10.9102 20.4553C11.1768 20.4306 11.4408 20.3973 11.7022 20.3553L11.7702 20.3433C12.5928 20.1958 13.3935 19.9448 14.1532 19.5963L14.2362 19.5583C14.4608 19.4529 14.6802 19.3396 14.8942 19.2183L15.0542 19.1263C15.2542 19.0113 15.4422 18.8893 15.6292 18.7633C15.6962 18.7173 15.7622 18.6693 15.8292 18.6213C15.9892 18.5063 16.1452 18.3883 16.2982 18.2643C16.3322 18.2373 16.3682 18.2133 16.3982 18.1853L16.7312 17.9073L16.7212 17.8993C17.7525 16.9644 18.5766 15.824 19.1404 14.5514C19.7043 13.2788 19.9955 11.9022 19.9952 10.5103L19.9922 10.5053ZM0.726175 10.5053C0.725072 8.95709 1.11178 7.43329 1.85099 6.07299C2.59021 4.71268 3.65838 3.5592 4.958 2.71785C6.25761 1.8765 7.74727 1.37408 9.29098 1.25646C10.8347 1.13884 12.3833 1.40977 13.7954 2.04451C15.2074 2.67924 16.438 3.65757 17.3748 4.89018C18.3116 6.12279 18.9247 7.57041 19.1582 9.10089C19.3916 10.6314 19.238 12.1959 18.7114 13.6518C18.1847 15.1076 17.3018 16.4084 16.1432 17.4353C16.0396 17.3612 15.931 17.2943 15.8182 17.2353L12.7402 15.6993C12.6052 15.6324 12.4917 15.529 12.4125 15.4008C12.3333 15.2727 12.2916 15.1249 12.2922 14.9743V13.8993C12.3632 13.8103 12.4402 13.7123 12.5162 13.5993C12.9197 13.0264 13.2399 12.3991 13.4672 11.7363C13.6948 11.6293 13.887 11.4595 14.0213 11.2469C14.1556 11.0343 14.2264 10.7877 14.2252 10.5363V9.25728C14.2224 8.94154 14.1067 8.63721 13.8992 8.39928V6.69928C13.962 5.92596 13.7157 5.15927 13.2142 4.56728C12.7928 4.15509 12.2874 3.83876 11.7326 3.63994C11.1777 3.44111 10.5864 3.36448 9.99918 3.41528C9.41007 3.36258 8.81653 3.43818 8.25945 3.63688C7.70236 3.83558 7.19496 4.15266 6.77217 4.56628C6.27086 5.15873 6.02489 5.92577 6.08817 6.69928V8.39928C5.88146 8.63861 5.76724 8.94403 5.76617 9.26028V10.5493C5.76608 10.7457 5.80974 10.9397 5.89398 11.1172C5.97822 11.2947 6.10092 11.4511 6.25317 11.5753C6.47694 12.4136 6.85841 13.2017 7.37717 13.8973V14.9493C7.37724 15.0949 7.33809 15.2379 7.26384 15.3632C7.18958 15.4884 7.08296 15.5914 6.95517 15.6613L4.07917 17.2243C3.98469 17.2763 3.89352 17.334 3.80617 17.3973C2.83691 16.5298 2.06159 15.4675 1.53085 14.2799C1.00012 13.0923 0.725924 11.8061 0.726175 10.5053Z" fill="#037A80"/>
</g>
<defs>
<clipPath id="clip0_47_825">
<rect width="19.993" height="20" fill="white" transform="translate(0 0.5)"/>
</clipPath>
</defs>
</svg>
