<svg width="20" height="21" viewBox="0 0 20 21" fill="none" xmlns="http://www.w3.org/2000/svg">
<g clip-path="url(#clip0_47_822)">
<path d="M10 4.57401C9.57775 4.52802 9.1505 4.57147 8.74613 4.70156C8.34175 4.83164 7.9693 5.04543 7.65303 5.32901C7.36545 5.6784 7.22235 6.12453 7.25303 6.57601C7.25696 6.61456 7.25897 6.65327 7.25903 6.69201V8.39201C7.25895 8.67092 7.1589 8.94056 6.97703 9.15201C6.95218 9.17958 6.93769 9.21493 6.93603 9.25201V10.541C6.93595 10.5649 6.94131 10.5885 6.95171 10.6099C6.9621 10.6314 6.97726 10.6503 6.99603 10.665C7.18837 10.8224 7.32537 11.0372 7.38703 11.278C7.57295 11.9659 7.88638 12.6128 8.31103 13.185C8.46349 13.3866 8.54631 13.6323 8.54703 13.885V14.937C8.54696 15.292 8.45127 15.6405 8.27003 15.9458C8.0888 16.2511 7.82869 16.5019 7.51703 16.672L5.22503 17.92C5.32503 17.983 5.42503 18.045 5.52503 18.104L5.64303 18.172C5.84303 18.288 6.04803 18.393 6.24303 18.484H6.24803L6.29503 18.505C6.97396 18.8199 7.69047 19.0464 8.42703 19.179L8.48503 19.189C8.73003 19.231 8.95903 19.262 9.18503 19.282H9.21503H9.27903C9.54203 19.304 9.77903 19.314 9.99503 19.314C10.211 19.314 10.441 19.304 10.707 19.282H10.772H10.802C11.029 19.261 11.263 19.23 11.496 19.19H11.5L11.54 19.183H11.556C12.281 19.0526 12.9866 18.8312 13.656 18.524L13.701 18.503L13.732 18.492C13.924 18.402 14.12 18.301 14.313 18.192L14.454 18.111C14.536 18.063 14.613 18.011 14.687 17.969L12.22 16.734C11.8911 16.5709 11.6145 16.3189 11.4215 16.0066C11.2285 15.6943 11.1268 15.3341 11.128 14.967V13.892C11.128 13.6248 11.2198 13.3657 11.388 13.158C11.444 13.089 11.504 13.009 11.567 12.92C11.9065 12.4374 12.1758 11.9092 12.367 11.351C12.4175 11.2048 12.4965 11.0701 12.5995 10.9547C12.7025 10.8394 12.8275 10.7456 12.967 10.679C12.9946 10.6666 13.0179 10.6465 13.0342 10.6211C13.0506 10.5958 13.0592 10.5662 13.059 10.536V9.24901C13.0578 9.21202 13.0437 9.17663 13.019 9.14901C12.8371 8.93761 12.737 8.66794 12.737 8.38901V6.69201C12.7371 6.65327 12.7391 6.61455 12.743 6.57601C12.7738 6.12422 12.6307 5.67776 12.343 5.32801C12.0272 5.04509 11.6554 4.83175 11.2517 4.70185C10.8481 4.57195 10.4216 4.5284 10 4.57401ZM10 0.500013C12.0182 0.498715 13.9894 1.10862 15.6541 2.24943C17.3189 3.39023 18.5992 5.00845 19.3263 6.89102C20.0535 8.7736 20.1935 10.8323 19.7279 12.7959C19.2624 14.7596 18.213 16.5363 16.718 17.892L16.728 17.9L16.395 18.178C16.362 18.206 16.326 18.23 16.295 18.257C16.143 18.381 15.986 18.5 15.826 18.614C15.759 18.662 15.694 18.714 15.626 18.756C15.439 18.884 15.247 19.004 15.051 19.12L14.891 19.212C14.6764 19.3333 14.457 19.4467 14.233 19.552L14.15 19.59C13.3904 19.9386 12.5897 20.1896 11.767 20.337L11.699 20.349C11.4384 20.3937 11.1744 20.427 10.907 20.449L10.807 20.457C10.54 20.478 10.272 20.493 9.99903 20.493C9.72603 20.493 9.45303 20.479 9.18503 20.457L9.08503 20.449C8.81603 20.425 8.55003 20.388 8.28503 20.343L8.21803 20.331C7.38254 20.1803 6.56988 19.9229 5.80003 19.565L5.74803 19.542C5.51503 19.432 5.28703 19.313 5.06503 19.186L4.93103 19.109C4.7277 18.9883 4.5277 18.8613 4.33103 18.728C4.27103 18.687 4.21203 18.644 4.15303 18.601C3.97103 18.47 3.79303 18.334 3.62003 18.191C3.59903 18.174 3.57603 18.159 3.55503 18.141L3.23103 17.868L3.24003 17.86C1.75356 16.4998 0.713138 14.7218 0.255374 12.7596C-0.202391 10.7974 -0.0561041 8.7426 0.675028 6.86502C1.40616 4.98744 2.68796 3.37483 4.35215 2.23889C6.01634 1.10296 7.98513 0.496808 10 0.500013ZM16.147 17.425C17.5518 16.1786 18.5448 14.5348 18.9945 12.7114C19.4441 10.8879 19.3292 8.97093 18.6649 7.21428C18.0007 5.45764 16.8184 3.94425 15.2747 2.87458C13.7311 1.80492 11.8989 1.22947 10.0208 1.22444C8.14278 1.21942 6.30752 1.78507 4.75816 2.84646C3.2088 3.90785 2.01845 5.41489 1.3448 7.16796C0.671137 8.92103 0.545958 10.8374 0.985842 12.6632C1.42573 14.489 2.40991 16.1381 3.80803 17.392C3.89541 17.3288 3.98658 17.271 4.08103 17.219L6.95503 15.651C7.08282 15.5812 7.18944 15.4782 7.2637 15.3529C7.33795 15.2276 7.3771 15.0846 7.37703 14.939V13.885C6.85827 13.1894 6.4768 12.4014 6.25303 11.563C6.10085 11.439 5.97819 11.2827 5.89396 11.1054C5.80972 10.9281 5.76602 10.7343 5.76603 10.538V9.24901C5.76832 8.93402 5.88285 8.63016 6.08903 8.39201V6.69201C6.02629 5.91918 6.27223 5.15296 6.77303 4.56101C7.19564 4.14703 7.70297 3.82959 8.26006 3.63054C8.81715 3.43149 9.41078 3.35557 10 3.40801C10.5886 3.3559 11.1814 3.43189 11.7378 3.63075C12.2942 3.82962 12.8009 4.14664 13.223 4.56001C13.7217 5.15323 13.9651 5.91979 13.9 6.69201V8.39201C14.1068 8.6313 14.2211 8.93675 14.222 9.25301V10.542C14.2232 10.7935 14.1525 11.0401 14.0182 11.2527C13.8839 11.4653 13.6916 11.6351 13.464 11.742C13.2367 12.4045 12.9165 13.0314 12.513 13.604C12.435 13.713 12.36 13.813 12.289 13.904V14.979C12.2887 15.1295 12.3305 15.277 12.4096 15.405C12.4888 15.5329 12.6022 15.6362 12.737 15.703L15.815 17.242C15.9284 17.2954 16.038 17.3566 16.143 17.425H16.147Z" fill="#037A80"/>
</g>
<defs>
<clipPath id="clip0_47_822">
<rect width="19.992" height="19.992" fill="white" transform="translate(0 0.5)"/>
</clipPath>
</defs>
</svg>
