<svg xmlns="http://www.w3.org/2000/svg" width="134.52" height="36.9" viewBox="0 0 134.52 36.9">
  <g id="promo_light" transform="translate(-2626.614 -177.55)">
    <path id="promo_light-2" data-name="promo_light" d="M-179.45,384.99V383.4h-13.29l-108.72.1v.2a2.043,2.043,0,0,1,0,.35,3.488,3.488,0,0,1-3.66,3.31,3.476,3.476,0,0,1-2.417-1.141,3.476,3.476,0,0,1-.893-2.519v-.2h-5.54v36.8h5.53v-.46a3.5,3.5,0,0,1,3.67-3.31,3.5,3.5,0,0,1,3.31,3.67v.1l108.72-.1h13.29v-1.59a2.279,2.279,0,0,1-2.14-2.15,2.279,2.279,0,0,1,2.14-2.4v-1.27a2.27,2.27,0,0,1-2.14-2.14,2.273,2.273,0,0,1,2.14-2.4v-1.27a2.279,2.279,0,0,1-2.14-2.15,2.279,2.279,0,0,1,2.14-2.4v-1.27a2.27,2.27,0,0,1-2.14-2.14,2.273,2.273,0,0,1,2.14-2.4v-1.27a2.279,2.279,0,0,1-2.14-2.15,2.279,2.279,0,0,1,2.14-2.4v-1.27a2.27,2.27,0,0,1-2.14-2.14,2.273,2.273,0,0,1,2.14-2.4Zm-132.02,6.31a.5.5,0,0,1,.5-.5.5.5,0,0,1,.5.5v6a.508.508,0,0,1-.5.5.5.5,0,0,1-.5-.5Zm0,10a.5.5,0,0,1,.5-.5.5.5,0,0,1,.5.5v6a.508.508,0,0,1-.5.5.5.5,0,0,1-.5-.5Zm2.23,14.54a5.793,5.793,0,0,0-1.15,1.67l-.46.29h-.12l-.5-.5v-6a.5.5,0,0,1,.5-.5.5.5,0,0,1,.5.5v4.43a7.185,7.185,0,0,1,.51-.59.5.5,0,0,1,.353-.153.5.5,0,0,1,.357.143.5.5,0,0,1,.153.353A.5.5,0,0,1-309.24,415.84Zm2.43-25.72a.506.506,0,0,1-.47.32.392.392,0,0,1-.18-.04,6.979,6.979,0,0,1-3.3-2.65.518.518,0,0,1-.47-.043.518.518,0,0,1-.24-.407v-.8l.5-.5.54.3a6.051,6.051,0,0,0,3.33,3.17.5.5,0,0,1,.281.264A.5.5,0,0,1-306.81,390.12Zm6.61,25.45a.485.485,0,0,1-.37.16.46.46,0,0,1-.33-.13,5.917,5.917,0,0,0-3.75-1.56,5.364,5.364,0,0,0-1.39.09.506.506,0,0,1-.58-.41.5.5,0,0,1,.4-.58,7.367,7.367,0,0,1,1.63-.1,6.876,6.876,0,0,1,4.36,1.82.5.5,0,0,1,.163.349A.5.5,0,0,1-300.2,415.57Zm1.54-28.63a7.065,7.065,0,0,1-4.56,3.72.57.57,0,0,1-.13.01.5.5,0,0,1-.48-.38.488.488,0,0,1,.053-.376.488.488,0,0,1,.307-.224,6.056,6.056,0,0,0,4.01-3.39l.46-.3h.11a.5.5,0,0,1,.5.5.494.494,0,0,1-.27.44Zm7.03,30.85h-6a.5.5,0,0,1-.5-.5.5.5,0,0,1,.5-.5h6a.5.5,0,0,1,.5.5A.5.5,0,0,1-291.63,417.79Zm2.74-30.8h-6a.5.5,0,0,1-.5-.5.5.5,0,0,1,.5-.5h6a.5.5,0,0,1,.5.5.508.508,0,0,1-.5.5Zm7.26,30.79h-6a.5.5,0,0,1-.5-.5.5.5,0,0,1,.5-.5h6a.5.5,0,0,1,.5.5A.5.5,0,0,1-281.63,417.78Zm2.74-30.8h-6a.5.5,0,0,1-.5-.5.5.5,0,0,1,.5-.5h6a.5.5,0,0,1,.5.5.508.508,0,0,1-.5.5Zm7.26,30.79-6,.01a.508.508,0,0,1-.5-.5.5.5,0,0,1,.5-.5l6-.01a.5.5,0,0,1,.5.5.5.5,0,0,1-.5.5Zm2.74-30.8-6,.01a.5.5,0,0,1-.5-.5.5.5,0,0,1,.5-.5l6-.01a.5.5,0,0,1,.5.5.5.5,0,0,1-.5.5Zm7.26,30.79-6,.01a.508.508,0,0,1-.5-.5.5.5,0,0,1,.5-.5l6-.01a.5.5,0,0,1,.5.5.5.5,0,0,1-.5.5Zm2.74-30.8-6,.01a.5.5,0,0,1-.5-.5.5.5,0,0,1,.5-.5l6-.01a.5.5,0,0,1,.5.5.5.5,0,0,1-.5.5Zm7.26,30.79-6,.01a.508.508,0,0,1-.5-.5.5.5,0,0,1,.5-.5l6-.01a.5.5,0,0,1,.5.5.5.5,0,0,1-.5.5Zm2.74-30.8-6,.01a.5.5,0,0,1-.5-.5.5.5,0,0,1,.5-.5l6-.01a.508.508,0,0,1,.5.5.5.5,0,0,1-.5.5Zm7.26,30.79-6,.01a.508.508,0,0,1-.5-.5.5.5,0,0,1,.5-.5l6-.01a.5.5,0,0,1,.5.5.5.5,0,0,1-.5.5Zm2.74-30.8-6,.01a.5.5,0,0,1-.5-.5.5.5,0,0,1,.5-.5l6-.01a.508.508,0,0,1,.5.5.5.5,0,0,1-.5.5Zm7.26,30.79-6,.01a.5.5,0,0,1-.5-.5.5.5,0,0,1,.5-.5l6-.01a.5.5,0,0,1,.5.5.5.5,0,0,1-.5.5Zm2.74-30.8-6,.01a.5.5,0,0,1-.5-.5.5.5,0,0,1,.5-.5l6-.01a.508.508,0,0,1,.5.5.5.5,0,0,1-.5.5Zm7.26,30.79-6,.01a.5.5,0,0,1-.5-.5.5.5,0,0,1,.5-.5l6-.01a.5.5,0,0,1,.5.5.5.5,0,0,1-.5.5Zm2.74-30.8-6,.01a.5.5,0,0,1-.5-.5.5.5,0,0,1,.5-.5l6-.01a.508.508,0,0,1,.5.5.5.5,0,0,1-.5.5Zm7.26,30.79-6,.01a.5.5,0,0,1-.5-.5.5.5,0,0,1,.5-.5l6-.01a.5.5,0,0,1,.5.5.5.5,0,0,1-.5.5Zm2.74-30.8-6,.01a.5.5,0,0,1-.5-.5.5.5,0,0,1,.5-.5l6-.01a.508.508,0,0,1,.5.5.5.5,0,0,1-.5.5Zm7.26,30.8h-6a.5.5,0,0,1-.5-.5.5.5,0,0,1,.5-.5h6a.493.493,0,0,1,.352.141.493.493,0,0,1,.148.349.5.5,0,0,1-.143.36.5.5,0,0,1-.357.15Zm2.74-30.8h-6a.5.5,0,0,1-.5-.5.5.5,0,0,1,.5-.5h6a.5.5,0,0,1,.5.5.508.508,0,0,1-.5.5Zm7.26,30.79h-6a.5.5,0,0,1-.5-.5.5.5,0,0,1,.5-.5h6a.5.5,0,0,1,.5.5.5.5,0,0,1-.5.5Zm2.74-30.8h-6a.5.5,0,0,1-.5-.5.5.5,0,0,1,.5-.5h6a.5.5,0,0,1,.5.5.5.5,0,0,1-.5.5Zm5.14,27.64a4.747,4.747,0,0,0-.34,1.79v.27a4.179,4.179,0,0,0,.06.51l-.49.59h-3.11a.5.5,0,0,1-.5-.5.5.5,0,0,1,.5-.5h2.55c0-.02,0-.03-.01-.04v-.33a5.691,5.691,0,0,1,.42-2.16.5.5,0,0,1,.267-.275.5.5,0,0,1,.383-.005.492.492,0,0,1,.272.268.492.492,0,0,1,0,.382Zm.44-6.65a4.785,4.785,0,0,0-.78,2.62v.13l-1,.02v-.15a5.683,5.683,0,0,1,.78-2.9,5.71,5.71,0,0,1-.78-2.58l1-.03a4.83,4.83,0,0,0,.78,2.34Zm0-11.63a4.785,4.785,0,0,0-.78,2.62v.28a4.86,4.86,0,0,0,.5,1.87.5.5,0,0,1-.22.67.48.48,0,0,1-.23.05.514.514,0,0,1-.45-.27,5.93,5.93,0,0,1-.6-2.27v-.33a5.683,5.683,0,0,1,.78-2.9c-.03-.05-.06-.11-.09-.16a.489.489,0,0,1-.046-.383.489.489,0,0,1,.246-.3.5.5,0,0,1,.67.2c.07.13.15.25.22.37Zm.01-5.81a4.424,4.424,0,0,0-.63,1.38.5.5,0,0,1-.48.37.506.506,0,0,1-.13-.02.5.5,0,0,1-.307-.23.5.5,0,0,1-.053-.38,5.94,5.94,0,0,1,.59-1.4,5.714,5.714,0,0,1-.78-2.59c0-.11-.01-.22-.01-.33,0-.13.01-.26.02-.39a.493.493,0,0,1-.31-.46.5.5,0,0,1,.5-.5h.36l.5.58a5.123,5.123,0,0,0-.07.77c0,.09.01.18.01.27a4.818,4.818,0,0,0,.79,2.38Z" transform="translate(2940.583 -205.85)" fill="#ecf2f7"/>
  </g>
</svg>
