<svg id="promo" xmlns="http://www.w3.org/2000/svg" width="22.628" height="22.627" viewBox="0 0 22.628 22.627">
  <path id="Path_11653" data-name="Path 11653" d="M7.748,0h.166a2.957,2.957,0,0,1,1.1.244l1.848.837a1.126,1.126,0,0,0,1.048-.066q.8-.358,1.595-.723A3.228,3.228,0,0,1,14.7,0h.188A2.945,2.945,0,0,1,17.3,1.44a3.9,3.9,0,0,1,.313.7q.3.812.613,1.619a1.117,1.117,0,0,0,.764.69l1.4.529a5.25,5.25,0,0,1,.8.361,2.945,2.945,0,0,1,1.179,3.679l-.66,1.458c-.23.509-.4.818-.185,1.281q.345.756.687,1.514a5.535,5.535,0,0,1,.316.824,2.941,2.941,0,0,1-1.366,3.22,5.856,5.856,0,0,1-.807.355l-1.538.578a1.11,1.11,0,0,0-.643.741q-.275.721-.545,1.443a4.731,4.731,0,0,1-.358.788,2.924,2.924,0,0,1-2.447,1.411h-.11a7.132,7.132,0,0,1-2.533-.888c-.545-.245-.845-.419-1.339-.192q-1.494.686-1.838.835a3.089,3.089,0,0,1-1.073.245H7.72A2.97,2.97,0,0,1,5.031,20.55q-.316-.827-.623-1.657a1.035,1.035,0,0,0-.589-.638q-.339-.138-1.535-.58a5.554,5.554,0,0,1-.808-.352A2.925,2.925,0,0,1,0,14.913V14.67a2.891,2.891,0,0,1,.223-1.011q.43-.943.854-1.888a1.093,1.093,0,0,0-.044-1.011L.21,8.936A2.845,2.845,0,0,1,0,7.952V7.72A2.933,2.933,0,0,1,1.4,5.351a4.191,4.191,0,0,1,.726-.336L3.6,4.455a1.155,1.155,0,0,0,.772-.643Q4.691,2.979,5,2.146A4.391,4.391,0,0,1,5.348,1.4,2.934,2.934,0,0,1,7.748,0Zm4.8,2.794a2.97,2.97,0,0,1-2.429.021q-.935-.425-1.875-.837a1.035,1.035,0,0,0-1.2.272,2,2,0,0,0-.276.549l-.51,1.349a5.019,5.019,0,0,1-.363.8A3.019,3.019,0,0,1,4.272,6.216q-.73.282-1.464.553a2.018,2.018,0,0,0-.526.259,1.053,1.053,0,0,0-.27,1.318q.329.725.656,1.45a5.252,5.252,0,0,1,.315.824A3.064,3.064,0,0,1,2.7,12.754q-.32.716-.645,1.43a1.142,1.142,0,0,0-.115.922,1.011,1.011,0,0,0,.626.649q.762.294,1.527.584A5.776,5.776,0,0,1,4.9,16.7a3.047,3.047,0,0,1,1.338,1.72q.295.776.588,1.553a1.045,1.045,0,0,0,1.149.756,1.737,1.737,0,0,0,.489-.159l1.278-.582a3.2,3.2,0,0,1,2.24-.346,4.984,4.984,0,0,1,.825.312l1.435.647a1.461,1.461,0,0,0,.458.141,1.041,1.041,0,0,0,1.057-.676q.363-.94.717-1.884A3,3,0,0,1,18.4,16.4q1.267-.488,1.533-.578a1.07,1.07,0,0,0,.722-1.465q-.359-.787-.714-1.576a3.085,3.085,0,0,1-.3-2.107,4.817,4.817,0,0,1,.307-.826q.517-1.153.666-1.468a1.069,1.069,0,0,0-.54-1.513l-1.529-.575a5.877,5.877,0,0,1-.809-.354A3.045,3.045,0,0,1,16.384,4.2q-.282-.738-.559-1.477a1.694,1.694,0,0,0-.232-.457,1.048,1.048,0,0,0-1.248-.283Z"/>
  <circle id="Ellipse_39" data-name="Ellipse 39" cx="1.882" cy="1.882" r="1.882" transform="translate(6.603 6.603)"/>
  <rect id="Rectangle_17812" data-name="Rectangle 17812" width="1.885" height="11.302" rx="0.943" transform="translate(13.953 6.228) rotate(36.9)"/>
  <circle id="Ellipse_40" data-name="Ellipse 40" cx="1.882" cy="1.882" r="1.882" transform="translate(12.26 12.26)"/>
</svg>
