<svg width="302" height="164" viewBox="0 0 302 164" fill="none" xmlns="http://www.w3.org/2000/svg">
<g clip-path="url(#clip0_47_828)">
<path d="M202.32 63.4723C202.23 63.4715 202.143 63.4468 202.066 63.4006C201.989 63.3545 201.927 63.2886 201.884 63.2098C201.842 63.131 201.821 63.0423 201.825 62.9528C201.828 62.8634 201.855 62.7765 201.904 62.7013C202.672 61.5293 203.404 60.3103 204.088 59.0773C204.116 59.0141 204.157 58.9573 204.209 58.9108C204.26 58.8642 204.32 58.8288 204.386 58.8068C204.452 58.7848 204.521 58.7767 204.59 58.783C204.659 58.7893 204.726 58.8098 204.787 58.8433C204.847 58.8768 204.9 58.9226 204.942 58.9777C204.984 59.0327 205.014 59.0959 205.031 59.1632C205.047 59.2305 205.049 59.3005 205.037 59.3687C205.025 59.4368 204.999 59.5018 204.96 59.5593C204.267 60.8133 203.52 62.0593 202.738 63.2473C202.692 63.3165 202.63 63.3733 202.558 63.4126C202.485 63.4519 202.403 63.4724 202.32 63.4723ZM207.02 54.7033C206.938 54.7029 206.857 54.6821 206.785 54.643C206.712 54.6038 206.651 54.5473 206.606 54.4787C206.56 54.4101 206.533 54.3313 206.525 54.2495C206.517 54.1676 206.53 54.0851 206.562 54.0093C207.115 52.7183 207.627 51.3893 208.083 50.0603C208.099 49.9928 208.13 49.9294 208.172 49.8743C208.214 49.8191 208.268 49.7734 208.329 49.7401C208.39 49.7067 208.457 49.6865 208.526 49.6805C208.596 49.6746 208.665 49.6832 208.731 49.7058C208.797 49.7283 208.857 49.7643 208.908 49.8115C208.959 49.8586 209 49.9159 209.027 49.9797C209.055 50.0434 209.069 50.1123 209.069 50.1818C209.068 50.2513 209.053 50.3199 209.025 50.3833C208.561 51.7353 208.04 53.0833 207.477 54.4013C207.438 54.4903 207.374 54.5661 207.293 54.6193C207.212 54.6726 207.117 54.7011 207.02 54.7013V54.7033ZM210.13 45.2513C210.055 45.2509 209.981 45.2338 209.914 45.201C209.846 45.1682 209.787 45.1207 209.74 45.0619C209.694 45.0031 209.661 44.9346 209.645 44.8615C209.628 44.7883 209.628 44.7124 209.645 44.6393C209.884 43.6203 210.097 42.5833 210.278 41.5563C210.298 41.4403 210.318 41.3283 210.336 41.2203C209.694 41.361 209.038 41.4334 208.381 41.4363H208.356C208.223 41.4363 208.096 41.3836 208.002 41.2899C207.909 41.1961 207.856 41.0689 207.856 40.9363C207.856 40.8037 207.909 40.6765 208.002 40.5828C208.096 40.489 208.223 40.4363 208.356 40.4363H208.378C209.73 40.4061 211.062 40.0998 212.291 39.5363C212.352 39.5047 212.418 39.4858 212.487 39.481C212.555 39.4761 212.624 39.4854 212.688 39.5082C212.753 39.531 212.812 39.5668 212.862 39.6134C212.913 39.66 212.953 39.7165 212.98 39.7792C213.008 39.842 213.022 39.9098 213.022 39.9783C213.022 40.0468 213.008 40.1146 212.981 40.1776C212.954 40.2405 212.914 40.2971 212.864 40.3441C212.814 40.391 212.756 40.4272 212.691 40.4503C212.266 40.6352 211.832 40.7981 211.391 40.9383C211.353 41.1843 211.31 41.4443 211.261 41.7273C211.077 42.7723 210.861 43.8273 210.617 44.8653C210.592 44.9753 210.529 45.0735 210.441 45.1437C210.353 45.214 210.243 45.2523 210.13 45.2523V45.2513ZM203.449 39.0233C203.369 39.0231 203.29 39.0036 203.218 38.9663C203.147 38.9291 203.086 38.8752 203.04 38.8093C202.509 38.0616 202.188 37.1858 202.109 36.2723C202.101 36.1643 202.097 36.0543 202.097 35.9453C202.098 35.3795 202.204 34.8188 202.409 34.2913C202.464 34.179 202.559 34.0912 202.675 34.0454C202.792 33.9996 202.921 33.999 203.037 34.0438C203.154 34.0886 203.25 34.1756 203.306 34.2875C203.362 34.3994 203.373 34.5281 203.339 34.6483C203.178 35.0628 203.094 35.5035 203.093 35.9483C203.091 36.0321 203.094 36.1159 203.103 36.1993C203.168 36.9356 203.429 37.6412 203.858 38.2433C203.909 38.3181 203.939 38.4055 203.945 38.496C203.95 38.5866 203.931 38.6769 203.889 38.7574C203.847 38.8379 203.784 38.9054 203.707 38.9528C203.63 39.0001 203.541 39.0256 203.45 39.0263L203.449 39.0233ZM217.249 37.4123C217.148 37.4115 217.05 37.3802 216.967 37.3226C216.884 37.2649 216.821 37.1836 216.786 37.0893C216.75 36.995 216.743 36.8921 216.767 36.7941C216.791 36.6962 216.844 36.6077 216.919 36.5403C217.96 35.621 218.898 34.5924 219.719 33.4723C219.802 33.3825 219.916 33.3265 220.038 33.3151C220.161 33.3036 220.283 33.3375 220.381 33.4102C220.48 33.483 220.549 33.5895 220.574 33.7096C220.6 33.8297 220.58 33.9548 220.519 34.0613C219.656 35.2392 218.669 36.3207 217.574 37.2873C217.485 37.3663 217.368 37.4107 217.249 37.4123ZM210.481 35.4623C210.385 35.4622 210.292 35.4346 210.211 35.3828C210.131 35.3311 210.067 35.2573 210.027 35.1703C209.764 34.5813 209.386 34.0512 208.914 33.6111C208.443 33.171 207.888 32.8301 207.282 32.6083C207.167 32.5593 207.075 32.4689 207.023 32.355C206.971 32.2412 206.964 32.1122 207.003 31.9934C207.042 31.8745 207.123 31.7745 207.232 31.713C207.341 31.6516 207.469 31.6331 207.591 31.6613C208.327 31.9279 209.002 32.3396 209.577 32.8721C210.151 33.4047 210.612 34.0471 210.933 34.7613C210.966 34.8368 210.98 34.9194 210.973 35.0015C210.966 35.0837 210.94 35.1629 210.895 35.2322C210.851 35.3015 210.789 35.3587 210.717 35.3986C210.645 35.4386 210.564 35.4601 210.482 35.4613L210.481 35.4623Z" fill="#037A80"/>
<g opacity="0.52">
<path d="M258.421 29.1927C258.341 29.5245 258.175 29.8295 257.939 30.0768C257.704 30.3241 257.408 30.5052 257.081 30.6017L233.881 37.4447C233.406 37.5852 232.896 37.5387 232.455 37.3147L222.163 32.1067C221.926 31.9871 221.717 31.8204 221.547 31.6169C221.378 31.4135 221.252 31.1775 221.177 30.9235C221.102 30.6695 221.08 30.4028 221.112 30.1399C221.144 29.877 221.229 29.6234 221.363 29.3947L227.182 19.4357C227.43 19.008 227.834 18.6919 228.309 18.5527L251.509 11.7097C252.003 11.5646 252.534 11.6213 252.986 11.8674C253.438 12.1136 253.774 12.5291 253.921 13.0227L258.394 28.1897C258.49 28.5149 258.499 28.8597 258.421 29.1897V29.1927Z" fill="#037A80"/>
</g>
<path d="M224.525 16.5031L221.103 29.9211C221.043 30.1773 221.037 30.4432 221.084 30.702C221.132 30.9608 221.234 31.2068 221.382 31.4245C221.53 31.6421 221.721 31.8267 221.944 31.9664C222.167 32.1061 222.417 32.1979 222.677 32.2361L236.414 33.9871C236.813 34.0402 237.218 33.9452 237.551 33.7201L259.269 18.9521C259.647 18.6766 259.901 18.2622 259.974 17.8001C260.047 17.3379 259.933 16.8657 259.658 16.4871L249.344 1.3181C249.093 0.923427 248.696 0.644483 248.239 0.542494C247.783 0.440505 247.304 0.523797 246.909 0.774092L225.195 15.5421C224.863 15.7701 224.626 16.1121 224.529 16.5031H224.525ZM228.744 26.4181C228.946 26.7153 229.056 27.0657 229.059 27.4251C229.061 27.7845 228.958 28.1366 228.76 28.437C228.563 28.7374 228.282 28.9726 227.951 29.1128C227.62 29.253 227.255 29.292 226.902 29.2247C226.549 29.1574 226.223 28.987 225.967 28.7349C225.711 28.4828 225.536 28.1604 225.463 27.8085C225.39 27.4566 225.423 27.091 225.558 26.7579C225.692 26.4248 225.923 26.1391 226.22 25.9371C226.619 25.6662 227.108 25.5647 227.582 25.6549C228.055 25.7451 228.473 26.0196 228.744 26.4181Z" fill="#037A80"/>
<path d="M237.419 19.3685C236.706 19.3682 236.02 19.1023 235.493 18.6227C234.967 18.1431 234.638 17.4844 234.571 16.7753C234.504 16.0662 234.705 15.3577 235.133 14.7884C235.561 14.2191 236.186 13.8299 236.885 13.6968C237.585 13.5638 238.309 13.6966 238.916 14.0691C239.523 14.4417 239.969 15.0272 240.168 15.7113C240.366 16.3954 240.302 17.1289 239.988 17.7682C239.674 18.4076 239.133 18.9069 238.471 19.1685C238.136 19.3008 237.779 19.3686 237.419 19.3685ZM237.419 14.7255C236.975 14.7246 236.547 14.8881 236.218 15.1845C235.888 15.4809 235.681 15.889 235.635 16.3298C235.589 16.7706 235.708 17.2128 235.969 17.5708C236.23 17.9288 236.615 18.1772 237.049 18.2677C237.483 18.3583 237.935 18.2847 238.318 18.0611C238.7 17.8375 238.987 17.4799 239.121 17.0575C239.255 16.6351 239.228 16.1779 239.044 15.7745C238.861 15.371 238.534 15.05 238.128 14.8735C237.904 14.7764 237.663 14.726 237.419 14.7255Z" fill="white"/>
<path d="M238.704 23.9608C238.615 23.9608 238.528 23.9387 238.45 23.8967C238.372 23.8547 238.306 23.7939 238.258 23.7199C238.209 23.646 238.18 23.5611 238.172 23.4729C238.164 23.3847 238.179 23.296 238.214 23.2148L242.849 12.4988C242.874 12.4313 242.913 12.3697 242.963 12.3177C243.014 12.2657 243.074 12.2244 243.14 12.1964C243.207 12.1683 243.278 12.154 243.35 12.1543C243.423 12.1546 243.494 12.1696 243.56 12.1983C243.627 12.227 243.686 12.2688 243.736 12.3212C243.786 12.3736 243.824 12.4356 243.849 12.5033C243.874 12.571 243.885 12.6431 243.881 12.7152C243.878 12.7873 243.859 12.8579 243.828 12.9228L239.193 23.6388C239.151 23.7343 239.083 23.8156 238.996 23.8728C238.91 23.93 238.808 23.9606 238.704 23.9608Z" fill="white"/>
<path d="M244.612 22.4798C243.9 22.4796 243.213 22.2136 242.687 21.7341C242.16 21.2545 241.831 20.5957 241.765 19.8866C241.698 19.1775 241.898 18.4691 242.326 17.8997C242.754 17.3304 243.379 16.9412 244.079 16.8082C244.778 16.6751 245.502 16.8079 246.109 17.1804C246.717 17.553 247.163 18.1386 247.361 18.8227C247.559 19.5068 247.495 20.2402 247.181 20.8795C246.867 21.5189 246.326 22.0182 245.664 22.2798C245.329 22.4121 244.972 22.48 244.612 22.4798ZM244.612 17.8378C244.17 17.8372 243.743 18.0007 243.414 18.2966C243.086 18.5925 242.878 18.9999 242.833 19.4398C242.787 19.8797 242.907 20.3209 243.168 20.6779C243.429 21.0349 243.813 21.2824 244.246 21.3724C244.679 21.4625 245.13 21.3886 245.511 21.1652C245.893 20.9419 246.178 20.5848 246.312 20.1632C246.445 19.7416 246.418 19.2854 246.234 18.883C246.051 18.4806 245.725 18.1605 245.319 17.9848C245.096 17.8882 244.855 17.8382 244.612 17.8378Z" fill="white"/>
<path d="M207.888 66.9069C207.151 68.986 205.682 70.7255 203.756 71.7999C203.044 72.2373 202.302 72.6259 201.537 72.9629C201.058 73.1739 200.591 73.3549 200.137 73.5099C199.595 73.6969 199.076 73.8459 198.592 73.9639C197.859 74.1437 197.115 74.2717 196.364 74.3469C195.821 74.4078 195.273 74.4249 194.727 74.3979L183.292 70.8439L181.699 70.3439C181.755 70.1289 181.835 69.8439 181.946 69.4979C182.312 68.3647 182.77 67.2631 183.314 66.2039C185.587 61.6742 189.404 58.106 194.076 56.1429C204.545 51.7429 208.015 58.3429 208.308 61.6429C208.425 62.7566 208.425 63.8793 208.308 64.9929C208.234 65.6437 208.094 66.285 207.888 66.9069Z" fill="#222222"/>
<path opacity="0.6" d="M207.888 66.9069C207.151 68.986 205.682 70.7255 203.756 71.7999C203.044 72.2373 202.302 72.6259 201.537 72.9629C201.058 73.1739 200.591 73.3549 200.137 73.5099C199.595 73.6969 199.076 73.8459 198.592 73.9639C197.859 74.1437 197.115 74.2717 196.364 74.3469C195.821 74.4078 195.273 74.4249 194.727 74.3979L183.292 70.8439L181.699 70.3439C181.755 70.1289 181.835 69.8439 181.946 69.4979C182.312 68.3647 182.77 67.2631 183.314 66.2039C185.587 61.6742 189.404 58.106 194.076 56.1429C204.545 51.7429 208.015 58.3429 208.308 61.6429C208.425 62.7566 208.425 63.8793 208.308 64.9929C208.234 65.6437 208.094 66.285 207.888 66.9069Z" fill="#037A80"/>
<path opacity="0.6" d="M207.88 66.9068C207.144 68.9861 205.674 70.7257 203.748 71.7998C203.035 72.2373 202.294 72.6259 201.529 72.9628C203.977 65.8748 195.719 65.1768 195.719 65.1768L201.782 61.1718C201.782 61.1718 208.43 60.7108 207.88 66.9068Z" fill="#037A80"/>
<path d="M181.03 70.2399C181.02 70.2799 181.009 70.3159 180.999 70.3499L167.74 67.1779C167.245 66.9241 166.771 66.6301 166.324 66.2989C165.714 65.8581 165.135 65.3753 164.592 64.8539C163.244 63.5596 162.106 62.0633 161.218 60.4189C158.649 55.6899 160.35 52.1899 162.341 49.3499C164.241 46.6369 170.547 42.6499 177.418 51.6919C180.516 55.768 182.039 60.8249 181.709 65.9339C181.647 67.0723 181.497 68.2041 181.258 69.3189C181.17 69.7109 181.09 70.0209 181.03 70.2399Z" fill="#222222"/>
<path opacity="0.6" d="M181.03 70.2399C181.02 70.2799 181.009 70.3159 180.999 70.3499L167.74 67.1779C167.245 66.9241 166.771 66.6301 166.324 66.2989C165.714 65.8581 165.135 65.3753 164.592 64.8539C163.244 63.5596 162.106 62.0633 161.218 60.4189C158.649 55.6899 160.35 52.1899 162.341 49.3499C164.241 46.6369 170.547 42.6499 177.418 51.6919C180.516 55.768 182.039 60.8249 181.709 65.9339C181.647 67.0723 181.497 68.2041 181.258 69.3189C181.17 69.7109 181.09 70.0209 181.03 70.2399Z" fill="#037A80"/>
<path opacity="0.6" d="M160.069 54.1111C159.668 56.2793 160.072 58.5189 161.204 60.4111C161.603 61.1457 162.051 61.8523 162.546 62.5261C163.965 55.1631 171.467 58.6821 171.467 58.6821L168.214 52.1821C168.214 52.1821 162.689 48.4721 160.069 54.1111Z" fill="#037A80"/>
<path d="M179.27 67.9236C179.203 67.8496 170.621 58.3866 169.052 55.0376C167.652 52.0376 167.699 48.1646 171.21 49.8716C171.712 50.123 172.191 50.4168 172.644 50.7497C176.282 53.3707 178.102 60.9996 178.844 65.1496C179.14 66.7976 179.27 67.8966 179.27 67.9236Z" fill="#037A80"/>
<path d="M184.361 69.2914C184.361 69.2914 192.428 58.3574 198.678 57.7214C204.7 57.1084 202.692 61.1034 199.648 63.2294C196.604 65.3554 184.361 69.2914 184.361 69.2914Z" fill="#037A80"/>
<path d="M179.27 67.9236C179.203 67.8496 170.621 58.3866 169.052 55.0376C167.652 52.0376 167.699 48.1646 171.21 49.8716C171.21 49.9476 168.148 55.0366 178.845 65.1516C179.14 66.7976 179.27 67.8966 179.27 67.9236Z" fill="#037A80"/>
<path d="M184.359 69.2888C184.454 69.2578 196.614 65.3458 199.646 63.2278C202.36 61.3278 204.246 57.9488 200.356 57.6738C200.32 57.7408 200.43 63.6739 186.11 67.0989C185.039 68.3759 184.379 69.2688 184.359 69.2888Z" fill="#037A80"/>
<path d="M184.953 71.409L177.691 69.4661C177.701 69.4291 177.711 69.391 177.723 69.355C178.004 68.4181 178.638 67.6274 179.492 67.1507C180.346 66.674 181.352 66.5488 182.296 66.8018C183.241 67.0548 184.05 67.6661 184.551 68.5059C185.052 69.3456 185.206 70.3476 184.98 71.2991C184.973 71.3331 184.963 71.372 184.953 71.409Z" fill="#037A80"/>
<path d="M203.917 81.0904L156.434 68.3594L143.703 115.842L191.186 128.573L203.917 81.0904Z" fill="#037A80"/>
<path d="M207.866 77.3432L154.887 63.1387L152.636 71.5341L205.615 85.7387L207.866 77.3432Z" fill="#222222"/>
<path opacity="0.4" d="M207.866 77.3432L154.887 63.1387L152.636 71.5341L205.615 85.7387L207.866 77.3432Z" fill="#037A80"/>
<path d="M183.872 70.9054L178.885 69.5684L164.951 121.536L169.938 122.873L183.872 70.9054Z" fill="white"/>
<g opacity="0.4">
<path d="M202.87 85.0025L155.387 72.2715L154.456 75.7409L201.939 88.4719L202.87 85.0025Z" fill="#222222"/>
</g>
<path d="M161.942 85.9326L129.508 77.2363L120.812 109.671L153.246 118.367L161.942 85.9326Z" fill="#222222"/>
<path opacity="0.6" d="M161.942 85.9326L129.508 77.2363L120.812 109.671L153.246 118.367L161.942 85.9326Z" fill="#037A80"/>
<path d="M164.641 83.3725L128.453 73.6699L126.916 79.4044L163.103 89.107L164.641 83.3725Z" fill="#222222"/>
<path opacity="0.4" d="M164.641 83.3725L128.453 73.6699L126.916 79.4044L163.103 89.107L164.641 83.3725Z" fill="#037A80"/>
<path d="M148.252 78.9759L144.846 78.0625L135.328 113.56L138.735 114.473L148.252 78.9759Z" fill="white"/>
<path opacity="0.4" d="M161.229 88.6044L128.795 79.9082L128.085 82.5567L160.519 91.2529L161.229 88.6044Z" fill="#222222"/>
<path d="M255.075 53.7277L236.898 52.3867H236.707C236.528 52.3993 236.354 52.4493 236.196 52.5337H236.189L236.162 52.5477L236.133 52.5657H236.125C236.015 52.6334 235.916 52.7169 235.831 52.8137L235.823 52.8227L235.783 52.8697L235.766 52.8927V52.8977L235.715 52.9707L218.932 79.8957L121.632 53.8237C121.44 53.7723 121.239 53.7659 121.044 53.805C120.849 53.8441 120.666 53.9277 120.509 54.0493C120.352 54.1709 120.224 54.3271 120.138 54.5059C120.051 54.6846 120.006 54.881 120.008 55.0797L120.433 111.102C120.436 111.384 120.53 111.658 120.703 111.881C120.876 112.104 121.117 112.265 121.389 112.339H121.4L189.316 130.539H189.34L195.402 132.164C198.254 132.928 200.136 134.234 200.996 136.046C201.752 137.977 201.797 140.114 201.125 142.076C200.568 144.148 199.211 145.915 197.353 146.988C195.495 148.061 193.286 148.352 191.213 147.799L99.4689 123.216C99.305 123.171 99.134 123.159 98.9655 123.181C98.797 123.202 98.6345 123.257 98.4872 123.342C98.3399 123.426 98.2109 123.539 98.1073 123.674C98.0038 123.809 97.9279 123.962 97.884 124.126C97.84 124.29 97.8287 124.462 97.851 124.63C97.8733 124.798 97.9289 124.961 98.0141 125.108C98.0993 125.254 98.2125 125.383 98.3476 125.486C98.4826 125.589 98.6367 125.664 98.8009 125.708L190.545 150.291C193.279 151.02 196.191 150.636 198.642 149.221C201.093 147.806 202.883 145.476 203.618 142.744C204.458 140.193 204.355 137.425 203.327 134.944C202.127 132.417 199.687 130.644 196.07 129.676L191.678 128.499L237.491 54.9987L254.891 56.2827C255.06 56.2952 255.23 56.2743 255.391 56.2211C255.551 56.168 255.7 56.0837 255.829 55.9731C255.957 55.8624 256.062 55.7276 256.138 55.5763C256.214 55.425 256.26 55.2601 256.272 55.0912C256.285 54.9222 256.264 54.7525 256.211 54.5917C256.158 54.4308 256.073 54.282 255.963 54.1537C255.852 54.0254 255.717 53.9202 255.566 53.844C255.415 53.7678 255.25 53.7222 255.081 53.7097L255.075 53.7277ZM217.501 82.1987L211.26 92.2117L194.109 87.6117L198.945 77.2287L217.501 82.1987ZM195.308 117.799L189.067 127.812L176.885 124.548L181.729 114.161L195.308 117.799ZM159.032 108.079L156.111 118.979L139.287 114.471L140.287 103.054L159.032 108.079ZM140.109 88.8087L139.021 101.249L122.9 96.9287L122.8 84.1707L140.109 88.8087ZM141.323 74.9347L140.235 87.3747L122.793 82.7007L122.693 69.9427L141.323 74.9347ZM142.448 62.0837L141.448 73.5007L122.684 68.4727L122.595 56.7637L142.448 62.0837ZM141.626 87.7477L142.714 75.3077L166.132 81.5827L162.945 93.4667L141.626 87.7477ZM162.583 94.8307L159.4 106.71L140.412 101.622L141.5 89.1817L162.583 94.8307ZM186.225 101.166L180.945 112.489L160.767 107.082L163.945 95.2027L186.225 101.166ZM164.319 93.8287L167.502 81.9497L192.111 88.5437L186.833 99.8617L164.319 93.8287ZM142.845 73.8787L143.845 62.4617L169.427 69.3167L166.506 80.2167L142.845 73.8787ZM180.345 113.794L175.501 124.181L157.486 119.354L160.407 108.454L180.345 113.794ZM202.899 105.638L196.099 116.548L182.345 112.863L187.623 101.545L202.899 105.638ZM167.875 80.5857L170.796 69.6857L197.569 76.8597L192.725 87.2467L167.875 80.5857ZM210.483 93.4707L203.683 104.381L188.23 100.24L193.495 88.9207L210.483 93.4707ZM138.902 102.69L137.902 114.107L123.002 110.115L122.913 98.4057L138.902 102.69Z" fill="#1F1F3E"/>
<path d="M175.592 148.271C174.345 147.937 173.028 147.98 171.806 148.395C170.583 148.809 169.511 149.577 168.726 150.601C167.94 151.625 167.475 152.859 167.391 154.147C167.306 155.435 167.606 156.719 168.251 157.836C168.896 158.954 169.859 159.855 171.016 160.426C172.174 160.997 173.475 161.211 174.754 161.043C176.034 160.874 177.235 160.33 178.205 159.479C179.175 158.628 179.871 157.508 180.205 156.261C180.652 154.59 180.418 152.81 179.553 151.311C178.688 149.813 177.263 148.72 175.592 148.271ZM177.713 155.594C177.511 156.349 177.091 157.026 176.504 157.541C175.917 158.056 175.191 158.385 174.417 158.488C173.643 158.59 172.856 158.46 172.156 158.115C171.456 157.77 170.874 157.225 170.483 156.549C170.093 155.873 169.912 155.096 169.963 154.317C170.014 153.538 170.295 152.792 170.771 152.173C171.246 151.553 171.894 151.089 172.634 150.838C173.373 150.588 174.17 150.562 174.924 150.764C175.934 151.036 176.795 151.697 177.318 152.602C177.841 153.508 177.983 154.584 177.713 155.594Z" fill="#1F1F3E"/>
<path d="M124.592 136.271C123.345 135.937 122.028 135.98 120.806 136.395C119.583 136.809 118.511 137.577 117.726 138.601C116.94 139.625 116.475 140.859 116.391 142.147C116.306 143.435 116.606 144.719 117.251 145.836C117.896 146.954 118.859 147.855 120.016 148.426C121.174 148.997 122.475 149.211 123.754 149.043C125.034 148.874 126.235 148.33 127.205 147.479C128.175 146.628 128.871 145.508 129.205 144.261C129.652 142.59 129.418 140.81 128.553 139.311C127.688 137.813 126.263 136.72 124.592 136.271ZM126.713 143.594C126.511 144.349 126.091 145.026 125.504 145.541C124.917 146.056 124.191 146.385 123.417 146.488C122.643 146.59 121.856 146.46 121.156 146.115C120.456 145.77 119.874 145.225 119.483 144.549C119.093 143.873 118.912 143.096 118.963 142.317C119.014 141.538 119.295 140.792 119.771 140.173C120.246 139.553 120.894 139.089 121.634 138.838C122.373 138.588 123.17 138.562 123.924 138.764C124.934 139.036 125.795 139.697 126.318 140.602C126.841 141.508 126.983 142.584 126.713 143.594Z" fill="#1F1F3E"/>
<path d="M174.558 152.123C173.996 151.976 173.4 152.028 172.872 152.271C172.344 152.514 171.917 152.932 171.662 153.455C171.408 153.977 171.342 154.572 171.476 155.137C171.611 155.703 171.936 156.204 172.399 156.556C172.861 156.909 173.431 157.09 174.012 157.07C174.592 157.049 175.148 156.828 175.585 156.444C176.021 156.06 176.311 155.537 176.405 154.964C176.499 154.39 176.392 153.802 176.101 153.299C175.935 153.01 175.713 152.758 175.448 152.556C175.183 152.354 174.881 152.207 174.558 152.123ZM173.614 155.644C173.615 155.528 173.663 155.416 173.746 155.334C173.829 155.252 173.941 155.206 174.058 155.206C174.175 155.207 174.287 155.254 174.37 155.337C174.452 155.42 174.498 155.532 174.498 155.649C174.498 155.765 174.452 155.878 174.37 155.96C174.287 156.043 174.175 156.09 174.058 156.091C173.941 156.091 173.829 156.045 173.746 155.963C173.663 155.881 173.615 155.769 173.614 155.653V155.644Z" fill="#1F1F3E"/>
<path d="M123.558 140.123C122.996 139.976 122.4 140.028 121.872 140.271C121.344 140.514 120.917 140.932 120.662 141.455C120.408 141.977 120.342 142.572 120.476 143.137C120.611 143.703 120.936 144.204 121.399 144.556C121.861 144.909 122.431 145.09 123.012 145.07C123.592 145.049 124.148 144.828 124.585 144.444C125.021 144.06 125.311 143.537 125.405 142.964C125.499 142.39 125.392 141.802 125.101 141.299C124.935 141.01 124.713 140.758 124.448 140.556C124.183 140.354 123.881 140.207 123.558 140.123ZM122.614 143.644C122.615 143.528 122.663 143.416 122.746 143.334C122.829 143.252 122.941 143.206 123.058 143.206C123.175 143.207 123.287 143.254 123.37 143.337C123.452 143.42 123.498 143.532 123.498 143.649C123.498 143.765 123.452 143.878 123.37 143.96C123.287 144.043 123.175 144.09 123.058 144.091C122.941 144.091 122.829 144.045 122.746 143.963C122.663 143.881 122.615 143.769 122.614 143.653V143.644Z" fill="#1F1F3E"/>
<path d="M114.214 107.486C114.274 107.502 114.335 107.51 114.397 107.51H114.404C114.591 107.508 114.77 107.432 114.901 107.298C115.032 107.164 115.105 106.984 115.104 106.796L114.916 83.8554C114.915 83.7623 114.896 83.6702 114.86 83.5845C114.823 83.4988 114.771 83.4211 114.704 83.3558C114.638 83.2905 114.559 83.239 114.473 83.2041C114.386 83.1692 114.294 83.1516 114.201 83.1524C114.108 83.1532 114.016 83.1723 113.93 83.2086C113.844 83.245 113.767 83.2979 113.701 83.3643C113.636 83.4307 113.584 83.5093 113.55 83.5956C113.515 83.6819 113.497 83.7743 113.498 83.8674L113.686 106.808C113.688 106.964 113.741 107.114 113.836 107.236C113.931 107.359 114.064 107.446 114.214 107.486Z" fill="#1F1F3E"/>
<path d="M108.127 84.5349C108.187 84.5509 108.249 84.559 108.31 84.5589H108.317C108.505 84.5565 108.684 84.4799 108.815 84.3459C108.946 84.2119 109.019 84.0314 109.017 83.8438L108.91 70.7929C108.909 70.6048 108.832 70.4251 108.698 70.2933C108.564 70.1615 108.383 70.0883 108.195 70.0899C108.007 70.0915 107.827 70.1677 107.696 70.3018C107.564 70.4359 107.491 70.6168 107.492 70.8048L107.599 83.8559C107.601 84.0112 107.653 84.1617 107.749 84.2843C107.844 84.4069 107.977 84.4949 108.127 84.5349Z" fill="#1F1F3E"/>
<path d="M108.325 86.2383C108.138 86.2407 107.959 86.3173 107.827 86.4513C107.696 86.5853 107.623 86.7658 107.625 86.9534L107.681 93.7533C107.683 93.9397 107.759 94.1177 107.891 94.2488C108.024 94.3798 108.203 94.4534 108.389 94.4534H108.396C108.583 94.4513 108.762 94.3748 108.894 94.241C109.025 94.1071 109.098 93.9268 109.096 93.7394L109.041 86.9393C109.039 86.7518 108.962 86.5728 108.828 86.4417C108.694 86.3105 108.514 86.2378 108.326 86.2394L108.325 86.2383Z" fill="#1F1F3E"/>
<path d="M293.31 161.316H260.662L263.628 126.574H290.345L293.31 161.316Z" fill="#037A80"/>
<path d="M285.164 124.536C284.669 122.541 283.46 120.795 281.766 119.63C280.072 118.464 278.01 117.959 275.969 118.209C273.929 118.459 272.05 119.448 270.688 120.988C269.326 122.528 268.575 124.514 268.576 126.57H270.698C270.749 124.934 271.434 123.381 272.61 122.242C273.785 121.102 275.358 120.465 276.995 120.465C278.632 120.465 280.205 121.102 281.381 122.242C282.556 123.381 283.242 124.934 283.292 126.57H285.414C285.415 125.884 285.331 125.2 285.164 124.534V124.536Z" fill="#037A80"/>
<path d="M290.909 133.172C290.909 133.172 285.248 153.786 261.383 152.892L260.664 161.319H293.309L290.909 133.172Z" fill="#222222"/>
<path opacity="0.6" d="M290.909 133.172C290.909 133.172 285.248 153.786 261.383 152.892L260.664 161.319H293.309L290.909 133.172Z" fill="#037A80"/>
<path d="M271.033 124.537C270.809 125.192 270.695 125.879 270.696 126.571H268.574C268.573 125.885 268.657 125.202 268.823 124.537H271.033Z" fill="#222222"/>
<path opacity="0.4" d="M271.033 124.537C270.809 125.192 270.695 125.879 270.696 126.571H268.574C268.573 125.885 268.657 125.202 268.823 124.537H271.033Z" fill="#037A80"/>
<path d="M285.406 126.577H283.284C283.286 125.885 283.171 125.198 282.947 124.543H285.157C285.323 125.208 285.407 125.891 285.406 126.577Z" fill="#222222"/>
<path opacity="0.4" d="M285.406 126.577H283.284C283.286 125.885 283.171 125.198 282.947 124.543H285.157C285.323 125.208 285.407 125.891 285.406 126.577Z" fill="#037A80"/>
<path d="M238.244 114.317H240.944C240.944 112.189 241.789 110.148 243.294 108.643C244.799 107.138 246.84 106.293 248.968 106.293C251.096 106.293 253.137 107.138 254.642 108.643C256.146 110.148 256.992 112.189 256.992 114.317H259.692C259.705 112.9 259.438 111.493 258.905 110.18C258.372 108.867 257.584 107.672 256.587 106.665C255.59 105.658 254.402 104.858 253.094 104.313C251.786 103.767 250.383 103.486 248.965 103.486C247.548 103.486 246.144 103.767 244.836 104.313C243.528 104.858 242.341 105.658 241.344 106.665C240.346 107.672 239.558 108.867 239.025 110.18C238.492 111.493 238.225 112.9 238.239 114.317H238.244Z" fill="#037A80"/>
<path d="M256.568 111.729C256.854 112.562 257 113.438 256.999 114.319H259.698C259.699 113.446 259.592 112.576 259.381 111.729H256.568Z" fill="#222222"/>
<path opacity="0.4" d="M256.568 111.729C256.854 112.562 257 113.438 256.999 114.319H259.698C259.699 113.446 259.592 112.576 259.381 111.729H256.568Z" fill="#037A80"/>
<path d="M238.244 114.318H240.944C240.943 113.436 241.089 112.56 241.374 111.727H238.558C238.348 112.574 238.242 113.444 238.244 114.318Z" fill="#222222"/>
<path opacity="0.4" d="M238.244 114.318H240.944C240.943 113.436 241.089 112.56 241.374 111.727H238.558C238.348 112.574 238.242 113.444 238.244 114.318Z" fill="#037A80"/>
<path d="M267.372 114.314H230.576V161.314H267.372V114.314Z" fill="#222222"/>
<path opacity="0.2" d="M267.372 114.314H230.576V161.314H267.372V114.314Z" fill="#037A80"/>
<path d="M222.487 161.314H259.283V114.313H222.487V161.314Z" fill="#037A80"/>
<path d="M248.662 124.093V133.6H255.743V124.093C255.743 124.046 255.734 123.999 255.716 123.955C255.698 123.911 255.671 123.871 255.637 123.837L252.459 120.657L252.45 120.65V114.318H251.956V120.65L251.946 120.657L248.768 123.837C248.7 123.905 248.662 123.997 248.662 124.093ZM252.299 121.776C252.405 121.8 252.5 121.857 252.57 121.941C252.639 122.024 252.679 122.128 252.682 122.237C252.686 122.345 252.653 122.452 252.59 122.54C252.526 122.627 252.435 122.691 252.331 122.722C252.226 122.752 252.115 122.746 252.014 122.706C251.914 122.666 251.829 122.594 251.774 122.5C251.719 122.407 251.697 122.298 251.711 122.19C251.725 122.082 251.774 121.983 251.851 121.906C251.909 121.849 251.981 121.808 252.059 121.785C252.137 121.762 252.219 121.759 252.299 121.776Z" fill="white"/>
<path d="M250.876 126.135C250.63 126.135 250.389 126.203 250.18 126.332C249.97 126.461 249.801 126.645 249.69 126.865C249.665 126.915 249.642 126.968 249.623 127.021C248.966 128.821 252.205 130.838 252.205 130.838V127.464C252.205 127.289 252.171 127.116 252.104 126.955C252.037 126.794 251.939 126.647 251.816 126.524C251.693 126.4 251.546 126.302 251.385 126.236C251.224 126.169 251.051 126.135 250.876 126.135Z" fill="#037A80"/>
<path d="M253.534 126.135C253.78 126.135 254.021 126.203 254.23 126.332C254.44 126.461 254.609 126.645 254.72 126.865C254.746 126.915 254.768 126.967 254.787 127.021C255.444 128.821 252.205 130.838 252.205 130.838V127.464C252.205 127.111 252.345 126.773 252.594 126.524C252.844 126.275 253.182 126.135 253.534 126.135Z" fill="#037A80"/>
<path d="M259.284 161.314H263.328V114.314H259.284V161.314Z" fill="#222222"/>
<path opacity="0.4" d="M259.284 161.314H263.328V114.314H259.284V161.314Z" fill="#037A80"/>
<path d="M230.156 114.317H232.856C232.856 112.189 233.701 110.148 235.206 108.644C236.71 107.139 238.751 106.294 240.879 106.294C243.007 106.294 245.047 107.139 246.552 108.644C248.057 110.148 248.902 112.189 248.902 114.317H251.602C251.616 112.9 251.348 111.493 250.815 110.18C250.283 108.867 249.494 107.672 248.497 106.665C247.5 105.658 246.313 104.858 245.004 104.313C243.696 103.767 242.293 103.486 240.875 103.486C239.458 103.486 238.055 103.767 236.747 104.313C235.438 104.858 234.251 105.658 233.254 106.665C232.257 107.672 231.468 108.867 230.936 110.18C230.403 111.493 230.135 112.9 230.149 114.317H230.156Z" fill="#037A80"/>
<path d="M248.479 111.729C248.764 112.562 248.909 113.438 248.907 114.319H251.607C251.608 113.446 251.502 112.576 251.291 111.729H248.479Z" fill="#222222"/>
<path opacity="0.4" d="M248.479 111.729C248.764 112.562 248.909 113.438 248.907 114.319H251.607C251.608 113.446 251.502 112.576 251.291 111.729H248.479Z" fill="#037A80"/>
<path d="M230.156 114.318H232.856C232.855 113.436 233 112.56 233.285 111.727H230.47C230.26 112.574 230.154 113.444 230.156 114.318Z" fill="#222222"/>
<path opacity="0.4" d="M230.156 114.318H232.856C232.855 113.436 233 112.56 233.285 111.727H230.47C230.26 112.574 230.154 113.444 230.156 114.318Z" fill="#037A80"/>
<path d="M259.284 119.24C259.284 119.24 259.159 161.31 225.984 161.31H259.284V119.24Z" fill="#222222"/>
<path opacity="0.6" d="M259.284 119.24C259.284 119.24 259.159 161.31 225.984 161.31H259.284V119.24Z" fill="#037A80"/>
<path d="M259.283 161.309H267.371L263.327 157.123L259.283 161.309Z" fill="#222222"/>
<path opacity="0.1" d="M259.283 161.309H267.371L263.327 157.123L259.283 161.309Z" fill="#037A80"/>
<path d="M276.901 44.7979L279.693 46.3249L276.901 47.8519L275.374 50.6439L273.847 47.8519L271.055 46.3249L273.847 44.7979L275.374 42.0059L276.901 44.7979Z" fill="#037A80"/>
<path d="M301.615 162.481C301.615 162.635 301.585 162.786 301.526 162.928C301.468 163.069 301.382 163.198 301.274 163.306C301.165 163.415 301.037 163.5 300.895 163.559C300.754 163.618 300.602 163.648 300.449 163.647H214.126C213.816 163.647 213.52 163.525 213.301 163.306C213.082 163.087 212.959 162.79 212.959 162.48C212.959 162.171 213.082 161.875 213.301 161.656C213.52 161.437 213.817 161.314 214.126 161.314H300.449C300.602 161.314 300.754 161.345 300.895 161.403C301.037 161.462 301.165 161.548 301.274 161.656C301.382 161.765 301.468 161.893 301.526 162.035C301.585 162.177 301.615 162.328 301.615 162.481Z" fill="#1F1F3E"/>
<path d="M119.541 41.2088V34.1668C119.541 33.9097 119.438 33.6631 119.257 33.4813C119.075 33.2994 118.828 33.1973 118.571 33.1973C118.314 33.1973 118.067 33.2994 117.885 33.4813C117.704 33.6631 117.602 33.9097 117.602 34.1668V41.2088C117.602 41.4659 117.704 41.7125 117.885 41.8943C118.067 42.0762 118.314 42.1783 118.571 42.1783C118.828 42.1783 119.075 42.0762 119.257 41.8943C119.438 41.7125 119.541 41.4659 119.541 41.2088Z" fill="#037A80"/>
<path d="M110.596 50.1467C110.596 49.8897 110.494 49.6433 110.312 49.4615C110.131 49.2798 109.884 49.1777 109.627 49.1777H102.585C102.334 49.1858 102.095 49.2915 101.92 49.4724C101.744 49.6533 101.646 49.8953 101.646 50.1472C101.646 50.3991 101.744 50.6411 101.92 50.822C102.095 51.003 102.334 51.1086 102.585 51.1167H109.627C109.755 51.1167 109.881 51.0916 109.999 51.0428C110.116 50.9941 110.223 50.9226 110.313 50.8325C110.403 50.7424 110.474 50.6355 110.523 50.5178C110.572 50.4001 110.597 50.2741 110.596 50.1467Z" fill="#037A80"/>
<path d="M113.074 43.6839C113.074 43.5567 113.049 43.4307 113 43.3132C112.951 43.1956 112.88 43.0888 112.79 42.9989L107.954 38.1609C107.772 37.9791 107.525 37.877 107.268 37.877C107.011 37.877 106.765 37.9791 106.583 38.1609C106.401 38.3428 106.299 38.5893 106.299 38.8464C106.299 39.1035 106.401 39.3501 106.583 39.5319L111.42 44.3689C111.555 44.5047 111.728 44.5973 111.916 44.6348C112.104 44.6724 112.299 44.6532 112.476 44.5799C112.654 44.5065 112.805 44.3823 112.912 44.2228C113.018 44.0633 113.074 43.8757 113.074 43.6839Z" fill="#037A80"/>
<path d="M34.3122 115.693C34.4454 117.389 35.1919 118.979 36.4121 120.165C36.8555 120.634 37.3303 121.071 37.8332 121.475C38.1482 121.728 38.4601 121.956 38.7641 122.161C39.1311 122.409 39.4871 122.623 39.8261 122.808C40.3359 123.088 40.8649 123.332 41.4091 123.538C41.802 123.692 42.2067 123.814 42.6192 123.903L51.8511 123.538L53.1381 123.487C53.1381 123.316 53.1381 123.087 53.1231 122.807C53.0767 121.889 52.9557 120.977 52.7611 120.079C51.9715 116.249 49.8392 112.828 46.749 110.431C39.826 105.058 35.9201 109.288 35.0431 111.689C34.734 112.497 34.5102 113.335 34.3751 114.189C34.3031 114.686 34.282 115.188 34.3122 115.689V115.693Z" fill="#222222"/>
<path opacity="0.6" d="M34.3122 115.693C34.4454 117.389 35.1919 118.979 36.4121 120.165C36.8555 120.634 37.3303 121.071 37.8332 121.475C38.1482 121.728 38.4601 121.956 38.7641 122.161C39.1311 122.409 39.4871 122.623 39.8261 122.808C40.3359 123.088 40.8649 123.332 41.4091 123.538C41.802 123.692 42.2067 123.814 42.6192 123.903L51.8511 123.538L53.1381 123.487C53.1381 123.316 53.1381 123.087 53.1231 122.807C53.0767 121.889 52.9557 120.977 52.7611 120.079C51.9715 116.249 49.8392 112.828 46.749 110.431C39.826 105.058 35.9201 109.288 35.0431 111.689C34.734 112.497 34.5102 113.335 34.3751 114.189C34.3031 114.686 34.282 115.188 34.3122 115.689V115.693Z" fill="#037A80"/>
<path opacity="0.6" d="M34.3203 115.692C34.4535 117.389 35.2 118.979 36.4203 120.164C36.8638 120.633 37.3386 121.07 37.8413 121.474C37.4323 115.703 43.7263 116.831 43.7263 116.831L40.0073 112.631C40.0073 112.631 35.1403 110.962 34.3203 115.692Z" fill="#037A80"/>
<path d="M53.6641 123.532V123.62L64.1812 123.904C64.6006 123.814 65.012 123.69 65.4111 123.532C65.9546 123.326 66.4829 123.082 66.9921 122.801C68.2549 122.105 69.402 121.217 70.3921 120.169C73.2511 117.158 72.6821 114.209 71.7661 111.694C70.8901 109.294 66.9882 105.06 60.0602 110.429C56.9373 112.849 54.7919 116.314 54.0181 120.188C53.8368 121.049 53.7231 121.923 53.6781 122.801C53.6641 123.112 53.6641 123.362 53.6641 123.532Z" fill="#222222"/>
<path opacity="0.6" d="M53.6641 123.532V123.62L64.1812 123.904C64.6006 123.814 65.012 123.69 65.4111 123.532C65.9546 123.326 66.4829 123.082 66.9921 122.801C68.2549 122.105 69.402 121.217 70.3921 120.169C73.2511 117.158 72.6821 114.209 71.7661 111.694C70.8901 109.294 66.9882 105.06 60.0602 110.429C56.9373 112.849 54.7919 116.314 54.0181 120.188C53.8368 121.049 53.7231 121.923 53.6781 122.801C53.6641 123.112 53.6641 123.362 53.6641 123.532Z" fill="#037A80"/>
<path opacity="0.6" d="M72.5134 115.7C72.3805 117.396 71.6338 118.986 70.4133 120.171C69.9694 120.639 69.4944 121.076 68.9915 121.48C69.4045 115.709 63.1094 116.833 63.1094 116.833L66.8313 112.639C66.8313 112.639 71.6934 110.97 72.5134 115.7Z" fill="#037A80"/>
<path d="M55.4355 122.171C55.5005 122.129 63.7866 116.79 65.6246 114.607C67.2706 112.653 68.0056 109.754 65.0476 110.325C64.6232 110.412 64.207 110.535 63.8036 110.693C60.5686 111.92 57.6886 117.242 56.3036 120.193C55.7556 121.351 55.4455 122.141 55.4355 122.171Z" fill="#037A80"/>
<path d="M51.3716 122.158C51.3716 122.158 47.5427 112.397 43.0117 110.675C38.6457 109.016 39.3447 112.394 41.1887 114.587C43.0327 116.78 51.3716 122.158 51.3716 122.158Z" fill="#037A80"/>
<path d="M55.4355 122.171C55.5005 122.129 63.7866 116.79 65.6246 114.607C67.2706 112.653 68.0056 109.754 65.0476 110.325C65.0346 110.382 66.2986 114.786 56.3046 120.189C55.7556 121.351 55.4455 122.141 55.4355 122.171Z" fill="#037A80"/>
<path d="M51.3706 122.159C51.3066 122.117 43.0236 116.773 41.1866 114.589C39.5416 112.633 38.8086 109.735 41.7666 110.308C41.7796 110.365 40.5127 114.768 50.5027 120.178C51.0507 121.349 51.3606 122.139 51.3706 122.159Z" fill="#037A80"/>
<path d="M50.5078 123.63H56.3077V123.541C56.3077 122.772 56.0022 122.034 55.4584 121.49C54.9145 120.946 54.177 120.641 53.4078 120.641C52.6387 120.641 51.901 120.946 51.3572 121.49C50.8133 122.034 50.5078 122.772 50.5078 123.541V123.63Z" fill="#037A80"/>
<path d="M34.441 161.383H72.375V126.739H34.441L34.441 161.383Z" fill="#037A80"/>
<path d="M32.2463 129.592H74.5703V123.467H32.2463V129.592Z" fill="#037A80"/>
<path d="M51.4164 161.383H55.4004L55.4004 123.467H51.4164L51.4164 161.383Z" fill="white"/>
<path opacity="0.55" d="M34.441 132.123H72.375V129.592H34.441V132.123Z" fill="#037A80"/>
<path d="M22.1199 144.099C22.1682 144.715 22.4395 145.292 22.8828 145.722C23.0439 145.892 23.2163 146.05 23.3988 146.197C23.5128 146.289 23.6268 146.372 23.7368 146.446C23.8698 146.536 23.9998 146.614 24.1218 146.681C24.3071 146.782 24.4992 146.871 24.6968 146.946C24.8393 147.002 24.9862 147.046 25.1359 147.078L28.4868 146.946L28.9539 146.928C28.9539 146.866 28.9539 146.782 28.9489 146.681C28.9322 146.348 28.8884 146.017 28.8179 145.691C28.5308 144.301 27.757 143.06 26.6359 142.191C24.1229 140.241 22.7058 141.776 22.3868 142.647C22.2747 142.94 22.1932 143.243 22.1438 143.553C22.1171 143.734 22.1091 143.917 22.1199 144.099Z" fill="#222222"/>
<path opacity="0.6" d="M22.1199 144.099C22.1682 144.715 22.4395 145.292 22.8828 145.722C23.0439 145.892 23.2163 146.05 23.3988 146.197C23.5128 146.289 23.6268 146.372 23.7368 146.446C23.8698 146.536 23.9998 146.614 24.1218 146.681C24.3071 146.782 24.4992 146.871 24.6968 146.946C24.8393 147.002 24.9862 147.046 25.1359 147.078L28.4868 146.946L28.9539 146.928C28.9539 146.866 28.9539 146.782 28.9489 146.681C28.9322 146.348 28.8884 146.017 28.8179 145.691C28.5308 144.301 27.757 143.06 26.6359 142.191C24.1229 140.241 22.7058 141.776 22.3868 142.647C22.2747 142.94 22.1932 143.243 22.1438 143.553C22.1171 143.734 22.1091 143.917 22.1199 144.099Z" fill="#037A80"/>
<path opacity="0.6" d="M22.1172 144.108C22.1657 144.723 22.437 145.3 22.8802 145.731C23.0414 145.9 23.2138 146.059 23.3962 146.206C23.2472 144.111 25.5322 144.521 25.5322 144.521L24.1823 142.998C24.1823 142.998 22.4172 142.388 22.1172 144.108Z" fill="#037A80"/>
<path d="M29.1348 146.948V146.98L32.9528 147.08C33.1052 147.047 33.2547 147.002 33.3998 146.945C33.5967 146.87 33.7882 146.781 33.9728 146.68C34.4312 146.427 34.8475 146.105 35.2068 145.725C35.6011 145.329 35.8612 144.819 35.9509 144.267C36.0406 143.715 35.9553 143.149 35.7068 142.649C35.3888 141.777 33.9728 140.241 31.4578 142.19C30.3242 143.068 29.5456 144.326 29.2648 145.732C29.1994 146.044 29.1582 146.361 29.1417 146.68C29.1347 146.798 29.1348 146.888 29.1348 146.948Z" fill="#222222"/>
<path opacity="0.6" d="M29.1348 146.948V146.98L32.9528 147.08C33.1052 147.047 33.2547 147.002 33.3998 146.945C33.5967 146.87 33.7882 146.781 33.9728 146.68C34.4312 146.427 34.8475 146.105 35.2068 145.725C35.6011 145.329 35.8612 144.819 35.9509 144.267C36.0406 143.715 35.9553 143.149 35.7068 142.649C35.3888 141.777 33.9728 140.241 31.4578 142.19C30.3242 143.068 29.5456 144.326 29.2648 145.732C29.1994 146.044 29.1582 146.361 29.1417 146.68C29.1347 146.798 29.1348 146.888 29.1348 146.948Z" fill="#037A80"/>
<path opacity="0.6" d="M35.9834 144.11C35.9346 144.726 35.6629 145.303 35.2194 145.733C35.0582 145.903 34.8858 146.062 34.7034 146.208C34.8534 144.113 32.5684 144.521 32.5684 144.521L33.9194 142.999C33.9194 142.999 35.6834 142.39 35.9834 144.11Z" fill="#037A80"/>
<path d="M29.7793 146.45C31.0842 145.636 32.3214 144.718 33.4792 143.705C34.0792 142.996 34.3433 141.944 33.2703 142.151C33.1164 142.183 32.9655 142.228 32.8192 142.286C31.6452 142.731 30.5993 144.663 30.0973 145.733C29.8993 146.161 29.7893 146.44 29.7793 146.45Z" fill="#037A80"/>
<path d="M28.3043 146.451C28.3043 146.451 26.9142 142.908 25.2692 142.283C23.6842 141.683 23.9383 142.907 24.6073 143.703C25.7653 144.716 27.0025 145.635 28.3072 146.451H28.3043Z" fill="#037A80"/>
<path d="M29.7793 146.45C31.0842 145.636 32.3214 144.718 33.4792 143.705C34.0792 142.996 34.3433 141.944 33.2703 142.151C33.2703 142.172 33.7243 143.77 30.0973 145.731C29.8993 146.16 29.7893 146.44 29.7793 146.45Z" fill="#037A80"/>
<path d="M28.3045 146.452C26.9995 145.636 25.7623 144.717 24.6046 143.704C24.0046 142.994 23.7415 141.942 24.8145 142.15C24.8145 142.171 24.3596 143.769 27.9856 145.732C28.106 145.965 28.2125 146.206 28.3045 146.452Z" fill="#037A80"/>
<path d="M27.9938 146.978H30.0938V146.946C30.0738 146.682 29.9545 146.434 29.7598 146.254C29.5651 146.073 29.3093 145.973 29.0438 145.973C28.7782 145.973 28.5225 146.073 28.3278 146.254C28.1331 146.434 28.0139 146.682 27.9938 146.946C27.9916 146.957 27.9916 146.968 27.9938 146.978Z" fill="#037A80"/>
<path d="M21.4445 161.314H36.6465V148.156H21.4445V161.314Z" fill="#222222"/>
<path opacity="0.6" d="M21.4445 161.314H36.6465V148.156H21.4445V161.314Z" fill="#037A80"/>
<path d="M20.5644 149.24H37.5254V146.914H20.5644V149.24Z" fill="#222222"/>
<path opacity="0.4" d="M20.5644 149.24H37.5254V146.914H20.5644V149.24Z" fill="#037A80"/>
<path d="M28.2467 161.314H29.8438V146.914H28.2467V161.314Z" fill="white"/>
<g opacity="0.3">
<path d="M21.4445 150.314H36.6465V149.24H21.4445V150.314Z" fill="#222222"/>
</g>
<path d="M65.9 131.422C65.9825 132.472 66.4447 133.455 67.2 134.189C67.4745 134.479 67.7683 134.749 68.0792 134.999C68.2792 135.156 68.4671 135.299 68.6551 135.424C68.8821 135.577 69.1021 135.71 69.3111 135.824C69.6268 135.997 69.9542 136.149 70.2911 136.276C70.5339 136.371 70.7841 136.447 71.0391 136.502L76.7511 136.276L77.5511 136.245C77.5511 136.139 77.5511 135.997 77.5421 135.824C77.5134 135.256 77.4384 134.692 77.3179 134.136C76.8296 131.767 75.5107 129.65 73.599 128.167C69.316 124.843 66.899 127.46 66.357 128.945C66.1655 129.444 66.0267 129.962 65.9429 130.49C65.8965 130.798 65.8822 131.111 65.9 131.422Z" fill="#222222"/>
<path opacity="0.6" d="M65.9 131.422C65.9825 132.472 66.4447 133.455 67.2 134.189C67.4745 134.479 67.7683 134.749 68.0792 134.999C68.2792 135.156 68.4671 135.299 68.6551 135.424C68.8821 135.577 69.1021 135.71 69.3111 135.824C69.6268 135.997 69.9542 136.149 70.2911 136.276C70.5339 136.371 70.7841 136.447 71.0391 136.502L76.7511 136.276L77.5511 136.245C77.5511 136.139 77.5511 135.997 77.5421 135.824C77.5134 135.256 77.4384 134.692 77.3179 134.136C76.8296 131.767 75.5107 129.65 73.599 128.167C69.316 124.843 66.899 127.46 66.357 128.945C66.1655 129.444 66.0267 129.962 65.9429 130.49C65.8965 130.798 65.8822 131.111 65.9 131.422Z" fill="#037A80"/>
<path opacity="0.6" d="M65.9023 131.425C65.9846 132.475 66.4468 133.458 67.2024 134.192C67.4766 134.482 67.7702 134.752 68.0813 135.002C67.8283 131.431 71.7224 132.13 71.7224 132.13L69.4224 129.53C69.4224 129.53 66.4123 128.505 65.9023 131.425Z" fill="#037A80"/>
<path d="M77.8711 136.275V136.329L84.3779 136.505C84.6374 136.449 84.8919 136.372 85.1389 136.275C85.4751 136.147 85.8019 135.996 86.1169 135.823C86.8969 135.392 87.6055 134.843 88.217 134.195C88.8886 133.519 89.3317 132.65 89.4841 131.71C89.6366 130.769 89.4906 129.805 89.0669 128.952C88.5249 127.466 86.111 124.852 81.825 128.169C79.8929 129.665 78.5656 131.809 78.0869 134.206C77.975 134.738 77.9048 135.279 77.877 135.823C77.871 136.015 77.8711 136.175 77.8711 136.275Z" fill="#222222"/>
<path opacity="0.6" d="M77.8711 136.275V136.329L84.3779 136.505C84.6374 136.449 84.8919 136.372 85.1389 136.275C85.4751 136.147 85.8019 135.996 86.1169 135.823C86.8969 135.392 87.6055 134.843 88.217 134.195C88.8886 133.519 89.3317 132.65 89.4841 131.71C89.6366 130.769 89.4906 129.805 89.0669 128.952C88.5249 127.466 86.111 124.852 81.825 128.169C79.8929 129.665 78.5656 131.809 78.0869 134.206C77.975 134.738 77.9048 135.279 77.877 135.823C77.871 136.015 77.8711 136.175 77.8711 136.275Z" fill="#037A80"/>
<path opacity="0.6" d="M89.5317 131.429C89.4487 132.479 88.9865 133.462 88.2317 134.195C87.9571 134.485 87.6632 134.756 87.3518 135.005C87.6078 131.435 83.7129 132.13 83.7129 132.13L86.0127 129.536C86.0127 129.536 89.0217 128.509 89.5317 131.429Z" fill="#037A80"/>
<path d="M78.9746 135.429C79.0146 135.403 84.1414 132.1 85.2744 130.75C86.2924 129.541 86.7475 127.75 84.9175 128.101C84.6548 128.155 84.3972 128.232 84.1475 128.329C82.1475 129.088 80.3645 132.381 79.5085 134.204C79.1645 134.929 78.9746 135.419 78.9746 135.429Z" fill="#037A80"/>
<path d="M76.4541 135.425C76.4541 135.425 74.0852 129.386 71.2822 128.325C68.5822 127.298 69.013 129.388 70.154 130.745C71.295 132.102 76.4541 135.425 76.4541 135.425Z" fill="#037A80"/>
<path d="M78.9746 135.429C79.0146 135.403 84.1414 132.1 85.2744 130.75C86.2924 129.541 86.7475 127.75 84.9175 128.101C84.9085 128.136 85.6915 130.861 79.5085 134.201C79.1645 134.929 78.9746 135.419 78.9746 135.429Z" fill="#037A80"/>
<path d="M76.4521 135.426C76.4121 135.4 71.288 132.094 70.152 130.743C69.135 129.533 68.6812 127.743 70.5112 128.094C70.5192 128.129 69.7351 130.853 75.9111 134.2C76.2521 134.926 76.4521 135.416 76.4521 135.426Z" fill="#037A80"/>
<path d="M75.9199 136.332H79.5088V136.277C79.5045 136.124 79.4806 135.972 79.437 135.825C79.3244 135.456 79.0963 135.133 78.7864 134.904C78.4765 134.675 78.1009 134.551 77.7153 134.551C77.3298 134.551 76.9544 134.675 76.6445 134.904C76.3346 135.133 76.1065 135.456 75.9939 135.825C75.9501 135.972 75.9256 136.124 75.9209 136.277C75.9199 136.295 75.9199 136.314 75.9199 136.332Z" fill="#037A80"/>
<path d="M64.757 161.531H90.668V138.405H64.757V161.531Z" fill="#222222"/>
<path opacity="0.6" d="M64.757 161.531H90.668V138.405H64.757V161.531Z" fill="#037A80"/>
<path d="M63.2599 140.311H92.1699V136.222H63.2599V140.311Z" fill="#222222"/>
<path opacity="0.4" d="M63.2599 140.311H92.1699V136.222H63.2599V140.311Z" fill="#037A80"/>
<path d="M76.3532 161.531H79.0742V136.221H76.3532V161.531Z" fill="white"/>
<g opacity="0.3">
<path d="M64.757 142.199H90.668V140.311H64.757V142.199Z" fill="#222222"/>
</g>
<path d="M202.476 161.312H20.6262C20.475 161.313 20.3253 161.343 20.1859 161.401C20.0465 161.46 19.9201 161.546 19.8142 161.653C19.6508 161.819 19.5403 162.029 19.497 162.258C19.4537 162.486 19.4795 162.722 19.571 162.936C19.6625 163.15 19.8157 163.332 20.0109 163.458C20.2062 163.584 20.4347 163.65 20.6672 163.646H202.483C202.635 163.644 202.786 163.613 202.926 163.554C203.066 163.495 203.193 163.409 203.3 163.3C203.407 163.192 203.491 163.063 203.548 162.922C203.605 162.781 203.634 162.631 203.633 162.479C203.634 162.326 203.605 162.174 203.547 162.033C203.49 161.892 203.405 161.763 203.297 161.655C203.19 161.546 203.062 161.46 202.921 161.402C202.78 161.343 202.629 161.313 202.476 161.312Z" fill="#1F1F3E"/>
<path d="M10.6315 136.368L13.2314 137.79L10.6315 139.212L9.20947 141.812L7.78748 139.212L5.1875 137.79L7.78748 136.368L9.20947 133.768L10.6315 136.368Z" fill="#037A80"/>
<path d="M2.72192 145.513L4.02197 146.224L2.72192 146.935L2.01099 148.235L1.29993 146.935L0 146.224L1.29993 145.513L2.01099 144.213L2.72192 145.513Z" fill="#037A80"/>
<path d="M2.18164 163.641H13.5156C13.8249 163.641 14.1214 163.518 14.3401 163.299C14.5588 163.08 14.6816 162.784 14.6816 162.475C14.6816 162.165 14.5588 161.869 14.3401 161.65C14.1214 161.431 13.8249 161.309 13.5156 161.309H2.18164C1.8724 161.309 1.57585 161.431 1.35718 161.65C1.13851 161.869 1.01562 162.165 1.01562 162.475C1.01562 162.784 1.13851 163.08 1.35718 163.299C1.57585 163.518 1.8724 163.641 2.18164 163.641Z" fill="#1F1F3E"/>
<path d="M289.277 115.34V110.72C289.277 110.551 289.344 110.39 289.464 110.27C289.583 110.151 289.745 110.084 289.913 110.084C290.082 110.084 290.244 110.151 290.363 110.27C290.482 110.39 290.549 110.551 290.549 110.72V115.34C290.549 115.509 290.482 115.67 290.363 115.79C290.244 115.909 290.082 115.976 289.913 115.976C289.745 115.976 289.583 115.909 289.464 115.79C289.344 115.67 289.277 115.509 289.277 115.34Z" fill="#037A80"/>
<path d="M295.145 121.202C295.145 121.034 295.212 120.872 295.331 120.753C295.45 120.633 295.612 120.566 295.781 120.566H300.4C300.569 120.566 300.731 120.633 300.85 120.753C300.969 120.872 301.036 121.034 301.036 121.202C301.036 121.371 300.969 121.533 300.85 121.652C300.731 121.771 300.569 121.838 300.4 121.838H295.781C295.612 121.838 295.45 121.771 295.331 121.652C295.212 121.533 295.145 121.371 295.145 121.202Z" fill="#037A80"/>
<path d="M293.525 116.963C293.525 116.879 293.542 116.796 293.573 116.719C293.605 116.642 293.652 116.572 293.711 116.513L296.886 113.339C296.945 113.28 297.015 113.233 297.092 113.201C297.169 113.169 297.252 113.152 297.335 113.152C297.419 113.152 297.502 113.169 297.579 113.201C297.656 113.233 297.726 113.28 297.785 113.339C297.844 113.398 297.891 113.468 297.923 113.545C297.955 113.622 297.972 113.705 297.972 113.789C297.972 113.872 297.955 113.955 297.923 114.032C297.891 114.11 297.844 114.18 297.785 114.239L294.612 117.413C294.523 117.502 294.409 117.562 294.286 117.587C294.162 117.612 294.034 117.599 293.918 117.551C293.802 117.503 293.702 117.421 293.633 117.316C293.563 117.212 293.525 117.089 293.525 116.963Z" fill="#037A80"/>
</g>
<defs>
<clipPath id="clip0_47_828">
<rect width="301.615" height="163.148" fill="white" transform="translate(0 0.5)"/>
</clipPath>
</defs>
</svg>
