<svg width="24" height="25" viewBox="0 0 24 25" fill="none" xmlns="http://www.w3.org/2000/svg">
<g clip-path="url(#clip0_47_1100)">
<path d="M13.3236 0.5H19.4586C19.6195 0.571632 19.7537 0.692326 19.8419 0.844817C19.9301 0.997308 19.9678 1.17378 19.9496 1.349C19.9406 3.791 19.9496 6.234 19.9496 8.676C19.9496 9.014 19.9496 9.014 19.6276 8.902C18.5562 8.5046 17.4164 8.32486 16.2747 8.37328C15.133 8.4217 14.0125 8.69732 12.9786 9.184C11.2272 9.99067 9.79247 11.3548 8.89853 13.0633C8.00458 14.7718 7.70185 16.7283 8.03761 18.627C8.12955 19.1573 8.27185 19.6777 8.4626 20.181C8.5256 20.345 8.50661 20.439 8.30461 20.42H0.860608C0.268607 20.42 0.0106014 20.159 0.0106014 19.561V1.348C-0.00799881 1.1741 0.0284105 0.998749 0.114697 0.846627C0.200983 0.694505 0.332804 0.573274 0.491604 0.5L6.6266 0.5C6.6326 0.609 6.6436 0.718 6.6436 0.826C6.6436 2.426 6.6636 4.026 6.6376 5.626C6.6266 6.332 7.1606 6.736 7.8126 6.361C8.4406 6 9.1046 5.701 9.7476 5.361C9.81673 5.31938 9.89591 5.29739 9.9766 5.29739C10.0573 5.29739 10.1365 5.31938 10.2056 5.361C10.8766 5.711 11.5526 6.052 12.2276 6.393C12.3805 6.49019 12.5637 6.5279 12.7426 6.499C12.9212 6.46125 13.0787 6.35691 13.1831 6.20719C13.2875 6.05747 13.3309 5.87361 13.3046 5.693C13.3046 4.06967 13.3046 2.44633 13.3046 0.823C13.3066 0.718 13.3176 0.609 13.3236 0.5Z" fill="#037A80"/>
<path d="M24.0011 16.3214V17.9134C23.9781 18.0354 23.9521 18.1574 23.9311 18.2804C23.702 19.7099 23.0582 21.0407 22.0796 22.1075C21.101 23.1744 19.8306 23.9304 18.4261 24.2818C17.0217 24.6331 15.5449 24.5643 14.1792 24.0839C12.8135 23.6035 11.619 22.7326 10.7438 21.5793C9.86862 20.426 9.35136 19.0412 9.25622 17.5966C9.16107 16.1519 9.49224 14.7112 10.2086 13.4531C10.925 12.195 11.995 11.175 13.2859 10.5196C14.5768 9.86419 16.0317 9.6023 17.4701 9.7664C18.6736 9.88726 19.8274 10.3088 20.8253 10.9922C21.8233 11.6756 22.6334 12.599 23.1811 13.6774C23.6123 14.5018 23.8901 15.3977 24.0011 16.3214ZM16.1361 18.8214C15.5821 18.8214 15.0281 18.8164 14.4741 18.8214C14.3792 18.8119 14.2834 18.8224 14.1928 18.8521C14.1022 18.8818 14.0188 18.9301 13.948 18.9939C13.8771 19.0576 13.8203 19.1355 13.7813 19.2225C13.7422 19.3095 13.7218 19.4037 13.7212 19.499C13.7207 19.5943 13.74 19.6888 13.778 19.7762C13.816 19.8636 13.8719 19.9422 13.942 20.0068C14.0121 20.0714 14.095 20.1206 14.1852 20.1514C14.2755 20.1822 14.3711 20.1937 14.4661 20.1854C14.7781 20.1934 15.0901 20.1934 15.4021 20.1854C16.2671 20.1674 17.1341 20.2384 18.0021 20.1474C18.5295 20.0897 19.0274 19.8747 19.4309 19.5304C19.8345 19.186 20.1252 18.7282 20.2651 18.2164C20.4129 17.6994 20.4049 17.1503 20.2422 16.6379C20.0794 16.1254 19.7691 15.6723 19.3501 15.3354C18.7758 14.9048 18.0662 14.6944 17.3501 14.7424C16.8741 14.7504 16.3981 14.7424 15.9221 14.7424C15.8711 14.7424 15.8011 14.7624 15.7761 14.7014C15.7511 14.6404 15.8121 14.6014 15.8481 14.5664C15.9481 14.4664 16.0481 14.3664 16.1401 14.2664C16.2553 14.1364 16.3158 13.9668 16.3087 13.7932C16.3016 13.6197 16.2276 13.4556 16.1021 13.3354C15.9803 13.2162 15.8166 13.1494 15.6461 13.1494C15.4756 13.1494 15.312 13.2162 15.1901 13.3354C14.6355 13.8727 14.0894 14.4191 13.5521 14.9744C13.4317 15.0958 13.3636 15.2596 13.3624 15.4307C13.3613 15.6017 13.4273 15.7664 13.5461 15.8894C14.0888 16.4501 14.6411 17.0011 15.2031 17.5424C15.3275 17.6589 15.4926 17.7221 15.663 17.7185C15.8334 17.715 15.9957 17.645 16.1151 17.5234C16.2357 17.4038 16.3063 17.243 16.3128 17.0733C16.3193 16.9036 16.2612 16.7378 16.1501 16.6094C16.0701 16.5094 15.9741 16.4324 15.8911 16.3394C15.8421 16.2844 15.7401 16.2394 15.7791 16.1544C15.8101 16.0874 15.9061 16.1174 15.9731 16.1174C16.5501 16.1174 17.1281 16.1124 17.7051 16.1174C18.0505 16.1362 18.3754 16.2866 18.6133 16.5377C18.8511 16.7888 18.9836 17.1215 18.9836 17.4674C18.9836 17.8132 18.8511 18.1459 18.6133 18.397C18.3754 18.6482 18.0505 18.7986 17.7051 18.8174C17.1811 18.8244 16.6581 18.8174 16.1351 18.8174L16.1361 18.8214Z" fill="#037A80"/>
<path d="M11.9205 0.5C11.9454 0.873461 11.9511 1.24796 11.9375 1.622V4.454C11.9375 4.712 11.9185 4.724 11.6925 4.612C11.2525 4.393 10.8135 4.172 10.3775 3.945C10.2556 3.87565 10.1177 3.83919 9.97749 3.83919C9.83724 3.83919 9.69939 3.87565 9.57748 3.945C9.12848 4.18 8.67748 4.404 8.22148 4.634C8.09548 4.698 8.02148 4.699 8.02148 4.523C8.02548 3.197 8.02815 1.871 8.02948 0.545C8.03107 0.529665 8.03443 0.514564 8.03949 0.5L11.9205 0.5Z" fill="#037A80"/>
</g>
<defs>
<clipPath id="clip0_47_1100">
<rect width="24.001" height="24.004" fill="white" transform="translate(0 0.5)"/>
</clipPath>
</defs>
</svg>
