<svg xmlns="http://www.w3.org/2000/svg" width="51.286" height="50.003" viewBox="0 0 51.286 50.003">
  <g id="returnable" transform="translate(659.895 -1227.197)">
    <path id="Path_6403" data-name="Path 6403" d="M-616.7,1229.45a2.093,2.093,0,0,0-.616-1.649,2.093,2.093,0,0,0-1.657-.6h-38.573a2.118,2.118,0,0,0-1.68.611,2.117,2.117,0,0,0-.614,1.679v1.346c.007.755.013,1.535-.016,2.3a2.336,2.336,0,0,0,1.772,2.7l.209.063V1262.9a3.068,3.068,0,0,0,2.481,3.255,6.346,6.346,0,0,0,1.611.2c2.959.009,5.9.01,8.14.01h6.812a1.6,1.6,0,0,0,1.129-.318.778.778,0,0,0,.2-.587c-.006-.4-.162-.862-1.317-.862h-14.772c-.233,0-.5,0-.758-.022-1.293-.112-1.752-.609-1.752-1.9V1235.9h12.09v14.74a.907.907,0,0,0,.54.973.922.922,0,0,0,.352.078,1.043,1.043,0,0,0,.722-.367q1.409-1.387,2.828-2.763l.649-.63c.1-.1.2-.189.3-.286l.149-.136.2-.187.355.33c.1.094.192.178.282.265l1.552,1.514,2,1.953a.923.923,0,0,0,.647.308.907.907,0,0,0,.344-.074.845.845,0,0,0,.557-.9q0-.171,0-.339v-14.5h12.081v11.186a2.907,2.907,0,0,0,.06.693.8.8,0,0,0,.829.625h.021a.817.817,0,0,0,.818-.666,3.278,3.278,0,0,0,.049-.652v-10.533a.747.747,0,0,1,.509-.83,2.048,2.048,0,0,0,1.452-2.133v-1.087C-616.694,1231.5-616.691,1230.46-616.7,1229.45Zm-27.348,4.591h-13.971v-5.05h13.971Zm9.738,14.481-.475-.364-.111-.083a2.138,2.138,0,0,1-.248-.2q-.458-.445-.913-.892c-.475-.467-.967-.95-1.455-1.417a1.163,1.163,0,0,0-.762-.4,1.088,1.088,0,0,0-.746.408c-.587.606-1.166,1.243-1.727,1.858q-.369.407-.74.809l-.183.2-.529-.4v-19.066h7.888Zm15.808-14.487h-13.98v-5.05h13.98Z"/>
    <path id="Path_6404" data-name="Path 6404" d="M-474.885,1390.73h-.053a12.948,12.948,0,0,0-12.9,12.917,12.949,12.949,0,0,0,12.883,12.973h.044a12.97,12.97,0,0,0,12.957-12.927A12.985,12.985,0,0,0-474.885,1390.73Zm-.026,24.14h-.038a11.2,11.2,0,0,1-11.14-11.214,11.187,11.187,0,0,1,11.176-11.142h.019a11.184,11.184,0,0,1,11.155,11.17,11.2,11.2,0,0,1-11.173,11.186Z" transform="translate(-146.655 -139.42)"/>
    <path id="Path_6405" data-name="Path 6405" d="M-431.3,1450.64a4.552,4.552,0,0,1-1.008.109q-1.4.011-2.791.009h-2.794a1.055,1.055,0,0,1-.75-.264.741.741,0,0,1-.206-.541c0-.585.5-.8.97-.8h3.329c.753,0,1.508,0,2.262-.006a2.645,2.645,0,0,0,2.539-1.619,2.761,2.761,0,0,0-.385-2.98,2.377,2.377,0,0,0-1.821-.978c-.448-.015-.932-.022-1.523-.022-.354,0-.708,0-1.063.006s-.7,0-1.056,0a.443.443,0,0,0-.385.223l-.057.1a.442.442,0,0,0,.085.544c.075.069.152.137.229.2a5.765,5.765,0,0,1,.444.416.726.726,0,0,1,.241.549.726.726,0,0,1-.254.543.8.8,0,0,1-.569.273.775.775,0,0,1-.537-.248c-.994-.966-1.958-1.926-2.863-2.857a.752.752,0,0,1-.249-.567.752.752,0,0,1,.261-.561c.935-.955,1.887-1.909,2.831-2.834a.8.8,0,0,1,.556-.257.791.791,0,0,1,.554.257.734.734,0,0,1,.263.557.734.734,0,0,1-.253.561,5.947,5.947,0,0,1-.435.408c-.09.078-.186.162-.288.257a.443.443,0,0,0-.122.463.442.442,0,0,0,.372.3c.072.007.131.016.181.022a2.036,2.036,0,0,0,.271.024h3.021a4.4,4.4,0,0,1,4.4,3.976,4.384,4.384,0,0,1-3.4,4.727Z" transform="translate(-187.855 -180.657)"/>
    <path id="Path_6406" data-name="Path 6406" d="M-431.3,1450.64a4.552,4.552,0,0,1-1.008.109q-1.4.011-2.791.009h-2.794a1.055,1.055,0,0,1-.75-.264.741.741,0,0,1-.206-.541c0-.585.5-.8.97-.8h3.329c.753,0,1.508,0,2.262-.006a2.645,2.645,0,0,0,2.539-1.619,2.761,2.761,0,0,0-.385-2.98,2.377,2.377,0,0,0-1.821-.978c-.448-.015-.932-.022-1.523-.022-.354,0-.708,0-1.063.006s-.7,0-1.056,0a.443.443,0,0,0-.385.223l-.057.1a.442.442,0,0,0,.085.544c.075.069.152.137.229.2a5.765,5.765,0,0,1,.444.416.726.726,0,0,1,.241.549.726.726,0,0,1-.254.543.8.8,0,0,1-.569.273.775.775,0,0,1-.537-.248c-.994-.966-1.958-1.926-2.863-2.857a.752.752,0,0,1-.249-.567.752.752,0,0,1,.261-.561c.935-.955,1.887-1.909,2.831-2.834a.8.8,0,0,1,.556-.257.791.791,0,0,1,.554.257.734.734,0,0,1,.263.557.734.734,0,0,1-.253.561,5.947,5.947,0,0,1-.435.408c-.09.078-.186.162-.288.257a.443.443,0,0,0-.122.463.442.442,0,0,0,.372.3c.072.007.131.016.181.022a2.036,2.036,0,0,0,.271.024h3.021a4.4,4.4,0,0,1,4.4,3.976,4.384,4.384,0,0,1-3.4,4.727Z" transform="translate(-187.855 -180.657)"/>
  </g>
</svg>
