<svg width="20" height="21" viewBox="0 0 20 21" fill="none" xmlns="http://www.w3.org/2000/svg">
<g clip-path="url(#clip0_47_1113)">
<path d="M10.0039 18.5002C8.42161 18.5002 6.87512 18.0306 5.55953 17.1516C4.24393 16.2725 3.21825 15.0235 2.61275 13.5617C2.00725 12.0999 1.84899 10.4915 2.15767 8.93965C2.46635 7.3878 3.2283 5.96179 4.34712 4.84297C5.46594 3.72415 6.89147 2.96219 8.44332 2.65351C9.99516 2.34483 11.6036 2.50407 13.0654 3.10957C14.5272 3.71507 15.7767 4.74026 16.6557 6.05586C17.5348 7.37145 18.0039 8.91794 18.0039 10.5002C18.0039 12.6219 17.1609 14.6571 15.6606 16.1574C14.1603 17.6577 12.1256 18.5002 10.0039 18.5002ZM10.9599 10.5998C10.7934 10.6016 10.6286 10.6368 10.4755 10.7023C10.3225 10.7679 10.184 10.8633 10.0678 10.9826C9.95324 11.0973 9.86285 11.2336 9.8022 11.384C9.74155 11.5343 9.71187 11.6955 9.7148 11.8576C9.72567 12.1796 9.85901 12.4853 10.0878 12.7121C10.3167 12.9389 10.6237 13.0694 10.9458 13.0773H10.9677C11.1306 13.0749 11.2914 13.0405 11.4409 12.9758C11.5903 12.9111 11.7256 12.8175 11.8388 12.7004C11.9518 12.5869 12.0411 12.4522 12.1015 12.3039C12.1619 12.1556 12.1924 11.9963 12.1909 11.8361C12.1865 11.5106 12.0552 11.1994 11.8252 10.9689C11.5951 10.7385 11.2845 10.6067 10.9589 10.6018L10.9599 10.5998ZM11.7099 7.85859C11.5341 7.88707 11.3735 7.97577 11.2558 8.10957C10.1348 9.21557 9.00362 10.3495 7.90962 11.4465L7.82906 11.5275L7.2358 12.1213L7.21578 12.1408L7.19576 12.1623C7.13182 12.2183 7.07594 12.2823 7.02974 12.3537C6.98717 12.4207 6.96367 12.4989 6.96138 12.5783C6.95909 12.6577 6.9784 12.7355 7.01705 12.8049C7.06981 12.8911 7.14423 12.9623 7.23335 13.01C7.32248 13.0576 7.42291 13.0804 7.52388 13.0764L7.56978 13.048L7.59664 13.0314C7.69538 12.9746 7.78825 12.9074 7.873 12.8312C8.517 12.1932 9.15271 11.5584 9.80171 10.9074L9.82271 10.8859L10.8627 9.8459C10.9687 9.7399 11.077 9.63351 11.185 9.52851C11.453 9.26651 11.7548 8.97028 12.0278 8.66328C12.0831 8.58922 12.1208 8.50308 12.1381 8.4123C12.1555 8.32153 12.152 8.22808 12.1279 8.13886C12.0879 8.06155 12.0299 7.99518 11.9585 7.9455C11.887 7.89583 11.8041 7.86421 11.7177 7.85371L11.7099 7.85859ZM8.1899 7.83613C7.86666 7.8442 7.5591 7.97807 7.33296 8.20918C7.10683 8.44028 6.98 8.7501 6.97896 9.07343C6.97792 9.39677 7.10295 9.70806 7.32759 9.94062C7.55223 10.1732 7.85891 10.3094 8.18209 10.3195H8.19771C8.52684 10.3195 8.84242 10.188 9.07515 9.95527C9.30788 9.72254 9.43892 9.40745 9.43892 9.07832C9.43892 8.74918 9.30788 8.43312 9.07515 8.20039C8.84242 7.96765 8.52684 7.83711 8.19771 7.83711L8.1899 7.83613ZM10.955 12.4016H10.934C10.7901 12.3956 10.6542 12.3328 10.5556 12.2277C10.4571 12.1226 10.4034 11.9831 10.4067 11.8391C10.4034 11.7663 10.4155 11.6941 10.4419 11.6262C10.4682 11.5583 10.5084 11.496 10.56 11.4445C10.6116 11.3931 10.6737 11.3536 10.7417 11.3273C10.8096 11.3011 10.8823 11.2888 10.955 11.2922H10.9751C11.1192 11.2938 11.2565 11.3523 11.3574 11.4553C11.4582 11.5582 11.514 11.6969 11.5127 11.841C11.5096 11.9883 11.4498 12.1284 11.3457 12.2326C11.2415 12.3368 11.1014 12.3975 10.9541 12.4006L10.955 12.4016ZM8.20064 9.63203H8.18892C8.11574 9.6319 8.04308 9.61725 7.97554 9.58906C7.908 9.56087 7.84693 9.5199 7.79537 9.46797C7.7438 9.41603 7.70295 9.35406 7.67525 9.28632C7.64755 9.21859 7.63335 9.14662 7.63375 9.07343C7.63335 9.00187 7.64716 8.93068 7.67427 8.86445C7.70138 8.79822 7.74149 8.73843 7.79195 8.68769C7.84241 8.63695 7.90214 8.59603 7.96822 8.56855C8.03429 8.54108 8.10515 8.52753 8.17671 8.52754H8.1899C8.3312 8.5235 8.46833 8.57515 8.57125 8.67207C8.67416 8.76898 8.73428 8.90284 8.73873 9.04414C8.74273 9.11889 8.73205 9.19332 8.70699 9.26386C8.68193 9.33441 8.64299 9.39979 8.59273 9.45527C8.48665 9.55202 8.34758 9.60351 8.20406 9.5998L8.20064 9.63203Z" fill="#037A80"/>
<path d="M9.61377 0.5H9.92577C10.0818 0.613 10.2498 0.715 10.3948 0.84C10.7228 1.12467 11.0458 1.41767 11.3638 1.719C11.4631 1.82314 11.5909 1.89575 11.7312 1.92775C11.8715 1.95976 12.0181 1.94976 12.1528 1.899C12.6258 1.751 13.0978 1.614 13.5708 1.473C13.657 1.43609 13.75 1.41809 13.8438 1.4202C13.9375 1.42231 14.0297 1.44449 14.1141 1.48524C14.1986 1.52599 14.2733 1.58436 14.3332 1.65642C14.3932 1.72849 14.437 1.81257 14.4618 1.903C14.6488 2.368 14.8408 2.829 15.0198 3.297C15.0634 3.42638 15.143 3.54062 15.2493 3.62635C15.3556 3.71208 15.4841 3.76572 15.6198 3.781C16.1078 3.855 16.5961 3.933 17.0848 4.015C17.1829 4.01881 17.279 4.04392 17.3664 4.08858C17.4538 4.13324 17.5305 4.19638 17.5911 4.27363C17.6517 4.35088 17.6948 4.44038 17.7174 4.53593C17.7399 4.63149 17.7414 4.73081 17.7218 4.827C17.6828 5.319 17.6558 5.815 17.6218 6.307C17.6075 6.44054 17.6315 6.57539 17.691 6.69579C17.7505 6.81619 17.843 6.91719 17.9578 6.987C18.3678 7.264 18.7698 7.549 19.1768 7.831C19.2632 7.87503 19.339 7.93744 19.3988 8.01387C19.4586 8.0903 19.501 8.17889 19.5229 8.27342C19.5448 8.36795 19.5458 8.46613 19.5257 8.56107C19.5056 8.65601 19.465 8.74541 19.4068 8.823C19.1728 9.241 18.9418 9.667 18.6918 10.077C18.6059 10.2038 18.56 10.3534 18.56 10.5065C18.56 10.6596 18.6059 10.8092 18.6918 10.936C18.9378 11.35 19.1678 11.772 19.4028 12.193C19.459 12.27 19.4981 12.3583 19.5172 12.4517C19.5364 12.5452 19.5352 12.6417 19.5137 12.7347C19.4923 12.8276 19.4511 12.9149 19.393 12.9905C19.3348 13.0661 19.2611 13.1284 19.1768 13.173C18.7768 13.454 18.3768 13.739 17.9768 14.005C17.8532 14.0774 17.7534 14.1842 17.6896 14.3125C17.6258 14.4407 17.6009 14.5848 17.6178 14.727C17.6568 15.227 17.6838 15.727 17.7178 16.227C17.7301 16.3143 17.7251 16.4031 17.7028 16.4884C17.6806 16.5737 17.6417 16.6538 17.5883 16.7239C17.5349 16.794 17.4681 16.8529 17.3918 16.897C17.3155 16.9412 17.2312 16.9697 17.1438 16.981C16.6438 17.063 16.1438 17.145 15.6438 17.219C15.5005 17.2312 15.364 17.2851 15.251 17.3739C15.138 17.4628 15.0535 17.5827 15.0078 17.719C14.8358 18.168 14.6528 18.613 14.4728 19.059C14.4494 19.1585 14.404 19.2515 14.3399 19.3311C14.2757 19.4106 14.1945 19.4747 14.1022 19.5186C14.0099 19.5625 13.9089 19.5851 13.8067 19.5846C13.7045 19.5842 13.6037 19.5607 13.5118 19.516C13.0628 19.383 12.6118 19.258 12.1688 19.11C12.0248 19.0553 11.8678 19.0451 11.718 19.0808C11.5682 19.1164 11.4326 19.1963 11.3288 19.31C11.0088 19.61 10.6808 19.91 10.3488 20.204C10.2119 20.3111 10.0697 20.4112 9.92277 20.504H9.60977C9.46177 20.404 9.30977 20.304 9.16877 20.192C8.83677 19.903 8.50877 19.602 8.18877 19.298C8.08545 19.1886 7.95178 19.1126 7.80494 19.0799C7.65809 19.0471 7.5048 19.059 7.36477 19.114C6.89977 19.263 6.43177 19.395 5.96477 19.532C5.87864 19.5687 5.78564 19.5866 5.69203 19.5844C5.59842 19.5822 5.50636 19.56 5.42205 19.5193C5.33774 19.4785 5.26312 19.4202 5.20322 19.3482C5.14332 19.2763 5.09952 19.1923 5.07477 19.102C4.88377 18.633 4.69177 18.165 4.50877 17.692C4.46619 17.5682 4.3892 17.4591 4.28684 17.3774C4.18447 17.2958 4.06096 17.245 3.93077 17.231C3.43077 17.153 2.94277 17.071 2.44677 16.993C2.3484 16.9892 2.25206 16.964 2.16451 16.919C2.07695 16.874 2.00032 16.8104 1.93998 16.7326C1.87965 16.6548 1.83708 16.5648 1.81528 16.4688C1.79347 16.3728 1.79296 16.2732 1.81377 16.177C1.85277 15.693 1.87577 15.205 1.91377 14.716C1.93046 14.5768 1.90614 14.4357 1.84378 14.3101C1.78143 14.1845 1.68376 14.0799 1.56277 14.009C1.15277 13.736 0.750767 13.447 0.343767 13.165C0.261688 13.1201 0.190075 13.0583 0.133665 12.9836C0.0772545 12.909 0.0373315 12.8232 0.0165357 12.732C-0.00426004 12.6408 -0.00545479 12.5462 0.0130305 12.4545C0.0315158 12.3628 0.0692599 12.276 0.123767 12.2C0.365767 11.77 0.603767 11.337 0.853767 10.911C0.932084 10.7908 0.97378 10.6505 0.97378 10.507C0.97378 10.3635 0.932084 10.2232 0.853767 10.103C0.603767 9.674 0.369767 9.24 0.127767 8.811C0.0727423 8.73519 0.0345401 8.6485 0.0157154 8.55673C-0.00310928 8.46496 -0.00212243 8.37023 0.01861 8.27888C0.0393424 8.18752 0.0793423 8.10165 0.135935 8.027C0.192527 7.95234 0.264407 7.89064 0.346767 7.846C0.737767 7.573 1.11977 7.291 1.51877 7.038C1.66106 6.95837 1.77563 6.83716 1.84712 6.69061C1.91861 6.54406 1.94361 6.37916 1.91877 6.218C1.87177 5.738 1.85277 5.257 1.81377 4.777C1.80226 4.68977 1.80811 4.60113 1.83096 4.51617C1.85381 4.4312 1.89322 4.35159 1.94693 4.2819C2.00064 4.21221 2.06758 4.15382 2.14392 4.11007C2.22026 4.06633 2.30449 4.0381 2.39177 4.027C2.89177 3.945 3.39177 3.863 3.89177 3.789C4.03466 3.77683 4.17082 3.72295 4.28335 3.63406C4.39589 3.54517 4.47983 3.42518 4.52477 3.289C4.70477 2.82233 4.89077 2.35767 5.08277 1.895C5.10801 1.80801 5.15116 1.72726 5.20944 1.65793C5.26772 1.58859 5.33985 1.5322 5.4212 1.49238C5.50255 1.45255 5.59132 1.43016 5.68183 1.42665C5.77234 1.42314 5.86258 1.43859 5.94677 1.472C6.42677 1.613 6.90777 1.753 7.38377 1.902C7.51857 1.95172 7.66493 1.96118 7.80501 1.92922C7.94509 1.89726 8.07286 1.82527 8.17277 1.722C8.48877 1.422 8.81377 1.128 9.14177 0.843C9.28977 0.715 9.45777 0.613 9.61377 0.5ZM17.4138 10.51C17.4165 8.99666 16.9703 7.51651 16.1316 6.25684C15.2929 4.99718 14.0994 4.0146 12.7021 3.43346C11.3048 2.85232 9.76648 2.69873 8.28186 2.99213C6.79723 3.28552 5.433 4.01271 4.36178 5.08168C3.29057 6.15065 2.56053 7.51336 2.26403 8.99737C1.96752 10.4814 2.1179 12.02 2.69611 13.4185C3.27432 14.817 4.25439 16.0126 5.5123 16.854C6.77021 17.6953 8.24943 18.1446 9.76277 18.145C11.7893 18.1455 13.7333 17.3418 15.1678 15.9103C16.6023 14.4788 17.4101 12.5366 17.4138 10.51Z" fill="#037A80"/>
</g>
<defs>
<clipPath id="clip0_47_1113">
<rect width="19.54" height="20.004" fill="white" transform="translate(0 0.5)"/>
</clipPath>
</defs>
</svg>
