<svg width="21" height="22" viewBox="0 0 21 22" fill="none" xmlns="http://www.w3.org/2000/svg">
<g clip-path="url(#clip0_47_1107)">
<path d="M10.0256 0.900391H10.3376C10.4936 1.01339 10.6616 1.11539 10.8066 1.24039C11.1346 1.52539 11.4586 1.81839 11.7756 2.11939C11.875 2.22353 12.0027 2.29614 12.143 2.32815C12.2833 2.36015 12.43 2.35015 12.5646 2.29939C13.0376 2.15139 13.5096 2.01439 13.9826 1.87339C14.0688 1.83649 14.1619 1.81848 14.2556 1.82059C14.3494 1.8227 14.4415 1.84488 14.526 1.88563C14.6104 1.92638 14.6851 1.98475 14.7451 2.05681C14.8051 2.12888 14.8489 2.21296 14.8736 2.30339C15.0606 2.76839 15.2526 3.22939 15.4326 3.69739C15.4766 3.82747 15.557 3.94221 15.6642 4.028C15.7715 4.11378 15.9011 4.16702 16.0376 4.18139C16.5256 4.25539 17.014 4.33339 17.5026 4.41539C17.6007 4.4192 17.6968 4.44431 17.7843 4.48897C17.8717 4.53363 17.9484 4.59677 18.009 4.67402C18.0696 4.75127 18.1127 4.84077 18.1352 4.93633C18.1578 5.03188 18.1593 5.1312 18.1396 5.22739C18.1006 5.71939 18.0736 6.21539 18.0346 6.70739C18.0204 6.84093 18.0444 6.97578 18.1039 7.09618C18.1634 7.21659 18.2559 7.31758 18.3706 7.38739C18.7806 7.66439 19.1826 7.94939 19.5896 8.23139C19.6761 8.27542 19.7519 8.33783 19.8117 8.41426C19.8715 8.49069 19.9138 8.57928 19.9357 8.67381C19.9577 8.76834 19.9586 8.86652 19.9386 8.96146C19.9185 9.0564 19.8779 9.1458 19.8196 9.22339C19.5856 9.64139 19.3546 10.0674 19.1046 10.4774C19.0188 10.6042 18.9729 10.7538 18.9729 10.9069C18.9729 11.06 19.0188 11.2096 19.1046 11.3364C19.3506 11.7504 19.5806 12.1724 19.8156 12.5934C19.8719 12.6704 19.9109 12.7587 19.9301 12.8521C19.9492 12.9456 19.948 13.0421 19.9266 13.135C19.9052 13.228 19.864 13.3153 19.8058 13.3909C19.7477 13.4665 19.674 13.5288 19.5896 13.5734C19.1896 13.8544 18.7896 14.1394 18.3896 14.4054C18.266 14.4778 18.1662 14.5846 18.1025 14.7129C18.0387 14.8411 18.0137 14.9852 18.0306 15.1274C18.0696 15.6274 18.0966 16.1274 18.1356 16.6274C18.148 16.7147 18.1429 16.8035 18.1207 16.8888C18.0985 16.9741 18.0595 17.0542 18.0061 17.1243C17.9528 17.1944 17.886 17.2533 17.8097 17.2974C17.7334 17.3415 17.6491 17.3701 17.5616 17.3814C17.0616 17.4634 16.5616 17.5454 16.0616 17.6194C15.9182 17.6314 15.7815 17.6852 15.6683 17.7741C15.5551 17.8629 15.4704 17.983 15.4246 18.1194C15.2526 18.5684 15.0696 19.0134 14.8896 19.4594C14.8663 19.5589 14.8209 19.6519 14.7567 19.7315C14.6926 19.811 14.6114 19.8751 14.519 19.919C14.4267 19.9629 14.3257 19.9855 14.2235 19.985C14.1213 19.9846 14.0205 19.9611 13.9286 19.9164C13.4796 19.7834 13.0286 19.6584 12.5856 19.5104C12.4417 19.4557 12.2847 19.4455 12.1349 19.4812C11.9851 19.5168 11.8495 19.5967 11.7456 19.7104C11.4256 20.0104 11.0976 20.3104 10.7656 20.6044C10.6366 20.7174 10.4806 20.8044 10.3396 20.9044H10.0276C9.87963 20.7994 9.72763 20.7044 9.58663 20.5924C9.25463 20.3034 8.92663 20.0024 8.60663 19.6984C8.50332 19.589 8.36964 19.513 8.2228 19.4802C8.07596 19.4475 7.92266 19.4593 7.78263 19.5144C7.31763 19.6634 6.84963 19.7954 6.38263 19.9324C6.2965 19.9691 6.2035 19.987 6.10989 19.9848C6.01628 19.9826 5.92422 19.9604 5.83991 19.9196C5.7556 19.8789 5.68099 19.8206 5.62108 19.7486C5.56118 19.6767 5.51738 19.5927 5.49263 19.5024C5.30163 19.0334 5.10963 18.5654 4.92663 18.0924C4.88405 17.9686 4.80707 17.8594 4.7047 17.7778C4.60233 17.6962 4.47882 17.6454 4.34863 17.6314C3.84863 17.5534 3.36063 17.4714 2.86463 17.3934C2.76627 17.3896 2.66992 17.3644 2.58237 17.3194C2.49482 17.2744 2.41818 17.2108 2.35785 17.133C2.29751 17.0552 2.25495 16.9652 2.23314 16.8692C2.21134 16.7732 2.21082 16.6736 2.23163 16.5774C2.27063 16.0934 2.29363 15.6054 2.33163 15.1164C2.34823 14.9771 2.32376 14.8359 2.26122 14.7103C2.19868 14.5847 2.10081 14.4801 1.97963 14.4094C1.56963 14.1364 1.16763 13.8474 0.76063 13.5654C0.678148 13.5209 0.606061 13.4594 0.54915 13.385C0.492238 13.3106 0.451803 13.2249 0.430527 13.1336C0.40925 13.0424 0.407618 12.9476 0.425738 12.8557C0.443858 12.7638 0.481317 12.6767 0.53563 12.6004C0.77763 12.1704 1.01563 11.7374 1.26563 11.3114C1.34395 11.1912 1.38564 11.0508 1.38564 10.9074C1.38564 10.7639 1.34395 10.6236 1.26563 10.5034C1.01563 10.0774 0.77763 9.64439 0.53563 9.21439C0.480606 9.13858 0.442403 9.05189 0.423579 8.96012C0.404754 8.86835 0.405741 8.77362 0.426473 8.68227C0.447206 8.59091 0.487206 8.50504 0.543798 8.43039C0.60039 8.35573 0.67227 8.29403 0.75463 8.24939C1.14563 7.97639 1.52763 7.69439 1.92663 7.44139C2.06893 7.36176 2.18349 7.24055 2.25498 7.094C2.32647 6.94745 2.35147 6.78255 2.32663 6.62139C2.27963 6.14139 2.26063 5.66039 2.22163 5.18039C2.21013 5.09316 2.21597 5.00452 2.23882 4.91956C2.26167 4.83459 2.30108 4.75498 2.35479 4.68529C2.4085 4.6156 2.47544 4.55721 2.55178 4.51346C2.62812 4.46972 2.71235 4.44149 2.79963 4.43039C3.29963 4.34839 3.79963 4.26639 4.29963 4.19239C4.44252 4.18022 4.57868 4.12634 4.69122 4.03745C4.80375 3.94856 4.8877 3.82858 4.93263 3.69239C5.11263 3.22739 5.29963 2.76239 5.49063 2.29839C5.51644 2.21197 5.55995 2.13187 5.61839 2.06318C5.67684 1.99449 5.74894 1.93871 5.83011 1.8994C5.91127 1.86008 5.99974 1.83809 6.08987 1.83482C6.18 1.83154 6.26982 1.84706 6.35363 1.88039C6.83363 2.02139 7.31463 2.16139 7.79063 2.31039C7.92544 2.36011 8.07179 2.36957 8.21187 2.33761C8.35196 2.30565 8.47973 2.23366 8.57963 2.13039C8.89563 1.83039 9.22063 1.53639 9.54863 1.25139C9.70163 1.11539 9.86963 1.01339 10.0256 0.900391ZM17.8256 10.9104C17.8284 9.39705 17.3822 7.9169 16.5435 6.65723C15.7048 5.39757 14.5113 4.415 13.114 3.83385C11.7166 3.25271 10.1783 3.09912 8.69372 3.39252C7.20909 3.68591 5.84486 4.4131 4.77365 5.48207C3.70244 6.55104 2.97239 7.91375 2.67589 9.39776C2.37939 10.8818 2.52976 12.4204 3.10797 13.8189C3.68619 15.2174 4.66626 16.413 5.92417 17.2544C7.18208 18.0957 8.66129 18.545 10.1746 18.5454C12.2007 18.5436 14.1436 17.7392 15.5781 16.3083C17.0125 14.8774 17.8218 12.9365 17.8286 10.9104H17.8256Z" stroke="#037A80" stroke-width="0.8" stroke-miterlimit="10"/>
<path d="M7.93631 13.4729C7.47931 13.4649 7.24931 13.0629 7.43631 12.7509C7.49559 12.6648 7.5651 12.5862 7.64331 12.5169C8.97665 11.1775 10.3163 9.84053 11.6623 8.50586C11.7812 8.37019 11.9447 8.28152 12.1233 8.25586C12.2094 8.26726 12.2916 8.29907 12.3629 8.34864C12.4342 8.39822 12.4926 8.46412 12.5333 8.54086C12.5571 8.62994 12.5605 8.72324 12.5432 8.81381C12.5259 8.90437 12.4883 8.98985 12.4333 9.06386C12.0703 9.47786 11.6603 9.85686 11.2693 10.2469C10.2693 11.2469 9.28131 12.2389 8.27731 13.2309C8.17153 13.3221 8.05736 13.4031 7.93631 13.4729Z" fill="#037A80"/>
<path d="M9.84533 9.47553C9.84472 9.72155 9.77106 9.96185 9.63369 10.166C9.49632 10.3701 9.30142 10.5288 9.07373 10.6219C8.84603 10.7151 8.59579 10.7386 8.35474 10.6893C8.1137 10.6401 7.8927 10.5204 7.7198 10.3454C7.54689 10.1703 7.42985 9.94791 7.38354 9.70629C7.33722 9.46466 7.36371 9.21472 7.45964 8.98817C7.55557 8.76162 7.71663 8.56867 7.92238 8.43378C8.12813 8.29889 8.36931 8.22815 8.61532 8.23053C8.94049 8.24192 9.249 8.3772 9.47767 8.60866C9.70634 8.84012 9.83787 9.15025 9.84533 9.47553ZM8.58833 8.92153C8.51675 8.92179 8.44594 8.93615 8.37991 8.96378C8.31389 8.99141 8.25396 9.03177 8.20354 9.08257C8.15311 9.13336 8.11319 9.19359 8.08604 9.25981C8.0589 9.32603 8.04506 9.39696 8.04533 9.46853C8.04455 9.54276 8.05874 9.6164 8.08703 9.68503C8.11533 9.75367 8.15716 9.81591 8.21002 9.86804C8.26288 9.92016 8.3257 9.96111 8.39473 9.98844C8.46376 10.0158 8.53758 10.0289 8.6118 10.0271C8.68602 10.0253 8.75912 10.0086 8.82673 9.97788C8.89434 9.94722 8.95508 9.90325 9.00534 9.8486C9.05559 9.79396 9.09433 9.72975 9.11924 9.65981C9.14415 9.58988 9.15472 9.51564 9.15032 9.44153C9.14855 9.37017 9.13249 9.29989 9.10309 9.23484C9.07369 9.1698 9.03155 9.1113 8.97915 9.06283C8.92676 9.01435 8.86518 8.97687 8.79805 8.9526C8.73092 8.92833 8.65961 8.91776 8.58833 8.92153Z" fill="#037A80"/>
<path d="M12.6029 12.23C12.6045 12.4753 12.5332 12.7156 12.398 12.9203C12.2628 13.125 12.0698 13.2849 11.8436 13.3797C11.6173 13.4746 11.368 13.5001 11.1272 13.453C10.8865 13.4059 10.6652 13.2883 10.4913 13.1152C10.3175 12.9421 10.199 12.7212 10.151 12.4806C10.1029 12.2401 10.1274 11.9907 10.2213 11.764C10.3152 11.5374 10.4743 11.3438 10.6785 11.2078C10.8826 11.0717 11.1226 10.9994 11.3679 11C11.6926 11.0064 12.0023 11.1378 12.2324 11.367C12.4625 11.5962 12.5953 11.9053 12.6029 12.23ZM11.9229 12.238C11.924 12.0936 11.8679 11.9547 11.767 11.8514C11.666 11.7482 11.5283 11.6891 11.3839 11.687C11.3098 11.6813 11.2352 11.6913 11.1652 11.7166C11.0952 11.7418 11.0314 11.7815 10.9779 11.8332C10.9244 11.8849 10.8825 11.9474 10.8549 12.0164C10.8273 12.0855 10.8147 12.1597 10.8179 12.234C10.8141 12.3782 10.8673 12.518 10.966 12.6232C11.0647 12.7285 11.2008 12.7905 11.3449 12.796C11.4952 12.7974 11.64 12.7396 11.7481 12.6353C11.8562 12.5309 11.919 12.3882 11.9229 12.238Z" fill="#037A80"/>
</g>
<defs>
<clipPath id="clip0_47_1107">
<rect width="20.358" height="20.8" fill="white" transform="translate(0 0.5)"/>
</clipPath>
</defs>
</svg>
