<svg width="13" height="14" viewBox="0 0 13 14" fill="none" xmlns="http://www.w3.org/2000/svg">
<g clip-path="url(#clip0_47_2)">
<path d="M12.7974 13.281C12.7308 13.3498 12.6511 13.4045 12.563 13.4418C12.4748 13.4791 12.3801 13.4984 12.2844 13.4984C12.1887 13.4984 12.0939 13.4791 12.0058 13.4418C11.9177 13.4045 11.838 13.3498 11.7714 13.281L9.94338 11.444C8.7271 12.4232 7.18161 12.8987 5.62524 12.7726C4.06886 12.6465 2.62011 11.9283 1.57738 10.766C0.531399 9.60026 -0.0320203 8.0803 0.00140659 6.51444C0.0348335 4.94857 0.662603 3.45405 1.75738 2.334C2.84932 1.21796 4.32764 0.563116 5.8879 0.504329C7.44816 0.445543 8.97156 0.987288 10.1444 2.018C11.3197 3.05319 12.0573 4.49667 12.2075 6.05566C12.3578 7.61465 11.9094 9.17242 10.9534 10.413L12.7814 12.25C12.9183 12.3856 12.9967 12.5695 12.9997 12.7622C13.0027 12.955 12.9301 13.1412 12.7974 13.281ZM6.22338 2.113C5.1758 2.11171 4.16018 2.47371 3.34957 3.1373C2.53896 3.80089 1.98353 4.72502 1.77791 5.75223C1.57228 6.77944 1.7292 7.84616 2.22191 8.77065C2.71462 9.69513 3.51264 10.4202 4.48 10.8222C5.44736 11.2243 6.5242 11.2785 7.52704 10.9756C8.52988 10.6727 9.39667 10.0314 9.97972 9.16111C10.5628 8.29076 10.826 7.24519 10.7245 6.20252C10.6231 5.15986 10.1633 4.18463 9.42338 3.443C8.57527 2.59289 7.42421 2.11447 6.22338 2.113Z" fill="#037A80"/>
</g>
<defs>
<clipPath id="clip0_47_2">
<rect width="13" height="12.998" fill="white" transform="translate(0 0.5)"/>
</clipPath>
</defs>
</svg>
