<svg width="19" height="20" viewBox="0 0 19 20" fill="none" xmlns="http://www.w3.org/2000/svg">
<g clip-path="url(#clip0_47_5)">
<path d="M13.8103 1.5294C13.0091 1.53621 12.2188 1.71541 11.493 2.05482C10.7673 2.39423 10.1231 2.88589 9.60425 3.4964C9.08541 2.88589 8.44123 2.39423 7.71548 2.05482C6.98973 1.71541 6.19942 1.53621 5.39825 1.5294C4.7191 1.52509 4.0459 1.65626 3.41805 1.91523C2.79019 2.17421 2.22029 2.5558 1.74168 3.03767C1.26306 3.51954 0.885353 4.09202 0.630641 4.72162C0.375929 5.35122 0.249331 6.02529 0.258253 6.7044C0.258253 10.2614 3.43625 13.1594 8.25025 17.5634L9.60525 18.7964L10.9583 17.5544C15.7723 13.1604 18.9503 10.2614 18.9503 6.7044C18.9592 6.02529 18.8326 5.35122 18.5779 4.72162C18.3232 4.09202 17.9454 3.51954 17.4668 3.03767C16.9882 2.5558 16.4183 2.17421 15.7905 1.91523C15.1626 1.65626 14.4894 1.52509 13.8103 1.5294Z" fill="#037A80"/>
</g>
<defs>
<clipPath id="clip0_47_5">
<rect width="19" height="19" fill="white" transform="translate(0 0.5)"/>
</clipPath>
</defs>
</svg>
