<svg width="19" height="20" viewBox="0 0 19 20" fill="none" xmlns="http://www.w3.org/2000/svg">
<g clip-path="url(#clip0_47_13)">
<path d="M17.1604 13.4525C17.1607 13.6806 17.1159 13.9066 17.0288 14.1174C16.9417 14.3283 16.8138 14.5199 16.6526 14.6813C16.4914 14.8427 16.2999 14.9708 16.0892 15.0582C15.8784 15.1455 15.6525 15.1905 15.4244 15.1905H3.86938C3.63823 15.196 3.40829 15.1553 3.19312 15.0707C2.97794 14.9861 2.78184 14.8593 2.61639 14.6978C2.45095 14.5362 2.3195 14.3433 2.22974 14.1302C2.13997 13.9171 2.09375 13.6882 2.09375 13.457C2.09375 13.2258 2.13997 12.9969 2.22974 12.7838C2.3195 12.5707 2.45095 12.3778 2.61639 12.2162C2.78184 12.0547 2.97794 11.9279 3.19312 11.8433C3.40829 11.7587 3.63823 11.7179 3.86938 11.7235V7.05049C3.86938 5.51781 4.47824 4.0479 5.56201 2.96413C6.64578 1.88035 8.11569 1.27148 9.64838 1.27148C11.1811 1.27148 12.651 1.88035 13.7347 2.96413C14.8185 4.0479 15.4274 5.51781 15.4274 7.05049V11.7185C15.8869 11.7193 16.3274 11.9023 16.6523 12.2273C16.9771 12.5524 17.1599 12.9929 17.1604 13.4525ZM7.04736 16.0525H12.2474C12.2474 16.7421 11.9734 17.4034 11.4858 17.891C10.9982 18.3786 10.337 18.6525 9.6474 18.6525C8.95784 18.6525 8.29649 18.3786 7.8089 17.891C7.3213 17.4034 7.04736 16.7421 7.04736 16.0525Z" fill="#037A80"/>
</g>
<defs>
<clipPath id="clip0_47_13">
<rect width="19" height="19" fill="white" transform="translate(0 0.5)"/>
</clipPath>
</defs>
</svg>
