<svg width="19" height="20" viewBox="0 0 19 20" fill="none" xmlns="http://www.w3.org/2000/svg">
<g clip-path="url(#clip0_47_17)">
<path d="M18.0549 10.2428C18.0569 8.79323 17.6973 7.36608 17.0085 6.09062C16.3198 4.81516 15.3237 3.73169 14.1105 2.93835C12.8974 2.14502 11.5054 1.66689 10.0608 1.54729C8.61622 1.42769 7.16461 1.67039 5.83748 2.2534C4.51035 2.83642 3.34965 3.74133 2.46052 4.88615C1.57139 6.03098 0.981936 7.37954 0.745547 8.80968C0.509159 10.2398 0.633309 11.7063 1.10675 13.0764C1.5802 14.4464 2.38797 15.6767 3.4569 16.6558L3.4489 16.6628L3.7329 16.9008C3.7509 16.9158 3.7709 16.9288 3.7899 16.9438C3.9399 17.0678 4.0959 17.1868 4.2539 17.3008L4.4089 17.4108C4.57823 17.5274 4.75157 17.6381 4.9289 17.7428L5.0449 17.8098C5.2389 17.9208 5.4379 18.0248 5.6449 18.1188L5.6899 18.1388C6.36076 18.4504 7.0689 18.6746 7.7969 18.8058L7.8549 18.8168C8.0839 18.8568 8.3159 18.8878 8.5549 18.9098L8.6309 18.9218C8.8649 18.9408 9.1009 18.9538 9.3409 18.9538C9.5809 18.9538 9.8119 18.9418 10.0409 18.9228L10.1309 18.9158C10.3636 18.8944 10.5936 18.8641 10.8209 18.8248L10.8799 18.8138C11.5969 18.6853 12.2948 18.4665 12.9569 18.1628L13.0299 18.1298C13.2252 18.0378 13.4166 17.9378 13.6039 17.8298L13.7429 17.7498C13.9129 17.6498 14.0809 17.5438 14.2429 17.4328C14.3019 17.3928 14.3589 17.3508 14.4169 17.3088C14.5559 17.2088 14.6929 17.1088 14.8259 16.9978C14.8549 16.9738 14.8869 16.9538 14.9159 16.9288L15.2059 16.6868L15.1969 16.6798C16.0956 15.8649 16.8138 14.8709 17.3051 13.7618C17.7965 12.6526 18.0502 11.4529 18.0499 10.2398L18.0549 10.2428ZM1.2629 10.2428C1.26162 8.89323 1.59843 7.56487 2.24257 6.37898C2.88671 5.19309 3.81766 4.18745 4.95041 3.45388C6.08317 2.72031 7.38164 2.2822 8.72727 2.17953C10.0729 2.07686 11.4228 2.31291 12.6537 2.86613C13.8847 3.41935 14.9574 4.27211 15.774 5.34655C16.5906 6.42099 17.1251 7.68288 17.3285 9.01699C17.532 10.3511 17.3981 11.7149 16.9389 12.984C16.4797 14.253 15.71 15.3868 14.6999 16.2818C14.6093 16.2186 14.5144 16.1618 14.4159 16.1118L11.7309 14.7718C11.6133 14.7137 11.5144 14.6237 11.4454 14.5122C11.3765 14.4006 11.3403 14.2719 11.3409 14.1408V13.2028C11.4029 13.1258 11.4699 13.0398 11.5409 12.9448C11.8927 12.4454 12.1718 11.8986 12.3699 11.3208C12.5675 11.2279 12.7347 11.0807 12.8517 10.8964C12.9688 10.712 13.0309 10.4981 13.0309 10.2798V9.15577C13.0299 8.88022 12.9302 8.61416 12.7499 8.40577V6.92677C12.8038 6.25243 12.588 5.58425 12.1499 5.06877C11.7817 4.70943 11.3401 4.43401 10.8554 4.2614C10.3707 4.08879 9.85438 4.02308 9.3419 4.06877C8.82926 4.02293 8.31277 4.08857 7.8279 4.26118C7.34302 4.4338 6.90125 4.7093 6.5329 5.06877C6.09435 5.58369 5.87786 6.25149 5.9309 6.92577V8.40377C5.7507 8.61221 5.65103 8.87824 5.6499 9.15377V10.2778C5.64972 10.4489 5.68769 10.618 5.76103 10.7726C5.83437 10.9273 5.94125 11.0636 6.0739 11.1718C6.26871 11.9025 6.60097 12.5894 7.0529 13.1958V14.1128C7.05282 14.2396 7.01862 14.3641 6.95387 14.4732C6.88912 14.5823 6.79622 14.6719 6.6849 14.7328L4.1849 16.0988C4.10254 16.1442 4.02306 16.1946 3.9469 16.2498C3.10216 15.4936 2.42647 14.5677 1.96397 13.5326C1.50147 12.4975 1.26258 11.3765 1.2629 10.2428Z" fill="#037A80"/>
</g>
<defs>
<clipPath id="clip0_47_17">
<rect width="19" height="19" fill="white" transform="translate(0 0.5)"/>
</clipPath>
</defs>
</svg>
