<svg width="19" height="20" viewBox="0 0 19 20" fill="none" xmlns="http://www.w3.org/2000/svg">
<g clip-path="url(#clip0_47_9)">
<path d="M18.7472 9.0012L9.96521 1.6842C9.85287 1.59284 9.71249 1.54297 9.5677 1.54297C9.42291 1.54297 9.28254 1.59284 9.17021 1.6842L0.388211 9.0012C0.262084 9.10743 0.182633 9.25889 0.166928 9.42305C0.151222 9.58721 0.200516 9.75097 0.304211 9.8792C0.412928 10.0014 0.563858 10.078 0.726711 10.0936C0.889564 10.1092 1.05228 10.0626 1.1822 9.9632L2.8762 8.5632V16.2572C2.90709 16.9586 3.21514 17.619 3.73265 18.0934C4.25016 18.5677 4.93482 18.8173 5.63621 18.7872H13.4772C14.1786 18.8173 14.8633 18.5677 15.3808 18.0934C15.8983 17.619 16.2063 16.9586 16.2372 16.2572V8.5632L17.9312 9.9632C18.0416 10.0602 18.1843 10.1123 18.3312 10.1092C18.4234 10.1087 18.5143 10.0878 18.5975 10.0481C18.6806 10.0083 18.754 9.95063 18.8122 9.8792C18.8697 9.8194 18.914 9.74821 18.9423 9.67022C18.9705 9.59223 18.9821 9.50917 18.9763 9.42642C18.9704 9.34367 18.9473 9.26307 18.9084 9.18983C18.8694 9.11658 18.8155 9.05232 18.7502 9.0012H18.7472ZM8.10521 17.4892V13.0982C8.10371 13.0155 8.11892 12.9333 8.1499 12.8565C8.18088 12.7798 8.22701 12.71 8.28553 12.6515C8.34406 12.593 8.41376 12.5469 8.49051 12.5159C8.56725 12.4849 8.64946 12.4697 8.7322 12.4712H10.4052C10.488 12.4697 10.5702 12.4849 10.6469 12.5159C10.7237 12.5469 10.7934 12.593 10.8519 12.6515C10.9104 12.71 10.9565 12.7798 10.9875 12.8565C11.0185 12.9333 11.0337 13.0155 11.0322 13.0982V17.4892H8.10521Z" fill="#037A80"/>
</g>
<defs>
<clipPath id="clip0_47_9">
<rect width="19" height="19" fill="white" transform="translate(0 0.5)"/>
</clipPath>
</defs>
</svg>
