<svg width="24" height="25" viewBox="0 0 24 25" fill="none" xmlns="http://www.w3.org/2000/svg">
<g clip-path="url(#clip0_47_21)">
<path d="M0.00390625 15.7044C0.268906 15.7044 0.533906 15.6944 0.803906 15.6934H7.19391C7.51691 15.6934 7.51791 15.6934 7.51791 16.0184V17.8474C7.51791 18.1164 7.50691 18.1214 7.25891 18.0044C6.44251 17.6027 5.50697 17.5152 4.63024 17.7584C3.7535 18.0016 2.99674 18.5586 2.50391 19.3234C2.27988 19.6541 2.11665 20.0222 2.02191 20.4104C2.01988 20.4452 2.01051 20.4793 1.9944 20.5103C1.97829 20.5413 1.95581 20.5686 1.92843 20.5903C1.90105 20.612 1.86938 20.6277 1.83552 20.6363C1.80165 20.645 1.76634 20.6463 1.73191 20.6404C1.49091 20.6264 1.24691 20.6404 1.00791 20.6174C0.778743 20.5907 0.562247 20.4981 0.384724 20.3508C0.2072 20.2034 0.0762925 20.0077 0.00790624 19.7874V19.0874L1.08291 19.0754C1.35775 19.0865 1.62655 18.9927 1.83475 18.8129C2.04294 18.6332 2.17492 18.3809 2.20391 18.1074C2.24181 17.7269 2.2495 17.344 2.22691 16.9624C2.22691 16.6304 2.10491 16.5134 1.77391 16.5104C1.18391 16.5054 0.591906 16.5054 0.00390625 16.5024V15.7044Z" fill="#037A80"/>
<path d="M0.00390625 17.2044C0.439906 17.2044 0.875906 17.2044 1.31191 17.1934C1.45891 17.1934 1.52591 17.2504 1.51991 17.4014C1.51391 17.5524 1.51991 17.7294 1.51991 17.8934C1.51991 18.2264 1.37291 18.3754 1.03291 18.3824C0.692906 18.3894 0.347906 18.3824 0.00490625 18.3824L0.00390625 17.2044Z" fill="#037A80"/>
<path d="M23.9446 7.54078C23.994 7.63646 24.0118 7.74533 23.9956 7.85178C23.9956 10.1264 23.9956 12.4014 23.9956 14.6768C23.9956 15.0038 23.9956 15.0058 23.6736 15.0058H8.55056C8.22756 15.0058 8.22656 15.0058 8.22656 14.6788V5.13278C8.22656 4.80778 8.22656 4.80678 8.54956 4.80678C9.89156 4.80678 11.2346 4.81278 12.5756 4.80078C12.8266 4.80078 12.9086 4.88978 12.9466 5.12578C13.0806 5.95778 13.2086 6.79278 13.3896 7.61578C13.7299 9.15113 14.6283 10.5054 15.9106 11.4158C16.7226 12.0238 17.5176 12.6568 18.3196 13.2778C18.5886 13.4858 18.6986 13.4918 18.9626 13.2908C19.8506 12.6138 20.7426 11.9418 21.6216 11.2538C22.8122 10.3312 23.6356 9.015 23.9446 7.54078ZM11.2296 11.5638H13.2186C13.2936 11.5638 13.4026 11.5948 13.4356 11.5178C13.498 11.3404 13.5046 11.1481 13.4546 10.9668C13.4256 10.8258 13.2716 10.8818 13.1716 10.8808C11.9236 10.8768 10.6752 10.8768 9.42656 10.8808C8.96256 10.8808 9.02656 10.8468 9.00456 11.2948C8.99456 11.5188 9.07856 11.5738 9.28656 11.5698C9.93556 11.5568 10.5816 11.5638 11.2296 11.5638ZM11.2536 13.1308H9.23556C9.06756 13.1308 8.98356 13.1818 9.00356 13.3588C9.0108 13.4132 9.0108 13.4684 9.00356 13.5228C8.96656 13.7648 9.07156 13.8228 9.30356 13.8228C10.5516 13.8128 11.8036 13.8228 13.0486 13.8228C13.5116 13.8228 13.4486 13.8658 13.4716 13.4118C13.4806 13.1908 13.4016 13.1298 13.1906 13.1338C12.5436 13.1418 11.8956 13.1338 11.2486 13.1338L11.2536 13.1308ZM15.3826 13.1308H14.7046C14.2046 13.1308 14.2666 13.0748 14.2516 13.5828C14.2456 13.7778 14.3256 13.8218 14.4996 13.8198C15.0066 13.8118 15.5136 13.8198 16.0206 13.8198C16.5276 13.8198 16.4626 13.8968 16.4726 13.3468C16.4726 13.1778 16.4036 13.1298 16.2486 13.1328C15.9596 13.1328 15.6716 13.1328 15.3826 13.1328V13.1308Z" fill="#037A80"/>
<path d="M23.917 3.59762C23.817 4.16962 23.722 4.77062 23.617 5.36962C23.479 6.12162 23.389 6.88362 23.203 7.62662C22.9137 8.83098 22.2245 9.90163 21.248 10.6636C20.501 11.2546 19.736 11.8226 18.981 12.4036C18.904 12.4841 18.7994 12.5326 18.6882 12.5395C18.577 12.5463 18.4673 12.511 18.381 12.4406C17.525 11.7736 16.651 11.1286 15.823 10.4276C14.839 9.58459 14.1909 8.41582 13.997 7.13462C13.797 5.99662 13.604 4.85762 13.407 3.71862C13.3863 3.66304 13.3769 3.6039 13.3793 3.54464C13.3816 3.48539 13.3957 3.42718 13.4207 3.37342C13.4458 3.31965 13.4812 3.27139 13.525 3.23142C13.5689 3.19146 13.6202 3.1606 13.676 3.14062C15.2433 2.28396 16.8117 1.42896 18.381 0.575624C18.4652 0.525138 18.5617 0.498972 18.6599 0.500031C18.758 0.50109 18.8539 0.529333 18.937 0.581624C20.5057 1.43696 22.0753 2.29062 23.646 3.14262C23.7328 3.18094 23.8056 3.24533 23.8541 3.32687C23.9027 3.4084 23.9247 3.50303 23.917 3.59762ZM14.944 4.44762C14.949 4.50962 14.95 4.57262 14.961 4.63462C15.094 5.39562 15.231 6.15662 15.361 6.91862C15.522 7.92551 16.0663 8.83106 16.88 9.44562C17.366 9.82496 17.8533 10.2026 18.342 10.5786C18.589 10.7686 18.706 10.7726 18.949 10.5886C19.483 10.1826 20.021 9.77962 20.549 9.35862C21.2418 8.80953 21.7174 8.03244 21.891 7.16562C22.073 6.28762 22.207 5.39862 22.362 4.51462C22.3815 4.43787 22.3747 4.35681 22.3429 4.28433C22.311 4.21185 22.2558 4.15212 22.186 4.11462C21.867 3.93362 21.544 3.76062 21.222 3.58462C21.159 3.55062 21.088 3.51562 21.042 3.60562C20.9323 3.75527 20.8534 3.92523 20.81 4.10562C20.804 4.23362 21.038 4.25862 21.159 4.33962C21.2347 4.39496 21.317 4.44064 21.404 4.47562C21.61 4.54762 21.635 4.68362 21.597 4.87562C21.497 5.41262 21.397 5.95062 21.317 6.49062C21.2368 7.33032 20.854 8.11221 20.24 8.69062C19.774 9.10762 19.256 9.45862 18.765 9.84462C18.656 9.93062 18.582 9.87562 18.498 9.81062C18.085 9.48862 17.668 9.17362 17.26 8.84662C16.6131 8.33969 16.1808 7.60783 16.049 6.79662C15.949 6.22762 15.855 5.65762 15.749 5.08862C15.66 4.58862 15.66 4.59762 16.096 4.35962C16.652 4.05962 16.556 4.17662 16.296 3.65362C16.296 3.64662 16.288 3.63962 16.285 3.63262C16.242 3.53262 16.178 3.51762 16.085 3.57162C15.772 3.74762 15.454 3.91562 15.142 4.09062C15.0752 4.12138 15.0199 4.17249 14.984 4.23662C14.9481 4.30076 14.9334 4.37462 14.942 4.44762H14.944ZM18.653 7.61462C18.7219 7.60503 18.7879 7.581 18.8469 7.54413C18.9058 7.50725 18.9563 7.45835 18.995 7.40062C19.4923 6.80062 19.9923 6.20062 20.495 5.60062C20.783 5.25662 20.78 5.26462 20.451 4.97562C20.305 4.84762 20.214 4.83062 20.079 4.99962C19.656 5.52962 19.21 6.04162 18.784 6.57062C18.663 6.72062 18.584 6.72662 18.458 6.58262C18.354 6.46654 18.2441 6.35573 18.129 6.25062C17.753 5.88762 17.869 5.85062 17.443 6.26962C17.4201 6.28427 17.4012 6.30445 17.3882 6.32831C17.3751 6.35216 17.3683 6.37893 17.3683 6.40612C17.3683 6.43332 17.3751 6.46008 17.3882 6.48394C17.4012 6.50779 17.4201 6.52798 17.443 6.54262C17.761 6.85362 18.072 7.17062 18.387 7.48462C18.4206 7.52273 18.4614 7.55383 18.507 7.57614C18.5527 7.59845 18.6023 7.61153 18.653 7.61462ZM18.637 2.24862C18.5459 2.25114 18.4576 2.28035 18.383 2.33262L17.461 2.83262C16.914 3.13262 16.992 2.97762 17.261 3.53262C17.327 3.66762 17.399 3.66562 17.518 3.59862C17.836 3.41762 18.163 3.25362 18.481 3.07262C18.5319 3.03753 18.592 3.01832 18.6538 3.01743C18.7155 3.01654 18.7762 3.03401 18.828 3.06762C19.064 3.20462 19.305 3.33062 19.546 3.45862C20.053 3.72962 19.905 3.76462 20.209 3.25862C20.288 3.12562 20.257 3.05262 20.124 2.98362C19.71 2.76662 19.302 2.54062 18.891 2.31762C18.8152 2.26971 18.7267 2.24567 18.637 2.24862ZM19 4.27562C19 3.92562 19 3.92562 18.656 3.92562C18.312 3.92562 18.314 3.92562 18.314 4.28262C18.314 4.61462 18.314 4.61462 18.652 4.61462C18.99 4.61462 19 4.61562 19 4.27562ZM19 8.77562C19 8.42662 19 8.42662 18.654 8.42662C18.308 8.42662 18.313 8.42662 18.313 8.78462C18.313 9.11562 18.313 9.11562 18.651 9.11562C18.989 9.11562 19 9.12062 19 8.77562Z" fill="#037A80"/>
<path d="M16.1241 15.6924H23.6421C23.9981 15.6924 23.9991 15.6924 23.9991 16.0564C23.9991 16.8614 23.9921 17.6664 23.9991 18.4714C23.9991 18.7014 23.9211 18.7844 23.6991 18.7604C23.5367 18.7473 23.3734 18.7697 23.2205 18.8262C23.0677 18.8827 22.9291 18.9718 22.8142 19.0874C22.6994 19.203 22.6112 19.3423 22.5557 19.4955C22.5002 19.6486 22.4789 19.8121 22.4931 19.9744C22.4931 20.1154 22.4931 20.2554 22.4931 20.3964C22.4931 20.5084 22.5001 20.6284 22.3391 20.6314C22.1781 20.6344 22.0181 20.6824 21.9661 20.4584C21.8841 20.1083 21.7492 19.7728 21.5661 19.4634C21.1978 18.834 20.6523 18.327 19.9977 18.0056C19.3431 17.6842 18.6084 17.5627 17.8851 17.6563C17.1619 17.7498 16.4823 18.0542 15.931 18.5316C15.3797 19.0089 14.9811 19.638 14.7851 20.3404C14.7788 20.3865 14.7635 20.4309 14.7399 20.471C14.7164 20.5112 14.6851 20.5462 14.6478 20.5741C14.6106 20.602 14.5682 20.6223 14.5231 20.6336C14.478 20.645 14.4311 20.6473 14.3851 20.6404C12.7851 20.6317 11.1851 20.6317 9.58507 20.6404C9.54033 20.6487 9.49436 20.6475 9.45011 20.6369C9.40586 20.6263 9.36432 20.6066 9.32815 20.579C9.29198 20.5514 9.26199 20.5165 9.2401 20.4766C9.21822 20.4368 9.20492 20.3927 9.20107 20.3474C9.05904 19.7916 8.77867 19.2807 8.38607 18.8624C8.3321 18.807 8.28999 18.7412 8.26231 18.669C8.23462 18.5968 8.22196 18.5197 8.22507 18.4424C8.23207 17.6294 8.22507 16.8164 8.22507 16.0034C8.22507 15.6934 8.22507 15.6914 8.53907 15.6914L16.1241 15.6924ZM15.6011 17.1924H16.4011C16.8961 17.1864 16.8411 17.2704 16.8491 16.7164C16.8491 16.5674 16.7981 16.5054 16.6491 16.5064C15.8611 16.5104 15.0734 16.5104 14.2861 16.5064C14.2119 16.5029 14.1382 16.5197 14.0728 16.5549C14.0075 16.5902 13.9529 16.6425 13.9151 16.7064C13.7621 16.9424 13.5951 17.1694 13.4511 17.4064C13.411 17.4813 13.3496 17.5426 13.2747 17.5825C13.1997 17.6224 13.1146 17.639 13.0301 17.6304C11.9621 17.6224 10.8931 17.6304 9.83007 17.6304C9.34307 17.6304 9.40507 17.5824 9.39107 18.0724C9.39107 18.2534 9.44307 18.3194 9.63007 18.3184C10.8967 18.3124 12.1601 18.3124 13.4201 18.3184C13.502 18.3232 13.5836 18.3054 13.6561 18.2669C13.7286 18.2285 13.7891 18.1709 13.8311 18.1004C13.9841 17.8644 14.1491 17.6364 14.2951 17.4004C14.3303 17.3313 14.3854 17.2745 14.4534 17.2372C14.5213 17.1999 14.5989 17.184 14.6761 17.1914C14.9761 17.2024 15.2941 17.1914 15.6051 17.1914L15.6011 17.1924ZM20.2371 16.5064C19.8731 16.5064 19.8731 16.5064 19.8731 16.8334C19.8731 17.1924 19.8731 17.1924 20.2021 17.1924C20.5891 17.1924 20.5891 17.1924 20.5891 16.8674C20.5891 16.5074 20.5891 16.5064 20.2371 16.5064ZM21.7131 17.1924C22.0881 17.1924 22.0881 17.1924 22.0881 16.8794C22.0881 16.5064 22.0881 16.5064 21.7471 16.5064C21.3721 16.5064 21.3721 16.5064 21.3711 16.8444C21.3701 17.1824 21.3711 17.1934 21.7121 17.1934L21.7131 17.1924Z" fill="#037A80"/>
<path d="M2.60744 21.3669C2.60964 20.6688 2.85375 19.9929 3.29823 19.4545C3.74271 18.9161 4.36007 18.5483 5.0452 18.4139C5.73033 18.2795 6.44087 18.3867 7.05584 18.7173C7.67081 19.0478 8.1522 19.5813 8.41803 20.2269C8.68387 20.8725 8.71772 21.5903 8.51382 22.2581C8.30993 22.9258 7.88089 23.5023 7.29976 23.8893C6.71862 24.2762 6.02133 24.4498 5.32659 24.3805C4.63185 24.3112 3.98262 24.0032 3.48944 23.5089C3.20842 23.2277 2.98582 22.8937 2.83444 22.5261C2.68307 22.1584 2.60592 21.7645 2.60744 21.3669ZM5.62744 20.2669C5.41152 20.2685 5.20091 20.3341 5.02224 20.4554C4.84357 20.5766 4.70486 20.7481 4.62365 20.9482C4.54243 21.1483 4.52236 21.3679 4.56596 21.5794C4.60957 21.7909 4.71489 21.9847 4.86862 22.1364C5.02236 22.288 5.21759 22.3906 5.42966 22.4313C5.64172 22.472 5.86109 22.449 6.06003 22.365C6.25897 22.281 6.42856 22.14 6.54736 21.9597C6.66615 21.7794 6.72882 21.5679 6.72744 21.3519C6.72043 21.0643 6.60167 20.7906 6.39633 20.589C6.19099 20.3874 5.91521 20.2737 5.62744 20.2719V20.2669Z" fill="#037A80"/>
<path d="M21.3755 21.3613C21.3702 21.9569 21.1885 22.5375 20.8535 23.0298C20.5185 23.5222 20.0451 23.9043 19.4931 24.1279C18.9411 24.3515 18.3352 24.4065 17.752 24.286C17.1688 24.1655 16.6343 23.875 16.216 23.451C15.7978 23.0271 15.5145 22.4887 15.402 21.9039C15.2894 21.319 15.3527 20.714 15.5837 20.1651C15.8147 19.6162 16.2032 19.148 16.7001 18.8197C17.197 18.4914 17.78 18.3176 18.3755 18.3203C18.7724 18.3222 19.1651 18.4024 19.5309 18.5564C19.8967 18.7103 20.2285 18.9351 20.5073 19.2176C20.786 19.5002 21.0062 19.835 21.1552 20.2029C21.3042 20.5708 21.3791 20.9644 21.3755 21.3613ZM18.3455 22.4473C18.5617 22.4485 18.7733 22.3856 18.9537 22.2665C19.134 22.1475 19.2751 21.9776 19.3589 21.7784C19.4428 21.5792 19.4657 21.3596 19.4247 21.1474C19.3838 20.9352 19.2809 20.7398 19.129 20.5861C18.977 20.4324 18.783 20.3271 18.5712 20.2837C18.3595 20.2402 18.1397 20.2605 17.9395 20.342C17.7393 20.4235 17.5678 20.5625 17.4466 20.7414C17.3254 20.9204 17.2599 21.1312 17.2585 21.3473C17.2613 21.6356 17.3761 21.9116 17.5785 22.1168C17.781 22.3221 18.0553 22.4406 18.3435 22.4473H18.3455Z" fill="#037A80"/>
<path d="M4.24213 10.8993C5.23313 10.8993 6.22413 10.9043 7.21413 10.8993C7.42913 10.8993 7.52113 10.9453 7.51413 11.1823C7.50113 11.6293 7.51413 11.6303 7.07113 11.6303H6.43913C6.28277 11.6204 6.12609 11.6438 5.97946 11.699C5.83282 11.7542 5.69957 11.8398 5.5885 11.9503C5.47744 12.0608 5.39109 12.1936 5.33517 12.34C5.27926 12.4863 5.25504 12.6429 5.26413 12.7993C5.25746 13.448 5.25746 14.0966 5.26413 14.7453C5.26413 14.9363 5.20313 15.0093 5.00913 15.0073C4.18213 15.0003 3.35513 15.0023 2.52813 15.0073C2.35813 15.0073 2.28513 14.9633 2.32013 14.7763C2.39313 14.3933 2.45413 14.0073 2.51113 13.6213C2.51135 13.594 2.51759 13.567 2.52943 13.5423C2.54126 13.5177 2.55839 13.4959 2.57959 13.4786C2.60079 13.4613 2.62554 13.4489 2.65208 13.4423C2.67862 13.4357 2.70629 13.435 2.73313 13.4403H3.01413C3.35413 13.4403 3.35413 13.4403 3.35413 13.0903C3.35413 12.7403 3.35413 12.7543 3.02313 12.7543H2.32313C2.03313 12.7543 1.93713 12.8463 1.88913 13.1353C1.79713 13.6823 1.69913 14.2273 1.61713 14.7753C1.59313 14.9373 1.53413 15.0103 1.36613 15.0073C0.999128 15.0003 0.633128 15.0003 0.266128 15.0073C0.0831278 15.0073 0.0581278 14.9273 0.0941278 14.7733C0.376794 13.5566 0.656794 12.339 0.934128 11.1203C0.936947 11.0859 0.946902 11.0525 0.963357 11.0222C0.979813 10.9919 1.00241 10.9654 1.0297 10.9443C1.05699 10.9232 1.08837 10.9081 1.12185 10.8998C1.15533 10.8915 1.19016 10.8903 1.22413 10.8963C2.22913 10.9043 3.23613 10.8993 4.24213 10.8993Z" fill="#037A80"/>
<path d="M4.33521 10.1838H1.43521C1.22621 10.1838 1.17521 10.1328 1.24821 9.92982C1.40221 9.50382 1.53221 9.06982 1.68021 8.64282C1.75376 8.39284 1.90899 8.17474 2.12108 8.02337C2.33318 7.872 2.5899 7.79611 2.85021 7.80782C4.30821 7.80782 5.76621 7.80782 7.22421 7.80782C7.45221 7.80782 7.51821 7.88382 7.51421 8.10782C7.50221 8.71682 7.50421 9.32682 7.51421 9.93582C7.51421 10.1288 7.45321 10.1928 7.26021 10.1918C6.28421 10.1798 5.31021 10.1838 4.33521 10.1838Z" fill="#037A80"/>
<path d="M7.51061 13.6625V14.7625C7.51061 14.9255 7.46661 15.0105 7.28761 15.0075C6.92161 15.0005 6.55461 15.0025 6.18761 15.0075C6.02461 15.0075 5.97261 14.9355 5.97361 14.7795C5.97361 14.1085 5.97361 13.4365 5.97361 12.7655C5.9665 12.7068 5.97248 12.6472 5.99113 12.5911C6.00978 12.535 6.04063 12.4838 6.08146 12.441C6.1223 12.3983 6.1721 12.3651 6.22728 12.3439C6.28246 12.3227 6.34166 12.314 6.40061 12.3185C6.70061 12.3095 6.99261 12.3185 7.28861 12.3185C7.45061 12.3185 7.50761 12.3845 7.50561 12.5425C7.50561 12.9135 7.51061 13.2885 7.51061 13.6625Z" fill="#037A80"/>
<path d="M23.9899 19.9591C23.997 20.068 23.997 20.1772 23.9899 20.2861C23.9677 20.356 23.9312 20.4206 23.8826 20.4756C23.8341 20.5307 23.7746 20.575 23.708 20.6058C23.6414 20.6365 23.5691 20.6531 23.4957 20.6543C23.4224 20.6556 23.3495 20.6416 23.2819 20.6131C23.2169 20.5731 23.2169 20.5131 23.2169 20.4491C23.2169 20.2491 23.2079 20.0431 23.2169 19.8411C23.2292 19.7642 23.2592 19.6913 23.3046 19.6281C23.3501 19.5649 23.4096 19.5132 23.4786 19.477C23.5475 19.4409 23.624 19.4214 23.7018 19.42C23.7796 19.4186 23.8567 19.4354 23.9269 19.4691C23.9498 19.4837 23.9682 19.5046 23.9799 19.5291C23.9915 19.5537 23.996 19.5811 23.9929 19.6081V19.9591H23.9899Z" fill="#037A80"/>
</g>
<defs>
<clipPath id="clip0_47_21">
<rect width="24.001" height="24" fill="white" transform="translate(0 0.5)"/>
</clipPath>
</defs>
</svg>
