<svg width="180" height="91" viewBox="0 0 180 91" fill="none" xmlns="http://www.w3.org/2000/svg">
<path fill-rule="evenodd" clip-rule="evenodd" d="M7.85749 70.3248L7.78779 70.3121C6.89432 70.1727 6.48877 69.6591 6.305 69.2533C5.89312 68.3404 6.17193 67.123 7.21115 65.3098L7.22382 65.2844C10.8991 59.274 14.5934 53.1621 18.0659 47.4179L18.5221 46.6634L19.2762 47.0755C21.5701 48.3245 23.8766 49.2058 26.1452 49.694C26.6204 49.7954 27.1084 49.8842 27.5836 49.954L29.0094 50.1568L20.3725 64.5046H20.3978H46.7711V70.3248H7.85749ZM31.9433 44.4127C30.1436 44.3556 28.306 43.9942 26.481 43.3348C25.2454 42.891 23.9907 42.3014 22.7614 41.585L21.9059 41.0904L22.4319 40.2218C25.22 35.6189 28.5088 30.1791 31.8102 24.7836C31.8355 24.7392 31.8545 24.6948 31.8672 24.6568H31.8482L1.24199 24.7456L1.29902 19.255H41.2392C42.3861 19.3818 43.2859 20.0348 43.7675 21.1C44.4962 22.7104 44.1857 25.0626 42.9944 26.9519L32.4819 44.419L31.9496 44.4L31.9433 44.4127Z" fill="white"/>
<path d="M13.776 8.28022L20.233 18.1391H29.8775L16.279 6.63812L13.776 8.28022Z" fill="white"/>
<mask id="mask0_2_17" style="mask-type:luminance" maskUnits="userSpaceOnUse" x="13" y="6" width="17" height="13">
<path d="M13.776 8.28022L20.233 18.1391H29.8775L16.279 6.63812L13.776 8.28022Z" fill="white"/>
</mask>
<g mask="url(#mask0_2_17)">
<path fill-rule="evenodd" clip-rule="evenodd" d="M25.822 23.4458L24.2125 21.9115L28.268 16.6048L29.8775 18.1391" fill="white"/>
<path fill-rule="evenodd" clip-rule="evenodd" d="M24.2378 21.9369L24.1681 21.8672L28.2173 16.5605L28.287 16.6302" fill="white"/>
<path fill-rule="evenodd" clip-rule="evenodd" d="M24.1871 21.8925L24.1174 21.8291L28.1729 16.5161L28.2426 16.5858" fill="white"/>
<path fill-rule="evenodd" clip-rule="evenodd" d="M24.1428 21.8481L24.0731 21.7847L28.1286 16.478L28.1983 16.5414" fill="white"/>
<path fill-rule="evenodd" clip-rule="evenodd" d="M24.0984 21.8038L24.0287 21.7404L28.0842 16.4337L28.1539 16.4971" fill="white"/>
<path fill-rule="evenodd" clip-rule="evenodd" d="M24.0541 21.7593L23.9844 21.6959L28.0399 16.3893L28.1032 16.4527" fill="white"/>
<path fill-rule="evenodd" clip-rule="evenodd" d="M24.0034 21.715L23.9337 21.6516L27.9892 16.3449L28.0589 16.4083" fill="white"/>
<path fill-rule="evenodd" clip-rule="evenodd" d="M23.959 21.6769L23.8893 21.6072L27.9448 16.3005L28.0145 16.3639" fill="white"/>
<path fill-rule="evenodd" clip-rule="evenodd" d="M23.9147 21.6326L23.845 21.5628L27.9004 16.2561L27.9701 16.3259" fill="white"/>
<path fill-rule="evenodd" clip-rule="evenodd" d="M23.8703 21.5882L23.8006 21.5248L27.8561 16.2117L27.9195 16.2815" fill="white"/>
<path fill-rule="evenodd" clip-rule="evenodd" d="M23.8196 21.5438L23.7499 21.4804L27.8054 16.1737L27.8751 16.2371" fill="white"/>
<path fill-rule="evenodd" clip-rule="evenodd" d="M23.7753 21.4994L23.7056 21.436L27.761 16.1293L27.8307 16.1927" fill="white"/>
<path fill-rule="evenodd" clip-rule="evenodd" d="M23.7309 21.455L23.6612 21.3916L27.7167 16.0849L27.7864 16.1483" fill="white"/>
<path fill-rule="evenodd" clip-rule="evenodd" d="M23.6865 21.4107L23.6168 21.3473L27.6723 16.0406L27.7357 16.104" fill="white"/>
<path fill-rule="evenodd" clip-rule="evenodd" d="M23.6359 21.3663L23.5661 21.3029L27.6216 15.9962L27.6913 16.0596" fill="white"/>
<path fill-rule="evenodd" clip-rule="evenodd" d="M23.5915 21.3282L23.5218 21.2585L27.5773 15.9518L27.647 16.0152" fill="white"/>
<path fill-rule="evenodd" clip-rule="evenodd" d="M23.5471 21.2838L23.4774 21.2141L27.5329 15.9074L27.6026 15.9772" fill="white"/>
<path fill-rule="evenodd" clip-rule="evenodd" d="M23.5028 21.2395L23.4331 21.1761L27.4886 15.863L27.5583 15.9328" fill="white"/>
<path fill-rule="evenodd" clip-rule="evenodd" d="M23.4521 21.1951L23.3887 21.1317L27.4379 15.825L27.5076 15.8884" fill="white"/>
<path fill-rule="evenodd" clip-rule="evenodd" d="M23.4077 21.1507L23.338 21.0873L27.3935 15.7806L27.4632 15.844" fill="white"/>
<path fill-rule="evenodd" clip-rule="evenodd" d="M23.3634 21.1063L23.2937 21.0429L27.3492 15.7362L27.4189 15.7996" fill="white"/>
<path fill-rule="evenodd" clip-rule="evenodd" d="M23.319 21.062L23.2493 20.9986L27.3048 15.6919L27.3745 15.7553" fill="white"/>
<path fill-rule="evenodd" clip-rule="evenodd" d="M23.2683 21.0176L23.205 20.9542L27.2541 15.6475L27.3238 15.7109" fill="white"/>
<path fill-rule="evenodd" clip-rule="evenodd" d="M23.224 20.9795L23.1543 20.9098L27.2097 15.6031L27.2794 15.6665" fill="white"/>
<path fill-rule="evenodd" clip-rule="evenodd" d="M23.1796 20.9352L23.1099 20.8654L27.1654 15.5587L27.2351 15.6285" fill="white"/>
<path fill-rule="evenodd" clip-rule="evenodd" d="M23.1353 20.8908L23.0656 20.8273L27.121 15.5143L27.1907 15.5841" fill="white"/>
<path fill-rule="evenodd" clip-rule="evenodd" d="M23.0909 20.8464L23.0212 20.783L27.0703 15.4763L27.14 15.5397" fill="white"/>
<path fill-rule="evenodd" clip-rule="evenodd" d="M23.0402 20.802L22.9705 20.7386L27.026 15.4319L27.0957 15.4953" fill="white"/>
<path fill-rule="evenodd" clip-rule="evenodd" d="M22.9959 20.7576L22.9261 20.6942L26.9816 15.3875L27.0513 15.4509" fill="white"/>
<path fill-rule="evenodd" clip-rule="evenodd" d="M22.9515 20.7132L22.8818 20.6498L26.9373 15.3431L27.007 15.4065" fill="white"/>
<path fill-rule="evenodd" clip-rule="evenodd" d="M22.9071 20.6752L22.8374 20.6055L26.8929 15.2988L26.9563 15.3622" fill="white"/>
<path fill-rule="evenodd" clip-rule="evenodd" d="M22.8564 20.6308L22.7867 20.5611L26.8422 15.2544L26.9119 15.3241" fill="white"/>
<path fill-rule="evenodd" clip-rule="evenodd" d="M22.8121 20.5864L22.7424 20.5167L26.7979 15.21L26.8676 15.2797" fill="white"/>
<path fill-rule="evenodd" clip-rule="evenodd" d="M22.7677 20.5421L22.698 20.4787L26.7535 15.1656L26.8232 15.2354" fill="white"/>
<path fill-rule="evenodd" clip-rule="evenodd" d="M22.7234 20.4977L22.6537 20.4343L26.7092 15.1276L26.7725 15.191" fill="white"/>
<path fill-rule="evenodd" clip-rule="evenodd" d="M22.6727 20.4533L22.6093 20.3899L26.6585 15.0832L26.7282 15.1466" fill="white"/>
<path fill-rule="evenodd" clip-rule="evenodd" d="M22.6283 20.4089L22.5586 20.3455L26.6141 15.0388L26.6838 15.1022" fill="white"/>
<path fill-rule="evenodd" clip-rule="evenodd" d="M22.584 20.3645L22.5143 20.3011L26.5697 14.9944L26.6394 15.0578" fill="white"/>
<path fill-rule="evenodd" clip-rule="evenodd" d="M22.5396 20.3265L22.4699 20.2567L26.5254 14.95L26.5888 15.0134" fill="white"/>
<path fill-rule="evenodd" clip-rule="evenodd" d="M22.4889 20.2821L22.4255 20.2124L26.4747 14.9057L26.5444 14.9754" fill="white"/>
<path fill-rule="evenodd" clip-rule="evenodd" d="M22.4446 20.2377L22.3749 20.168L26.4303 14.8613L26.5 14.931" fill="white"/>
<path fill-rule="evenodd" clip-rule="evenodd" d="M22.4002 20.1934L22.3305 20.13L26.386 14.8169L26.4557 14.8867" fill="white"/>
<path fill-rule="evenodd" clip-rule="evenodd" d="M22.3558 20.149L22.2861 20.0856L26.3416 14.7789L26.4113 14.8423" fill="white"/>
<path fill-rule="evenodd" clip-rule="evenodd" d="M22.3115 20.1046L22.2418 20.0412L26.2909 14.7345L26.3606 14.7979" fill="white"/>
<path fill-rule="evenodd" clip-rule="evenodd" d="M22.2608 20.0602L22.1911 19.9968L26.2466 14.6901L26.3163 14.7535" fill="white"/>
<path fill-rule="evenodd" clip-rule="evenodd" d="M22.2164 20.0158L22.1467 19.9524L26.2022 14.6457L26.2719 14.7091" fill="white"/>
<path fill-rule="evenodd" clip-rule="evenodd" d="M22.1721 19.9778L22.1024 19.908L26.1579 14.6013L26.2276 14.6647" fill="white"/>
<path fill-rule="evenodd" clip-rule="evenodd" d="M22.1277 19.9334L22.058 19.8637L26.1072 14.557L26.1769 14.6267" fill="white"/>
<path fill-rule="evenodd" clip-rule="evenodd" d="M22.077 19.889L22.0073 19.8193L26.0628 14.5126L26.1325 14.5823" fill="white"/>
<path fill-rule="evenodd" clip-rule="evenodd" d="M22.0327 19.8446L21.963 19.7812L26.0184 14.4682L26.0882 14.5379" fill="white"/>
<path fill-rule="evenodd" clip-rule="evenodd" d="M21.9883 19.8003L21.9186 19.7369L25.9741 14.4302L26.0438 14.4936" fill="white"/>
<path fill-rule="evenodd" clip-rule="evenodd" d="M21.944 19.7559L21.8743 19.6925L25.9297 14.3858L25.9931 14.4492" fill="white"/>
<path fill-rule="evenodd" clip-rule="evenodd" d="M21.8933 19.7115L21.8236 19.6481L25.879 14.3414L25.9487 14.4048" fill="white"/>
<path fill-rule="evenodd" clip-rule="evenodd" d="M21.8489 19.6671L21.7792 19.6037L25.8347 14.297L25.9044 14.3604" fill="white"/>
<path fill-rule="evenodd" clip-rule="evenodd" d="M21.8046 19.6291L21.7348 19.5593L25.7903 14.2526L25.86 14.316" fill="white"/>
<path fill-rule="evenodd" clip-rule="evenodd" d="M21.7602 19.5847L21.6905 19.5149L25.746 14.2083L25.8093 14.278" fill="white"/>
<path fill-rule="evenodd" clip-rule="evenodd" d="M21.7095 19.5403L21.6398 19.4769L25.6953 14.1639L25.765 14.2336" fill="white"/>
<path fill-rule="evenodd" clip-rule="evenodd" d="M21.6651 19.4959L21.5954 19.4325L25.6509 14.1258L25.7206 14.1892" fill="white"/>
<path fill-rule="evenodd" clip-rule="evenodd" d="M21.6208 19.4515L21.5511 19.3881L25.6066 14.0815L25.6763 14.1449" fill="white"/>
<path fill-rule="evenodd" clip-rule="evenodd" d="M21.5764 19.4072L21.5067 19.3438L25.5622 14.0371L25.6319 14.1005" fill="white"/>
<path fill-rule="evenodd" clip-rule="evenodd" d="M21.5257 19.3628L21.4624 19.2994L25.5115 13.9927L25.5812 14.0561" fill="white"/>
<path fill-rule="evenodd" clip-rule="evenodd" d="M21.4814 19.3184L21.4117 19.255L25.4672 13.9483L25.5369 14.0117" fill="white"/>
<path fill-rule="evenodd" clip-rule="evenodd" d="M21.437 19.2804L21.3673 19.2106L25.4228 13.9039L25.4925 13.9673" fill="white"/>
<path fill-rule="evenodd" clip-rule="evenodd" d="M21.3927 19.236L21.323 19.1663L25.3784 13.8596L25.4482 13.9293" fill="white"/>
<path fill-rule="evenodd" clip-rule="evenodd" d="M21.342 19.1916L21.2786 19.1282L25.3278 13.8152L25.3975 13.8849" fill="white"/>
<path fill-rule="evenodd" clip-rule="evenodd" d="M21.2976 19.1472L21.2279 19.0838L25.2834 13.7771L25.3531 13.8405" fill="white"/>
<path fill-rule="evenodd" clip-rule="evenodd" d="M21.2533 19.1029L21.1836 19.0395L25.239 13.7328L25.3087 13.7962" fill="white"/>
<path fill-rule="evenodd" clip-rule="evenodd" d="M21.2089 19.0585L21.1392 18.995L25.1947 13.6884L25.2644 13.7518" fill="white"/>
<path fill-rule="evenodd" clip-rule="evenodd" d="M21.1645 19.0141L21.0948 18.9507L25.144 13.644L25.2137 13.7074" fill="white"/>
<path fill-rule="evenodd" clip-rule="evenodd" d="M21.1138 18.976L21.0441 18.9063L25.0996 13.5996L25.1693 13.663" fill="white"/>
<path fill-rule="evenodd" clip-rule="evenodd" d="M21.0695 18.9317L20.9998 18.8619L25.0553 13.5552L25.125 13.625" fill="white"/>
<path fill-rule="evenodd" clip-rule="evenodd" d="M21.0251 18.8873L20.9554 18.8175L25.0109 13.5108L25.0806 13.5806" fill="white"/>
<path fill-rule="evenodd" clip-rule="evenodd" d="M20.9808 18.8429L20.9111 18.7795L24.9666 13.4665L25.0299 13.5362" fill="white"/>
<path fill-rule="evenodd" clip-rule="evenodd" d="M20.9301 18.7985L20.8604 18.7351L24.9159 13.4284L24.9856 13.4918" fill="white"/>
<path fill-rule="evenodd" clip-rule="evenodd" d="M20.8857 18.7541L20.816 18.6907L24.8715 13.384L24.9412 13.4474" fill="white"/>
<path fill-rule="evenodd" clip-rule="evenodd" d="M20.8414 18.7098L20.7717 18.6464L24.8271 13.3397L24.8969 13.4031" fill="white"/>
<path fill-rule="evenodd" clip-rule="evenodd" d="M20.797 18.6654L20.7273 18.602L24.7828 13.2953L24.8462 13.3587" fill="white"/>
<path fill-rule="evenodd" clip-rule="evenodd" d="M20.7463 18.6273L20.6766 18.5576L24.7321 13.2509L24.8018 13.3143" fill="white"/>
<path fill-rule="evenodd" clip-rule="evenodd" d="M20.702 18.5829L20.6323 18.5132L24.6877 13.2065L24.7574 13.2763" fill="white"/>
<path fill-rule="evenodd" clip-rule="evenodd" d="M20.6576 18.5386L20.5879 18.4688L24.6434 13.1621L24.7131 13.2319" fill="white"/>
<path fill-rule="evenodd" clip-rule="evenodd" d="M20.6133 18.4942L20.5435 18.4308L24.599 13.1178L24.6624 13.1875" fill="white"/>
<path fill-rule="evenodd" clip-rule="evenodd" d="M20.5626 18.4498L20.4992 18.3864L24.5483 13.0797L24.618 13.1431" fill="white"/>
<path fill-rule="evenodd" clip-rule="evenodd" d="M20.5182 18.4054L20.4485 18.342L24.504 13.0353L24.5737 13.0987" fill="white"/>
<path fill-rule="evenodd" clip-rule="evenodd" d="M20.4738 18.3611L20.4041 18.2977L24.4596 12.991L24.5293 13.0544" fill="white"/>
<path fill-rule="evenodd" clip-rule="evenodd" d="M20.4295 18.3167L20.3598 18.2533L24.4153 12.9466L24.485 13.01" fill="white"/>
<path fill-rule="evenodd" clip-rule="evenodd" d="M20.3788 18.2786L20.3154 18.2089L24.3646 12.9022L24.4343 12.9656" fill="white"/>
<path fill-rule="evenodd" clip-rule="evenodd" d="M20.3344 18.2343L20.2647 18.1645L24.3202 12.8578L24.3899 12.9276" fill="white"/>
<path fill-rule="evenodd" clip-rule="evenodd" d="M20.2901 18.1899L20.2204 18.1201L24.2759 12.8134L24.3456 12.8832" fill="white"/>
<path fill-rule="evenodd" clip-rule="evenodd" d="M20.2457 18.1455L20.176 18.0821L24.2315 12.769L24.3012 12.8388" fill="white"/>
<path fill-rule="evenodd" clip-rule="evenodd" d="M20.2014 18.1011L20.1317 18.0377L24.1808 12.731L24.2505 12.7944" fill="white"/>
<path fill-rule="evenodd" clip-rule="evenodd" d="M20.1507 18.0567L20.081 17.9933L24.1365 12.6866L24.2062 12.75" fill="white"/>
<path fill-rule="evenodd" clip-rule="evenodd" d="M20.1063 18.0123L20.0366 17.9489L24.0921 12.6422L24.1618 12.7056" fill="white"/>
<path fill-rule="evenodd" clip-rule="evenodd" d="M20.062 17.968L19.9923 17.9046L24.0477 12.5979L24.1174 12.6613" fill="white"/>
<path fill-rule="evenodd" clip-rule="evenodd" d="M20.0176 17.9299L19.9479 17.8602L24.0034 12.5535L24.0667 12.6169" fill="white"/>
<path fill-rule="evenodd" clip-rule="evenodd" d="M19.9669 17.8855L19.8972 17.8158L23.9527 12.5091L24.0224 12.5788" fill="white"/>
<path fill-rule="evenodd" clip-rule="evenodd" d="M19.9226 17.8412L19.8529 17.7714L23.9083 12.4647L23.978 12.5345" fill="white"/>
<path fill-rule="evenodd" clip-rule="evenodd" d="M19.8782 17.7968L19.8085 17.7334L23.864 12.4267L23.9337 12.4901" fill="white"/>
<path fill-rule="evenodd" clip-rule="evenodd" d="M19.8338 17.7524L19.7641 17.689L23.8196 12.3823L23.883 12.4457" fill="white"/>
<path fill-rule="evenodd" clip-rule="evenodd" d="M19.7831 17.708L19.7198 17.6446L23.7689 12.3379L23.8386 12.4013" fill="white"/>
<path fill-rule="evenodd" clip-rule="evenodd" d="M19.7388 17.6636L19.6691 17.6002L23.7246 12.2935L23.7943 12.357" fill="white"/>
<path fill-rule="evenodd" clip-rule="evenodd" d="M19.6944 17.6192L19.6247 17.5558L23.6802 12.2491L23.7499 12.3125" fill="white"/>
<path fill-rule="evenodd" clip-rule="evenodd" d="M19.6501 17.5812L19.5804 17.5115L23.6359 12.2048L23.6992 12.2682" fill="white"/>
<path fill-rule="evenodd" clip-rule="evenodd" d="M19.5994 17.5368L19.536 17.4671L23.5852 12.1604L23.6549 12.2301" fill="white"/>
<path fill-rule="evenodd" clip-rule="evenodd" d="M19.555 17.4925L19.4853 17.4291L23.5408 12.116L23.6105 12.1858" fill="white"/>
<path fill-rule="evenodd" clip-rule="evenodd" d="M19.5107 17.4481L19.441 17.3847L23.4964 12.078L23.5661 12.1414" fill="white"/>
<path fill-rule="evenodd" clip-rule="evenodd" d="M19.4663 17.4037L19.3966 17.3403L23.4521 12.0336L23.5218 12.097" fill="white"/>
<path fill-rule="evenodd" clip-rule="evenodd" d="M19.4156 17.3593L19.3522 17.2959L23.4014 11.9892L23.4711 12.0526" fill="white"/>
<path fill-rule="evenodd" clip-rule="evenodd" d="M19.3713 17.3149L19.3016 17.2515L23.357 11.9448L23.4267 12.0082" fill="white"/>
<path fill-rule="evenodd" clip-rule="evenodd" d="M19.3269 17.2705L19.2572 17.2071L23.3127 11.9005L23.3824 11.9639" fill="white"/>
<path fill-rule="evenodd" clip-rule="evenodd" d="M19.2825 17.2325L19.2128 17.1628L23.2683 11.8561L23.3317 11.9258" fill="white"/>
<path fill-rule="evenodd" clip-rule="evenodd" d="M19.2319 17.1881L19.1685 17.1184L23.2176 11.8117L23.2873 11.8814" fill="white"/>
<path fill-rule="evenodd" clip-rule="evenodd" d="M19.1875 17.1437L19.1178 17.0803L23.1733 11.7673L23.243 11.837" fill="white"/>
<path fill-rule="evenodd" clip-rule="evenodd" d="M19.1431 17.0994L19.0734 17.036L23.1289 11.7293L23.1986 11.7927" fill="white"/>
<path fill-rule="evenodd" clip-rule="evenodd" d="M19.0988 17.055L19.0291 16.9916L23.0846 11.6849L23.1543 11.7483" fill="white"/>
<path fill-rule="evenodd" clip-rule="evenodd" d="M19.0544 17.0106L18.9847 16.9472L23.0339 11.6405L23.1036 11.7039" fill="white"/>
<path fill-rule="evenodd" clip-rule="evenodd" d="M19.0037 16.9662L18.934 16.9028L22.9895 11.5961L23.0592 11.6595" fill="white"/>
<path fill-rule="evenodd" clip-rule="evenodd" d="M18.9594 16.9282L18.8897 16.8584L22.9452 11.5517L23.0149 11.6151" fill="white"/>
<path fill-rule="evenodd" clip-rule="evenodd" d="M18.915 16.8838L18.8453 16.8141L22.9008 11.5074L22.9705 11.5771" fill="white"/>
<path fill-rule="evenodd" clip-rule="evenodd" d="M18.8707 16.8394L18.801 16.7697L22.8564 11.463L22.9198 11.5327" fill="white"/>
<path fill-rule="evenodd" clip-rule="evenodd" d="M18.82 16.795L18.7503 16.7316L22.8057 11.4186L22.8755 11.4884" fill="white"/>
<path fill-rule="evenodd" clip-rule="evenodd" d="M18.7756 16.7507L18.7059 16.6872L22.7614 11.3806L22.8311 11.444" fill="white"/>
<path fill-rule="evenodd" clip-rule="evenodd" d="M18.7313 16.7063L18.6616 16.6429L22.717 11.3362L22.7867 11.3996" fill="white"/>
<path fill-rule="evenodd" clip-rule="evenodd" d="M18.6869 16.6619L18.6172 16.5985L22.6727 11.2918L22.736 11.3552" fill="white"/>
<path fill-rule="evenodd" clip-rule="evenodd" d="M18.6362 16.6175L18.5728 16.5541L22.622 11.2474L22.6917 11.3108" fill="white"/>
<path fill-rule="evenodd" clip-rule="evenodd" d="M18.5919 16.5795L18.5221 16.5097L22.5776 11.203L22.6473 11.2664" fill="white"/>
<path fill-rule="evenodd" clip-rule="evenodd" d="M18.5475 16.5351L18.4778 16.4654L22.5333 11.1587L22.603 11.2284" fill="white"/>
<path fill-rule="evenodd" clip-rule="evenodd" d="M18.5031 16.4907L18.4334 16.421L22.4889 11.1143L22.5523 11.184" fill="white"/>
<path fill-rule="evenodd" clip-rule="evenodd" d="M18.4524 16.4463L18.3891 16.3829L22.4382 11.0699L22.5079 11.1396" fill="white"/>
<path fill-rule="evenodd" clip-rule="evenodd" d="M18.4081 16.402L18.3384 16.3386L22.3939 11.0319L22.4636 11.0953" fill="white"/>
<path fill-rule="evenodd" clip-rule="evenodd" d="M18.3637 16.3576L18.294 16.2942L22.3495 10.9875L22.4192 11.0509" fill="white"/>
<path fill-rule="evenodd" clip-rule="evenodd" d="M18.3194 16.3132L18.2497 16.2498L22.3051 10.9431L22.3749 11.0065" fill="white"/>
<path fill-rule="evenodd" clip-rule="evenodd" d="M18.275 16.2688L18.2053 16.2054L22.2545 10.8987L22.3242 10.9621" fill="white"/>
<path fill-rule="evenodd" clip-rule="evenodd" d="M18.2243 16.2308L18.1546 16.161L22.2101 10.8543L22.2798 10.9177" fill="white"/>
<path fill-rule="evenodd" clip-rule="evenodd" d="M18.18 16.1864L18.1103 16.1166L22.1657 10.8099L22.2354 10.8797" fill="white"/>
<path fill-rule="evenodd" clip-rule="evenodd" d="M18.1356 16.142L18.0659 16.0723L22.1214 10.7656L22.1911 10.8353" fill="white"/>
<path fill-rule="evenodd" clip-rule="evenodd" d="M18.0912 16.0976L18.0215 16.0342L22.0707 10.7275L22.1404 10.7909" fill="white"/>
<path fill-rule="evenodd" clip-rule="evenodd" d="M18.0406 16.0532L17.9709 15.9898L22.0263 10.6831L22.096 10.7465" fill="white"/>
<path fill-rule="evenodd" clip-rule="evenodd" d="M17.9962 16.0089L17.9265 15.9455L21.982 10.6388L22.0517 10.7022" fill="white"/>
<path fill-rule="evenodd" clip-rule="evenodd" d="M17.9518 15.9645L17.8821 15.9011L21.9376 10.5944L22.0073 10.6578" fill="white"/>
<path fill-rule="evenodd" clip-rule="evenodd" d="M17.9075 15.9201L17.8378 15.8567L21.8933 10.55L21.9566 10.6134" fill="white"/>
<path fill-rule="evenodd" clip-rule="evenodd" d="M17.8568 15.8821L17.7871 15.8123L21.8426 10.5056L21.9123 10.569" fill="white"/>
<path fill-rule="evenodd" clip-rule="evenodd" d="M17.8124 15.8377L17.7427 15.7679L21.7982 10.4612L21.8679 10.531" fill="white"/>
<path fill-rule="evenodd" clip-rule="evenodd" d="M17.7681 15.7933L17.6984 15.7236L21.7539 10.4169L21.8236 10.4866" fill="white"/>
<path fill-rule="evenodd" clip-rule="evenodd" d="M17.7237 15.7489L17.654 15.6855L21.7095 10.3788L21.7729 10.4422" fill="white"/>
<path fill-rule="evenodd" clip-rule="evenodd" d="M17.673 15.7045L17.6097 15.6411L21.6588 10.3344L21.7285 10.3978" fill="white"/>
<path fill-rule="evenodd" clip-rule="evenodd" d="M17.6287 15.6601L17.559 15.5967L21.6144 10.29L21.6842 10.3534" fill="white"/>
<path fill-rule="evenodd" clip-rule="evenodd" d="M17.5843 15.6158L17.5146 15.5524L21.5701 10.2457L21.6398 10.3091" fill="white"/>
<path fill-rule="evenodd" clip-rule="evenodd" d="M17.54 15.5714L17.4703 15.508L21.5257 10.2013L21.5954 10.2647" fill="white"/>
<path fill-rule="evenodd" clip-rule="evenodd" d="M17.4893 15.5334L17.4259 15.4636L21.475 10.1569L21.5447 10.2203" fill="white"/>
<path fill-rule="evenodd" clip-rule="evenodd" d="M17.4449 15.489L17.3752 15.4192L21.4307 10.1125L21.5004 10.1823" fill="white"/>
<path fill-rule="evenodd" clip-rule="evenodd" d="M17.4006 15.4446L17.3308 15.3812L21.3863 10.0681L21.456 10.1379" fill="white"/>
<path fill-rule="evenodd" clip-rule="evenodd" d="M17.3562 15.4002L17.2865 15.3368L21.342 10.0301L21.4117 10.0935" fill="white"/>
<path fill-rule="evenodd" clip-rule="evenodd" d="M17.3118 15.3558L17.2421 15.2924L21.2913 9.98572L21.361 10.0491" fill="white"/>
<path fill-rule="evenodd" clip-rule="evenodd" d="M17.2611 15.3114L17.1914 15.248L21.2469 9.94135L21.3166 10.0047" fill="white"/>
<path fill-rule="evenodd" clip-rule="evenodd" d="M17.2168 15.2671L17.1471 15.2037L21.2026 9.89697L21.2723 9.96037" fill="white"/>
<path fill-rule="evenodd" clip-rule="evenodd" d="M17.1724 15.2227L17.1027 15.1593L21.1582 9.85257L21.2279 9.91597" fill="white"/>
<path fill-rule="evenodd" clip-rule="evenodd" d="M17.1281 15.1846L17.0584 15.1149L21.1075 9.8082L21.1772 9.87794" fill="white"/>
<path fill-rule="evenodd" clip-rule="evenodd" d="M17.0774 15.1403L17.0077 15.0705L21.0632 9.76382L21.1329 9.83357" fill="white"/>
<path fill-rule="evenodd" clip-rule="evenodd" d="M17.033 15.0959L16.9633 15.0325L21.0188 9.71945L21.0885 9.78919" fill="white"/>
<path fill-rule="evenodd" clip-rule="evenodd" d="M16.9887 15.0515L16.919 14.9881L20.9744 9.6814L21.0441 9.7448" fill="white"/>
<path fill-rule="evenodd" clip-rule="evenodd" d="M16.9443 15.0071L16.8746 14.9437L20.9301 9.63702L20.9935 9.70043" fill="white"/>
<path fill-rule="evenodd" clip-rule="evenodd" d="M16.8936 14.9627L16.8239 14.8993L20.8794 9.59265L20.9491 9.65605" fill="white"/>
<path fill-rule="evenodd" clip-rule="evenodd" d="M16.8493 14.9183L16.7796 14.8549L20.835 9.54825L20.9047 9.61165" fill="white"/>
<path fill-rule="evenodd" clip-rule="evenodd" d="M16.8049 14.8803L16.7352 14.8106L20.7907 9.50388L20.8604 9.56728" fill="white"/>
<path fill-rule="evenodd" clip-rule="evenodd" d="M16.7605 14.8359L16.6908 14.7662L20.7463 9.4595L20.8097 9.52924" fill="white"/>
<path fill-rule="evenodd" clip-rule="evenodd" d="M16.7099 14.7915L16.6402 14.7218L20.6956 9.4151L20.7653 9.48484" fill="white"/>
<path fill-rule="evenodd" clip-rule="evenodd" d="M16.6655 14.7472L16.5958 14.6838L20.6513 9.37073L20.721 9.44047" fill="white"/>
<path fill-rule="evenodd" clip-rule="evenodd" d="M16.6211 14.7028L16.5514 14.6394L20.6069 9.3327L20.6766 9.3961" fill="white"/>
<path fill-rule="evenodd" clip-rule="evenodd" d="M16.5768 14.6584L16.5071 14.595L20.5626 9.2883L20.6259 9.3517" fill="white"/>
<path fill-rule="evenodd" clip-rule="evenodd" d="M16.5261 14.614L16.4627 14.5506L20.5119 9.24393L20.5816 9.30733" fill="white"/>
<path fill-rule="evenodd" clip-rule="evenodd" d="M16.4817 14.5697L16.412 14.5062L20.4675 9.19955L20.5372 9.26296" fill="white"/>
<path fill-rule="evenodd" clip-rule="evenodd" d="M16.4374 14.5316L16.3677 14.4619L20.4231 9.15518L20.4929 9.21858" fill="white"/>
<path fill-rule="evenodd" clip-rule="evenodd" d="M16.393 14.4872L16.3233 14.4175L20.3788 9.11078L20.4485 9.18052" fill="white"/>
<path fill-rule="evenodd" clip-rule="evenodd" d="M16.3423 14.4428L16.279 14.3731L20.3281 9.06641L20.3978 9.13615" fill="white"/>
<path fill-rule="evenodd" clip-rule="evenodd" d="M16.298 14.3985L16.2283 14.3351L20.2837 9.02203L20.3534 9.09178" fill="white"/>
<path fill-rule="evenodd" clip-rule="evenodd" d="M16.2536 14.3541L16.1839 14.2907L20.2394 8.98398L20.3091 9.04738" fill="white"/>
<path fill-rule="evenodd" clip-rule="evenodd" d="M16.2093 14.3097L16.1395 14.2463L20.195 8.93961L20.2647 9.00301" fill="white"/>
<path fill-rule="evenodd" clip-rule="evenodd" d="M16.1649 14.2653L16.0952 14.2019L20.1443 8.89523L20.214 8.95863" fill="white"/>
<path fill-rule="evenodd" clip-rule="evenodd" d="M16.1142 14.2209L16.0445 14.1575L20.1 8.85083L20.1697 8.91423" fill="white"/>
<path fill-rule="evenodd" clip-rule="evenodd" d="M16.0698 14.1829L16.0001 14.1132L20.0556 8.80646L20.1253 8.86986" fill="white"/>
<path fill-rule="evenodd" clip-rule="evenodd" d="M16.0255 14.1385L15.9558 14.0688L20.0113 8.76208L20.081 8.83183" fill="white"/>
<path fill-rule="evenodd" clip-rule="evenodd" d="M15.9811 14.0941L15.9114 14.0244L19.9606 8.71771L20.0303 8.78745" fill="white"/>
<path fill-rule="evenodd" clip-rule="evenodd" d="M15.9304 14.0498L15.8607 13.9864L19.9162 8.67966L19.9859 8.74306" fill="white"/>
<path fill-rule="evenodd" clip-rule="evenodd" d="M15.8861 14.0054L15.8164 13.942L19.8719 8.63528L19.9416 8.69869" fill="white"/>
<path fill-rule="evenodd" clip-rule="evenodd" d="M15.8417 13.961L15.772 13.8976L19.8275 8.59088L19.8972 8.65428" fill="white"/>
<path fill-rule="evenodd" clip-rule="evenodd" d="M15.7974 13.9166L15.7277 13.8532L19.7831 8.54651L19.8465 8.60991" fill="white"/>
<path fill-rule="evenodd" clip-rule="evenodd" d="M15.7467 13.8722L15.6833 13.8088L19.7325 8.50214L19.8022 8.56554" fill="white"/>
<path fill-rule="evenodd" clip-rule="evenodd" d="M15.7023 13.8342L15.6326 13.7645L19.6881 8.45776L19.7578 8.52116" fill="white"/>
<path fill-rule="evenodd" clip-rule="evenodd" d="M15.658 13.7898L15.5883 13.7201L19.6437 8.41336L19.7134 8.4831" fill="white"/>
<path fill-rule="evenodd" clip-rule="evenodd" d="M15.6136 13.7454L15.5439 13.6757L19.5994 8.36899L19.6627 8.43873" fill="white"/>
<path fill-rule="evenodd" clip-rule="evenodd" d="M15.5629 13.7011L15.4995 13.6377L19.5487 8.33096L19.6184 8.39436" fill="white"/>
<path fill-rule="evenodd" clip-rule="evenodd" d="M15.5186 13.6567L15.4489 13.5933L19.5043 8.28656L19.574 8.34996" fill="white"/>
<path fill-rule="evenodd" clip-rule="evenodd" d="M15.4742 13.6123L15.4045 13.5489L19.46 8.24219L19.5297 8.30559" fill="white"/>
<path fill-rule="evenodd" clip-rule="evenodd" d="M15.4298 13.5679L15.3601 13.5045L19.4156 8.19781L19.4853 8.26122" fill="white"/>
<path fill-rule="evenodd" clip-rule="evenodd" d="M15.3791 13.5235L15.3158 13.4601L19.3649 8.15341L19.4346 8.21681" fill="white"/>
<path fill-rule="evenodd" clip-rule="evenodd" d="M15.3348 13.4855L15.2651 13.4157L19.3206 8.10904L19.3903 8.17878" fill="white"/>
<path fill-rule="evenodd" clip-rule="evenodd" d="M15.2904 13.4411L15.2207 13.3714L19.2762 8.06467L19.3459 8.13441" fill="white"/>
<path fill-rule="evenodd" clip-rule="evenodd" d="M15.2461 13.3967L15.1764 13.3333L19.2319 8.02029L19.2952 8.09004" fill="white"/>
<path fill-rule="evenodd" clip-rule="evenodd" d="M15.2017 13.3523L15.132 13.2889L19.1812 7.98224L19.2509 8.04564" fill="white"/>
<path fill-rule="evenodd" clip-rule="evenodd" d="M15.151 13.308L15.0813 13.2446L19.1368 7.93787L19.2065 8.00127" fill="white"/>
<path fill-rule="evenodd" clip-rule="evenodd" d="M15.1067 13.2636L15.037 13.2002L19.0924 7.89349L19.1621 7.9569" fill="white"/>
<path fill-rule="evenodd" clip-rule="evenodd" d="M15.0623 13.2192L14.9926 13.1558L19.0481 7.84909L19.1178 7.91249" fill="white"/>
<path fill-rule="evenodd" clip-rule="evenodd" d="M15.018 13.1748L14.9482 13.1114L19.0037 7.80472L19.0671 7.86812" fill="white"/>
<path fill-rule="evenodd" clip-rule="evenodd" d="M14.9673 13.1368L14.8976 13.067L18.953 7.76035L19.0227 7.83009" fill="white"/>
<path fill-rule="evenodd" clip-rule="evenodd" d="M14.9229 13.0924L14.8532 13.0226L18.9087 7.71594L18.9784 7.78568" fill="white"/>
<path fill-rule="evenodd" clip-rule="evenodd" d="M14.8785 13.048L14.8088 12.9846L18.8643 7.67157L18.934 7.74131" fill="white"/>
<path fill-rule="evenodd" clip-rule="evenodd" d="M14.8342 13.0036L14.7645 12.9402L18.82 7.63354L18.8833 7.69695" fill="white"/>
<path fill-rule="evenodd" clip-rule="evenodd" d="M14.7835 12.9592L14.7138 12.8958L18.7693 7.58914L18.839 7.65254" fill="white"/>
<path fill-rule="evenodd" clip-rule="evenodd" d="M14.7391 12.9149L14.6694 12.8515L18.7249 7.54477L18.7946 7.60817" fill="white"/>
<path fill-rule="evenodd" clip-rule="evenodd" d="M14.6948 12.8705L14.6251 12.8071L18.6806 7.5004L18.7503 7.5638" fill="white"/>
<path fill-rule="evenodd" clip-rule="evenodd" d="M14.6504 12.8325L14.5807 12.7627L18.6362 7.45602L18.6996 7.51943" fill="white"/>
<path fill-rule="evenodd" clip-rule="evenodd" d="M14.5997 12.7881L14.5364 12.7183L18.5855 7.41162L18.6552 7.48136" fill="white"/>
<path fill-rule="evenodd" clip-rule="evenodd" d="M14.5554 12.7437L14.4857 12.6739L18.5412 7.36725L18.6109 7.43699" fill="white"/>
<path fill-rule="evenodd" clip-rule="evenodd" d="M14.511 12.6993L14.4413 12.6359L18.4968 7.32288L18.5665 7.39262" fill="white"/>
<path fill-rule="evenodd" clip-rule="evenodd" d="M14.4667 12.6549L14.397 12.5915L18.4524 7.28482L18.5221 7.34822" fill="white"/>
<path fill-rule="evenodd" clip-rule="evenodd" d="M14.416 12.6105L14.3526 12.5471L18.4017 7.24045L18.4714 7.30385" fill="white"/>
<path fill-rule="evenodd" clip-rule="evenodd" d="M14.3716 12.5662L14.3019 12.5028L18.3574 7.19608L18.4271 7.25948" fill="white"/>
<path fill-rule="evenodd" clip-rule="evenodd" d="M14.3273 12.5218L14.2576 12.4584L18.313 7.15167L18.3827 7.21507" fill="white"/>
<path fill-rule="evenodd" clip-rule="evenodd" d="M14.2829 12.4837L14.2132 12.414L18.2687 7.1073L18.3384 7.1707" fill="white"/>
<path fill-rule="evenodd" clip-rule="evenodd" d="M14.2385 12.4394L14.1688 12.3696L18.218 7.06293L18.2877 7.13267" fill="white"/>
<path fill-rule="evenodd" clip-rule="evenodd" d="M14.1879 12.395L14.1181 12.3253L18.1736 7.01855L18.2433 7.0883" fill="white"/>
<path fill-rule="evenodd" clip-rule="evenodd" d="M14.1435 12.3506L14.0738 12.2872L18.1293 6.9805L18.199 7.0439" fill="white"/>
<path fill-rule="evenodd" clip-rule="evenodd" d="M14.0991 12.3062L14.0294 12.2428L18.0849 6.93613L18.1546 6.99953" fill="white"/>
<path fill-rule="evenodd" clip-rule="evenodd" d="M14.0548 12.2619L13.9851 12.1984L18.0342 6.89175L18.1039 6.95516" fill="white"/>
<path fill-rule="evenodd" clip-rule="evenodd" d="M14.0041 12.2174L13.9344 12.154L17.9899 6.84735L18.0596 6.91075" fill="white"/>
<path fill-rule="evenodd" clip-rule="evenodd" d="M13.9597 12.1731L13.89 12.1097L17.9455 6.80298L18.0152 6.86638" fill="white"/>
<path fill-rule="evenodd" clip-rule="evenodd" d="M13.9154 12.135L13.8457 12.0653L17.9012 6.75861L17.9709 6.82201" fill="white"/>
<path fill-rule="evenodd" clip-rule="evenodd" d="M13.871 12.0906L13.8013 12.0209L17.8568 6.7142L17.9202 6.78394" fill="white"/>
<path fill-rule="evenodd" clip-rule="evenodd" d="M13.8203 12.0463L13.7506 11.9765L17.8061 6.66983L17.8758 6.73957" fill="white"/>
<path fill-rule="evenodd" clip-rule="evenodd" d="M13.776 12.0019L13.7063 11.9385L17.7617 6.63181L17.8314 6.69521" fill="white"/>
<path fill-rule="evenodd" clip-rule="evenodd" d="M13.7316 11.9575L13.6619 11.8941L17.7174 6.5874L17.7871 6.6508" fill="white"/>
<path fill-rule="evenodd" clip-rule="evenodd" d="M13.6873 11.9131L13.6175 11.8497L17.673 6.54303L17.7364 6.60643" fill="white"/>
<path fill-rule="evenodd" clip-rule="evenodd" d="M13.6366 11.8688L13.5732 11.8054L17.6223 6.49866L17.692 6.56206" fill="white"/>
<path fill-rule="evenodd" clip-rule="evenodd" d="M13.5922 11.8244L13.5225 11.761L17.578 6.45428L17.6477 6.51769" fill="white"/>
<path fill-rule="evenodd" clip-rule="evenodd" d="M13.5478 11.7863L13.4781 11.7166L17.5336 6.40988L17.6033 6.47962" fill="white"/>
<path fill-rule="evenodd" clip-rule="evenodd" d="M13.5035 11.7419L13.4338 11.6722L17.4893 6.36551L17.5526 6.43525" fill="white"/>
<path fill-rule="evenodd" clip-rule="evenodd" d="M13.4528 11.6976L13.3894 11.6342L17.4386 6.32114L17.5083 6.39088" fill="white"/>
<path fill-rule="evenodd" clip-rule="evenodd" d="M13.4084 11.6532L13.3387 11.5898L17.3942 6.28308L17.4639 6.34648" fill="white"/>
<path fill-rule="evenodd" clip-rule="evenodd" d="M13.3641 11.6088L13.2944 11.5454L17.3499 6.23871L17.4196 6.30211" fill="white"/>
<path fill-rule="evenodd" clip-rule="evenodd" d="M13.3197 11.5644L13.25 11.501L17.3055 6.19434L17.3752 6.25774" fill="white"/>
<path fill-rule="evenodd" clip-rule="evenodd" d="M13.2754 11.52L13.2057 11.4566L17.2548 6.14993L17.3245 6.21333" fill="white"/>
<path fill-rule="evenodd" clip-rule="evenodd" d="M13.2247 11.4757L13.155 11.4123L17.2104 6.10556L17.2802 6.16896" fill="white"/>
<path fill-rule="evenodd" clip-rule="evenodd" d="M13.1803 11.4376L13.1106 11.3679L17.1661 6.06119L17.2358 6.13093" fill="white"/>
<path fill-rule="evenodd" clip-rule="evenodd" d="M13.136 11.3933L13.0663 11.3235L17.1217 6.01682L17.1914 6.08656" fill="white"/>
<path fill-rule="evenodd" clip-rule="evenodd" d="M13.0916 11.3488L13.0219 11.2854L17.071 5.97241L17.1407 6.04215" fill="white"/>
<path fill-rule="evenodd" clip-rule="evenodd" d="M13.0409 11.3045L12.9712 11.2411L17.0267 5.93439L17.0964 5.99779" fill="white"/>
<path fill-rule="evenodd" clip-rule="evenodd" d="M12.9966 11.2601L12.9268 11.1967L16.9823 5.88998L17.052 5.95339" fill="white"/>
<path fill-rule="evenodd" clip-rule="evenodd" d="M12.9522 11.2157L12.8825 11.1523L16.938 5.84561L17.0077 5.90901" fill="white"/>
<path fill-rule="evenodd" clip-rule="evenodd" d="M12.9078 11.1713L12.8381 11.1079L16.8936 5.80124L16.957 5.86464" fill="white"/>
<path fill-rule="evenodd" clip-rule="evenodd" d="M12.8571 11.1333L12.7874 11.0636L16.8429 5.75687L16.9126 5.82027" fill="white"/>
<path fill-rule="evenodd" clip-rule="evenodd" d="M12.8128 11.0889L12.7431 11.0192L16.7986 5.71246L16.8683 5.7822" fill="white"/>
<path fill-rule="evenodd" clip-rule="evenodd" d="M12.7684 11.0445L12.6987 10.9748L16.7542 5.66809L16.8239 5.73783" fill="white"/>
<path fill-rule="evenodd" clip-rule="evenodd" d="M12.7241 11.0002L12.6544 10.9368L16.7099 5.62372L16.7732 5.69346" fill="white"/>
<path fill-rule="evenodd" clip-rule="evenodd" d="M12.6734 10.9558L12.61 10.8924L16.6592 5.58566L16.7289 5.64906" fill="white"/>
<path fill-rule="evenodd" clip-rule="evenodd" d="M12.629 10.9114L12.5593 10.848L16.6148 5.54129L16.6845 5.60469" fill="white"/>
<path fill-rule="evenodd" clip-rule="evenodd" d="M12.5847 10.867L12.1284 10.4359L16.1839 5.12918L16.6401 5.56031" fill="white"/>
</g>
<path d="M9.04246 4.14645C9.04246 6.43524 10.785 8.2929 12.9395 8.2929C15.094 8.2929 16.8366 6.43524 16.8366 4.14645C16.8366 1.85766 15.094 0 12.9395 0C10.785 0 9.04246 1.85766 9.04246 4.14645Z" fill="white"/>
<mask id="mask1_2_17" style="mask-type:luminance" maskUnits="userSpaceOnUse" x="9" y="0" width="8" height="9">
<path d="M9.04246 4.14645C9.04246 6.43524 10.785 8.2929 12.9395 8.2929C15.094 8.2929 16.8366 6.43524 16.8366 4.14645C16.8366 1.85766 15.094 0 12.9395 0C10.785 0 9.04246 1.85766 9.04246 4.14645Z" fill="white"/>
</mask>
<g mask="url(#mask1_2_17)">
<path fill-rule="evenodd" clip-rule="evenodd" d="M9.04246 0H9.05513V8.29924H9.04246" fill="white"/>
<path fill-rule="evenodd" clip-rule="evenodd" d="M9.04246 0H9.08681V8.29924H9.04246" fill="white"/>
<path fill-rule="evenodd" clip-rule="evenodd" d="M9.07414 0H9.1185V8.29924H9.07414" fill="white"/>
<path fill-rule="evenodd" clip-rule="evenodd" d="M9.10583 0H9.15018V8.29924H9.10583" fill="white"/>
<path fill-rule="evenodd" clip-rule="evenodd" d="M9.13117 0H9.18187V8.29924H9.13117" fill="white"/>
<path fill-rule="evenodd" clip-rule="evenodd" d="M9.16286 0H9.20721L9.21355 8.29924H9.16286" fill="white"/>
<path fill-rule="evenodd" clip-rule="evenodd" d="M9.19453 0H9.23889V8.29924H9.19453" fill="white"/>
<path fill-rule="evenodd" clip-rule="evenodd" d="M9.22622 0H9.27058V8.29924H9.22622" fill="white"/>
<path fill-rule="evenodd" clip-rule="evenodd" d="M9.2579 0H9.30226V8.29924H9.2579" fill="white"/>
<path fill-rule="evenodd" clip-rule="evenodd" d="M9.28325 0H9.33394V8.29924H9.28959" fill="white"/>
<path fill-rule="evenodd" clip-rule="evenodd" d="M9.31493 0H9.35929L9.36563 8.29924H9.31493" fill="white"/>
<path fill-rule="evenodd" clip-rule="evenodd" d="M9.34662 0H9.39098V8.29924H9.34662" fill="white"/>
<path fill-rule="evenodd" clip-rule="evenodd" d="M9.3783 0H9.42266V8.29924H9.3783" fill="white"/>
<path fill-rule="evenodd" clip-rule="evenodd" d="M9.40999 0H9.45435V8.29924H9.40999" fill="white"/>
<path fill-rule="evenodd" clip-rule="evenodd" d="M9.43533 0H9.48603V8.29924H9.44167" fill="white"/>
<path fill-rule="evenodd" clip-rule="evenodd" d="M9.46702 0H9.51138L9.51771 8.29924H9.46702" fill="white"/>
<path fill-rule="evenodd" clip-rule="evenodd" d="M9.4987 0H9.54305V8.29924H9.4987" fill="white"/>
<path fill-rule="evenodd" clip-rule="evenodd" d="M9.53038 0H9.57474V8.29924H9.53038" fill="white"/>
<path fill-rule="evenodd" clip-rule="evenodd" d="M9.56207 0H9.60642V8.29924H9.56207" fill="white"/>
<path fill-rule="evenodd" clip-rule="evenodd" d="M9.58741 0H9.6381V8.29924H9.59375" fill="white"/>
<path fill-rule="evenodd" clip-rule="evenodd" d="M9.61909 0H9.66345L9.66979 8.29924H9.61909" fill="white"/>
<path fill-rule="evenodd" clip-rule="evenodd" d="M9.65078 0H9.69514V8.29924H9.65078" fill="white"/>
<path fill-rule="evenodd" clip-rule="evenodd" d="M9.68246 0H9.72682V8.29924H9.68246" fill="white"/>
<path fill-rule="evenodd" clip-rule="evenodd" d="M9.71415 0H9.75851V8.29924H9.71415" fill="white"/>
<path fill-rule="evenodd" clip-rule="evenodd" d="M9.73949 0H9.79019V8.29924H9.74583" fill="white"/>
<path fill-rule="evenodd" clip-rule="evenodd" d="M9.77118 0H9.81554L9.82187 8.29924H9.77118" fill="white"/>
<path fill-rule="evenodd" clip-rule="evenodd" d="M9.80286 0H9.84721V8.29924H9.80286" fill="white"/>
<path fill-rule="evenodd" clip-rule="evenodd" d="M9.83454 0H9.8789V8.29924H9.83454" fill="white"/>
<path fill-rule="evenodd" clip-rule="evenodd" d="M9.86623 0H9.91058V8.29924H9.86623" fill="white"/>
<path fill-rule="evenodd" clip-rule="evenodd" d="M9.89157 0H9.94226V8.29924H9.89791" fill="white"/>
<path fill-rule="evenodd" clip-rule="evenodd" d="M9.92326 0H9.96761L9.97395 8.29924H9.92326" fill="white"/>
<path fill-rule="evenodd" clip-rule="evenodd" d="M9.95494 0H9.9993V8.29924H9.95494" fill="white"/>
<path fill-rule="evenodd" clip-rule="evenodd" d="M9.98663 0H10.031V8.29924H9.98663" fill="white"/>
<path fill-rule="evenodd" clip-rule="evenodd" d="M10.0183 0H10.0627V8.29924H10.0183" fill="white"/>
<path fill-rule="evenodd" clip-rule="evenodd" d="M10.05 0H10.0943V8.29924H10.05" fill="white"/>
<path fill-rule="evenodd" clip-rule="evenodd" d="M10.0753 0H10.126V8.29924H10.0753" fill="white"/>
<path fill-rule="evenodd" clip-rule="evenodd" d="M10.107 0H10.1514V8.29924H10.107" fill="white"/>
<path fill-rule="evenodd" clip-rule="evenodd" d="M10.1387 0H10.1831V8.29924H10.1387" fill="white"/>
<path fill-rule="evenodd" clip-rule="evenodd" d="M10.1704 0H10.2147V8.29924H10.1704" fill="white"/>
<path fill-rule="evenodd" clip-rule="evenodd" d="M10.2021 0H10.2464V8.29924H10.2021" fill="white"/>
<path fill-rule="evenodd" clip-rule="evenodd" d="M10.2274 0H10.2781V8.29924H10.2274" fill="white"/>
<path fill-rule="evenodd" clip-rule="evenodd" d="M10.2591 0H10.3035V8.29924H10.2591" fill="white"/>
<path fill-rule="evenodd" clip-rule="evenodd" d="M10.2908 0H10.3351V8.29924H10.2908" fill="white"/>
<path fill-rule="evenodd" clip-rule="evenodd" d="M10.3225 0H10.3668V8.29924H10.3225" fill="white"/>
<path fill-rule="evenodd" clip-rule="evenodd" d="M10.3541 0H10.3985V8.29924H10.3541" fill="white"/>
<path fill-rule="evenodd" clip-rule="evenodd" d="M10.3795 0H10.4302V8.29924H10.3795" fill="white"/>
<path fill-rule="evenodd" clip-rule="evenodd" d="M10.4112 0H10.4555V8.29924H10.4112" fill="white"/>
<path fill-rule="evenodd" clip-rule="evenodd" d="M10.4429 0H10.4872V8.29924H10.4429" fill="white"/>
<path fill-rule="evenodd" clip-rule="evenodd" d="M10.4745 0H10.5189V8.29924H10.4745" fill="white"/>
<path fill-rule="evenodd" clip-rule="evenodd" d="M10.5062 0H10.5506V8.29924H10.5062" fill="white"/>
<path fill-rule="evenodd" clip-rule="evenodd" d="M10.5316 0H10.5823V8.29924H10.5316" fill="white"/>
<path fill-rule="evenodd" clip-rule="evenodd" d="M10.5633 0H10.6076L10.614 8.29924H10.5633" fill="white"/>
<path fill-rule="evenodd" clip-rule="evenodd" d="M10.5949 0H10.6393V8.29924H10.5949" fill="white"/>
<path fill-rule="evenodd" clip-rule="evenodd" d="M10.6266 0H10.671V8.29924H10.6266" fill="white"/>
<path fill-rule="evenodd" clip-rule="evenodd" d="M10.6583 0H10.7027V8.29924H10.6583" fill="white"/>
<path fill-rule="evenodd" clip-rule="evenodd" d="M10.6837 0H10.7344V8.29924H10.69" fill="white"/>
<path fill-rule="evenodd" clip-rule="evenodd" d="M10.7153 0H10.7597L10.766 8.29924H10.7153" fill="white"/>
<path fill-rule="evenodd" clip-rule="evenodd" d="M10.747 0H10.7914V8.29924H10.747" fill="white"/>
<path fill-rule="evenodd" clip-rule="evenodd" d="M10.7787 0H10.8231V8.29924H10.7787" fill="white"/>
<path fill-rule="evenodd" clip-rule="evenodd" d="M10.8104 0H10.8548V8.29924H10.8104" fill="white"/>
<path fill-rule="evenodd" clip-rule="evenodd" d="M10.8357 0H10.8864V8.29924H10.8421" fill="white"/>
<path fill-rule="evenodd" clip-rule="evenodd" d="M10.8674 0H10.9118L10.9181 8.29924H10.8674" fill="white"/>
<path fill-rule="evenodd" clip-rule="evenodd" d="M10.8991 0H10.9435V8.29924H10.8991" fill="white"/>
<path fill-rule="evenodd" clip-rule="evenodd" d="M10.9308 0H10.9752V8.29924H10.9308" fill="white"/>
<path fill-rule="evenodd" clip-rule="evenodd" d="M10.9625 0H11.0068V8.29924H10.9625" fill="white"/>
<path fill-rule="evenodd" clip-rule="evenodd" d="M10.9878 0H11.0385V8.29924H10.9942" fill="white"/>
<path fill-rule="evenodd" clip-rule="evenodd" d="M11.0195 0H11.0639L11.0702 8.29924H11.0195" fill="white"/>
<path fill-rule="evenodd" clip-rule="evenodd" d="M11.0512 0H11.0955V8.29924H11.0512" fill="white"/>
<path fill-rule="evenodd" clip-rule="evenodd" d="M11.0829 0H11.1272V8.29924H11.0829" fill="white"/>
<path fill-rule="evenodd" clip-rule="evenodd" d="M11.1146 0H11.1589V8.29924H11.1146" fill="white"/>
<path fill-rule="evenodd" clip-rule="evenodd" d="M11.1399 0H11.1906V8.29924H11.1462" fill="white"/>
<path fill-rule="evenodd" clip-rule="evenodd" d="M11.1716 0H11.2159L11.2223 8.29924H11.1716" fill="white"/>
<path fill-rule="evenodd" clip-rule="evenodd" d="M11.2033 0H11.2476V8.29924H11.2033" fill="white"/>
<path fill-rule="evenodd" clip-rule="evenodd" d="M11.235 0H11.2793V8.29924H11.235" fill="white"/>
<path fill-rule="evenodd" clip-rule="evenodd" d="M11.2666 0H11.311V8.29924H11.2666" fill="white"/>
<path fill-rule="evenodd" clip-rule="evenodd" d="M11.292 0H11.3427V8.29924H11.2983" fill="white"/>
<path fill-rule="evenodd" clip-rule="evenodd" d="M11.3237 0H11.368L11.3744 8.29924H11.3237" fill="white"/>
<path fill-rule="evenodd" clip-rule="evenodd" d="M11.3553 0H11.3997V8.29924H11.3553" fill="white"/>
<path fill-rule="evenodd" clip-rule="evenodd" d="M11.387 0H11.4314V8.29924H11.387" fill="white"/>
<path fill-rule="evenodd" clip-rule="evenodd" d="M11.4187 0H11.4631V8.29924H11.4187" fill="white"/>
<path fill-rule="evenodd" clip-rule="evenodd" d="M11.4504 0H11.4948V8.29924H11.4504" fill="white"/>
<path fill-rule="evenodd" clip-rule="evenodd" d="M11.4757 0H11.5264V8.29924H11.4757" fill="white"/>
<path fill-rule="evenodd" clip-rule="evenodd" d="M11.5074 0H11.5518V8.29924H11.5074" fill="white"/>
<path fill-rule="evenodd" clip-rule="evenodd" d="M11.5391 0H11.5835V8.29924H11.5391" fill="white"/>
<path fill-rule="evenodd" clip-rule="evenodd" d="M11.5708 0H11.6151V8.29924H11.5708" fill="white"/>
<path fill-rule="evenodd" clip-rule="evenodd" d="M11.6025 0H11.6468V8.29924H11.6025" fill="white"/>
<path fill-rule="evenodd" clip-rule="evenodd" d="M11.6278 0H11.6722L11.6785 8.29924H11.6278" fill="white"/>
<path fill-rule="evenodd" clip-rule="evenodd" d="M11.6595 0H11.7039V8.29924H11.6595" fill="white"/>
<path fill-rule="evenodd" clip-rule="evenodd" d="M11.6912 0H11.7355V8.29924H11.6912" fill="white"/>
<path fill-rule="evenodd" clip-rule="evenodd" d="M11.7229 0H11.7672V8.29924H11.7229" fill="white"/>
<path fill-rule="evenodd" clip-rule="evenodd" d="M11.7546 0H11.7989V8.29924H11.7546" fill="white"/>
<path fill-rule="evenodd" clip-rule="evenodd" d="M11.7799 0H11.8306V8.29924H11.7799" fill="white"/>
<path fill-rule="evenodd" clip-rule="evenodd" d="M11.8116 0H11.8559V8.29924H11.8116" fill="white"/>
<path fill-rule="evenodd" clip-rule="evenodd" d="M11.8433 0H11.8876V8.29924H11.8433" fill="white"/>
<path fill-rule="evenodd" clip-rule="evenodd" d="M11.875 0H11.9193V8.29924H11.875" fill="white"/>
<path fill-rule="evenodd" clip-rule="evenodd" d="M11.9066 0H11.951V8.29924H11.9066" fill="white"/>
<path fill-rule="evenodd" clip-rule="evenodd" d="M11.932 0H11.9827V8.29924H11.932" fill="white"/>
<path fill-rule="evenodd" clip-rule="evenodd" d="M11.9637 0H12.008V8.29924H11.9637" fill="white"/>
<path fill-rule="evenodd" clip-rule="evenodd" d="M11.9954 0H12.0397V8.29924H11.9954" fill="white"/>
<path fill-rule="evenodd" clip-rule="evenodd" d="M12.027 0H12.0714V8.29924H12.027" fill="white"/>
<path fill-rule="evenodd" clip-rule="evenodd" d="M12.0587 0H12.1031V8.29924H12.0587" fill="white"/>
<path fill-rule="evenodd" clip-rule="evenodd" d="M12.0841 0H12.1348V8.29924H12.0841" fill="white"/>
<path fill-rule="evenodd" clip-rule="evenodd" d="M12.1158 0H12.1601L12.1664 8.29924H12.1158" fill="white"/>
<path fill-rule="evenodd" clip-rule="evenodd" d="M12.1474 0H12.1918V8.29924H12.1474" fill="white"/>
<path fill-rule="evenodd" clip-rule="evenodd" d="M12.1791 0H12.2235V8.29924H12.1791" fill="white"/>
<path fill-rule="evenodd" clip-rule="evenodd" d="M12.2108 0H12.2552V8.29924H12.2108" fill="white"/>
<path fill-rule="evenodd" clip-rule="evenodd" d="M12.2361 0H12.2868V8.29924H12.2425" fill="white"/>
<path fill-rule="evenodd" clip-rule="evenodd" d="M12.2678 0H12.3122L12.3185 8.29924H12.2678" fill="white"/>
<path fill-rule="evenodd" clip-rule="evenodd" d="M12.2995 0H12.3439V8.29924H12.2995" fill="white"/>
<path fill-rule="evenodd" clip-rule="evenodd" d="M12.3312 0H12.3756V8.29924H12.3312" fill="white"/>
<path fill-rule="evenodd" clip-rule="evenodd" d="M12.3629 0H12.4072V8.29924H12.3629" fill="white"/>
<path fill-rule="evenodd" clip-rule="evenodd" d="M12.3882 0H12.4389V8.29924H12.3946" fill="white"/>
<path fill-rule="evenodd" clip-rule="evenodd" d="M12.4199 0H12.4643L12.4706 8.29924H12.4199" fill="white"/>
<path fill-rule="evenodd" clip-rule="evenodd" d="M12.4516 0H12.496V8.29924H12.4516" fill="white"/>
<path fill-rule="evenodd" clip-rule="evenodd" d="M12.4833 0H12.5276V8.29924H12.4833" fill="white"/>
<path fill-rule="evenodd" clip-rule="evenodd" d="M12.515 0H12.5593V8.29924H12.515" fill="white"/>
<path fill-rule="evenodd" clip-rule="evenodd" d="M12.5403 0H12.591V8.29924H12.5466" fill="white"/>
<path fill-rule="evenodd" clip-rule="evenodd" d="M12.572 0H12.6163L12.6227 8.29924H12.572" fill="white"/>
<path fill-rule="evenodd" clip-rule="evenodd" d="M12.6037 0H12.648V8.29924H12.6037" fill="white"/>
<path fill-rule="evenodd" clip-rule="evenodd" d="M12.6354 0H12.6797V8.29924H12.6354" fill="white"/>
<path fill-rule="evenodd" clip-rule="evenodd" d="M12.667 0H12.7114V8.29924H12.667" fill="white"/>
<path fill-rule="evenodd" clip-rule="evenodd" d="M12.6924 0H12.7431V8.29924H12.6987" fill="white"/>
<path fill-rule="evenodd" clip-rule="evenodd" d="M12.7241 0H12.7684L12.7748 8.29924H12.7241" fill="white"/>
<path fill-rule="evenodd" clip-rule="evenodd" d="M12.7558 0H12.8001V8.29924H12.7558" fill="white"/>
<path fill-rule="evenodd" clip-rule="evenodd" d="M12.7874 0H12.8318V8.29924H12.7874" fill="white"/>
<path fill-rule="evenodd" clip-rule="evenodd" d="M12.8191 0H12.8635V8.29924H12.8191" fill="white"/>
<path fill-rule="evenodd" clip-rule="evenodd" d="M12.8445 0H12.8952V8.29924H12.8508" fill="white"/>
<path fill-rule="evenodd" clip-rule="evenodd" d="M12.8762 0H12.9268V8.29924H12.8762" fill="white"/>
<path fill-rule="evenodd" clip-rule="evenodd" d="M12.9078 0H12.9522V8.29924H12.9078" fill="white"/>
<path fill-rule="evenodd" clip-rule="evenodd" d="M12.9395 0H12.9839V8.29924H12.9395" fill="white"/>
<path fill-rule="evenodd" clip-rule="evenodd" d="M12.9712 0H13.0156V8.29924H12.9712" fill="white"/>
<path fill-rule="evenodd" clip-rule="evenodd" d="M13.0029 0H13.0472V8.29924H13.0029" fill="white"/>
<path fill-rule="evenodd" clip-rule="evenodd" d="M13.0282 0H13.0789V8.29924H13.0282" fill="white"/>
<path fill-rule="evenodd" clip-rule="evenodd" d="M13.0599 0H13.1043V8.29924H13.0599" fill="white"/>
<path fill-rule="evenodd" clip-rule="evenodd" d="M13.0916 0H13.136V8.29924H13.0916" fill="white"/>
<path fill-rule="evenodd" clip-rule="evenodd" d="M13.1233 0H13.1676V8.29924H13.1233" fill="white"/>
<path fill-rule="evenodd" clip-rule="evenodd" d="M13.155 0H13.1993V8.29924H13.155" fill="white"/>
<path fill-rule="evenodd" clip-rule="evenodd" d="M13.1803 0H13.231V8.29924H13.1803" fill="white"/>
<path fill-rule="evenodd" clip-rule="evenodd" d="M13.212 0H13.2564L13.2627 8.29924H13.212" fill="white"/>
<path fill-rule="evenodd" clip-rule="evenodd" d="M13.2437 0H13.288V8.29924H13.2437" fill="white"/>
<path fill-rule="evenodd" clip-rule="evenodd" d="M13.2754 0H13.3197V8.29924H13.2754" fill="white"/>
<path fill-rule="evenodd" clip-rule="evenodd" d="M13.3071 0H13.3514V8.29924H13.3071" fill="white"/>
<path fill-rule="evenodd" clip-rule="evenodd" d="M13.3324 0H13.3831V8.29924H13.3387" fill="white"/>
<path fill-rule="evenodd" clip-rule="evenodd" d="M13.3641 0H13.4084L13.4148 8.29924H13.3641" fill="white"/>
<path fill-rule="evenodd" clip-rule="evenodd" d="M13.3958 0H13.4401V8.29924H13.3958" fill="white"/>
<path fill-rule="evenodd" clip-rule="evenodd" d="M13.4274 0H13.4718V8.29924H13.4274" fill="white"/>
<path fill-rule="evenodd" clip-rule="evenodd" d="M13.4591 0H13.5035V8.29924H13.4591" fill="white"/>
<path fill-rule="evenodd" clip-rule="evenodd" d="M13.4845 0H13.5352V8.29924H13.4845" fill="white"/>
<path fill-rule="evenodd" clip-rule="evenodd" d="M13.5162 0H13.5605L13.5669 8.29924H13.5162" fill="white"/>
<path fill-rule="evenodd" clip-rule="evenodd" d="M13.5478 0H13.5922V8.29924H13.5478" fill="white"/>
<path fill-rule="evenodd" clip-rule="evenodd" d="M13.5795 0H13.6239V8.29924H13.5795" fill="white"/>
<path fill-rule="evenodd" clip-rule="evenodd" d="M13.6112 0H13.6556V8.29924H13.6112" fill="white"/>
<path fill-rule="evenodd" clip-rule="evenodd" d="M13.6366 0H13.6873V8.29924H13.6429" fill="white"/>
<path fill-rule="evenodd" clip-rule="evenodd" d="M13.6682 0H13.7126L13.7189 8.29924H13.6682" fill="white"/>
<path fill-rule="evenodd" clip-rule="evenodd" d="M13.6999 0H13.7443V8.29924H13.6999" fill="white"/>
<path fill-rule="evenodd" clip-rule="evenodd" d="M13.7316 0H13.776V8.29924H13.7316" fill="white"/>
<path fill-rule="evenodd" clip-rule="evenodd" d="M13.7633 0H13.8076V8.29924H13.7633" fill="white"/>
<path fill-rule="evenodd" clip-rule="evenodd" d="M13.7886 0H13.8393V8.29924H13.795" fill="white"/>
<path fill-rule="evenodd" clip-rule="evenodd" d="M13.8203 0H13.8647L13.871 8.29924H13.8203" fill="white"/>
<path fill-rule="evenodd" clip-rule="evenodd" d="M13.852 0H13.8964V8.29924H13.852" fill="white"/>
<path fill-rule="evenodd" clip-rule="evenodd" d="M13.8837 0H13.928V8.29924H13.8837" fill="white"/>
<path fill-rule="evenodd" clip-rule="evenodd" d="M13.9154 0H13.9597V8.29924H13.9154" fill="white"/>
<path fill-rule="evenodd" clip-rule="evenodd" d="M13.9407 0H13.9914V8.29924H13.9471" fill="white"/>
<path fill-rule="evenodd" clip-rule="evenodd" d="M13.9724 0H14.0168L14.0231 8.29924H13.9724" fill="white"/>
<path fill-rule="evenodd" clip-rule="evenodd" d="M14.0041 0H14.0484V8.29924H14.0041" fill="white"/>
<path fill-rule="evenodd" clip-rule="evenodd" d="M14.0358 0H14.0801V8.29924H14.0358" fill="white"/>
<path fill-rule="evenodd" clip-rule="evenodd" d="M14.0675 0H14.1118V8.29924H14.0675" fill="white"/>
<path fill-rule="evenodd" clip-rule="evenodd" d="M14.0991 0H14.1435V8.29924H14.0991" fill="white"/>
<path fill-rule="evenodd" clip-rule="evenodd" d="M14.1245 0H14.1752V8.29924H14.1245" fill="white"/>
<path fill-rule="evenodd" clip-rule="evenodd" d="M14.1562 0H14.2005V8.29924H14.1562" fill="white"/>
<path fill-rule="evenodd" clip-rule="evenodd" d="M14.1879 0H14.2322V8.29924H14.1879" fill="white"/>
<path fill-rule="evenodd" clip-rule="evenodd" d="M14.2195 0H14.2639V8.29924H14.2195" fill="white"/>
<path fill-rule="evenodd" clip-rule="evenodd" d="M14.2449 0H14.2956V8.29924H14.2512" fill="white"/>
<path fill-rule="evenodd" clip-rule="evenodd" d="M14.2766 0H14.3209L14.3273 8.29924H14.2766" fill="white"/>
<path fill-rule="evenodd" clip-rule="evenodd" d="M14.3082 0H14.3526V8.29924H14.3082" fill="white"/>
<path fill-rule="evenodd" clip-rule="evenodd" d="M14.3399 0H14.3843V8.29924H14.3399" fill="white"/>
<path fill-rule="evenodd" clip-rule="evenodd" d="M14.3716 0H14.416V8.29924H14.3716" fill="white"/>
<path fill-rule="evenodd" clip-rule="evenodd" d="M14.4033 0H14.4477V8.29924H14.4033" fill="white"/>
<path fill-rule="evenodd" clip-rule="evenodd" d="M14.4286 0H14.4793V8.29924H14.4286" fill="white"/>
<path fill-rule="evenodd" clip-rule="evenodd" d="M14.4603 0H14.5047V8.29924H14.4603" fill="white"/>
<path fill-rule="evenodd" clip-rule="evenodd" d="M14.492 0H14.5364V8.29924H14.492" fill="white"/>
<path fill-rule="evenodd" clip-rule="evenodd" d="M14.5237 0H14.5681V8.29924H14.5237" fill="white"/>
<path fill-rule="evenodd" clip-rule="evenodd" d="M14.5554 0H14.5997V8.29924H14.5554" fill="white"/>
<path fill-rule="evenodd" clip-rule="evenodd" d="M14.5807 0H14.6314V8.29924H14.5807" fill="white"/>
<path fill-rule="evenodd" clip-rule="evenodd" d="M14.6124 0H14.6568V8.29924H14.6124" fill="white"/>
<path fill-rule="evenodd" clip-rule="evenodd" d="M14.6441 0H14.6884V8.29924H14.6441" fill="white"/>
<path fill-rule="evenodd" clip-rule="evenodd" d="M14.6758 0H14.7201V8.29924H14.6758" fill="white"/>
<path fill-rule="evenodd" clip-rule="evenodd" d="M14.7075 0H14.7518V8.29924H14.7075" fill="white"/>
<path fill-rule="evenodd" clip-rule="evenodd" d="M14.7328 0H14.7835V8.29924H14.7328" fill="white"/>
<path fill-rule="evenodd" clip-rule="evenodd" d="M14.7645 0H14.8088L14.8152 8.29924H14.7645" fill="white"/>
<path fill-rule="evenodd" clip-rule="evenodd" d="M14.7962 0H14.8405V8.29924H14.7962" fill="white"/>
<path fill-rule="evenodd" clip-rule="evenodd" d="M14.8279 0H14.8722V8.29924H14.8279" fill="white"/>
<path fill-rule="evenodd" clip-rule="evenodd" d="M14.8595 0H14.9039V8.29924H14.8595" fill="white"/>
<path fill-rule="evenodd" clip-rule="evenodd" d="M14.8849 0H14.9356V8.29924H14.8912" fill="white"/>
<path fill-rule="evenodd" clip-rule="evenodd" d="M14.9166 0H14.9609L14.9673 8.29924H14.9166" fill="white"/>
<path fill-rule="evenodd" clip-rule="evenodd" d="M14.9482 0H14.9926V8.29924H14.9482" fill="white"/>
<path fill-rule="evenodd" clip-rule="evenodd" d="M14.9799 0H15.0243V8.29924H14.9799" fill="white"/>
<path fill-rule="evenodd" clip-rule="evenodd" d="M15.0116 0H15.056V8.29924H15.0116" fill="white"/>
<path fill-rule="evenodd" clip-rule="evenodd" d="M15.037 0H15.0877V8.29924H15.0433" fill="white"/>
<path fill-rule="evenodd" clip-rule="evenodd" d="M15.0686 0H15.113L15.1193 8.29924H15.0686" fill="white"/>
<path fill-rule="evenodd" clip-rule="evenodd" d="M15.1003 0H15.1447V8.29924H15.1003" fill="white"/>
<path fill-rule="evenodd" clip-rule="evenodd" d="M15.132 0H15.1764V8.29924H15.132" fill="white"/>
<path fill-rule="evenodd" clip-rule="evenodd" d="M15.1637 0H15.2081V8.29924H15.1637" fill="white"/>
<path fill-rule="evenodd" clip-rule="evenodd" d="M15.189 0H15.2397V8.29924H15.1954" fill="white"/>
<path fill-rule="evenodd" clip-rule="evenodd" d="M15.2207 0H15.2651L15.2714 8.29924H15.2207" fill="white"/>
<path fill-rule="evenodd" clip-rule="evenodd" d="M15.2524 0H15.2968V8.29924H15.2524" fill="white"/>
<path fill-rule="evenodd" clip-rule="evenodd" d="M15.2841 0H15.3285V8.29924H15.2841" fill="white"/>
<path fill-rule="evenodd" clip-rule="evenodd" d="M15.3158 0H15.3601V8.29924H15.3158" fill="white"/>
<path fill-rule="evenodd" clip-rule="evenodd" d="M15.3411 0H15.3918V8.29924H15.3475" fill="white"/>
<path fill-rule="evenodd" clip-rule="evenodd" d="M15.3728 0H15.4172L15.4235 8.29924H15.3728" fill="white"/>
<path fill-rule="evenodd" clip-rule="evenodd" d="M15.4045 0H15.4489V8.29924H15.4045" fill="white"/>
<path fill-rule="evenodd" clip-rule="evenodd" d="M15.4362 0H15.4805V8.29924H15.4362" fill="white"/>
<path fill-rule="evenodd" clip-rule="evenodd" d="M15.4679 0H15.5122V8.29924H15.4679" fill="white"/>
<path fill-rule="evenodd" clip-rule="evenodd" d="M15.4932 0H15.5439V8.29924H15.4995" fill="white"/>
<path fill-rule="evenodd" clip-rule="evenodd" d="M15.5249 0H15.5756V8.29924H15.5249" fill="white"/>
<path fill-rule="evenodd" clip-rule="evenodd" d="M15.5566 0H15.6009V8.29924H15.5566" fill="white"/>
<path fill-rule="evenodd" clip-rule="evenodd" d="M15.5883 0H15.6326V8.29924H15.5883" fill="white"/>
<path fill-rule="evenodd" clip-rule="evenodd" d="M15.6199 0H15.6643V8.29924H15.6199" fill="white"/>
<path fill-rule="evenodd" clip-rule="evenodd" d="M15.6516 0H15.696V8.29924H15.6516" fill="white"/>
<path fill-rule="evenodd" clip-rule="evenodd" d="M15.677 0H15.7277V8.29924H15.677" fill="white"/>
<path fill-rule="evenodd" clip-rule="evenodd" d="M15.7087 0H15.753V8.29924H15.7087" fill="white"/>
<path fill-rule="evenodd" clip-rule="evenodd" d="M15.7403 0H15.7847V8.29924H15.7403" fill="white"/>
<path fill-rule="evenodd" clip-rule="evenodd" d="M15.772 0H15.8164V8.29924H15.772" fill="white"/>
<path fill-rule="evenodd" clip-rule="evenodd" d="M15.8037 0H15.8481V8.29924H15.8037" fill="white"/>
<path fill-rule="evenodd" clip-rule="evenodd" d="M15.829 0H15.8797V8.29924H15.829" fill="white"/>
<path fill-rule="evenodd" clip-rule="evenodd" d="M15.8607 0H15.9051V8.29924H15.8607" fill="white"/>
<path fill-rule="evenodd" clip-rule="evenodd" d="M15.8924 0H15.9368V8.29924H15.8924" fill="white"/>
<path fill-rule="evenodd" clip-rule="evenodd" d="M15.9241 0H15.9685V8.29924H15.9241" fill="white"/>
<path fill-rule="evenodd" clip-rule="evenodd" d="M15.9558 0H16.0001V8.29924H15.9558" fill="white"/>
<path fill-rule="evenodd" clip-rule="evenodd" d="M15.9811 0H16.0255L16.0318 8.29924H15.9811" fill="white"/>
<path fill-rule="evenodd" clip-rule="evenodd" d="M16.0128 0H16.0572V8.29924H16.0128" fill="white"/>
<path fill-rule="evenodd" clip-rule="evenodd" d="M16.0445 0H16.0889V8.29924H16.0445" fill="white"/>
<path fill-rule="evenodd" clip-rule="evenodd" d="M16.0762 0H16.1205V8.29924H16.0762" fill="white"/>
<path fill-rule="evenodd" clip-rule="evenodd" d="M16.1079 0H16.1522V8.29924H16.1079" fill="white"/>
<path fill-rule="evenodd" clip-rule="evenodd" d="M16.1332 0H16.1839V8.29924H16.1332" fill="white"/>
<path fill-rule="evenodd" clip-rule="evenodd" d="M16.1649 0H16.2093L16.2156 8.29924H16.1649" fill="white"/>
<path fill-rule="evenodd" clip-rule="evenodd" d="M16.1966 0H16.2409V8.29924H16.1966" fill="white"/>
<path fill-rule="evenodd" clip-rule="evenodd" d="M16.2283 0H16.2726V8.29924H16.2283" fill="white"/>
<path fill-rule="evenodd" clip-rule="evenodd" d="M16.2599 0H16.3043V8.29924H16.2599" fill="white"/>
<path fill-rule="evenodd" clip-rule="evenodd" d="M16.2853 0H16.336V8.29924H16.2916" fill="white"/>
<path fill-rule="evenodd" clip-rule="evenodd" d="M16.317 0H16.3613L16.3677 8.29924H16.317" fill="white"/>
<path fill-rule="evenodd" clip-rule="evenodd" d="M16.3487 0H16.393V8.29924H16.3487" fill="white"/>
<path fill-rule="evenodd" clip-rule="evenodd" d="M16.3803 0H16.4247V8.29924H16.3803" fill="white"/>
<path fill-rule="evenodd" clip-rule="evenodd" d="M16.412 0H16.4564V8.29924H16.412" fill="white"/>
<path fill-rule="evenodd" clip-rule="evenodd" d="M16.4374 0H16.4881V8.29924H16.4437" fill="white"/>
<path fill-rule="evenodd" clip-rule="evenodd" d="M16.4691 0H16.5134L16.5197 8.29924H16.4691" fill="white"/>
<path fill-rule="evenodd" clip-rule="evenodd" d="M16.5007 0H16.5451V8.29924H16.5007" fill="white"/>
<path fill-rule="evenodd" clip-rule="evenodd" d="M16.5324 0H16.5768V8.29924H16.5324" fill="white"/>
<path fill-rule="evenodd" clip-rule="evenodd" d="M16.5641 0H16.6085V8.29924H16.5641" fill="white"/>
<path fill-rule="evenodd" clip-rule="evenodd" d="M16.5895 0H16.6401V8.29924H16.5958" fill="white"/>
<path fill-rule="evenodd" clip-rule="evenodd" d="M16.6211 0H16.6655L16.6718 8.29924H16.6211" fill="white"/>
<path fill-rule="evenodd" clip-rule="evenodd" d="M16.6528 0H16.6972V8.29924H16.6528" fill="white"/>
<path fill-rule="evenodd" clip-rule="evenodd" d="M16.6845 0H16.7289V8.29924H16.6845" fill="white"/>
<path fill-rule="evenodd" clip-rule="evenodd" d="M16.7162 0H16.7605V8.29924H16.7162" fill="white"/>
<path fill-rule="evenodd" clip-rule="evenodd" d="M16.7415 0H16.7922V8.29924H16.7479" fill="white"/>
<path fill-rule="evenodd" clip-rule="evenodd" d="M16.7732 0H16.8366V8.29924H16.7732" fill="white"/>
</g>
<path d="M57.7082 22.0573C56.5803 23.2429 56.0353 24.4222 56.0417 24.4159C40.6118 57.15 17.2041 46.3718 9.40364 27.1231L5.05034 27.5289C6.96402 38.8967 35.853 70.4262 54.9137 27.1041C57.5435 21.1253 61.7891 23.7121 64.6216 19.9207C64.0006 19.7685 63.4113 19.7051 62.8536 19.7051C60.5407 19.7051 58.8362 20.8844 57.7146 22.0637" fill="white"/>
<mask id="mask2_2_17" style="mask-type:luminance" maskUnits="userSpaceOnUse" x="5" y="19" width="60" height="31">
<path d="M57.7082 22.0573C56.5803 23.2429 56.0353 24.4222 56.0417 24.4159C40.6118 57.15 17.2041 46.3718 9.40364 27.1231L5.05034 27.5289C6.96402 38.8967 35.853 70.4262 54.9137 27.1041C57.5435 21.1253 61.7891 23.7121 64.6216 19.9207C64.0006 19.7685 63.4113 19.7051 62.8536 19.7051C60.5407 19.7051 58.8362 20.8844 57.7146 22.0637" fill="white"/>
</mask>
<g mask="url(#mask2_2_17)">
<path d="M5.6445 13.7575L0.00276184 69.9144L64.0229 76.3531L69.6646 20.1962L5.6445 13.7575Z" fill="white"/>
</g>
<path fill-rule="evenodd" clip-rule="evenodd" d="M60.4964 16.459C55.8706 19.255 56.1748 23.1859 56.0227 27.0153C56.8908 23.1922 60.2873 19.6988 60.4964 16.459Z" fill="white"/>
<path fill-rule="evenodd" clip-rule="evenodd" d="M54.1343 19.1409C52.8353 23.2112 54.5019 25.0626 55.9023 27.1168C54.8757 24.6568 55.2813 20.9288 54.1343 19.1409Z" fill="white"/>
<path fill-rule="evenodd" clip-rule="evenodd" d="M51.625 22.0003C51.1054 26.3242 53.0761 27.6684 54.8124 29.2914C53.3613 27.1738 53.0634 23.4331 51.625 22.0003Z" fill="white"/>
<path fill-rule="evenodd" clip-rule="evenodd" d="M57.1379 29.8176C57.1569 30.0522 57.1759 30.2678 57.271 30.4897C57.5752 31.2442 58.2468 31.7197 58.8869 31.9796C59.6346 32.284 60.6865 32.36 61.1744 31.707C61.2885 31.3139 61.0667 30.5024 60.8702 30.103C59.8754 28.0805 57.6195 28.0361 57.1633 29.6972L57.1443 29.824L57.1379 29.8176Z" fill="white"/>
<path fill-rule="evenodd" clip-rule="evenodd" d="M57.1379 29.8176C57.0302 30.0649 57.0619 30.5341 57.0809 30.7623C57.1696 31.7134 57.8603 32.6707 58.608 33.0892C59.0516 33.3364 59.5142 33.4125 59.9704 33.3111C60.5091 33.1969 61.016 32.6137 61.1427 31.9543C61.1491 31.9162 61.1554 31.8655 61.1617 31.8275C61.1744 31.7514 61.1744 31.7704 61.1617 31.7007C60.6738 32.3537 59.6219 32.2776 58.8742 31.9733C58.2342 31.7134 57.5625 31.2378 57.2583 30.4834C57.1696 30.2615 57.1506 30.0459 57.1253 29.8113" fill="white"/>
<path fill-rule="evenodd" clip-rule="evenodd" d="M58.3609 28.9237C58.4813 28.9681 58.6144 28.9808 58.7538 29.0315C59.2037 29.1963 59.6156 29.5197 59.9641 29.9064C60.509 30.5024 60.6041 30.8131 60.9653 31.4661C60.8259 30.3375 60.1669 29.1773 59.2354 28.873C58.9566 28.7842 58.5447 28.7842 58.3609 28.9237Z" fill="white"/>
<path fill-rule="evenodd" clip-rule="evenodd" d="M57.4357 30.2234C57.6639 30.2868 57.8857 30.0586 58.0377 29.7416C58.1011 29.6021 58.1391 29.4309 58.1391 29.3041C58.1391 29.209 58.0948 28.9364 57.9427 28.9808L57.9744 29.0251C57.8033 29.0251 57.6068 29.2978 57.5118 29.5133C57.3344 29.9001 57.4357 30.0649 57.4294 30.2234" fill="white"/>
<path fill-rule="evenodd" clip-rule="evenodd" d="M57.4358 30.2234C57.4358 30.0649 57.3407 29.9001 57.5181 29.5133C57.6132 29.2978 57.8096 29.0252 57.9807 29.0252L57.949 28.9808C57.7589 28.8857 57.5181 29.1583 57.3851 29.4373C57.252 29.7162 57.2013 30.0396 57.4358 30.2171" fill="white"/>
<path d="M57.6639 29.507C57.0746 28.9173 56.1431 28.8222 55.4841 28.3911L57.6639 29.507Z" fill="white"/>
<path d="M57.6639 29.507C57.0746 28.9173 56.1431 28.8222 55.4841 28.3911" stroke="#6B6129" stroke-width="0.04" stroke-miterlimit="2.61"/>
<path fill-rule="evenodd" clip-rule="evenodd" d="M59.3938 24.8533C59.4191 25.1069 59.4382 25.3415 59.5332 25.5825C59.8627 26.4003 60.5914 26.9202 61.2885 27.2055C62.0996 27.5352 63.2465 27.6176 63.7788 26.9075C63.8992 26.4764 63.6647 25.5951 63.4493 25.1577C62.3657 22.9513 59.9134 22.9133 59.4191 24.7202L59.3938 24.8533Z" fill="white"/>
<path fill-rule="evenodd" clip-rule="evenodd" d="M59.3938 24.8533C59.2734 25.1196 59.3114 25.6332 59.3304 25.8804C59.4255 26.9202 60.1795 27.9537 60.9906 28.4101C61.4722 28.6764 61.9728 28.7588 62.4734 28.6511C63.0627 28.5243 63.614 27.8903 63.7471 27.1738C63.7534 27.1294 63.7661 27.0724 63.7724 27.0343C63.7851 26.9519 63.7851 26.9709 63.7724 26.9012C63.2465 27.6113 62.0995 27.5289 61.2821 27.1992C60.5851 26.9139 59.8564 26.394 59.5269 25.5761C59.4318 25.3352 59.4065 25.1006 59.3874 24.847" fill="white"/>
<path fill-rule="evenodd" clip-rule="evenodd" d="M60.7245 23.8833C60.8576 23.934 61.0033 23.9467 61.149 24.0037C61.6433 24.1876 62.0869 24.5363 62.4671 24.9548C63.0627 25.6078 63.1641 25.9375 63.5507 26.6476C63.3986 25.4176 62.6825 24.1559 61.6687 23.8262C61.3645 23.7248 60.9146 23.7311 60.7182 23.8833" fill="white"/>
<path fill-rule="evenodd" clip-rule="evenodd" d="M59.717 25.2971C59.9641 25.3669 60.2049 25.1196 60.3696 24.7709C60.4393 24.6188 60.4837 24.4285 60.4837 24.2954C60.4837 24.1876 60.4393 23.896 60.2746 23.9467L60.3126 23.9911C60.1225 23.9911 59.9134 24.2891 59.8057 24.5173C59.6156 24.9358 59.7233 25.1196 59.717 25.2908" fill="white"/>
<path fill-rule="evenodd" clip-rule="evenodd" d="M59.717 25.2971C59.717 25.1259 59.6156 24.9421 59.8057 24.5236C59.9134 24.289 60.1225 23.9974 60.3126 23.9974L60.2746 23.953C60.0718 23.8452 59.8057 24.1496 59.6599 24.4539C59.5205 24.7582 59.4572 25.1133 59.717 25.3035" fill="white"/>
<path d="M60.1859 24.8343C59.5966 24.2447 58.4686 24.5744 58.1898 24.0798L60.1859 24.8343Z" fill="white"/>
<path d="M60.1859 24.8343C59.5966 24.2447 58.4686 24.5744 58.1898 24.0798" stroke="#6B6129" stroke-width="0.04" stroke-miterlimit="2.61"/>
<path d="M74.7983 70.0395H71.9024C71.5919 70.0395 71.3448 70.0332 71.161 70.0205C70.9773 70.0078 70.8188 70.0015 70.6731 70.0015C69.9254 69.9761 69.3361 69.843 68.8988 69.602C68.4616 69.3611 68.1131 69.0504 67.8469 68.6764C67.5808 68.3023 67.3653 67.8585 67.1942 67.3449C67.0232 66.8377 66.8331 66.2861 66.6176 65.6965H57.3977C56.9668 66.9836 56.5676 67.9346 56.2064 68.5369C55.8452 69.1392 55.3953 69.5576 54.8504 69.7859C54.3054 70.0141 53.6084 70.1156 52.7529 70.0902C51.8975 70.0649 50.7315 70.0522 49.2614 70.0522L57.29 48.5845C57.5561 47.8363 57.8033 47.234 58.0314 46.7902C58.2595 46.3464 58.5383 46.0104 58.8615 45.7821C59.1847 45.5539 59.5966 45.4081 60.0908 45.3383C60.5851 45.2686 61.2187 45.2369 61.9918 45.2369H65.3186L74.7919 70.0458L74.7983 70.0395ZM61.9982 52.4012L59.2164 60.4152H64.8243L62.0045 52.4012H61.9982Z" fill="white"/>
<path d="M79.5001 69.9381C78.6827 69.8683 78.049 69.6971 77.5991 69.4118C77.1555 69.1329 76.8577 68.7017 76.712 68.1248C76.5662 67.5478 76.4965 66.749 76.4965 65.7282V45.313C77.7955 45.313 78.8601 45.3383 79.6775 45.3954C80.495 45.4524 81.1286 45.6109 81.5785 45.8772C82.0221 46.1435 82.3263 46.562 82.4847 47.1262C82.6431 47.6905 82.7191 48.4703 82.7191 49.4594V70.0395C81.3948 70.0395 80.3175 70.0078 79.5001 69.9381Z" fill="white"/>
<path d="M103.934 48.3752C103.852 49.1297 103.662 49.694 103.377 50.0681C103.085 50.4421 102.661 50.6831 102.09 50.7908C101.526 50.8986 100.772 50.9493 99.8282 50.9493H97.6927V70.0395C96.3684 70.0395 95.3038 70.0078 94.5117 69.9381C93.7196 69.8683 93.0986 69.6971 92.6677 69.4118C92.2368 69.1329 91.9454 68.6954 91.7996 68.1058C91.6539 67.5161 91.5842 66.7109 91.5842 65.6902V50.9493H85.1461C85.1461 49.6369 85.1841 48.6035 85.2538 47.849C85.3235 47.1009 85.5009 46.5366 85.7798 46.1562C86.0586 45.7821 86.4578 45.5475 86.9901 45.4524C87.5223 45.3573 88.2447 45.313 89.1572 45.313H104.055C104.055 46.6 104.01 47.6208 103.928 48.3752" fill="white"/>
<path d="M127.779 57.7142C127.779 59.3246 127.608 60.8907 127.272 62.406C126.937 63.9212 126.328 65.2654 125.447 66.4319C124.567 67.5985 123.369 68.5369 121.848 69.2533C120.327 69.9634 118.376 70.3184 115.993 70.3184C113.611 70.3184 111.684 69.9634 110.151 69.2533C108.617 68.5432 107.413 67.5985 106.532 66.4319C105.652 65.2654 105.043 63.9149 104.707 62.3869C104.372 60.859 104.201 59.2866 104.201 57.6762C104.201 56.0658 104.372 54.4935 104.707 52.9655C105.043 51.4375 105.658 50.0807 106.551 48.8951C107.445 47.7159 108.643 46.7648 110.151 46.0547C111.659 45.3446 113.591 44.9896 115.955 44.9896C118.319 44.9896 120.302 45.3446 121.829 46.0547C123.363 46.7648 124.567 47.7095 125.447 48.8951C126.328 50.0744 126.937 51.4312 127.272 52.9655C127.608 54.4935 127.779 56.0785 127.779 57.7206M121.525 57.7142C121.525 56.6111 121.455 55.6283 121.31 54.7534C121.164 53.8785 120.885 53.143 120.479 52.5407C120.068 51.9384 119.504 51.4756 118.781 51.1522C118.059 50.8289 117.127 50.6704 115.999 50.6704C114.624 50.6704 113.566 50.7084 112.818 50.7908C112.071 50.8732 111.526 51.1332 111.19 51.577C110.854 52.0208 110.651 52.7182 110.594 53.6692C110.531 54.6203 110.506 55.958 110.506 57.6762C110.506 58.7794 110.582 59.7558 110.74 60.618C110.898 61.4803 111.177 62.2094 111.57 62.8117C111.969 63.414 112.521 63.8769 113.237 64.2002C113.946 64.5236 114.859 64.6821 115.968 64.6821C117.368 64.6821 118.439 64.644 119.187 64.5616C119.935 64.4792 120.479 64.2256 120.834 63.7944C121.183 63.3633 121.386 62.6786 121.449 61.7402C121.506 60.8019 121.538 59.4578 121.538 57.7142" fill="white"/>
<path d="M153.963 57.7142C153.963 59.3246 153.791 60.8907 153.456 62.406C153.12 63.9212 152.511 65.2654 151.631 66.4319C150.75 67.5985 149.552 68.5369 148.031 69.2533C146.511 69.9634 144.559 70.3184 142.176 70.3184C139.794 70.3184 137.867 69.9634 136.334 69.2533C134.8 68.5432 133.596 67.5985 132.716 66.4319C131.835 65.2654 131.226 63.9149 130.891 62.3869C130.555 60.859 130.384 59.2866 130.384 57.6762C130.384 56.0658 130.555 54.4935 130.891 52.9655C131.226 51.4375 131.841 50.0807 132.735 48.8951C133.628 47.7159 134.826 46.7648 136.334 46.0547C137.842 45.3446 139.775 44.9896 142.138 44.9896C144.502 44.9896 146.485 45.3446 148.012 46.0547C149.546 46.7648 150.75 47.7095 151.631 48.8951C152.511 50.0744 153.12 51.4312 153.456 52.9655C153.791 54.4935 153.963 56.0785 153.963 57.7206M147.708 57.7142C147.708 56.6111 147.639 55.6283 147.493 54.7534C147.347 53.8785 147.068 53.143 146.663 52.5407C146.251 51.9384 145.687 51.4756 144.964 51.1522C144.242 50.8289 143.311 50.6704 142.183 50.6704C140.808 50.6704 139.749 50.7084 139.002 50.7908C138.254 50.8732 137.709 51.1332 137.373 51.577C137.037 52.0208 136.834 52.7182 136.777 53.6692C136.714 54.6203 136.689 55.958 136.689 57.6762C136.689 58.7794 136.765 59.7558 136.923 60.618C137.082 61.4803 137.354 62.2094 137.753 62.8117C138.152 63.414 138.704 63.8769 139.42 64.2002C140.13 64.5236 141.042 64.6821 142.151 64.6821C143.551 64.6821 144.622 64.644 145.37 64.5616C146.118 64.4792 146.663 64.2256 147.018 63.7944C147.366 63.3633 147.569 62.6786 147.632 61.7402C147.689 60.8019 147.721 59.4578 147.721 57.7142" fill="white"/>
<path d="M176.711 70.0395C175.894 70.0395 175.228 70.0078 174.722 69.938C174.215 69.8683 173.79 69.7225 173.435 69.4942C173.087 69.266 172.764 68.949 172.478 68.5496C172.187 68.1501 171.851 67.6239 171.464 66.9772L163.651 54.652V70.0395C162.327 70.0395 161.25 70.0078 160.432 69.938C159.615 69.8683 158.981 69.6971 158.531 69.4118C158.088 69.1329 157.79 68.7017 157.644 68.1248C157.498 67.5478 157.429 66.749 157.429 65.7282V45.2305H160.61C161.332 45.2305 161.934 45.2432 162.416 45.2686C162.897 45.2939 163.334 45.389 163.715 45.5475C164.101 45.706 164.469 45.985 164.817 46.3718C165.166 46.7585 165.571 47.3164 166.028 48.0456L173.765 60.4088V49.1741C173.765 48.2104 173.847 47.4623 174.018 46.9424C174.189 46.4161 174.5 46.0294 174.956 45.7758C175.412 45.5222 176.046 45.3637 176.857 45.313C177.668 45.2559 178.707 45.2305 179.987 45.2305V70.0395H176.699H176.711Z" fill="white"/>
<path d="M84.8356 34.2114C84.8356 36.1134 84.2399 37.6287 83.0486 38.7509C81.9968 39.7653 80.6534 40.2725 79.0122 40.2725C77.0795 40.2725 75.5904 39.5181 74.5385 38.0028C73.7147 36.8298 73.2965 35.454 73.2965 33.8627C73.2965 32.6771 73.5436 31.6246 74.0315 30.7053L76.9337 30.0269C76.4141 31.054 76.1543 32.1508 76.1543 33.3047C76.1543 34.4586 76.4141 35.3019 76.9401 35.9803C77.466 36.6587 78.1567 37.001 79.0058 37.001C80.8562 37.001 81.7813 36.069 81.7813 34.2177V27.1041L84.8293 25.3035V34.2177L84.8356 34.2114ZM78.8728 25.8107C78.3975 25.8107 78.0173 25.6522 77.7258 25.3288C77.4407 25.0118 77.2949 24.587 77.2949 24.0545C77.2949 23.5219 77.4407 23.1034 77.7258 22.7928C78.011 22.4821 78.3912 22.3236 78.8728 22.3236C79.3544 22.3236 79.7029 22.4821 79.988 22.7928C80.2668 23.1034 80.4062 23.5282 80.4062 24.0545C80.4062 24.5807 80.2668 25.0118 79.988 25.3288C79.7092 25.6458 79.3353 25.8107 78.8728 25.8107Z" fill="white"/>
<path d="M98.9094 35.8281H96.4064C96.3113 37.2293 95.7474 38.3515 94.7272 39.1947C93.8844 39.8985 92.9022 40.2472 91.7616 40.2472C90.8491 40.2472 89.9366 39.9555 89.0115 39.3786V36.4051C89.8542 36.9376 90.6527 37.2039 91.4067 37.2039C91.882 37.2039 92.3192 37.0581 92.7121 36.7601C93.105 36.4621 93.3267 36.1198 93.3838 35.733C93.0733 35.7203 92.7058 35.676 92.2685 35.6189C90.8681 35.416 89.7719 34.763 88.9734 33.6535C88.3144 32.7151 87.9849 31.6183 87.9849 30.3566C87.9849 28.6067 88.4158 27.2372 89.2903 26.2418C90.057 25.3352 91.0836 24.885 92.3572 24.885C93.7006 24.885 94.7462 25.3352 95.4876 26.2418C96.1149 27.0217 96.4317 28.0424 96.4317 29.3041V32.5566H98.9094V35.8345V35.8281ZM93.3901 29.3231C93.3901 28.4799 93.0479 28.0614 92.3636 28.0614C91.4511 28.0614 90.9949 28.7842 90.9949 30.2361C90.9949 31.688 91.7933 32.5059 93.3901 32.5059V29.3231Z" fill="white"/>
<path d="M101.324 32.5503H97.7751V35.8281H101.324V32.5503Z" fill="white"/>
<path d="M103.763 32.5503H100.215V35.8281H103.763V32.5503Z" fill="white"/>
<path d="M106.203 32.5503H102.654V35.8281H106.203V32.5503Z" fill="white"/>
<path d="M112.628 32.5503H114.669V35.8281H112.337C111.355 35.8281 110.544 35.5618 109.904 35.0356C109.232 35.5682 108.414 35.8281 107.445 35.8281H105.094V32.5503H107.153C107.603 32.5503 107.914 32.4488 108.098 32.2459C108.281 32.043 108.37 31.6943 108.37 31.1935V27.0977L111.418 25.2971V31.1935C111.418 31.6943 111.507 32.043 111.678 32.2459C111.855 32.4488 112.172 32.5503 112.635 32.5503M106.83 23.5916C106.355 23.5916 105.968 23.4268 105.683 23.1034C105.398 22.7738 105.252 22.349 105.252 21.8164C105.252 21.2838 105.398 20.8844 105.683 20.5674C105.968 20.2504 106.349 20.0855 106.83 20.0855C107.312 20.0855 107.66 20.244 107.946 20.5547C108.224 20.8654 108.364 21.2902 108.364 21.8164C108.364 22.3426 108.224 22.7928 107.946 23.1161C107.667 23.4331 107.293 23.598 106.83 23.598M110.341 23.5916C109.866 23.5916 109.485 23.4268 109.194 23.1034C108.909 22.7738 108.763 22.349 108.763 21.8164C108.763 21.2838 108.909 20.8844 109.194 20.5674C109.479 20.2504 109.859 20.0855 110.341 20.0855C110.822 20.0855 111.171 20.244 111.456 20.5547C111.735 20.8654 111.874 21.2902 111.874 21.8164C111.874 22.3426 111.735 22.7928 111.456 23.1161C111.177 23.4331 110.803 23.598 110.341 23.598" fill="white"/>
<path d="M117.102 32.5503H113.553V35.8281H117.102V32.5503Z" fill="white"/>
<path d="M119.542 32.5503H115.993V35.8281H119.542V32.5503Z" fill="white"/>
<path d="M121.975 32.5503H118.426V35.8281H121.975V32.5503Z" fill="white"/>
<path d="M124.415 32.5503H120.866V35.8281H124.415V32.5503Z" fill="white"/>
<path d="M126.848 32.5503H123.299V35.8281H126.848V32.5503Z" fill="white"/>
<path d="M129.287 32.5503H125.739V35.8281H129.287V32.5503Z" fill="white"/>
<path d="M131.727 32.5503H128.179V35.8281H131.727V32.5503Z" fill="white"/>
<path d="M134.16 32.5503H130.612V35.8281H134.16V32.5503Z" fill="white"/>
<path d="M136.6 32.5503H133.051V35.8281H136.6V32.5503Z" fill="white"/>
<path d="M139.033 32.5503H135.485V35.8281H139.033V32.5503Z" fill="white"/>
<path d="M141.473 32.5503H137.924V35.8281H141.473V32.5503Z" fill="white"/>
<path d="M141.454 41.325C140.979 41.325 140.598 41.1602 140.307 40.8368C140.022 40.5071 139.876 40.0824 139.876 39.5498C139.876 39.0172 140.022 38.6241 140.307 38.3071C140.592 37.9964 140.972 37.8379 141.454 37.8379C141.936 37.8379 142.29 37.9964 142.569 38.3071C142.848 38.6178 142.987 39.0299 142.987 39.5498C142.987 40.095 142.848 40.5262 142.569 40.8495C142.29 41.1665 141.916 41.3314 141.454 41.3314M140.358 35.8281V32.5503H142.417C142.867 32.5503 143.177 32.4488 143.361 32.2459C143.545 32.0431 143.634 31.6943 143.634 31.1935V27.0977L146.682 25.2971V31.333C146.682 32.7849 146.276 33.9197 145.465 34.7503C144.762 35.4667 143.849 35.8281 142.715 35.8281H140.364H140.358ZM144.939 41.325C144.477 41.325 144.103 41.1602 143.818 40.8368C143.532 40.5071 143.387 40.0824 143.387 39.5498C143.387 39.0172 143.532 38.6241 143.818 38.3071C144.103 37.9964 144.477 37.8379 144.939 37.8379C145.402 37.8379 145.776 37.9964 146.061 38.3071C146.346 38.6178 146.492 39.0299 146.492 39.5498C146.492 40.095 146.352 40.5262 146.073 40.8495C145.795 41.1665 145.414 41.3314 144.939 41.3314" fill="white"/>
<path d="M155.965 34.2558C155.965 35.5999 155.718 36.7601 155.23 37.7555C154.742 38.7446 154.045 39.4673 153.151 39.9175C152.562 40.2282 151.928 40.3867 151.238 40.3867C150.313 40.3867 149.413 40.114 148.526 39.5688V36.6206C149.254 37.0708 149.964 37.299 150.648 37.299C150.997 37.299 151.32 37.2356 151.612 37.1088C152.467 36.7791 152.892 35.9105 152.892 34.4903V27.1231L155.959 25.2971V34.2558H155.965ZM154.431 23.1922C153.956 23.1922 153.576 23.0337 153.285 22.7104C152.999 22.3934 152.854 21.9686 152.854 21.436C152.854 20.9034 152.999 20.485 153.285 20.1743C153.57 19.8636 153.95 19.7051 154.431 19.7051C154.913 19.7051 155.262 19.8636 155.547 20.1743C155.826 20.485 155.965 20.9098 155.965 21.436C155.965 21.9622 155.826 22.3934 155.547 22.7104C155.268 23.0274 154.894 23.1922 154.431 23.1922Z" fill="white"/>
<path d="M30.3591 79.8857C30.3591 80.488 30.2894 81.1284 30.1563 81.8004C30.0169 82.4725 29.6937 83.1002 29.1678 83.6771C28.6418 84.2541 27.8751 84.7296 26.8549 85.1163C25.8347 85.4967 24.4343 85.6933 22.6663 85.6933H20.176V90.9493C19.2065 90.9493 18.4208 90.9366 17.8061 90.9112C17.1978 90.8859 16.7162 90.7717 16.3677 90.5815C16.0191 90.3913 15.7847 90.0933 15.658 89.6939C15.5312 89.2945 15.4679 88.7175 15.4679 87.9694V77.1024C15.4679 76.3733 15.5186 75.809 15.6199 75.4032C15.7213 75.0038 15.9114 74.7058 16.1966 74.5156C16.4817 74.3254 16.8683 74.2176 17.3625 74.1859C17.8568 74.1542 18.4841 74.1479 19.2509 74.1479H22.4255C24.1745 74.1479 25.5749 74.3318 26.6268 74.6931C27.6787 75.0609 28.4771 75.5174 29.0347 76.0753C29.5923 76.6332 29.9535 77.2546 30.1183 77.9393C30.283 78.624 30.3654 79.2771 30.3654 79.8984M25.5939 79.8857C25.5939 79.6638 25.5749 79.4419 25.5369 79.2137C25.4988 78.9854 25.3848 78.7762 25.1947 78.586C25.0046 78.3958 24.7004 78.2373 24.2885 78.1232C23.8766 78.0027 23.3 77.9456 22.5523 77.9456H20.1697V81.9463H22.5776C23.3254 81.9463 23.902 81.9399 24.3139 81.9209C24.7258 81.9019 25.0236 81.8321 25.22 81.699C25.4101 81.5722 25.5242 81.3693 25.5495 81.084C25.5749 80.7987 25.5939 80.4056 25.5939 79.8921" fill="white"/>
<path d="M47.7913 90.9493H47.0499C46.8471 90.9493 46.6824 90.9493 46.543 90.9366C46.4036 90.9302 46.2832 90.9239 46.1755 90.9239C45.6432 90.8859 45.244 90.7844 44.9715 90.6069C44.699 90.4357 44.4962 90.2075 44.3695 89.9348C44.2428 89.6622 44.1667 89.3579 44.1477 89.0155C44.1287 88.6795 44.1224 88.3245 44.1224 87.9631V84.2414H37.6906V90.9493C36.6704 90.9493 35.853 90.9239 35.2383 90.8795C34.63 90.8351 34.1548 90.7083 33.8126 90.5118C33.4767 90.3089 33.2486 90.0173 33.1409 89.6242C33.0332 89.2311 32.9761 88.6795 32.9761 87.9694V74.0845C33.9773 74.0845 34.7884 74.1099 35.3968 74.1542C36.0051 74.1986 36.4803 74.3191 36.8225 74.5093C37.1583 74.6995 37.3865 74.9911 37.5069 75.3842C37.6273 75.7773 37.6843 76.3226 37.6843 77.0136V80.488H44.116V74.0782C45.1172 74.0782 45.9283 74.1035 46.5493 74.1479C47.1703 74.1923 47.6456 74.3127 47.9878 74.5029C48.3236 74.6932 48.5517 74.9848 48.6721 75.3779C48.7925 75.771 48.8495 76.3162 48.8495 77.0073V90.9429H47.785L47.7913 90.9493Z" fill="white"/>
<path d="M69.5452 90.9429H67.359C67.1246 90.9429 66.9345 90.9429 66.8014 90.9302C66.662 90.9239 66.5416 90.9176 66.4339 90.9176C65.8699 90.8985 65.42 90.8098 65.0905 90.6449C64.761 90.4801 64.4948 90.2709 64.2984 90.0173C64.0956 89.7637 63.9309 89.4593 63.8041 89.1106C63.6774 88.7619 63.5317 88.3878 63.3669 87.9884H56.3902C56.0607 88.8634 55.7629 89.5101 55.4841 89.9158C55.2116 90.3279 54.8694 90.6069 54.4575 90.7654C54.0456 90.9176 53.5197 90.9873 52.867 90.9683C52.2207 90.9493 51.3399 90.9429 50.2246 90.9429L56.3015 76.3479C56.5043 75.8344 56.688 75.4286 56.8655 75.1306C57.0365 74.8263 57.2457 74.6044 57.4928 74.4459C57.7399 74.2937 58.0504 74.1923 58.4243 74.1479C58.7981 74.1035 59.2797 74.0782 59.8627 74.0782H62.3784L69.5452 90.9429ZM59.8564 78.9537L57.7526 84.3999H61.9918L59.8564 78.9537Z" fill="white"/>
<path d="M83.638 90.9493C83.112 90.9493 82.6494 90.9303 82.2692 90.8922C81.889 90.8542 81.5405 90.7717 81.23 90.6323C80.9195 90.4928 80.628 90.3026 80.3556 90.0426C80.0831 89.789 79.7979 89.4403 79.5064 89.0029L76.4395 84.5394C76.2747 84.3048 76.1543 84.0132 76.072 83.6645C75.9896 83.3158 75.9832 82.9797 76.0593 82.65C76.129 82.3203 76.3064 82.0414 76.5916 81.8131C76.8767 81.5849 77.3013 81.4708 77.8652 81.4708H78.8791C79.3734 81.4708 79.7536 81.4644 80.0261 81.4454C80.2985 81.4264 80.5013 81.363 80.628 81.2552C80.7548 81.1474 80.8308 80.9699 80.8498 80.7226C80.8688 80.4754 80.8752 80.1267 80.8752 79.6702C80.8752 79.4863 80.8562 79.2961 80.8181 79.0932C80.7801 78.8903 80.6661 78.7065 80.476 78.5289C80.2859 78.3578 79.9817 78.2119 79.5698 78.1042C79.1579 77.9964 78.5876 77.9393 77.8589 77.9393H75.5333V90.9429C74.5131 90.9429 73.6894 90.9303 73.0684 90.9049C72.4474 90.8795 71.9721 90.7654 71.6426 90.5752C71.3131 90.385 71.0977 90.087 70.9836 89.6876C70.8759 89.2882 70.8188 88.7112 70.8188 87.9631V77.0961C70.8188 76.367 70.8822 75.8027 71.0089 75.3969C71.1357 74.9975 71.3448 74.6995 71.6363 74.5093C71.9278 74.3191 72.3206 74.2113 72.8149 74.1796C73.3092 74.1542 73.9112 74.1416 74.6209 74.1416H77.6878C79.4177 74.1416 80.8055 74.3191 81.8447 74.6741C82.8839 75.0292 83.6823 75.4793 84.24 76.0183C84.7976 76.5572 85.1588 77.1531 85.3362 77.7998C85.5136 78.4465 85.596 79.0742 85.596 79.6765C85.596 80.5324 85.4693 81.2615 85.2158 81.8512C84.9623 82.4472 84.6202 82.9227 84.2019 83.2904C83.7837 83.6581 83.2958 83.9181 82.7382 84.0829C82.1805 84.2477 81.6039 84.3302 81.0019 84.3302L87.1865 90.9556H83.6316L83.638 90.9493Z" fill="white"/>
<path d="M108.554 90.9493C108.199 90.9493 107.914 90.9429 107.692 90.9239C107.179 90.8859 106.786 90.7844 106.513 90.6069C106.241 90.4357 106.038 90.2201 105.911 89.9665C105.785 89.7129 105.709 89.4213 105.69 89.0916C105.671 88.7619 105.664 88.4196 105.664 88.0518V81.0713L102.547 88.7112C102.382 89.1296 102.23 89.4847 102.084 89.7637C101.938 90.049 101.761 90.2772 101.552 90.4484C101.343 90.6196 101.077 90.7464 100.76 90.8288C100.443 90.9112 100.018 90.9493 99.486 90.9493H97.4329L93.2761 81.065V90.9493C92.2875 90.9493 91.4954 90.9239 90.8808 90.8795C90.2725 90.8351 89.7972 90.7147 89.455 90.5245C89.1192 90.3343 88.8911 90.0426 88.7833 89.6622C88.6756 89.2818 88.6186 88.7429 88.6186 88.0455V74.0782H91.0836C91.7236 74.0782 92.2622 74.0782 92.6994 74.0908C93.1366 74.1035 93.5169 74.1733 93.8464 74.3127C94.1759 74.4522 94.461 74.6868 94.7082 75.0228C94.9553 75.3589 95.2151 75.8597 95.4876 76.5128L99.4797 86.4541L103.503 76.4874C103.725 75.9422 103.922 75.5047 104.105 75.1877C104.289 74.8707 104.517 74.6234 104.79 74.4649C105.062 74.3001 105.411 74.1986 105.842 74.1479C106.273 74.1035 106.83 74.0782 107.527 74.0782H110.347V90.9429H108.554V90.9493Z" fill="white"/>
<path d="M131.036 90.9429H128.85C128.616 90.9429 128.426 90.9429 128.286 90.9302C128.147 90.9176 128.026 90.9176 127.919 90.9176C127.355 90.8985 126.905 90.8098 126.575 90.6449C126.246 90.4801 125.98 90.2709 125.783 90.0173C125.581 89.7637 125.416 89.4593 125.289 89.1106C125.162 88.7619 125.017 88.3878 124.852 87.9884H117.875C117.546 88.8634 117.248 89.5101 116.969 89.9158C116.696 90.3279 116.354 90.6069 115.942 90.7654C115.531 90.9176 115.005 90.9873 114.352 90.9683C113.706 90.9493 112.825 90.9429 111.709 90.9429L117.786 76.3479C117.989 75.8344 118.173 75.4286 118.35 75.1306C118.521 74.8263 118.731 74.6044 118.978 74.4459C119.225 74.2937 119.535 74.1923 119.909 74.1479C120.283 74.1035 120.765 74.0782 121.348 74.0782H123.863L131.03 90.9429H131.036ZM121.348 78.9537L119.237 84.3999H123.477L121.341 78.9537H121.348Z" fill="white"/>
<path d="M139.933 91C138.184 91 136.746 90.7654 135.637 90.3026C134.522 89.8397 133.641 89.2121 132.994 88.4259C132.348 87.6397 131.898 86.7394 131.651 85.7123C131.404 84.6915 131.284 83.6327 131.284 82.5359C131.284 81.439 131.404 80.3802 131.651 79.3595C131.898 78.3387 132.342 77.4321 132.994 76.6459C133.641 75.8597 134.522 75.2384 135.637 74.7692C136.752 74.3064 138.172 74.0718 139.908 74.0718H145.465V75.809C145.465 76.2909 145.376 76.6966 145.205 77.0136C145.034 77.3306 144.724 77.5652 144.286 77.711C143.849 77.8569 143.19 77.9266 142.316 77.9266H139.933C138.964 77.9266 138.216 77.952 137.69 78.009C137.158 78.0661 136.771 78.2373 136.524 78.5289C136.277 78.8206 136.137 79.2771 136.099 79.8984C136.061 80.5197 136.042 81.3947 136.042 82.5295C136.042 83.2777 136.099 83.9371 136.207 84.514C136.315 85.091 136.511 85.5728 136.796 85.9659C137.082 86.359 137.468 86.657 137.975 86.8535C138.476 87.0564 139.122 87.1579 139.901 87.1579H142.145C142.873 87.1579 143.456 87.1959 143.894 87.2656C144.331 87.3417 144.667 87.5066 144.907 87.7728C145.142 88.0391 145.294 88.4259 145.357 88.9394C145.421 89.453 145.452 90.1377 145.452 90.9936H139.927L139.933 91Z" fill="white"/>
<path d="M157.803 85.744V90.9493C157.549 90.9493 157.232 90.9493 156.858 90.9619C156.485 90.9683 156.098 90.9619 155.692 90.9493C155.293 90.9302 154.913 90.8922 154.558 90.8288C154.203 90.7654 153.925 90.6576 153.722 90.5118C153.468 90.3279 153.272 90.049 153.145 89.6749C153.018 89.3008 152.955 88.7365 152.955 87.9884V85.744L145.978 74.0781H147.949C148.475 74.0781 148.919 74.0908 149.273 74.1162C149.628 74.1415 149.92 74.1796 150.148 74.224C150.376 74.2684 150.572 74.3318 150.737 74.4015C151.155 74.6044 151.491 74.8897 151.738 75.2638C151.985 75.6378 152.207 76.0055 152.41 76.3733L155.42 82.0414L159.032 75.6632C159.216 75.3715 159.393 75.1243 159.577 74.9214C159.761 74.7185 159.957 74.5663 160.179 74.4586C160.401 74.3508 160.641 74.2747 160.92 74.224C161.193 74.1796 161.522 74.1479 161.909 74.1289C162.181 74.0908 162.549 74.0718 163.005 74.0718H165.083L157.803 85.7377V85.744Z" fill="white"/>
</svg>
