<svg id="splashlogo_light" xmlns="http://www.w3.org/2000/svg" xmlns:xlink="http://www.w3.org/1999/xlink" width="186.938" height="186.938" viewBox="0 0 186.938 186.938">
  <defs>
    <clipPath id="clip-path">
      <path id="Path_27717" data-name="Path 27717" d="M15.039,6.84,12.93,8.229l5.443,8.3H26.5Z" transform="translate(-12.93 -6.84)" fill="none"/>
    </clipPath>
    <clipPath id="clip-path-2">
      <path id="Path_27974" data-name="Path 27974" d="M11.336,0a3.4,3.4,0,0,1,3.286,3.5A3.4,3.4,0,0,1,11.336,7,3.394,3.394,0,0,1,8.05,3.5,3.394,3.394,0,0,1,11.336,0" transform="translate(-8.05)" fill="none"/>
    </clipPath>
    <clipPath id="clip-path-3">
      <path id="Path_27975" data-name="Path 27975" d="M46.911,24.273C33.9,51.848,14.179,42.768,7.6,26.553L3.93,26.9c1.618,9.579,25.965,36.141,42.025-.36,2.215-5.035,5.795-2.861,8.181-6.048-4.928-1.193-7.233,3.8-7.225,3.792" transform="translate(-3.93 -20.305)" fill="none"/>
    </clipPath>
    <linearGradient id="linear-gradient" x1="0.028" y1="0.446" x2="0.929" y2="0.55" gradientUnits="objectBoundingBox">
      <stop offset="0" stop-color="#a5cd39"/>
      <stop offset="1" stop-color="#00a551"/>
    </linearGradient>
  </defs>
  <path id="Path_15153" data-name="Path 15153" d="M123.582,30.112c70.976,0,93.469,22.494,93.469,93.469s-22.494,93.469-93.469,93.469-93.469-22.494-93.469-93.469,22.494-93.469,93.469-93.469" transform="translate(-30.113 -30.112)" fill="#fff"/>
  <g id="Logo-1" transform="translate(18.124 63.846)">
    <g id="Group_5429" data-name="Group 5429" transform="translate(0.01)">
      <path id="Path_27460" data-name="Path 27460" d="M5.584,62.864H5.527a1.575,1.575,0,0,1-1.25-.9c-.343-.768-.114-1.79.768-3.326v-.025c3.114-5.067,6.228-10.208,9.154-15.046l.384-.637.637.351a21.539,21.539,0,0,0,5.795,2.207c.4.09.809.155,1.218.221l1.2.172L16.152,57.969H38.4v4.9H5.584Zm20.3-21.83a14.93,14.93,0,0,1-4.6-.907,19.731,19.731,0,0,1-3.138-1.471l-.719-.417.441-.727c2.346-3.882,5.124-8.459,7.9-13,.016-.041.033-.074.049-.106H25.8L.01,24.476.059,19.85H33.723A2.579,2.579,0,0,1,35.856,21.4a5.511,5.511,0,0,1-.654,4.928L26.343,41.042l-.45-.016Z" transform="translate(-0.01 -3.627)" fill="#037a80" fill-rule="evenodd"/>
      <g id="Group_5426" data-name="Group 5426" transform="translate(10.559 5.59)" clip-path="url(#clip-path)">
        <path id="Path_27461" data-name="Path 27461" d="M25.047,22.874,23.69,21.591l3.416-4.471L28.463,18.4" transform="translate(-14.896 -8.718)" fill="#00a551" fill-rule="evenodd"/>
        <path id="Path_27462" data-name="Path 27462" d="M23.707,21.6l-.057-.057,3.416-4.471.057.057" transform="translate(-14.889 -8.709)" fill="#00a551" fill-rule="evenodd"/>
        <path id="Path_27463" data-name="Path 27463" d="M23.657,21.55,23.6,21.5l3.416-4.471.057.049" transform="translate(-14.879 -8.702)" fill="#00a551" fill-rule="evenodd"/>
        <path id="Path_27464" data-name="Path 27464" d="M23.607,21.508l-.057-.057,3.416-4.471.057.057" transform="translate(-14.87 -8.693)" fill="#00a551" fill-rule="evenodd"/>
        <path id="Path_27465" data-name="Path 27465" d="M23.557,21.468l-.057-.057,3.416-4.471.065.049" transform="translate(-14.861 -8.685)" fill="#00a551" fill-rule="evenodd"/>
        <path id="Path_27466" data-name="Path 27466" d="M23.517,21.418l-.057-.057,3.416-4.471.057.057" transform="translate(-14.854 -8.676)" fill="#00a551" fill-rule="evenodd"/>
        <path id="Path_27467" data-name="Path 27467" d="M23.467,21.378l-.057-.057,3.416-4.471.057.049" transform="translate(-14.845 -8.669)" fill="#00a551" fill-rule="evenodd"/>
        <path id="Path_27468" data-name="Path 27468" d="M23.417,21.328l-.057-.057L26.776,16.8l.057.057" transform="translate(-14.836 -8.66)" fill="#00a551" fill-rule="evenodd"/>
        <path id="Path_27469" data-name="Path 27469" d="M23.367,21.288l-.057-.057,3.416-4.471.065.049" transform="translate(-14.827 -8.652)" fill="#00a551" fill-rule="evenodd"/>
        <path id="Path_27470" data-name="Path 27470" d="M23.327,21.238l-.057-.057,3.416-4.471.057.057" transform="translate(-14.819 -8.643)" fill="#00a551" fill-rule="evenodd"/>
        <path id="Path_27471" data-name="Path 27471" d="M23.277,21.2l-.057-.057,3.416-4.471.057.049" transform="translate(-14.81 -8.636)" fill="#00a551" fill-rule="evenodd"/>
        <path id="Path_27472" data-name="Path 27472" d="M23.227,21.148l-.057-.057,3.416-4.471.057.057" transform="translate(-14.801 -8.627)" fill="#00a551" fill-rule="evenodd"/>
        <path id="Path_27473" data-name="Path 27473" d="M23.185,21.108l-.065-.057,3.424-4.471.057.057" transform="translate(-14.792 -8.62)" fill="#00a551" fill-rule="evenodd"/>
        <path id="Path_27474" data-name="Path 27474" d="M23.137,21.058,23.08,21,26.5,16.53l.057.057" transform="translate(-14.784 -8.61)" fill="#00a551" fill-rule="evenodd"/>
        <path id="Path_27475" data-name="Path 27475" d="M23.087,21.018l-.057-.057,3.416-4.471.057.057" transform="translate(-14.775 -8.603)" fill="#00a551" fill-rule="evenodd"/>
        <path id="Path_27476" data-name="Path 27476" d="M23.037,20.968l-.057-.057L26.4,16.44l.057.057" transform="translate(-14.766 -8.594)" fill="#00a550" fill-rule="evenodd"/>
        <path id="Path_27477" data-name="Path 27477" d="M23,20.928l-.057-.057L26.356,16.4l.057.057" transform="translate(-14.759 -8.587)" fill="#00a550" fill-rule="evenodd"/>
        <path id="Path_27478" data-name="Path 27478" d="M22.947,20.878l-.057-.057,3.416-4.471.057.057" transform="translate(-14.75 -8.578)" fill="#00a550" fill-rule="evenodd"/>
        <path id="Path_27479" data-name="Path 27479" d="M22.9,20.838l-.057-.057,3.416-4.471.057.057" transform="translate(-14.741 -8.57)" fill="#00a550" fill-rule="evenodd"/>
        <path id="Path_27480" data-name="Path 27480" d="M22.847,20.788l-.057-.057,3.416-4.471.065.057" transform="translate(-14.731 -8.561)" fill="#00a550" fill-rule="evenodd"/>
        <path id="Path_27481" data-name="Path 27481" d="M22.807,20.748l-.057-.057,3.416-4.471.057.057" transform="translate(-14.724 -8.554)" fill="#00a550" fill-rule="evenodd"/>
        <path id="Path_27482" data-name="Path 27482" d="M22.757,20.7l-.057-.057,3.416-4.471.057.057" transform="translate(-14.715 -8.545)" fill="#00a550" fill-rule="evenodd"/>
        <path id="Path_27483" data-name="Path 27483" d="M22.707,20.658,22.65,20.6l3.416-4.471.057.057" transform="translate(-14.706 -8.537)" fill="#00a550" fill-rule="evenodd"/>
        <path id="Path_27484" data-name="Path 27484" d="M22.665,20.608l-.065-.057,3.424-4.471.057.057" transform="translate(-14.697 -8.528)" fill="#00a550" fill-rule="evenodd"/>
        <path id="Path_27485" data-name="Path 27485" d="M22.617,20.568l-.057-.057,3.416-4.471.057.057" transform="translate(-14.689 -8.521)" fill="#00a550" fill-rule="evenodd"/>
        <path id="Path_27486" data-name="Path 27486" d="M22.567,20.518l-.057-.057,3.416-4.471.057.057" transform="translate(-14.68 -8.512)" fill="#00a550" fill-rule="evenodd"/>
        <path id="Path_27487" data-name="Path 27487" d="M22.517,20.478l-.057-.057,3.416-4.471.057.057" transform="translate(-14.671 -8.504)" fill="#00a550" fill-rule="evenodd"/>
        <path id="Path_27488" data-name="Path 27488" d="M22.477,20.428l-.057-.057L25.836,15.9l.057.057" transform="translate(-14.664 -8.495)" fill="#00a650" fill-rule="evenodd"/>
        <path id="Path_27489" data-name="Path 27489" d="M22.427,20.388l-.057-.057,3.416-4.471.057.057" transform="translate(-14.655 -8.488)" fill="#00a650" fill-rule="evenodd"/>
        <path id="Path_27490" data-name="Path 27490" d="M22.377,20.338l-.057-.057,3.416-4.471.057.057" transform="translate(-14.646 -8.479)" fill="#00a650" fill-rule="evenodd"/>
        <path id="Path_27491" data-name="Path 27491" d="M22.327,20.3l-.057-.057,3.416-4.471.065.057" transform="translate(-14.636 -8.472)" fill="#00a650" fill-rule="evenodd"/>
        <path id="Path_27492" data-name="Path 27492" d="M22.287,20.248,22.23,20.2l3.416-4.479.057.057" transform="translate(-14.629 -8.462)" fill="#00a650" fill-rule="evenodd"/>
        <path id="Path_27493" data-name="Path 27493" d="M22.237,20.208l-.057-.057L25.6,15.68l.057.057" transform="translate(-14.62 -8.455)" fill="#00a650" fill-rule="evenodd"/>
        <path id="Path_27494" data-name="Path 27494" d="M22.187,20.158l-.057-.049,3.416-4.479.057.057" transform="translate(-14.611 -8.446)" fill="#00a650" fill-rule="evenodd"/>
        <path id="Path_27495" data-name="Path 27495" d="M22.145,20.118l-.065-.057L25.5,15.59l.057.057" transform="translate(-14.602 -8.439)" fill="#00a650" fill-rule="evenodd"/>
        <path id="Path_27496" data-name="Path 27496" d="M22.1,20.068l-.057-.049,3.416-4.479.057.057" transform="translate(-14.594 -8.43)" fill="#00a650" fill-rule="evenodd"/>
        <path id="Path_27497" data-name="Path 27497" d="M22.047,20.028l-.057-.057L25.406,15.5l.057.057" transform="translate(-14.585 -8.422)" fill="#00a650" fill-rule="evenodd"/>
        <path id="Path_27498" data-name="Path 27498" d="M22,19.978l-.057-.049,3.416-4.479.057.057" transform="translate(-14.576 -8.413)" fill="#00a750" fill-rule="evenodd"/>
        <path id="Path_27499" data-name="Path 27499" d="M21.955,19.938l-.065-.057,3.424-4.471.057.057" transform="translate(-14.567 -8.406)" fill="#00a750" fill-rule="evenodd"/>
        <path id="Path_27500" data-name="Path 27500" d="M21.907,19.89l-.057-.049,3.416-4.471.057.049" transform="translate(-14.56 -8.398)" fill="#00a750" fill-rule="evenodd"/>
        <path id="Path_27501" data-name="Path 27501" d="M21.857,19.848l-.057-.057,3.416-4.471.057.057" transform="translate(-14.551 -8.389)" fill="#00a750" fill-rule="evenodd"/>
        <path id="Path_27502" data-name="Path 27502" d="M21.807,19.8l-.057-.049,3.416-4.471.057.049" transform="translate(-14.541 -8.382)" fill="#00a750" fill-rule="evenodd"/>
        <path id="Path_27503" data-name="Path 27503" d="M21.767,19.758,21.71,19.7l3.416-4.471.057.057" transform="translate(-14.534 -8.373)" fill="#00a750" fill-rule="evenodd"/>
        <path id="Path_27504" data-name="Path 27504" d="M21.717,19.71l-.057-.049,3.416-4.471.057.049" transform="translate(-14.525 -8.366)" fill="#00a750" fill-rule="evenodd"/>
        <path id="Path_27505" data-name="Path 27505" d="M21.667,19.668l-.057-.057,3.416-4.471.057.057" transform="translate(-14.516 -8.356)" fill="#00a750" fill-rule="evenodd"/>
        <path id="Path_27506" data-name="Path 27506" d="M21.617,19.62l-.057-.049L24.976,15.1l.065.049" transform="translate(-14.507 -8.349)" fill="#00a74f" fill-rule="evenodd"/>
        <path id="Path_27507" data-name="Path 27507" d="M21.577,19.578l-.057-.057,3.416-4.471.057.057" transform="translate(-14.499 -8.34)" fill="#00a74f" fill-rule="evenodd"/>
        <path id="Path_27508" data-name="Path 27508" d="M21.527,19.53l-.057-.049,3.416-4.471.057.049" transform="translate(-14.49 -8.333)" fill="#00a84f" fill-rule="evenodd"/>
        <path id="Path_27509" data-name="Path 27509" d="M21.477,19.488l-.057-.057,3.416-4.471.057.057" transform="translate(-14.481 -8.324)" fill="#00a84f" fill-rule="evenodd"/>
        <path id="Path_27510" data-name="Path 27510" d="M21.435,19.44l-.065-.049,3.424-4.471.057.049" transform="translate(-14.472 -8.316)" fill="#00a84f" fill-rule="evenodd"/>
        <path id="Path_27511" data-name="Path 27511" d="M21.387,19.4l-.057-.057,3.416-4.471.057.057" transform="translate(-14.465 -8.307)" fill="#00a84f" fill-rule="evenodd"/>
        <path id="Path_27512" data-name="Path 27512" d="M21.337,19.35,21.28,19.3,24.7,14.83l.057.049" transform="translate(-14.456 -8.3)" fill="#00a84f" fill-rule="evenodd"/>
        <path id="Path_27513" data-name="Path 27513" d="M21.287,19.308l-.057-.057,3.416-4.471.057.057" transform="translate(-14.446 -8.291)" fill="#00a84f" fill-rule="evenodd"/>
        <path id="Path_27514" data-name="Path 27514" d="M21.247,19.26l-.057-.049,3.416-4.471.057.049" transform="translate(-14.439 -8.283)" fill="#00a84f" fill-rule="evenodd"/>
        <path id="Path_27515" data-name="Path 27515" d="M21.2,19.218l-.057-.057,3.416-4.471.057.057" transform="translate(-14.43 -8.274)" fill="#00a94f" fill-rule="evenodd"/>
        <path id="Path_27516" data-name="Path 27516" d="M21.147,19.17l-.057-.049,3.416-4.471.057.049" transform="translate(-14.421 -8.267)" fill="#00a94f" fill-rule="evenodd"/>
        <path id="Path_27517" data-name="Path 27517" d="M21.1,19.128l-.057-.057L24.456,14.6l.065.057" transform="translate(-14.412 -8.258)" fill="#00a94f" fill-rule="evenodd"/>
        <path id="Path_27518" data-name="Path 27518" d="M21.057,19.08,21,19.031l3.416-4.471.057.049" transform="translate(-14.404 -8.251)" fill="#00a94f" fill-rule="evenodd"/>
        <path id="Path_27519" data-name="Path 27519" d="M21.007,19.038l-.057-.057,3.416-4.471.057.057" transform="translate(-14.395 -8.241)" fill="#00a94f" fill-rule="evenodd"/>
        <path id="Path_27520" data-name="Path 27520" d="M20.957,18.99l-.057-.049,3.416-4.471.057.049" transform="translate(-14.386 -8.234)" fill="#00a94f" fill-rule="evenodd"/>
        <path id="Path_27521" data-name="Path 27521" d="M20.915,18.948l-.065-.057,3.424-4.471.057.057" transform="translate(-14.377 -8.225)" fill="#00a94f" fill-rule="evenodd"/>
        <path id="Path_27522" data-name="Path 27522" d="M20.867,18.908l-.057-.057,3.416-4.471.057.049" transform="translate(-14.37 -8.218)" fill="#00a94f" fill-rule="evenodd"/>
        <path id="Path_27523" data-name="Path 27523" d="M20.817,18.858,20.76,18.8l3.416-4.471.057.057" transform="translate(-14.361 -8.208)" fill="#00aa4e" fill-rule="evenodd"/>
        <path id="Path_27524" data-name="Path 27524" d="M20.767,18.818l-.057-.057,3.416-4.471.057.049" transform="translate(-14.351 -8.201)" fill="#00aa4e" fill-rule="evenodd"/>
        <path id="Path_27525" data-name="Path 27525" d="M20.725,18.768l-.065-.057,3.424-4.471.057.057" transform="translate(-14.342 -8.192)" fill="#00aa4e" fill-rule="evenodd"/>
        <path id="Path_27526" data-name="Path 27526" d="M20.677,18.728l-.057-.057L24.036,14.2l.057.049" transform="translate(-14.335 -8.185)" fill="#00aa4e" fill-rule="evenodd"/>
        <path id="Path_27527" data-name="Path 27527" d="M20.627,18.678l-.057-.057,3.416-4.471.057.057" transform="translate(-14.326 -8.176)" fill="#00aa4e" fill-rule="evenodd"/>
        <path id="Path_27528" data-name="Path 27528" d="M20.577,18.638l-.057-.057,3.416-4.471.065.057" transform="translate(-14.317 -8.168)" fill="#00aa4e" fill-rule="evenodd"/>
        <path id="Path_27529" data-name="Path 27529" d="M20.537,18.588l-.057-.057L23.9,14.06l.057.057" transform="translate(-14.309 -8.159)" fill="#00ab4e" fill-rule="evenodd"/>
        <path id="Path_27530" data-name="Path 27530" d="M20.487,18.548l-.057-.057,3.416-4.471.057.057" transform="translate(-14.3 -8.152)" fill="#00ab4e" fill-rule="evenodd"/>
        <path id="Path_27531" data-name="Path 27531" d="M20.437,18.5l-.057-.057L23.8,13.97l.057.057" transform="translate(-14.291 -8.143)" fill="#00ab4e" fill-rule="evenodd"/>
        <path id="Path_27532" data-name="Path 27532" d="M20.387,18.458,20.33,18.4l3.416-4.471.065.057" transform="translate(-14.282 -8.135)" fill="#00ab4e" fill-rule="evenodd"/>
        <path id="Path_27533" data-name="Path 27533" d="M20.347,18.408l-.057-.057,3.416-4.471.057.057" transform="translate(-14.275 -8.126)" fill="#00ab4e" fill-rule="evenodd"/>
        <path id="Path_27534" data-name="Path 27534" d="M20.3,18.368l-.057-.057,3.416-4.471.057.057" transform="translate(-14.266 -8.119)" fill="#00ab4e" fill-rule="evenodd"/>
        <path id="Path_27535" data-name="Path 27535" d="M20.247,18.318l-.057-.057,3.416-4.471.057.057" transform="translate(-14.256 -8.11)" fill="#00ab4e" fill-rule="evenodd"/>
        <path id="Path_27536" data-name="Path 27536" d="M20.205,18.278l-.065-.057,3.424-4.471.057.057" transform="translate(-14.247 -8.103)" fill="#00ac4e" fill-rule="evenodd"/>
        <path id="Path_27537" data-name="Path 27537" d="M20.157,18.228l-.057-.057L23.516,13.7l.057.057" transform="translate(-14.24 -8.093)" fill="#00ac4d" fill-rule="evenodd"/>
        <path id="Path_27538" data-name="Path 27538" d="M20.107,18.188l-.057-.057,3.416-4.471.057.057" transform="translate(-14.231 -8.086)" fill="#00ac4d" fill-rule="evenodd"/>
        <path id="Path_27539" data-name="Path 27539" d="M20.057,18.138,20,18.081l3.416-4.471.057.057" transform="translate(-14.222 -8.077)" fill="#00ac4d" fill-rule="evenodd"/>
        <path id="Path_27540" data-name="Path 27540" d="M20.017,18.1l-.057-.057,3.416-4.471.057.057" transform="translate(-14.214 -8.07)" fill="#00ac4d" fill-rule="evenodd"/>
        <path id="Path_27541" data-name="Path 27541" d="M19.967,18.048l-.057-.057,3.416-4.471.057.057" transform="translate(-14.205 -8.06)" fill="#00ad4d" fill-rule="evenodd"/>
        <path id="Path_27542" data-name="Path 27542" d="M19.917,18.008l-.057-.057,3.416-4.471.057.057" transform="translate(-14.196 -8.053)" fill="#00ad4d" fill-rule="evenodd"/>
        <path id="Path_27543" data-name="Path 27543" d="M19.867,17.958,19.81,17.9l3.416-4.471.065.057" transform="translate(-14.187 -8.044)" fill="#00ad4d" fill-rule="evenodd"/>
        <path id="Path_27544" data-name="Path 27544" d="M19.827,17.918l-.057-.057,3.416-4.471.057.057" transform="translate(-14.18 -8.037)" fill="#00ad4d" fill-rule="evenodd"/>
        <path id="Path_27545" data-name="Path 27545" d="M19.777,17.868l-.057-.057,3.416-4.471.057.057" transform="translate(-14.171 -8.028)" fill="#00ad4d" fill-rule="evenodd"/>
        <path id="Path_27546" data-name="Path 27546" d="M19.727,17.828l-.057-.057L23.086,13.3l.057.057" transform="translate(-14.161 -8.02)" fill="#00ae4d" fill-rule="evenodd"/>
        <path id="Path_27547" data-name="Path 27547" d="M19.685,17.778l-.065-.049,3.424-4.479.057.057" transform="translate(-14.152 -8.011)" fill="#00ae4d" fill-rule="evenodd"/>
        <path id="Path_27548" data-name="Path 27548" d="M19.637,17.738l-.057-.057L23,13.21l.057.057" transform="translate(-14.145 -8.004)" fill="#00ae4d" fill-rule="evenodd"/>
        <path id="Path_27549" data-name="Path 27549" d="M19.587,17.688l-.057-.049,3.416-4.479.057.057" transform="translate(-14.136 -7.995)" fill="#00ae4d" fill-rule="evenodd"/>
        <path id="Path_27550" data-name="Path 27550" d="M19.537,17.648l-.057-.057L22.9,13.12l.057.057" transform="translate(-14.127 -7.987)" fill="#00ae4c" fill-rule="evenodd"/>
        <path id="Path_27551" data-name="Path 27551" d="M19.5,17.6l-.057-.049,3.416-4.479.057.057" transform="translate(-14.119 -7.978)" fill="#00af4c" fill-rule="evenodd"/>
        <path id="Path_27552" data-name="Path 27552" d="M19.447,17.558,19.39,17.5l3.416-4.471.057.057" transform="translate(-14.11 -7.971)" fill="#00af4c" fill-rule="evenodd"/>
        <path id="Path_27553" data-name="Path 27553" d="M19.4,17.508l-.057-.049,3.416-4.479.057.057" transform="translate(-14.101 -7.962)" fill="#00af4c" fill-rule="evenodd"/>
        <path id="Path_27554" data-name="Path 27554" d="M19.347,17.468l-.057-.057,3.416-4.471.065.057" transform="translate(-14.092 -7.955)" fill="#00af4c" fill-rule="evenodd"/>
        <path id="Path_27555" data-name="Path 27555" d="M19.307,17.42l-.057-.049L22.666,12.9l.057.049" transform="translate(-14.085 -7.947)" fill="#00af4c" fill-rule="evenodd"/>
        <path id="Path_27556" data-name="Path 27556" d="M19.257,17.378l-.057-.057,3.416-4.471.057.057" transform="translate(-14.076 -7.938)" fill="#00b04c" fill-rule="evenodd"/>
        <path id="Path_27557" data-name="Path 27557" d="M19.207,17.33l-.057-.049,3.416-4.471.057.049" transform="translate(-14.066 -7.931)" fill="#00b04c" fill-rule="evenodd"/>
        <path id="Path_27558" data-name="Path 27558" d="M19.157,17.288l-.057-.057,3.416-4.471.065.057" transform="translate(-14.057 -7.922)" fill="#05b04c" fill-rule="evenodd"/>
        <path id="Path_27559" data-name="Path 27559" d="M19.117,17.24l-.057-.049,3.416-4.471.057.049" transform="translate(-14.05 -7.914)" fill="#05b04c" fill-rule="evenodd"/>
        <path id="Path_27560" data-name="Path 27560" d="M19.067,17.2l-.057-.057,3.416-4.471.057.057" transform="translate(-14.041 -7.905)" fill="#0db04b" fill-rule="evenodd"/>
        <path id="Path_27561" data-name="Path 27561" d="M19.017,17.15,18.96,17.1l3.416-4.471.057.049" transform="translate(-14.032 -7.898)" fill="#14b14b" fill-rule="evenodd"/>
        <path id="Path_27562" data-name="Path 27562" d="M18.975,17.108l-.065-.057,3.424-4.471.057.057" transform="translate(-14.023 -7.889)" fill="#19b14b" fill-rule="evenodd"/>
        <path id="Path_27563" data-name="Path 27563" d="M18.927,17.06l-.057-.049,3.416-4.471.057.049" transform="translate(-14.015 -7.881)" fill="#1db14b" fill-rule="evenodd"/>
        <path id="Path_27564" data-name="Path 27564" d="M18.877,17.018l-.057-.057,3.416-4.471.057.057" transform="translate(-14.006 -7.872)" fill="#21b14b" fill-rule="evenodd"/>
        <path id="Path_27565" data-name="Path 27565" d="M18.827,16.97l-.057-.049,3.416-4.471.057.049" transform="translate(-13.997 -7.865)" fill="#24b24b" fill-rule="evenodd"/>
        <path id="Path_27566" data-name="Path 27566" d="M18.787,16.928l-.057-.057L22.146,12.4l.057.057" transform="translate(-13.99 -7.856)" fill="#24b24b" fill-rule="evenodd"/>
        <path id="Path_27567" data-name="Path 27567" d="M18.737,16.88l-.057-.049L22.1,12.36l.057.049" transform="translate(-13.981 -7.849)" fill="#28b24b" fill-rule="evenodd"/>
        <path id="Path_27568" data-name="Path 27568" d="M18.687,16.838l-.057-.057,3.416-4.471.057.057" transform="translate(-13.971 -7.839)" fill="#2ab24b" fill-rule="evenodd"/>
        <path id="Path_27569" data-name="Path 27569" d="M18.637,16.79l-.057-.049L22,12.27l.065.049" transform="translate(-13.962 -7.832)" fill="#2db24a" fill-rule="evenodd"/>
        <path id="Path_27570" data-name="Path 27570" d="M18.6,16.748l-.057-.057,3.416-4.471.057.057" transform="translate(-13.955 -7.823)" fill="#30b34a" fill-rule="evenodd"/>
        <path id="Path_27571" data-name="Path 27571" d="M18.547,16.7l-.057-.049,3.416-4.471.057.049" transform="translate(-13.946 -7.816)" fill="#32b34a" fill-rule="evenodd"/>
        <path id="Path_27572" data-name="Path 27572" d="M18.5,16.658,18.44,16.6l3.416-4.471.057.057" transform="translate(-13.937 -7.807)" fill="#35b34a" fill-rule="evenodd"/>
        <path id="Path_27573" data-name="Path 27573" d="M18.455,16.61l-.065-.049,3.424-4.471.057.049" transform="translate(-13.928 -7.799)" fill="#37b34a" fill-rule="evenodd"/>
        <path id="Path_27574" data-name="Path 27574" d="M18.407,16.568l-.057-.057,3.416-4.471.057.057" transform="translate(-13.92 -7.79)" fill="#39b44a" fill-rule="evenodd"/>
        <path id="Path_27575" data-name="Path 27575" d="M18.357,16.52l-.057-.049L21.716,12l.057.049" transform="translate(-13.911 -7.783)" fill="#39b44a" fill-rule="evenodd"/>
        <path id="Path_27576" data-name="Path 27576" d="M18.307,16.478l-.057-.057,3.416-4.471.057.057" transform="translate(-13.902 -7.774)" fill="#3cb44a" fill-rule="evenodd"/>
        <path id="Path_27577" data-name="Path 27577" d="M18.267,16.438l-.057-.057,3.416-4.471.057.049" transform="translate(-13.895 -7.766)" fill="#3eb44a" fill-rule="evenodd"/>
        <path id="Path_27578" data-name="Path 27578" d="M18.217,16.388l-.057-.057,3.416-4.471.057.057" transform="translate(-13.886 -7.757)" fill="#40b449" fill-rule="evenodd"/>
        <path id="Path_27579" data-name="Path 27579" d="M18.167,16.348l-.057-.057,3.416-4.471.057.049" transform="translate(-13.876 -7.75)" fill="#42b549" fill-rule="evenodd"/>
        <path id="Path_27580" data-name="Path 27580" d="M18.117,16.3l-.057-.057,3.416-4.471.065.057" transform="translate(-13.867 -7.741)" fill="#44b549" fill-rule="evenodd"/>
        <path id="Path_27581" data-name="Path 27581" d="M18.077,16.258,18.02,16.2l3.416-4.471.057.049" transform="translate(-13.86 -7.733)" fill="#45b549" fill-rule="evenodd"/>
        <path id="Path_27582" data-name="Path 27582" d="M18.027,16.208l-.057-.057,3.416-4.471.057.057" transform="translate(-13.851 -7.724)" fill="#47b549" fill-rule="evenodd"/>
        <path id="Path_27583" data-name="Path 27583" d="M17.977,16.168l-.057-.057,3.416-4.471.057.057" transform="translate(-13.842 -7.717)" fill="#49b649" fill-rule="evenodd"/>
        <path id="Path_27584" data-name="Path 27584" d="M17.935,16.118l-.065-.057,3.424-4.471.057.057" transform="translate(-13.833 -7.708)" fill="#49b649" fill-rule="evenodd"/>
        <path id="Path_27585" data-name="Path 27585" d="M17.887,16.078l-.057-.057,3.416-4.471.057.057" transform="translate(-13.825 -7.701)" fill="#4bb649" fill-rule="evenodd"/>
        <path id="Path_27586" data-name="Path 27586" d="M17.837,16.028l-.057-.057L21.2,11.5l.057.057" transform="translate(-13.816 -7.691)" fill="#4cb648" fill-rule="evenodd"/>
        <path id="Path_27587" data-name="Path 27587" d="M17.787,15.988l-.057-.057,3.416-4.471.057.057" transform="translate(-13.807 -7.684)" fill="#4eb648" fill-rule="evenodd"/>
        <path id="Path_27588" data-name="Path 27588" d="M17.745,15.938l-.065-.057L21.1,11.41l.057.057" transform="translate(-13.798 -7.675)" fill="#50b748" fill-rule="evenodd"/>
        <path id="Path_27589" data-name="Path 27589" d="M17.7,15.9l-.057-.057,3.416-4.471.057.057" transform="translate(-13.791 -7.668)" fill="#51b748" fill-rule="evenodd"/>
        <path id="Path_27590" data-name="Path 27590" d="M17.647,15.848l-.057-.057,3.416-4.471.057.057" transform="translate(-13.781 -7.659)" fill="#53b748" fill-rule="evenodd"/>
        <path id="Path_27591" data-name="Path 27591" d="M17.6,15.808l-.057-.057,3.416-4.471.057.057" transform="translate(-13.772 -7.651)" fill="#54b848" fill-rule="evenodd"/>
        <path id="Path_27592" data-name="Path 27592" d="M17.557,15.758,17.5,15.7l3.416-4.471.057.057" transform="translate(-13.765 -7.642)" fill="#55b848" fill-rule="evenodd"/>
        <path id="Path_27593" data-name="Path 27593" d="M17.507,15.718l-.057-.057,3.416-4.471.057.057" transform="translate(-13.756 -7.635)" fill="#57b847" fill-rule="evenodd"/>
        <path id="Path_27594" data-name="Path 27594" d="M17.457,15.668l-.057-.057,3.416-4.471.057.057" transform="translate(-13.747 -7.626)" fill="#57b847" fill-rule="evenodd"/>
        <path id="Path_27595" data-name="Path 27595" d="M17.407,15.628l-.057-.057L20.766,11.1l.065.057" transform="translate(-13.738 -7.618)" fill="#58b847" fill-rule="evenodd"/>
        <path id="Path_27596" data-name="Path 27596" d="M17.367,15.578l-.057-.057,3.416-4.471.057.057" transform="translate(-13.73 -7.609)" fill="#5ab947" fill-rule="evenodd"/>
        <path id="Path_27597" data-name="Path 27597" d="M17.317,15.538l-.057-.057,3.416-4.471.057.057" transform="translate(-13.721 -7.602)" fill="#5bb947" fill-rule="evenodd"/>
        <path id="Path_27598" data-name="Path 27598" d="M17.267,15.488l-.057-.057,3.416-4.471.057.057" transform="translate(-13.712 -7.593)" fill="#5cb947" fill-rule="evenodd"/>
        <path id="Path_27599" data-name="Path 27599" d="M17.225,15.448l-.065-.057,3.424-4.471.057.057" transform="translate(-13.703 -7.585)" fill="#5eba47" fill-rule="evenodd"/>
        <path id="Path_27600" data-name="Path 27600" d="M17.177,15.4l-.057-.057,3.416-4.471.057.057" transform="translate(-13.696 -7.576)" fill="#5fba46" fill-rule="evenodd"/>
        <path id="Path_27601" data-name="Path 27601" d="M17.127,15.358,17.07,15.3l3.416-4.471.057.057" transform="translate(-13.686 -7.569)" fill="#60ba46" fill-rule="evenodd"/>
        <path id="Path_27602" data-name="Path 27602" d="M17.077,15.308l-.057-.049,3.416-4.479.057.057" transform="translate(-13.677 -7.56)" fill="#62ba46" fill-rule="evenodd"/>
        <path id="Path_27603" data-name="Path 27603" d="M17.037,15.268l-.057-.057L20.4,10.74l.057.057" transform="translate(-13.67 -7.553)" fill="#62ba46" fill-rule="evenodd"/>
        <path id="Path_27604" data-name="Path 27604" d="M16.987,15.218l-.057-.049,3.416-4.479.057.057" transform="translate(-13.661 -7.543)" fill="#63bb46" fill-rule="evenodd"/>
        <path id="Path_27605" data-name="Path 27605" d="M16.937,15.178l-.057-.057L20.3,10.65l.057.057" transform="translate(-13.652 -7.536)" fill="#64bb46" fill-rule="evenodd"/>
        <path id="Path_27606" data-name="Path 27606" d="M16.887,15.128l-.057-.049L20.246,10.6l.065.057" transform="translate(-13.643 -7.527)" fill="#66bb46" fill-rule="evenodd"/>
        <path id="Path_27607" data-name="Path 27607" d="M16.847,15.088l-.057-.057,3.416-4.471.057.057" transform="translate(-13.635 -7.52)" fill="#67bc45" fill-rule="evenodd"/>
        <path id="Path_27608" data-name="Path 27608" d="M16.8,15.038l-.057-.049,3.416-4.479.057.057" transform="translate(-13.626 -7.511)" fill="#68bc45" fill-rule="evenodd"/>
        <path id="Path_27609" data-name="Path 27609" d="M16.747,15l-.057-.057,3.416-4.471.057.057" transform="translate(-13.617 -7.503)" fill="#69bc45" fill-rule="evenodd"/>
        <path id="Path_27610" data-name="Path 27610" d="M16.705,14.95,16.64,14.9l3.424-4.471.057.049" transform="translate(-13.608 -7.496)" fill="#6abc45" fill-rule="evenodd"/>
        <path id="Path_27611" data-name="Path 27611" d="M16.657,14.908l-.057-.057,3.416-4.471.057.057" transform="translate(-13.601 -7.487)" fill="#6cbd45" fill-rule="evenodd"/>
        <path id="Path_27612" data-name="Path 27612" d="M16.607,14.86l-.057-.049,3.416-4.471.057.049" transform="translate(-13.591 -7.479)" fill="#6cbd45" fill-rule="evenodd"/>
        <path id="Path_27613" data-name="Path 27613" d="M16.557,14.818l-.057-.057,3.416-4.471.057.057" transform="translate(-13.582 -7.47)" fill="#6dbd45" fill-rule="evenodd"/>
        <path id="Path_27614" data-name="Path 27614" d="M16.515,14.77l-.065-.049,3.424-4.471.057.049" transform="translate(-13.573 -7.463)" fill="#6ebd44" fill-rule="evenodd"/>
        <path id="Path_27615" data-name="Path 27615" d="M16.467,14.728l-.057-.057L19.826,10.2l.057.057" transform="translate(-13.566 -7.454)" fill="#6fbd44" fill-rule="evenodd"/>
        <path id="Path_27616" data-name="Path 27616" d="M16.417,14.68l-.057-.049,3.416-4.471.057.049" transform="translate(-13.557 -7.447)" fill="#70be44" fill-rule="evenodd"/>
        <path id="Path_27617" data-name="Path 27617" d="M16.367,14.638l-.057-.057,3.416-4.471.065.057" transform="translate(-13.548 -7.437)" fill="#72be44" fill-rule="evenodd"/>
        <path id="Path_27618" data-name="Path 27618" d="M16.327,14.59l-.057-.049,3.416-4.471.057.049" transform="translate(-13.54 -7.43)" fill="#73be44" fill-rule="evenodd"/>
        <path id="Path_27619" data-name="Path 27619" d="M16.277,14.548l-.057-.057,3.416-4.471.057.057" transform="translate(-13.531 -7.421)" fill="#73be44" fill-rule="evenodd"/>
        <path id="Path_27620" data-name="Path 27620" d="M16.227,14.5l-.057-.049L19.586,9.98l.057.049" transform="translate(-13.522 -7.414)" fill="#74bf44" fill-rule="evenodd"/>
        <path id="Path_27621" data-name="Path 27621" d="M16.177,14.458,16.12,14.4,19.536,9.93l.065.057" transform="translate(-13.513 -7.405)" fill="#75bf43" fill-rule="evenodd"/>
        <path id="Path_27622" data-name="Path 27622" d="M16.137,14.41l-.057-.049L19.5,9.89l.057.049" transform="translate(-13.506 -7.397)" fill="#76bf43" fill-rule="evenodd"/>
        <path id="Path_27623" data-name="Path 27623" d="M16.087,14.368l-.057-.057L19.446,9.84,19.5,9.9" transform="translate(-13.496 -7.388)" fill="#77bf43" fill-rule="evenodd"/>
        <path id="Path_27624" data-name="Path 27624" d="M16.037,14.32l-.057-.049L19.4,9.8l.057.049" transform="translate(-13.487 -7.381)" fill="#79c043" fill-rule="evenodd"/>
        <path id="Path_27625" data-name="Path 27625" d="M16,14.278l-.065-.057L19.354,9.75l.057.057" transform="translate(-13.478 -7.372)" fill="#79c043" fill-rule="evenodd"/>
        <path id="Path_27626" data-name="Path 27626" d="M15.947,14.23l-.057-.049L19.306,9.71l.057.049" transform="translate(-13.471 -7.364)" fill="#7ac043" fill-rule="evenodd"/>
        <path id="Path_27627" data-name="Path 27627" d="M15.9,14.188l-.057-.057L19.256,9.66l.057.057" transform="translate(-13.462 -7.355)" fill="#7bc043" fill-rule="evenodd"/>
        <path id="Path_27628" data-name="Path 27628" d="M15.847,14.14l-.057-.049L19.206,9.62l.057.049" transform="translate(-13.453 -7.348)" fill="#7cc142" fill-rule="evenodd"/>
        <path id="Path_27629" data-name="Path 27629" d="M15.807,14.1l-.057-.057L19.166,9.57l.057.057" transform="translate(-13.445 -7.339)" fill="#7dc142" fill-rule="evenodd"/>
        <path id="Path_27630" data-name="Path 27630" d="M15.757,14.05,15.7,14,19.116,9.53l.057.049" transform="translate(-13.436 -7.331)" fill="#7ec142" fill-rule="evenodd"/>
        <path id="Path_27631" data-name="Path 27631" d="M15.707,14.008l-.057-.057L19.066,9.48l.057.057" transform="translate(-13.427 -7.322)" fill="#7ec142" fill-rule="evenodd"/>
        <path id="Path_27632" data-name="Path 27632" d="M15.657,13.968l-.057-.057L19.016,9.44l.065.049" transform="translate(-13.418 -7.315)" fill="#7fc142" fill-rule="evenodd"/>
        <path id="Path_27633" data-name="Path 27633" d="M15.617,13.918l-.057-.057L18.976,9.39l.057.057" transform="translate(-13.411 -7.306)" fill="#80c242" fill-rule="evenodd"/>
        <path id="Path_27634" data-name="Path 27634" d="M15.567,13.878l-.057-.057L18.926,9.35l.057.049" transform="translate(-13.401 -7.299)" fill="#80c241" fill-rule="evenodd"/>
        <path id="Path_27635" data-name="Path 27635" d="M15.517,13.828l-.057-.057L18.876,9.3l.057.057" transform="translate(-13.392 -7.289)" fill="#80c241" fill-rule="evenodd"/>
        <path id="Path_27636" data-name="Path 27636" d="M15.475,13.788l-.065-.057L18.834,9.26l.057.049" transform="translate(-13.383 -7.282)" fill="#81c241" fill-rule="evenodd"/>
        <path id="Path_27637" data-name="Path 27637" d="M15.427,13.738l-.057-.057L18.786,9.21l.057.057" transform="translate(-13.376 -7.273)" fill="#82c341" fill-rule="evenodd"/>
        <path id="Path_27638" data-name="Path 27638" d="M15.377,13.7l-.057-.057L18.736,9.17l.057.057" transform="translate(-13.367 -7.266)" fill="#83c341" fill-rule="evenodd"/>
        <path id="Path_27639" data-name="Path 27639" d="M15.327,13.648l-.057-.057L18.686,9.12l.057.057" transform="translate(-13.358 -7.257)" fill="#84c341" fill-rule="evenodd"/>
        <path id="Path_27640" data-name="Path 27640" d="M15.287,13.608l-.057-.057L18.646,9.08l.057.057" transform="translate(-13.35 -7.249)" fill="#84c341" fill-rule="evenodd"/>
        <path id="Path_27641" data-name="Path 27641" d="M15.237,13.558,15.18,13.5,18.6,9.03l.057.057" transform="translate(-13.341 -7.24)" fill="#85c340" fill-rule="evenodd"/>
        <path id="Path_27642" data-name="Path 27642" d="M15.187,13.518l-.057-.057L18.546,8.99l.057.057" transform="translate(-13.332 -7.233)" fill="#86c440" fill-rule="evenodd"/>
        <path id="Path_27643" data-name="Path 27643" d="M15.137,13.468l-.057-.057L18.5,8.94,18.562,9" transform="translate(-13.323 -7.224)" fill="#87c440" fill-rule="evenodd"/>
        <path id="Path_27644" data-name="Path 27644" d="M15.1,13.428l-.057-.057L18.456,8.9l.057.057" transform="translate(-13.316 -7.216)" fill="#87c440" fill-rule="evenodd"/>
        <path id="Path_27645" data-name="Path 27645" d="M15.047,13.378l-.057-.057L18.406,8.85l.057.057" transform="translate(-13.306 -7.207)" fill="#88c440" fill-rule="evenodd"/>
        <path id="Path_27646" data-name="Path 27646" d="M15,13.338l-.057-.057L18.356,8.81l.057.057" transform="translate(-13.297 -7.2)" fill="#89c540" fill-rule="evenodd"/>
        <path id="Path_27647" data-name="Path 27647" d="M14.947,13.288l-.057-.057L18.314,8.76l.057.057" transform="translate(-13.288 -7.191)" fill="#89c540" fill-rule="evenodd"/>
        <path id="Path_27648" data-name="Path 27648" d="M14.907,13.248l-.057-.057L18.266,8.72l.057.057" transform="translate(-13.281 -7.183)" fill="#8ac53f" fill-rule="evenodd"/>
        <path id="Path_27649" data-name="Path 27649" d="M14.857,13.2l-.057-.057L18.216,8.67l.057.057" transform="translate(-13.272 -7.174)" fill="#8bc53f" fill-rule="evenodd"/>
        <path id="Path_27650" data-name="Path 27650" d="M14.807,13.158,14.75,13.1,18.166,8.63l.057.057" transform="translate(-13.263 -7.167)" fill="#8cc63f" fill-rule="evenodd"/>
        <path id="Path_27651" data-name="Path 27651" d="M14.765,13.108l-.065-.057L18.124,8.58l.057.057" transform="translate(-13.253 -7.158)" fill="#8cc63f" fill-rule="evenodd"/>
        <path id="Path_27652" data-name="Path 27652" d="M14.717,13.068l-.057-.057L18.076,8.54l.057.057" transform="translate(-13.246 -7.151)" fill="#8dc63f" fill-rule="evenodd"/>
        <path id="Path_27653" data-name="Path 27653" d="M14.667,13.018l-.057-.057L18.026,8.49l.057.057" transform="translate(-13.237 -7.141)" fill="#8ec63e" fill-rule="evenodd"/>
        <path id="Path_27654" data-name="Path 27654" d="M14.617,12.978l-.057-.057L17.976,8.45l.057.057" transform="translate(-13.228 -7.134)" fill="#8ec63e" fill-rule="evenodd"/>
        <path id="Path_27655" data-name="Path 27655" d="M14.577,12.928l-.057-.057L17.936,8.4l.057.057" transform="translate(-13.221 -7.125)" fill="#8fc63e" fill-rule="evenodd"/>
        <path id="Path_27656" data-name="Path 27656" d="M14.527,12.888l-.057-.057L17.886,8.36l.057.057" transform="translate(-13.211 -7.118)" fill="#90c73e" fill-rule="evenodd"/>
        <path id="Path_27657" data-name="Path 27657" d="M14.477,12.838l-.057-.049L17.836,8.31l.057.057" transform="translate(-13.202 -7.109)" fill="#90c73e" fill-rule="evenodd"/>
        <path id="Path_27658" data-name="Path 27658" d="M14.427,12.8l-.057-.057L17.786,8.27l.065.057" transform="translate(-13.193 -7.101)" fill="#91c73e" fill-rule="evenodd"/>
        <path id="Path_27659" data-name="Path 27659" d="M14.387,12.748,14.33,12.7,17.746,8.22l.057.057" transform="translate(-13.186 -7.092)" fill="#91c73e" fill-rule="evenodd"/>
        <path id="Path_27660" data-name="Path 27660" d="M14.337,12.708l-.057-.057L17.7,8.18l.057.057" transform="translate(-13.177 -7.085)" fill="#92c73e" fill-rule="evenodd"/>
        <path id="Path_27661" data-name="Path 27661" d="M14.287,12.658l-.057-.049L17.646,8.13l.057.057" transform="translate(-13.168 -7.076)" fill="#93c83d" fill-rule="evenodd"/>
        <path id="Path_27662" data-name="Path 27662" d="M14.245,12.618l-.065-.057L17.6,8.09l.057.057" transform="translate(-13.158 -7.068)" fill="#93c83d" fill-rule="evenodd"/>
        <path id="Path_27663" data-name="Path 27663" d="M14.2,12.568l-.057-.049L17.556,8.04l.057.057" transform="translate(-13.151 -7.059)" fill="#94c83d" fill-rule="evenodd"/>
        <path id="Path_27664" data-name="Path 27664" d="M14.147,12.528l-.057-.057L17.506,8l.057.057" transform="translate(-13.142 -7.052)" fill="#95c83d" fill-rule="evenodd"/>
        <path id="Path_27665" data-name="Path 27665" d="M14.1,12.48l-.057-.049L17.456,7.96l.057.049" transform="translate(-13.133 -7.045)" fill="#95c83d" fill-rule="evenodd"/>
        <path id="Path_27666" data-name="Path 27666" d="M14.057,12.438,14,12.381,17.416,7.91l.057.057" transform="translate(-13.125 -7.035)" fill="#96c93d" fill-rule="evenodd"/>
        <path id="Path_27667" data-name="Path 27667" d="M14.007,12.39l-.057-.049L17.366,7.87l.057.049" transform="translate(-13.116 -7.028)" fill="#96c93d" fill-rule="evenodd"/>
        <path id="Path_27668" data-name="Path 27668" d="M13.957,12.348l-.057-.057L17.316,7.82l.057.057" transform="translate(-13.107 -7.019)" fill="#97c93c" fill-rule="evenodd"/>
        <path id="Path_27669" data-name="Path 27669" d="M13.907,12.3l-.057-.049L17.266,7.78l.065.049" transform="translate(-13.098 -7.012)" fill="#97c93c" fill-rule="evenodd"/>
        <path id="Path_27670" data-name="Path 27670" d="M13.867,12.258,13.81,12.2,17.226,7.73l.057.057" transform="translate(-13.091 -7.003)" fill="#98c93c" fill-rule="evenodd"/>
        <path id="Path_27671" data-name="Path 27671" d="M13.817,12.21l-.057-.049L17.176,7.69l.057.049" transform="translate(-13.082 -6.995)" fill="#98c93c" fill-rule="evenodd"/>
        <path id="Path_27672" data-name="Path 27672" d="M13.767,12.168l-.057-.057L17.126,7.64l.057.057" transform="translate(-13.073 -6.986)" fill="#99ca3c" fill-rule="evenodd"/>
        <path id="Path_27673" data-name="Path 27673" d="M13.725,12.12l-.065-.049L17.084,7.6l.057.049" transform="translate(-13.063 -6.979)" fill="#99ca3c" fill-rule="evenodd"/>
        <path id="Path_27674" data-name="Path 27674" d="M13.677,12.078l-.057-.057L17.036,7.55l.057.057" transform="translate(-13.056 -6.97)" fill="#9aca3c" fill-rule="evenodd"/>
        <path id="Path_27675" data-name="Path 27675" d="M13.627,12.03l-.057-.049L16.986,7.51l.057.049" transform="translate(-13.047 -6.962)" fill="#9aca3c" fill-rule="evenodd"/>
        <path id="Path_27676" data-name="Path 27676" d="M13.577,11.988l-.057-.057L16.936,7.46l.057.057" transform="translate(-13.038 -6.953)" fill="#9bca3b" fill-rule="evenodd"/>
        <path id="Path_27677" data-name="Path 27677" d="M13.535,11.94l-.065-.049L16.894,7.42l.057.049" transform="translate(-13.029 -6.946)" fill="#9bca3b" fill-rule="evenodd"/>
        <path id="Path_27678" data-name="Path 27678" d="M13.487,11.9l-.057-.057L16.846,7.37l.057.057" transform="translate(-13.021 -6.937)" fill="#9cca3b" fill-rule="evenodd"/>
        <path id="Path_27679" data-name="Path 27679" d="M13.437,11.85,13.38,11.8,16.8,7.33l.057.049" transform="translate(-13.012 -6.93)" fill="#9cca3b" fill-rule="evenodd"/>
        <path id="Path_27680" data-name="Path 27680" d="M13.387,11.808l-.057-.057L16.746,7.28l.057.057" transform="translate(-13.003 -6.92)" fill="#9dcb3b" fill-rule="evenodd"/>
        <path id="Path_27681" data-name="Path 27681" d="M13.347,11.76l-.057-.049L16.706,7.24l.057.049" transform="translate(-12.996 -6.913)" fill="#9dcb3b" fill-rule="evenodd"/>
        <path id="Path_27682" data-name="Path 27682" d="M13.3,11.718l-.057-.057L16.656,7.19l.057.057" transform="translate(-12.987 -6.904)" fill="#9ecb3b" fill-rule="evenodd"/>
        <path id="Path_27683" data-name="Path 27683" d="M13.247,11.67l-.057-.049L16.606,7.15l.057.049" transform="translate(-12.978 -6.897)" fill="#9ecb3b" fill-rule="evenodd"/>
        <path id="Path_27684" data-name="Path 27684" d="M13.2,11.628l-.057-.057L16.556,7.1l.065.057" transform="translate(-12.968 -6.888)" fill="#9ecb3b" fill-rule="evenodd"/>
        <path id="Path_27685" data-name="Path 27685" d="M13.157,11.58l-.057-.049L16.516,7.06l.057.049" transform="translate(-12.961 -6.88)" fill="#9fcb3a" fill-rule="evenodd"/>
        <path id="Path_27686" data-name="Path 27686" d="M13.107,11.538l-.057-.057L16.466,7.01l.057.057" transform="translate(-12.952 -6.871)" fill="#9fcb3a" fill-rule="evenodd"/>
        <path id="Path_27687" data-name="Path 27687" d="M13.057,11.5,13,11.441,16.416,6.97l.057.049" transform="translate(-12.943 -6.864)" fill="#a0cc3a" fill-rule="evenodd"/>
        <path id="Path_27688" data-name="Path 27688" d="M13.015,11.448l-.065-.057L16.374,6.92l.057.057" transform="translate(-12.934 -6.855)" fill="#a0cc3a" fill-rule="evenodd"/>
        <path id="Path_27689" data-name="Path 27689" d="M12.967,11.408l-.057-.057L16.326,6.88l.057.049" transform="translate(-12.926 -6.847)" fill="#a0cc3a" fill-rule="evenodd"/>
        <path id="Path_27690" data-name="Path 27690" d="M12.917,11.358,12.86,11.3,16.276,6.83l.057.057" transform="translate(-12.917 -6.838)" fill="#a1cc3a" fill-rule="evenodd"/>
        <path id="Path_27691" data-name="Path 27691" d="M12.867,11.318l-.057-.057L16.226,6.79l.057.049" transform="translate(-12.908 -6.831)" fill="#a1cc3a" fill-rule="evenodd"/>
        <path id="Path_27692" data-name="Path 27692" d="M12.827,11.268l-.057-.057L16.186,6.74l.057.057" transform="translate(-12.901 -6.822)" fill="#a1cc3a" fill-rule="evenodd"/>
        <path id="Path_27693" data-name="Path 27693" d="M12.777,11.228l-.057-.057L16.136,6.7l.057.057" transform="translate(-12.892 -6.814)" fill="#a1cc3a" fill-rule="evenodd"/>
        <path id="Path_27694" data-name="Path 27694" d="M12.727,11.178l-.057-.057L16.086,6.65l.057.057" transform="translate(-12.882 -6.805)" fill="#a2cc39" fill-rule="evenodd"/>
        <path id="Path_27695" data-name="Path 27695" d="M12.677,11.138l-.057-.057L16.036,6.61l.065.057" transform="translate(-12.873 -6.798)" fill="#a2cc39" fill-rule="evenodd"/>
        <path id="Path_27696" data-name="Path 27696" d="M12.637,11.088l-.057-.057L16,6.56l.057.057" transform="translate(-12.866 -6.789)" fill="#a2cc39" fill-rule="evenodd"/>
        <path id="Path_27697" data-name="Path 27697" d="M12.587,11.048l-.057-.057L15.946,6.52,16,6.577" transform="translate(-12.857 -6.782)" fill="#a3cd39" fill-rule="evenodd"/>
        <path id="Path_27698" data-name="Path 27698" d="M12.537,11l-.057-.057L15.9,6.47l.057.057" transform="translate(-12.848 -6.772)" fill="#a3cd39" fill-rule="evenodd"/>
        <path id="Path_27699" data-name="Path 27699" d="M12.5,10.958,12.43,10.9,15.854,6.43l.057.057" transform="translate(-12.839 -6.765)" fill="#a3cd39" fill-rule="evenodd"/>
        <path id="Path_27700" data-name="Path 27700" d="M12.447,10.908l-.057-.057L15.806,6.38l.057.057" transform="translate(-12.831 -6.756)" fill="#a3cd39" fill-rule="evenodd"/>
        <path id="Path_27701" data-name="Path 27701" d="M12.4,10.868l-.057-.057L15.756,6.34l.057.057" transform="translate(-12.822 -6.749)" fill="#a3cd39" fill-rule="evenodd"/>
        <path id="Path_27702" data-name="Path 27702" d="M12.347,10.818l-.057-.057L15.706,6.29l.057.057" transform="translate(-12.813 -6.74)" fill="#a4cd39" fill-rule="evenodd"/>
        <path id="Path_27703" data-name="Path 27703" d="M12.307,10.778l-.057-.057L15.666,6.25l.057.057" transform="translate(-12.806 -6.732)" fill="#a4cd39" fill-rule="evenodd"/>
        <path id="Path_27704" data-name="Path 27704" d="M12.257,10.728l-.057-.057L15.616,6.2l.057.057" transform="translate(-12.797 -6.723)" fill="#a4cd39" fill-rule="evenodd"/>
        <path id="Path_27705" data-name="Path 27705" d="M12.207,10.688l-.057-.057L15.566,6.16l.057.057" transform="translate(-12.787 -6.716)" fill="#a4cd39" fill-rule="evenodd"/>
        <path id="Path_27706" data-name="Path 27706" d="M12.157,10.638l-.057-.057L15.516,6.11l.065.057" transform="translate(-12.778 -6.707)" fill="#a4cd39" fill-rule="evenodd"/>
        <path id="Path_27707" data-name="Path 27707" d="M12.117,10.6l-.057-.057L15.476,6.07l.057.057" transform="translate(-12.771 -6.699)" fill="#a4cd39" fill-rule="evenodd"/>
        <path id="Path_27708" data-name="Path 27708" d="M12.067,10.548l-.057-.057L15.426,6.02l.057.057" transform="translate(-12.762 -6.69)" fill="#a5cd39" fill-rule="evenodd"/>
        <path id="Path_27709" data-name="Path 27709" d="M12.017,10.508l-.057-.057L15.376,5.98l.057.057" transform="translate(-12.753 -6.683)" fill="#a5cd39" fill-rule="evenodd"/>
        <path id="Path_27710" data-name="Path 27710" d="M11.967,10.458,11.91,10.4,15.326,5.93l.065.057" transform="translate(-12.744 -6.674)" fill="#a5cd39" fill-rule="evenodd"/>
        <path id="Path_27711" data-name="Path 27711" d="M11.927,10.418l-.057-.057L15.286,5.89l.057.057" transform="translate(-12.736 -6.666)" fill="#a5cd39" fill-rule="evenodd"/>
        <path id="Path_27712" data-name="Path 27712" d="M11.877,10.368l-.057-.049L15.236,5.84l.057.057" transform="translate(-12.727 -6.657)" fill="#a5cd39" fill-rule="evenodd"/>
        <path id="Path_27713" data-name="Path 27713" d="M11.827,10.328l-.057-.057L15.186,5.8l.057.057" transform="translate(-12.718 -6.65)" fill="#a5cd39" fill-rule="evenodd"/>
        <path id="Path_27714" data-name="Path 27714" d="M11.785,10.278l-.065-.049L15.144,5.75l.057.057" transform="translate(-12.709 -6.641)" fill="#a5cd39" fill-rule="evenodd"/>
        <path id="Path_27715" data-name="Path 27715" d="M11.737,10.238l-.057-.057L15.1,5.71l.057.057" transform="translate(-12.702 -6.634)" fill="#a5cd39" fill-rule="evenodd"/>
        <path id="Path_27716" data-name="Path 27716" d="M11.614,10.12l-.384-.36L14.646,5.29l.384.36" transform="translate(-12.619 -6.557)" fill="#a5cd39" fill-rule="evenodd"/>
      </g>
      <g id="Group_5427" data-name="Group 5427" transform="translate(6.571)" clip-path="url(#clip-path-2)">
        <path id="Path_27718" data-name="Path 27718" d="M8.05,0h.008V6.988H8.05" transform="translate(-8.05)" fill="#a5cd39" fill-rule="evenodd"/>
        <path id="Path_27719" data-name="Path 27719" d="M8.05,0h.041V6.988H8.05" transform="translate(-8.05)" fill="#a5cd39" fill-rule="evenodd"/>
        <path id="Path_27720" data-name="Path 27720" d="M8.08,0h.041V6.988H8.08" transform="translate(-8.055)" fill="#a5cd39" fill-rule="evenodd"/>
        <path id="Path_27721" data-name="Path 27721" d="M8.11,0h.041V6.988H8.11" transform="translate(-8.061)" fill="#a5cd39" fill-rule="evenodd"/>
        <path id="Path_27722" data-name="Path 27722" d="M8.14,0h.041V6.988H8.14" transform="translate(-8.066)" fill="#a5cd39" fill-rule="evenodd"/>
        <path id="Path_27723" data-name="Path 27723" d="M8.17,0h.041V6.988H8.17" transform="translate(-8.072)" fill="#a5cd39" fill-rule="evenodd"/>
        <path id="Path_27724" data-name="Path 27724" d="M8.21,0h.033V6.988H8.21" transform="translate(-8.079)" fill="#a5cd39" fill-rule="evenodd"/>
        <path id="Path_27725" data-name="Path 27725" d="M8.24,0h.033V6.988H8.24" transform="translate(-8.085)" fill="#a5cd39" fill-rule="evenodd"/>
        <path id="Path_27726" data-name="Path 27726" d="M8.27,0h.041V6.988H8.27" transform="translate(-8.09)" fill="#a5cd39" fill-rule="evenodd"/>
        <path id="Path_27727" data-name="Path 27727" d="M8.3,0h.041V6.988H8.3" transform="translate(-8.096)" fill="#a4cd39" fill-rule="evenodd"/>
        <path id="Path_27728" data-name="Path 27728" d="M8.33,0h.041V6.988H8.33" transform="translate(-8.101)" fill="#a4cd39" fill-rule="evenodd"/>
        <path id="Path_27729" data-name="Path 27729" d="M8.36,0H8.4V6.988H8.36" transform="translate(-8.107)" fill="#a4cd39" fill-rule="evenodd"/>
        <path id="Path_27730" data-name="Path 27730" d="M8.39,0h.041V6.988H8.39" transform="translate(-8.112)" fill="#a4cd39" fill-rule="evenodd"/>
        <path id="Path_27731" data-name="Path 27731" d="M8.42,0h.041V6.988H8.428" transform="translate(-8.118)" fill="#a4cd39" fill-rule="evenodd"/>
        <path id="Path_27732" data-name="Path 27732" d="M8.46,0h.033V6.988H8.46" transform="translate(-8.125)" fill="#a4cd39" fill-rule="evenodd"/>
        <path id="Path_27733" data-name="Path 27733" d="M8.49,0h.033l.008,6.988H8.49" transform="translate(-8.13)" fill="#a3cd39" fill-rule="evenodd"/>
        <path id="Path_27734" data-name="Path 27734" d="M8.52,0h.041V6.988H8.52" transform="translate(-8.136)" fill="#a3cd39" fill-rule="evenodd"/>
        <path id="Path_27735" data-name="Path 27735" d="M8.55,0h.041V6.988H8.55" transform="translate(-8.141)" fill="#a3cd39" fill-rule="evenodd"/>
        <path id="Path_27736" data-name="Path 27736" d="M8.58,0h.041V6.988H8.58" transform="translate(-8.147)" fill="#a3cd39" fill-rule="evenodd"/>
        <path id="Path_27737" data-name="Path 27737" d="M8.61,0h.041V6.988H8.61" transform="translate(-8.152)" fill="#a3cd39" fill-rule="evenodd"/>
        <path id="Path_27738" data-name="Path 27738" d="M8.64,0h.041V6.988H8.648" transform="translate(-8.158)" fill="#a2cc39" fill-rule="evenodd"/>
        <path id="Path_27739" data-name="Path 27739" d="M8.68,0h.033V6.988H8.68" transform="translate(-8.165)" fill="#a2cc39" fill-rule="evenodd"/>
        <path id="Path_27740" data-name="Path 27740" d="M8.71,0h.033l.008,6.988H8.71" transform="translate(-8.171)" fill="#a2cc39" fill-rule="evenodd"/>
        <path id="Path_27741" data-name="Path 27741" d="M8.74,0h.041V6.988H8.74" transform="translate(-8.176)" fill="#a1cc3a" fill-rule="evenodd"/>
        <path id="Path_27742" data-name="Path 27742" d="M8.77,0h.041V6.988H8.77" transform="translate(-8.182)" fill="#a1cc3a" fill-rule="evenodd"/>
        <path id="Path_27743" data-name="Path 27743" d="M8.8,0h.041V6.988H8.8" transform="translate(-8.187)" fill="#a1cc3a" fill-rule="evenodd"/>
        <path id="Path_27744" data-name="Path 27744" d="M8.83,0h.041V6.988H8.83" transform="translate(-8.193)" fill="#a1cc3a" fill-rule="evenodd"/>
        <path id="Path_27745" data-name="Path 27745" d="M8.86,0H8.9V6.988H8.868" transform="translate(-8.198)" fill="#a0cc3a" fill-rule="evenodd"/>
        <path id="Path_27746" data-name="Path 27746" d="M8.9,0h.033V6.988H8.9" transform="translate(-8.205)" fill="#a0cc3a" fill-rule="evenodd"/>
        <path id="Path_27747" data-name="Path 27747" d="M8.93,0h.033l.008,6.988H8.93" transform="translate(-8.211)" fill="#a0cc3a" fill-rule="evenodd"/>
        <path id="Path_27748" data-name="Path 27748" d="M8.96,0H9V6.988H8.96" transform="translate(-8.216)" fill="#9fcb3a" fill-rule="evenodd"/>
        <path id="Path_27749" data-name="Path 27749" d="M8.99,0h.041V6.988H8.99" transform="translate(-8.222)" fill="#9fcb3a" fill-rule="evenodd"/>
        <path id="Path_27750" data-name="Path 27750" d="M9.02,0h.041V6.988H9.02" transform="translate(-8.227)" fill="#9ecb3b" fill-rule="evenodd"/>
        <path id="Path_27751" data-name="Path 27751" d="M9.05,0h.041V6.988H9.05" transform="translate(-8.233)" fill="#9ecb3b" fill-rule="evenodd"/>
        <path id="Path_27752" data-name="Path 27752" d="M9.08,0h.041V6.988H9.088" transform="translate(-8.238)" fill="#9ecb3b" fill-rule="evenodd"/>
        <path id="Path_27753" data-name="Path 27753" d="M9.12,0h.033V6.988H9.12" transform="translate(-8.245)" fill="#9dcb3b" fill-rule="evenodd"/>
        <path id="Path_27754" data-name="Path 27754" d="M9.15,0h.033l.008,6.988H9.15" transform="translate(-8.251)" fill="#9dcb3b" fill-rule="evenodd"/>
        <path id="Path_27755" data-name="Path 27755" d="M9.18,0h.041V6.988H9.18" transform="translate(-8.256)" fill="#9cca3b" fill-rule="evenodd"/>
        <path id="Path_27756" data-name="Path 27756" d="M9.21,0h.041V6.988H9.21" transform="translate(-8.262)" fill="#9cca3b" fill-rule="evenodd"/>
        <path id="Path_27757" data-name="Path 27757" d="M9.24,0h.041V6.988H9.24" transform="translate(-8.267)" fill="#9bca3b" fill-rule="evenodd"/>
        <path id="Path_27758" data-name="Path 27758" d="M9.27,0h.041V6.988H9.27" transform="translate(-8.273)" fill="#9bca3b" fill-rule="evenodd"/>
        <path id="Path_27759" data-name="Path 27759" d="M9.3,0h.041V6.988H9.3" transform="translate(-8.278)" fill="#9aca3c" fill-rule="evenodd"/>
        <path id="Path_27760" data-name="Path 27760" d="M9.34,0h.033V6.988H9.34" transform="translate(-8.286)" fill="#9aca3c" fill-rule="evenodd"/>
        <path id="Path_27761" data-name="Path 27761" d="M9.37,0H9.4V6.988H9.37" transform="translate(-8.291)" fill="#99ca3c" fill-rule="evenodd"/>
        <path id="Path_27762" data-name="Path 27762" d="M9.4,0h.041V6.988H9.4" transform="translate(-8.297)" fill="#99ca3c" fill-rule="evenodd"/>
        <path id="Path_27763" data-name="Path 27763" d="M9.43,0h.041V6.988H9.43" transform="translate(-8.302)" fill="#98c93c" fill-rule="evenodd"/>
        <path id="Path_27764" data-name="Path 27764" d="M9.46,0H9.5V6.988H9.46" transform="translate(-8.308)" fill="#98c93c" fill-rule="evenodd"/>
        <path id="Path_27765" data-name="Path 27765" d="M9.49,0h.041V6.988H9.49" transform="translate(-8.313)" fill="#97c93c" fill-rule="evenodd"/>
        <path id="Path_27766" data-name="Path 27766" d="M9.52,0h.041V6.988H9.52" transform="translate(-8.319)" fill="#97c93c" fill-rule="evenodd"/>
        <path id="Path_27767" data-name="Path 27767" d="M9.56,0h.033V6.988H9.56" transform="translate(-8.326)" fill="#96c93d" fill-rule="evenodd"/>
        <path id="Path_27768" data-name="Path 27768" d="M9.59,0h.033V6.988H9.59" transform="translate(-8.331)" fill="#96c93d" fill-rule="evenodd"/>
        <path id="Path_27769" data-name="Path 27769" d="M9.62,0h.041V6.988H9.62" transform="translate(-8.337)" fill="#95c83d" fill-rule="evenodd"/>
        <path id="Path_27770" data-name="Path 27770" d="M9.65,0h.041V6.988H9.65" transform="translate(-8.342)" fill="#95c83d" fill-rule="evenodd"/>
        <path id="Path_27771" data-name="Path 27771" d="M9.68,0h.041V6.988H9.68" transform="translate(-8.348)" fill="#94c83d" fill-rule="evenodd"/>
        <path id="Path_27772" data-name="Path 27772" d="M9.71,0h.041V6.988H9.71" transform="translate(-8.353)" fill="#93c83d" fill-rule="evenodd"/>
        <path id="Path_27773" data-name="Path 27773" d="M9.74,0h.041V6.988H9.74" transform="translate(-8.359)" fill="#93c83d" fill-rule="evenodd"/>
        <path id="Path_27774" data-name="Path 27774" d="M9.77,0h.041V6.988H9.778" transform="translate(-8.364)" fill="#92c73e" fill-rule="evenodd"/>
        <path id="Path_27775" data-name="Path 27775" d="M9.81,0h.033V6.988H9.81" transform="translate(-8.372)" fill="#91c73e" fill-rule="evenodd"/>
        <path id="Path_27776" data-name="Path 27776" d="M9.84,0h.033l.008,6.988H9.84" transform="translate(-8.377)" fill="#91c73e" fill-rule="evenodd"/>
        <path id="Path_27777" data-name="Path 27777" d="M9.87,0h.041V6.988H9.87" transform="translate(-8.383)" fill="#90c73e" fill-rule="evenodd"/>
        <path id="Path_27778" data-name="Path 27778" d="M9.9,0h.041V6.988H9.9" transform="translate(-8.388)" fill="#90c73e" fill-rule="evenodd"/>
        <path id="Path_27779" data-name="Path 27779" d="M9.93,0h.041V6.988H9.93" transform="translate(-8.393)" fill="#8fc63e" fill-rule="evenodd"/>
        <path id="Path_27780" data-name="Path 27780" d="M9.96,0H10V6.988H9.96" transform="translate(-8.399)" fill="#8ec63e" fill-rule="evenodd"/>
        <path id="Path_27781" data-name="Path 27781" d="M9.99,0h.041V6.988H10" transform="translate(-8.404)" fill="#8ec63e" fill-rule="evenodd"/>
        <path id="Path_27782" data-name="Path 27782" d="M10.03,0h.033V6.988H10.03" transform="translate(-8.412)" fill="#8dc63f" fill-rule="evenodd"/>
        <path id="Path_27783" data-name="Path 27783" d="M10.06,0h.033L10.1,6.988H10.06" transform="translate(-8.417)" fill="#8cc63f" fill-rule="evenodd"/>
        <path id="Path_27784" data-name="Path 27784" d="M10.09,0h.041V6.988H10.09" transform="translate(-8.423)" fill="#8cc63f" fill-rule="evenodd"/>
        <path id="Path_27785" data-name="Path 27785" d="M10.12,0h.041V6.988H10.12" transform="translate(-8.428)" fill="#8bc53f" fill-rule="evenodd"/>
        <path id="Path_27786" data-name="Path 27786" d="M10.15,0h.041V6.988H10.15" transform="translate(-8.434)" fill="#8ac53f" fill-rule="evenodd"/>
        <path id="Path_27787" data-name="Path 27787" d="M10.18,0h.041V6.988H10.18" transform="translate(-8.439)" fill="#89c540" fill-rule="evenodd"/>
        <path id="Path_27788" data-name="Path 27788" d="M10.21,0h.041V6.988h-.033" transform="translate(-8.445)" fill="#89c540" fill-rule="evenodd"/>
        <path id="Path_27789" data-name="Path 27789" d="M10.25,0h.033V6.988H10.25" transform="translate(-8.452)" fill="#88c440" fill-rule="evenodd"/>
        <path id="Path_27790" data-name="Path 27790" d="M10.28,0h.033l.008,6.988H10.28" transform="translate(-8.457)" fill="#87c440" fill-rule="evenodd"/>
        <path id="Path_27791" data-name="Path 27791" d="M10.31,0h.041V6.988H10.31" transform="translate(-8.463)" fill="#87c440" fill-rule="evenodd"/>
        <path id="Path_27792" data-name="Path 27792" d="M10.34,0h.041V6.988H10.34" transform="translate(-8.468)" fill="#86c440" fill-rule="evenodd"/>
        <path id="Path_27793" data-name="Path 27793" d="M10.37,0h.041V6.988H10.37" transform="translate(-8.474)" fill="#85c340" fill-rule="evenodd"/>
        <path id="Path_27794" data-name="Path 27794" d="M10.4,0h.041V6.988H10.4" transform="translate(-8.479)" fill="#84c341" fill-rule="evenodd"/>
        <path id="Path_27795" data-name="Path 27795" d="M10.43,0h.041V6.988h-.033" transform="translate(-8.485)" fill="#84c341" fill-rule="evenodd"/>
        <path id="Path_27796" data-name="Path 27796" d="M10.47,0H10.5V6.988H10.47" transform="translate(-8.492)" fill="#83c341" fill-rule="evenodd"/>
        <path id="Path_27797" data-name="Path 27797" d="M10.5,0h.033l.008,6.988H10.5" transform="translate(-8.498)" fill="#82c341" fill-rule="evenodd"/>
        <path id="Path_27798" data-name="Path 27798" d="M10.53,0h.041V6.988H10.53" transform="translate(-8.503)" fill="#81c241" fill-rule="evenodd"/>
        <path id="Path_27799" data-name="Path 27799" d="M10.56,0H10.6V6.988H10.56" transform="translate(-8.509)" fill="#80c241" fill-rule="evenodd"/>
        <path id="Path_27800" data-name="Path 27800" d="M10.59,0h.041V6.988H10.59" transform="translate(-8.514)" fill="#80c241" fill-rule="evenodd"/>
        <path id="Path_27801" data-name="Path 27801" d="M10.62,0h.041V6.988H10.62" transform="translate(-8.52)" fill="#80c242" fill-rule="evenodd"/>
        <path id="Path_27802" data-name="Path 27802" d="M10.65,0h.041V6.988h-.033" transform="translate(-8.525)" fill="#7fc142" fill-rule="evenodd"/>
        <path id="Path_27803" data-name="Path 27803" d="M10.69,0h.033V6.988H10.69" transform="translate(-8.532)" fill="#7ec142" fill-rule="evenodd"/>
        <path id="Path_27804" data-name="Path 27804" d="M10.72,0h.033V6.988H10.72" transform="translate(-8.538)" fill="#7ec142" fill-rule="evenodd"/>
        <path id="Path_27805" data-name="Path 27805" d="M10.75,0h.041V6.988H10.75" transform="translate(-8.543)" fill="#7dc142" fill-rule="evenodd"/>
        <path id="Path_27806" data-name="Path 27806" d="M10.78,0h.041V6.988H10.78" transform="translate(-8.549)" fill="#7cc142" fill-rule="evenodd"/>
        <path id="Path_27807" data-name="Path 27807" d="M10.81,0h.041V6.988H10.81" transform="translate(-8.554)" fill="#7bc043" fill-rule="evenodd"/>
        <path id="Path_27808" data-name="Path 27808" d="M10.84,0h.041V6.988H10.84" transform="translate(-8.56)" fill="#7ac043" fill-rule="evenodd"/>
        <path id="Path_27809" data-name="Path 27809" d="M10.87,0h.041V6.988H10.87" transform="translate(-8.565)" fill="#79c043" fill-rule="evenodd"/>
        <path id="Path_27810" data-name="Path 27810" d="M10.91,0h.033V6.988H10.91" transform="translate(-8.573)" fill="#79c043" fill-rule="evenodd"/>
        <path id="Path_27811" data-name="Path 27811" d="M10.94,0h.033V6.988H10.94" transform="translate(-8.578)" fill="#77bf43" fill-rule="evenodd"/>
        <path id="Path_27812" data-name="Path 27812" d="M10.97,0h.041V6.988H10.97" transform="translate(-8.584)" fill="#76bf43" fill-rule="evenodd"/>
        <path id="Path_27813" data-name="Path 27813" d="M11,0h.041V6.988H11" transform="translate(-8.589)" fill="#75bf43" fill-rule="evenodd"/>
        <path id="Path_27814" data-name="Path 27814" d="M11.03,0h.041V6.988H11.03" transform="translate(-8.594)" fill="#74bf44" fill-rule="evenodd"/>
        <path id="Path_27815" data-name="Path 27815" d="M11.06,0H11.1V6.988H11.06" transform="translate(-8.6)" fill="#73be44" fill-rule="evenodd"/>
        <path id="Path_27816" data-name="Path 27816" d="M11.09,0h.041V6.988H11.09" transform="translate(-8.605)" fill="#73be44" fill-rule="evenodd"/>
        <path id="Path_27817" data-name="Path 27817" d="M11.13,0h.033V6.988H11.13" transform="translate(-8.613)" fill="#72be44" fill-rule="evenodd"/>
        <path id="Path_27818" data-name="Path 27818" d="M11.16,0h.033V6.988H11.16" transform="translate(-8.618)" fill="#70be44" fill-rule="evenodd"/>
        <path id="Path_27819" data-name="Path 27819" d="M11.19,0h.033l.008,6.988H11.19" transform="translate(-8.624)" fill="#6fbd44" fill-rule="evenodd"/>
        <path id="Path_27820" data-name="Path 27820" d="M11.22,0h.041V6.988H11.22" transform="translate(-8.629)" fill="#6ebd44" fill-rule="evenodd"/>
        <path id="Path_27821" data-name="Path 27821" d="M11.25,0h.041V6.988H11.25" transform="translate(-8.635)" fill="#6dbd45" fill-rule="evenodd"/>
        <path id="Path_27822" data-name="Path 27822" d="M11.28,0h.041V6.988H11.28" transform="translate(-8.64)" fill="#6cbd45" fill-rule="evenodd"/>
        <path id="Path_27823" data-name="Path 27823" d="M11.31,0h.041V6.988H11.31" transform="translate(-8.646)" fill="#6cbd45" fill-rule="evenodd"/>
        <path id="Path_27824" data-name="Path 27824" d="M11.34,0h.041V6.988h-.033" transform="translate(-8.651)" fill="#6abc45" fill-rule="evenodd"/>
        <path id="Path_27825" data-name="Path 27825" d="M11.38,0h.033V6.988H11.38" transform="translate(-8.658)" fill="#69bc45" fill-rule="evenodd"/>
        <path id="Path_27826" data-name="Path 27826" d="M11.41,0h.033l.008,6.988H11.41" transform="translate(-8.664)" fill="#68bc45" fill-rule="evenodd"/>
        <path id="Path_27827" data-name="Path 27827" d="M11.44,0h.041V6.988H11.44" transform="translate(-8.669)" fill="#67bc45" fill-rule="evenodd"/>
        <path id="Path_27828" data-name="Path 27828" d="M11.47,0h.041V6.988H11.47" transform="translate(-8.675)" fill="#66bb46" fill-rule="evenodd"/>
        <path id="Path_27829" data-name="Path 27829" d="M11.5,0h.041V6.988H11.5" transform="translate(-8.68)" fill="#64bb46" fill-rule="evenodd"/>
        <path id="Path_27830" data-name="Path 27830" d="M11.53,0h.041V6.988H11.53" transform="translate(-8.686)" fill="#63bb46" fill-rule="evenodd"/>
        <path id="Path_27831" data-name="Path 27831" d="M11.56,0H11.6V6.988h-.033" transform="translate(-8.691)" fill="#62ba46" fill-rule="evenodd"/>
        <path id="Path_27832" data-name="Path 27832" d="M11.6,0h.033V6.988H11.6" transform="translate(-8.699)" fill="#62ba46" fill-rule="evenodd"/>
        <path id="Path_27833" data-name="Path 27833" d="M11.63,0h.033l.008,6.988H11.63" transform="translate(-8.704)" fill="#60ba46" fill-rule="evenodd"/>
        <path id="Path_27834" data-name="Path 27834" d="M11.66,0H11.7V6.988H11.66" transform="translate(-8.71)" fill="#5fba46" fill-rule="evenodd"/>
        <path id="Path_27835" data-name="Path 27835" d="M11.69,0h.041V6.988H11.69" transform="translate(-8.715)" fill="#5eba47" fill-rule="evenodd"/>
        <path id="Path_27836" data-name="Path 27836" d="M11.72,0h.041V6.988H11.72" transform="translate(-8.721)" fill="#5cb947" fill-rule="evenodd"/>
        <path id="Path_27837" data-name="Path 27837" d="M11.75,0h.041V6.988H11.75" transform="translate(-8.726)" fill="#5bb947" fill-rule="evenodd"/>
        <path id="Path_27838" data-name="Path 27838" d="M11.78,0h.041V6.988h-.033" transform="translate(-8.731)" fill="#5ab947" fill-rule="evenodd"/>
        <path id="Path_27839" data-name="Path 27839" d="M11.82,0h.033V6.988H11.82" transform="translate(-8.739)" fill="#58b847" fill-rule="evenodd"/>
        <path id="Path_27840" data-name="Path 27840" d="M11.85,0h.033l.008,6.988H11.85" transform="translate(-8.744)" fill="#57b847" fill-rule="evenodd"/>
        <path id="Path_27841" data-name="Path 27841" d="M11.88,0h.041V6.988H11.88" transform="translate(-8.75)" fill="#57b847" fill-rule="evenodd"/>
        <path id="Path_27842" data-name="Path 27842" d="M11.91,0h.041V6.988H11.91" transform="translate(-8.755)" fill="#55b848" fill-rule="evenodd"/>
        <path id="Path_27843" data-name="Path 27843" d="M11.94,0h.041V6.988H11.94" transform="translate(-8.761)" fill="#54b848" fill-rule="evenodd"/>
        <path id="Path_27844" data-name="Path 27844" d="M11.97,0h.041V6.988H11.97" transform="translate(-8.766)" fill="#53b748" fill-rule="evenodd"/>
        <path id="Path_27845" data-name="Path 27845" d="M12,0h.041V6.988h-.033" transform="translate(-8.772)" fill="#51b748" fill-rule="evenodd"/>
        <path id="Path_27846" data-name="Path 27846" d="M12.04,0h.033V6.988H12.04" transform="translate(-8.779)" fill="#50b748" fill-rule="evenodd"/>
        <path id="Path_27847" data-name="Path 27847" d="M12.07,0H12.1V6.988H12.07" transform="translate(-8.784)" fill="#4eb648" fill-rule="evenodd"/>
        <path id="Path_27848" data-name="Path 27848" d="M12.1,0h.041V6.988H12.1" transform="translate(-8.79)" fill="#4cb648" fill-rule="evenodd"/>
        <path id="Path_27849" data-name="Path 27849" d="M12.13,0h.041V6.988H12.13" transform="translate(-8.795)" fill="#4bb649" fill-rule="evenodd"/>
        <path id="Path_27850" data-name="Path 27850" d="M12.16,0H12.2V6.988H12.16" transform="translate(-8.801)" fill="#49b649" fill-rule="evenodd"/>
        <path id="Path_27851" data-name="Path 27851" d="M12.19,0h.041V6.988H12.19" transform="translate(-8.806)" fill="#49b649" fill-rule="evenodd"/>
        <path id="Path_27852" data-name="Path 27852" d="M12.22,0h.041V6.988H12.22" transform="translate(-8.812)" fill="#47b549" fill-rule="evenodd"/>
        <path id="Path_27853" data-name="Path 27853" d="M12.26,0h.033V6.988H12.26" transform="translate(-8.819)" fill="#45b549" fill-rule="evenodd"/>
        <path id="Path_27854" data-name="Path 27854" d="M12.29,0h.033V6.988H12.29" transform="translate(-8.825)" fill="#44b549" fill-rule="evenodd"/>
        <path id="Path_27855" data-name="Path 27855" d="M12.32,0h.041V6.988H12.32" transform="translate(-8.83)" fill="#42b549" fill-rule="evenodd"/>
        <path id="Path_27856" data-name="Path 27856" d="M12.35,0h.041V6.988H12.35" transform="translate(-8.836)" fill="#40b449" fill-rule="evenodd"/>
        <path id="Path_27857" data-name="Path 27857" d="M12.38,0h.041V6.988H12.38" transform="translate(-8.841)" fill="#3eb44a" fill-rule="evenodd"/>
        <path id="Path_27858" data-name="Path 27858" d="M12.41,0h.041V6.988H12.41" transform="translate(-8.847)" fill="#3cb44a" fill-rule="evenodd"/>
        <path id="Path_27859" data-name="Path 27859" d="M12.44,0h.041V6.988H12.44" transform="translate(-8.852)" fill="#39b44a" fill-rule="evenodd"/>
        <path id="Path_27860" data-name="Path 27860" d="M12.48,0h.033V6.988H12.48" transform="translate(-8.859)" fill="#39b44a" fill-rule="evenodd"/>
        <path id="Path_27861" data-name="Path 27861" d="M12.51,0h.033V6.988H12.51" transform="translate(-8.865)" fill="#37b34a" fill-rule="evenodd"/>
        <path id="Path_27862" data-name="Path 27862" d="M12.54,0h.033l.008,6.988H12.54" transform="translate(-8.87)" fill="#35b34a" fill-rule="evenodd"/>
        <path id="Path_27863" data-name="Path 27863" d="M12.57,0h.041V6.988H12.57" transform="translate(-8.876)" fill="#32b34a" fill-rule="evenodd"/>
        <path id="Path_27864" data-name="Path 27864" d="M12.6,0h.041V6.988H12.6" transform="translate(-8.881)" fill="#30b34a" fill-rule="evenodd"/>
        <path id="Path_27865" data-name="Path 27865" d="M12.63,0h.041V6.988H12.63" transform="translate(-8.887)" fill="#2db24a" fill-rule="evenodd"/>
        <path id="Path_27866" data-name="Path 27866" d="M12.66,0H12.7V6.988H12.66" transform="translate(-8.892)" fill="#2ab24b" fill-rule="evenodd"/>
        <path id="Path_27867" data-name="Path 27867" d="M12.69,0h.041V6.988H12.7" transform="translate(-8.898)" fill="#28b24b" fill-rule="evenodd"/>
        <path id="Path_27868" data-name="Path 27868" d="M12.73,0h.033V6.988H12.73" transform="translate(-8.905)" fill="#24b24b" fill-rule="evenodd"/>
        <path id="Path_27869" data-name="Path 27869" d="M12.76,0h.033L12.8,6.988H12.76" transform="translate(-8.911)" fill="#24b24b" fill-rule="evenodd"/>
        <path id="Path_27870" data-name="Path 27870" d="M12.79,0h.041V6.988H12.79" transform="translate(-8.916)" fill="#21b14b" fill-rule="evenodd"/>
        <path id="Path_27871" data-name="Path 27871" d="M12.82,0h.041V6.988H12.82" transform="translate(-8.922)" fill="#1db14b" fill-rule="evenodd"/>
        <path id="Path_27872" data-name="Path 27872" d="M12.85,0h.041V6.988H12.85" transform="translate(-8.927)" fill="#19b14b" fill-rule="evenodd"/>
        <path id="Path_27873" data-name="Path 27873" d="M12.88,0h.041V6.988H12.88" transform="translate(-8.932)" fill="#14b14b" fill-rule="evenodd"/>
        <path id="Path_27874" data-name="Path 27874" d="M12.91,0h.041V6.988h-.033" transform="translate(-8.938)" fill="#0db04b" fill-rule="evenodd"/>
        <path id="Path_27875" data-name="Path 27875" d="M12.95,0h.033V6.988H12.95" transform="translate(-8.945)" fill="#05b04c" fill-rule="evenodd"/>
        <path id="Path_27876" data-name="Path 27876" d="M12.98,0h.033l.008,6.988H12.98" transform="translate(-8.951)" fill="#05b04c" fill-rule="evenodd"/>
        <path id="Path_27877" data-name="Path 27877" d="M13.01,0h.041V6.988H13.01" transform="translate(-8.956)" fill="#00b04c" fill-rule="evenodd"/>
        <path id="Path_27878" data-name="Path 27878" d="M13.04,0h.041V6.988H13.04" transform="translate(-8.962)" fill="#00b04c" fill-rule="evenodd"/>
        <path id="Path_27879" data-name="Path 27879" d="M13.07,0h.041V6.988H13.07" transform="translate(-8.967)" fill="#00af4c" fill-rule="evenodd"/>
        <path id="Path_27880" data-name="Path 27880" d="M13.1,0h.041V6.988H13.1" transform="translate(-8.973)" fill="#00af4c" fill-rule="evenodd"/>
        <path id="Path_27881" data-name="Path 27881" d="M13.13,0h.041V6.988h-.033" transform="translate(-8.978)" fill="#00af4c" fill-rule="evenodd"/>
        <path id="Path_27882" data-name="Path 27882" d="M13.17,0H13.2V6.988H13.17" transform="translate(-8.985)" fill="#00af4c" fill-rule="evenodd"/>
        <path id="Path_27883" data-name="Path 27883" d="M13.2,0h.033l.008,6.988H13.2" transform="translate(-8.991)" fill="#00af4c" fill-rule="evenodd"/>
        <path id="Path_27884" data-name="Path 27884" d="M13.23,0h.041V6.988H13.23" transform="translate(-8.996)" fill="#00ae4c" fill-rule="evenodd"/>
        <path id="Path_27885" data-name="Path 27885" d="M13.26,0H13.3V6.988H13.26" transform="translate(-9.002)" fill="#00ae4d" fill-rule="evenodd"/>
        <path id="Path_27886" data-name="Path 27886" d="M13.29,0h.041V6.988H13.29" transform="translate(-9.007)" fill="#00ae4d" fill-rule="evenodd"/>
        <path id="Path_27887" data-name="Path 27887" d="M13.32,0h.041V6.988H13.32" transform="translate(-9.013)" fill="#00ae4d" fill-rule="evenodd"/>
        <path id="Path_27888" data-name="Path 27888" d="M13.35,0h.041V6.988h-.033" transform="translate(-9.018)" fill="#00ae4d" fill-rule="evenodd"/>
        <path id="Path_27889" data-name="Path 27889" d="M13.39,0h.033V6.988H13.39" transform="translate(-9.026)" fill="#00ad4d" fill-rule="evenodd"/>
        <path id="Path_27890" data-name="Path 27890" d="M13.42,0h.033V6.988H13.42" transform="translate(-9.031)" fill="#00ad4d" fill-rule="evenodd"/>
        <path id="Path_27891" data-name="Path 27891" d="M13.45,0h.041V6.988H13.45" transform="translate(-9.037)" fill="#00ad4d" fill-rule="evenodd"/>
        <path id="Path_27892" data-name="Path 27892" d="M13.48,0h.041V6.988H13.48" transform="translate(-9.042)" fill="#00ad4d" fill-rule="evenodd"/>
        <path id="Path_27893" data-name="Path 27893" d="M13.51,0h.041V6.988H13.51" transform="translate(-9.048)" fill="#00ad4d" fill-rule="evenodd"/>
        <path id="Path_27894" data-name="Path 27894" d="M13.54,0h.041V6.988H13.54" transform="translate(-9.053)" fill="#00ac4d" fill-rule="evenodd"/>
        <path id="Path_27895" data-name="Path 27895" d="M13.57,0h.041V6.988H13.57" transform="translate(-9.059)" fill="#00ac4d" fill-rule="evenodd"/>
        <path id="Path_27896" data-name="Path 27896" d="M13.61,0h.033V6.988H13.61" transform="translate(-9.066)" fill="#00ac4d" fill-rule="evenodd"/>
        <path id="Path_27897" data-name="Path 27897" d="M13.64,0h.033V6.988H13.64" transform="translate(-9.071)" fill="#00ac4d" fill-rule="evenodd"/>
        <path id="Path_27898" data-name="Path 27898" d="M13.67,0h.041V6.988H13.67" transform="translate(-9.077)" fill="#00ac4e" fill-rule="evenodd"/>
        <path id="Path_27899" data-name="Path 27899" d="M13.7,0h.041V6.988H13.7" transform="translate(-9.082)" fill="#00ab4e" fill-rule="evenodd"/>
        <path id="Path_27900" data-name="Path 27900" d="M13.73,0h.041V6.988H13.73" transform="translate(-9.088)" fill="#00ab4e" fill-rule="evenodd"/>
        <path id="Path_27901" data-name="Path 27901" d="M13.76,0H13.8V6.988H13.76" transform="translate(-9.093)" fill="#00ab4e" fill-rule="evenodd"/>
        <path id="Path_27902" data-name="Path 27902" d="M13.79,0h.041V6.988H13.79" transform="translate(-9.099)" fill="#00ab4e" fill-rule="evenodd"/>
        <path id="Path_27903" data-name="Path 27903" d="M13.83,0h.033V6.988H13.83" transform="translate(-9.106)" fill="#00ab4e" fill-rule="evenodd"/>
        <path id="Path_27904" data-name="Path 27904" d="M13.86,0h.033V6.988H13.86" transform="translate(-9.112)" fill="#00ab4e" fill-rule="evenodd"/>
        <path id="Path_27905" data-name="Path 27905" d="M13.89,0h.033l.008,6.988H13.89" transform="translate(-9.117)" fill="#00ab4e" fill-rule="evenodd"/>
        <path id="Path_27906" data-name="Path 27906" d="M13.92,0h.041V6.988H13.92" transform="translate(-9.122)" fill="#00aa4e" fill-rule="evenodd"/>
        <path id="Path_27907" data-name="Path 27907" d="M13.95,0h.041V6.988H13.95" transform="translate(-9.128)" fill="#00aa4e" fill-rule="evenodd"/>
        <path id="Path_27908" data-name="Path 27908" d="M13.98,0h.041V6.988H13.98" transform="translate(-9.133)" fill="#00aa4e" fill-rule="evenodd"/>
        <path id="Path_27909" data-name="Path 27909" d="M14.01,0h.041V6.988H14.01" transform="translate(-9.139)" fill="#00aa4e" fill-rule="evenodd"/>
        <path id="Path_27910" data-name="Path 27910" d="M14.04,0h.041V6.988h-.033" transform="translate(-9.144)" fill="#00aa4e" fill-rule="evenodd"/>
        <path id="Path_27911" data-name="Path 27911" d="M14.08,0h.033V6.988H14.08" transform="translate(-9.152)" fill="#00aa4e" fill-rule="evenodd"/>
        <path id="Path_27912" data-name="Path 27912" d="M14.11,0h.033l.008,6.988H14.11" transform="translate(-9.157)" fill="#00a94f" fill-rule="evenodd"/>
        <path id="Path_27913" data-name="Path 27913" d="M14.14,0h.041V6.988H14.14" transform="translate(-9.163)" fill="#00a94f" fill-rule="evenodd"/>
        <path id="Path_27914" data-name="Path 27914" d="M14.17,0h.041V6.988H14.17" transform="translate(-9.168)" fill="#00a94f" fill-rule="evenodd"/>
        <path id="Path_27915" data-name="Path 27915" d="M14.2,0h.041V6.988H14.2" transform="translate(-9.174)" fill="#00a94f" fill-rule="evenodd"/>
        <path id="Path_27916" data-name="Path 27916" d="M14.23,0h.041V6.988H14.23" transform="translate(-9.179)" fill="#00a94f" fill-rule="evenodd"/>
        <path id="Path_27917" data-name="Path 27917" d="M14.26,0H14.3V6.988h-.033" transform="translate(-9.185)" fill="#00a94f" fill-rule="evenodd"/>
        <path id="Path_27918" data-name="Path 27918" d="M14.3,0h.033V6.988H14.3" transform="translate(-9.192)" fill="#00a94f" fill-rule="evenodd"/>
        <path id="Path_27919" data-name="Path 27919" d="M14.33,0h.033l.008,6.988H14.33" transform="translate(-9.197)" fill="#00a94f" fill-rule="evenodd"/>
        <path id="Path_27920" data-name="Path 27920" d="M14.36,0H14.4V6.988H14.36" transform="translate(-9.203)" fill="#00a84f" fill-rule="evenodd"/>
        <path id="Path_27921" data-name="Path 27921" d="M14.39,0h.041V6.988H14.39" transform="translate(-9.208)" fill="#00a84f" fill-rule="evenodd"/>
        <path id="Path_27922" data-name="Path 27922" d="M14.42,0h.041V6.988H14.42" transform="translate(-9.214)" fill="#00a84f" fill-rule="evenodd"/>
        <path id="Path_27923" data-name="Path 27923" d="M14.45,0h.041V6.988H14.45" transform="translate(-9.219)" fill="#00a84f" fill-rule="evenodd"/>
        <path id="Path_27924" data-name="Path 27924" d="M14.48,0h.041V6.988h-.033" transform="translate(-9.225)" fill="#00a84f" fill-rule="evenodd"/>
        <path id="Path_27925" data-name="Path 27925" d="M14.52,0h.033V6.988H14.52" transform="translate(-9.232)" fill="#00a84f" fill-rule="evenodd"/>
        <path id="Path_27926" data-name="Path 27926" d="M14.55,0h.033l.008,6.988H14.55" transform="translate(-9.238)" fill="#00a84f" fill-rule="evenodd"/>
        <path id="Path_27927" data-name="Path 27927" d="M14.58,0h.041V6.988H14.58" transform="translate(-9.243)" fill="#00a74f" fill-rule="evenodd"/>
        <path id="Path_27928" data-name="Path 27928" d="M14.61,0h.041V6.988H14.61" transform="translate(-9.249)" fill="#00a74f" fill-rule="evenodd"/>
        <path id="Path_27929" data-name="Path 27929" d="M14.64,0h.041V6.988H14.64" transform="translate(-9.254)" fill="#00a750" fill-rule="evenodd"/>
        <path id="Path_27930" data-name="Path 27930" d="M14.67,0h.041V6.988H14.67" transform="translate(-9.26)" fill="#00a750" fill-rule="evenodd"/>
        <path id="Path_27931" data-name="Path 27931" d="M14.7,0h.041V6.988h-.033" transform="translate(-9.265)" fill="#00a750" fill-rule="evenodd"/>
        <path id="Path_27932" data-name="Path 27932" d="M14.74,0h.033V6.988H14.74" transform="translate(-9.272)" fill="#00a750" fill-rule="evenodd"/>
        <path id="Path_27933" data-name="Path 27933" d="M14.77,0H14.8l.008,6.988H14.77" transform="translate(-9.278)" fill="#00a750" fill-rule="evenodd"/>
        <path id="Path_27934" data-name="Path 27934" d="M14.8,0h.041V6.988H14.8" transform="translate(-9.283)" fill="#00a750" fill-rule="evenodd"/>
        <path id="Path_27935" data-name="Path 27935" d="M14.83,0h.041V6.988H14.83" transform="translate(-9.289)" fill="#00a750" fill-rule="evenodd"/>
        <path id="Path_27936" data-name="Path 27936" d="M14.86,0H14.9V6.988H14.86" transform="translate(-9.294)" fill="#00a750" fill-rule="evenodd"/>
        <path id="Path_27937" data-name="Path 27937" d="M14.89,0h.041V6.988H14.89" transform="translate(-9.3)" fill="#00a650" fill-rule="evenodd"/>
        <path id="Path_27938" data-name="Path 27938" d="M14.92,0h.041V6.988H14.92" transform="translate(-9.305)" fill="#00a650" fill-rule="evenodd"/>
        <path id="Path_27939" data-name="Path 27939" d="M14.96,0h.033V6.988H14.96" transform="translate(-9.313)" fill="#00a650" fill-rule="evenodd"/>
        <path id="Path_27940" data-name="Path 27940" d="M14.99,0h.033V6.988H14.99" transform="translate(-9.318)" fill="#00a650" fill-rule="evenodd"/>
        <path id="Path_27941" data-name="Path 27941" d="M15.02,0h.041V6.988H15.02" transform="translate(-9.323)" fill="#00a650" fill-rule="evenodd"/>
        <path id="Path_27942" data-name="Path 27942" d="M15.05,0h.041V6.988H15.05" transform="translate(-9.329)" fill="#00a650" fill-rule="evenodd"/>
        <path id="Path_27943" data-name="Path 27943" d="M15.08,0h.041V6.988H15.08" transform="translate(-9.334)" fill="#00a650" fill-rule="evenodd"/>
        <path id="Path_27944" data-name="Path 27944" d="M15.11,0h.041V6.988H15.11" transform="translate(-9.34)" fill="#00a650" fill-rule="evenodd"/>
        <path id="Path_27945" data-name="Path 27945" d="M15.14,0h.041V6.988H15.14" transform="translate(-9.345)" fill="#00a650" fill-rule="evenodd"/>
        <path id="Path_27946" data-name="Path 27946" d="M15.18,0h.033V6.988H15.18" transform="translate(-9.353)" fill="#00a650" fill-rule="evenodd"/>
        <path id="Path_27947" data-name="Path 27947" d="M15.21,0h.033V6.988H15.21" transform="translate(-9.358)" fill="#00a550" fill-rule="evenodd"/>
        <path id="Path_27948" data-name="Path 27948" d="M15.24,0h.033l.008,6.988H15.24" transform="translate(-9.364)" fill="#00a550" fill-rule="evenodd"/>
        <path id="Path_27949" data-name="Path 27949" d="M15.27,0h.041V6.988H15.27" transform="translate(-9.369)" fill="#00a550" fill-rule="evenodd"/>
        <path id="Path_27950" data-name="Path 27950" d="M15.3,0h.041V6.988H15.3" transform="translate(-9.375)" fill="#00a550" fill-rule="evenodd"/>
        <path id="Path_27951" data-name="Path 27951" d="M15.33,0h.041V6.988H15.33" transform="translate(-9.38)" fill="#00a550" fill-rule="evenodd"/>
        <path id="Path_27952" data-name="Path 27952" d="M15.36,0H15.4V6.988H15.36" transform="translate(-9.386)" fill="#00a550" fill-rule="evenodd"/>
        <path id="Path_27953" data-name="Path 27953" d="M15.39,0h.041V6.988H15.4" transform="translate(-9.391)" fill="#00a550" fill-rule="evenodd"/>
        <path id="Path_27954" data-name="Path 27954" d="M15.43,0h.033V6.988H15.43" transform="translate(-9.398)" fill="#00a550" fill-rule="evenodd"/>
        <path id="Path_27955" data-name="Path 27955" d="M15.46,0h.033L15.5,6.988H15.46" transform="translate(-9.404)" fill="#00a550" fill-rule="evenodd"/>
        <path id="Path_27956" data-name="Path 27956" d="M15.49,0h.041V6.988H15.49" transform="translate(-9.409)" fill="#00a550" fill-rule="evenodd"/>
        <path id="Path_27957" data-name="Path 27957" d="M15.52,0h.041V6.988H15.52" transform="translate(-9.415)" fill="#00a550" fill-rule="evenodd"/>
        <path id="Path_27958" data-name="Path 27958" d="M15.55,0h.041V6.988H15.55" transform="translate(-9.42)" fill="#00a550" fill-rule="evenodd"/>
        <path id="Path_27959" data-name="Path 27959" d="M15.58,0h.041V6.988H15.58" transform="translate(-9.426)" fill="#00a551" fill-rule="evenodd"/>
        <path id="Path_27960" data-name="Path 27960" d="M15.61,0h.041V6.988h-.033" transform="translate(-9.431)" fill="#00a551" fill-rule="evenodd"/>
        <path id="Path_27961" data-name="Path 27961" d="M15.65,0h.033V6.988H15.65" transform="translate(-9.439)" fill="#00a551" fill-rule="evenodd"/>
        <path id="Path_27962" data-name="Path 27962" d="M15.68,0h.033l.008,6.988H15.68" transform="translate(-9.444)" fill="#00a551" fill-rule="evenodd"/>
        <path id="Path_27963" data-name="Path 27963" d="M15.71,0h.041V6.988H15.71" transform="translate(-9.45)" fill="#00a551" fill-rule="evenodd"/>
        <path id="Path_27964" data-name="Path 27964" d="M15.74,0h.041V6.988H15.74" transform="translate(-9.455)" fill="#00a551" fill-rule="evenodd"/>
        <path id="Path_27965" data-name="Path 27965" d="M15.77,0h.041V6.988H15.77" transform="translate(-9.461)" fill="#00a551" fill-rule="evenodd"/>
        <path id="Path_27966" data-name="Path 27966" d="M15.8,0h.041V6.988H15.8" transform="translate(-9.466)" fill="#00a551" fill-rule="evenodd"/>
        <path id="Path_27967" data-name="Path 27967" d="M15.83,0h.041V6.988h-.033" transform="translate(-9.471)" fill="#00a551" fill-rule="evenodd"/>
        <path id="Path_27968" data-name="Path 27968" d="M15.87,0H15.9V6.988H15.87" transform="translate(-9.479)" fill="#00a551" fill-rule="evenodd"/>
        <path id="Path_27969" data-name="Path 27969" d="M15.9,0h.033l.008,6.988H15.9" transform="translate(-9.484)" fill="#00a551" fill-rule="evenodd"/>
        <path id="Path_27970" data-name="Path 27970" d="M15.93,0h.041V6.988H15.93" transform="translate(-9.49)" fill="#00a551" fill-rule="evenodd"/>
        <path id="Path_27971" data-name="Path 27971" d="M15.96,0H16V6.988H15.96" transform="translate(-9.495)" fill="#00a551" fill-rule="evenodd"/>
        <path id="Path_27972" data-name="Path 27972" d="M15.99,0h.041V6.988H15.99" transform="translate(-9.501)" fill="#00a551" fill-rule="evenodd"/>
        <path id="Path_27973" data-name="Path 27973" d="M16.02,0h.057V6.988H16.02" transform="translate(-9.506)" fill="#00a551" fill-rule="evenodd"/>
      </g>
      <g id="Group_5428" data-name="Group 5428" transform="translate(3.204 16.595)" clip-path="url(#clip-path-3)">
        <rect id="Rectangle_18128" data-name="Rectangle 18128" width="50.206" height="43.741" transform="translate(0 -1.017)" fill="url(#linear-gradient)"/>
      </g>
      <path id="Path_27976" data-name="Path 27976" d="M60.268,16.96c-3.9,2.354-3.645,5.672-3.768,8.892.736-3.22,3.6-6.162,3.768-8.892" transform="translate(-10.331 -3.099)" fill="#00a551" fill-rule="evenodd"/>
      <path id="Path_27977" data-name="Path 27977" d="M54.462,19.73c-1.1,3.424.311,4.985,1.487,6.718-.866-2.068-.523-5.214-1.487-6.718" transform="translate(-9.887 -3.605)" fill="#00a551" fill-rule="evenodd"/>
      <path id="Path_27978" data-name="Path 27978" d="M51.944,22.68c-.441,3.637,1.218,4.773,2.689,6.138-1.226-1.782-1.471-4.936-2.689-6.138" transform="translate(-9.485 -4.144)" fill="#00a551" fill-rule="evenodd"/>
      <path id="Path_27979" data-name="Path 27979" d="M57.65,30.483a1.912,1.912,0,0,0,.106.564,2.4,2.4,0,0,0,1.357,1.259c.629.253,1.52.319,1.929-.229a2.53,2.53,0,0,0-.253-1.357c-.842-1.708-2.738-1.741-3.122-.343Z" transform="translate(-10.541 -5.368)" fill="#cdb73a" fill-rule="evenodd"/>
      <path id="Path_27980" data-name="Path 27980" d="M57.635,30.728a2.021,2.021,0,0,0-.049.793,2.709,2.709,0,0,0,1.291,1.962,1.626,1.626,0,0,0,1.144.188,1.451,1.451,0,0,0,.989-1.144c0-.033.016-.074.016-.106a.233.233,0,0,0,0-.106,1.669,1.669,0,0,1-1.929.229,2.374,2.374,0,0,1-1.357-1.259,1.912,1.912,0,0,1-.106-.564" transform="translate(-10.527 -5.613)" fill="#beaa30" fill-rule="evenodd"/>
      <path id="Path_27981" data-name="Path 27981" d="M58.91,29.79c.1.041.212.049.327.09a2.613,2.613,0,0,1,1.022.736,5.2,5.2,0,0,1,.842,1.316,2.606,2.606,0,0,0-1.455-2.182.934.934,0,0,0-.736.049" transform="translate(-10.771 -5.426)" fill="#fff" fill-rule="evenodd"/>
      <path id="Path_27982" data-name="Path 27982" d="M57.947,30.925c.2.057.376-.139.507-.409a.931.931,0,0,0,.09-.368c0-.082-.041-.311-.163-.27l.033.033c-.147,0-.311.229-.392.409a.922.922,0,0,0-.065.6" transform="translate(-10.593 -5.458)" fill="#6b6028" fill-rule="evenodd"/>
      <path id="Path_27983" data-name="Path 27983" d="M57.918,30.924a.92.92,0,0,1,.065-.6c.082-.18.245-.409.392-.409l-.033-.033c-.155-.082-.368.155-.474.384s-.155.507.041.662" transform="translate(-10.564 -5.457)" fill="#564d1f" fill-rule="evenodd"/>
      <path id="Path_27984" data-name="Path 27984" d="M57.779,30.2c-.5-.5-1.283-.572-1.839-.94" transform="translate(-10.229 -5.346)" fill="none" stroke="#6b6028" stroke-miterlimit="2.61" stroke-width="0.02"/>
      <path id="Path_27985" data-name="Path 27985" d="M59.98,25.351a1.994,1.994,0,0,0,.123.613,2.6,2.6,0,0,0,1.479,1.365,1.816,1.816,0,0,0,2.1-.253A2.723,2.723,0,0,0,63.4,25.6c-.915-1.855-2.975-1.9-3.4-.368l-.016.114Z" transform="translate(-10.967 -4.412)" fill="#cdb73a" fill-rule="evenodd"/>
      <path id="Path_27986" data-name="Path 27986" d="M59.964,25.62a2.088,2.088,0,0,0-.049.866,2.942,2.942,0,0,0,1.4,2.133,1.739,1.739,0,0,0,1.25.2,1.566,1.566,0,0,0,1.071-1.242c0-.033.016-.082.016-.114a.269.269,0,0,0,0-.114,1.827,1.827,0,0,1-2.1.253,2.6,2.6,0,0,1-1.479-1.365,2.268,2.268,0,0,1-.123-.613" transform="translate(-10.951 -4.681)" fill="#beaa30" fill-rule="evenodd"/>
      <path id="Path_27987" data-name="Path 27987" d="M61.35,24.6c.114.041.237.049.36.1a2.93,2.93,0,0,1,1.112.8,5.65,5.65,0,0,1,.915,1.43,2.853,2.853,0,0,0-1.586-2.378,1.023,1.023,0,0,0-.8.049" transform="translate(-11.217 -4.475)" fill="#fff" fill-rule="evenodd"/>
      <path id="Path_27988" data-name="Path 27988" d="M60.3,25.825c.212.057.417-.147.548-.441a1.1,1.1,0,0,0,.1-.4c0-.09-.041-.335-.18-.294l.033.041c-.163,0-.335.245-.425.441a1,1,0,0,0-.074.654" transform="translate(-11.022 -4.51)" fill="#6b6028" fill-rule="evenodd"/>
      <path id="Path_27989" data-name="Path 27989" d="M60.276,25.822a1.056,1.056,0,0,1,.074-.654c.09-.2.27-.441.425-.441l-.033-.041c-.172-.09-.4.163-.515.417s-.172.556.049.719" transform="translate(-10.993 -4.507)" fill="#564d1f" fill-rule="evenodd"/>
      <path id="Path_27990" data-name="Path 27990" d="M60.414,25.459c-.5-.5-1.447-.221-1.684-.629" transform="translate(-10.739 -4.537)" fill="none" stroke="#6b6028" stroke-miterlimit="2.61" stroke-width="0.02"/>
    </g>
    <g id="Group_5430" data-name="Group 5430" transform="translate(40.49 37.898)">
      <path id="Path_27991" data-name="Path 27991" d="M71.051,67.52H68.616c-.262,0-.474,0-.621-.016s-.286-.016-.409-.016a3.489,3.489,0,0,1-1.5-.335,2.635,2.635,0,0,1-.883-.776,4.2,4.2,0,0,1-.548-1.12c-.139-.433-.3-.891-.49-1.389H56.4a13.627,13.627,0,0,1-1.005,2.395,2.476,2.476,0,0,1-1.144,1.054,4.159,4.159,0,0,1-1.765.253c-.719-.025-1.7-.033-2.942-.033L56.307,49.45a13.327,13.327,0,0,1,.621-1.512,2.309,2.309,0,0,1,.7-.85,2.41,2.41,0,0,1,1.038-.376,12.256,12.256,0,0,1,1.6-.082h2.8l7.985,20.9ZM60.263,52.662l-2.346,6.751h4.724Z" transform="translate(-49.54 -46.418)" fill="#037a80"/>
      <path id="Path_27992" data-name="Path 27992" d="M80.145,67.451a3.568,3.568,0,0,1-1.6-.441,1.706,1.706,0,0,1-.744-1.087,8.678,8.678,0,0,1-.18-2.019V46.7c1.1,0,1.994.025,2.681.065a3.629,3.629,0,0,1,1.6.409,1.708,1.708,0,0,1,.76,1.054,7.733,7.733,0,0,1,.2,1.97V67.533c-1.12,0-2.019-.025-2.713-.082Z" transform="translate(-54.67 -46.43)" fill="#037a80"/>
      <path id="Path_27993" data-name="Path 27993" d="M102.371,49.284a2.819,2.819,0,0,1-.474,1.422,1.7,1.7,0,0,1-1.079.613,10.629,10.629,0,0,1-1.9.139h-1.8V67.543c-1.12,0-2.011-.025-2.681-.082a3.4,3.4,0,0,1-1.553-.441,1.741,1.741,0,0,1-.736-1.1,8.93,8.93,0,0,1-.18-2.035V51.467H86.54c0-1.112.033-1.978.09-2.615a2.783,2.783,0,0,1,.441-1.422,1.552,1.552,0,0,1,1.022-.6,10.688,10.688,0,0,1,1.831-.123h12.562a23.559,23.559,0,0,1-.106,2.574Z" transform="translate(-56.3 -46.432)" fill="#037a80"/>
      <path id="Path_27994" data-name="Path 27994" d="M126.06,57.093a18.1,18.1,0,0,1-.425,3.956A8.8,8.8,0,0,1,124.1,64.44a7.981,7.981,0,0,1-3.032,2.378,13.957,13.957,0,0,1-9.857,0,7.823,7.823,0,0,1-3.049-2.378,8.535,8.535,0,0,1-1.537-3.408,18.774,18.774,0,0,1,0-7.944,8.735,8.735,0,0,1,1.553-3.424,8.047,8.047,0,0,1,3.032-2.395,11.539,11.539,0,0,1,4.9-.9,11.9,11.9,0,0,1,4.953.9,7.782,7.782,0,0,1,3.049,2.395,8.762,8.762,0,0,1,1.537,3.424,18.445,18.445,0,0,1,.425,4Zm-5.272,0a15.313,15.313,0,0,0-.18-2.493,4.645,4.645,0,0,0-.7-1.863,3.322,3.322,0,0,0-1.43-1.169,5.834,5.834,0,0,0-2.346-.409c-1.161,0-2.051.033-2.681.1a1.874,1.874,0,0,0-1.373.662,3.334,3.334,0,0,0-.507,1.765c-.049.8-.074,1.929-.074,3.375a13.957,13.957,0,0,0,.2,2.476,4.87,4.87,0,0,0,.7,1.847,3.206,3.206,0,0,0,1.406,1.169,5.624,5.624,0,0,0,2.3.409c1.177,0,2.084-.033,2.713-.1a1.98,1.98,0,0,0,1.389-.646,3.046,3.046,0,0,0,.515-1.733c.049-.793.074-1.921.074-3.392Z" transform="translate(-59.892 -46.37)" fill="#037a80"/>
      <path id="Path_27995" data-name="Path 27995" d="M153.06,57.093a18.105,18.105,0,0,1-.425,3.956A8.8,8.8,0,0,1,151.1,64.44a7.981,7.981,0,0,1-3.032,2.378,13.957,13.957,0,0,1-9.857,0,7.823,7.823,0,0,1-3.048-2.378,8.536,8.536,0,0,1-1.537-3.408,18.774,18.774,0,0,1,0-7.944,8.735,8.735,0,0,1,1.553-3.424,8.046,8.046,0,0,1,3.032-2.395,11.539,11.539,0,0,1,4.9-.9,11.9,11.9,0,0,1,4.953.9,7.782,7.782,0,0,1,3.049,2.395,8.762,8.762,0,0,1,1.537,3.424,18.445,18.445,0,0,1,.425,4Zm-5.272,0a15.314,15.314,0,0,0-.18-2.493,4.645,4.645,0,0,0-.7-1.863,3.322,3.322,0,0,0-1.43-1.169,5.834,5.834,0,0,0-2.346-.409c-1.161,0-2.051.033-2.681.1a1.874,1.874,0,0,0-1.373.662,3.334,3.334,0,0,0-.507,1.765c-.049.8-.074,1.929-.074,3.375a13.956,13.956,0,0,0,.2,2.476,4.87,4.87,0,0,0,.7,1.847,3.206,3.206,0,0,0,1.406,1.169,5.624,5.624,0,0,0,2.3.409c1.177,0,2.084-.033,2.713-.1a1.98,1.98,0,0,0,1.389-.646,3.046,3.046,0,0,0,.515-1.733c.049-.793.074-1.921.074-3.392Z" transform="translate(-64.825 -46.37)" fill="#037a80"/>
      <path id="Path_27996" data-name="Path 27996" d="M177.33,67.518a13.168,13.168,0,0,1-1.675-.082,2.523,2.523,0,0,1-1.079-.376,3,3,0,0,1-.809-.8,15.426,15.426,0,0,1-.85-1.324l-6.587-10.38V67.518c-1.12,0-2.019-.025-2.713-.082a3.568,3.568,0,0,1-1.6-.441,1.706,1.706,0,0,1-.744-1.087,8.679,8.679,0,0,1-.18-2.019V46.62h2.681c.613,0,1.12.008,1.52.033a3.261,3.261,0,0,1,1.1.237,2.669,2.669,0,0,1,.932.695,10.965,10.965,0,0,1,1.022,1.406L174.861,59.4V49.938a6.518,6.518,0,0,1,.212-1.88,1.647,1.647,0,0,1,.793-.981,3.922,3.922,0,0,1,1.6-.392c.678-.049,1.561-.065,2.64-.065v20.9h-2.771Z" transform="translate(-69.921 -46.416)" fill="#037a80"/>
    </g>
    <g id="Group_5431" data-name="Group 5431" transform="translate(60.743 16.607)">
      <path id="Path_27997" data-name="Path 27997" d="M84.038,33.024a5,5,0,0,1-1.5,3.825,4.709,4.709,0,0,1-3.4,1.283,4.314,4.314,0,0,1-3.768-1.912,5.913,5.913,0,0,1-1.046-3.49,5.551,5.551,0,0,1,.621-2.664l2.444-.572a6.107,6.107,0,0,0-.654,2.762,3.514,3.514,0,0,0,.662,2.256,2.093,2.093,0,0,0,1.741.858,2.07,2.07,0,0,0,2.337-2.346V27.033l2.566-1.52v7.511Zm-5.026-7.078a1.235,1.235,0,0,1-.964-.4,1.761,1.761,0,0,1,0-2.133,1.257,1.257,0,0,1,.964-.392,1.192,1.192,0,0,1,.94.392,1.53,1.53,0,0,1,.351,1.062,1.566,1.566,0,0,1-.351,1.071A1.183,1.183,0,0,1,79.011,25.946Z" transform="translate(-74.32 -20.813)" fill="#00a551"/>
      <path id="Path_27998" data-name="Path 27998" d="M98.671,34.869H96.562a3.862,3.862,0,0,1-1.414,2.836,3.788,3.788,0,0,1-2.493.891,4.407,4.407,0,0,1-2.321-.727v-2.5a3.794,3.794,0,0,0,2.019.67,1.745,1.745,0,0,0,1.1-.376,1.32,1.32,0,0,0,.564-.866c-.262-.016-.572-.049-.94-.1a3.97,3.97,0,0,1-2.779-1.659,4.694,4.694,0,0,1-.834-2.779,5.107,5.107,0,0,1,1.1-3.465,3.551,3.551,0,0,1,5.223,0,3.981,3.981,0,0,1,.8,2.583v2.738h2.092v2.762Zm-4.659-5.476c0-.711-.286-1.062-.866-1.062-.768,0-1.152.613-1.152,1.831a1.761,1.761,0,0,0,2.019,1.912V29.393Z" transform="translate(-77.086 -21.294)" fill="#00a551"/>
      <path id="Path_27999" data-name="Path 27999" d="M99.56,36.312V33.55h2.991v2.762Z" transform="translate(-78.932 -22.737)" fill="#00a551"/>
      <path id="Path_28000" data-name="Path 28000" d="M102.07,36.312V33.55h2.991v2.762Z" transform="translate(-79.39 -22.737)" fill="#00a551"/>
      <path id="Path_28001" data-name="Path 28001" d="M104.59,36.312V33.55h2.991v2.762Z" transform="translate(-79.851 -22.737)" fill="#00a551"/>
      <path id="Path_28002" data-name="Path 28002" d="M113.46,31.2h1.716v2.762h-1.962a3.1,3.1,0,0,1-2.051-.67,3.221,3.221,0,0,1-2.068.67H107.11V31.2h1.733a1.014,1.014,0,0,0,.793-.253,1.326,1.326,0,0,0,.229-.891V26.607l2.566-1.52v4.969a1.393,1.393,0,0,0,.221.891,1.031,1.031,0,0,0,.809.253Zm-4.887-7.552a1.221,1.221,0,0,1-.964-.417,1.573,1.573,0,0,1-.36-1.087,1.512,1.512,0,0,1,.36-1.054,1.235,1.235,0,0,1,.964-.4,1.192,1.192,0,0,1,.94.392,1.53,1.53,0,0,1,.351,1.062,1.632,1.632,0,0,1-.351,1.1,1.183,1.183,0,0,1-.94.4Zm2.959,0a1.221,1.221,0,0,1-.964-.417,1.573,1.573,0,0,1-.36-1.087,1.512,1.512,0,0,1,.36-1.054,1.235,1.235,0,0,1,.964-.4,1.192,1.192,0,0,1,.94.392,1.53,1.53,0,0,1,.351,1.062,1.632,1.632,0,0,1-.351,1.1,1.183,1.183,0,0,1-.94.4Z" transform="translate(-80.311 -20.388)" fill="#00a551"/>
      <path id="Path_28003" data-name="Path 28003" d="M115.83,36.312V33.55h2.991v2.762Z" transform="translate(-81.904 -22.737)" fill="#00a551"/>
      <path id="Path_28004" data-name="Path 28004" d="M118.34,36.312V33.55h2.991v2.762Z" transform="translate(-82.363 -22.737)" fill="#00a551"/>
      <path id="Path_28005" data-name="Path 28005" d="M120.86,36.312V33.55h2.991v2.762Z" transform="translate(-82.823 -22.737)" fill="#00a551"/>
      <path id="Path_28006" data-name="Path 28006" d="M123.37,36.312V33.55h2.991v2.762Z" transform="translate(-83.282 -22.737)" fill="#00a551"/>
      <path id="Path_28007" data-name="Path 28007" d="M125.88,36.312V33.55h2.991v2.762H125.88Z" transform="translate(-83.74 -22.737)" fill="#00a551"/>
      <path id="Path_28008" data-name="Path 28008" d="M128.4,36.312V33.55h2.991v2.762Z" transform="translate(-84.201 -22.737)" fill="#00a551"/>
      <path id="Path_28009" data-name="Path 28009" d="M130.91,36.312V33.55H133.9v2.762Z" transform="translate(-84.659 -22.737)" fill="#00a551"/>
      <path id="Path_28010" data-name="Path 28010" d="M133.42,36.312V33.55h2.991v2.762Z" transform="translate(-85.118 -22.737)" fill="#00a551"/>
      <path id="Path_28011" data-name="Path 28011" d="M135.93,36.312V33.55h2.991v2.762Z" transform="translate(-85.577 -22.737)" fill="#00a551"/>
      <path id="Path_28012" data-name="Path 28012" d="M138.45,36.312V33.55h2.991v2.762Z" transform="translate(-86.037 -22.737)" fill="#00a551"/>
      <path id="Path_28013" data-name="Path 28013" d="M140.96,36.312V33.55h2.991v2.762Z" transform="translate(-86.496 -22.737)" fill="#00a551"/>
      <path id="Path_28014" data-name="Path 28014" d="M144.3,39.57a1.221,1.221,0,0,1-.964-.417,1.573,1.573,0,0,1-.36-1.087,1.477,1.477,0,0,1,.36-1.046,1.257,1.257,0,0,1,.964-.392,1.192,1.192,0,0,1,.94.392,1.5,1.5,0,0,1,.351,1.046,1.6,1.6,0,0,1-.351,1.1,1.183,1.183,0,0,1-.94.4Zm-.924-4.634V32.173h1.733a1.014,1.014,0,0,0,.793-.253,1.326,1.326,0,0,0,.229-.891V27.58l2.566-1.52v5.084a3.923,3.923,0,0,1-1.03,2.877,3.1,3.1,0,0,1-2.321.907h-1.986Zm3.858,4.634a1.2,1.2,0,0,1-.948-.417,1.573,1.573,0,0,1-.36-1.087,1.477,1.477,0,0,1,.36-1.046,1.342,1.342,0,0,1,1.9,0,1.468,1.468,0,0,1,.36,1.046,1.6,1.6,0,0,1-.351,1.1,1.206,1.206,0,0,1-.956.4Z" transform="translate(-86.865 -21.369)" fill="#00a551"/>
      <path id="Path_28015" data-name="Path 28015" d="M158.17,32.571a6.5,6.5,0,0,1-.621,2.942,3.947,3.947,0,0,1-1.749,1.823,3.4,3.4,0,0,1-1.61.392,4.3,4.3,0,0,1-2.28-.687V34.557a3.362,3.362,0,0,0,1.79.572,2.08,2.08,0,0,0,.817-.155q1.079-.417,1.079-2.207V26.556l2.583-1.537v7.552Zm-1.291-9.325a1.235,1.235,0,0,1-.964-.4,1.761,1.761,0,0,1,0-2.133,1.257,1.257,0,0,1,.964-.392,1.192,1.192,0,0,1,.94.392,1.53,1.53,0,0,1,.351,1.062,1.566,1.566,0,0,1-.351,1.071A1.183,1.183,0,0,1,156.879,23.246Z" transform="translate(-88.496 -20.32)" fill="#00a551"/>
    </g>
  </g>
</svg>
