<svg width="20" height="21" viewBox="0 0 20 21" fill="none" xmlns="http://www.w3.org/2000/svg">
<g clip-path="url(#clip0_47_39)">
<path d="M18.2 19.4374V17.4724C18.1837 16.4144 17.7479 15.4062 16.9884 14.6694C16.229 13.9327 15.208 13.5276 14.15 13.5434H6.05C4.992 13.5276 3.97104 13.9327 3.21158 14.6694C2.45212 15.4062 2.01632 16.4144 2 17.4724V19.4374" stroke="#037A80" stroke-width="0.95" stroke-linecap="round" stroke-linejoin="round"/>
<path d="M14.03 5.681C14.03 6.45848 13.7994 7.2185 13.3675 7.86495C12.9355 8.5114 12.3216 9.01524 11.6033 9.31277C10.885 9.6103 10.0946 9.68815 9.33207 9.53647C8.56953 9.38479 7.86909 9.0104 7.31933 8.46064C6.76957 7.91088 6.39518 7.21044 6.2435 6.4479C6.09183 5.68536 6.16967 4.89497 6.4672 4.17667C6.76473 3.45838 7.26857 2.84444 7.91502 2.41249C8.56147 1.98055 9.32149 1.75 10.099 1.75C11.1415 1.75 12.1414 2.16416 12.8786 2.90136C13.6158 3.63857 14.03 4.63843 14.03 5.681Z" stroke="#037A80" stroke-width="0.95" stroke-linecap="round" stroke-linejoin="round"/>
</g>
<defs>
<clipPath id="clip0_47_39">
<rect width="20" height="20" fill="white" transform="translate(0 0.5)"/>
</clipPath>
</defs>
</svg>
