<svg width="96" height="97" viewBox="0 0 96 97" fill="none" xmlns="http://www.w3.org/2000/svg">
<g clip-path="url(#clip0_47_44)">
<path d="M48 96.5C38.5065 96.5 29.2262 93.6849 21.3327 88.4106C13.4391 83.1363 7.28681 75.6397 3.6538 66.8688C0.0207977 58.098 -0.929762 48.4468 0.922328 39.1357C2.77442 29.8246 7.34599 21.2718 14.0589 14.5589C20.7718 7.84598 29.3246 3.27442 38.6357 1.42233C47.9468 -0.429762 57.598 0.520798 66.3688 4.1538C75.1397 7.78681 82.6363 13.9391 87.9106 21.8326C93.1849 29.7262 96 39.0065 96 48.5C96 61.2304 90.9429 73.4394 81.9411 82.4411C72.9394 91.4429 60.7304 96.5 48 96.5Z" fill="#783FDA"/>
<path d="M38.3313 20.5H57.2253C57.4018 20.5328 57.5667 20.6107 57.7043 20.726L73.9753 37C74.0475 37.0706 74.1045 37.1551 74.143 37.2485C74.1816 37.3418 74.2007 37.442 74.1993 37.543V67.916C74.2163 68.6442 74.1775 69.3727 74.0833 70.095C73.77 71.8255 72.8811 73.3993 71.5609 74.561C70.2406 75.7228 68.5665 76.4043 66.8103 76.495H38.3723C36.6188 76.3999 34.9486 75.7165 33.6313 74.5553C32.314 73.3941 31.4266 71.8227 31.1123 70.095C31.0176 69.3721 30.9788 68.6429 30.9963 67.914C30.9963 65.9907 30.9963 64.0673 30.9963 62.144C30.9963 62.1297 30.9906 62.1159 30.9804 62.1058C30.9703 62.0957 30.9566 62.09 30.9423 62.09H24.5423C24.1777 62.1348 23.8077 62.0972 23.4596 61.9799C23.1115 61.8626 22.7942 61.6687 22.5311 61.4125C22.2679 61.1562 22.0656 60.8442 21.9392 60.4993C21.8127 60.1545 21.7652 59.7856 21.8003 59.42C21.8076 55.0433 21.8076 50.667 21.8003 46.291C21.8003 44.462 22.8333 43.603 24.6003 43.606H30.9103C30.9313 43.606 30.9515 43.5977 30.9665 43.5829C30.9815 43.5681 30.99 43.548 30.9903 43.527C30.9903 38.737 30.9903 33.942 30.9903 29.142C30.9738 28.4133 31.0103 27.6844 31.0993 26.961C31.3996 25.2263 32.2774 23.6441 33.5903 22.4712C34.9031 21.2983 36.5739 20.6037 38.3313 20.5ZM56.2413 22.336C56.2414 22.325 56.2394 22.314 56.2353 22.3038C56.2312 22.2935 56.2251 22.2842 56.2174 22.2763C56.2097 22.2684 56.2005 22.2621 56.1903 22.2578C56.1802 22.2534 56.1693 22.2511 56.1583 22.251H39.4583C38.818 22.2342 38.1774 22.2747 37.5443 22.372C36.4141 22.6075 35.3755 23.1629 34.5521 23.9721C33.7287 24.7813 33.1554 25.8101 32.9003 26.936C32.78 27.6174 32.7288 28.3093 32.7473 29.001C32.7473 33.857 32.7473 38.7067 32.7473 43.55C32.7473 43.5643 32.753 43.5781 32.7631 43.5882C32.7732 43.5983 32.787 43.604 32.8013 43.604H61.1553C62.8953 43.604 63.9193 44.458 63.9303 46.255C63.9576 50.643 63.9543 55.0323 63.9203 59.423C63.957 59.7836 63.9128 60.1479 63.7908 60.4892C63.6688 60.8305 63.4721 61.1403 63.2151 61.3959C62.9581 61.6515 62.6472 61.8465 62.3052 61.9665C61.9632 62.0866 61.5987 62.1288 61.2383 62.09H32.8083C32.7936 62.09 32.7795 62.0958 32.769 62.106C32.7585 62.1163 32.7525 62.1303 32.7523 62.145C32.7443 64.141 32.7443 66.137 32.7523 68.133C32.7372 68.7651 32.7817 69.3972 32.8853 70.021C33.1357 71.1498 33.7059 72.1826 34.5276 72.9961C35.3494 73.8095 36.388 74.3691 37.5193 74.608C38.239 74.7224 38.9678 74.7699 39.6963 74.75H65.6503C66.3537 74.7695 67.0572 74.7179 67.7503 74.596C69.0713 74.3044 70.2551 73.5748 71.1093 72.5258C71.9636 71.4767 72.4383 70.1698 72.4563 68.817V38.546C72.4563 38.5354 72.4542 38.5249 72.4501 38.5152C72.446 38.5054 72.44 38.4965 72.4325 38.4891C72.425 38.4816 72.416 38.4758 72.4062 38.4718C72.3964 38.4678 72.3859 38.4659 72.3753 38.466H59.2443C58.6361 38.5409 58.0207 38.404 57.5016 38.0783C56.9825 37.7527 56.5915 37.2582 56.3943 36.678C56.267 36.1785 56.2132 35.6631 56.2343 35.148C56.2343 30.8873 56.2366 26.6167 56.2413 22.336ZM37.4963 49.026C37.5373 49.026 37.5473 49.044 37.5263 49.079L32.8983 56.779C32.7512 56.9948 32.6544 57.2408 32.6153 57.499C32.5723 58.15 33.0883 58.399 33.6803 58.399H38.8543C39.1151 58.4164 39.3758 58.3635 39.6093 58.246C39.7219 58.1612 39.8128 58.051 39.8747 57.9243C39.9365 57.7976 39.9675 57.6581 39.965 57.5171C39.9626 57.3762 39.9268 57.2378 39.8607 57.1133C39.7945 56.9889 39.6998 56.8818 39.5843 56.801C39.3885 56.703 39.171 56.6566 38.9523 56.666C37.6763 56.6407 36.3963 56.6387 35.1123 56.66C35.0453 56.66 35.0293 56.633 35.0643 56.577C36.5876 54.031 38.1133 51.49 39.6413 48.954C40.2503 47.945 39.9673 47.269 38.7413 47.27H33.8073C33.5384 47.252 33.269 47.2979 33.0213 47.404C32.8875 47.4845 32.778 47.5996 32.7043 47.7373C32.6306 47.8749 32.5954 48.0299 32.6026 48.1859C32.6098 48.3418 32.659 48.493 32.745 48.6232C32.831 48.7535 32.9507 48.8581 33.0913 48.926C33.294 49.0016 33.5103 49.0336 33.7263 49.02C34.9929 49.02 36.2489 49.022 37.4943 49.026M43.8943 48.137C43.8937 47.9096 43.803 47.6917 43.6419 47.5312C43.4809 47.3707 43.2627 47.2807 43.0353 47.281H43.0023C42.8896 47.2811 42.7782 47.3035 42.6742 47.3467C42.5702 47.39 42.4757 47.4533 42.3962 47.5331C42.3167 47.6128 42.2537 47.7075 42.2109 47.8117C42.168 47.9158 42.146 48.0274 42.1463 48.14L42.1623 57.54C42.1628 57.7674 42.2536 57.9853 42.4147 58.1458C42.5757 58.3063 42.7939 58.3963 43.0213 58.396H43.0543C43.1669 58.3959 43.2784 58.3735 43.3824 58.3303C43.4864 58.287 43.5808 58.2237 43.6603 58.1439C43.7398 58.0641 43.8028 57.9695 43.8457 57.8653C43.8886 57.7612 43.9106 57.6496 43.9103 57.537L43.8943 48.137ZM47.5763 54.796C48.7309 54.796 49.4663 54.784 49.7823 54.76C50.7375 54.6561 51.6166 54.19 52.2386 53.4576C52.8606 52.7252 53.1781 51.7822 53.1258 50.8227C53.0736 49.8632 52.6555 48.9603 51.9576 48.2998C51.2597 47.6393 50.3352 47.2715 49.3743 47.272C48.5249 47.268 47.6759 47.268 46.8273 47.272C46.0403 47.277 45.7643 47.604 45.7643 48.402V57.446C45.7443 57.6541 45.8001 57.8625 45.9216 58.0327C46.0431 58.2029 46.222 58.3235 46.4253 58.3722C46.6287 58.4209 46.8428 58.3945 47.0282 58.2978C47.2136 58.2011 47.3578 58.0406 47.4343 57.846C47.498 57.6089 47.524 57.3632 47.5113 57.118C47.5113 56.3633 47.5143 55.607 47.5203 54.849C47.5203 54.8417 47.5217 54.8345 47.5245 54.8277C47.5274 54.821 47.5315 54.8149 47.5368 54.8097C47.542 54.8046 47.5481 54.8006 47.5549 54.7979C47.5617 54.7952 47.569 54.7939 47.5763 54.794" fill="white"/>
<path d="M49.4228 49.0163C49.7326 49.0181 50.0378 49.0925 50.3137 49.2335C50.5896 49.3745 50.8286 49.5782 51.0116 49.8283C51.1946 50.0783 51.3164 50.3678 51.3674 50.6735C51.4183 50.9791 51.3968 51.2924 51.3048 51.5883C50.7918 53.3423 48.9368 53.0713 47.5558 53.0313C47.5496 53.0312 47.5435 53.0298 47.5379 53.0274C47.5322 53.0249 47.5271 53.0213 47.5228 53.0168C47.5186 53.0124 47.5152 53.0071 47.513 53.0014C47.5107 52.9956 47.5096 52.9895 47.5098 52.9833V49.0733C47.5108 49.0592 47.5174 49.046 47.528 49.0366C47.5387 49.0273 47.5526 49.0225 47.5668 49.0233C48.1888 49.0167 48.8074 49.0143 49.4228 49.0163Z" fill="white"/>
</g>
<defs>
<clipPath id="clip0_47_44">
<rect width="96" height="96" fill="white" transform="translate(0 0.5)"/>
</clipPath>
</defs>
</svg>
